<svg xmlns="http://www.w3.org/2000/svg" width="1500.00mm" height="3000.00mm" viewBox="0 0 1500.0000 3000.0000">
  <!-- 6big_sp5_skeleton sheet 0 rendered from solver output placements and input outer_points -->
  <rect width="1500.0000" height="3000.0000" fill="#ffffff" stroke="#111827" stroke-width="2"/>
  <rect x="5.0000" y="5.0000" width="1490.0000" height="2990.0000" fill="none" stroke="#dc2626" stroke-width="1.5" stroke-dasharray="8,6"/>
  <path d="M 283.403 2094.646 L 283.403 1894.206 L 283.406 1894.050 L 283.413 1893.894 L 283.425 1893.738 L 283.442 1893.583 L 283.464 1893.428 L 283.491 1893.275 L 283.522 1893.122 L 283.559 1892.970 L 283.600 1892.819 L 283.645 1892.669 L 283.696 1892.522 L 283.751 1892.375 L 305.740 1836.505 L 302.826 1827.790 L 301.038 1818.776 L 300.405 1809.609 L 300.936 1800.435 L 302.624 1791.402 L 305.441 1782.655 L 309.341 1774.334 L 314.263 1766.574 L 320.127 1759.499 L 326.839 1753.222 L 334.291 1747.845 L 342.363 1743.453 L 374.856 1660.895 L 376.908 1656.357 L 379.402 1652.046 L 382.313 1648.004 L 385.611 1644.272 L 389.264 1640.886 L 393.236 1637.881 L 397.487 1635.286 L 401.975 1633.126 L 406.656 1631.424 L 411.483 1630.196 L 416.408 1629.455 L 421.382 1629.206 L 491.403 1629.206 L 492.709 1629.121 L 493.991 1628.866 L 495.230 1628.445 L 496.403 1627.867 L 497.491 1627.140 L 498.474 1626.278 L 499.337 1625.294 L 500.064 1624.206 L 500.642 1623.033 L 501.063 1621.795 L 501.318 1620.512 L 501.403 1619.206 L 501.403 1304.206 L 501.356 1303.237 L 501.215 1302.277 L 500.982 1301.336 L 500.659 1300.421 L 500.249 1299.542 L 499.755 1298.706 L 499.183 1297.923 L 498.537 1297.199 L 497.824 1296.540 L 497.051 1295.954 L 496.225 1295.446 L 495.353 1295.020 L 438.653 1270.640 L 434.295 1268.510 L 430.163 1265.968 L 426.298 1263.037 L 422.734 1259.745 L 419.506 1256.124 L 416.645 1252.206 L 414.177 1248.030 L 412.124 1243.635 L 410.508 1239.061 L 409.342 1234.352 L 408.639 1229.552 L 408.403 1224.706 L 408.403 848.249 L 408.382 847.595 L 408.318 846.943 L 408.211 846.298 L 408.063 845.660 L 407.873 845.034 L 407.642 844.422 L 407.372 843.826 L 407.064 843.249 L 406.718 842.693 L 406.337 842.161 L 405.922 841.655 L 405.474 841.178 L 401.332 837.035 L 400.885 836.558 L 400.470 836.052 L 400.089 835.520 L 399.743 834.964 L 399.435 834.387 L 399.164 833.791 L 398.934 833.179 L 398.744 832.553 L 398.595 831.915 L 398.489 831.270 L 398.425 830.618 L 398.403 829.964 L 398.403 728.249 L 398.425 727.595 L 398.489 726.943 L 398.595 726.298 L 398.744 725.660 L 398.934 725.034 L 399.164 724.422 L 399.435 723.826 L 399.743 723.249 L 400.089 722.693 L 400.470 722.161 L 400.885 721.655 L 401.332 721.178 L 410.474 712.035 L 410.952 711.588 L 411.458 711.173 L 411.990 710.792 L 412.545 710.446 L 413.122 710.138 L 413.719 709.868 L 414.331 709.637 L 414.957 709.447 L 415.594 709.299 L 416.240 709.192 L 416.891 709.128 L 417.545 709.106 L 434.213 709.106 L 435.359 709.041 L 436.490 708.844 L 437.592 708.518 L 438.648 708.069 L 439.647 707.501 L 440.573 706.823 L 441.416 706.043 L 442.164 705.171 L 442.807 704.219 L 443.336 703.200 L 443.745 702.127 L 444.029 701.015 L 474.026 546.690 L 474.593 544.465 L 475.412 542.319 L 476.471 540.281 L 477.757 538.377 L 479.252 536.634 L 480.937 535.074 L 482.791 533.717 L 484.787 532.582 L 486.901 531.683 L 489.103 531.032 L 491.366 530.638 L 493.659 530.506 L 622.977 530.506 L 623.093 530.503 L 623.210 530.493 L 623.326 530.476 L 623.440 530.452 L 623.553 530.422 L 623.664 530.385 L 623.772 530.341 L 623.878 530.292 L 623.981 530.236 L 624.080 530.174 L 624.176 530.107 L 624.267 530.034 L 632.507 523.370 L 641.024 517.065 L 649.802 511.128 L 658.826 505.572 L 668.080 500.407 L 677.545 495.642 L 687.205 491.286 L 697.043 487.346 L 707.040 483.830 L 717.178 480.744 L 727.439 478.095 L 737.803 475.886 L 737.803 470.506 L 404.403 470.506 L 404.403 491.506 L 397.403 491.506 L 397.403 470.506 L 240.403 470.506 L 240.403 491.506 L 233.403 491.506 L 233.403 470.506 L 5.003 470.506 L 5.003 475.886 L 15.374 478.092 L 25.642 480.739 L 35.787 483.823 L 45.791 487.338 L 55.635 491.277 L 65.302 495.633 L 74.774 500.398 L 84.034 505.565 L 93.064 511.122 L 101.849 517.060 L 110.372 523.368 L 118.617 530.034 L 118.708 530.107 L 118.804 530.175 L 118.903 530.236 L 119.006 530.292 L 119.112 530.341 L 119.220 530.385 L 119.331 530.422 L 119.444 530.452 L 119.558 530.476 L 119.674 530.493 L 119.790 530.503 L 119.907 530.506 L 208.403 530.506 L 211.014 530.678 L 213.580 531.188 L 216.057 532.029 L 218.403 533.186 L 220.578 534.639 L 222.545 536.364 L 224.270 538.331 L 225.724 540.506 L 226.881 542.853 L 227.722 545.330 L 228.232 547.896 L 228.403 550.506 L 228.403 566.006 L 258.403 566.006 L 259.709 566.092 L 260.991 566.347 L 262.230 566.768 L 263.403 567.346 L 264.491 568.073 L 265.474 568.935 L 266.337 569.919 L 267.064 571.006 L 267.642 572.180 L 268.063 573.418 L 268.318 574.701 L 268.403 576.006 L 268.403 636.006 L 268.318 637.312 L 268.063 638.595 L 267.642 639.833 L 267.064 641.006 L 266.337 642.094 L 265.474 643.078 L 264.491 643.940 L 263.403 644.667 L 262.230 645.245 L 260.991 645.666 L 259.709 645.921 L 258.403 646.006 L 228.403 646.006 L 228.403 1330.805 L 228.388 1332.041 L 228.342 1333.276 L 228.266 1334.510 L 228.159 1335.742 L 228.022 1336.970 L 227.854 1338.195 L 227.656 1339.416 L 227.428 1340.631 L 227.170 1341.840 L 226.883 1343.042 L 226.565 1344.237 L 226.218 1345.423 L 105.588 1739.988 L 105.241 1741.174 L 104.924 1742.369 L 104.636 1743.572 L 104.378 1744.781 L 104.150 1745.996 L 103.952 1747.216 L 103.785 1748.441 L 103.648 1749.669 L 103.541 1750.901 L 103.464 1752.135 L 103.419 1753.370 L 103.403 1754.606 L 103.403 1888.810 L 104.379 1888.954 L 105.222 1889.464 L 105.803 1890.261 L 106.031 1891.220 L 105.870 1892.193 L 105.345 1893.028 L 104.538 1893.595 L 103.575 1893.806 L 102.605 1893.628 L 101.780 1893.089 L 101.227 1892.273 L 101.032 1891.306 L 47.032 1891.306 L 47.032 1894.706 L 47.045 1894.931 L 47.083 1895.153 L 47.145 1895.370 L 47.232 1895.578 L 47.341 1895.774 L 47.472 1895.958 L 47.623 1896.125 L 47.791 1896.275 L 47.975 1896.404 L 48.173 1896.512 L 48.381 1896.598 L 48.598 1896.659 L 56.184 1898.800 L 63.481 1901.781 L 70.397 1905.563 L 76.843 1910.099 L 82.739 1915.331 L 88.009 1921.193 L 92.587 1927.610 L 96.414 1934.500 L 99.443 1941.778 L 101.634 1949.350 L 102.959 1957.120 L 103.403 1964.990 L 103.403 2632.998 L 224.782 2961.225 L 224.881 2961.503 L 224.971 2961.784 L 225.052 2962.068 L 225.126 2962.354 L 225.191 2962.642 L 225.247 2962.932 L 225.295 2963.223 L 225.334 2963.516 L 225.364 2963.809 L 225.386 2964.104 L 225.399 2964.398 L 225.403 2964.694 L 225.403 2992.500 L 234.403 2992.500 L 234.403 2974.599 L 234.424 2973.955 L 234.486 2973.313 L 234.590 2972.676 L 234.734 2972.047 L 234.919 2971.429 L 235.143 2970.825 L 235.406 2970.235 L 235.706 2969.664 L 236.042 2969.114 L 236.413 2968.586 L 236.817 2968.084 L 237.253 2967.608 L 250.022 2955.596 L 263.747 2944.692 L 278.335 2934.969 L 293.682 2926.498 L 309.683 2919.336 L 326.225 2913.533 L 343.193 2909.131 L 360.470 2906.159 L 377.934 2904.638 L 395.464 2904.579 L 412.938 2905.983 L 430.235 2908.839 L 447.232 2913.127 L 463.813 2918.819 L 479.861 2925.873 L 495.265 2934.242 L 509.917 2943.866 L 511.205 2944.741 L 512.537 2945.548 L 513.908 2946.285 L 515.316 2946.950 L 516.757 2947.541 L 518.226 2948.057 L 519.720 2948.495 L 521.235 2948.856 L 522.767 2949.137 L 524.311 2949.339 L 525.863 2949.460 L 527.419 2949.500 L 609.403 2949.500 L 610.709 2949.415 L 611.991 2949.159 L 613.230 2948.739 L 614.403 2948.160 L 615.491 2947.434 L 616.474 2946.571 L 617.337 2945.588 L 618.064 2944.500 L 618.642 2943.327 L 619.063 2942.088 L 619.318 2940.805 L 619.403 2939.500 L 619.403 2921.651 L 619.318 2920.345 L 619.063 2919.062 L 618.642 2917.824 L 618.064 2916.651 L 617.337 2915.563 L 616.474 2914.579 L 615.491 2913.717 L 614.403 2912.990 L 613.230 2912.412 L 611.991 2911.991 L 610.709 2911.736 L 609.403 2911.651 L 604.403 2911.651 L 596.600 2910.882 L 589.096 2908.606 L 582.180 2904.909 L 576.119 2899.935 L 571.144 2893.873 L 567.448 2886.958 L 565.172 2879.454 L 564.403 2871.651 L 565.172 2863.847 L 567.448 2856.343 L 571.144 2849.428 L 576.119 2843.366 L 582.180 2838.392 L 589.096 2834.695 L 596.600 2832.419 L 604.403 2831.651 L 609.403 2831.651 L 610.709 2831.565 L 611.991 2831.310 L 613.230 2830.889 L 614.403 2830.311 L 615.491 2829.584 L 616.474 2828.722 L 617.337 2827.738 L 618.064 2826.651 L 618.642 2825.477 L 619.063 2824.239 L 619.318 2822.956 L 619.403 2821.651 L 619.403 2801.651 L 619.318 2800.345 L 619.063 2799.062 L 618.642 2797.824 L 618.064 2796.651 L 617.337 2795.563 L 616.474 2794.579 L 615.491 2793.717 L 614.403 2792.990 L 613.230 2792.412 L 611.991 2791.991 L 610.709 2791.736 L 609.403 2791.651 L 604.403 2791.651 L 596.600 2790.882 L 589.096 2788.606 L 582.180 2784.909 L 576.119 2779.935 L 571.144 2773.873 L 567.448 2766.958 L 565.172 2759.454 L 564.403 2751.651 L 565.172 2743.847 L 567.448 2736.343 L 571.144 2729.428 L 576.119 2723.366 L 582.180 2718.392 L 589.096 2714.695 L 596.600 2712.419 L 604.403 2711.651 L 609.403 2711.651 L 610.709 2711.565 L 611.991 2711.310 L 613.230 2710.889 L 614.403 2710.311 L 615.491 2709.584 L 616.474 2708.722 L 617.337 2707.738 L 618.064 2706.651 L 618.642 2705.477 L 619.063 2704.239 L 619.318 2702.956 L 619.403 2701.651 L 619.403 2676.506 L 619.318 2675.201 L 619.063 2673.918 L 618.642 2672.680 L 618.064 2671.506 L 617.337 2670.419 L 616.474 2669.435 L 615.491 2668.573 L 614.403 2667.846 L 613.230 2667.268 L 611.991 2666.847 L 610.709 2666.592 L 609.403 2666.506 L 403.403 2666.506 L 389.968 2665.752 L 376.701 2663.498 L 363.770 2659.772 L 351.337 2654.623 L 339.559 2648.113 L 328.584 2640.326 L 318.550 2631.359 L 309.583 2621.325 L 301.796 2610.350 L 295.287 2598.572 L 290.137 2586.140 L 286.412 2573.209 L 284.158 2559.942 L 283.403 2546.506 L 283.403 2189.646 L 277.521 2183.081 L 272.560 2175.794 L 268.607 2167.915 L 265.733 2159.582 L 263.988 2150.941 L 263.403 2142.146 L 263.988 2133.350 L 265.733 2124.710 L 268.607 2116.377 L 272.560 2108.497 L 277.521 2101.211 Z" fill="#f28e2b" fill-opacity="0.68" stroke="#1f2937" stroke-width="0.45" data-part-id="Lv8_11612_6db" data-instance-id="Lv8_11612_6db__0002" data-rotation-deg="270.000000"/>
  <path d="M 980.622 1370.858 L 980.622 1571.298 L 980.620 1571.454 L 980.612 1571.610 L 980.600 1571.766 L 980.583 1571.921 L 980.561 1572.076 L 980.535 1572.230 L 980.503 1572.383 L 980.467 1572.535 L 980.426 1572.685 L 980.380 1572.835 L 980.330 1572.983 L 980.275 1573.129 L 958.286 1628.999 L 961.199 1637.714 L 962.987 1646.728 L 963.621 1655.895 L 963.089 1665.070 L 961.401 1674.103 L 958.585 1682.850 L 954.684 1691.170 L 949.762 1698.930 L 943.898 1706.006 L 937.187 1712.282 L 929.735 1717.660 L 921.663 1722.051 L 889.170 1804.609 L 887.117 1809.147 L 884.623 1813.459 L 881.713 1817.500 L 878.414 1821.233 L 874.761 1824.618 L 870.790 1827.623 L 866.539 1830.218 L 862.050 1832.378 L 857.370 1834.080 L 852.543 1835.308 L 847.618 1836.050 L 842.643 1836.298 L 772.622 1836.298 L 771.317 1836.383 L 770.034 1836.639 L 768.795 1837.059 L 767.622 1837.638 L 766.535 1838.364 L 765.551 1839.227 L 764.689 1840.210 L 763.962 1841.298 L 763.383 1842.471 L 762.963 1843.710 L 762.708 1844.993 L 762.622 1846.298 L 762.622 2161.298 L 762.669 2162.267 L 762.810 2163.227 L 763.043 2164.169 L 763.366 2165.083 L 763.777 2165.963 L 764.270 2166.798 L 764.843 2167.581 L 765.488 2168.306 L 766.201 2168.964 L 766.974 2169.550 L 767.800 2170.059 L 768.672 2170.485 L 825.372 2194.864 L 829.731 2196.994 L 833.862 2199.536 L 837.728 2202.467 L 841.291 2205.759 L 844.519 2209.381 L 847.380 2213.298 L 849.849 2217.474 L 851.901 2221.870 L 853.517 2226.444 L 854.683 2231.153 L 855.387 2235.952 L 855.622 2240.798 L 855.622 2617.256 L 855.644 2617.910 L 855.708 2618.561 L 855.814 2619.207 L 855.963 2619.844 L 856.153 2620.470 L 856.383 2621.083 L 856.653 2621.679 L 856.962 2622.256 L 857.307 2622.811 L 857.689 2623.343 L 858.104 2623.849 L 858.551 2624.327 L 862.693 2628.469 L 863.141 2628.947 L 863.556 2629.452 L 863.937 2629.984 L 864.282 2630.540 L 864.591 2631.117 L 864.861 2631.713 L 865.091 2632.326 L 865.281 2632.952 L 865.430 2633.589 L 865.537 2634.235 L 865.601 2634.886 L 865.622 2635.540 L 865.622 2737.256 L 865.601 2737.910 L 865.537 2738.561 L 865.430 2739.207 L 865.281 2739.844 L 865.091 2740.470 L 864.861 2741.083 L 864.591 2741.679 L 864.282 2742.256 L 863.937 2742.811 L 863.556 2743.343 L 863.141 2743.849 L 862.693 2744.327 L 853.551 2753.469 L 853.073 2753.916 L 852.568 2754.331 L 852.036 2754.713 L 851.480 2755.058 L 850.903 2755.367 L 850.307 2755.637 L 849.694 2755.867 L 849.068 2756.057 L 848.431 2756.206 L 847.785 2756.312 L 847.134 2756.376 L 846.480 2756.398 L 829.813 2756.398 L 828.666 2756.464 L 827.535 2756.661 L 826.434 2756.986 L 825.377 2757.436 L 824.379 2758.003 L 823.452 2758.682 L 822.609 2759.462 L 821.862 2760.333 L 821.219 2761.285 L 820.689 2762.304 L 820.280 2763.377 L 819.997 2764.490 L 789.999 2918.814 L 789.432 2921.040 L 788.614 2923.186 L 787.555 2925.224 L 786.269 2927.127 L 784.773 2928.870 L 783.088 2930.430 L 781.235 2931.787 L 779.238 2932.922 L 777.125 2933.821 L 774.922 2934.472 L 772.659 2934.866 L 770.366 2934.998 L 641.049 2934.998 L 640.932 2935.001 L 640.816 2935.012 L 640.700 2935.029 L 640.585 2935.052 L 640.473 2935.083 L 640.362 2935.120 L 640.253 2935.163 L 640.147 2935.213 L 640.045 2935.268 L 639.945 2935.330 L 639.850 2935.397 L 639.758 2935.470 L 631.518 2942.134 L 623.002 2948.440 L 614.223 2954.376 L 605.199 2959.932 L 595.946 2965.097 L 586.480 2969.862 L 576.820 2974.219 L 566.982 2978.158 L 556.985 2981.674 L 546.847 2984.760 L 536.587 2987.410 L 526.222 2989.619 L 526.222 2994.998 L 859.622 2994.998 L 859.622 2973.998 L 866.622 2973.998 L 866.622 2994.998 L 1023.622 2994.998 L 1023.622 2973.998 L 1030.622 2973.998 L 1030.622 2994.998 L 1259.022 2994.998 L 1259.022 2989.619 L 1248.651 2987.412 L 1238.383 2984.765 L 1228.239 2981.681 L 1218.235 2978.167 L 1208.390 2974.228 L 1198.723 2969.871 L 1189.251 2965.106 L 1179.992 2959.940 L 1170.961 2954.383 L 1162.177 2948.445 L 1153.654 2942.137 L 1145.409 2935.470 L 1145.317 2935.397 L 1145.222 2935.330 L 1145.122 2935.268 L 1145.019 2935.212 L 1144.914 2935.163 L 1144.805 2935.120 L 1144.694 2935.083 L 1144.581 2935.052 L 1144.467 2935.029 L 1144.351 2935.011 L 1144.235 2935.001 L 1144.118 2934.998 L 1055.622 2934.998 L 1053.012 2934.827 L 1050.446 2934.316 L 1047.968 2933.475 L 1045.622 2932.318 L 1043.447 2930.865 L 1041.480 2929.140 L 1039.755 2927.173 L 1038.302 2924.998 L 1037.145 2922.652 L 1036.304 2920.174 L 1035.793 2917.608 L 1035.622 2914.998 L 1035.622 2899.498 L 1005.622 2899.498 L 1004.317 2899.412 L 1003.034 2899.157 L 1001.795 2898.737 L 1000.622 2898.158 L 999.535 2897.431 L 998.551 2896.569 L 997.689 2895.585 L 996.962 2894.498 L 996.383 2893.325 L 995.963 2892.086 L 995.708 2890.803 L 995.622 2889.498 L 995.622 2829.498 L 995.708 2828.193 L 995.963 2826.910 L 996.383 2825.671 L 996.962 2824.498 L 997.689 2823.410 L 998.551 2822.427 L 999.535 2821.564 L 1000.622 2820.838 L 1001.795 2820.259 L 1003.034 2819.839 L 1004.317 2819.583 L 1005.622 2819.498 L 1035.622 2819.498 L 1035.622 2134.700 L 1035.637 2133.463 L 1035.683 2132.228 L 1035.760 2130.994 L 1035.866 2129.762 L 1036.004 2128.534 L 1036.171 2127.309 L 1036.369 2126.089 L 1036.597 2124.874 L 1036.855 2123.665 L 1037.143 2122.462 L 1037.460 2121.268 L 1037.807 2120.081 L 1158.437 1725.516 L 1158.784 1724.330 L 1159.102 1723.135 L 1159.389 1721.933 L 1159.647 1720.724 L 1159.875 1719.509 L 1160.073 1718.288 L 1160.241 1717.063 L 1160.378 1715.835 L 1160.485 1714.603 L 1160.561 1713.369 L 1160.607 1712.134 L 1160.622 1710.898 L 1160.622 1576.695 L 1159.647 1576.550 L 1158.803 1576.040 L 1158.222 1575.243 L 1157.995 1574.284 L 1158.156 1573.311 L 1158.680 1572.476 L 1159.487 1571.909 L 1160.450 1571.698 L 1161.420 1571.876 L 1162.246 1572.415 L 1162.799 1573.231 L 1162.993 1574.198 L 1216.993 1574.198 L 1216.993 1570.798 L 1216.981 1570.573 L 1216.943 1570.351 L 1216.880 1570.135 L 1216.794 1569.927 L 1216.684 1569.730 L 1216.553 1569.547 L 1216.403 1569.379 L 1216.234 1569.230 L 1216.050 1569.100 L 1215.853 1568.992 L 1215.644 1568.907 L 1215.427 1568.846 L 1207.841 1566.704 L 1200.544 1563.723 L 1193.629 1559.941 L 1187.182 1555.405 L 1181.286 1550.173 L 1176.016 1544.312 L 1171.438 1537.895 L 1167.611 1531.004 L 1164.583 1523.726 L 1162.392 1516.155 L 1161.066 1508.385 L 1160.622 1500.515 L 1160.622 832.506 L 1039.243 504.279 L 1039.145 504.001 L 1039.055 503.720 L 1038.973 503.436 L 1038.900 503.150 L 1038.835 502.862 L 1038.779 502.573 L 1038.731 502.281 L 1038.692 501.989 L 1038.661 501.695 L 1038.640 501.401 L 1038.627 501.106 L 1038.622 500.811 L 1038.622 473.004 L 1029.622 473.004 L 1029.622 490.905 L 1029.601 491.550 L 1029.539 492.192 L 1029.435 492.828 L 1029.291 493.457 L 1029.106 494.075 L 1028.882 494.680 L 1028.620 495.269 L 1028.320 495.840 L 1027.983 496.390 L 1027.612 496.918 L 1027.208 497.421 L 1026.772 497.896 L 1014.004 509.908 L 1000.278 520.813 L 985.691 530.535 L 970.343 539.006 L 954.343 546.168 L 937.800 551.971 L 920.832 556.374 L 903.555 559.346 L 886.091 560.866 L 868.561 560.925 L 851.087 559.522 L 833.791 556.666 L 816.793 552.377 L 800.212 546.686 L 784.164 539.631 L 768.760 531.263 L 754.108 521.639 L 752.820 520.763 L 751.489 519.956 L 750.117 519.219 L 748.709 518.554 L 747.269 517.963 L 745.799 517.448 L 744.305 517.009 L 742.790 516.649 L 741.259 516.367 L 739.715 516.166 L 738.162 516.045 L 736.606 516.004 L 654.622 516.004 L 653.317 516.090 L 652.034 516.345 L 650.795 516.765 L 649.622 517.344 L 648.535 518.071 L 647.551 518.933 L 646.689 519.917 L 645.962 521.004 L 645.383 522.177 L 644.963 523.416 L 644.708 524.699 L 644.622 526.004 L 644.622 543.854 L 644.708 545.159 L 644.963 546.442 L 645.383 547.681 L 645.962 548.854 L 646.689 549.941 L 647.551 550.925 L 648.535 551.787 L 649.622 552.514 L 650.795 553.093 L 652.034 553.513 L 653.317 553.768 L 654.622 553.854 L 659.622 553.854 L 667.426 554.622 L 674.929 556.899 L 681.845 560.595 L 687.906 565.570 L 692.881 571.631 L 696.577 578.546 L 698.854 586.050 L 699.622 593.854 L 698.854 601.657 L 696.577 609.161 L 692.881 616.077 L 687.906 622.138 L 681.845 627.113 L 674.929 630.809 L 667.426 633.085 L 659.622 633.854 L 654.622 633.854 L 653.317 633.939 L 652.034 634.195 L 650.795 634.615 L 649.622 635.194 L 648.535 635.920 L 647.551 636.783 L 646.689 637.766 L 645.962 638.854 L 645.383 640.027 L 644.963 641.266 L 644.708 642.549 L 644.622 643.854 L 644.622 663.854 L 644.708 665.159 L 644.963 666.442 L 645.383 667.681 L 645.962 668.854 L 646.689 669.941 L 647.551 670.925 L 648.535 671.787 L 649.622 672.514 L 650.795 673.093 L 652.034 673.513 L 653.317 673.768 L 654.622 673.854 L 659.622 673.854 L 667.426 674.622 L 674.929 676.899 L 681.845 680.595 L 687.906 685.570 L 692.881 691.631 L 696.577 698.546 L 698.854 706.050 L 699.622 713.854 L 698.854 721.657 L 696.577 729.161 L 692.881 736.077 L 687.906 742.138 L 681.845 747.113 L 674.929 750.809 L 667.426 753.085 L 659.622 753.854 L 654.622 753.854 L 653.317 753.939 L 652.034 754.195 L 650.795 754.615 L 649.622 755.194 L 648.535 755.920 L 647.551 756.783 L 646.689 757.766 L 645.962 758.854 L 645.383 760.027 L 644.963 761.266 L 644.708 762.549 L 644.622 763.854 L 644.622 788.998 L 644.708 790.303 L 644.963 791.586 L 645.383 792.825 L 645.962 793.998 L 646.689 795.085 L 647.551 796.069 L 648.535 796.931 L 649.622 797.658 L 650.795 798.237 L 652.034 798.657 L 653.317 798.912 L 654.622 798.998 L 860.622 798.998 L 874.058 799.752 L 887.325 802.007 L 900.256 805.732 L 912.688 810.882 L 924.466 817.391 L 935.441 825.178 L 945.475 834.145 L 954.442 844.179 L 962.229 855.154 L 968.738 866.932 L 973.888 879.364 L 977.613 892.295 L 979.868 905.562 L 980.622 918.998 L 980.622 1275.858 L 986.505 1282.423 L 991.466 1289.710 L 995.418 1297.589 L 998.292 1305.922 L 1000.037 1314.563 L 1000.622 1323.358 L 1000.037 1332.154 L 998.292 1340.794 L 995.418 1349.128 L 991.466 1357.007 L 986.505 1364.293 Z" fill="#f28e2b" fill-opacity="0.68" stroke="#1f2937" stroke-width="0.45" data-part-id="Lv8_11612_6db" data-instance-id="Lv8_11612_6db__0006" data-rotation-deg="90.000000"/>
  <text x="8" y="28" font-family="Arial, sans-serif" font-size="26" fill="#111827">6big_sp5_skeleton sheet 0 placed=2</text>
</svg>
