<svg xmlns="http://www.w3.org/2000/svg" width="1500.00mm" height="3000.00mm" viewBox="0 0 1500.0000 3000.0000">
  <!-- 6big_sp8_bias sheet 1 rendered from solver output placements and input outer_points -->
  <rect width="1500.0000" height="3000.0000" fill="#ffffff" stroke="#111827" stroke-width="2"/>
  <rect x="5.0000" y="5.0000" width="1490.0000" height="2990.0000" fill="none" stroke="#dc2626" stroke-width="1.5" stroke-dasharray="8,6"/>
  <path d="M 463.400 1370.857 L 463.400 1571.296 L 463.398 1571.452 L 463.390 1571.609 L 463.378 1571.764 L 463.361 1571.920 L 463.339 1572.074 L 463.312 1572.228 L 463.281 1572.381 L 463.245 1572.533 L 463.204 1572.684 L 463.158 1572.833 L 463.108 1572.981 L 463.053 1573.127 L 441.064 1628.997 L 443.977 1637.713 L 445.765 1646.726 L 446.398 1655.894 L 445.867 1665.068 L 444.179 1674.101 L 441.362 1682.848 L 437.462 1691.169 L 432.540 1698.929 L 426.676 1706.004 L 419.964 1712.281 L 412.513 1717.658 L 404.440 1722.050 L 371.947 1804.608 L 369.895 1809.146 L 367.401 1813.457 L 364.490 1817.499 L 361.192 1821.231 L 357.539 1824.616 L 353.567 1827.622 L 349.316 1830.217 L 344.828 1832.376 L 340.148 1834.078 L 335.321 1835.306 L 330.396 1836.048 L 325.421 1836.296 L 255.400 1836.296 L 254.095 1836.382 L 252.812 1836.637 L 251.573 1837.057 L 250.400 1837.636 L 249.312 1838.363 L 248.329 1839.225 L 247.467 1840.209 L 246.740 1841.296 L 246.161 1842.469 L 245.741 1843.708 L 245.486 1844.991 L 245.400 1846.296 L 245.400 2161.296 L 245.447 2162.265 L 245.588 2163.225 L 245.821 2164.167 L 246.144 2165.082 L 246.555 2165.961 L 247.048 2166.796 L 247.621 2167.580 L 248.266 2168.304 L 248.979 2168.962 L 249.752 2169.549 L 250.578 2170.057 L 251.450 2170.483 L 308.150 2194.862 L 312.508 2196.992 L 316.640 2199.535 L 320.506 2202.466 L 324.069 2205.757 L 327.297 2209.379 L 330.158 2213.296 L 332.627 2217.472 L 334.679 2221.868 L 336.295 2226.442 L 337.461 2231.151 L 338.165 2235.951 L 338.400 2240.796 L 338.400 2617.254 L 338.421 2617.908 L 338.486 2618.559 L 338.592 2619.205 L 338.741 2619.842 L 338.931 2620.469 L 339.161 2621.081 L 339.431 2621.677 L 339.740 2622.254 L 340.085 2622.810 L 340.466 2623.342 L 340.882 2623.848 L 341.329 2624.325 L 345.471 2628.467 L 345.918 2628.945 L 346.333 2629.451 L 346.715 2629.983 L 347.060 2630.538 L 347.369 2631.115 L 347.639 2631.712 L 347.869 2632.324 L 348.059 2632.950 L 348.208 2633.587 L 348.314 2634.233 L 348.379 2634.884 L 348.400 2635.538 L 348.400 2737.254 L 348.379 2737.908 L 348.314 2738.559 L 348.208 2739.205 L 348.059 2739.842 L 347.869 2740.469 L 347.639 2741.081 L 347.369 2741.677 L 347.060 2742.254 L 346.715 2742.810 L 346.333 2743.342 L 345.918 2743.848 L 345.471 2744.325 L 336.329 2753.467 L 335.851 2753.915 L 335.345 2754.330 L 334.814 2754.711 L 334.258 2755.057 L 333.681 2755.365 L 333.085 2755.635 L 332.472 2755.866 L 331.846 2756.056 L 331.209 2756.204 L 330.563 2756.311 L 329.912 2756.375 L 329.258 2756.396 L 312.591 2756.396 L 311.444 2756.462 L 310.313 2756.659 L 309.212 2756.984 L 308.155 2757.434 L 307.157 2758.002 L 306.230 2758.680 L 305.387 2759.460 L 304.639 2760.332 L 303.997 2761.283 L 303.467 2762.302 L 303.058 2763.375 L 302.774 2764.488 L 272.777 2918.812 L 272.210 2921.038 L 271.391 2923.184 L 270.332 2925.222 L 269.047 2927.125 L 267.551 2928.868 L 265.866 2930.429 L 264.013 2931.785 L 262.016 2932.921 L 259.903 2933.820 L 257.700 2934.470 L 255.437 2934.864 L 253.144 2934.996 L 123.827 2934.996 L 123.710 2935.000 L 123.593 2935.010 L 123.478 2935.027 L 123.363 2935.051 L 123.250 2935.081 L 123.139 2935.118 L 123.031 2935.161 L 122.925 2935.211 L 122.822 2935.267 L 122.723 2935.328 L 122.627 2935.396 L 122.536 2935.468 L 114.296 2942.132 L 105.779 2948.438 L 97.001 2954.374 L 87.977 2959.930 L 78.724 2965.095 L 69.258 2969.861 L 59.598 2974.217 L 49.760 2978.157 L 39.763 2981.673 L 29.625 2984.758 L 19.364 2987.408 L 9.000 2989.617 L 9.000 2994.996 L 342.400 2994.996 L 342.400 2973.996 L 349.400 2973.996 L 349.400 2994.996 L 506.400 2994.996 L 506.400 2973.996 L 513.400 2973.996 L 513.400 2994.996 L 741.800 2994.996 L 741.800 2989.617 L 731.429 2987.411 L 721.161 2984.764 L 711.016 2981.680 L 701.013 2978.165 L 691.168 2974.226 L 681.501 2969.870 L 672.029 2965.104 L 662.769 2959.938 L 653.739 2954.381 L 644.954 2948.443 L 636.432 2942.135 L 628.186 2935.468 L 628.095 2935.395 L 627.999 2935.328 L 627.900 2935.267 L 627.797 2935.211 L 627.691 2935.161 L 627.583 2935.118 L 627.472 2935.081 L 627.359 2935.051 L 627.245 2935.027 L 627.129 2935.010 L 627.013 2935.000 L 626.896 2934.996 L 538.400 2934.996 L 535.789 2934.825 L 533.224 2934.315 L 530.746 2933.474 L 528.400 2932.317 L 526.225 2930.863 L 524.258 2929.138 L 522.533 2927.171 L 521.079 2924.996 L 519.922 2922.650 L 519.082 2920.173 L 518.571 2917.607 L 518.400 2914.996 L 518.400 2899.496 L 488.400 2899.496 L 487.095 2899.411 L 485.812 2899.156 L 484.573 2898.735 L 483.400 2898.157 L 482.312 2897.430 L 481.329 2896.567 L 480.466 2895.584 L 479.740 2894.496 L 479.161 2893.323 L 478.741 2892.084 L 478.486 2890.802 L 478.400 2889.496 L 478.400 2829.496 L 478.486 2828.191 L 478.741 2826.908 L 479.161 2825.669 L 479.740 2824.496 L 480.466 2823.409 L 481.329 2822.425 L 482.312 2821.563 L 483.400 2820.836 L 484.573 2820.257 L 485.812 2819.837 L 487.095 2819.582 L 488.400 2819.496 L 518.400 2819.496 L 518.400 2134.698 L 518.415 2133.462 L 518.461 2132.226 L 518.537 2130.993 L 518.644 2129.761 L 518.782 2128.532 L 518.949 2127.307 L 519.147 2126.087 L 519.375 2124.872 L 519.633 2123.663 L 519.921 2122.461 L 520.238 2121.266 L 520.585 2120.079 L 641.215 1725.515 L 641.562 1724.328 L 641.879 1723.133 L 642.167 1721.931 L 642.425 1720.722 L 642.653 1719.507 L 642.851 1718.287 L 643.018 1717.062 L 643.156 1715.833 L 643.263 1714.602 L 643.339 1713.368 L 643.385 1712.132 L 643.400 1710.896 L 643.400 1576.693 L 642.425 1576.549 L 641.581 1576.038 L 641.000 1575.242 L 640.773 1574.282 L 640.934 1573.309 L 641.458 1572.475 L 642.265 1571.908 L 643.228 1571.697 L 644.198 1571.874 L 645.024 1572.413 L 645.577 1573.230 L 645.771 1574.196 L 699.771 1574.196 L 699.771 1570.796 L 699.758 1570.571 L 699.721 1570.349 L 699.658 1570.133 L 699.571 1569.925 L 699.462 1569.728 L 699.331 1569.545 L 699.181 1569.377 L 699.012 1569.228 L 698.828 1569.098 L 698.630 1568.990 L 698.422 1568.905 L 698.205 1568.844 L 690.619 1566.702 L 683.322 1563.722 L 676.407 1559.939 L 669.960 1555.403 L 664.064 1550.172 L 658.794 1544.310 L 654.216 1537.893 L 650.389 1531.002 L 647.361 1523.725 L 645.170 1516.153 L 643.844 1508.383 L 643.400 1500.513 L 643.400 832.504 L 522.021 504.278 L 521.923 503.999 L 521.833 503.718 L 521.751 503.435 L 521.678 503.149 L 521.613 502.861 L 521.556 502.571 L 521.509 502.280 L 521.470 501.987 L 521.439 501.694 L 521.417 501.399 L 521.404 501.104 L 521.400 500.809 L 521.400 473.003 L 512.400 473.003 L 512.400 490.903 L 512.379 491.548 L 512.317 492.190 L 512.213 492.827 L 512.069 493.455 L 511.884 494.073 L 511.660 494.678 L 511.398 495.267 L 511.097 495.838 L 510.761 496.389 L 510.390 496.916 L 509.986 497.419 L 509.550 497.895 L 496.782 509.906 L 483.056 520.811 L 468.469 530.533 L 453.121 539.005 L 437.121 546.167 L 420.578 551.969 L 403.610 556.372 L 386.333 559.344 L 368.869 560.865 L 351.339 560.924 L 333.865 559.520 L 316.569 556.664 L 299.571 552.375 L 282.990 546.684 L 266.942 539.630 L 251.538 531.261 L 236.886 521.637 L 235.598 520.762 L 234.267 519.955 L 232.895 519.217 L 231.487 518.552 L 230.046 517.961 L 228.577 517.446 L 227.083 517.007 L 225.568 516.647 L 224.037 516.366 L 222.493 516.164 L 220.940 516.043 L 219.384 516.003 L 137.400 516.003 L 136.095 516.088 L 134.812 516.343 L 133.573 516.764 L 132.400 517.342 L 131.312 518.069 L 130.329 518.932 L 129.467 519.915 L 128.740 521.003 L 128.161 522.176 L 127.741 523.414 L 127.486 524.697 L 127.400 526.003 L 127.400 543.852 L 127.486 545.157 L 127.741 546.440 L 128.161 547.679 L 128.740 548.852 L 129.467 549.940 L 130.329 550.923 L 131.312 551.786 L 132.400 552.512 L 133.573 553.091 L 134.812 553.511 L 136.095 553.767 L 137.400 553.852 L 142.400 553.852 L 150.204 554.621 L 157.707 556.897 L 164.623 560.593 L 170.684 565.568 L 175.659 571.629 L 179.355 578.545 L 181.631 586.049 L 182.400 593.852 L 181.631 601.656 L 179.355 609.160 L 175.659 616.075 L 170.684 622.136 L 164.623 627.111 L 157.707 630.807 L 150.204 633.084 L 142.400 633.852 L 137.400 633.852 L 136.095 633.938 L 134.812 634.193 L 133.573 634.613 L 132.400 635.192 L 131.312 635.919 L 130.329 636.781 L 129.467 637.765 L 128.740 638.852 L 128.161 640.025 L 127.741 641.264 L 127.486 642.547 L 127.400 643.852 L 127.400 663.852 L 127.486 665.157 L 127.741 666.440 L 128.161 667.679 L 128.740 668.852 L 129.467 669.940 L 130.329 670.923 L 131.312 671.786 L 132.400 672.512 L 133.573 673.091 L 134.812 673.511 L 136.095 673.767 L 137.400 673.852 L 142.400 673.852 L 150.204 674.621 L 157.707 676.897 L 164.623 680.593 L 170.684 685.568 L 175.659 691.629 L 179.355 698.545 L 181.631 706.049 L 182.400 713.852 L 181.631 721.656 L 179.355 729.160 L 175.659 736.075 L 170.684 742.136 L 164.623 747.111 L 157.707 750.807 L 150.204 753.084 L 142.400 753.852 L 137.400 753.852 L 136.095 753.938 L 134.812 754.193 L 133.573 754.613 L 132.400 755.192 L 131.312 755.919 L 130.329 756.781 L 129.467 757.765 L 128.740 758.852 L 128.161 760.025 L 127.741 761.264 L 127.486 762.547 L 127.400 763.852 L 127.400 788.996 L 127.486 790.302 L 127.741 791.584 L 128.161 792.823 L 128.740 793.996 L 129.467 795.084 L 130.329 796.067 L 131.312 796.930 L 132.400 797.657 L 133.573 798.235 L 134.812 798.656 L 136.095 798.911 L 137.400 798.996 L 343.400 798.996 L 356.836 799.751 L 370.103 802.005 L 383.034 805.730 L 395.466 810.880 L 407.244 817.389 L 418.219 825.176 L 428.253 834.143 L 437.220 844.177 L 445.007 855.152 L 451.516 866.930 L 456.666 879.363 L 460.391 892.294 L 462.646 905.561 L 463.400 918.996 L 463.400 1275.857 L 469.283 1282.422 L 474.244 1289.708 L 478.196 1297.587 L 481.070 1305.921 L 482.815 1314.561 L 483.400 1323.357 L 482.815 1332.152 L 481.070 1340.793 L 478.196 1349.126 L 474.244 1357.005 L 469.283 1364.292 Z" fill="#f28e2b" fill-opacity="0.68" stroke="#1f2937" stroke-width="0.45" data-part-id="Lv8_11612_6db" data-instance-id="Lv8_11612_6db__0003" data-rotation-deg="90.000000"/>
  <path d="M 996.741 1302.841 L 996.741 1503.280 L 996.738 1503.437 L 996.731 1503.593 L 996.719 1503.748 L 996.702 1503.904 L 996.680 1504.058 L 996.653 1504.212 L 996.622 1504.365 L 996.585 1504.517 L 996.544 1504.668 L 996.499 1504.817 L 996.448 1504.965 L 996.393 1505.112 L 974.404 1560.981 L 977.318 1569.697 L 979.106 1578.711 L 979.739 1587.878 L 979.208 1597.052 L 977.520 1606.085 L 974.703 1614.832 L 970.802 1623.153 L 965.881 1630.913 L 960.017 1637.988 L 953.305 1644.265 L 945.853 1649.642 L 937.781 1654.034 L 905.288 1736.592 L 903.235 1741.130 L 900.741 1745.441 L 897.831 1749.483 L 894.533 1753.215 L 890.880 1756.601 L 886.908 1759.606 L 882.657 1762.201 L 878.169 1764.360 L 873.488 1766.063 L 868.661 1767.291 L 863.736 1768.032 L 858.762 1768.280 L 788.741 1768.280 L 787.435 1768.366 L 786.152 1768.621 L 784.914 1769.042 L 783.741 1769.620 L 782.653 1770.347 L 781.670 1771.209 L 780.807 1772.193 L 780.080 1773.280 L 779.502 1774.454 L 779.081 1775.692 L 778.826 1776.975 L 778.741 1778.280 L 778.741 2093.280 L 778.788 2094.250 L 778.928 2095.209 L 779.162 2096.151 L 779.485 2097.066 L 779.895 2097.945 L 780.389 2098.780 L 780.961 2099.564 L 781.607 2100.288 L 782.320 2100.947 L 783.093 2101.533 L 783.919 2102.041 L 784.791 2102.467 L 841.491 2126.846 L 845.849 2128.977 L 849.981 2131.519 L 853.846 2134.450 L 857.410 2137.742 L 860.637 2141.363 L 863.499 2145.281 L 865.967 2149.457 L 868.019 2153.852 L 869.636 2158.426 L 870.802 2163.135 L 871.505 2167.935 L 871.741 2172.780 L 871.741 2549.238 L 871.762 2549.892 L 871.826 2550.544 L 871.933 2551.189 L 872.081 2551.827 L 872.271 2552.453 L 872.502 2553.065 L 872.772 2553.661 L 873.080 2554.238 L 873.426 2554.794 L 873.807 2555.326 L 874.222 2555.832 L 874.670 2556.309 L 878.812 2560.452 L 879.259 2560.929 L 879.674 2561.435 L 880.055 2561.967 L 880.401 2562.523 L 880.709 2563.100 L 880.979 2563.696 L 881.210 2564.308 L 881.400 2564.934 L 881.549 2565.572 L 881.655 2566.217 L 881.719 2566.869 L 881.741 2567.523 L 881.741 2669.238 L 881.719 2669.892 L 881.655 2670.544 L 881.549 2671.189 L 881.400 2671.827 L 881.210 2672.453 L 880.979 2673.065 L 880.709 2673.661 L 880.401 2674.238 L 880.055 2674.794 L 879.674 2675.326 L 879.259 2675.832 L 878.812 2676.309 L 869.670 2685.452 L 869.192 2685.899 L 868.686 2686.314 L 868.154 2686.695 L 867.599 2687.041 L 867.021 2687.349 L 866.425 2687.619 L 865.813 2687.850 L 865.187 2688.040 L 864.549 2688.188 L 863.904 2688.295 L 863.253 2688.359 L 862.599 2688.380 L 845.931 2688.380 L 844.785 2688.446 L 843.654 2688.643 L 842.552 2688.969 L 841.495 2689.418 L 840.497 2689.986 L 839.571 2690.664 L 838.728 2691.444 L 837.980 2692.316 L 837.337 2693.268 L 836.808 2694.287 L 836.399 2695.360 L 836.115 2696.472 L 806.118 2850.797 L 805.551 2853.022 L 804.732 2855.168 L 803.673 2857.206 L 802.387 2859.109 L 800.892 2860.853 L 799.207 2862.413 L 797.353 2863.770 L 795.357 2864.905 L 793.243 2865.804 L 791.041 2866.455 L 788.778 2866.849 L 786.485 2866.980 L 657.167 2866.980 L 657.050 2866.984 L 656.934 2866.994 L 656.818 2867.011 L 656.704 2867.035 L 656.591 2867.065 L 656.480 2867.102 L 656.372 2867.146 L 656.266 2867.195 L 656.163 2867.251 L 656.064 2867.312 L 655.968 2867.380 L 655.877 2867.453 L 647.637 2874.117 L 639.120 2880.422 L 630.342 2886.359 L 621.317 2891.914 L 612.064 2897.080 L 602.599 2901.845 L 592.938 2906.201 L 583.101 2910.141 L 573.104 2913.657 L 562.966 2916.743 L 552.705 2919.392 L 542.341 2921.601 L 542.341 2926.980 L 875.741 2926.980 L 875.741 2905.980 L 882.741 2905.980 L 882.741 2926.980 L 1039.741 2926.980 L 1039.741 2905.980 L 1046.741 2905.980 L 1046.741 2926.980 L 1275.141 2926.980 L 1275.141 2921.601 L 1264.769 2919.395 L 1254.502 2916.748 L 1244.357 2913.664 L 1234.353 2910.149 L 1224.509 2906.210 L 1214.842 2901.854 L 1205.370 2897.088 L 1196.110 2891.922 L 1187.080 2886.365 L 1178.295 2880.427 L 1169.772 2874.119 L 1161.527 2867.452 L 1161.436 2867.380 L 1161.340 2867.312 L 1161.241 2867.251 L 1161.138 2867.195 L 1161.032 2867.145 L 1160.924 2867.102 L 1160.813 2867.065 L 1160.700 2867.035 L 1160.585 2867.011 L 1160.470 2866.994 L 1160.353 2866.984 L 1160.237 2866.980 L 1071.741 2866.980 L 1069.130 2866.809 L 1066.564 2866.299 L 1064.087 2865.458 L 1061.741 2864.301 L 1059.565 2862.848 L 1057.599 2861.123 L 1055.874 2859.156 L 1054.420 2856.980 L 1053.263 2854.634 L 1052.422 2852.157 L 1051.912 2849.591 L 1051.741 2846.980 L 1051.741 2831.480 L 1021.741 2831.480 L 1020.435 2831.395 L 1019.152 2831.140 L 1017.914 2830.719 L 1016.741 2830.141 L 1015.653 2829.414 L 1014.670 2828.552 L 1013.807 2827.568 L 1013.080 2826.480 L 1012.502 2825.307 L 1012.081 2824.069 L 1011.826 2822.786 L 1011.741 2821.480 L 1011.741 2761.480 L 1011.826 2760.175 L 1012.081 2758.892 L 1012.502 2757.654 L 1013.080 2756.480 L 1013.807 2755.393 L 1014.670 2754.409 L 1015.653 2753.547 L 1016.741 2752.820 L 1017.914 2752.242 L 1019.152 2751.821 L 1020.435 2751.566 L 1021.741 2751.480 L 1051.741 2751.480 L 1051.741 2066.682 L 1051.756 2065.446 L 1051.802 2064.211 L 1051.878 2062.977 L 1051.985 2061.745 L 1052.122 2060.516 L 1052.290 2059.292 L 1052.488 2058.071 L 1052.716 2056.856 L 1052.974 2055.647 L 1053.261 2054.445 L 1053.579 2053.250 L 1053.925 2052.064 L 1174.556 1657.499 L 1174.903 1656.312 L 1175.220 1655.118 L 1175.508 1653.915 L 1175.766 1652.706 L 1175.994 1651.491 L 1176.191 1650.271 L 1176.359 1649.046 L 1176.496 1647.817 L 1176.603 1646.586 L 1176.680 1645.352 L 1176.725 1644.117 L 1176.741 1642.880 L 1176.741 1508.677 L 1175.765 1508.533 L 1174.922 1508.023 L 1174.341 1507.226 L 1174.113 1506.266 L 1174.274 1505.294 L 1174.799 1504.459 L 1175.606 1503.892 L 1176.569 1503.681 L 1177.539 1503.859 L 1178.364 1504.398 L 1178.917 1505.214 L 1179.112 1506.180 L 1233.112 1506.180 L 1233.112 1502.780 L 1233.099 1502.556 L 1233.061 1502.334 L 1232.999 1502.117 L 1232.912 1501.909 L 1232.803 1501.712 L 1232.672 1501.529 L 1232.521 1501.362 L 1232.353 1501.212 L 1232.169 1501.083 L 1231.971 1500.974 L 1231.763 1500.889 L 1231.546 1500.828 L 1223.960 1498.687 L 1216.663 1495.706 L 1209.747 1491.923 L 1203.301 1487.388 L 1197.405 1482.156 L 1192.135 1476.294 L 1187.557 1469.877 L 1183.730 1462.986 L 1180.701 1455.709 L 1178.510 1448.137 L 1177.184 1440.367 L 1176.741 1432.497 L 1176.741 764.488 L 1055.361 436.262 L 1055.263 435.984 L 1055.173 435.702 L 1055.091 435.419 L 1055.018 435.133 L 1054.953 434.845 L 1054.897 434.555 L 1054.849 434.264 L 1054.810 433.971 L 1054.780 433.678 L 1054.758 433.383 L 1054.745 433.089 L 1054.741 432.793 L 1054.741 404.987 L 1045.741 404.987 L 1045.741 422.887 L 1045.720 423.532 L 1045.658 424.174 L 1045.554 424.811 L 1045.410 425.440 L 1045.225 426.058 L 1045.001 426.662 L 1044.738 427.252 L 1044.438 427.823 L 1044.102 428.373 L 1043.731 428.901 L 1043.326 429.403 L 1042.891 429.879 L 1030.122 441.890 L 1016.397 452.795 L 1001.809 462.517 L 986.462 470.989 L 970.461 478.151 L 953.919 483.954 L 936.951 488.356 L 919.674 491.328 L 902.210 492.849 L 884.679 492.908 L 867.205 491.504 L 849.909 488.648 L 832.912 484.360 L 816.331 478.668 L 800.283 471.614 L 784.879 463.245 L 770.226 453.621 L 768.939 452.746 L 767.607 451.939 L 766.236 451.202 L 764.828 450.537 L 763.387 449.946 L 761.918 449.430 L 760.424 448.992 L 758.909 448.631 L 757.377 448.350 L 755.833 448.148 L 754.281 448.027 L 752.724 447.987 L 670.741 447.987 L 669.435 448.072 L 668.152 448.328 L 666.914 448.748 L 665.741 449.327 L 664.653 450.053 L 663.670 450.916 L 662.807 451.899 L 662.080 452.987 L 661.502 454.160 L 661.081 455.399 L 660.826 456.682 L 660.741 457.987 L 660.741 475.836 L 660.826 477.142 L 661.081 478.425 L 661.502 479.663 L 662.080 480.836 L 662.807 481.924 L 663.670 482.907 L 664.653 483.770 L 665.741 484.497 L 666.914 485.075 L 668.152 485.496 L 669.435 485.751 L 670.741 485.836 L 675.741 485.836 L 683.544 486.605 L 691.048 488.881 L 697.963 492.578 L 704.025 497.552 L 708.999 503.614 L 712.696 510.529 L 714.972 518.033 L 715.741 525.836 L 714.972 533.640 L 712.696 541.144 L 708.999 548.059 L 704.025 554.121 L 697.963 559.095 L 691.048 562.792 L 683.544 565.068 L 675.741 565.836 L 670.741 565.836 L 669.435 565.922 L 668.152 566.177 L 666.914 566.598 L 665.741 567.176 L 664.653 567.903 L 663.670 568.765 L 662.807 569.749 L 662.080 570.836 L 661.502 572.010 L 661.081 573.248 L 660.826 574.531 L 660.741 575.836 L 660.741 595.836 L 660.826 597.142 L 661.081 598.425 L 661.502 599.663 L 662.080 600.836 L 662.807 601.924 L 663.670 602.907 L 664.653 603.770 L 665.741 604.497 L 666.914 605.075 L 668.152 605.496 L 669.435 605.751 L 670.741 605.836 L 675.741 605.836 L 683.544 606.605 L 691.048 608.881 L 697.963 612.578 L 704.025 617.552 L 708.999 623.614 L 712.696 630.529 L 714.972 638.033 L 715.741 645.836 L 714.972 653.640 L 712.696 661.144 L 708.999 668.059 L 704.025 674.121 L 697.963 679.095 L 691.048 682.792 L 683.544 685.068 L 675.741 685.836 L 670.741 685.836 L 669.435 685.922 L 668.152 686.177 L 666.914 686.598 L 665.741 687.176 L 664.653 687.903 L 663.670 688.765 L 662.807 689.749 L 662.080 690.836 L 661.502 692.010 L 661.081 693.248 L 660.826 694.531 L 660.741 695.836 L 660.741 720.980 L 660.826 722.286 L 661.081 723.569 L 661.502 724.807 L 662.080 725.980 L 662.807 727.068 L 663.670 728.052 L 664.653 728.914 L 665.741 729.641 L 666.914 730.219 L 668.152 730.640 L 669.435 730.895 L 670.741 730.980 L 876.741 730.980 L 890.176 731.735 L 903.443 733.989 L 916.374 737.714 L 928.807 742.864 L 940.584 749.374 L 951.559 757.161 L 961.593 766.128 L 970.560 776.162 L 978.348 787.137 L 984.857 798.914 L 990.007 811.347 L 993.732 824.278 L 995.986 837.545 L 996.741 850.980 L 996.741 1207.841 L 1002.623 1214.406 L 1007.584 1221.692 L 1011.537 1229.572 L 1014.411 1237.905 L 1016.156 1246.545 L 1016.741 1255.341 L 1016.156 1264.137 L 1014.411 1272.777 L 1011.537 1281.110 L 1007.584 1288.990 L 1002.623 1296.276 Z" fill="#f28e2b" fill-opacity="0.68" stroke="#1f2937" stroke-width="0.45" data-part-id="Lv8_11612_6db" data-instance-id="Lv8_11612_6db__0004" data-rotation-deg="90.000000"/>
  <text x="8" y="28" font-family="Arial, sans-serif" font-size="26" fill="#111827">6big_sp8_bias sheet 1 placed=2</text>
</svg>
