<svg xmlns="http://www.w3.org/2000/svg" width="1500.00mm" height="3000.00mm" viewBox="0 0 1500.0000 3000.0000">
  <!-- 6big_sp8_bias sheet 0 rendered from solver output placements and input outer_points -->
  <rect width="1500.0000" height="3000.0000" fill="#ffffff" stroke="#111827" stroke-width="2"/>
  <rect x="5.0000" y="5.0000" width="1490.0000" height="2990.0000" fill="none" stroke="#dc2626" stroke-width="1.5" stroke-dasharray="8,6"/>
  <path d="M 463.400 1370.858 L 463.400 1571.298 L 463.398 1571.454 L 463.390 1571.610 L 463.378 1571.766 L 463.361 1571.921 L 463.339 1572.076 L 463.312 1572.230 L 463.281 1572.383 L 463.245 1572.535 L 463.204 1572.686 L 463.158 1572.835 L 463.108 1572.983 L 463.053 1573.129 L 441.064 1628.999 L 443.977 1637.714 L 445.765 1646.728 L 446.398 1655.896 L 445.867 1665.070 L 444.179 1674.103 L 441.362 1682.850 L 437.462 1691.170 L 432.540 1698.930 L 426.676 1706.006 L 419.964 1712.283 L 412.513 1717.660 L 404.440 1722.051 L 371.947 1804.610 L 369.895 1809.148 L 367.401 1813.459 L 364.490 1817.501 L 361.192 1821.233 L 357.539 1824.618 L 353.567 1827.623 L 349.316 1830.219 L 344.828 1832.378 L 340.148 1834.080 L 335.321 1835.308 L 330.396 1836.050 L 325.421 1836.298 L 255.400 1836.298 L 254.095 1836.384 L 252.812 1836.639 L 251.573 1837.059 L 250.400 1837.638 L 249.312 1838.364 L 248.329 1839.227 L 247.467 1840.210 L 246.740 1841.298 L 246.161 1842.471 L 245.741 1843.710 L 245.486 1844.993 L 245.400 1846.298 L 245.400 2161.298 L 245.447 2162.267 L 245.588 2163.227 L 245.821 2164.169 L 246.144 2165.084 L 246.555 2165.963 L 247.048 2166.798 L 247.621 2167.581 L 248.266 2168.306 L 248.979 2168.964 L 249.752 2169.550 L 250.578 2170.059 L 251.450 2170.485 L 308.150 2194.864 L 312.508 2196.994 L 316.640 2199.537 L 320.506 2202.467 L 324.069 2205.759 L 327.297 2209.381 L 330.158 2213.298 L 332.627 2217.474 L 334.679 2221.870 L 336.295 2226.444 L 337.461 2231.153 L 338.165 2235.953 L 338.400 2240.798 L 338.400 2617.256 L 338.421 2617.910 L 338.486 2618.561 L 338.592 2619.207 L 338.741 2619.844 L 338.931 2620.470 L 339.161 2621.083 L 339.431 2621.679 L 339.740 2622.256 L 340.085 2622.812 L 340.466 2623.343 L 340.882 2623.849 L 341.329 2624.327 L 345.471 2628.469 L 345.918 2628.947 L 346.333 2629.452 L 346.715 2629.984 L 347.060 2630.540 L 347.369 2631.117 L 347.639 2631.713 L 347.869 2632.326 L 348.059 2632.952 L 348.208 2633.589 L 348.314 2634.235 L 348.379 2634.886 L 348.400 2635.540 L 348.400 2737.256 L 348.379 2737.910 L 348.314 2738.561 L 348.208 2739.207 L 348.059 2739.844 L 347.869 2740.470 L 347.639 2741.083 L 347.369 2741.679 L 347.060 2742.256 L 346.715 2742.812 L 346.333 2743.343 L 345.918 2743.849 L 345.471 2744.327 L 336.329 2753.469 L 335.851 2753.916 L 335.345 2754.331 L 334.814 2754.713 L 334.258 2755.058 L 333.681 2755.367 L 333.085 2755.637 L 332.472 2755.867 L 331.846 2756.057 L 331.209 2756.206 L 330.563 2756.312 L 329.912 2756.377 L 329.258 2756.398 L 312.591 2756.398 L 311.444 2756.464 L 310.313 2756.661 L 309.212 2756.986 L 308.155 2757.436 L 307.157 2758.003 L 306.230 2758.682 L 305.387 2759.462 L 304.639 2760.333 L 303.997 2761.285 L 303.467 2762.304 L 303.058 2763.377 L 302.774 2764.490 L 272.777 2918.814 L 272.210 2921.040 L 271.391 2923.186 L 270.332 2925.224 L 269.047 2927.127 L 267.551 2928.870 L 265.866 2930.430 L 264.013 2931.787 L 262.016 2932.923 L 259.903 2933.821 L 257.700 2934.472 L 255.437 2934.866 L 253.144 2934.998 L 123.827 2934.998 L 123.710 2935.001 L 123.593 2935.012 L 123.478 2935.029 L 123.363 2935.052 L 123.250 2935.083 L 123.139 2935.120 L 123.031 2935.163 L 122.925 2935.213 L 122.822 2935.268 L 122.723 2935.330 L 122.627 2935.397 L 122.536 2935.470 L 114.296 2942.134 L 105.779 2948.440 L 97.001 2954.376 L 87.977 2959.932 L 78.724 2965.097 L 69.258 2969.862 L 59.598 2974.219 L 49.760 2978.159 L 39.763 2981.674 L 29.625 2984.760 L 19.364 2987.410 L 9.000 2989.619 L 9.000 2994.998 L 342.400 2994.998 L 342.400 2973.998 L 349.400 2973.998 L 349.400 2994.998 L 506.400 2994.998 L 506.400 2973.998 L 513.400 2973.998 L 513.400 2994.998 L 741.800 2994.998 L 741.800 2989.619 L 731.429 2987.413 L 721.161 2984.765 L 711.016 2981.681 L 701.013 2978.167 L 691.168 2974.228 L 681.501 2969.871 L 672.029 2965.106 L 662.769 2959.940 L 653.739 2954.383 L 644.954 2948.445 L 636.432 2942.137 L 628.186 2935.470 L 628.095 2935.397 L 627.999 2935.330 L 627.900 2935.268 L 627.797 2935.213 L 627.691 2935.163 L 627.583 2935.120 L 627.472 2935.083 L 627.359 2935.052 L 627.245 2935.029 L 627.129 2935.012 L 627.013 2935.001 L 626.896 2934.998 L 538.400 2934.998 L 535.789 2934.827 L 533.224 2934.316 L 530.746 2933.476 L 528.400 2932.318 L 526.225 2930.865 L 524.258 2929.140 L 522.533 2927.173 L 521.079 2924.998 L 519.922 2922.652 L 519.082 2920.174 L 518.571 2917.608 L 518.400 2914.998 L 518.400 2899.498 L 488.400 2899.498 L 487.095 2899.412 L 485.812 2899.157 L 484.573 2898.737 L 483.400 2898.158 L 482.312 2897.431 L 481.329 2896.569 L 480.466 2895.586 L 479.740 2894.498 L 479.161 2893.325 L 478.741 2892.086 L 478.486 2890.803 L 478.400 2889.498 L 478.400 2829.498 L 478.486 2828.193 L 478.741 2826.910 L 479.161 2825.671 L 479.740 2824.498 L 480.466 2823.410 L 481.329 2822.427 L 482.312 2821.564 L 483.400 2820.838 L 484.573 2820.259 L 485.812 2819.839 L 487.095 2819.584 L 488.400 2819.498 L 518.400 2819.498 L 518.400 2134.700 L 518.415 2133.463 L 518.461 2132.228 L 518.537 2130.994 L 518.644 2129.763 L 518.782 2128.534 L 518.949 2127.309 L 519.147 2126.089 L 519.375 2124.874 L 519.633 2123.665 L 519.921 2122.462 L 520.238 2121.268 L 520.585 2120.081 L 641.215 1725.517 L 641.562 1724.330 L 641.879 1723.135 L 642.167 1721.933 L 642.425 1720.724 L 642.653 1719.509 L 642.851 1718.288 L 643.018 1717.064 L 643.156 1715.835 L 643.263 1714.603 L 643.339 1713.369 L 643.385 1712.134 L 643.400 1710.898 L 643.400 1576.695 L 642.425 1576.550 L 641.581 1576.040 L 641.000 1575.243 L 640.773 1574.284 L 640.934 1573.311 L 641.458 1572.476 L 642.265 1571.909 L 643.228 1571.698 L 644.198 1571.876 L 645.024 1572.415 L 645.577 1573.231 L 645.771 1574.198 L 699.771 1574.198 L 699.771 1570.798 L 699.758 1570.573 L 699.721 1570.351 L 699.658 1570.135 L 699.571 1569.927 L 699.462 1569.730 L 699.331 1569.547 L 699.181 1569.379 L 699.012 1569.230 L 698.828 1569.100 L 698.630 1568.992 L 698.422 1568.907 L 698.205 1568.846 L 690.619 1566.704 L 683.322 1563.723 L 676.407 1559.941 L 669.960 1555.405 L 664.064 1550.173 L 658.794 1544.312 L 654.216 1537.895 L 650.389 1531.004 L 647.361 1523.727 L 645.170 1516.155 L 643.844 1508.385 L 643.400 1500.515 L 643.400 832.506 L 522.021 504.279 L 521.923 504.001 L 521.833 503.720 L 521.751 503.436 L 521.678 503.150 L 521.613 502.862 L 521.556 502.573 L 521.509 502.281 L 521.470 501.989 L 521.439 501.695 L 521.417 501.401 L 521.404 501.106 L 521.400 500.811 L 521.400 473.004 L 512.400 473.004 L 512.400 490.905 L 512.379 491.550 L 512.317 492.192 L 512.213 492.828 L 512.069 493.457 L 511.884 494.075 L 511.660 494.680 L 511.398 495.269 L 511.097 495.840 L 510.761 496.390 L 510.390 496.918 L 509.986 497.421 L 509.550 497.896 L 496.782 509.908 L 483.056 520.813 L 468.469 530.535 L 453.121 539.007 L 437.121 546.169 L 420.578 551.971 L 403.610 556.374 L 386.333 559.346 L 368.869 560.866 L 351.339 560.925 L 333.865 559.522 L 316.569 556.666 L 299.571 552.377 L 282.990 546.686 L 266.942 539.631 L 251.538 531.263 L 236.886 521.639 L 235.598 520.763 L 234.267 519.956 L 232.895 519.219 L 231.487 518.554 L 230.046 517.963 L 228.577 517.448 L 227.083 517.009 L 225.568 516.649 L 224.037 516.367 L 222.493 516.166 L 220.940 516.045 L 219.384 516.004 L 137.400 516.004 L 136.095 516.090 L 134.812 516.345 L 133.573 516.766 L 132.400 517.344 L 131.312 518.071 L 130.329 518.933 L 129.467 519.917 L 128.740 521.004 L 128.161 522.177 L 127.741 523.416 L 127.486 524.699 L 127.400 526.004 L 127.400 543.854 L 127.486 545.159 L 127.741 546.442 L 128.161 547.681 L 128.740 548.854 L 129.467 549.942 L 130.329 550.925 L 131.312 551.787 L 132.400 552.514 L 133.573 553.093 L 134.812 553.513 L 136.095 553.768 L 137.400 553.854 L 142.400 553.854 L 150.204 554.622 L 157.707 556.899 L 164.623 560.595 L 170.684 565.570 L 175.659 571.631 L 179.355 578.547 L 181.631 586.050 L 182.400 593.854 L 181.631 601.658 L 179.355 609.161 L 175.659 616.077 L 170.684 622.138 L 164.623 627.113 L 157.707 630.809 L 150.204 633.085 L 142.400 633.854 L 137.400 633.854 L 136.095 633.939 L 134.812 634.195 L 133.573 634.615 L 132.400 635.194 L 131.312 635.920 L 130.329 636.783 L 129.467 637.766 L 128.740 638.854 L 128.161 640.027 L 127.741 641.266 L 127.486 642.549 L 127.400 643.854 L 127.400 663.854 L 127.486 665.159 L 127.741 666.442 L 128.161 667.681 L 128.740 668.854 L 129.467 669.942 L 130.329 670.925 L 131.312 671.787 L 132.400 672.514 L 133.573 673.093 L 134.812 673.513 L 136.095 673.768 L 137.400 673.854 L 142.400 673.854 L 150.204 674.622 L 157.707 676.899 L 164.623 680.595 L 170.684 685.570 L 175.659 691.631 L 179.355 698.547 L 181.631 706.050 L 182.400 713.854 L 181.631 721.658 L 179.355 729.161 L 175.659 736.077 L 170.684 742.138 L 164.623 747.113 L 157.707 750.809 L 150.204 753.085 L 142.400 753.854 L 137.400 753.854 L 136.095 753.939 L 134.812 754.195 L 133.573 754.615 L 132.400 755.194 L 131.312 755.920 L 130.329 756.783 L 129.467 757.766 L 128.740 758.854 L 128.161 760.027 L 127.741 761.266 L 127.486 762.549 L 127.400 763.854 L 127.400 788.998 L 127.486 790.303 L 127.741 791.586 L 128.161 792.825 L 128.740 793.998 L 129.467 795.086 L 130.329 796.069 L 131.312 796.931 L 132.400 797.658 L 133.573 798.237 L 134.812 798.657 L 136.095 798.912 L 137.400 798.998 L 343.400 798.998 L 356.836 799.752 L 370.103 802.007 L 383.034 805.732 L 395.466 810.882 L 407.244 817.391 L 418.219 825.178 L 428.253 834.145 L 437.220 844.179 L 445.007 855.154 L 451.516 866.932 L 456.666 879.364 L 460.391 892.295 L 462.646 905.562 L 463.400 918.998 L 463.400 1275.858 L 469.283 1282.423 L 474.244 1289.710 L 478.196 1297.589 L 481.070 1305.922 L 482.815 1314.563 L 483.400 1323.358 L 482.815 1332.154 L 481.070 1340.795 L 478.196 1349.128 L 474.244 1357.007 L 469.283 1364.293 Z" fill="#f28e2b" fill-opacity="0.68" stroke="#1f2937" stroke-width="0.45" data-part-id="Lv8_11612_6db" data-instance-id="Lv8_11612_6db__0001" data-rotation-deg="90.000000"/>
  <path d="M 996.870 1302.848 L 996.870 1503.287 L 996.867 1503.443 L 996.860 1503.600 L 996.848 1503.755 L 996.831 1503.911 L 996.809 1504.065 L 996.782 1504.219 L 996.751 1504.372 L 996.714 1504.524 L 996.673 1504.675 L 996.628 1504.824 L 996.577 1504.972 L 996.522 1505.118 L 974.533 1560.988 L 977.447 1569.704 L 979.235 1578.717 L 979.868 1587.885 L 979.337 1597.059 L 977.649 1606.092 L 974.832 1614.839 L 970.932 1623.160 L 966.010 1630.920 L 960.146 1637.995 L 953.434 1644.272 L 945.982 1649.649 L 937.910 1654.041 L 905.417 1736.599 L 903.365 1741.137 L 900.871 1745.448 L 897.960 1749.490 L 894.662 1753.222 L 891.009 1756.607 L 887.037 1759.613 L 882.786 1762.208 L 878.298 1764.367 L 873.617 1766.069 L 868.790 1767.297 L 863.865 1768.039 L 858.891 1768.287 L 788.870 1768.287 L 787.564 1768.373 L 786.282 1768.628 L 785.043 1769.048 L 783.870 1769.627 L 782.782 1770.354 L 781.799 1771.216 L 780.936 1772.200 L 780.209 1773.287 L 779.631 1774.460 L 779.210 1775.699 L 778.955 1776.982 L 778.870 1778.287 L 778.870 2093.287 L 778.917 2094.256 L 779.058 2095.216 L 779.291 2096.158 L 779.614 2097.073 L 780.024 2097.952 L 780.518 2098.787 L 781.090 2099.571 L 781.736 2100.295 L 782.449 2100.953 L 783.222 2101.540 L 784.048 2102.048 L 784.920 2102.474 L 841.620 2126.853 L 845.978 2128.983 L 850.110 2131.526 L 853.975 2134.457 L 857.539 2137.748 L 860.767 2141.370 L 863.628 2145.287 L 866.096 2149.463 L 868.149 2153.859 L 869.765 2158.433 L 870.931 2163.142 L 871.634 2167.942 L 871.870 2172.787 L 871.870 2549.245 L 871.891 2549.899 L 871.955 2550.550 L 872.062 2551.196 L 872.210 2551.833 L 872.400 2552.460 L 872.631 2553.072 L 872.901 2553.668 L 873.209 2554.245 L 873.555 2554.801 L 873.936 2555.333 L 874.351 2555.839 L 874.799 2556.316 L 878.941 2560.458 L 879.388 2560.936 L 879.803 2561.442 L 880.184 2561.974 L 880.530 2562.529 L 880.838 2563.106 L 881.109 2563.703 L 881.339 2564.315 L 881.529 2564.941 L 881.678 2565.578 L 881.784 2566.224 L 881.848 2566.875 L 881.870 2567.529 L 881.870 2669.245 L 881.848 2669.899 L 881.784 2670.550 L 881.678 2671.196 L 881.529 2671.833 L 881.339 2672.460 L 881.109 2673.072 L 880.838 2673.668 L 880.530 2674.245 L 880.184 2674.801 L 879.803 2675.333 L 879.388 2675.839 L 878.941 2676.316 L 869.799 2685.458 L 869.321 2685.906 L 868.815 2686.321 L 868.283 2686.702 L 867.728 2687.048 L 867.151 2687.356 L 866.554 2687.626 L 865.942 2687.857 L 865.316 2688.047 L 864.679 2688.195 L 864.033 2688.302 L 863.382 2688.366 L 862.728 2688.387 L 846.060 2688.387 L 844.914 2688.453 L 843.783 2688.650 L 842.681 2688.975 L 841.625 2689.425 L 840.626 2689.993 L 839.700 2690.671 L 838.857 2691.451 L 838.109 2692.323 L 837.466 2693.274 L 836.937 2694.293 L 836.528 2695.366 L 836.244 2696.479 L 806.247 2850.803 L 805.680 2853.029 L 804.861 2855.175 L 803.802 2857.213 L 802.516 2859.116 L 801.021 2860.859 L 799.336 2862.420 L 797.482 2863.776 L 795.486 2864.912 L 793.372 2865.811 L 791.170 2866.461 L 788.907 2866.855 L 786.614 2866.987 L 657.296 2866.987 L 657.180 2866.991 L 657.063 2867.001 L 656.947 2867.018 L 656.833 2867.042 L 656.720 2867.072 L 656.609 2867.109 L 656.501 2867.152 L 656.395 2867.202 L 656.292 2867.258 L 656.193 2867.319 L 656.097 2867.387 L 656.006 2867.459 L 647.766 2874.123 L 639.249 2880.429 L 630.471 2886.365 L 621.447 2891.921 L 612.193 2897.086 L 602.728 2901.852 L 593.068 2906.208 L 583.230 2910.148 L 573.233 2913.664 L 563.095 2916.749 L 552.834 2919.399 L 542.470 2921.608 L 542.470 2926.987 L 875.870 2926.987 L 875.870 2905.987 L 882.870 2905.987 L 882.870 2926.987 L 1039.870 2926.987 L 1039.870 2905.987 L 1046.870 2905.987 L 1046.870 2926.987 L 1275.270 2926.987 L 1275.270 2921.608 L 1264.899 2919.402 L 1254.631 2916.755 L 1244.486 2913.671 L 1234.482 2910.156 L 1224.638 2906.217 L 1214.971 2901.861 L 1205.499 2897.095 L 1196.239 2891.929 L 1187.209 2886.372 L 1178.424 2880.434 L 1169.901 2874.126 L 1161.656 2867.459 L 1161.565 2867.386 L 1161.469 2867.319 L 1161.370 2867.258 L 1161.267 2867.202 L 1161.161 2867.152 L 1161.053 2867.109 L 1160.942 2867.072 L 1160.829 2867.042 L 1160.715 2867.018 L 1160.599 2867.001 L 1160.483 2866.991 L 1160.366 2866.987 L 1071.870 2866.987 L 1069.259 2866.816 L 1066.693 2866.306 L 1064.216 2865.465 L 1061.870 2864.308 L 1059.695 2862.854 L 1057.728 2861.129 L 1056.003 2859.162 L 1054.549 2856.987 L 1053.392 2854.641 L 1052.551 2852.164 L 1052.041 2849.598 L 1051.870 2846.987 L 1051.870 2831.487 L 1021.870 2831.487 L 1020.564 2831.402 L 1019.282 2831.147 L 1018.043 2830.726 L 1016.870 2830.148 L 1015.782 2829.421 L 1014.799 2828.558 L 1013.936 2827.575 L 1013.209 2826.487 L 1012.631 2825.314 L 1012.210 2824.075 L 1011.955 2822.793 L 1011.870 2821.487 L 1011.870 2761.487 L 1011.955 2760.182 L 1012.210 2758.899 L 1012.631 2757.660 L 1013.209 2756.487 L 1013.936 2755.400 L 1014.799 2754.416 L 1015.782 2753.554 L 1016.870 2752.827 L 1018.043 2752.248 L 1019.282 2751.828 L 1020.564 2751.573 L 1021.870 2751.487 L 1051.870 2751.487 L 1051.870 2066.689 L 1051.885 2065.453 L 1051.931 2064.217 L 1052.007 2062.984 L 1052.114 2061.752 L 1052.251 2060.523 L 1052.419 2059.298 L 1052.617 2058.078 L 1052.845 2056.863 L 1053.103 2055.654 L 1053.390 2054.452 L 1053.708 2053.257 L 1054.055 2052.070 L 1174.685 1657.506 L 1175.032 1656.319 L 1175.349 1655.124 L 1175.637 1653.922 L 1175.895 1652.713 L 1176.123 1651.498 L 1176.321 1650.278 L 1176.488 1649.053 L 1176.625 1647.824 L 1176.732 1646.593 L 1176.809 1645.359 L 1176.854 1644.123 L 1176.870 1642.887 L 1176.870 1508.684 L 1175.894 1508.540 L 1175.051 1508.029 L 1174.470 1507.233 L 1174.242 1506.273 L 1174.403 1505.300 L 1174.928 1504.466 L 1175.735 1503.899 L 1176.698 1503.688 L 1177.668 1503.865 L 1178.493 1504.404 L 1179.046 1505.221 L 1179.241 1506.187 L 1233.241 1506.187 L 1233.241 1502.787 L 1233.228 1502.562 L 1233.190 1502.340 L 1233.128 1502.124 L 1233.041 1501.916 L 1232.932 1501.719 L 1232.801 1501.536 L 1232.650 1501.368 L 1232.482 1501.219 L 1232.298 1501.089 L 1232.100 1500.981 L 1231.892 1500.896 L 1231.675 1500.835 L 1224.089 1498.693 L 1216.792 1495.713 L 1209.876 1491.930 L 1203.430 1487.394 L 1197.534 1482.163 L 1192.264 1476.301 L 1187.686 1469.884 L 1183.859 1462.993 L 1180.830 1455.716 L 1178.639 1448.144 L 1177.314 1440.374 L 1176.870 1432.504 L 1176.870 764.495 L 1055.491 436.269 L 1055.392 435.990 L 1055.302 435.709 L 1055.221 435.426 L 1055.147 435.140 L 1055.082 434.852 L 1055.026 434.562 L 1054.978 434.271 L 1054.939 433.978 L 1054.909 433.685 L 1054.887 433.390 L 1054.874 433.095 L 1054.870 432.800 L 1054.870 404.994 L 1045.870 404.994 L 1045.870 422.894 L 1045.849 423.539 L 1045.787 424.181 L 1045.683 424.818 L 1045.539 425.446 L 1045.354 426.064 L 1045.130 426.669 L 1044.867 427.258 L 1044.567 427.829 L 1044.231 428.380 L 1043.860 428.907 L 1043.456 429.410 L 1043.020 429.886 L 1030.251 441.897 L 1016.526 452.802 L 1001.938 462.524 L 986.591 470.996 L 970.590 478.158 L 954.048 483.960 L 937.080 488.363 L 919.803 491.335 L 902.339 492.856 L 884.809 492.915 L 867.335 491.511 L 850.038 488.655 L 833.041 484.366 L 816.460 478.675 L 800.412 471.621 L 785.008 463.252 L 770.356 453.628 L 769.068 452.753 L 767.736 451.946 L 766.365 451.208 L 764.957 450.543 L 763.516 449.952 L 762.047 449.437 L 760.553 448.998 L 759.038 448.638 L 757.506 448.357 L 755.962 448.155 L 754.410 448.034 L 752.854 447.994 L 670.870 447.994 L 669.564 448.079 L 668.282 448.334 L 667.043 448.755 L 665.870 449.333 L 664.782 450.060 L 663.799 450.923 L 662.936 451.906 L 662.209 452.994 L 661.631 454.167 L 661.210 455.405 L 660.955 456.688 L 660.870 457.994 L 660.870 475.843 L 660.955 477.148 L 661.210 478.431 L 661.631 479.670 L 662.209 480.843 L 662.936 481.931 L 663.799 482.914 L 664.782 483.777 L 665.870 484.503 L 667.043 485.082 L 668.282 485.502 L 669.564 485.758 L 670.870 485.843 L 675.870 485.843 L 683.673 486.612 L 691.177 488.888 L 698.093 492.584 L 704.154 497.559 L 709.129 503.620 L 712.825 510.536 L 715.101 518.040 L 715.870 525.843 L 715.101 533.647 L 712.825 541.151 L 709.129 548.066 L 704.154 554.127 L 698.093 559.102 L 691.177 562.798 L 683.673 565.075 L 675.870 565.843 L 670.870 565.843 L 669.564 565.929 L 668.282 566.184 L 667.043 566.604 L 665.870 567.183 L 664.782 567.910 L 663.799 568.772 L 662.936 569.756 L 662.209 570.843 L 661.631 572.016 L 661.210 573.255 L 660.955 574.538 L 660.870 575.843 L 660.870 595.843 L 660.955 597.148 L 661.210 598.431 L 661.631 599.670 L 662.209 600.843 L 662.936 601.931 L 663.799 602.914 L 664.782 603.777 L 665.870 604.503 L 667.043 605.082 L 668.282 605.502 L 669.564 605.758 L 670.870 605.843 L 675.870 605.843 L 683.673 606.612 L 691.177 608.888 L 698.093 612.584 L 704.154 617.559 L 709.129 623.620 L 712.825 630.536 L 715.101 638.040 L 715.870 645.843 L 715.101 653.647 L 712.825 661.151 L 709.129 668.066 L 704.154 674.127 L 698.093 679.102 L 691.177 682.798 L 683.673 685.075 L 675.870 685.843 L 670.870 685.843 L 669.564 685.929 L 668.282 686.184 L 667.043 686.604 L 665.870 687.183 L 664.782 687.910 L 663.799 688.772 L 662.936 689.756 L 662.209 690.843 L 661.631 692.016 L 661.210 693.255 L 660.955 694.538 L 660.870 695.843 L 660.870 720.987 L 660.955 722.293 L 661.210 723.575 L 661.631 724.814 L 662.209 725.987 L 662.936 727.075 L 663.799 728.058 L 664.782 728.921 L 665.870 729.648 L 667.043 730.226 L 668.282 730.647 L 669.564 730.902 L 670.870 730.987 L 876.870 730.987 L 890.305 731.742 L 903.572 733.996 L 916.503 737.721 L 928.936 742.871 L 940.714 749.380 L 951.689 757.167 L 961.723 766.134 L 970.690 776.168 L 978.477 787.143 L 984.986 798.921 L 990.136 811.354 L 993.861 824.285 L 996.115 837.552 L 996.870 850.987 L 996.870 1207.848 L 1002.752 1214.413 L 1007.713 1221.699 L 1011.666 1229.578 L 1014.540 1237.912 L 1016.285 1246.552 L 1016.870 1255.348 L 1016.285 1264.143 L 1014.540 1272.784 L 1011.666 1281.117 L 1007.713 1288.996 L 1002.752 1296.283 Z" fill="#f28e2b" fill-opacity="0.68" stroke="#1f2937" stroke-width="0.45" data-part-id="Lv8_11612_6db" data-instance-id="Lv8_11612_6db__0002" data-rotation-deg="90.000000"/>
  <text x="8" y="28" font-family="Arial, sans-serif" font-size="26" fill="#111827">6big_sp8_bias sheet 0 placed=2</text>
</svg>
