<svg xmlns="http://www.w3.org/2000/svg" width="1500.00mm" height="3000.00mm" viewBox="0 0 1500.0000 3000.0000">
  <!-- 6big_sp8_bias sheet 2 rendered from solver output placements and input outer_points -->
  <rect width="1500.0000" height="3000.0000" fill="#ffffff" stroke="#111827" stroke-width="2"/>
  <rect x="5.0000" y="5.0000" width="1490.0000" height="2990.0000" fill="none" stroke="#dc2626" stroke-width="1.5" stroke-dasharray="8,6"/>
  <path d="M 463.400 1370.854 L 463.400 1571.293 L 463.398 1571.449 L 463.390 1571.605 L 463.378 1571.761 L 463.361 1571.916 L 463.339 1572.071 L 463.312 1572.225 L 463.281 1572.378 L 463.245 1572.530 L 463.204 1572.681 L 463.158 1572.830 L 463.108 1572.978 L 463.053 1573.124 L 441.064 1628.994 L 443.977 1637.709 L 445.765 1646.723 L 446.398 1655.891 L 445.867 1665.065 L 444.179 1674.098 L 441.362 1682.845 L 437.462 1691.165 L 432.540 1698.926 L 426.676 1706.001 L 419.964 1712.278 L 412.513 1717.655 L 404.440 1722.047 L 371.947 1804.605 L 369.895 1809.143 L 367.401 1813.454 L 364.490 1817.496 L 361.192 1821.228 L 357.539 1824.613 L 353.567 1827.619 L 349.316 1830.214 L 344.828 1832.373 L 340.148 1834.075 L 335.321 1835.303 L 330.396 1836.045 L 325.421 1836.293 L 255.400 1836.293 L 254.095 1836.379 L 252.812 1836.634 L 251.573 1837.054 L 250.400 1837.633 L 249.312 1838.360 L 248.329 1839.222 L 247.467 1840.206 L 246.740 1841.293 L 246.161 1842.466 L 245.741 1843.705 L 245.486 1844.988 L 245.400 1846.293 L 245.400 2161.293 L 245.447 2162.262 L 245.588 2163.222 L 245.821 2164.164 L 246.144 2165.079 L 246.555 2165.958 L 247.048 2166.793 L 247.621 2167.577 L 248.266 2168.301 L 248.979 2168.959 L 249.752 2169.545 L 250.578 2170.054 L 251.450 2170.480 L 308.150 2194.859 L 312.508 2196.989 L 316.640 2199.532 L 320.506 2202.463 L 324.069 2205.754 L 327.297 2209.376 L 330.158 2213.293 L 332.627 2217.469 L 334.679 2221.865 L 336.295 2226.439 L 337.461 2231.148 L 338.165 2235.948 L 338.400 2240.793 L 338.400 2617.251 L 338.421 2617.905 L 338.486 2618.556 L 338.592 2619.202 L 338.741 2619.839 L 338.931 2620.465 L 339.161 2621.078 L 339.431 2621.674 L 339.740 2622.251 L 340.085 2622.807 L 340.466 2623.339 L 340.882 2623.844 L 341.329 2624.322 L 345.471 2628.464 L 345.918 2628.942 L 346.333 2629.448 L 346.715 2629.980 L 347.060 2630.535 L 347.369 2631.112 L 347.639 2631.708 L 347.869 2632.321 L 348.059 2632.947 L 348.208 2633.584 L 348.314 2634.230 L 348.379 2634.881 L 348.400 2635.535 L 348.400 2737.251 L 348.379 2737.905 L 348.314 2738.556 L 348.208 2739.202 L 348.059 2739.839 L 347.869 2740.465 L 347.639 2741.078 L 347.369 2741.674 L 347.060 2742.251 L 346.715 2742.807 L 346.333 2743.339 L 345.918 2743.844 L 345.471 2744.322 L 336.329 2753.464 L 335.851 2753.912 L 335.345 2754.327 L 334.814 2754.708 L 334.258 2755.053 L 333.681 2755.362 L 333.085 2755.632 L 332.472 2755.862 L 331.846 2756.052 L 331.209 2756.201 L 330.563 2756.308 L 329.912 2756.372 L 329.258 2756.393 L 312.591 2756.393 L 311.444 2756.459 L 310.313 2756.656 L 309.212 2756.981 L 308.155 2757.431 L 307.157 2757.999 L 306.230 2758.677 L 305.387 2759.457 L 304.639 2760.329 L 303.997 2761.280 L 303.467 2762.299 L 303.058 2763.372 L 302.774 2764.485 L 272.777 2918.809 L 272.210 2921.035 L 271.391 2923.181 L 270.332 2925.219 L 269.047 2927.122 L 267.551 2928.865 L 265.866 2930.426 L 264.013 2931.782 L 262.016 2932.918 L 259.903 2933.817 L 257.700 2934.467 L 255.437 2934.861 L 253.144 2934.993 L 123.827 2934.993 L 123.710 2934.997 L 123.593 2935.007 L 123.478 2935.024 L 123.363 2935.048 L 123.250 2935.078 L 123.139 2935.115 L 123.031 2935.158 L 122.925 2935.208 L 122.822 2935.264 L 122.723 2935.325 L 122.627 2935.393 L 122.536 2935.465 L 114.296 2942.129 L 105.779 2948.435 L 97.001 2954.371 L 87.977 2959.927 L 78.724 2965.092 L 69.258 2969.857 L 59.598 2974.214 L 49.760 2978.154 L 39.763 2981.670 L 29.625 2984.755 L 19.364 2987.405 L 9.000 2989.614 L 9.000 2994.993 L 342.400 2994.993 L 342.400 2973.993 L 349.400 2973.993 L 349.400 2994.993 L 506.400 2994.993 L 506.400 2973.993 L 513.400 2973.993 L 513.400 2994.993 L 741.800 2994.993 L 741.800 2989.614 L 731.429 2987.408 L 721.161 2984.760 L 711.016 2981.677 L 701.013 2978.162 L 691.168 2974.223 L 681.501 2969.867 L 672.029 2965.101 L 662.769 2959.935 L 653.739 2954.378 L 644.954 2948.440 L 636.432 2942.132 L 628.186 2935.465 L 628.095 2935.392 L 627.999 2935.325 L 627.900 2935.263 L 627.797 2935.208 L 627.691 2935.158 L 627.583 2935.115 L 627.472 2935.078 L 627.359 2935.048 L 627.245 2935.024 L 627.129 2935.007 L 627.013 2934.997 L 626.896 2934.993 L 538.400 2934.993 L 535.789 2934.822 L 533.224 2934.312 L 530.746 2933.471 L 528.400 2932.314 L 526.225 2930.860 L 524.258 2929.135 L 522.533 2927.168 L 521.079 2924.993 L 519.922 2922.647 L 519.082 2920.170 L 518.571 2917.604 L 518.400 2914.993 L 518.400 2899.493 L 488.400 2899.493 L 487.095 2899.408 L 485.812 2899.152 L 484.573 2898.732 L 483.400 2898.153 L 482.312 2897.427 L 481.329 2896.564 L 480.466 2895.581 L 479.740 2894.493 L 479.161 2893.320 L 478.741 2892.081 L 478.486 2890.798 L 478.400 2889.493 L 478.400 2829.493 L 478.486 2828.188 L 478.741 2826.905 L 479.161 2825.666 L 479.740 2824.493 L 480.466 2823.406 L 481.329 2822.422 L 482.312 2821.560 L 483.400 2820.833 L 484.573 2820.254 L 485.812 2819.834 L 487.095 2819.579 L 488.400 2819.493 L 518.400 2819.493 L 518.400 2134.695 L 518.415 2133.459 L 518.461 2132.223 L 518.537 2130.989 L 518.644 2129.758 L 518.782 2128.529 L 518.949 2127.304 L 519.147 2126.084 L 519.375 2124.869 L 519.633 2123.660 L 519.921 2122.458 L 520.238 2121.263 L 520.585 2120.076 L 641.215 1725.512 L 641.562 1724.325 L 641.879 1723.130 L 642.167 1721.928 L 642.425 1720.719 L 642.653 1719.504 L 642.851 1718.284 L 643.018 1717.059 L 643.156 1715.830 L 643.263 1714.599 L 643.339 1713.365 L 643.385 1712.129 L 643.400 1710.893 L 643.400 1576.690 L 642.425 1576.545 L 641.581 1576.035 L 641.000 1575.238 L 640.773 1574.279 L 640.934 1573.306 L 641.458 1572.472 L 642.265 1571.905 L 643.228 1571.694 L 644.198 1571.871 L 645.024 1572.410 L 645.577 1573.227 L 645.771 1574.193 L 699.771 1574.193 L 699.771 1570.793 L 699.758 1570.568 L 699.721 1570.346 L 699.658 1570.130 L 699.571 1569.922 L 699.462 1569.725 L 699.331 1569.542 L 699.181 1569.374 L 699.012 1569.225 L 698.828 1569.095 L 698.630 1568.987 L 698.422 1568.902 L 698.205 1568.841 L 690.619 1566.699 L 683.322 1563.718 L 676.407 1559.936 L 669.960 1555.400 L 664.064 1550.168 L 658.794 1544.307 L 654.216 1537.890 L 650.389 1530.999 L 647.361 1523.722 L 645.170 1516.150 L 643.844 1508.380 L 643.400 1500.510 L 643.400 832.501 L 522.021 504.275 L 521.923 503.996 L 521.833 503.715 L 521.751 503.431 L 521.678 503.146 L 521.613 502.858 L 521.556 502.568 L 521.509 502.277 L 521.470 501.984 L 521.439 501.690 L 521.417 501.396 L 521.404 501.101 L 521.400 500.806 L 521.400 473.000 L 512.400 473.000 L 512.400 490.900 L 512.379 491.545 L 512.317 492.187 L 512.213 492.824 L 512.069 493.452 L 511.884 494.070 L 511.660 494.675 L 511.398 495.264 L 511.097 495.835 L 510.761 496.386 L 510.390 496.913 L 509.986 497.416 L 509.550 497.891 L 496.782 509.903 L 483.056 520.808 L 468.469 530.530 L 453.121 539.002 L 437.121 546.164 L 420.578 551.966 L 403.610 556.369 L 386.333 559.341 L 368.869 560.862 L 351.339 560.921 L 333.865 559.517 L 316.569 556.661 L 299.571 552.372 L 282.990 546.681 L 266.942 539.626 L 251.538 531.258 L 236.886 521.634 L 235.598 520.759 L 234.267 519.951 L 232.895 519.214 L 231.487 518.549 L 230.046 517.958 L 228.577 517.443 L 227.083 517.004 L 225.568 516.644 L 224.037 516.363 L 222.493 516.161 L 220.940 516.040 L 219.384 516.000 L 137.400 516.000 L 136.095 516.085 L 134.812 516.340 L 133.573 516.761 L 132.400 517.339 L 131.312 518.066 L 130.329 518.928 L 129.467 519.912 L 128.740 521.000 L 128.161 522.173 L 127.741 523.411 L 127.486 524.694 L 127.400 526.000 L 127.400 543.849 L 127.486 545.154 L 127.741 546.437 L 128.161 547.676 L 128.740 548.849 L 129.467 549.937 L 130.329 550.920 L 131.312 551.783 L 132.400 552.509 L 133.573 553.088 L 134.812 553.508 L 136.095 553.764 L 137.400 553.849 L 142.400 553.849 L 150.204 554.618 L 157.707 556.894 L 164.623 560.590 L 170.684 565.565 L 175.659 571.626 L 179.355 578.542 L 181.631 586.045 L 182.400 593.849 L 181.631 601.653 L 179.355 609.156 L 175.659 616.072 L 170.684 622.133 L 164.623 627.108 L 157.707 630.804 L 150.204 633.080 L 142.400 633.849 L 137.400 633.849 L 136.095 633.935 L 134.812 634.190 L 133.573 634.610 L 132.400 635.189 L 131.312 635.916 L 130.329 636.778 L 129.467 637.761 L 128.740 638.849 L 128.161 640.022 L 127.741 641.261 L 127.486 642.544 L 127.400 643.849 L 127.400 663.849 L 127.486 665.154 L 127.741 666.437 L 128.161 667.676 L 128.740 668.849 L 129.467 669.937 L 130.329 670.920 L 131.312 671.783 L 132.400 672.509 L 133.573 673.088 L 134.812 673.508 L 136.095 673.764 L 137.400 673.849 L 142.400 673.849 L 150.204 674.618 L 157.707 676.894 L 164.623 680.590 L 170.684 685.565 L 175.659 691.626 L 179.355 698.542 L 181.631 706.045 L 182.400 713.849 L 181.631 721.653 L 179.355 729.156 L 175.659 736.072 L 170.684 742.133 L 164.623 747.108 L 157.707 750.804 L 150.204 753.080 L 142.400 753.849 L 137.400 753.849 L 136.095 753.935 L 134.812 754.190 L 133.573 754.610 L 132.400 755.189 L 131.312 755.916 L 130.329 756.778 L 129.467 757.761 L 128.740 758.849 L 128.161 760.022 L 127.741 761.261 L 127.486 762.544 L 127.400 763.849 L 127.400 788.993 L 127.486 790.298 L 127.741 791.581 L 128.161 792.820 L 128.740 793.993 L 129.467 795.081 L 130.329 796.064 L 131.312 796.927 L 132.400 797.653 L 133.573 798.232 L 134.812 798.652 L 136.095 798.908 L 137.400 798.993 L 343.400 798.993 L 356.836 799.748 L 370.103 802.002 L 383.034 805.727 L 395.466 810.877 L 407.244 817.386 L 418.219 825.173 L 428.253 834.140 L 437.220 844.174 L 445.007 855.149 L 451.516 866.927 L 456.666 879.360 L 460.391 892.291 L 462.646 905.557 L 463.400 918.993 L 463.400 1275.854 L 469.283 1282.419 L 474.244 1289.705 L 478.196 1297.584 L 481.070 1305.918 L 482.815 1314.558 L 483.400 1323.354 L 482.815 1332.149 L 481.070 1340.790 L 478.196 1349.123 L 474.244 1357.002 L 469.283 1364.289 Z" fill="#f28e2b" fill-opacity="0.68" stroke="#1f2937" stroke-width="0.45" data-part-id="Lv8_11612_6db" data-instance-id="Lv8_11612_6db__0005" data-rotation-deg="90.000000"/>
  <path d="M 836.775 2093.146 L 836.775 1892.706 L 836.778 1892.550 L 836.785 1892.394 L 836.797 1892.238 L 836.814 1892.083 L 836.836 1891.928 L 836.863 1891.775 L 836.894 1891.622 L 836.931 1891.470 L 836.972 1891.319 L 837.017 1891.169 L 837.068 1891.022 L 837.123 1890.875 L 859.112 1835.005 L 856.198 1826.290 L 854.410 1817.276 L 853.777 1808.109 L 854.308 1798.935 L 855.996 1789.902 L 858.813 1781.155 L 862.713 1772.834 L 867.635 1765.074 L 873.499 1757.999 L 880.211 1751.722 L 887.663 1746.345 L 895.735 1741.953 L 928.228 1659.395 L 930.280 1654.857 L 932.774 1650.546 L 935.685 1646.504 L 938.983 1642.772 L 942.636 1639.386 L 946.608 1636.381 L 950.859 1633.786 L 955.347 1631.626 L 960.028 1629.924 L 964.855 1628.696 L 969.780 1627.955 L 974.754 1627.706 L 1044.775 1627.706 L 1046.081 1627.621 L 1047.363 1627.366 L 1048.602 1626.945 L 1049.775 1626.367 L 1050.863 1625.640 L 1051.846 1624.778 L 1052.709 1623.794 L 1053.436 1622.706 L 1054.014 1621.533 L 1054.435 1620.295 L 1054.690 1619.012 L 1054.775 1617.706 L 1054.775 1302.706 L 1054.728 1301.737 L 1054.587 1300.777 L 1054.354 1299.836 L 1054.031 1298.921 L 1053.621 1298.042 L 1053.127 1297.206 L 1052.555 1296.423 L 1051.909 1295.699 L 1051.196 1295.040 L 1050.423 1294.454 L 1049.597 1293.946 L 1048.725 1293.520 L 992.025 1269.140 L 987.667 1267.010 L 983.535 1264.468 L 979.670 1261.537 L 976.106 1258.245 L 972.878 1254.624 L 970.017 1250.706 L 967.549 1246.530 L 965.496 1242.135 L 963.880 1237.561 L 962.714 1232.852 L 962.011 1228.052 L 961.775 1223.206 L 961.775 846.749 L 961.754 846.095 L 961.690 845.443 L 961.583 844.798 L 961.435 844.160 L 961.245 843.534 L 961.014 842.922 L 960.744 842.326 L 960.436 841.749 L 960.090 841.193 L 959.709 840.661 L 959.294 840.155 L 958.846 839.678 L 954.704 835.535 L 954.257 835.058 L 953.842 834.552 L 953.461 834.020 L 953.115 833.464 L 952.807 832.887 L 952.536 832.291 L 952.306 831.679 L 952.116 831.053 L 951.967 830.415 L 951.861 829.770 L 951.797 829.118 L 951.775 828.464 L 951.775 726.749 L 951.797 726.095 L 951.861 725.443 L 951.967 724.798 L 952.116 724.160 L 952.306 723.534 L 952.536 722.922 L 952.807 722.326 L 953.115 721.749 L 953.461 721.193 L 953.842 720.661 L 954.257 720.155 L 954.704 719.678 L 963.846 710.535 L 964.324 710.088 L 964.830 709.673 L 965.362 709.292 L 965.917 708.946 L 966.494 708.638 L 967.091 708.368 L 967.703 708.137 L 968.329 707.947 L 968.966 707.799 L 969.612 707.692 L 970.263 707.628 L 970.917 707.606 L 987.585 707.606 L 988.731 707.541 L 989.862 707.344 L 990.964 707.018 L 992.020 706.569 L 993.019 706.001 L 993.945 705.323 L 994.788 704.543 L 995.536 703.671 L 996.179 702.719 L 996.708 701.700 L 997.117 700.627 L 997.401 699.515 L 1027.398 545.190 L 1027.965 542.965 L 1028.784 540.819 L 1029.843 538.781 L 1031.129 536.877 L 1032.624 535.134 L 1034.309 533.574 L 1036.163 532.217 L 1038.159 531.082 L 1040.273 530.183 L 1042.475 529.532 L 1044.738 529.138 L 1047.031 529.006 L 1176.349 529.006 L 1176.465 529.003 L 1176.582 528.993 L 1176.698 528.976 L 1176.812 528.952 L 1176.925 528.922 L 1177.036 528.885 L 1177.144 528.841 L 1177.250 528.792 L 1177.353 528.736 L 1177.452 528.674 L 1177.548 528.607 L 1177.639 528.534 L 1185.879 521.870 L 1194.396 515.565 L 1203.174 509.628 L 1212.198 504.072 L 1221.452 498.907 L 1230.917 494.142 L 1240.577 489.786 L 1250.415 485.846 L 1260.412 482.330 L 1270.550 479.244 L 1280.811 476.595 L 1291.175 474.386 L 1291.175 469.006 L 957.775 469.006 L 957.775 490.006 L 950.775 490.006 L 950.775 469.006 L 793.775 469.006 L 793.775 490.006 L 786.775 490.006 L 786.775 469.006 L 558.375 469.006 L 558.375 474.386 L 568.746 476.592 L 579.014 479.239 L 589.159 482.323 L 599.163 485.838 L 609.007 489.777 L 618.674 494.133 L 628.146 498.898 L 637.406 504.065 L 646.436 509.622 L 655.221 515.560 L 663.744 521.868 L 671.989 528.534 L 672.080 528.607 L 672.176 528.675 L 672.275 528.736 L 672.378 528.792 L 672.484 528.841 L 672.592 528.885 L 672.703 528.922 L 672.816 528.952 L 672.930 528.976 L 673.046 528.993 L 673.162 529.003 L 673.279 529.006 L 761.775 529.006 L 764.386 529.178 L 766.952 529.688 L 769.429 530.529 L 771.775 531.686 L 773.950 533.139 L 775.917 534.864 L 777.642 536.831 L 779.096 539.006 L 780.253 541.353 L 781.094 543.830 L 781.604 546.396 L 781.775 549.006 L 781.775 564.506 L 811.775 564.506 L 813.081 564.592 L 814.363 564.847 L 815.602 565.268 L 816.775 565.846 L 817.863 566.573 L 818.846 567.435 L 819.709 568.419 L 820.436 569.506 L 821.014 570.680 L 821.435 571.918 L 821.690 573.201 L 821.775 574.506 L 821.775 634.506 L 821.690 635.812 L 821.435 637.095 L 821.014 638.333 L 820.436 639.506 L 819.709 640.594 L 818.846 641.578 L 817.863 642.440 L 816.775 643.167 L 815.602 643.745 L 814.363 644.166 L 813.081 644.421 L 811.775 644.506 L 781.775 644.506 L 781.775 1329.305 L 781.760 1330.541 L 781.714 1331.776 L 781.638 1333.010 L 781.531 1334.242 L 781.394 1335.470 L 781.226 1336.695 L 781.028 1337.916 L 780.800 1339.131 L 780.542 1340.340 L 780.255 1341.542 L 779.937 1342.737 L 779.590 1343.923 L 658.960 1738.488 L 658.613 1739.674 L 658.296 1740.869 L 658.008 1742.072 L 657.750 1743.281 L 657.522 1744.496 L 657.324 1745.716 L 657.157 1746.941 L 657.020 1748.169 L 656.913 1749.401 L 656.836 1750.635 L 656.791 1751.870 L 656.775 1753.106 L 656.775 1887.310 L 657.751 1887.454 L 658.594 1887.964 L 659.175 1888.761 L 659.403 1889.720 L 659.242 1890.693 L 658.717 1891.528 L 657.910 1892.095 L 656.947 1892.306 L 655.977 1892.128 L 655.152 1891.589 L 654.599 1890.773 L 654.404 1889.806 L 600.404 1889.806 L 600.404 1893.206 L 600.417 1893.431 L 600.455 1893.653 L 600.517 1893.870 L 600.604 1894.078 L 600.713 1894.274 L 600.844 1894.458 L 600.995 1894.625 L 601.163 1894.775 L 601.347 1894.904 L 601.545 1895.012 L 601.753 1895.098 L 601.970 1895.159 L 609.556 1897.300 L 616.853 1900.281 L 623.769 1904.063 L 630.215 1908.599 L 636.111 1913.831 L 641.381 1919.693 L 645.959 1926.110 L 649.786 1933.000 L 652.815 1940.278 L 655.006 1947.850 L 656.331 1955.620 L 656.775 1963.490 L 656.775 2631.498 L 778.154 2959.725 L 778.253 2960.003 L 778.343 2960.284 L 778.424 2960.568 L 778.498 2960.854 L 778.563 2961.142 L 778.619 2961.432 L 778.667 2961.723 L 778.706 2962.016 L 778.736 2962.309 L 778.758 2962.604 L 778.771 2962.898 L 778.775 2963.194 L 778.775 2991.000 L 787.775 2991.000 L 787.775 2973.099 L 787.796 2972.455 L 787.858 2971.813 L 787.962 2971.176 L 788.106 2970.547 L 788.291 2969.929 L 788.515 2969.325 L 788.778 2968.735 L 789.078 2968.164 L 789.414 2967.614 L 789.785 2967.086 L 790.189 2966.584 L 790.625 2966.108 L 803.394 2954.096 L 817.119 2943.192 L 831.707 2933.469 L 847.054 2924.998 L 863.055 2917.836 L 879.597 2912.033 L 896.565 2907.631 L 913.842 2904.659 L 931.306 2903.138 L 948.836 2903.079 L 966.310 2904.483 L 983.607 2907.339 L 1000.604 2911.627 L 1017.185 2917.319 L 1033.233 2924.373 L 1048.637 2932.742 L 1063.289 2942.366 L 1064.577 2943.241 L 1065.909 2944.048 L 1067.280 2944.785 L 1068.688 2945.450 L 1070.129 2946.041 L 1071.598 2946.557 L 1073.092 2946.995 L 1074.607 2947.356 L 1076.139 2947.637 L 1077.683 2947.839 L 1079.235 2947.960 L 1080.791 2948.000 L 1162.775 2948.000 L 1164.081 2947.915 L 1165.363 2947.659 L 1166.602 2947.239 L 1167.775 2946.660 L 1168.863 2945.934 L 1169.846 2945.071 L 1170.709 2944.088 L 1171.436 2943.000 L 1172.014 2941.827 L 1172.435 2940.588 L 1172.690 2939.305 L 1172.775 2938.000 L 1172.775 2920.151 L 1172.690 2918.845 L 1172.435 2917.562 L 1172.014 2916.324 L 1171.436 2915.151 L 1170.709 2914.063 L 1169.846 2913.079 L 1168.863 2912.217 L 1167.775 2911.490 L 1166.602 2910.912 L 1165.363 2910.491 L 1164.081 2910.236 L 1162.775 2910.151 L 1157.775 2910.151 L 1149.972 2909.382 L 1142.468 2907.106 L 1135.552 2903.409 L 1129.491 2898.435 L 1124.516 2892.373 L 1120.820 2885.458 L 1118.544 2877.954 L 1117.775 2870.151 L 1118.544 2862.347 L 1120.820 2854.843 L 1124.516 2847.928 L 1129.491 2841.866 L 1135.552 2836.892 L 1142.468 2833.195 L 1149.972 2830.919 L 1157.775 2830.151 L 1162.775 2830.151 L 1164.081 2830.065 L 1165.363 2829.810 L 1166.602 2829.389 L 1167.775 2828.811 L 1168.863 2828.084 L 1169.846 2827.222 L 1170.709 2826.238 L 1171.436 2825.151 L 1172.014 2823.977 L 1172.435 2822.739 L 1172.690 2821.456 L 1172.775 2820.151 L 1172.775 2800.151 L 1172.690 2798.845 L 1172.435 2797.562 L 1172.014 2796.324 L 1171.436 2795.151 L 1170.709 2794.063 L 1169.846 2793.079 L 1168.863 2792.217 L 1167.775 2791.490 L 1166.602 2790.912 L 1165.363 2790.491 L 1164.081 2790.236 L 1162.775 2790.151 L 1157.775 2790.151 L 1149.972 2789.382 L 1142.468 2787.106 L 1135.552 2783.409 L 1129.491 2778.435 L 1124.516 2772.373 L 1120.820 2765.458 L 1118.544 2757.954 L 1117.775 2750.151 L 1118.544 2742.347 L 1120.820 2734.843 L 1124.516 2727.928 L 1129.491 2721.866 L 1135.552 2716.892 L 1142.468 2713.195 L 1149.972 2710.919 L 1157.775 2710.151 L 1162.775 2710.151 L 1164.081 2710.065 L 1165.363 2709.810 L 1166.602 2709.389 L 1167.775 2708.811 L 1168.863 2708.084 L 1169.846 2707.222 L 1170.709 2706.238 L 1171.436 2705.151 L 1172.014 2703.977 L 1172.435 2702.739 L 1172.690 2701.456 L 1172.775 2700.151 L 1172.775 2675.006 L 1172.690 2673.701 L 1172.435 2672.418 L 1172.014 2671.180 L 1171.436 2670.006 L 1170.709 2668.919 L 1169.846 2667.935 L 1168.863 2667.073 L 1167.775 2666.346 L 1166.602 2665.768 L 1165.363 2665.347 L 1164.081 2665.092 L 1162.775 2665.006 L 956.775 2665.006 L 943.340 2664.252 L 930.073 2661.998 L 917.142 2658.272 L 904.709 2653.123 L 892.931 2646.613 L 881.956 2638.826 L 871.922 2629.859 L 862.955 2619.825 L 855.168 2608.850 L 848.659 2597.072 L 843.509 2584.640 L 839.784 2571.709 L 837.530 2558.442 L 836.775 2545.006 L 836.775 2188.146 L 830.893 2181.581 L 825.932 2174.294 L 821.979 2166.415 L 819.105 2158.082 L 817.360 2149.441 L 816.775 2140.646 L 817.360 2131.850 L 819.105 2123.210 L 821.979 2114.877 L 825.932 2106.997 L 830.893 2099.711 Z" fill="#f28e2b" fill-opacity="0.68" stroke="#1f2937" stroke-width="0.45" data-part-id="Lv8_11612_6db" data-instance-id="Lv8_11612_6db__0006" data-rotation-deg="270.000000"/>
  <text x="8" y="28" font-family="Arial, sans-serif" font-size="26" fill="#111827">6big_sp8_bias sheet 2 placed=2</text>
</svg>
