<svg xmlns="http://www.w3.org/2000/svg" width="1500.00mm" height="3000.00mm" viewBox="0 0 1500.0000 3000.0000">
  <!-- feature_on sheet 2 rendered from solver output placements and input outer_points -->
  <rect width="1500.0000" height="3000.0000" fill="#ffffff" stroke="#111827" stroke-width="2"/>
  <rect x="5.0000" y="5.0000" width="1490.0000" height="2990.0000" fill="none" stroke="#dc2626" stroke-width="1.5" stroke-dasharray="8,6"/>
  <path d="M 1149.547 1348.174 L 1153.613 1548.573 L 1153.614 1548.729 L 1153.610 1548.885 L 1153.601 1549.041 L 1153.587 1549.197 L 1153.568 1549.352 L 1153.544 1549.506 L 1153.516 1549.660 L 1153.483 1549.812 L 1153.445 1549.964 L 1153.402 1550.114 L 1153.355 1550.263 L 1153.303 1550.410 L 1132.452 1606.715 L 1135.542 1615.369 L 1137.512 1624.345 L 1138.331 1633.498 L 1137.986 1642.681 L 1136.482 1651.746 L 1133.843 1660.549 L 1130.112 1668.946 L 1125.349 1676.805 L 1119.630 1683.998 L 1113.047 1690.409 L 1105.705 1695.937 L 1097.724 1700.491 L 1066.913 1783.692 L 1064.953 1788.270 L 1062.547 1792.631 L 1059.719 1796.731 L 1056.497 1800.529 L 1052.913 1803.988 L 1049.003 1807.074 L 1044.806 1809.754 L 1040.363 1812.004 L 1035.717 1813.801 L 1030.916 1815.127 L 1026.007 1815.968 L 1021.039 1816.317 L 951.032 1817.738 L 949.729 1817.850 L 948.451 1818.131 L 947.222 1818.577 L 946.060 1819.179 L 944.988 1819.928 L 944.022 1820.810 L 943.180 1821.811 L 942.475 1822.913 L 941.921 1824.097 L 941.525 1825.344 L 941.296 1826.632 L 941.237 1827.939 L 947.628 2142.874 L 947.695 2143.842 L 947.855 2144.799 L 948.107 2145.736 L 948.449 2146.644 L 948.877 2147.514 L 949.387 2148.339 L 949.976 2149.111 L 950.636 2149.822 L 951.362 2150.466 L 952.146 2151.036 L 952.983 2151.528 L 953.863 2151.936 L 1011.046 2175.160 L 1015.447 2177.201 L 1019.629 2179.659 L 1023.553 2182.511 L 1027.183 2185.730 L 1030.483 2189.285 L 1033.424 2193.144 L 1035.976 2197.269 L 1038.117 2201.622 L 1039.826 2206.162 L 1041.087 2210.847 L 1041.888 2215.631 L 1042.222 2220.471 L 1049.859 2596.851 L 1049.894 2597.505 L 1049.971 2598.154 L 1050.091 2598.798 L 1050.252 2599.432 L 1050.455 2600.054 L 1050.698 2600.662 L 1050.980 2601.252 L 1051.300 2601.823 L 1051.657 2602.372 L 1052.049 2602.896 L 1052.474 2603.393 L 1052.931 2603.861 L 1057.156 2607.919 L 1057.613 2608.387 L 1058.039 2608.884 L 1058.431 2609.408 L 1058.787 2609.957 L 1059.107 2610.528 L 1059.389 2611.118 L 1059.632 2611.726 L 1059.835 2612.348 L 1059.997 2612.982 L 1060.116 2613.626 L 1060.194 2614.275 L 1060.228 2614.929 L 1062.292 2716.624 L 1062.284 2717.278 L 1062.233 2717.930 L 1062.139 2718.578 L 1062.004 2719.218 L 1061.826 2719.848 L 1061.608 2720.465 L 1061.350 2721.067 L 1061.054 2721.650 L 1060.720 2722.212 L 1060.349 2722.752 L 1059.944 2723.266 L 1059.507 2723.753 L 1050.552 2733.078 L 1050.084 2733.535 L 1049.586 2733.961 L 1049.062 2734.352 L 1048.514 2734.709 L 1047.943 2735.029 L 1047.353 2735.311 L 1046.745 2735.554 L 1046.123 2735.757 L 1045.489 2735.919 L 1044.845 2736.038 L 1044.195 2736.115 L 1043.542 2736.150 L 1026.878 2736.488 L 1025.733 2736.577 L 1024.606 2736.797 L 1023.512 2737.145 L 1022.464 2737.616 L 1021.478 2738.204 L 1020.565 2738.901 L 1019.738 2739.698 L 1019.008 2740.584 L 1018.385 2741.549 L 1017.876 2742.578 L 1017.489 2743.659 L 1017.228 2744.778 L 990.368 2899.679 L 989.846 2901.916 L 989.071 2904.078 L 988.054 2906.137 L 986.807 2908.066 L 985.347 2909.839 L 983.694 2911.433 L 981.869 2912.827 L 979.895 2914.003 L 977.801 2914.944 L 975.612 2915.639 L 973.357 2916.079 L 971.067 2916.258 L 841.776 2918.881 L 841.660 2918.887 L 841.544 2918.900 L 841.428 2918.919 L 841.314 2918.945 L 841.202 2918.978 L 841.092 2919.017 L 840.984 2919.062 L 840.879 2919.114 L 840.778 2919.172 L 840.680 2919.236 L 840.586 2919.305 L 840.496 2919.379 L 832.393 2926.209 L 824.006 2932.686 L 815.349 2938.800 L 806.440 2944.537 L 797.293 2949.889 L 787.926 2954.845 L 778.357 2959.397 L 768.601 2963.536 L 758.677 2967.254 L 748.604 2970.544 L 738.399 2973.402 L 728.082 2975.820 L 728.191 2981.198 L 1061.522 2974.434 L 1061.096 2953.439 L 1068.095 2953.297 L 1068.521 2974.292 L 1225.488 2971.107 L 1225.062 2950.111 L 1232.061 2949.969 L 1232.487 2970.965 L 1460.840 2966.331 L 1460.731 2960.953 L 1450.317 2958.958 L 1439.998 2956.519 L 1429.792 2953.642 L 1419.719 2950.331 L 1409.797 2946.593 L 1400.044 2942.433 L 1390.477 2937.861 L 1381.114 2932.884 L 1371.973 2927.511 L 1363.070 2921.753 L 1354.421 2915.619 L 1346.042 2909.121 L 1345.949 2909.050 L 1345.852 2908.984 L 1345.752 2908.925 L 1345.648 2908.871 L 1345.541 2908.824 L 1345.432 2908.783 L 1345.320 2908.748 L 1345.206 2908.720 L 1345.092 2908.699 L 1344.976 2908.684 L 1344.859 2908.676 L 1344.742 2908.675 L 1256.264 2910.470 L 1253.651 2910.352 L 1251.075 2909.894 L 1248.581 2909.103 L 1246.212 2907.994 L 1244.008 2906.585 L 1242.006 2904.901 L 1240.242 2902.969 L 1238.745 2900.824 L 1237.540 2898.501 L 1236.649 2896.042 L 1236.087 2893.487 L 1235.863 2890.880 L 1235.548 2875.383 L 1205.555 2875.992 L 1204.248 2875.933 L 1202.960 2875.704 L 1201.713 2875.309 L 1200.528 2874.754 L 1199.426 2874.049 L 1198.425 2873.207 L 1197.543 2872.241 L 1196.795 2871.169 L 1196.192 2870.008 L 1195.747 2868.778 L 1195.466 2867.500 L 1195.354 2866.197 L 1194.136 2806.209 L 1194.196 2804.903 L 1194.425 2803.615 L 1194.820 2802.368 L 1195.374 2801.183 L 1196.079 2800.081 L 1196.921 2799.080 L 1197.887 2798.198 L 1198.960 2797.449 L 1200.121 2796.847 L 1201.351 2796.402 L 1202.628 2796.121 L 1203.932 2796.008 L 1233.925 2795.400 L 1220.032 2110.742 L 1220.022 2109.506 L 1220.043 2108.270 L 1220.094 2107.035 L 1220.176 2105.801 L 1220.289 2104.570 L 1220.431 2103.342 L 1220.604 2102.118 L 1220.808 2100.899 L 1221.041 2099.685 L 1221.304 2098.477 L 1221.597 2097.276 L 1221.920 2096.083 L 1334.520 1699.152 L 1334.843 1697.959 L 1335.136 1696.758 L 1335.399 1695.550 L 1335.633 1694.336 L 1335.836 1693.116 L 1336.009 1691.892 L 1336.152 1690.664 L 1336.264 1689.433 L 1336.346 1688.199 L 1336.397 1686.964 L 1336.418 1685.728 L 1336.408 1684.492 L 1333.686 1550.316 L 1332.707 1550.192 L 1331.854 1549.699 L 1331.257 1548.914 L 1331.010 1547.959 L 1331.151 1546.984 L 1331.659 1546.138 L 1332.454 1545.555 L 1333.412 1545.325 L 1334.386 1545.483 L 1335.222 1546.005 L 1335.791 1546.810 L 1336.005 1547.772 L 1389.994 1546.676 L 1389.925 1543.277 L 1389.908 1543.053 L 1389.866 1542.831 L 1389.799 1542.616 L 1389.708 1542.410 L 1389.595 1542.216 L 1389.460 1542.035 L 1389.306 1541.871 L 1389.135 1541.725 L 1388.948 1541.599 L 1388.748 1541.495 L 1388.538 1541.414 L 1388.320 1541.357 L 1380.692 1539.370 L 1373.336 1536.538 L 1366.345 1532.896 L 1359.808 1528.492 L 1353.807 1523.381 L 1348.419 1517.628 L 1343.712 1511.305 L 1339.746 1504.493 L 1336.571 1497.279 L 1334.227 1489.753 L 1332.743 1482.011 L 1332.140 1474.152 L 1318.587 806.281 L 1190.574 480.584 L 1190.470 480.308 L 1190.374 480.029 L 1190.287 479.747 L 1190.208 479.463 L 1190.137 479.176 L 1190.075 478.887 L 1190.022 478.597 L 1189.977 478.305 L 1189.940 478.013 L 1189.912 477.719 L 1189.893 477.424 L 1189.883 477.129 L 1189.319 449.328 L 1180.321 449.511 L 1180.684 467.408 L 1180.676 468.053 L 1180.627 468.696 L 1180.536 469.335 L 1180.405 469.966 L 1180.233 470.588 L 1180.021 471.197 L 1179.770 471.791 L 1179.482 472.368 L 1179.157 472.925 L 1178.796 473.461 L 1178.402 473.971 L 1177.976 474.456 L 1165.454 486.724 L 1151.953 497.905 L 1137.565 507.921 L 1122.393 516.702 L 1106.541 524.187 L 1090.120 530.324 L 1073.244 535.070 L 1056.032 538.392 L 1038.602 540.267 L 1021.076 540.681 L 1003.578 539.633 L 986.227 537.128 L 969.146 533.185 L 952.453 527.831 L 936.265 521.104 L 920.695 513.050 L 905.850 503.725 L 904.545 502.876 L 903.197 502.096 L 901.811 501.387 L 900.390 500.751 L 898.937 500.189 L 897.458 499.703 L 895.955 499.295 L 894.433 498.966 L 892.897 498.715 L 891.349 498.545 L 889.794 498.456 L 888.237 498.447 L 806.270 500.110 L 804.967 500.222 L 803.690 500.503 L 802.460 500.949 L 801.299 501.551 L 800.226 502.300 L 799.260 503.182 L 798.418 504.183 L 797.713 505.285 L 797.159 506.469 L 796.763 507.716 L 796.534 509.004 L 796.475 510.311 L 796.837 528.157 L 796.949 529.460 L 797.231 530.738 L 797.676 531.967 L 798.278 533.129 L 799.027 534.201 L 799.909 535.167 L 800.910 536.009 L 802.012 536.714 L 803.197 537.268 L 804.444 537.664 L 805.731 537.893 L 807.038 537.952 L 812.037 537.850 L 819.855 538.460 L 827.403 540.584 L 834.392 544.139 L 840.553 548.990 L 845.650 554.949 L 849.486 561.788 L 851.914 569.244 L 852.840 577.031 L 852.230 584.848 L 850.107 592.397 L 846.552 599.386 L 841.701 605.547 L 835.742 610.643 L 828.903 614.479 L 821.447 616.907 L 813.660 617.834 L 808.661 617.935 L 807.358 618.047 L 806.081 618.329 L 804.851 618.774 L 803.689 619.376 L 802.617 620.125 L 801.651 621.007 L 800.809 622.008 L 800.104 623.110 L 799.550 624.295 L 799.154 625.542 L 798.925 626.830 L 798.866 628.136 L 799.272 648.132 L 799.384 649.435 L 799.665 650.713 L 800.111 651.943 L 800.713 653.104 L 801.462 654.177 L 802.344 655.142 L 803.345 655.985 L 804.447 656.689 L 805.631 657.244 L 806.878 657.639 L 808.166 657.868 L 809.473 657.927 L 814.472 657.826 L 822.289 658.436 L 829.838 660.559 L 836.827 664.115 L 842.988 668.965 L 848.084 674.924 L 851.920 681.764 L 854.348 689.220 L 855.275 697.006 L 854.665 704.824 L 852.541 712.372 L 848.986 719.361 L 844.136 725.522 L 838.176 730.619 L 831.337 734.454 L 823.881 736.882 L 816.095 737.809 L 811.096 737.911 L 809.793 738.023 L 808.515 738.304 L 807.285 738.749 L 806.124 739.352 L 805.051 740.100 L 804.086 740.983 L 803.243 741.983 L 802.539 743.085 L 801.984 744.270 L 801.589 745.517 L 801.360 746.805 L 801.301 748.111 L 801.811 773.250 L 801.923 774.554 L 802.204 775.831 L 802.650 777.061 L 803.252 778.222 L 804.000 779.295 L 804.883 780.261 L 805.883 781.103 L 806.986 781.807 L 808.170 782.362 L 809.417 782.757 L 810.705 782.986 L 812.012 783.045 L 1017.969 778.866 L 1031.418 779.348 L 1044.727 781.332 L 1057.731 784.795 L 1070.266 789.691 L 1082.173 795.960 L 1093.304 803.523 L 1103.518 812.285 L 1112.686 822.135 L 1120.695 832.949 L 1127.442 844.593 L 1132.842 856.918 L 1136.829 869.771 L 1139.352 882.989 L 1140.379 896.407 L 1147.619 1253.194 L 1153.634 1259.638 L 1158.742 1266.822 L 1162.853 1274.620 L 1165.896 1282.893 L 1167.815 1291.497 L 1168.579 1300.278 L 1168.172 1309.084 L 1166.603 1317.758 L 1163.899 1326.148 L 1160.107 1334.106 L 1155.295 1341.491 Z" fill="#f28e2b" fill-opacity="0.68" stroke="#1f2937" stroke-width="0.45" data-part-id="Lv8_11612_6db" data-instance-id="Lv8_11612_6db__0001" data-rotation-deg="91.162500"/>
  <path d="M 461.900 1370.856 L 461.900 1571.296 L 461.898 1571.452 L 461.890 1571.608 L 461.878 1571.764 L 461.861 1571.919 L 461.839 1572.074 L 461.812 1572.227 L 461.781 1572.380 L 461.745 1572.532 L 461.704 1572.683 L 461.658 1572.833 L 461.608 1572.980 L 461.553 1573.127 L 439.564 1628.997 L 442.477 1637.712 L 444.265 1646.726 L 444.898 1655.893 L 444.367 1665.067 L 442.679 1674.100 L 439.862 1682.847 L 435.962 1691.168 L 431.040 1698.928 L 425.176 1706.003 L 418.464 1712.280 L 411.013 1717.657 L 402.940 1722.049 L 370.447 1804.607 L 368.395 1809.145 L 365.901 1813.456 L 362.990 1817.498 L 359.692 1821.230 L 356.039 1824.616 L 352.067 1827.621 L 347.816 1830.216 L 343.328 1832.376 L 338.648 1834.078 L 333.821 1835.306 L 328.896 1836.047 L 323.921 1836.296 L 253.900 1836.296 L 252.595 1836.381 L 251.312 1836.636 L 250.073 1837.057 L 248.900 1837.635 L 247.812 1838.362 L 246.829 1839.224 L 245.967 1840.208 L 245.240 1841.296 L 244.661 1842.469 L 244.241 1843.707 L 243.986 1844.990 L 243.900 1846.296 L 243.900 2161.296 L 243.947 2162.265 L 244.088 2163.225 L 244.321 2164.166 L 244.644 2165.081 L 245.055 2165.960 L 245.548 2166.796 L 246.121 2167.579 L 246.766 2168.303 L 247.479 2168.962 L 248.252 2169.548 L 249.078 2170.056 L 249.950 2170.482 L 306.650 2194.862 L 311.008 2196.992 L 315.140 2199.534 L 319.006 2202.465 L 322.569 2205.757 L 325.797 2209.378 L 328.658 2213.296 L 331.127 2217.472 L 333.179 2221.867 L 334.795 2226.441 L 335.961 2231.150 L 336.665 2235.950 L 336.900 2240.796 L 336.900 2617.253 L 336.921 2617.907 L 336.986 2618.559 L 337.092 2619.204 L 337.241 2619.842 L 337.431 2620.468 L 337.661 2621.080 L 337.931 2621.676 L 338.240 2622.253 L 338.585 2622.809 L 338.966 2623.341 L 339.382 2623.847 L 339.829 2624.324 L 343.971 2628.467 L 344.418 2628.944 L 344.833 2629.450 L 345.215 2629.982 L 345.560 2630.538 L 345.869 2631.115 L 346.139 2631.711 L 346.369 2632.323 L 346.559 2632.949 L 346.708 2633.587 L 346.814 2634.232 L 346.879 2634.884 L 346.900 2635.538 L 346.900 2737.253 L 346.879 2737.907 L 346.814 2738.559 L 346.708 2739.204 L 346.559 2739.842 L 346.369 2740.468 L 346.139 2741.080 L 345.869 2741.676 L 345.560 2742.253 L 345.215 2742.809 L 344.833 2743.341 L 344.418 2743.847 L 343.971 2744.324 L 334.829 2753.467 L 334.351 2753.914 L 333.845 2754.329 L 333.314 2754.710 L 332.758 2755.056 L 332.181 2755.364 L 331.585 2755.634 L 330.972 2755.865 L 330.346 2756.055 L 329.709 2756.203 L 329.063 2756.310 L 328.412 2756.374 L 327.758 2756.396 L 311.091 2756.396 L 309.944 2756.461 L 308.813 2756.658 L 307.712 2756.984 L 306.655 2757.433 L 305.657 2758.001 L 304.730 2758.679 L 303.887 2759.459 L 303.139 2760.331 L 302.497 2761.283 L 301.967 2762.302 L 301.558 2763.375 L 301.274 2764.487 L 271.277 2918.812 L 270.710 2921.037 L 269.891 2923.183 L 268.832 2925.221 L 267.547 2927.125 L 266.051 2928.868 L 264.366 2930.428 L 262.513 2931.785 L 260.516 2932.920 L 258.403 2933.819 L 256.200 2934.470 L 253.937 2934.864 L 251.644 2934.996 L 122.327 2934.996 L 122.210 2934.999 L 122.093 2935.009 L 121.978 2935.026 L 121.863 2935.050 L 121.750 2935.080 L 121.639 2935.117 L 121.531 2935.161 L 121.425 2935.210 L 121.322 2935.266 L 121.223 2935.328 L 121.127 2935.395 L 121.036 2935.468 L 112.796 2942.132 L 104.279 2948.437 L 95.501 2954.374 L 86.477 2959.930 L 77.224 2965.095 L 67.758 2969.860 L 58.098 2974.216 L 48.260 2978.156 L 38.263 2981.672 L 28.125 2984.758 L 17.864 2987.407 L 7.500 2989.616 L 7.500 2994.996 L 340.900 2994.996 L 340.900 2973.996 L 347.900 2973.996 L 347.900 2994.996 L 504.900 2994.996 L 504.900 2973.996 L 511.900 2973.996 L 511.900 2994.996 L 740.300 2994.996 L 740.300 2989.616 L 729.929 2987.410 L 719.661 2984.763 L 709.516 2981.679 L 699.513 2978.164 L 689.668 2974.225 L 680.001 2969.869 L 670.529 2965.104 L 661.269 2959.937 L 652.239 2954.380 L 643.454 2948.442 L 634.932 2942.134 L 626.686 2935.468 L 626.595 2935.395 L 626.499 2935.327 L 626.400 2935.266 L 626.297 2935.210 L 626.191 2935.161 L 626.083 2935.117 L 625.972 2935.080 L 625.859 2935.050 L 625.745 2935.026 L 625.629 2935.009 L 625.513 2934.999 L 625.396 2934.996 L 536.900 2934.996 L 534.289 2934.824 L 531.724 2934.314 L 529.246 2933.473 L 526.900 2932.316 L 524.725 2930.863 L 522.758 2929.138 L 521.033 2927.171 L 519.579 2924.996 L 518.422 2922.649 L 517.582 2920.172 L 517.071 2917.606 L 516.900 2914.996 L 516.900 2899.496 L 486.900 2899.496 L 485.595 2899.410 L 484.312 2899.155 L 483.073 2898.734 L 481.900 2898.156 L 480.812 2897.429 L 479.829 2896.567 L 478.966 2895.583 L 478.240 2894.496 L 477.661 2893.322 L 477.241 2892.084 L 476.986 2890.801 L 476.900 2889.496 L 476.900 2829.496 L 476.986 2828.190 L 477.241 2826.907 L 477.661 2825.669 L 478.240 2824.496 L 478.966 2823.408 L 479.829 2822.424 L 480.812 2821.562 L 481.900 2820.835 L 483.073 2820.257 L 484.312 2819.836 L 485.595 2819.581 L 486.900 2819.496 L 516.900 2819.496 L 516.900 2134.697 L 516.915 2133.461 L 516.961 2132.226 L 517.037 2130.992 L 517.144 2129.760 L 517.282 2128.532 L 517.449 2127.307 L 517.647 2126.086 L 517.875 2124.871 L 518.133 2123.662 L 518.421 2122.460 L 518.738 2121.265 L 519.085 2120.079 L 639.715 1725.514 L 640.062 1724.328 L 640.379 1723.133 L 640.667 1721.930 L 640.925 1720.721 L 641.153 1719.506 L 641.351 1718.286 L 641.518 1717.061 L 641.656 1715.833 L 641.763 1714.601 L 641.839 1713.367 L 641.885 1712.132 L 641.900 1710.896 L 641.900 1576.692 L 640.925 1576.548 L 640.081 1576.038 L 639.500 1575.241 L 639.273 1574.282 L 639.434 1573.309 L 639.958 1572.474 L 640.765 1571.907 L 641.728 1571.696 L 642.698 1571.874 L 643.524 1572.413 L 644.077 1573.229 L 644.271 1574.196 L 698.271 1574.196 L 698.271 1570.796 L 698.258 1570.571 L 698.221 1570.349 L 698.158 1570.132 L 698.071 1569.924 L 697.962 1569.728 L 697.831 1569.544 L 697.681 1569.377 L 697.512 1569.227 L 697.328 1569.098 L 697.130 1568.990 L 696.922 1568.904 L 696.705 1568.843 L 689.119 1566.702 L 681.822 1563.721 L 674.907 1559.939 L 668.460 1555.403 L 662.564 1550.171 L 657.294 1544.309 L 652.716 1537.892 L 648.889 1531.002 L 645.861 1523.724 L 643.670 1516.152 L 642.344 1508.382 L 641.900 1500.512 L 641.900 832.504 L 520.521 504.277 L 520.423 503.999 L 520.333 503.718 L 520.251 503.434 L 520.178 503.148 L 520.113 502.860 L 520.056 502.570 L 520.009 502.279 L 519.970 501.986 L 519.939 501.693 L 519.917 501.398 L 519.904 501.104 L 519.900 500.808 L 519.900 473.002 L 510.900 473.002 L 510.900 490.903 L 510.879 491.547 L 510.817 492.189 L 510.713 492.826 L 510.569 493.455 L 510.384 494.073 L 510.160 494.677 L 509.898 495.267 L 509.597 495.838 L 509.261 496.388 L 508.890 496.916 L 508.486 497.418 L 508.050 497.894 L 495.282 509.906 L 481.556 520.810 L 466.969 530.533 L 451.621 539.004 L 435.621 546.166 L 419.078 551.969 L 402.110 556.371 L 384.833 559.343 L 367.369 560.864 L 349.839 560.923 L 332.365 559.519 L 315.069 556.663 L 298.071 552.375 L 281.490 546.683 L 265.442 539.629 L 250.038 531.260 L 235.386 521.636 L 234.098 520.761 L 232.767 519.954 L 231.395 519.217 L 229.987 518.552 L 228.546 517.961 L 227.077 517.445 L 225.583 517.007 L 224.068 516.646 L 222.537 516.365 L 220.993 516.163 L 219.440 516.042 L 217.884 516.002 L 135.900 516.002 L 134.595 516.087 L 133.312 516.343 L 132.073 516.763 L 130.900 517.342 L 129.812 518.068 L 128.829 518.931 L 127.967 519.914 L 127.240 521.002 L 126.661 522.175 L 126.241 523.414 L 125.986 524.697 L 125.900 526.002 L 125.900 543.851 L 125.986 545.157 L 126.241 546.440 L 126.661 547.678 L 127.240 548.851 L 127.967 549.939 L 128.829 550.923 L 129.812 551.785 L 130.900 552.512 L 132.073 553.090 L 133.312 553.511 L 134.595 553.766 L 135.900 553.851 L 140.900 553.851 L 148.704 554.620 L 156.207 556.896 L 163.123 560.593 L 169.184 565.567 L 174.159 571.629 L 177.855 578.544 L 180.131 586.048 L 180.900 593.851 L 180.131 601.655 L 177.855 609.159 L 174.159 616.074 L 169.184 622.136 L 163.123 627.110 L 156.207 630.807 L 148.704 633.083 L 140.900 633.851 L 135.900 633.851 L 134.595 633.937 L 133.312 634.192 L 132.073 634.613 L 130.900 635.191 L 129.812 635.918 L 128.829 636.780 L 127.967 637.764 L 127.240 638.851 L 126.661 640.025 L 126.241 641.263 L 125.986 642.546 L 125.900 643.851 L 125.900 663.851 L 125.986 665.157 L 126.241 666.440 L 126.661 667.678 L 127.240 668.851 L 127.967 669.939 L 128.829 670.923 L 129.812 671.785 L 130.900 672.512 L 132.073 673.090 L 133.312 673.511 L 134.595 673.766 L 135.900 673.851 L 140.900 673.851 L 148.704 674.620 L 156.207 676.896 L 163.123 680.593 L 169.184 685.567 L 174.159 691.629 L 177.855 698.544 L 180.131 706.048 L 180.900 713.851 L 180.131 721.655 L 177.855 729.159 L 174.159 736.074 L 169.184 742.136 L 163.123 747.110 L 156.207 750.807 L 148.704 753.083 L 140.900 753.851 L 135.900 753.851 L 134.595 753.937 L 133.312 754.192 L 132.073 754.613 L 130.900 755.191 L 129.812 755.918 L 128.829 756.780 L 127.967 757.764 L 127.240 758.851 L 126.661 760.025 L 126.241 761.263 L 125.986 762.546 L 125.900 763.851 L 125.900 788.996 L 125.986 790.301 L 126.241 791.584 L 126.661 792.822 L 127.240 793.996 L 127.967 795.083 L 128.829 796.067 L 129.812 796.929 L 130.900 797.656 L 132.073 798.234 L 133.312 798.655 L 134.595 798.910 L 135.900 798.996 L 341.900 798.996 L 355.336 799.750 L 368.603 802.004 L 381.534 805.730 L 393.966 810.879 L 405.744 817.389 L 416.719 825.176 L 426.753 834.143 L 435.720 844.177 L 443.507 855.152 L 450.016 866.930 L 455.166 879.362 L 458.891 892.293 L 461.146 905.560 L 461.900 918.996 L 461.900 1275.856 L 467.783 1282.421 L 472.744 1289.707 L 476.696 1297.587 L 479.570 1305.920 L 481.315 1314.561 L 481.900 1323.356 L 481.315 1332.152 L 479.570 1340.792 L 476.696 1349.125 L 472.744 1357.005 L 467.783 1364.291 Z" fill="#f28e2b" fill-opacity="0.68" stroke="#1f2937" stroke-width="0.45" data-part-id="Lv8_11612_6db" data-instance-id="Lv8_11612_6db__0003" data-rotation-deg="90.000000"/>
  <text x="8" y="28" font-family="Arial, sans-serif" font-size="26" fill="#111827">feature_on sheet 2 placed=2</text>
</svg>
