<svg xmlns="http://www.w3.org/2000/svg" width="1500.00mm" height="3000.00mm" viewBox="0 0 1500.0000 3000.0000">
  <!-- feature_on sheet 1 rendered from solver output placements and input outer_points -->
  <rect width="1500.0000" height="3000.0000" fill="#ffffff" stroke="#111827" stroke-width="2"/>
  <rect x="5.0000" y="5.0000" width="1490.0000" height="2990.0000" fill="none" stroke="#dc2626" stroke-width="1.5" stroke-dasharray="8,6"/>
  <path d="M 605.419 2057.067 L 565.030 1860.739 L 565.000 1860.585 L 564.976 1860.431 L 564.957 1860.276 L 564.942 1860.120 L 564.932 1859.964 L 564.928 1859.808 L 564.928 1859.652 L 564.933 1859.496 L 564.942 1859.340 L 564.957 1859.184 L 564.976 1859.029 L 565.001 1858.875 L 575.281 1799.720 L 570.671 1791.771 L 567.103 1783.302 L 564.636 1774.451 L 563.308 1765.358 L 563.140 1756.170 L 564.137 1747.034 L 566.281 1738.099 L 569.538 1729.506 L 573.856 1721.394 L 579.165 1713.894 L 585.381 1707.125 L 592.402 1701.197 L 607.593 1613.785 L 608.689 1608.926 L 610.263 1604.201 L 612.299 1599.656 L 614.778 1595.335 L 617.674 1591.283 L 620.958 1587.539 L 624.599 1584.141 L 628.560 1581.121 L 632.802 1578.511 L 637.282 1576.335 L 641.957 1574.616 L 646.779 1573.371 L 715.364 1559.261 L 716.625 1558.915 L 717.830 1558.406 L 718.959 1557.745 L 719.992 1556.942 L 720.910 1556.011 L 721.700 1554.968 L 722.346 1553.831 L 722.839 1552.619 L 723.169 1551.353 L 723.332 1550.055 L 723.323 1548.747 L 723.144 1547.452 L 659.670 1238.913 L 659.428 1237.973 L 659.097 1237.061 L 658.679 1236.186 L 658.178 1235.355 L 657.599 1234.577 L 656.947 1233.858 L 656.228 1233.206 L 655.450 1232.626 L 654.619 1232.125 L 653.744 1231.707 L 652.832 1231.375 L 651.893 1231.134 L 591.443 1218.680 L 586.745 1217.472 L 582.186 1215.814 L 577.809 1213.722 L 573.655 1211.216 L 569.764 1208.319 L 566.172 1205.059 L 562.912 1201.466 L 560.017 1197.574 L 557.512 1193.419 L 555.421 1189.042 L 553.765 1184.482 L 552.558 1179.784 L 476.699 811.048 L 476.547 810.412 L 476.353 809.787 L 476.118 809.176 L 475.844 808.581 L 475.532 808.006 L 475.183 807.453 L 474.798 806.924 L 474.380 806.420 L 473.929 805.946 L 473.449 805.502 L 472.940 805.090 L 472.406 804.712 L 467.514 801.490 L 466.979 801.112 L 466.471 800.700 L 465.990 800.256 L 465.540 799.781 L 465.122 799.278 L 464.737 798.749 L 464.388 798.195 L 464.075 797.620 L 463.801 797.026 L 463.567 796.415 L 463.373 795.790 L 463.220 795.154 L 442.724 695.525 L 442.613 694.880 L 442.545 694.229 L 442.519 693.575 L 442.536 692.921 L 442.596 692.269 L 442.698 691.623 L 442.843 690.985 L 443.029 690.357 L 443.255 689.743 L 443.521 689.145 L 443.826 688.566 L 444.168 688.008 L 451.280 677.211 L 451.658 676.677 L 452.070 676.169 L 452.514 675.688 L 452.989 675.238 L 453.492 674.819 L 454.021 674.435 L 454.575 674.085 L 455.150 673.773 L 455.744 673.499 L 456.355 673.265 L 456.980 673.071 L 457.616 672.918 L 473.941 669.559 L 475.051 669.264 L 476.120 668.843 L 477.133 668.302 L 478.077 667.649 L 478.941 666.892 L 479.711 666.041 L 480.380 665.107 L 480.936 664.102 L 481.374 663.041 L 481.688 661.936 L 481.872 660.802 L 481.926 659.655 L 480.211 502.452 L 480.318 500.158 L 480.687 497.891 L 481.313 495.681 L 482.189 493.558 L 483.303 491.549 L 484.639 489.681 L 486.181 487.979 L 487.908 486.465 L 489.797 485.158 L 491.823 484.077 L 493.960 483.235 L 496.180 482.644 L 622.845 456.586 L 622.958 456.559 L 623.070 456.525 L 623.180 456.486 L 623.287 456.439 L 623.392 456.387 L 623.493 456.328 L 623.591 456.264 L 623.684 456.194 L 623.774 456.119 L 623.859 456.038 L 623.939 455.953 L 624.014 455.863 L 630.741 447.676 L 637.813 439.783 L 645.215 432.200 L 652.935 424.939 L 660.957 418.016 L 669.268 411.441 L 677.853 405.227 L 686.695 399.386 L 695.778 393.928 L 705.086 388.862 L 714.603 384.200 L 724.309 379.947 L 723.226 374.678 L 396.664 441.860 L 400.896 462.430 L 394.040 463.840 L 389.808 443.271 L 236.028 474.907 L 240.260 495.476 L 233.404 496.887 L 229.172 476.318 L 5.457 522.342 L 6.541 527.611 L 17.144 527.682 L 27.734 528.206 L 38.293 529.182 L 48.799 530.609 L 59.236 532.483 L 69.582 534.802 L 79.820 537.561 L 89.931 540.755 L 99.896 544.379 L 109.697 548.425 L 119.316 552.886 L 128.735 557.755 L 128.840 557.808 L 128.947 557.854 L 129.057 557.895 L 129.168 557.928 L 129.282 557.956 L 129.397 557.976 L 129.513 557.990 L 129.630 557.997 L 129.747 557.997 L 129.863 557.991 L 129.979 557.977 L 130.095 557.957 L 216.775 540.125 L 219.367 539.766 L 221.983 539.749 L 224.579 540.074 L 227.110 540.734 L 229.533 541.719 L 231.808 543.013 L 233.894 544.592 L 235.755 546.429 L 237.362 548.494 L 238.684 550.751 L 239.701 553.162 L 240.395 555.684 L 243.518 570.866 L 272.903 564.821 L 274.199 564.642 L 275.507 564.633 L 276.805 564.796 L 278.070 565.126 L 279.282 565.619 L 280.419 566.265 L 281.462 567.055 L 282.393 567.973 L 283.196 569.006 L 283.858 570.135 L 284.366 571.340 L 284.713 572.601 L 296.803 631.370 L 296.982 632.666 L 296.991 633.974 L 296.829 635.272 L 296.499 636.538 L 296.006 637.749 L 295.359 638.886 L 294.570 639.929 L 293.651 640.860 L 292.618 641.663 L 291.490 642.325 L 290.285 642.833 L 289.023 643.180 L 259.639 649.225 L 397.629 1319.977 L 397.863 1321.191 L 398.067 1322.410 L 398.241 1323.634 L 398.385 1324.862 L 398.498 1326.093 L 398.581 1327.326 L 398.633 1328.561 L 398.654 1329.797 L 398.645 1331.034 L 398.606 1332.269 L 398.536 1333.503 L 398.435 1334.736 L 359.786 1745.514 L 359.685 1746.746 L 359.615 1747.981 L 359.576 1749.216 L 359.567 1750.453 L 359.588 1751.689 L 359.640 1752.924 L 359.723 1754.157 L 359.836 1755.388 L 359.980 1756.616 L 360.154 1757.840 L 360.358 1759.059 L 360.592 1760.273 L 387.634 1891.724 L 388.619 1891.669 L 389.548 1891.998 L 390.277 1892.662 L 390.694 1893.555 L 390.732 1894.541 L 390.386 1895.464 L 389.710 1896.182 L 388.810 1896.583 L 387.824 1896.604 L 386.906 1896.243 L 386.200 1895.555 L 385.815 1894.647 L 332.923 1905.528 L 333.608 1908.858 L 333.666 1909.076 L 333.747 1909.286 L 333.852 1909.485 L 333.979 1909.671 L 334.126 1909.842 L 334.291 1909.995 L 334.472 1910.129 L 334.667 1910.242 L 334.874 1910.332 L 335.089 1910.398 L 335.310 1910.439 L 335.535 1910.455 L 343.397 1911.024 L 351.145 1912.474 L 358.681 1914.785 L 365.909 1917.928 L 372.738 1921.865 L 379.081 1926.544 L 384.858 1931.907 L 389.996 1937.885 L 394.428 1944.403 L 398.100 1951.378 L 400.964 1958.722 L 402.985 1966.341 L 537.592 2620.647 L 722.621 2917.682 L 722.774 2917.935 L 722.918 2918.192 L 723.055 2918.454 L 723.185 2918.719 L 723.306 2918.988 L 723.420 2919.261 L 723.525 2919.536 L 723.623 2919.815 L 723.712 2920.096 L 723.792 2920.380 L 723.864 2920.666 L 723.928 2920.955 L 729.531 2948.191 L 738.347 2946.377 L 734.740 2928.844 L 734.630 2928.208 L 734.562 2927.567 L 734.535 2926.922 L 734.550 2926.277 L 734.606 2925.635 L 734.704 2924.997 L 734.842 2924.367 L 735.021 2923.747 L 735.239 2923.141 L 735.497 2922.549 L 735.791 2921.975 L 736.122 2921.422 L 746.208 2907.083 L 757.455 2893.636 L 769.784 2881.174 L 783.110 2869.784 L 797.339 2859.545 L 812.373 2850.528 L 828.106 2842.796 L 844.429 2836.404 L 861.229 2831.395 L 878.388 2827.805 L 895.786 2825.659 L 913.303 2824.971 L 930.816 2825.746 L 948.203 2827.980 L 965.344 2831.656 L 982.118 2836.749 L 998.409 2843.223 L 999.847 2843.821 L 1001.314 2844.343 L 1002.806 2844.789 L 1004.319 2845.156 L 1005.849 2845.445 L 1007.392 2845.654 L 1008.944 2845.782 L 1010.500 2845.830 L 1012.057 2845.797 L 1013.610 2845.683 L 1015.155 2845.489 L 1016.688 2845.215 L 1096.990 2828.695 L 1098.251 2828.348 L 1099.456 2827.840 L 1100.585 2827.178 L 1101.617 2826.375 L 1102.536 2825.444 L 1103.326 2824.401 L 1103.972 2823.264 L 1104.465 2822.052 L 1104.795 2820.787 L 1104.957 2819.489 L 1104.949 2818.181 L 1104.770 2816.885 L 1101.173 2799.401 L 1100.826 2798.140 L 1100.318 2796.935 L 1099.656 2795.806 L 1098.853 2794.774 L 1097.922 2793.855 L 1096.879 2793.066 L 1095.742 2792.419 L 1094.530 2791.926 L 1093.265 2791.596 L 1091.967 2791.434 L 1090.659 2791.442 L 1089.363 2791.622 L 1084.465 2792.629 L 1076.667 2793.449 L 1068.859 2792.731 L 1061.340 2790.504 L 1054.401 2786.853 L 1048.307 2781.918 L 1043.293 2775.890 L 1039.551 2768.999 L 1037.226 2761.510 L 1036.406 2753.711 L 1037.124 2745.903 L 1039.351 2738.385 L 1043.002 2731.445 L 1047.936 2725.351 L 1053.965 2720.337 L 1060.856 2716.596 L 1068.345 2714.270 L 1073.242 2713.263 L 1074.504 2712.916 L 1075.709 2712.407 L 1076.837 2711.746 L 1077.870 2710.943 L 1078.789 2710.012 L 1079.578 2708.969 L 1080.225 2707.832 L 1080.718 2706.620 L 1081.048 2705.354 L 1081.210 2704.057 L 1081.201 2702.748 L 1081.022 2701.453 L 1076.992 2681.863 L 1076.645 2680.602 L 1076.137 2679.397 L 1075.475 2678.268 L 1074.672 2677.236 L 1073.741 2676.317 L 1072.698 2675.527 L 1071.561 2674.881 L 1070.350 2674.388 L 1069.084 2674.058 L 1067.786 2673.895 L 1066.478 2673.904 L 1065.182 2674.083 L 1060.285 2675.091 L 1052.486 2675.910 L 1044.678 2675.193 L 1037.159 2672.966 L 1030.220 2669.315 L 1024.126 2664.380 L 1019.112 2658.351 L 1015.370 2651.460 L 1013.045 2643.971 L 1012.225 2636.173 L 1012.943 2628.364 L 1015.170 2620.846 L 1018.821 2613.907 L 1023.756 2607.813 L 1029.785 2602.799 L 1036.676 2599.057 L 1044.164 2596.732 L 1049.062 2595.724 L 1050.323 2595.377 L 1051.528 2594.869 L 1052.657 2594.207 L 1053.689 2593.404 L 1054.608 2592.473 L 1055.398 2591.430 L 1056.044 2590.293 L 1056.537 2589.082 L 1056.867 2587.816 L 1057.029 2586.518 L 1057.021 2585.210 L 1056.842 2583.914 L 1051.775 2559.286 L 1051.428 2558.025 L 1050.920 2556.819 L 1050.258 2555.691 L 1049.455 2554.658 L 1048.524 2553.740 L 1047.481 2552.950 L 1046.344 2552.304 L 1045.132 2551.811 L 1043.867 2551.481 L 1042.569 2551.318 L 1041.261 2551.327 L 1039.965 2551.506 L 838.191 2593.016 L 824.878 2594.985 L 811.430 2595.450 L 798.013 2594.407 L 784.798 2591.868 L 771.950 2587.865 L 759.631 2582.449 L 747.996 2575.688 L 737.191 2567.667 L 727.352 2558.486 L 718.603 2548.262 L 711.054 2537.122 L 704.799 2525.207 L 699.918 2512.666 L 696.471 2499.658 L 624.562 2150.118 L 617.477 2144.873 L 611.150 2138.736 L 605.691 2131.815 L 601.197 2124.231 L 597.746 2116.120 L 595.401 2107.622 L 594.202 2098.889 L 594.170 2090.075 L 595.305 2081.333 L 597.589 2072.819 L 600.980 2064.682 Z" fill="#f28e2b" fill-opacity="0.68" stroke="#1f2937" stroke-width="0.45" data-part-id="Lv8_11612_6db" data-instance-id="Lv8_11612_6db__0004" data-rotation-deg="281.625000"/>
  <path d="M 1156.607 920.026 L 1159.952 1120.437 L 1159.952 1120.594 L 1159.947 1120.750 L 1159.938 1120.906 L 1159.923 1121.061 L 1159.904 1121.216 L 1159.880 1121.371 L 1159.851 1121.524 L 1159.817 1121.677 L 1159.779 1121.828 L 1159.736 1121.978 L 1159.688 1122.127 L 1159.635 1122.274 L 1138.582 1178.503 L 1141.640 1187.169 L 1143.578 1196.151 L 1144.365 1205.307 L 1143.986 1214.489 L 1142.450 1223.549 L 1139.779 1232.341 L 1136.018 1240.726 L 1131.226 1248.567 L 1125.481 1255.739 L 1118.875 1262.127 L 1111.514 1267.628 L 1103.517 1272.154 L 1072.406 1355.243 L 1070.429 1359.814 L 1068.008 1364.167 L 1065.165 1368.256 L 1061.930 1372.043 L 1058.334 1375.489 L 1054.413 1378.560 L 1050.205 1381.226 L 1045.754 1383.460 L 1041.102 1385.240 L 1036.297 1386.548 L 1031.385 1387.372 L 1026.415 1387.703 L 956.404 1388.872 L 955.100 1388.979 L 953.821 1389.256 L 952.590 1389.697 L 951.427 1390.295 L 950.351 1391.040 L 949.382 1391.918 L 948.536 1392.916 L 947.828 1394.016 L 947.269 1395.198 L 946.869 1396.444 L 946.636 1397.731 L 946.572 1399.037 L 951.829 1713.993 L 951.892 1714.962 L 952.049 1715.919 L 952.298 1716.857 L 952.636 1717.766 L 953.061 1718.638 L 953.569 1719.465 L 954.154 1720.239 L 954.812 1720.952 L 955.535 1721.599 L 956.318 1722.172 L 957.153 1722.667 L 958.031 1723.078 L 1015.130 1746.508 L 1019.524 1748.565 L 1023.697 1751.038 L 1027.611 1753.904 L 1031.229 1757.136 L 1034.517 1760.703 L 1037.443 1764.572 L 1039.981 1768.706 L 1042.106 1773.067 L 1043.799 1777.613 L 1045.043 1782.302 L 1045.827 1787.089 L 1046.143 1791.930 L 1052.425 2168.336 L 1052.458 2168.989 L 1052.533 2169.639 L 1052.650 2170.283 L 1052.809 2170.918 L 1053.010 2171.541 L 1053.250 2172.149 L 1053.530 2172.741 L 1053.848 2173.313 L 1054.203 2173.863 L 1054.593 2174.388 L 1055.017 2174.887 L 1055.472 2175.357 L 1059.683 2179.429 L 1060.138 2179.899 L 1060.561 2180.398 L 1060.951 2180.924 L 1061.306 2181.474 L 1061.624 2182.045 L 1061.904 2182.637 L 1062.145 2183.245 L 1062.345 2183.868 L 1062.505 2184.503 L 1062.622 2185.147 L 1062.697 2185.797 L 1062.729 2186.451 L 1064.427 2288.152 L 1064.416 2288.806 L 1064.363 2289.459 L 1064.267 2290.106 L 1064.129 2290.746 L 1063.950 2291.375 L 1063.729 2291.991 L 1063.469 2292.592 L 1063.171 2293.174 L 1062.834 2293.735 L 1062.462 2294.273 L 1062.055 2294.786 L 1061.616 2295.271 L 1052.628 2304.565 L 1052.158 2305.020 L 1051.659 2305.443 L 1051.133 2305.833 L 1050.584 2306.188 L 1050.012 2306.506 L 1049.420 2306.786 L 1048.812 2307.027 L 1048.189 2307.227 L 1047.554 2307.386 L 1046.910 2307.504 L 1046.260 2307.579 L 1045.607 2307.611 L 1028.942 2307.889 L 1027.797 2307.974 L 1026.669 2308.190 L 1025.573 2308.534 L 1024.524 2309.001 L 1023.535 2309.585 L 1022.620 2310.279 L 1021.790 2311.073 L 1021.057 2311.957 L 1020.431 2312.919 L 1019.918 2313.947 L 1019.527 2315.026 L 1019.262 2316.144 L 991.844 2470.947 L 991.314 2473.182 L 990.532 2475.341 L 989.507 2477.397 L 988.253 2479.321 L 986.787 2481.089 L 985.128 2482.677 L 983.298 2484.065 L 981.320 2485.233 L 979.222 2486.167 L 977.031 2486.855 L 974.775 2487.286 L 972.484 2487.456 L 843.185 2489.615 L 843.068 2489.620 L 842.952 2489.632 L 842.836 2489.651 L 842.722 2489.677 L 842.610 2489.709 L 842.500 2489.748 L 842.392 2489.793 L 842.287 2489.844 L 842.185 2489.902 L 842.087 2489.965 L 841.992 2490.034 L 841.902 2490.108 L 833.775 2496.909 L 825.364 2503.356 L 816.686 2509.438 L 807.756 2515.143 L 798.590 2520.462 L 789.206 2525.385 L 779.619 2529.902 L 769.849 2534.005 L 759.912 2537.688 L 749.827 2540.942 L 739.612 2543.762 L 729.286 2546.144 L 729.375 2551.523 L 1062.729 2545.958 L 1062.378 2524.961 L 1069.377 2524.845 L 1069.728 2545.842 L 1226.706 2543.221 L 1226.356 2522.224 L 1233.355 2522.108 L 1233.705 2543.105 L 1462.073 2539.293 L 1461.984 2533.914 L 1451.577 2531.882 L 1441.267 2529.406 L 1431.072 2526.492 L 1421.011 2523.145 L 1411.102 2519.371 L 1401.363 2515.176 L 1391.813 2510.569 L 1382.469 2505.559 L 1373.347 2500.153 L 1364.464 2494.362 L 1355.837 2488.197 L 1347.482 2481.669 L 1347.389 2481.598 L 1347.293 2481.532 L 1347.192 2481.472 L 1347.089 2481.418 L 1346.982 2481.371 L 1346.873 2481.329 L 1346.761 2481.294 L 1346.648 2481.266 L 1346.533 2481.244 L 1346.417 2481.229 L 1346.301 2481.220 L 1346.184 2481.219 L 1257.700 2482.696 L 1255.087 2482.568 L 1252.513 2482.101 L 1250.022 2481.301 L 1247.657 2480.184 L 1245.458 2478.767 L 1243.462 2477.075 L 1241.705 2475.137 L 1240.215 2472.986 L 1239.019 2470.660 L 1238.137 2468.197 L 1237.584 2465.640 L 1237.369 2463.032 L 1237.111 2447.535 L 1207.115 2448.035 L 1205.808 2447.971 L 1204.521 2447.738 L 1203.276 2447.338 L 1202.093 2446.779 L 1200.994 2446.071 L 1199.996 2445.225 L 1199.117 2444.256 L 1198.372 2443.180 L 1197.774 2442.017 L 1197.333 2440.786 L 1197.057 2439.507 L 1196.949 2438.203 L 1195.948 2378.212 L 1196.012 2376.905 L 1196.245 2375.618 L 1196.645 2374.373 L 1197.204 2373.190 L 1197.913 2372.091 L 1198.758 2371.093 L 1199.727 2370.214 L 1200.803 2369.469 L 1201.966 2368.871 L 1203.198 2368.430 L 1204.476 2368.154 L 1205.780 2368.046 L 1235.776 2367.546 L 1224.347 1682.843 L 1224.342 1681.606 L 1224.367 1680.370 L 1224.423 1679.136 L 1224.509 1677.902 L 1224.626 1676.672 L 1224.773 1675.444 L 1224.950 1674.221 L 1225.158 1673.002 L 1225.396 1671.789 L 1225.663 1670.582 L 1225.961 1669.382 L 1226.287 1668.190 L 1340.316 1271.667 L 1340.643 1270.475 L 1340.941 1269.275 L 1341.208 1268.068 L 1341.446 1266.855 L 1341.654 1265.636 L 1341.831 1264.413 L 1341.978 1263.185 L 1342.095 1261.954 L 1342.181 1260.721 L 1342.237 1259.486 L 1342.262 1258.250 L 1342.257 1257.014 L 1340.017 1122.829 L 1339.039 1122.701 L 1338.187 1122.205 L 1337.593 1121.418 L 1337.350 1120.463 L 1337.495 1119.487 L 1338.005 1118.644 L 1338.802 1118.064 L 1339.762 1117.837 L 1340.734 1117.998 L 1341.569 1118.523 L 1342.136 1119.330 L 1342.346 1120.293 L 1396.339 1119.392 L 1396.282 1115.993 L 1396.265 1115.768 L 1396.224 1115.547 L 1396.158 1115.331 L 1396.068 1115.125 L 1395.955 1114.930 L 1395.821 1114.749 L 1395.668 1114.584 L 1395.497 1114.437 L 1395.311 1114.311 L 1395.111 1114.206 L 1394.901 1114.124 L 1394.684 1114.067 L 1387.063 1112.052 L 1379.717 1109.193 L 1372.739 1105.527 L 1366.218 1101.100 L 1360.236 1095.967 L 1354.868 1090.194 L 1350.184 1083.854 L 1346.242 1077.028 L 1343.093 1069.803 L 1340.776 1062.268 L 1339.321 1054.521 L 1338.746 1046.660 L 1327.597 378.744 L 1200.757 52.589 L 1200.654 52.312 L 1200.560 52.033 L 1200.473 51.751 L 1200.395 51.466 L 1200.326 51.179 L 1200.264 50.890 L 1200.212 50.600 L 1200.168 50.308 L 1200.133 50.015 L 1200.106 49.721 L 1200.088 49.427 L 1200.079 49.131 L 1199.615 21.329 L 1190.616 21.479 L 1190.915 39.377 L 1190.905 40.022 L 1190.853 40.665 L 1190.760 41.303 L 1190.626 41.934 L 1190.452 42.555 L 1190.238 43.164 L 1189.985 43.757 L 1189.695 44.333 L 1189.368 44.889 L 1189.005 45.423 L 1188.609 45.932 L 1188.182 46.415 L 1175.616 58.638 L 1162.074 69.771 L 1147.651 79.735 L 1132.447 88.461 L 1116.568 95.889 L 1100.125 101.967 L 1083.232 106.652 L 1066.008 109.912 L 1048.571 111.724 L 1031.044 112.076 L 1013.549 110.964 L 996.208 108.397 L 979.141 104.393 L 962.468 98.979 L 946.304 92.193 L 930.763 84.083 L 915.952 74.705 L 914.649 73.851 L 913.305 73.066 L 911.921 72.352 L 910.502 71.711 L 909.052 71.144 L 907.574 70.653 L 906.073 70.239 L 904.552 69.904 L 903.016 69.648 L 901.469 69.473 L 899.915 69.378 L 898.358 69.363 L 816.386 70.731 L 815.082 70.839 L 813.804 71.115 L 812.572 71.556 L 811.409 72.154 L 810.333 72.899 L 809.364 73.778 L 808.519 74.776 L 807.810 75.875 L 807.251 77.058 L 806.851 78.303 L 806.618 79.590 L 806.554 80.897 L 806.852 98.744 L 806.959 100.048 L 807.236 101.326 L 807.677 102.558 L 808.275 103.721 L 809.020 104.796 L 809.898 105.765 L 810.896 106.611 L 811.996 107.320 L 813.178 107.878 L 814.424 108.278 L 815.711 108.512 L 817.017 108.576 L 822.017 108.492 L 829.832 109.130 L 837.373 111.281 L 844.349 114.862 L 850.493 119.734 L 855.568 125.712 L 859.379 132.565 L 861.780 140.029 L 862.679 147.819 L 862.040 155.634 L 859.890 163.175 L 856.309 170.151 L 851.437 176.295 L 845.459 181.370 L 838.606 185.181 L 831.141 187.582 L 823.352 188.481 L 818.353 188.564 L 817.049 188.672 L 815.770 188.948 L 814.539 189.389 L 813.376 189.988 L 812.300 190.732 L 811.331 191.611 L 810.485 192.609 L 809.777 193.708 L 809.218 194.891 L 808.818 196.136 L 808.585 197.423 L 808.521 198.730 L 808.855 218.727 L 808.962 220.031 L 809.238 221.309 L 809.680 222.541 L 810.278 223.704 L 811.022 224.780 L 811.901 225.748 L 812.899 226.594 L 813.998 227.303 L 815.181 227.862 L 816.427 228.261 L 817.714 228.495 L 819.020 228.559 L 824.019 228.475 L 831.835 229.114 L 839.375 231.264 L 846.352 234.845 L 852.495 239.718 L 857.570 245.695 L 861.382 252.548 L 863.783 260.013 L 864.681 267.802 L 864.043 275.618 L 861.892 283.158 L 858.312 290.135 L 853.439 296.278 L 847.462 301.353 L 840.609 305.164 L 833.144 307.566 L 825.354 308.464 L 820.355 308.548 L 819.051 308.655 L 817.773 308.932 L 816.542 309.373 L 815.378 309.971 L 814.303 310.716 L 813.334 311.594 L 812.488 312.592 L 811.780 313.692 L 811.221 314.874 L 810.821 316.120 L 810.587 317.407 L 810.523 318.713 L 810.943 343.854 L 811.050 345.158 L 811.327 346.436 L 811.768 347.667 L 812.366 348.831 L 813.111 349.906 L 813.990 350.875 L 814.987 351.721 L 816.087 352.429 L 817.270 352.988 L 818.515 353.388 L 819.802 353.622 L 821.109 353.686 L 1027.080 350.248 L 1040.526 350.778 L 1053.829 352.810 L 1066.820 356.319 L 1079.337 361.261 L 1091.222 367.573 L 1102.325 375.176 L 1112.507 383.974 L 1121.641 393.857 L 1129.610 404.700 L 1136.315 416.368 L 1141.671 428.713 L 1145.612 441.580 L 1148.087 454.807 L 1149.066 468.228 L 1155.021 825.039 L 1161.013 831.505 L 1166.095 838.708 L 1170.178 846.520 L 1173.191 854.804 L 1175.080 863.414 L 1175.811 872.199 L 1175.373 881.003 L 1173.773 889.671 L 1171.038 898.051 L 1167.218 905.995 L 1162.379 913.364 Z" fill="#f28e2b" fill-opacity="0.68" stroke="#1f2937" stroke-width="0.45" data-part-id="Lv8_11612_6db" data-instance-id="Lv8_11612_6db__0005" data-rotation-deg="90.956250"/>
  <text x="8" y="28" font-family="Arial, sans-serif" font-size="26" fill="#111827">feature_on sheet 1 placed=2</text>
</svg>
