<svg xmlns="http://www.w3.org/2000/svg" width="1500.00mm" height="3000.00mm" viewBox="0 0 1500.0000 3000.0000">
  <!-- 6big_sp5_bias sheet 1 rendered from solver output placements and input outer_points -->
  <rect width="1500.0000" height="3000.0000" fill="#ffffff" stroke="#111827" stroke-width="2"/>
  <rect x="5.0000" y="5.0000" width="1490.0000" height="2990.0000" fill="none" stroke="#dc2626" stroke-width="1.5" stroke-dasharray="8,6"/>
  <path d="M 461.900 1370.855 L 461.900 1571.295 L 461.898 1571.451 L 461.890 1571.607 L 461.878 1571.763 L 461.861 1571.918 L 461.839 1572.073 L 461.812 1572.227 L 461.781 1572.380 L 461.745 1572.532 L 461.704 1572.682 L 461.658 1572.832 L 461.608 1572.980 L 461.553 1573.126 L 439.564 1628.996 L 442.477 1637.711 L 444.265 1646.725 L 444.898 1655.892 L 444.367 1665.066 L 442.679 1674.099 L 439.862 1682.846 L 435.962 1691.167 L 431.040 1698.927 L 425.176 1706.003 L 418.464 1712.279 L 411.013 1717.657 L 402.940 1722.048 L 370.447 1804.606 L 368.395 1809.144 L 365.901 1813.455 L 362.990 1817.497 L 359.692 1821.229 L 356.039 1824.615 L 352.067 1827.620 L 347.816 1830.215 L 343.328 1832.375 L 338.648 1834.077 L 333.821 1835.305 L 328.896 1836.047 L 323.921 1836.295 L 253.900 1836.295 L 252.595 1836.380 L 251.312 1836.635 L 250.073 1837.056 L 248.900 1837.634 L 247.812 1838.361 L 246.829 1839.224 L 245.967 1840.207 L 245.240 1841.295 L 244.661 1842.468 L 244.241 1843.706 L 243.986 1844.989 L 243.900 1846.295 L 243.900 2161.295 L 243.947 2162.264 L 244.088 2163.224 L 244.321 2164.165 L 244.644 2165.080 L 245.055 2165.959 L 245.548 2166.795 L 246.121 2167.578 L 246.766 2168.302 L 247.479 2168.961 L 248.252 2169.547 L 249.078 2170.055 L 249.950 2170.481 L 306.650 2194.861 L 311.008 2196.991 L 315.140 2199.533 L 319.006 2202.464 L 322.569 2205.756 L 325.797 2209.377 L 328.658 2213.295 L 331.127 2217.471 L 333.179 2221.867 L 334.795 2226.440 L 335.961 2231.149 L 336.665 2235.949 L 336.900 2240.795 L 336.900 2617.253 L 336.921 2617.907 L 336.986 2618.558 L 337.092 2619.203 L 337.241 2619.841 L 337.431 2620.467 L 337.661 2621.079 L 337.931 2621.675 L 338.240 2622.253 L 338.585 2622.808 L 338.966 2623.340 L 339.382 2623.846 L 339.829 2624.324 L 343.971 2628.466 L 344.418 2628.943 L 344.833 2629.449 L 345.215 2629.981 L 345.560 2630.537 L 345.869 2631.114 L 346.139 2631.710 L 346.369 2632.322 L 346.559 2632.949 L 346.708 2633.586 L 346.814 2634.232 L 346.879 2634.883 L 346.900 2635.537 L 346.900 2737.253 L 346.879 2737.907 L 346.814 2738.558 L 346.708 2739.203 L 346.559 2739.841 L 346.369 2740.467 L 346.139 2741.079 L 345.869 2741.675 L 345.560 2742.253 L 345.215 2742.808 L 344.833 2743.340 L 344.418 2743.846 L 343.971 2744.324 L 334.829 2753.466 L 334.351 2753.913 L 333.845 2754.328 L 333.314 2754.709 L 332.758 2755.055 L 332.181 2755.363 L 331.585 2755.633 L 330.972 2755.864 L 330.346 2756.054 L 329.709 2756.203 L 329.063 2756.309 L 328.412 2756.373 L 327.758 2756.395 L 311.091 2756.395 L 309.944 2756.461 L 308.813 2756.658 L 307.712 2756.983 L 306.655 2757.432 L 305.657 2758.000 L 304.730 2758.678 L 303.887 2759.459 L 303.139 2760.330 L 302.497 2761.282 L 301.967 2762.301 L 301.558 2763.374 L 301.274 2764.487 L 271.277 2918.811 L 270.710 2921.037 L 269.891 2923.182 L 268.832 2925.221 L 267.547 2927.124 L 266.051 2928.867 L 264.366 2930.427 L 262.513 2931.784 L 260.516 2932.919 L 258.403 2933.818 L 256.200 2934.469 L 253.937 2934.863 L 251.644 2934.995 L 122.327 2934.995 L 122.210 2934.998 L 122.093 2935.008 L 121.978 2935.025 L 121.863 2935.049 L 121.750 2935.079 L 121.639 2935.116 L 121.531 2935.160 L 121.425 2935.209 L 121.322 2935.265 L 121.223 2935.327 L 121.127 2935.394 L 121.036 2935.467 L 112.796 2942.131 L 104.279 2948.437 L 95.501 2954.373 L 86.477 2959.929 L 77.224 2965.094 L 67.758 2969.859 L 58.098 2974.215 L 48.260 2978.155 L 38.263 2981.671 L 28.125 2984.757 L 17.864 2987.406 L 7.500 2989.615 L 7.500 2994.995 L 340.900 2994.995 L 340.900 2973.995 L 347.900 2973.995 L 347.900 2994.995 L 504.900 2994.995 L 504.900 2973.995 L 511.900 2973.995 L 511.900 2994.995 L 740.300 2994.995 L 740.300 2989.615 L 729.929 2987.409 L 719.661 2984.762 L 709.516 2981.678 L 699.513 2978.163 L 689.668 2974.224 L 680.001 2969.868 L 670.529 2965.103 L 661.269 2959.937 L 652.239 2954.379 L 643.454 2948.441 L 634.932 2942.133 L 626.686 2935.467 L 626.595 2935.394 L 626.499 2935.327 L 626.400 2935.265 L 626.297 2935.209 L 626.191 2935.160 L 626.083 2935.116 L 625.972 2935.079 L 625.859 2935.049 L 625.745 2935.025 L 625.629 2935.008 L 625.513 2934.998 L 625.396 2934.995 L 536.900 2934.995 L 534.289 2934.824 L 531.724 2934.313 L 529.246 2933.472 L 526.900 2932.315 L 524.725 2930.862 L 522.758 2929.137 L 521.033 2927.170 L 519.579 2924.995 L 518.422 2922.648 L 517.582 2920.171 L 517.071 2917.605 L 516.900 2914.995 L 516.900 2899.495 L 486.900 2899.495 L 485.595 2899.409 L 484.312 2899.154 L 483.073 2898.733 L 481.900 2898.155 L 480.812 2897.428 L 479.829 2896.566 L 478.966 2895.582 L 478.240 2894.495 L 477.661 2893.321 L 477.241 2892.083 L 476.986 2890.800 L 476.900 2889.495 L 476.900 2829.495 L 476.986 2828.189 L 477.241 2826.906 L 477.661 2825.668 L 478.240 2824.495 L 478.966 2823.407 L 479.829 2822.424 L 480.812 2821.561 L 481.900 2820.834 L 483.073 2820.256 L 484.312 2819.835 L 485.595 2819.580 L 486.900 2819.495 L 516.900 2819.495 L 516.900 2134.696 L 516.915 2133.460 L 516.961 2132.225 L 517.037 2130.991 L 517.144 2129.759 L 517.282 2128.531 L 517.449 2127.306 L 517.647 2126.086 L 517.875 2124.870 L 518.133 2123.661 L 518.421 2122.459 L 518.738 2121.264 L 519.085 2120.078 L 639.715 1725.513 L 640.062 1724.327 L 640.379 1723.132 L 640.667 1721.930 L 640.925 1720.720 L 641.153 1719.505 L 641.351 1718.285 L 641.518 1717.060 L 641.656 1715.832 L 641.763 1714.600 L 641.839 1713.366 L 641.885 1712.131 L 641.900 1710.895 L 641.900 1576.691 L 640.925 1576.547 L 640.081 1576.037 L 639.500 1575.240 L 639.273 1574.281 L 639.434 1573.308 L 639.958 1572.473 L 640.765 1571.906 L 641.728 1571.695 L 642.698 1571.873 L 643.524 1572.412 L 644.077 1573.228 L 644.271 1574.195 L 698.271 1574.195 L 698.271 1570.795 L 698.258 1570.570 L 698.221 1570.348 L 698.158 1570.131 L 698.071 1569.924 L 697.962 1569.727 L 697.831 1569.543 L 697.681 1569.376 L 697.512 1569.226 L 697.328 1569.097 L 697.130 1568.989 L 696.922 1568.904 L 696.705 1568.842 L 689.119 1566.701 L 681.822 1563.720 L 674.907 1559.938 L 668.460 1555.402 L 662.564 1550.170 L 657.294 1544.308 L 652.716 1537.892 L 648.889 1531.001 L 645.861 1523.723 L 643.670 1516.151 L 642.344 1508.381 L 641.900 1500.511 L 641.900 832.503 L 520.521 504.276 L 520.423 503.998 L 520.333 503.717 L 520.251 503.433 L 520.178 503.147 L 520.113 502.859 L 520.056 502.569 L 520.009 502.278 L 519.970 501.986 L 519.939 501.692 L 519.917 501.398 L 519.904 501.103 L 519.900 500.808 L 519.900 473.001 L 510.900 473.001 L 510.900 490.902 L 510.879 491.546 L 510.817 492.188 L 510.713 492.825 L 510.569 493.454 L 510.384 494.072 L 510.160 494.677 L 509.898 495.266 L 509.597 495.837 L 509.261 496.387 L 508.890 496.915 L 508.486 497.417 L 508.050 497.893 L 495.282 509.905 L 481.556 520.810 L 466.969 530.532 L 451.621 539.003 L 435.621 546.165 L 419.078 551.968 L 402.110 556.370 L 384.833 559.342 L 367.369 560.863 L 349.839 560.922 L 332.365 559.519 L 315.069 556.662 L 298.071 552.374 L 281.490 546.682 L 265.442 539.628 L 250.038 531.260 L 235.386 521.635 L 234.098 520.760 L 232.767 519.953 L 231.395 519.216 L 229.987 518.551 L 228.546 517.960 L 227.077 517.444 L 225.583 517.006 L 224.068 516.645 L 222.537 516.364 L 220.993 516.163 L 219.440 516.041 L 217.884 516.001 L 135.900 516.001 L 134.595 516.087 L 133.312 516.342 L 132.073 516.762 L 130.900 517.341 L 129.812 518.067 L 128.829 518.930 L 127.967 519.913 L 127.240 521.001 L 126.661 522.174 L 126.241 523.413 L 125.986 524.696 L 125.900 526.001 L 125.900 543.851 L 125.986 545.156 L 126.241 546.439 L 126.661 547.677 L 127.240 548.851 L 127.967 549.938 L 128.829 550.922 L 129.812 551.784 L 130.900 552.511 L 132.073 553.089 L 133.312 553.510 L 134.595 553.765 L 135.900 553.851 L 140.900 553.851 L 148.704 554.619 L 156.207 556.895 L 163.123 560.592 L 169.184 565.566 L 174.159 571.628 L 177.855 578.543 L 180.131 586.047 L 180.900 593.851 L 180.131 601.654 L 177.855 609.158 L 174.159 616.073 L 169.184 622.135 L 163.123 627.109 L 156.207 630.806 L 148.704 633.082 L 140.900 633.851 L 135.900 633.851 L 134.595 633.936 L 133.312 634.191 L 132.073 634.612 L 130.900 635.190 L 129.812 635.917 L 128.829 636.780 L 127.967 637.763 L 127.240 638.851 L 126.661 640.024 L 126.241 641.262 L 125.986 642.545 L 125.900 643.851 L 125.900 663.851 L 125.986 665.156 L 126.241 666.439 L 126.661 667.677 L 127.240 668.851 L 127.967 669.938 L 128.829 670.922 L 129.812 671.784 L 130.900 672.511 L 132.073 673.089 L 133.312 673.510 L 134.595 673.765 L 135.900 673.851 L 140.900 673.851 L 148.704 674.619 L 156.207 676.895 L 163.123 680.592 L 169.184 685.566 L 174.159 691.628 L 177.855 698.543 L 180.131 706.047 L 180.900 713.851 L 180.131 721.654 L 177.855 729.158 L 174.159 736.073 L 169.184 742.135 L 163.123 747.109 L 156.207 750.806 L 148.704 753.082 L 140.900 753.851 L 135.900 753.851 L 134.595 753.936 L 133.312 754.191 L 132.073 754.612 L 130.900 755.190 L 129.812 755.917 L 128.829 756.780 L 127.967 757.763 L 127.240 758.851 L 126.661 760.024 L 126.241 761.262 L 125.986 762.545 L 125.900 763.851 L 125.900 788.995 L 125.986 790.300 L 126.241 791.583 L 126.661 792.821 L 127.240 793.995 L 127.967 795.082 L 128.829 796.066 L 129.812 796.928 L 130.900 797.655 L 132.073 798.233 L 133.312 798.654 L 134.595 798.909 L 135.900 798.995 L 341.900 798.995 L 355.336 799.749 L 368.603 802.003 L 381.534 805.729 L 393.966 810.878 L 405.744 817.388 L 416.719 825.175 L 426.753 834.142 L 435.720 844.176 L 443.507 855.151 L 450.016 866.929 L 455.166 879.361 L 458.891 892.292 L 461.146 905.559 L 461.900 918.995 L 461.900 1275.855 L 467.783 1282.420 L 472.744 1289.707 L 476.696 1297.586 L 479.570 1305.919 L 481.315 1314.560 L 481.900 1323.355 L 481.315 1332.151 L 479.570 1340.791 L 476.696 1349.125 L 472.744 1357.004 L 467.783 1364.290 Z" fill="#f28e2b" fill-opacity="0.68" stroke="#1f2937" stroke-width="0.45" data-part-id="Lv8_11612_6db" data-instance-id="Lv8_11612_6db__0003" data-rotation-deg="90.000000"/>
  <path d="M 943.705 1270.337 L 943.705 1470.777 L 943.702 1470.933 L 943.695 1471.089 L 943.683 1471.245 L 943.666 1471.400 L 943.644 1471.555 L 943.617 1471.708 L 943.586 1471.861 L 943.549 1472.013 L 943.508 1472.164 L 943.463 1472.314 L 943.412 1472.461 L 943.357 1472.608 L 921.368 1528.478 L 924.282 1537.193 L 926.070 1546.207 L 926.703 1555.374 L 926.172 1564.548 L 924.484 1573.581 L 921.667 1582.328 L 917.767 1590.649 L 912.845 1598.409 L 906.981 1605.484 L 900.269 1611.761 L 892.817 1617.138 L 884.745 1621.530 L 852.252 1704.088 L 850.200 1708.626 L 847.706 1712.937 L 844.795 1716.979 L 841.497 1720.711 L 837.844 1724.097 L 833.872 1727.102 L 829.621 1729.697 L 825.133 1731.857 L 820.452 1733.559 L 815.625 1734.787 L 810.700 1735.528 L 805.726 1735.777 L 735.705 1735.777 L 734.399 1735.862 L 733.117 1736.117 L 731.878 1736.538 L 730.705 1737.116 L 729.617 1737.843 L 728.634 1738.705 L 727.771 1739.689 L 727.044 1740.777 L 726.466 1741.950 L 726.045 1743.188 L 725.790 1744.471 L 725.705 1745.777 L 725.705 2060.777 L 725.752 2061.746 L 725.893 2062.706 L 726.126 2063.647 L 726.449 2064.562 L 726.859 2065.441 L 727.353 2066.277 L 727.925 2067.060 L 728.571 2067.784 L 729.284 2068.443 L 730.057 2069.029 L 730.883 2069.537 L 731.755 2069.963 L 788.455 2094.343 L 792.813 2096.473 L 796.945 2099.015 L 800.810 2101.946 L 804.374 2105.238 L 807.602 2108.859 L 810.463 2112.777 L 812.931 2116.953 L 814.984 2121.348 L 816.600 2125.922 L 817.766 2130.631 L 818.469 2135.431 L 818.705 2140.277 L 818.705 2516.734 L 818.726 2517.388 L 818.790 2518.040 L 818.897 2518.685 L 819.045 2519.323 L 819.235 2519.949 L 819.466 2520.561 L 819.736 2521.157 L 820.044 2521.734 L 820.390 2522.290 L 820.771 2522.822 L 821.186 2523.328 L 821.634 2523.805 L 825.776 2527.948 L 826.223 2528.425 L 826.638 2528.931 L 827.019 2529.463 L 827.365 2530.019 L 827.673 2530.596 L 827.944 2531.192 L 828.174 2531.804 L 828.364 2532.430 L 828.513 2533.068 L 828.619 2533.713 L 828.683 2534.365 L 828.705 2535.019 L 828.705 2636.734 L 828.683 2637.388 L 828.619 2638.040 L 828.513 2638.685 L 828.364 2639.323 L 828.174 2639.949 L 827.944 2640.561 L 827.673 2641.157 L 827.365 2641.734 L 827.019 2642.290 L 826.638 2642.822 L 826.223 2643.328 L 825.776 2643.805 L 816.634 2652.948 L 816.156 2653.395 L 815.650 2653.810 L 815.118 2654.191 L 814.563 2654.537 L 813.986 2654.845 L 813.389 2655.115 L 812.777 2655.346 L 812.151 2655.536 L 811.514 2655.684 L 810.868 2655.791 L 810.217 2655.855 L 809.563 2655.877 L 792.895 2655.877 L 791.749 2655.942 L 790.618 2656.139 L 789.516 2656.465 L 788.460 2656.914 L 787.461 2657.482 L 786.535 2658.160 L 785.692 2658.940 L 784.944 2659.812 L 784.301 2660.764 L 783.772 2661.783 L 783.363 2662.856 L 783.079 2663.968 L 753.082 2818.293 L 752.515 2820.518 L 751.696 2822.664 L 750.637 2824.702 L 749.351 2826.606 L 747.856 2828.349 L 746.171 2829.909 L 744.317 2831.266 L 742.321 2832.401 L 740.207 2833.300 L 738.005 2833.951 L 735.742 2834.345 L 733.449 2834.477 L 604.131 2834.477 L 604.015 2834.480 L 603.898 2834.490 L 603.782 2834.507 L 603.668 2834.531 L 603.555 2834.561 L 603.444 2834.598 L 603.336 2834.642 L 603.230 2834.691 L 603.127 2834.747 L 603.028 2834.809 L 602.932 2834.876 L 602.841 2834.949 L 594.601 2841.613 L 586.084 2847.918 L 577.306 2853.855 L 568.282 2859.411 L 559.028 2864.576 L 549.563 2869.341 L 539.903 2873.697 L 530.065 2877.637 L 520.068 2881.153 L 509.930 2884.239 L 499.669 2886.888 L 489.305 2889.097 L 489.305 2894.477 L 822.705 2894.477 L 822.705 2873.477 L 829.705 2873.477 L 829.705 2894.477 L 986.705 2894.477 L 986.705 2873.477 L 993.705 2873.477 L 993.705 2894.477 L 1222.105 2894.477 L 1222.105 2889.097 L 1211.734 2886.891 L 1201.466 2884.244 L 1191.321 2881.160 L 1181.317 2877.645 L 1171.473 2873.706 L 1161.806 2869.350 L 1152.334 2864.585 L 1143.074 2859.418 L 1134.044 2853.861 L 1125.259 2847.923 L 1116.736 2841.615 L 1108.491 2834.949 L 1108.400 2834.876 L 1108.304 2834.808 L 1108.205 2834.747 L 1108.102 2834.691 L 1107.996 2834.642 L 1107.888 2834.598 L 1107.777 2834.561 L 1107.664 2834.531 L 1107.550 2834.507 L 1107.434 2834.490 L 1107.318 2834.480 L 1107.201 2834.477 L 1018.705 2834.477 L 1016.094 2834.305 L 1013.528 2833.795 L 1011.051 2832.954 L 1008.705 2831.797 L 1006.530 2830.344 L 1004.563 2828.619 L 1002.838 2826.652 L 1001.384 2824.477 L 1000.227 2822.130 L 999.386 2819.653 L 998.876 2817.087 L 998.705 2814.477 L 998.705 2798.977 L 968.705 2798.977 L 967.399 2798.891 L 966.117 2798.636 L 964.878 2798.215 L 963.705 2797.637 L 962.617 2796.910 L 961.634 2796.048 L 960.771 2795.064 L 960.044 2793.977 L 959.466 2792.803 L 959.045 2791.565 L 958.790 2790.282 L 958.705 2788.977 L 958.705 2728.977 L 958.790 2727.671 L 959.045 2726.388 L 959.466 2725.150 L 960.044 2723.977 L 960.771 2722.889 L 961.634 2721.905 L 962.617 2721.043 L 963.705 2720.316 L 964.878 2719.738 L 966.117 2719.317 L 967.399 2719.062 L 968.705 2718.977 L 998.705 2718.977 L 998.705 2034.178 L 998.720 2032.942 L 998.766 2031.707 L 998.842 2030.473 L 998.949 2029.241 L 999.086 2028.013 L 999.254 2026.788 L 999.452 2025.567 L 999.680 2024.352 L 999.938 2023.143 L 1000.225 2021.941 L 1000.543 2020.746 L 1000.890 2019.560 L 1121.520 1624.995 L 1121.867 1623.809 L 1122.184 1622.614 L 1122.472 1621.411 L 1122.730 1620.202 L 1122.958 1618.987 L 1123.156 1617.767 L 1123.323 1616.542 L 1123.460 1615.314 L 1123.567 1614.082 L 1123.644 1612.848 L 1123.689 1611.613 L 1123.705 1610.377 L 1123.705 1476.173 L 1122.729 1476.029 L 1121.886 1475.519 L 1121.305 1474.722 L 1121.077 1473.763 L 1121.238 1472.790 L 1121.763 1471.955 L 1122.570 1471.388 L 1123.533 1471.177 L 1124.503 1471.355 L 1125.328 1471.894 L 1125.881 1472.710 L 1126.076 1473.677 L 1180.076 1473.677 L 1180.076 1470.277 L 1180.063 1470.052 L 1180.025 1469.830 L 1179.963 1469.613 L 1179.876 1469.405 L 1179.767 1469.209 L 1179.636 1469.025 L 1179.485 1468.858 L 1179.317 1468.708 L 1179.133 1468.579 L 1178.935 1468.471 L 1178.727 1468.385 L 1178.510 1468.324 L 1170.924 1466.183 L 1163.627 1463.202 L 1156.711 1459.420 L 1150.265 1454.884 L 1144.369 1449.652 L 1139.099 1443.790 L 1134.521 1437.373 L 1130.694 1430.483 L 1127.665 1423.205 L 1125.474 1415.633 L 1124.149 1407.863 L 1123.705 1399.993 L 1123.705 731.985 L 1002.326 403.758 L 1002.227 403.480 L 1002.137 403.199 L 1002.056 402.915 L 1001.982 402.629 L 1001.917 402.341 L 1001.861 402.051 L 1001.813 401.760 L 1001.774 401.467 L 1001.744 401.174 L 1001.722 400.879 L 1001.709 400.585 L 1001.705 400.289 L 1001.705 372.483 L 992.705 372.483 L 992.705 390.384 L 992.684 391.028 L 992.622 391.670 L 992.518 392.307 L 992.374 392.936 L 992.189 393.554 L 991.965 394.158 L 991.702 394.748 L 991.402 395.319 L 991.066 395.869 L 990.695 396.397 L 990.291 396.899 L 989.855 397.375 L 977.086 409.387 L 963.361 420.291 L 948.773 430.014 L 933.426 438.485 L 917.425 445.647 L 900.883 451.450 L 883.915 455.852 L 866.638 458.824 L 849.174 460.345 L 831.644 460.404 L 814.170 459.000 L 796.873 456.144 L 779.876 451.856 L 763.295 446.164 L 747.247 439.110 L 731.843 430.741 L 717.191 421.117 L 715.903 420.242 L 714.571 419.435 L 713.200 418.698 L 711.792 418.033 L 710.351 417.442 L 708.882 416.926 L 707.388 416.488 L 705.873 416.127 L 704.341 415.846 L 702.797 415.644 L 701.245 415.523 L 699.689 415.483 L 617.705 415.483 L 616.399 415.568 L 615.117 415.824 L 613.878 416.244 L 612.705 416.823 L 611.617 417.549 L 610.634 418.412 L 609.771 419.395 L 609.044 420.483 L 608.466 421.656 L 608.045 422.895 L 607.790 424.178 L 607.705 425.483 L 607.705 443.332 L 607.790 444.638 L 608.045 445.921 L 608.466 447.159 L 609.044 448.332 L 609.771 449.420 L 610.634 450.404 L 611.617 451.266 L 612.705 451.993 L 613.878 452.571 L 615.117 452.992 L 616.399 453.247 L 617.705 453.332 L 622.705 453.332 L 630.508 454.101 L 638.012 456.377 L 644.928 460.074 L 650.989 465.048 L 655.964 471.110 L 659.660 478.025 L 661.936 485.529 L 662.705 493.332 L 661.936 501.136 L 659.660 508.640 L 655.964 515.555 L 650.989 521.617 L 644.928 526.591 L 638.012 530.288 L 630.508 532.564 L 622.705 533.332 L 617.705 533.332 L 616.399 533.418 L 615.117 533.673 L 613.878 534.094 L 612.705 534.672 L 611.617 535.399 L 610.634 536.261 L 609.771 537.245 L 609.044 538.332 L 608.466 539.506 L 608.045 540.744 L 607.790 542.027 L 607.705 543.332 L 607.705 563.332 L 607.790 564.638 L 608.045 565.921 L 608.466 567.159 L 609.044 568.332 L 609.771 569.420 L 610.634 570.404 L 611.617 571.266 L 612.705 571.993 L 613.878 572.571 L 615.117 572.992 L 616.399 573.247 L 617.705 573.332 L 622.705 573.332 L 630.508 574.101 L 638.012 576.377 L 644.928 580.074 L 650.989 585.048 L 655.964 591.110 L 659.660 598.025 L 661.936 605.529 L 662.705 613.332 L 661.936 621.136 L 659.660 628.640 L 655.964 635.555 L 650.989 641.617 L 644.928 646.591 L 638.012 650.288 L 630.508 652.564 L 622.705 653.332 L 617.705 653.332 L 616.399 653.418 L 615.117 653.673 L 613.878 654.094 L 612.705 654.672 L 611.617 655.399 L 610.634 656.261 L 609.771 657.245 L 609.044 658.332 L 608.466 659.506 L 608.045 660.744 L 607.790 662.027 L 607.705 663.332 L 607.705 688.477 L 607.790 689.782 L 608.045 691.065 L 608.466 692.303 L 609.044 693.477 L 609.771 694.564 L 610.634 695.548 L 611.617 696.410 L 612.705 697.137 L 613.878 697.715 L 615.117 698.136 L 616.399 698.391 L 617.705 698.477 L 823.705 698.477 L 837.140 699.231 L 850.407 701.485 L 863.338 705.211 L 875.771 710.360 L 887.549 716.870 L 898.524 724.657 L 908.558 733.624 L 917.525 743.658 L 925.312 754.633 L 931.821 766.411 L 936.971 778.843 L 940.696 791.774 L 942.950 805.041 L 943.705 818.477 L 943.705 1175.337 L 949.587 1181.902 L 954.548 1189.188 L 958.501 1197.068 L 961.375 1205.401 L 963.120 1214.042 L 963.705 1222.837 L 963.120 1231.633 L 961.375 1240.273 L 958.501 1248.606 L 954.548 1256.486 L 949.587 1263.772 Z" fill="#f28e2b" fill-opacity="0.68" stroke="#1f2937" stroke-width="0.45" data-part-id="Lv8_11612_6db" data-instance-id="Lv8_11612_6db__0004" data-rotation-deg="90.000000"/>
  <text x="8" y="28" font-family="Arial, sans-serif" font-size="26" fill="#111827">6big_sp5_bias sheet 1 placed=2</text>
</svg>
