<svg xmlns="http://www.w3.org/2000/svg" width="1500.00mm" height="3000.00mm" viewBox="0 0 1500.0000 3000.0000">
  <!-- 6big_sp5_bias sheet 0 rendered from solver output placements and input outer_points -->
  <rect width="1500.0000" height="3000.0000" fill="#ffffff" stroke="#111827" stroke-width="2"/>
  <rect x="5.0000" y="5.0000" width="1490.0000" height="2990.0000" fill="none" stroke="#dc2626" stroke-width="1.5" stroke-dasharray="8,6"/>
  <path d="M 461.900 1370.858 L 461.900 1571.298 L 461.898 1571.454 L 461.890 1571.610 L 461.878 1571.766 L 461.861 1571.921 L 461.839 1572.076 L 461.812 1572.230 L 461.781 1572.383 L 461.745 1572.535 L 461.704 1572.686 L 461.658 1572.835 L 461.608 1572.983 L 461.553 1573.129 L 439.564 1628.999 L 442.477 1637.714 L 444.265 1646.728 L 444.898 1655.896 L 444.367 1665.070 L 442.679 1674.103 L 439.862 1682.850 L 435.962 1691.170 L 431.040 1698.930 L 425.176 1706.006 L 418.464 1712.283 L 411.013 1717.660 L 402.940 1722.051 L 370.447 1804.610 L 368.395 1809.148 L 365.901 1813.459 L 362.990 1817.501 L 359.692 1821.233 L 356.039 1824.618 L 352.067 1827.623 L 347.816 1830.219 L 343.328 1832.378 L 338.648 1834.080 L 333.821 1835.308 L 328.896 1836.050 L 323.921 1836.298 L 253.900 1836.298 L 252.595 1836.384 L 251.312 1836.639 L 250.073 1837.059 L 248.900 1837.638 L 247.812 1838.364 L 246.829 1839.227 L 245.967 1840.210 L 245.240 1841.298 L 244.661 1842.471 L 244.241 1843.710 L 243.986 1844.993 L 243.900 1846.298 L 243.900 2161.298 L 243.947 2162.267 L 244.088 2163.227 L 244.321 2164.169 L 244.644 2165.084 L 245.055 2165.963 L 245.548 2166.798 L 246.121 2167.581 L 246.766 2168.306 L 247.479 2168.964 L 248.252 2169.550 L 249.078 2170.059 L 249.950 2170.485 L 306.650 2194.864 L 311.008 2196.994 L 315.140 2199.537 L 319.006 2202.467 L 322.569 2205.759 L 325.797 2209.381 L 328.658 2213.298 L 331.127 2217.474 L 333.179 2221.870 L 334.795 2226.444 L 335.961 2231.153 L 336.665 2235.953 L 336.900 2240.798 L 336.900 2617.256 L 336.921 2617.910 L 336.986 2618.561 L 337.092 2619.207 L 337.241 2619.844 L 337.431 2620.470 L 337.661 2621.083 L 337.931 2621.679 L 338.240 2622.256 L 338.585 2622.812 L 338.966 2623.343 L 339.382 2623.849 L 339.829 2624.327 L 343.971 2628.469 L 344.418 2628.947 L 344.833 2629.452 L 345.215 2629.984 L 345.560 2630.540 L 345.869 2631.117 L 346.139 2631.713 L 346.369 2632.326 L 346.559 2632.952 L 346.708 2633.589 L 346.814 2634.235 L 346.879 2634.886 L 346.900 2635.540 L 346.900 2737.256 L 346.879 2737.910 L 346.814 2738.561 L 346.708 2739.207 L 346.559 2739.844 L 346.369 2740.470 L 346.139 2741.083 L 345.869 2741.679 L 345.560 2742.256 L 345.215 2742.812 L 344.833 2743.343 L 344.418 2743.849 L 343.971 2744.327 L 334.829 2753.469 L 334.351 2753.916 L 333.845 2754.331 L 333.314 2754.713 L 332.758 2755.058 L 332.181 2755.367 L 331.585 2755.637 L 330.972 2755.867 L 330.346 2756.057 L 329.709 2756.206 L 329.063 2756.312 L 328.412 2756.377 L 327.758 2756.398 L 311.091 2756.398 L 309.944 2756.464 L 308.813 2756.661 L 307.712 2756.986 L 306.655 2757.436 L 305.657 2758.003 L 304.730 2758.682 L 303.887 2759.462 L 303.139 2760.333 L 302.497 2761.285 L 301.967 2762.304 L 301.558 2763.377 L 301.274 2764.490 L 271.277 2918.814 L 270.710 2921.040 L 269.891 2923.186 L 268.832 2925.224 L 267.547 2927.127 L 266.051 2928.870 L 264.366 2930.430 L 262.513 2931.787 L 260.516 2932.923 L 258.403 2933.821 L 256.200 2934.472 L 253.937 2934.866 L 251.644 2934.998 L 122.327 2934.998 L 122.210 2935.001 L 122.093 2935.012 L 121.978 2935.029 L 121.863 2935.052 L 121.750 2935.083 L 121.639 2935.120 L 121.531 2935.163 L 121.425 2935.213 L 121.322 2935.268 L 121.223 2935.330 L 121.127 2935.397 L 121.036 2935.470 L 112.796 2942.134 L 104.279 2948.440 L 95.501 2954.376 L 86.477 2959.932 L 77.224 2965.097 L 67.758 2969.862 L 58.098 2974.219 L 48.260 2978.159 L 38.263 2981.674 L 28.125 2984.760 L 17.864 2987.410 L 7.500 2989.619 L 7.500 2994.998 L 340.900 2994.998 L 340.900 2973.998 L 347.900 2973.998 L 347.900 2994.998 L 504.900 2994.998 L 504.900 2973.998 L 511.900 2973.998 L 511.900 2994.998 L 740.300 2994.998 L 740.300 2989.619 L 729.929 2987.413 L 719.661 2984.765 L 709.516 2981.681 L 699.513 2978.167 L 689.668 2974.228 L 680.001 2969.871 L 670.529 2965.106 L 661.269 2959.940 L 652.239 2954.383 L 643.454 2948.445 L 634.932 2942.137 L 626.686 2935.470 L 626.595 2935.397 L 626.499 2935.330 L 626.400 2935.268 L 626.297 2935.213 L 626.191 2935.163 L 626.083 2935.120 L 625.972 2935.083 L 625.859 2935.052 L 625.745 2935.029 L 625.629 2935.012 L 625.513 2935.001 L 625.396 2934.998 L 536.900 2934.998 L 534.289 2934.827 L 531.724 2934.316 L 529.246 2933.476 L 526.900 2932.318 L 524.725 2930.865 L 522.758 2929.140 L 521.033 2927.173 L 519.579 2924.998 L 518.422 2922.652 L 517.582 2920.174 L 517.071 2917.608 L 516.900 2914.998 L 516.900 2899.498 L 486.900 2899.498 L 485.595 2899.412 L 484.312 2899.157 L 483.073 2898.737 L 481.900 2898.158 L 480.812 2897.431 L 479.829 2896.569 L 478.966 2895.586 L 478.240 2894.498 L 477.661 2893.325 L 477.241 2892.086 L 476.986 2890.803 L 476.900 2889.498 L 476.900 2829.498 L 476.986 2828.193 L 477.241 2826.910 L 477.661 2825.671 L 478.240 2824.498 L 478.966 2823.410 L 479.829 2822.427 L 480.812 2821.564 L 481.900 2820.838 L 483.073 2820.259 L 484.312 2819.839 L 485.595 2819.584 L 486.900 2819.498 L 516.900 2819.498 L 516.900 2134.700 L 516.915 2133.463 L 516.961 2132.228 L 517.037 2130.994 L 517.144 2129.763 L 517.282 2128.534 L 517.449 2127.309 L 517.647 2126.089 L 517.875 2124.874 L 518.133 2123.665 L 518.421 2122.462 L 518.738 2121.268 L 519.085 2120.081 L 639.715 1725.517 L 640.062 1724.330 L 640.379 1723.135 L 640.667 1721.933 L 640.925 1720.724 L 641.153 1719.509 L 641.351 1718.288 L 641.518 1717.064 L 641.656 1715.835 L 641.763 1714.603 L 641.839 1713.369 L 641.885 1712.134 L 641.900 1710.898 L 641.900 1576.695 L 640.925 1576.550 L 640.081 1576.040 L 639.500 1575.243 L 639.273 1574.284 L 639.434 1573.311 L 639.958 1572.476 L 640.765 1571.909 L 641.728 1571.698 L 642.698 1571.876 L 643.524 1572.415 L 644.077 1573.231 L 644.271 1574.198 L 698.271 1574.198 L 698.271 1570.798 L 698.258 1570.573 L 698.221 1570.351 L 698.158 1570.135 L 698.071 1569.927 L 697.962 1569.730 L 697.831 1569.547 L 697.681 1569.379 L 697.512 1569.230 L 697.328 1569.100 L 697.130 1568.992 L 696.922 1568.907 L 696.705 1568.846 L 689.119 1566.704 L 681.822 1563.723 L 674.907 1559.941 L 668.460 1555.405 L 662.564 1550.173 L 657.294 1544.312 L 652.716 1537.895 L 648.889 1531.004 L 645.861 1523.727 L 643.670 1516.155 L 642.344 1508.385 L 641.900 1500.515 L 641.900 832.506 L 520.521 504.279 L 520.423 504.001 L 520.333 503.720 L 520.251 503.436 L 520.178 503.150 L 520.113 502.862 L 520.056 502.573 L 520.009 502.281 L 519.970 501.989 L 519.939 501.695 L 519.917 501.401 L 519.904 501.106 L 519.900 500.811 L 519.900 473.004 L 510.900 473.004 L 510.900 490.905 L 510.879 491.550 L 510.817 492.192 L 510.713 492.828 L 510.569 493.457 L 510.384 494.075 L 510.160 494.680 L 509.898 495.269 L 509.597 495.840 L 509.261 496.390 L 508.890 496.918 L 508.486 497.421 L 508.050 497.896 L 495.282 509.908 L 481.556 520.813 L 466.969 530.535 L 451.621 539.007 L 435.621 546.169 L 419.078 551.971 L 402.110 556.374 L 384.833 559.346 L 367.369 560.866 L 349.839 560.925 L 332.365 559.522 L 315.069 556.666 L 298.071 552.377 L 281.490 546.686 L 265.442 539.631 L 250.038 531.263 L 235.386 521.639 L 234.098 520.763 L 232.767 519.956 L 231.395 519.219 L 229.987 518.554 L 228.546 517.963 L 227.077 517.448 L 225.583 517.009 L 224.068 516.649 L 222.537 516.367 L 220.993 516.166 L 219.440 516.045 L 217.884 516.004 L 135.900 516.004 L 134.595 516.090 L 133.312 516.345 L 132.073 516.766 L 130.900 517.344 L 129.812 518.071 L 128.829 518.933 L 127.967 519.917 L 127.240 521.004 L 126.661 522.177 L 126.241 523.416 L 125.986 524.699 L 125.900 526.004 L 125.900 543.854 L 125.986 545.159 L 126.241 546.442 L 126.661 547.681 L 127.240 548.854 L 127.967 549.942 L 128.829 550.925 L 129.812 551.787 L 130.900 552.514 L 132.073 553.093 L 133.312 553.513 L 134.595 553.768 L 135.900 553.854 L 140.900 553.854 L 148.704 554.622 L 156.207 556.899 L 163.123 560.595 L 169.184 565.570 L 174.159 571.631 L 177.855 578.547 L 180.131 586.050 L 180.900 593.854 L 180.131 601.658 L 177.855 609.161 L 174.159 616.077 L 169.184 622.138 L 163.123 627.113 L 156.207 630.809 L 148.704 633.085 L 140.900 633.854 L 135.900 633.854 L 134.595 633.939 L 133.312 634.195 L 132.073 634.615 L 130.900 635.194 L 129.812 635.920 L 128.829 636.783 L 127.967 637.766 L 127.240 638.854 L 126.661 640.027 L 126.241 641.266 L 125.986 642.549 L 125.900 643.854 L 125.900 663.854 L 125.986 665.159 L 126.241 666.442 L 126.661 667.681 L 127.240 668.854 L 127.967 669.942 L 128.829 670.925 L 129.812 671.787 L 130.900 672.514 L 132.073 673.093 L 133.312 673.513 L 134.595 673.768 L 135.900 673.854 L 140.900 673.854 L 148.704 674.622 L 156.207 676.899 L 163.123 680.595 L 169.184 685.570 L 174.159 691.631 L 177.855 698.547 L 180.131 706.050 L 180.900 713.854 L 180.131 721.658 L 177.855 729.161 L 174.159 736.077 L 169.184 742.138 L 163.123 747.113 L 156.207 750.809 L 148.704 753.085 L 140.900 753.854 L 135.900 753.854 L 134.595 753.939 L 133.312 754.195 L 132.073 754.615 L 130.900 755.194 L 129.812 755.920 L 128.829 756.783 L 127.967 757.766 L 127.240 758.854 L 126.661 760.027 L 126.241 761.266 L 125.986 762.549 L 125.900 763.854 L 125.900 788.998 L 125.986 790.303 L 126.241 791.586 L 126.661 792.825 L 127.240 793.998 L 127.967 795.086 L 128.829 796.069 L 129.812 796.931 L 130.900 797.658 L 132.073 798.237 L 133.312 798.657 L 134.595 798.912 L 135.900 798.998 L 341.900 798.998 L 355.336 799.752 L 368.603 802.007 L 381.534 805.732 L 393.966 810.882 L 405.744 817.391 L 416.719 825.178 L 426.753 834.145 L 435.720 844.179 L 443.507 855.154 L 450.016 866.932 L 455.166 879.364 L 458.891 892.295 L 461.146 905.562 L 461.900 918.998 L 461.900 1275.858 L 467.783 1282.423 L 472.744 1289.710 L 476.696 1297.589 L 479.570 1305.922 L 481.315 1314.563 L 481.900 1323.358 L 481.315 1332.154 L 479.570 1340.795 L 476.696 1349.128 L 472.744 1357.007 L 467.783 1364.293 Z" fill="#f28e2b" fill-opacity="0.68" stroke="#1f2937" stroke-width="0.45" data-part-id="Lv8_11612_6db" data-instance-id="Lv8_11612_6db__0001" data-rotation-deg="90.000000"/>
  <path d="M 993.658 1305.837 L 993.658 1506.277 L 993.655 1506.433 L 993.648 1506.589 L 993.636 1506.745 L 993.619 1506.900 L 993.597 1507.055 L 993.570 1507.209 L 993.538 1507.362 L 993.502 1507.514 L 993.461 1507.664 L 993.415 1507.814 L 993.365 1507.962 L 993.310 1508.108 L 971.321 1563.978 L 974.235 1572.693 L 976.023 1581.707 L 976.656 1590.874 L 976.124 1600.048 L 974.437 1609.081 L 971.620 1617.828 L 967.719 1626.149 L 962.798 1633.909 L 956.934 1640.985 L 950.222 1647.261 L 942.770 1652.639 L 934.698 1657.030 L 902.205 1739.588 L 900.152 1744.126 L 897.658 1748.437 L 894.748 1752.479 L 891.450 1756.211 L 887.797 1759.597 L 883.825 1762.602 L 879.574 1765.197 L 875.086 1767.357 L 870.405 1769.059 L 865.578 1770.287 L 860.653 1771.029 L 855.679 1771.277 L 785.658 1771.277 L 784.352 1771.362 L 783.069 1771.617 L 781.831 1772.038 L 780.658 1772.616 L 779.570 1773.343 L 778.586 1774.206 L 777.724 1775.189 L 776.997 1776.277 L 776.419 1777.450 L 775.998 1778.688 L 775.743 1779.971 L 775.658 1781.277 L 775.658 2096.277 L 775.705 2097.246 L 775.845 2098.206 L 776.078 2099.147 L 776.402 2100.062 L 776.812 2100.941 L 777.306 2101.777 L 777.878 2102.560 L 778.524 2103.284 L 779.236 2103.943 L 780.010 2104.529 L 780.836 2105.037 L 781.708 2105.463 L 838.408 2129.843 L 842.766 2131.973 L 846.898 2134.515 L 850.763 2137.446 L 854.327 2140.738 L 857.554 2144.359 L 860.416 2148.277 L 862.884 2152.453 L 864.936 2156.849 L 866.553 2161.422 L 867.718 2166.131 L 868.422 2170.931 L 868.658 2175.777 L 868.658 2552.235 L 868.679 2552.889 L 868.743 2553.540 L 868.850 2554.185 L 868.998 2554.823 L 869.188 2555.449 L 869.419 2556.061 L 869.689 2556.657 L 869.997 2557.235 L 870.343 2557.790 L 870.724 2558.322 L 871.139 2558.828 L 871.586 2559.306 L 875.729 2563.448 L 876.176 2563.925 L 876.591 2564.431 L 876.972 2564.963 L 877.318 2565.519 L 877.626 2566.096 L 877.896 2566.692 L 878.127 2567.304 L 878.317 2567.931 L 878.465 2568.568 L 878.572 2569.214 L 878.636 2569.865 L 878.658 2570.519 L 878.658 2672.235 L 878.636 2672.889 L 878.572 2673.540 L 878.465 2674.185 L 878.317 2674.823 L 878.127 2675.449 L 877.896 2676.061 L 877.626 2676.657 L 877.318 2677.235 L 876.972 2677.790 L 876.591 2678.322 L 876.176 2678.828 L 875.729 2679.306 L 866.586 2688.448 L 866.109 2688.895 L 865.603 2689.310 L 865.071 2689.691 L 864.515 2690.037 L 863.938 2690.345 L 863.342 2690.615 L 862.730 2690.846 L 862.104 2691.036 L 861.466 2691.185 L 860.821 2691.291 L 860.169 2691.355 L 859.515 2691.377 L 842.848 2691.377 L 841.702 2691.443 L 840.570 2691.640 L 839.469 2691.965 L 838.412 2692.414 L 837.414 2692.982 L 836.488 2693.660 L 835.645 2694.441 L 834.897 2695.312 L 834.254 2696.264 L 833.725 2697.283 L 833.316 2698.356 L 833.032 2699.469 L 803.034 2853.793 L 802.467 2856.019 L 801.649 2858.164 L 800.590 2860.203 L 799.304 2862.106 L 797.809 2863.849 L 796.123 2865.409 L 794.270 2866.766 L 792.274 2867.901 L 790.160 2868.800 L 787.958 2869.451 L 785.695 2869.845 L 783.402 2869.977 L 654.084 2869.977 L 653.967 2869.980 L 653.851 2869.990 L 653.735 2870.007 L 653.621 2870.031 L 653.508 2870.061 L 653.397 2870.098 L 653.289 2870.142 L 653.183 2870.191 L 653.080 2870.247 L 652.981 2870.309 L 652.885 2870.376 L 652.794 2870.449 L 644.554 2877.113 L 636.037 2883.419 L 627.258 2889.355 L 618.234 2894.911 L 608.981 2900.076 L 599.516 2904.841 L 589.855 2909.197 L 580.018 2913.137 L 570.021 2916.653 L 559.883 2919.739 L 549.622 2922.388 L 539.258 2924.597 L 539.258 2929.977 L 872.658 2929.977 L 872.658 2908.977 L 879.658 2908.977 L 879.658 2929.977 L 1036.658 2929.977 L 1036.658 2908.977 L 1043.658 2908.977 L 1043.658 2929.977 L 1272.058 2929.977 L 1272.058 2924.597 L 1261.686 2922.391 L 1251.419 2919.744 L 1241.274 2916.660 L 1231.270 2913.145 L 1221.426 2909.206 L 1211.759 2904.850 L 1202.287 2900.085 L 1193.027 2894.919 L 1183.997 2889.361 L 1175.212 2883.423 L 1166.689 2877.115 L 1158.444 2870.449 L 1158.352 2870.376 L 1158.257 2870.309 L 1158.158 2870.247 L 1158.055 2870.191 L 1157.949 2870.142 L 1157.841 2870.098 L 1157.730 2870.061 L 1157.617 2870.031 L 1157.502 2870.007 L 1157.387 2869.990 L 1157.270 2869.980 L 1157.153 2869.977 L 1068.658 2869.977 L 1066.047 2869.806 L 1063.481 2869.295 L 1061.004 2868.454 L 1058.658 2867.297 L 1056.482 2865.844 L 1054.515 2864.119 L 1052.790 2862.152 L 1051.337 2859.977 L 1050.180 2857.630 L 1049.339 2855.153 L 1048.829 2852.587 L 1048.658 2849.977 L 1048.658 2834.477 L 1018.658 2834.477 L 1017.352 2834.391 L 1016.069 2834.136 L 1014.831 2833.715 L 1013.658 2833.137 L 1012.570 2832.410 L 1011.586 2831.548 L 1010.724 2830.564 L 1009.997 2829.477 L 1009.419 2828.303 L 1008.998 2827.065 L 1008.743 2825.782 L 1008.658 2824.477 L 1008.658 2764.477 L 1008.743 2763.171 L 1008.998 2761.888 L 1009.419 2760.650 L 1009.997 2759.477 L 1010.724 2758.389 L 1011.586 2757.406 L 1012.570 2756.543 L 1013.658 2755.816 L 1014.831 2755.238 L 1016.069 2754.817 L 1017.352 2754.562 L 1018.658 2754.477 L 1048.658 2754.477 L 1048.658 2069.678 L 1048.673 2068.442 L 1048.719 2067.207 L 1048.795 2065.973 L 1048.902 2064.741 L 1049.039 2063.513 L 1049.207 2062.288 L 1049.405 2061.068 L 1049.633 2059.852 L 1049.890 2058.643 L 1050.178 2057.441 L 1050.496 2056.246 L 1050.842 2055.060 L 1171.473 1660.495 L 1171.820 1659.309 L 1172.137 1658.114 L 1172.425 1656.912 L 1172.683 1655.702 L 1172.911 1654.487 L 1173.108 1653.267 L 1173.276 1652.042 L 1173.413 1650.814 L 1173.520 1649.582 L 1173.596 1648.348 L 1173.642 1647.113 L 1173.658 1645.877 L 1173.658 1511.673 L 1172.682 1511.529 L 1171.838 1511.019 L 1171.258 1510.222 L 1171.030 1509.263 L 1171.191 1508.290 L 1171.716 1507.455 L 1172.522 1506.888 L 1173.486 1506.677 L 1174.455 1506.855 L 1175.281 1507.394 L 1175.834 1508.210 L 1176.029 1509.177 L 1230.029 1509.177 L 1230.029 1505.777 L 1230.016 1505.552 L 1229.978 1505.330 L 1229.915 1505.113 L 1229.829 1504.906 L 1229.720 1504.709 L 1229.589 1504.525 L 1229.438 1504.358 L 1229.270 1504.208 L 1229.086 1504.079 L 1228.888 1503.971 L 1228.679 1503.886 L 1228.463 1503.824 L 1220.877 1501.683 L 1213.580 1498.702 L 1206.664 1494.920 L 1200.217 1490.384 L 1194.322 1485.152 L 1189.052 1479.290 L 1184.474 1472.874 L 1180.646 1465.983 L 1177.618 1458.705 L 1175.427 1451.133 L 1174.101 1443.363 L 1173.658 1435.493 L 1173.658 767.485 L 1052.278 439.258 L 1052.180 438.980 L 1052.090 438.699 L 1052.008 438.415 L 1051.935 438.129 L 1051.870 437.841 L 1051.814 437.551 L 1051.766 437.260 L 1051.727 436.968 L 1051.697 436.674 L 1051.675 436.380 L 1051.662 436.085 L 1051.658 435.790 L 1051.658 407.983 L 1042.658 407.983 L 1042.658 425.884 L 1042.637 426.528 L 1042.574 427.170 L 1042.471 427.807 L 1042.326 428.436 L 1042.142 429.054 L 1041.918 429.659 L 1041.655 430.248 L 1041.355 430.819 L 1041.019 431.369 L 1040.648 431.897 L 1040.243 432.399 L 1039.808 432.875 L 1027.039 444.887 L 1013.313 455.792 L 998.726 465.514 L 983.379 473.985 L 967.378 481.147 L 950.836 486.950 L 933.867 491.352 L 916.591 494.324 L 899.127 495.845 L 881.596 495.904 L 864.122 494.501 L 846.826 491.644 L 829.829 487.356 L 813.248 481.664 L 797.200 474.610 L 781.796 466.242 L 767.143 456.617 L 765.856 455.742 L 764.524 454.935 L 763.152 454.198 L 761.745 453.533 L 760.304 452.942 L 758.835 452.426 L 757.341 451.988 L 755.826 451.627 L 754.294 451.346 L 752.750 451.145 L 751.198 451.023 L 749.641 450.983 L 667.658 450.983 L 666.352 451.069 L 665.069 451.324 L 663.831 451.744 L 662.658 452.323 L 661.570 453.049 L 660.586 453.912 L 659.724 454.895 L 658.997 455.983 L 658.419 457.156 L 657.998 458.395 L 657.743 459.678 L 657.658 460.983 L 657.658 478.833 L 657.743 480.138 L 657.998 481.421 L 658.419 482.659 L 658.997 483.833 L 659.724 484.920 L 660.586 485.904 L 661.570 486.766 L 662.658 487.493 L 663.831 488.071 L 665.069 488.492 L 666.352 488.747 L 667.658 488.833 L 672.658 488.833 L 680.461 489.601 L 687.965 491.877 L 694.880 495.574 L 700.942 500.548 L 705.916 506.610 L 709.613 513.525 L 711.889 521.029 L 712.658 528.833 L 711.889 536.636 L 709.613 544.140 L 705.916 551.055 L 700.942 557.117 L 694.880 562.091 L 687.965 565.788 L 680.461 568.064 L 672.658 568.833 L 667.658 568.833 L 666.352 568.918 L 665.069 569.173 L 663.831 569.594 L 662.658 570.172 L 661.570 570.899 L 660.586 571.762 L 659.724 572.745 L 658.997 573.833 L 658.419 575.006 L 657.998 576.244 L 657.743 577.527 L 657.658 578.833 L 657.658 598.833 L 657.743 600.138 L 657.998 601.421 L 658.419 602.659 L 658.997 603.833 L 659.724 604.920 L 660.586 605.904 L 661.570 606.766 L 662.658 607.493 L 663.831 608.071 L 665.069 608.492 L 666.352 608.747 L 667.658 608.833 L 672.658 608.833 L 680.461 609.601 L 687.965 611.877 L 694.880 615.574 L 700.942 620.548 L 705.916 626.610 L 709.613 633.525 L 711.889 641.029 L 712.658 648.833 L 711.889 656.636 L 709.613 664.140 L 705.916 671.055 L 700.942 677.117 L 694.880 682.091 L 687.965 685.788 L 680.461 688.064 L 672.658 688.833 L 667.658 688.833 L 666.352 688.918 L 665.069 689.173 L 663.831 689.594 L 662.658 690.172 L 661.570 690.899 L 660.586 691.762 L 659.724 692.745 L 658.997 693.833 L 658.419 695.006 L 657.998 696.244 L 657.743 697.527 L 657.658 698.833 L 657.658 723.977 L 657.743 725.282 L 657.998 726.565 L 658.419 727.803 L 658.997 728.977 L 659.724 730.064 L 660.586 731.048 L 661.570 731.910 L 662.658 732.637 L 663.831 733.215 L 665.069 733.636 L 666.352 733.891 L 667.658 733.977 L 873.658 733.977 L 887.093 734.731 L 900.360 736.985 L 913.291 740.711 L 925.724 745.860 L 937.501 752.370 L 948.476 760.157 L 958.510 769.124 L 967.477 779.158 L 975.264 790.133 L 981.774 801.911 L 986.924 814.343 L 990.649 827.274 L 992.903 840.541 L 993.658 853.977 L 993.658 1210.837 L 999.540 1217.402 L 1004.501 1224.689 L 1008.454 1232.568 L 1011.328 1240.901 L 1013.072 1249.542 L 1013.658 1258.337 L 1013.072 1267.133 L 1011.328 1275.773 L 1008.454 1284.107 L 1004.501 1291.986 L 999.540 1299.272 Z" fill="#f28e2b" fill-opacity="0.68" stroke="#1f2937" stroke-width="0.45" data-part-id="Lv8_11612_6db" data-instance-id="Lv8_11612_6db__0002" data-rotation-deg="90.000000"/>
  <text x="8" y="28" font-family="Arial, sans-serif" font-size="26" fill="#111827">6big_sp5_bias sheet 0 placed=2</text>
</svg>
