<svg xmlns="http://www.w3.org/2000/svg" width="1500.00mm" height="3000.00mm" viewBox="0 0 1500.0000 3000.0000">
  <!-- 6big_sp5_bias sheet 2 rendered from solver output placements and input outer_points -->
  <rect width="1500.0000" height="3000.0000" fill="#ffffff" stroke="#111827" stroke-width="2"/>
  <rect x="5.0000" y="5.0000" width="1490.0000" height="2990.0000" fill="none" stroke="#dc2626" stroke-width="1.5" stroke-dasharray="8,6"/>
  <path d="M 283.401 2094.646 L 283.401 1894.206 L 283.404 1894.050 L 283.411 1893.894 L 283.423 1893.738 L 283.440 1893.583 L 283.462 1893.428 L 283.489 1893.275 L 283.520 1893.122 L 283.557 1892.970 L 283.598 1892.819 L 283.643 1892.669 L 283.694 1892.522 L 283.749 1892.375 L 305.738 1836.505 L 302.824 1827.790 L 301.036 1818.776 L 300.403 1809.609 L 300.934 1800.435 L 302.622 1791.402 L 305.439 1782.655 L 309.339 1774.334 L 314.261 1766.574 L 320.125 1759.499 L 326.837 1753.222 L 334.289 1747.845 L 342.361 1743.453 L 374.854 1660.895 L 376.906 1656.357 L 379.400 1652.046 L 382.311 1648.004 L 385.609 1644.272 L 389.262 1640.886 L 393.234 1637.881 L 397.485 1635.286 L 401.973 1633.126 L 406.654 1631.424 L 411.480 1630.196 L 416.406 1629.455 L 421.380 1629.206 L 491.401 1629.206 L 492.706 1629.121 L 493.989 1628.866 L 495.228 1628.445 L 496.401 1627.867 L 497.489 1627.140 L 498.472 1626.278 L 499.335 1625.294 L 500.061 1624.206 L 500.640 1623.033 L 501.060 1621.795 L 501.316 1620.512 L 501.401 1619.206 L 501.401 1304.206 L 501.354 1303.237 L 501.213 1302.277 L 500.980 1301.336 L 500.657 1300.421 L 500.246 1299.542 L 499.753 1298.706 L 499.181 1297.923 L 498.535 1297.199 L 497.822 1296.540 L 497.049 1295.954 L 496.223 1295.446 L 495.351 1295.020 L 438.651 1270.640 L 434.293 1268.510 L 430.161 1265.968 L 426.295 1263.037 L 422.732 1259.745 L 419.504 1256.124 L 416.643 1252.206 L 414.174 1248.030 L 412.122 1243.635 L 410.506 1239.061 L 409.340 1234.352 L 408.636 1229.552 L 408.401 1224.706 L 408.401 848.249 L 408.380 847.595 L 408.316 846.943 L 408.209 846.298 L 408.060 845.660 L 407.870 845.034 L 407.640 844.422 L 407.370 843.826 L 407.061 843.249 L 406.716 842.693 L 406.335 842.161 L 405.920 841.655 L 405.472 841.178 L 401.330 837.035 L 400.883 836.558 L 400.468 836.052 L 400.086 835.520 L 399.741 834.964 L 399.432 834.387 L 399.162 833.791 L 398.932 833.179 L 398.742 832.553 L 398.593 831.915 L 398.487 831.270 L 398.423 830.618 L 398.401 829.964 L 398.401 728.249 L 398.423 727.595 L 398.487 726.943 L 398.593 726.298 L 398.742 725.660 L 398.932 725.034 L 399.162 724.422 L 399.432 723.826 L 399.741 723.249 L 400.086 722.693 L 400.468 722.161 L 400.883 721.655 L 401.330 721.178 L 410.472 712.035 L 410.950 711.588 L 411.456 711.173 L 411.988 710.792 L 412.543 710.446 L 413.120 710.138 L 413.716 709.868 L 414.329 709.637 L 414.955 709.447 L 415.592 709.299 L 416.238 709.192 L 416.889 709.128 L 417.543 709.106 L 434.210 709.106 L 435.357 709.041 L 436.488 708.844 L 437.590 708.518 L 438.646 708.069 L 439.645 707.501 L 440.571 706.823 L 441.414 706.043 L 442.162 705.171 L 442.804 704.219 L 443.334 703.200 L 443.743 702.127 L 444.027 701.015 L 474.024 546.690 L 474.591 544.465 L 475.410 542.319 L 476.469 540.281 L 477.754 538.377 L 479.250 536.634 L 480.935 535.074 L 482.788 533.717 L 484.785 532.582 L 486.898 531.683 L 489.101 531.032 L 491.364 530.638 L 493.657 530.506 L 622.975 530.506 L 623.091 530.503 L 623.208 530.493 L 623.323 530.476 L 623.438 530.452 L 623.551 530.422 L 623.662 530.385 L 623.770 530.341 L 623.876 530.292 L 623.979 530.236 L 624.078 530.174 L 624.174 530.107 L 624.265 530.034 L 632.505 523.370 L 641.022 517.065 L 649.800 511.128 L 658.824 505.572 L 668.078 500.407 L 677.543 495.642 L 687.203 491.286 L 697.041 487.346 L 707.038 483.830 L 717.176 480.744 L 727.437 478.095 L 737.801 475.886 L 737.801 470.506 L 404.401 470.506 L 404.401 491.506 L 397.401 491.506 L 397.401 470.506 L 240.401 470.506 L 240.401 491.506 L 233.401 491.506 L 233.401 470.506 L 5.001 470.506 L 5.001 475.886 L 15.372 478.092 L 25.640 480.739 L 35.785 483.823 L 45.789 487.338 L 55.633 491.277 L 65.300 495.633 L 74.772 500.398 L 84.032 505.565 L 93.062 511.122 L 101.847 517.060 L 110.369 523.368 L 118.615 530.034 L 118.706 530.107 L 118.802 530.175 L 118.901 530.236 L 119.004 530.292 L 119.110 530.341 L 119.218 530.385 L 119.329 530.422 L 119.442 530.452 L 119.556 530.476 L 119.672 530.493 L 119.788 530.503 L 119.905 530.506 L 208.401 530.506 L 211.012 530.678 L 213.578 531.188 L 216.055 532.029 L 218.401 533.186 L 220.576 534.639 L 222.543 536.364 L 224.268 538.331 L 225.722 540.506 L 226.879 542.853 L 227.720 545.330 L 228.230 547.896 L 228.401 550.506 L 228.401 566.006 L 258.401 566.006 L 259.706 566.092 L 260.989 566.347 L 262.228 566.768 L 263.401 567.346 L 264.489 568.073 L 265.472 568.935 L 266.335 569.919 L 267.061 571.006 L 267.640 572.180 L 268.060 573.418 L 268.316 574.701 L 268.401 576.006 L 268.401 636.006 L 268.316 637.312 L 268.060 638.595 L 267.640 639.833 L 267.061 641.006 L 266.335 642.094 L 265.472 643.078 L 264.489 643.940 L 263.401 644.667 L 262.228 645.245 L 260.989 645.666 L 259.706 645.921 L 258.401 646.006 L 228.401 646.006 L 228.401 1330.805 L 228.386 1332.041 L 228.340 1333.276 L 228.264 1334.510 L 228.157 1335.742 L 228.020 1336.970 L 227.852 1338.195 L 227.654 1339.416 L 227.426 1340.631 L 227.168 1341.840 L 226.881 1343.042 L 226.563 1344.237 L 226.216 1345.423 L 105.586 1739.988 L 105.239 1741.174 L 104.922 1742.369 L 104.634 1743.572 L 104.376 1744.781 L 104.148 1745.996 L 103.950 1747.216 L 103.783 1748.441 L 103.645 1749.669 L 103.539 1750.901 L 103.462 1752.135 L 103.416 1753.370 L 103.401 1754.606 L 103.401 1888.810 L 104.377 1888.954 L 105.220 1889.464 L 105.801 1890.261 L 106.029 1891.220 L 105.868 1892.193 L 105.343 1893.028 L 104.536 1893.595 L 103.573 1893.806 L 102.603 1893.628 L 101.778 1893.089 L 101.225 1892.273 L 101.030 1891.306 L 47.030 1891.306 L 47.030 1894.706 L 47.043 1894.931 L 47.081 1895.153 L 47.143 1895.370 L 47.230 1895.578 L 47.339 1895.774 L 47.470 1895.958 L 47.620 1896.125 L 47.789 1896.275 L 47.973 1896.404 L 48.171 1896.512 L 48.379 1896.598 L 48.596 1896.659 L 56.182 1898.800 L 63.479 1901.781 L 70.395 1905.563 L 76.841 1910.099 L 82.737 1915.331 L 88.007 1921.193 L 92.585 1927.610 L 96.412 1934.500 L 99.441 1941.778 L 101.632 1949.350 L 102.957 1957.120 L 103.401 1964.990 L 103.401 2632.998 L 224.780 2961.225 L 224.879 2961.503 L 224.969 2961.784 L 225.050 2962.068 L 225.124 2962.354 L 225.188 2962.642 L 225.245 2962.932 L 225.292 2963.223 L 225.332 2963.516 L 225.362 2963.809 L 225.384 2964.104 L 225.397 2964.398 L 225.401 2964.694 L 225.401 2992.500 L 234.401 2992.500 L 234.401 2974.599 L 234.422 2973.955 L 234.484 2973.313 L 234.588 2972.676 L 234.732 2972.047 L 234.917 2971.429 L 235.141 2970.825 L 235.404 2970.235 L 235.704 2969.664 L 236.040 2969.114 L 236.411 2968.586 L 236.815 2968.084 L 237.251 2967.608 L 250.020 2955.596 L 263.745 2944.692 L 278.333 2934.969 L 293.680 2926.498 L 309.681 2919.336 L 326.223 2913.533 L 343.191 2909.131 L 360.468 2906.159 L 377.932 2904.638 L 395.462 2904.579 L 412.936 2905.983 L 430.232 2908.839 L 447.230 2913.127 L 463.811 2918.819 L 479.859 2925.873 L 495.263 2934.242 L 509.915 2943.866 L 511.203 2944.741 L 512.535 2945.548 L 513.906 2946.285 L 515.314 2946.950 L 516.755 2947.541 L 518.224 2948.057 L 519.718 2948.495 L 521.233 2948.856 L 522.764 2949.137 L 524.308 2949.339 L 525.861 2949.460 L 527.417 2949.500 L 609.401 2949.500 L 610.706 2949.415 L 611.989 2949.159 L 613.228 2948.739 L 614.401 2948.160 L 615.489 2947.434 L 616.472 2946.571 L 617.335 2945.588 L 618.061 2944.500 L 618.640 2943.327 L 619.060 2942.088 L 619.316 2940.805 L 619.401 2939.500 L 619.401 2921.651 L 619.316 2920.345 L 619.060 2919.062 L 618.640 2917.824 L 618.061 2916.651 L 617.335 2915.563 L 616.472 2914.579 L 615.489 2913.717 L 614.401 2912.990 L 613.228 2912.412 L 611.989 2911.991 L 610.706 2911.736 L 609.401 2911.651 L 604.401 2911.651 L 596.598 2910.882 L 589.094 2908.606 L 582.178 2904.909 L 576.117 2899.935 L 571.142 2893.873 L 567.446 2886.958 L 565.170 2879.454 L 564.401 2871.651 L 565.170 2863.847 L 567.446 2856.343 L 571.142 2849.428 L 576.117 2843.366 L 582.178 2838.392 L 589.094 2834.695 L 596.598 2832.419 L 604.401 2831.651 L 609.401 2831.651 L 610.706 2831.565 L 611.989 2831.310 L 613.228 2830.889 L 614.401 2830.311 L 615.489 2829.584 L 616.472 2828.722 L 617.335 2827.738 L 618.061 2826.651 L 618.640 2825.477 L 619.060 2824.239 L 619.316 2822.956 L 619.401 2821.651 L 619.401 2801.651 L 619.316 2800.345 L 619.060 2799.062 L 618.640 2797.824 L 618.061 2796.651 L 617.335 2795.563 L 616.472 2794.579 L 615.489 2793.717 L 614.401 2792.990 L 613.228 2792.412 L 611.989 2791.991 L 610.706 2791.736 L 609.401 2791.651 L 604.401 2791.651 L 596.598 2790.882 L 589.094 2788.606 L 582.178 2784.909 L 576.117 2779.935 L 571.142 2773.873 L 567.446 2766.958 L 565.170 2759.454 L 564.401 2751.651 L 565.170 2743.847 L 567.446 2736.343 L 571.142 2729.428 L 576.117 2723.366 L 582.178 2718.392 L 589.094 2714.695 L 596.598 2712.419 L 604.401 2711.651 L 609.401 2711.651 L 610.706 2711.565 L 611.989 2711.310 L 613.228 2710.889 L 614.401 2710.311 L 615.489 2709.584 L 616.472 2708.722 L 617.335 2707.738 L 618.061 2706.651 L 618.640 2705.477 L 619.060 2704.239 L 619.316 2702.956 L 619.401 2701.651 L 619.401 2676.506 L 619.316 2675.201 L 619.060 2673.918 L 618.640 2672.680 L 618.061 2671.506 L 617.335 2670.419 L 616.472 2669.435 L 615.489 2668.573 L 614.401 2667.846 L 613.228 2667.268 L 611.989 2666.847 L 610.706 2666.592 L 609.401 2666.506 L 403.401 2666.506 L 389.965 2665.752 L 376.699 2663.498 L 363.768 2659.772 L 351.335 2654.623 L 339.557 2648.113 L 328.582 2640.326 L 318.548 2631.359 L 309.581 2621.325 L 301.794 2610.350 L 295.285 2598.572 L 290.135 2586.140 L 286.410 2573.209 L 284.156 2559.942 L 283.401 2546.506 L 283.401 2189.646 L 277.519 2183.081 L 272.557 2175.794 L 268.605 2167.915 L 265.731 2159.582 L 263.986 2150.941 L 263.401 2142.146 L 263.986 2133.350 L 265.731 2124.710 L 268.605 2116.377 L 272.557 2108.497 L 277.519 2101.211 Z" fill="#f28e2b" fill-opacity="0.68" stroke="#1f2937" stroke-width="0.45" data-part-id="Lv8_11612_6db" data-instance-id="Lv8_11612_6db__0005" data-rotation-deg="270.000000"/>
  <path d="M 787.218 1011.847 L 787.218 1212.286 L 787.216 1212.442 L 787.208 1212.598 L 787.196 1212.754 L 787.179 1212.909 L 787.157 1213.064 L 787.130 1213.218 L 787.099 1213.371 L 787.063 1213.523 L 787.022 1213.674 L 786.976 1213.823 L 786.926 1213.971 L 786.871 1214.117 L 764.882 1269.987 L 767.795 1278.702 L 769.583 1287.716 L 770.216 1296.884 L 769.685 1306.058 L 767.997 1315.091 L 765.180 1323.838 L 761.280 1332.158 L 756.358 1339.919 L 750.494 1346.994 L 743.782 1353.271 L 736.330 1358.648 L 728.258 1363.039 L 695.765 1445.598 L 693.713 1450.136 L 691.219 1454.447 L 688.308 1458.489 L 685.010 1462.221 L 681.357 1465.606 L 677.385 1468.611 L 673.134 1471.207 L 668.646 1473.366 L 663.965 1475.068 L 659.139 1476.296 L 654.214 1477.038 L 649.239 1477.286 L 579.218 1477.286 L 577.913 1477.372 L 576.630 1477.627 L 575.391 1478.047 L 574.218 1478.626 L 573.130 1479.353 L 572.147 1480.215 L 571.284 1481.198 L 570.558 1482.286 L 569.979 1483.459 L 569.559 1484.698 L 569.304 1485.981 L 569.218 1487.286 L 569.218 1802.286 L 569.265 1803.255 L 569.406 1804.215 L 569.639 1805.157 L 569.962 1806.072 L 570.373 1806.951 L 570.866 1807.786 L 571.439 1808.569 L 572.084 1809.294 L 572.797 1809.952 L 573.570 1810.538 L 574.396 1811.047 L 575.268 1811.473 L 631.968 1835.852 L 636.326 1837.982 L 640.458 1840.525 L 644.324 1843.456 L 647.887 1846.747 L 651.115 1850.369 L 653.976 1854.286 L 656.445 1858.462 L 658.497 1862.858 L 660.113 1867.432 L 661.279 1872.141 L 661.983 1876.941 L 662.218 1881.786 L 662.218 2258.244 L 662.239 2258.898 L 662.304 2259.549 L 662.410 2260.195 L 662.559 2260.832 L 662.749 2261.458 L 662.979 2262.071 L 663.249 2262.667 L 663.558 2263.244 L 663.903 2263.800 L 664.284 2264.332 L 664.700 2264.837 L 665.147 2265.315 L 669.289 2269.457 L 669.736 2269.935 L 670.151 2270.441 L 670.533 2270.972 L 670.878 2271.528 L 671.187 2272.105 L 671.457 2272.701 L 671.687 2273.314 L 671.877 2273.940 L 672.026 2274.577 L 672.132 2275.223 L 672.197 2275.874 L 672.218 2276.528 L 672.218 2378.244 L 672.197 2378.898 L 672.132 2379.549 L 672.026 2380.195 L 671.877 2380.832 L 671.687 2381.458 L 671.457 2382.071 L 671.187 2382.667 L 670.878 2383.244 L 670.533 2383.800 L 670.151 2384.332 L 669.736 2384.837 L 669.289 2385.315 L 660.147 2394.457 L 659.669 2394.904 L 659.163 2395.320 L 658.632 2395.701 L 658.076 2396.046 L 657.499 2396.355 L 656.903 2396.625 L 656.290 2396.855 L 655.664 2397.045 L 655.027 2397.194 L 654.381 2397.300 L 653.730 2397.365 L 653.076 2397.386 L 636.409 2397.386 L 635.262 2397.452 L 634.131 2397.649 L 633.030 2397.974 L 631.973 2398.424 L 630.975 2398.991 L 630.048 2399.670 L 629.205 2400.450 L 628.457 2401.322 L 627.815 2402.273 L 627.285 2403.292 L 626.876 2404.365 L 626.592 2405.478 L 596.595 2559.802 L 596.028 2562.028 L 595.209 2564.174 L 594.150 2566.212 L 592.865 2568.115 L 591.369 2569.858 L 589.684 2571.419 L 587.831 2572.775 L 585.834 2573.911 L 583.721 2574.810 L 581.518 2575.460 L 579.255 2575.854 L 576.962 2575.986 L 447.645 2575.986 L 447.528 2575.989 L 447.411 2576.000 L 447.296 2576.017 L 447.181 2576.040 L 447.068 2576.071 L 446.957 2576.108 L 446.849 2576.151 L 446.743 2576.201 L 446.640 2576.256 L 446.541 2576.318 L 446.445 2576.385 L 446.354 2576.458 L 438.114 2583.122 L 429.597 2589.428 L 420.819 2595.364 L 411.795 2600.920 L 402.542 2606.085 L 393.076 2610.850 L 383.416 2615.207 L 373.578 2619.147 L 363.581 2622.663 L 353.443 2625.748 L 343.182 2628.398 L 332.818 2630.607 L 332.818 2635.986 L 666.218 2635.986 L 666.218 2614.986 L 673.218 2614.986 L 673.218 2635.986 L 830.218 2635.986 L 830.218 2614.986 L 837.218 2614.986 L 837.218 2635.986 L 1065.618 2635.986 L 1065.618 2630.607 L 1055.247 2628.401 L 1044.979 2625.753 L 1034.834 2622.670 L 1024.831 2619.155 L 1014.986 2615.216 L 1005.319 2610.860 L 995.847 2606.094 L 986.587 2600.928 L 977.557 2595.371 L 968.772 2589.433 L 960.250 2583.125 L 952.004 2576.458 L 951.913 2576.385 L 951.817 2576.318 L 951.718 2576.256 L 951.615 2576.201 L 951.509 2576.151 L 951.401 2576.108 L 951.290 2576.071 L 951.177 2576.040 L 951.063 2576.017 L 950.947 2576.000 L 950.831 2575.989 L 950.714 2575.986 L 862.218 2575.986 L 859.607 2575.815 L 857.042 2575.305 L 854.564 2574.464 L 852.218 2573.307 L 850.043 2571.853 L 848.076 2570.128 L 846.351 2568.161 L 844.897 2565.986 L 843.740 2563.640 L 842.899 2561.162 L 842.389 2558.597 L 842.218 2555.986 L 842.218 2540.486 L 812.218 2540.486 L 810.913 2540.400 L 809.630 2540.145 L 808.391 2539.725 L 807.218 2539.146 L 806.130 2538.420 L 805.147 2537.557 L 804.284 2536.574 L 803.558 2535.486 L 802.979 2534.313 L 802.559 2533.074 L 802.304 2531.791 L 802.218 2530.486 L 802.218 2470.486 L 802.304 2469.181 L 802.559 2467.898 L 802.979 2466.659 L 803.558 2465.486 L 804.284 2464.398 L 805.147 2463.415 L 806.130 2462.553 L 807.218 2461.826 L 808.391 2461.247 L 809.630 2460.827 L 810.913 2460.572 L 812.218 2460.486 L 842.218 2460.486 L 842.218 1775.688 L 842.233 1774.452 L 842.279 1773.216 L 842.355 1771.982 L 842.462 1770.751 L 842.600 1769.522 L 842.767 1768.297 L 842.965 1767.077 L 843.193 1765.862 L 843.451 1764.653 L 843.739 1763.451 L 844.056 1762.256 L 844.403 1761.069 L 965.033 1366.505 L 965.380 1365.318 L 965.697 1364.123 L 965.985 1362.921 L 966.243 1361.712 L 966.471 1360.497 L 966.669 1359.277 L 966.836 1358.052 L 966.974 1356.823 L 967.080 1355.591 L 967.157 1354.358 L 967.203 1353.122 L 967.218 1351.886 L 967.218 1217.683 L 966.243 1217.538 L 965.399 1217.028 L 964.818 1216.231 L 964.590 1215.272 L 964.752 1214.299 L 965.276 1213.464 L 966.083 1212.897 L 967.046 1212.686 L 968.016 1212.864 L 968.842 1213.403 L 969.395 1214.219 L 969.589 1215.186 L 1023.589 1215.186 L 1023.589 1211.786 L 1023.576 1211.561 L 1023.538 1211.339 L 1023.476 1211.123 L 1023.389 1210.915 L 1023.280 1210.718 L 1023.149 1210.535 L 1022.999 1210.367 L 1022.830 1210.218 L 1022.646 1210.088 L 1022.448 1209.980 L 1022.240 1209.895 L 1022.023 1209.834 L 1014.437 1207.692 L 1007.140 1204.711 L 1000.224 1200.929 L 993.778 1196.393 L 987.882 1191.161 L 982.612 1185.300 L 978.034 1178.883 L 974.207 1171.992 L 971.178 1164.715 L 968.988 1157.143 L 967.662 1149.373 L 967.218 1141.503 L 967.218 473.494 L 845.839 145.267 L 845.740 144.989 L 845.650 144.708 L 845.569 144.424 L 845.495 144.138 L 845.431 143.851 L 845.374 143.561 L 845.327 143.269 L 845.288 142.977 L 845.257 142.683 L 845.235 142.389 L 845.222 142.094 L 845.218 141.799 L 845.218 113.992 L 836.218 113.992 L 836.218 131.893 L 836.197 132.538 L 836.135 133.180 L 836.031 133.816 L 835.887 134.445 L 835.702 135.063 L 835.478 135.668 L 835.215 136.257 L 834.915 136.828 L 834.579 137.379 L 834.208 137.906 L 833.804 138.409 L 833.368 138.884 L 820.600 150.896 L 806.874 161.801 L 792.286 171.523 L 776.939 179.995 L 760.938 187.157 L 744.396 192.959 L 727.428 197.362 L 710.151 200.334 L 692.687 201.855 L 675.157 201.913 L 657.683 200.510 L 640.387 197.654 L 623.389 193.365 L 606.808 187.674 L 590.760 180.619 L 575.356 172.251 L 560.704 162.627 L 559.416 161.752 L 558.084 160.944 L 556.713 160.207 L 555.305 159.542 L 553.864 158.951 L 552.395 158.436 L 550.901 157.997 L 549.386 157.637 L 547.855 157.355 L 546.311 157.154 L 544.758 157.033 L 543.202 156.992 L 461.218 156.992 L 459.913 157.078 L 458.630 157.333 L 457.391 157.754 L 456.218 158.332 L 455.130 159.059 L 454.147 159.921 L 453.284 160.905 L 452.558 161.992 L 451.979 163.166 L 451.559 164.404 L 451.304 165.687 L 451.218 166.992 L 451.218 184.842 L 451.304 186.147 L 451.559 187.430 L 451.979 188.669 L 452.558 189.842 L 453.284 190.930 L 454.147 191.913 L 455.130 192.776 L 456.218 193.502 L 457.391 194.081 L 458.630 194.501 L 459.913 194.756 L 461.218 194.842 L 466.218 194.842 L 474.022 195.611 L 481.525 197.887 L 488.441 201.583 L 494.502 206.558 L 499.477 212.619 L 503.173 219.535 L 505.449 227.038 L 506.218 234.842 L 505.449 242.646 L 503.173 250.149 L 499.477 257.065 L 494.502 263.126 L 488.441 268.101 L 481.525 271.797 L 474.022 274.073 L 466.218 274.842 L 461.218 274.842 L 459.913 274.928 L 458.630 275.183 L 457.391 275.603 L 456.218 276.182 L 455.130 276.908 L 454.147 277.771 L 453.284 278.754 L 452.558 279.842 L 451.979 281.015 L 451.559 282.254 L 451.304 283.537 L 451.218 284.842 L 451.218 304.842 L 451.304 306.147 L 451.559 307.430 L 451.979 308.669 L 452.558 309.842 L 453.284 310.930 L 454.147 311.913 L 455.130 312.776 L 456.218 313.502 L 457.391 314.081 L 458.630 314.501 L 459.913 314.756 L 461.218 314.842 L 466.218 314.842 L 474.022 315.611 L 481.525 317.887 L 488.441 321.583 L 494.502 326.558 L 499.477 332.619 L 503.173 339.535 L 505.449 347.038 L 506.218 354.842 L 505.449 362.646 L 503.173 370.149 L 499.477 377.065 L 494.502 383.126 L 488.441 388.101 L 481.525 391.797 L 474.022 394.073 L 466.218 394.842 L 461.218 394.842 L 459.913 394.928 L 458.630 395.183 L 457.391 395.603 L 456.218 396.182 L 455.130 396.908 L 454.147 397.771 L 453.284 398.754 L 452.558 399.842 L 451.979 401.015 L 451.559 402.254 L 451.304 403.537 L 451.218 404.842 L 451.218 429.986 L 451.304 431.291 L 451.559 432.574 L 451.979 433.813 L 452.558 434.986 L 453.284 436.074 L 454.147 437.057 L 455.130 437.920 L 456.218 438.646 L 457.391 439.225 L 458.630 439.645 L 459.913 439.900 L 461.218 439.986 L 667.218 439.986 L 680.654 440.741 L 693.920 442.995 L 706.851 446.720 L 719.284 451.870 L 731.062 458.379 L 742.037 466.166 L 752.071 475.133 L 761.038 485.167 L 768.825 496.142 L 775.334 507.920 L 780.484 520.353 L 784.209 533.284 L 786.463 546.550 L 787.218 559.986 L 787.218 916.847 L 793.100 923.412 L 798.062 930.698 L 802.014 938.577 L 804.888 946.910 L 806.633 955.551 L 807.218 964.347 L 806.633 973.142 L 804.888 981.783 L 802.014 990.116 L 798.062 997.995 L 793.100 1005.282 Z" fill="#f28e2b" fill-opacity="0.68" stroke="#1f2937" stroke-width="0.45" data-part-id="Lv8_11612_6db" data-instance-id="Lv8_11612_6db__0006" data-rotation-deg="90.000000"/>
  <text x="8" y="28" font-family="Arial, sans-serif" font-size="26" fill="#111827">6big_sp5_bias sheet 2 placed=2</text>
</svg>
