<svg xmlns="http://www.w3.org/2000/svg" width="1500.00mm" height="3000.00mm" viewBox="0 0 1500.0000 3000.0000">
  <!-- 6big_sp8_builderonly sheet 0 rendered from solver output placements and input outer_points -->
  <rect width="1500.0000" height="3000.0000" fill="#ffffff" stroke="#111827" stroke-width="2"/>
  <rect x="5.0000" y="5.0000" width="1490.0000" height="2990.0000" fill="none" stroke="#dc2626" stroke-width="1.5" stroke-dasharray="8,6"/>
  <path d="M 285.914 2089.840 L 287.357 1889.406 L 287.361 1889.250 L 287.370 1889.094 L 287.383 1888.938 L 287.401 1888.783 L 287.424 1888.629 L 287.452 1888.475 L 287.484 1888.322 L 287.522 1888.170 L 287.564 1888.020 L 287.611 1887.871 L 287.662 1887.723 L 287.718 1887.577 L 310.109 1831.867 L 307.258 1823.131 L 305.535 1814.105 L 304.968 1804.933 L 305.565 1795.763 L 307.318 1786.742 L 310.198 1778.016 L 314.158 1769.724 L 319.136 1761.999 L 325.050 1754.966 L 331.807 1748.738 L 339.297 1743.414 L 347.401 1739.081 L 380.487 1656.759 L 382.573 1652.236 L 385.098 1647.943 L 388.037 1643.922 L 391.362 1640.214 L 395.039 1636.855 L 399.033 1633.878 L 403.302 1631.314 L 407.806 1629.186 L 412.499 1627.518 L 417.334 1626.325 L 422.264 1625.619 L 427.241 1625.406 L 497.260 1625.910 L 498.566 1625.834 L 499.851 1625.588 L 501.092 1625.177 L 502.269 1624.607 L 503.362 1623.888 L 504.352 1623.032 L 505.221 1622.055 L 505.956 1620.973 L 506.543 1619.804 L 506.972 1618.568 L 507.237 1617.287 L 507.332 1615.983 L 509.599 1300.991 L 509.559 1300.021 L 509.426 1299.061 L 509.199 1298.117 L 508.883 1297.200 L 508.478 1296.318 L 507.991 1295.479 L 507.424 1294.692 L 506.784 1293.963 L 506.076 1293.299 L 505.307 1292.707 L 504.484 1292.193 L 503.616 1291.761 L 447.093 1266.974 L 442.750 1264.813 L 438.637 1262.240 L 434.792 1259.282 L 431.253 1255.964 L 428.051 1252.320 L 425.218 1248.382 L 422.779 1244.188 L 420.759 1239.778 L 419.176 1235.192 L 418.044 1230.475 L 417.375 1225.670 L 417.174 1220.823 L 419.885 844.375 L 419.868 843.721 L 419.808 843.069 L 419.706 842.423 L 419.562 841.785 L 419.377 841.157 L 419.151 840.543 L 418.885 839.945 L 418.581 839.366 L 418.239 838.808 L 417.862 838.273 L 417.450 837.764 L 417.007 837.283 L 412.894 833.111 L 412.450 832.631 L 412.039 832.122 L 411.662 831.587 L 411.320 831.029 L 411.016 830.450 L 410.750 829.852 L 410.524 829.238 L 410.338 828.610 L 410.194 827.972 L 410.093 827.325 L 410.033 826.674 L 410.016 826.019 L 410.749 724.306 L 410.775 723.652 L 410.844 723.002 L 410.955 722.357 L 411.108 721.721 L 411.303 721.096 L 411.537 720.485 L 411.812 719.891 L 412.124 719.316 L 412.474 718.763 L 412.859 718.234 L 413.278 717.731 L 413.728 717.257 L 422.936 708.180 L 423.417 707.737 L 423.926 707.325 L 424.460 706.948 L 425.019 706.606 L 425.598 706.302 L 426.196 706.036 L 426.810 705.810 L 427.438 705.625 L 428.076 705.481 L 428.722 705.379 L 429.374 705.319 L 430.028 705.303 L 446.695 705.423 L 447.842 705.365 L 448.975 705.176 L 450.078 704.859 L 451.138 704.417 L 452.140 703.856 L 453.072 703.185 L 453.920 702.411 L 454.674 701.544 L 455.324 700.597 L 455.861 699.582 L 456.278 698.512 L 456.569 697.401 L 487.677 543.297 L 488.260 541.076 L 489.094 538.936 L 490.167 536.905 L 491.467 535.011 L 492.975 533.279 L 494.671 531.731 L 496.534 530.388 L 498.539 529.267 L 500.659 528.383 L 502.866 527.748 L 505.132 527.371 L 507.426 527.255 L 636.740 528.186 L 636.857 528.184 L 636.973 528.174 L 637.089 528.158 L 637.204 528.135 L 637.317 528.105 L 637.428 528.069 L 637.537 528.027 L 637.643 527.978 L 637.746 527.923 L 637.846 527.862 L 637.942 527.795 L 638.034 527.723 L 646.321 521.119 L 654.883 514.875 L 663.704 509.002 L 672.768 503.511 L 682.058 498.412 L 691.558 493.716 L 701.249 489.429 L 711.115 485.560 L 721.137 482.116 L 731.297 479.104 L 741.577 476.528 L 751.957 474.394 L 751.995 469.014 L 418.604 466.614 L 418.453 487.614 L 411.453 487.563 L 411.604 466.564 L 254.608 465.433 L 254.457 486.433 L 247.457 486.382 L 247.609 465.383 L 19.214 463.739 L 19.176 469.118 L 29.531 471.399 L 39.779 474.120 L 49.901 477.276 L 59.880 480.863 L 69.696 484.873 L 79.331 489.299 L 88.768 494.132 L 97.991 499.365 L 106.981 504.987 L 115.722 510.988 L 124.199 517.357 L 132.397 524.083 L 132.488 524.157 L 132.583 524.224 L 132.681 524.287 L 132.784 524.343 L 132.889 524.394 L 132.997 524.438 L 133.108 524.475 L 133.221 524.507 L 133.335 524.531 L 133.450 524.549 L 133.567 524.560 L 133.684 524.564 L 222.177 525.201 L 224.786 525.391 L 227.349 525.920 L 229.820 526.779 L 232.158 527.953 L 234.322 529.422 L 236.277 531.161 L 237.988 533.140 L 239.425 535.326 L 240.565 537.680 L 241.389 540.164 L 241.880 542.733 L 242.033 545.345 L 241.921 560.845 L 271.920 561.060 L 273.225 561.155 L 274.506 561.420 L 275.742 561.849 L 276.911 562.436 L 277.993 563.171 L 278.970 564.040 L 279.826 565.030 L 280.544 566.123 L 281.114 567.300 L 281.526 568.542 L 281.772 569.826 L 281.848 571.132 L 281.416 631.131 L 281.321 632.435 L 281.057 633.716 L 280.627 634.952 L 280.040 636.121 L 279.306 637.203 L 278.436 638.181 L 277.447 639.036 L 276.354 639.755 L 275.177 640.325 L 273.935 640.736 L 272.650 640.982 L 271.344 641.058 L 241.345 640.842 L 236.415 1325.623 L 236.391 1326.859 L 236.336 1328.094 L 236.251 1329.327 L 236.135 1330.558 L 235.989 1331.786 L 235.813 1333.009 L 235.606 1334.228 L 235.369 1335.442 L 235.103 1336.649 L 234.806 1337.849 L 234.480 1339.041 L 234.125 1340.225 L 110.657 1733.911 L 110.302 1735.095 L 109.976 1736.288 L 109.679 1737.488 L 109.413 1738.695 L 109.176 1739.909 L 108.970 1741.127 L 108.793 1742.351 L 108.647 1743.579 L 108.531 1744.809 L 108.446 1746.043 L 108.391 1747.278 L 108.367 1748.514 L 107.401 1882.714 L 108.375 1882.865 L 109.215 1883.381 L 109.790 1884.182 L 110.011 1885.143 L 109.843 1886.115 L 109.312 1886.946 L 108.502 1887.507 L 107.537 1887.711 L 106.568 1887.526 L 105.747 1886.981 L 105.199 1886.161 L 105.012 1885.193 L 51.013 1884.804 L 50.989 1888.204 L 51.000 1888.429 L 51.036 1888.652 L 51.097 1888.868 L 51.182 1889.077 L 51.290 1889.275 L 51.420 1889.459 L 51.569 1889.627 L 51.736 1889.778 L 51.920 1889.909 L 52.117 1890.018 L 52.324 1890.105 L 52.541 1890.168 L 60.111 1892.364 L 67.386 1895.397 L 74.275 1899.229 L 80.688 1903.811 L 86.546 1909.086 L 91.774 1914.985 L 96.306 1921.435 L 100.083 1928.353 L 103.059 1935.652 L 105.196 1943.239 L 106.465 1951.019 L 106.853 1958.892 L 102.043 2626.883 L 221.056 2955.975 L 221.153 2956.254 L 221.241 2956.536 L 221.320 2956.820 L 221.391 2957.106 L 221.454 2957.395 L 221.508 2957.685 L 221.554 2957.977 L 221.591 2958.269 L 221.619 2958.563 L 221.639 2958.858 L 221.650 2959.153 L 221.652 2959.448 L 221.452 2987.254 L 230.452 2987.318 L 230.581 2969.418 L 230.606 2968.774 L 230.673 2968.132 L 230.781 2967.496 L 230.930 2966.869 L 231.119 2966.252 L 231.348 2965.649 L 231.614 2965.062 L 231.919 2964.493 L 232.259 2963.945 L 232.634 2963.420 L 233.042 2962.920 L 233.481 2962.448 L 246.335 2950.528 L 260.139 2939.722 L 274.796 2930.106 L 290.204 2921.745 L 306.256 2914.698 L 322.839 2909.015 L 339.839 2904.734 L 357.137 2901.887 L 374.611 2900.492 L 392.142 2900.559 L 409.605 2902.089 L 426.880 2905.069 L 443.847 2909.480 L 460.386 2915.291 L 476.383 2922.460 L 491.726 2930.939 L 506.309 2940.669 L 507.590 2941.553 L 508.916 2942.370 L 510.282 2943.117 L 511.685 2943.792 L 513.122 2944.394 L 514.587 2944.920 L 516.078 2945.369 L 517.590 2945.740 L 519.120 2946.033 L 520.662 2946.245 L 522.214 2946.377 L 523.770 2946.429 L 605.752 2947.019 L 607.057 2946.943 L 608.342 2946.697 L 609.584 2946.286 L 610.761 2945.716 L 611.854 2944.997 L 612.844 2944.141 L 613.713 2943.164 L 614.448 2942.082 L 615.035 2940.913 L 615.464 2939.677 L 615.728 2938.396 L 615.823 2937.092 L 615.952 2919.243 L 615.876 2917.937 L 615.630 2916.652 L 615.218 2915.410 L 614.648 2914.233 L 613.929 2913.140 L 613.074 2912.151 L 612.097 2911.281 L 611.014 2910.546 L 609.845 2909.960 L 608.610 2909.530 L 607.329 2909.266 L 606.024 2909.171 L 601.024 2909.135 L 593.226 2908.310 L 585.739 2905.980 L 578.850 2902.234 L 572.825 2897.216 L 567.894 2891.119 L 564.248 2884.177 L 562.026 2876.657 L 561.313 2868.848 L 562.138 2861.050 L 564.468 2853.563 L 568.214 2846.674 L 573.232 2840.649 L 579.329 2835.718 L 586.271 2832.071 L 593.791 2829.849 L 601.600 2829.137 L 606.600 2829.173 L 607.906 2829.097 L 609.191 2828.851 L 610.432 2828.439 L 611.609 2827.869 L 612.702 2827.150 L 613.692 2826.295 L 614.561 2825.318 L 615.296 2824.235 L 615.883 2823.066 L 616.312 2821.831 L 616.577 2820.550 L 616.672 2819.245 L 616.816 2799.246 L 616.739 2797.940 L 616.494 2796.655 L 616.082 2795.413 L 615.512 2794.236 L 614.793 2793.143 L 613.938 2792.154 L 612.960 2791.284 L 611.878 2790.550 L 610.709 2789.963 L 609.474 2789.533 L 608.193 2789.269 L 606.888 2789.174 L 601.888 2789.138 L 594.090 2788.313 L 586.603 2785.983 L 579.714 2782.237 L 573.689 2777.219 L 568.758 2771.122 L 565.112 2764.180 L 562.889 2756.660 L 562.177 2748.851 L 563.002 2741.053 L 565.332 2733.566 L 569.078 2726.677 L 574.096 2720.652 L 580.193 2715.721 L 587.135 2712.075 L 594.655 2709.852 L 602.464 2709.140 L 607.464 2709.176 L 608.770 2709.100 L 610.054 2708.854 L 611.296 2708.442 L 612.473 2707.872 L 613.566 2707.153 L 614.556 2706.298 L 615.425 2705.321 L 616.160 2704.238 L 616.747 2703.069 L 617.176 2701.834 L 617.441 2700.553 L 617.536 2699.248 L 617.717 2674.105 L 617.640 2672.799 L 617.395 2671.514 L 616.983 2670.273 L 616.413 2669.095 L 615.694 2668.002 L 614.839 2667.013 L 613.861 2666.143 L 612.779 2665.409 L 611.610 2664.822 L 610.375 2664.392 L 609.094 2664.128 L 607.789 2664.033 L 401.794 2662.550 L 388.364 2661.699 L 375.114 2659.349 L 362.210 2655.531 L 349.815 2650.292 L 338.085 2643.698 L 327.166 2635.832 L 317.197 2626.793 L 308.302 2616.694 L 300.594 2605.664 L 294.170 2593.839 L 289.110 2581.370 L 285.478 2568.413 L 283.319 2555.130 L 282.661 2541.689 L 285.230 2184.838 L 279.395 2178.231 L 274.487 2170.909 L 270.591 2163.001 L 267.777 2154.648 L 266.095 2145.995 L 265.573 2137.195 L 266.221 2128.404 L 268.028 2119.776 L 270.962 2111.464 L 274.971 2103.613 L 279.985 2096.363 Z" fill="#f28e2b" fill-opacity="0.68" stroke="#1f2937" stroke-width="0.45" data-part-id="Lv8_11612_6db" data-instance-id="Lv8_11612_6db__0003" data-rotation-deg="269.587500"/>
  <path d="M 807.292 957.452 L 823.002 1157.275 L 823.012 1157.431 L 823.017 1157.587 L 823.017 1157.743 L 823.012 1157.899 L 823.002 1158.055 L 822.988 1158.211 L 822.968 1158.366 L 822.944 1158.520 L 822.915 1158.673 L 822.881 1158.826 L 822.843 1158.977 L 822.799 1159.127 L 805.257 1216.549 L 808.845 1225.009 L 811.333 1233.855 L 812.683 1242.945 L 812.873 1252.132 L 811.898 1261.270 L 809.775 1270.211 L 806.539 1278.811 L 802.241 1286.933 L 796.949 1294.446 L 790.750 1301.230 L 783.743 1307.175 L 776.040 1312.185 L 750.117 1397.036 L 748.427 1401.721 L 746.278 1406.215 L 743.694 1410.472 L 740.698 1414.451 L 737.322 1418.113 L 733.598 1421.420 L 729.563 1424.340 L 725.258 1426.845 L 720.725 1428.909 L 716.009 1430.511 L 711.157 1431.637 L 706.218 1432.274 L 636.412 1437.762 L 635.117 1437.950 L 633.858 1438.304 L 632.657 1438.821 L 631.532 1439.489 L 630.505 1440.299 L 629.592 1441.236 L 628.810 1442.284 L 628.170 1443.425 L 627.685 1444.640 L 627.363 1445.908 L 627.210 1447.207 L 627.227 1448.515 L 651.915 1762.546 L 652.038 1763.508 L 652.254 1764.454 L 652.560 1765.375 L 652.954 1766.262 L 653.432 1767.106 L 653.990 1767.900 L 654.622 1768.636 L 655.322 1769.308 L 656.084 1769.908 L 656.901 1770.432 L 657.764 1770.874 L 658.667 1771.230 L 717.103 1791.090 L 721.615 1792.872 L 725.933 1795.083 L 730.017 1797.702 L 733.827 1800.704 L 737.329 1804.062 L 740.489 1807.743 L 743.277 1811.713 L 745.667 1815.934 L 747.637 1820.367 L 749.168 1824.970 L 750.246 1829.700 L 750.860 1834.512 L 780.366 2209.812 L 780.439 2210.462 L 780.554 2211.107 L 780.711 2211.742 L 780.909 2212.366 L 781.147 2212.975 L 781.425 2213.567 L 781.741 2214.141 L 782.094 2214.692 L 782.482 2215.219 L 782.903 2215.719 L 783.357 2216.191 L 783.840 2216.632 L 788.294 2220.437 L 788.778 2220.878 L 789.231 2221.349 L 789.653 2221.850 L 790.041 2222.377 L 790.394 2222.928 L 790.710 2223.501 L 790.988 2224.093 L 791.226 2224.703 L 791.424 2225.326 L 791.581 2225.962 L 791.696 2226.606 L 791.769 2227.256 L 799.741 2328.659 L 799.771 2329.313 L 799.758 2329.967 L 799.702 2330.619 L 799.604 2331.266 L 799.464 2331.905 L 799.282 2332.534 L 799.059 2333.149 L 798.797 2333.749 L 798.496 2334.330 L 798.158 2334.890 L 797.784 2335.427 L 797.375 2335.938 L 788.978 2345.769 L 788.536 2346.252 L 788.065 2346.705 L 787.564 2347.127 L 787.037 2347.515 L 786.486 2347.868 L 785.913 2348.184 L 785.321 2348.462 L 784.711 2348.700 L 784.088 2348.898 L 783.452 2349.055 L 782.808 2349.170 L 782.158 2349.243 L 765.542 2350.549 L 764.404 2350.705 L 763.292 2350.990 L 762.219 2351.400 L 761.201 2351.931 L 760.250 2352.575 L 759.380 2353.324 L 758.601 2354.168 L 757.924 2355.096 L 757.357 2356.095 L 756.909 2357.152 L 756.586 2358.254 L 756.390 2359.385 L 738.580 2515.586 L 738.190 2517.849 L 737.542 2520.053 L 736.646 2522.168 L 735.513 2524.166 L 734.159 2526.021 L 732.601 2527.708 L 730.860 2529.206 L 728.959 2530.494 L 726.922 2531.556 L 724.777 2532.378 L 722.552 2532.948 L 720.277 2533.259 L 591.357 2543.394 L 591.241 2543.407 L 591.125 2543.426 L 591.011 2543.452 L 590.899 2543.485 L 590.789 2543.524 L 590.681 2543.570 L 590.577 2543.621 L 590.475 2543.679 L 590.377 2543.743 L 590.283 2543.812 L 590.193 2543.887 L 590.107 2543.966 L 582.415 2551.256 L 574.419 2558.210 L 566.132 2564.816 L 557.571 2571.062 L 548.752 2576.936 L 539.689 2582.428 L 530.400 2587.529 L 520.901 2592.227 L 511.210 2596.516 L 501.345 2600.387 L 491.324 2603.833 L 481.164 2606.847 L 481.586 2612.210 L 813.960 2586.079 L 812.314 2565.143 L 819.293 2564.595 L 820.939 2585.530 L 977.456 2573.225 L 975.810 2552.289 L 982.788 2551.741 L 984.434 2572.676 L 1212.132 2554.775 L 1211.710 2549.412 L 1201.198 2548.025 L 1190.755 2546.191 L 1180.399 2543.912 L 1170.151 2541.192 L 1160.028 2538.037 L 1150.049 2534.452 L 1140.233 2530.443 L 1130.597 2526.019 L 1121.158 2521.186 L 1111.935 2515.955 L 1102.944 2510.334 L 1094.202 2504.335 L 1094.105 2504.269 L 1094.005 2504.210 L 1093.901 2504.156 L 1093.794 2504.108 L 1093.685 2504.067 L 1093.573 2504.033 L 1093.460 2504.005 L 1093.345 2503.983 L 1093.229 2503.968 L 1093.112 2503.960 L 1092.995 2503.959 L 1092.878 2503.965 L 1004.655 2510.901 L 1002.039 2510.935 L 999.441 2510.628 L 996.905 2509.983 L 994.476 2509.014 L 992.193 2507.735 L 990.097 2506.170 L 988.223 2504.344 L 986.604 2502.290 L 985.266 2500.041 L 984.234 2497.637 L 983.524 2495.119 L 983.149 2492.530 L 981.934 2477.078 L 952.026 2479.429 L 950.718 2479.446 L 949.419 2479.293 L 948.152 2478.970 L 946.937 2478.486 L 945.795 2477.846 L 944.747 2477.064 L 943.810 2476.151 L 943.001 2475.123 L 942.332 2473.999 L 941.816 2472.797 L 941.461 2471.538 L 941.273 2470.244 L 936.571 2410.428 L 936.554 2409.120 L 936.707 2407.821 L 937.029 2406.554 L 937.514 2405.339 L 938.154 2404.198 L 938.936 2403.150 L 939.849 2402.213 L 940.876 2401.403 L 942.001 2400.734 L 943.202 2400.218 L 944.461 2399.863 L 945.756 2399.675 L 975.664 2397.324 L 921.991 1714.632 L 921.909 1713.399 L 921.858 1712.164 L 921.838 1710.928 L 921.848 1709.691 L 921.888 1708.456 L 921.959 1707.222 L 922.061 1705.990 L 922.193 1704.760 L 922.355 1703.535 L 922.548 1702.314 L 922.771 1701.098 L 923.023 1699.888 L 1012.358 1297.082 L 1012.610 1295.872 L 1012.833 1294.656 L 1013.026 1293.435 L 1013.188 1292.209 L 1013.320 1290.980 L 1013.422 1289.748 L 1013.493 1288.514 L 1013.533 1287.278 L 1013.543 1286.042 L 1013.523 1284.806 L 1013.471 1283.571 L 1013.390 1282.337 L 1002.871 1148.547 L 1001.888 1148.479 L 1001.007 1148.037 L 1000.365 1147.288 L 1000.063 1146.349 L 1000.147 1145.367 L 1000.605 1144.494 L 1001.365 1143.865 L 1002.308 1143.579 L 1003.289 1143.681 L 1004.155 1144.153 L 1004.770 1144.924 L 1005.039 1145.872 L 1058.873 1141.640 L 1058.607 1138.250 L 1058.577 1138.027 L 1058.521 1137.808 L 1058.442 1137.598 L 1058.339 1137.397 L 1058.215 1137.209 L 1058.070 1137.037 L 1057.907 1136.882 L 1057.727 1136.746 L 1057.534 1136.631 L 1057.328 1136.539 L 1057.114 1136.470 L 1056.893 1136.426 L 1049.162 1134.886 L 1041.654 1132.486 L 1034.463 1129.258 L 1027.681 1125.241 L 1021.393 1120.487 L 1015.680 1115.057 L 1010.613 1109.019 L 1006.258 1102.449 L 1002.668 1095.431 L 999.891 1088.054 L 997.960 1080.412 L 996.901 1072.601 L 944.544 406.647 L 797.812 88.944 L 797.692 88.674 L 797.581 88.401 L 797.477 88.125 L 797.382 87.845 L 797.294 87.563 L 797.216 87.279 L 797.145 86.992 L 797.083 86.704 L 797.030 86.413 L 796.985 86.122 L 796.949 85.829 L 796.922 85.535 L 794.742 57.814 L 785.770 58.519 L 787.173 76.365 L 787.203 77.009 L 787.191 77.654 L 787.137 78.297 L 787.043 78.935 L 786.907 79.565 L 786.731 80.186 L 786.515 80.794 L 786.261 81.387 L 785.969 81.962 L 785.640 82.517 L 785.277 83.050 L 784.880 83.558 L 773.092 96.533 L 760.263 108.480 L 746.483 119.316 L 731.846 128.964 L 716.456 137.358 L 700.420 144.440 L 683.849 150.159 L 666.858 154.476 L 649.567 157.361 L 632.095 158.793 L 614.565 158.764 L 597.098 157.272 L 579.817 154.329 L 562.841 149.954 L 546.289 144.179 L 530.277 137.044 L 514.915 128.598 L 513.563 127.826 L 512.172 127.126 L 510.747 126.499 L 509.291 125.946 L 507.809 125.470 L 506.303 125.071 L 504.779 124.751 L 503.241 124.510 L 501.692 124.350 L 500.137 124.270 L 498.580 124.271 L 497.025 124.353 L 415.294 130.778 L 413.999 130.966 L 412.740 131.321 L 411.538 131.837 L 410.414 132.506 L 409.387 133.316 L 408.474 134.253 L 407.691 135.301 L 407.052 136.442 L 406.567 137.657 L 406.245 138.925 L 406.091 140.223 L 406.108 141.531 L 407.507 159.326 L 407.695 160.621 L 408.050 161.880 L 408.566 163.082 L 409.235 164.206 L 410.044 165.233 L 410.981 166.146 L 412.029 166.929 L 413.171 167.568 L 414.385 168.053 L 415.653 168.375 L 416.952 168.529 L 418.260 168.512 L 423.245 168.120 L 431.085 168.274 L 438.744 169.955 L 445.928 173.098 L 452.360 177.583 L 457.795 183.235 L 462.022 189.840 L 464.879 197.142 L 466.257 204.861 L 466.102 212.701 L 464.421 220.360 L 461.278 227.544 L 456.794 233.977 L 451.141 239.411 L 444.537 243.638 L 437.234 246.496 L 429.515 247.874 L 424.530 248.265 L 423.236 248.453 L 421.977 248.808 L 420.775 249.324 L 419.651 249.993 L 418.623 250.803 L 417.711 251.740 L 416.928 252.788 L 416.289 253.929 L 415.804 255.144 L 415.482 256.411 L 415.328 257.711 L 415.345 259.018 L 416.912 278.957 L 417.100 280.251 L 417.455 281.510 L 417.971 282.712 L 418.640 283.837 L 419.450 284.864 L 420.387 285.777 L 421.435 286.559 L 422.576 287.199 L 423.791 287.683 L 425.059 288.006 L 426.357 288.159 L 427.665 288.142 L 432.650 287.750 L 440.490 287.905 L 448.149 289.586 L 455.333 292.729 L 461.766 297.213 L 467.200 302.866 L 471.427 309.471 L 474.284 316.773 L 475.662 324.492 L 475.508 332.332 L 473.826 339.991 L 470.683 347.175 L 466.199 353.608 L 460.546 359.042 L 453.942 363.269 L 446.640 366.127 L 438.920 367.504 L 433.936 367.896 L 432.641 368.084 L 431.382 368.439 L 430.180 368.955 L 429.056 369.624 L 428.029 370.434 L 427.116 371.370 L 426.333 372.418 L 425.694 373.560 L 425.209 374.775 L 424.887 376.042 L 424.733 377.341 L 424.750 378.649 L 426.721 403.716 L 426.909 405.011 L 427.263 406.270 L 427.780 407.471 L 428.448 408.596 L 429.258 409.623 L 430.195 410.536 L 431.243 411.318 L 432.384 411.958 L 433.599 412.443 L 434.867 412.765 L 436.166 412.918 L 437.474 412.901 L 642.840 396.756 L 656.294 396.455 L 669.696 397.662 L 682.880 400.363 L 695.678 404.522 L 707.929 410.088 L 719.481 416.991 L 730.187 425.144 L 739.913 434.445 L 748.536 444.775 L 755.948 456.007 L 762.057 467.997 L 766.784 480.597 L 770.071 493.646 L 771.876 506.981 L 799.846 862.744 L 806.225 868.828 L 811.742 875.703 L 816.300 883.248 L 819.818 891.330 L 822.235 899.808 L 823.508 908.530 L 823.614 917.345 L 822.552 926.095 L 820.340 934.628 L 817.017 942.793 L 812.642 950.446 Z" fill="#f28e2b" fill-opacity="0.68" stroke="#1f2937" stroke-width="0.45" data-part-id="Lv8_11612_6db" data-instance-id="Lv8_11612_6db__0005" data-rotation-deg="94.495313"/>
  <text x="8" y="28" font-family="Arial, sans-serif" font-size="26" fill="#111827">6big_sp8_builderonly sheet 0 placed=2</text>
</svg>
