<svg xmlns="http://www.w3.org/2000/svg" width="1500.00mm" height="3000.00mm" viewBox="0 0 1500.0000 3000.0000">
  <!-- 6big_sp8_builderonly sheet 1 rendered from solver output placements and input outer_points -->
  <rect width="1500.0000" height="3000.0000" fill="#ffffff" stroke="#111827" stroke-width="2"/>
  <rect x="5.0000" y="5.0000" width="1490.0000" height="2990.0000" fill="none" stroke="#dc2626" stroke-width="1.5" stroke-dasharray="8,6"/>
  <path d="M 283.402 2093.146 L 283.402 1892.706 L 283.405 1892.550 L 283.412 1892.394 L 283.424 1892.238 L 283.441 1892.083 L 283.463 1891.928 L 283.490 1891.775 L 283.521 1891.622 L 283.558 1891.470 L 283.599 1891.319 L 283.644 1891.169 L 283.695 1891.022 L 283.750 1890.875 L 305.739 1835.005 L 302.825 1826.290 L 301.037 1817.276 L 300.404 1808.109 L 300.935 1798.935 L 302.623 1789.902 L 305.440 1781.155 L 309.340 1772.834 L 314.262 1765.074 L 320.126 1757.999 L 326.838 1751.722 L 334.290 1746.345 L 342.362 1741.953 L 374.855 1659.395 L 376.907 1654.857 L 379.401 1650.546 L 382.312 1646.504 L 385.610 1642.772 L 389.263 1639.386 L 393.235 1636.381 L 397.486 1633.786 L 401.974 1631.626 L 406.655 1629.924 L 411.482 1628.696 L 416.407 1627.955 L 421.381 1627.706 L 491.402 1627.706 L 492.708 1627.621 L 493.990 1627.366 L 495.229 1626.945 L 496.402 1626.367 L 497.490 1625.640 L 498.473 1624.778 L 499.336 1623.794 L 500.063 1622.706 L 500.641 1621.533 L 501.062 1620.295 L 501.317 1619.012 L 501.402 1617.706 L 501.402 1302.706 L 501.355 1301.737 L 501.214 1300.777 L 500.981 1299.836 L 500.658 1298.921 L 500.248 1298.042 L 499.754 1297.206 L 499.182 1296.423 L 498.536 1295.699 L 497.823 1295.040 L 497.050 1294.454 L 496.224 1293.946 L 495.352 1293.520 L 438.652 1269.140 L 434.294 1267.010 L 430.162 1264.468 L 426.297 1261.537 L 422.733 1258.245 L 419.505 1254.624 L 416.644 1250.706 L 414.176 1246.530 L 412.123 1242.135 L 410.507 1237.561 L 409.341 1232.852 L 408.638 1228.052 L 408.402 1223.206 L 408.402 846.749 L 408.381 846.095 L 408.317 845.443 L 408.210 844.798 L 408.062 844.160 L 407.872 843.534 L 407.641 842.922 L 407.371 842.326 L 407.063 841.749 L 406.717 841.193 L 406.336 840.661 L 405.921 840.155 L 405.473 839.678 L 401.331 835.535 L 400.884 835.058 L 400.469 834.552 L 400.088 834.020 L 399.742 833.464 L 399.434 832.887 L 399.163 832.291 L 398.933 831.679 L 398.743 831.053 L 398.594 830.415 L 398.488 829.770 L 398.424 829.118 L 398.402 828.464 L 398.402 726.749 L 398.424 726.095 L 398.488 725.443 L 398.594 724.798 L 398.743 724.160 L 398.933 723.534 L 399.163 722.922 L 399.434 722.326 L 399.742 721.749 L 400.088 721.193 L 400.469 720.661 L 400.884 720.155 L 401.331 719.678 L 410.473 710.535 L 410.951 710.088 L 411.457 709.673 L 411.989 709.292 L 412.544 708.946 L 413.121 708.638 L 413.718 708.368 L 414.330 708.137 L 414.956 707.947 L 415.593 707.799 L 416.239 707.692 L 416.890 707.628 L 417.544 707.606 L 434.212 707.606 L 435.358 707.541 L 436.489 707.344 L 437.591 707.018 L 438.647 706.569 L 439.646 706.001 L 440.572 705.323 L 441.415 704.543 L 442.163 703.671 L 442.806 702.719 L 443.335 701.700 L 443.744 700.627 L 444.028 699.515 L 474.025 545.190 L 474.592 542.965 L 475.411 540.819 L 476.470 538.781 L 477.756 536.877 L 479.251 535.134 L 480.936 533.574 L 482.790 532.217 L 484.786 531.082 L 486.900 530.183 L 489.102 529.532 L 491.365 529.138 L 493.658 529.006 L 622.976 529.006 L 623.092 529.003 L 623.209 528.993 L 623.325 528.976 L 623.439 528.952 L 623.552 528.922 L 623.663 528.885 L 623.771 528.841 L 623.877 528.792 L 623.980 528.736 L 624.079 528.674 L 624.175 528.607 L 624.266 528.534 L 632.506 521.870 L 641.023 515.565 L 649.801 509.628 L 658.825 504.072 L 668.079 498.907 L 677.544 494.142 L 687.204 489.786 L 697.042 485.846 L 707.039 482.330 L 717.177 479.244 L 727.438 476.595 L 737.802 474.386 L 737.802 469.006 L 404.402 469.006 L 404.402 490.006 L 397.402 490.006 L 397.402 469.006 L 240.402 469.006 L 240.402 490.006 L 233.402 490.006 L 233.402 469.006 L 5.002 469.006 L 5.002 474.386 L 15.373 476.592 L 25.641 479.239 L 35.786 482.323 L 45.790 485.838 L 55.634 489.777 L 65.301 494.133 L 74.773 498.898 L 84.033 504.065 L 93.063 509.622 L 101.848 515.560 L 110.371 521.868 L 118.616 528.534 L 118.707 528.607 L 118.803 528.675 L 118.902 528.736 L 119.005 528.792 L 119.111 528.841 L 119.219 528.885 L 119.330 528.922 L 119.443 528.952 L 119.557 528.976 L 119.673 528.993 L 119.789 529.003 L 119.906 529.006 L 208.402 529.006 L 211.013 529.178 L 213.579 529.688 L 216.056 530.529 L 218.402 531.686 L 220.577 533.139 L 222.544 534.864 L 224.269 536.831 L 225.723 539.006 L 226.880 541.353 L 227.721 543.830 L 228.231 546.396 L 228.402 549.006 L 228.402 564.506 L 258.402 564.506 L 259.708 564.592 L 260.990 564.847 L 262.229 565.268 L 263.402 565.846 L 264.490 566.573 L 265.473 567.435 L 266.336 568.419 L 267.063 569.506 L 267.641 570.680 L 268.062 571.918 L 268.317 573.201 L 268.402 574.506 L 268.402 634.506 L 268.317 635.812 L 268.062 637.095 L 267.641 638.333 L 267.063 639.506 L 266.336 640.594 L 265.473 641.578 L 264.490 642.440 L 263.402 643.167 L 262.229 643.745 L 260.990 644.166 L 259.708 644.421 L 258.402 644.506 L 228.402 644.506 L 228.402 1329.305 L 228.387 1330.541 L 228.341 1331.776 L 228.265 1333.010 L 228.158 1334.242 L 228.021 1335.470 L 227.853 1336.695 L 227.655 1337.916 L 227.427 1339.131 L 227.169 1340.340 L 226.882 1341.542 L 226.564 1342.737 L 226.217 1343.923 L 105.587 1738.488 L 105.240 1739.674 L 104.923 1740.869 L 104.635 1742.072 L 104.377 1743.281 L 104.149 1744.496 L 103.951 1745.716 L 103.784 1746.941 L 103.647 1748.169 L 103.540 1749.401 L 103.463 1750.635 L 103.418 1751.870 L 103.402 1753.106 L 103.402 1887.310 L 104.378 1887.454 L 105.221 1887.964 L 105.802 1888.761 L 106.030 1889.720 L 105.869 1890.693 L 105.344 1891.528 L 104.537 1892.095 L 103.574 1892.306 L 102.604 1892.128 L 101.779 1891.589 L 101.226 1890.773 L 101.031 1889.806 L 47.031 1889.806 L 47.031 1893.206 L 47.044 1893.431 L 47.082 1893.653 L 47.144 1893.870 L 47.231 1894.078 L 47.340 1894.274 L 47.471 1894.458 L 47.622 1894.625 L 47.790 1894.775 L 47.974 1894.904 L 48.172 1895.012 L 48.380 1895.098 L 48.597 1895.159 L 56.183 1897.300 L 63.480 1900.281 L 70.396 1904.063 L 76.842 1908.599 L 82.738 1913.831 L 88.008 1919.693 L 92.586 1926.110 L 96.413 1933.000 L 99.442 1940.278 L 101.633 1947.850 L 102.958 1955.620 L 103.402 1963.490 L 103.402 2631.498 L 224.781 2959.725 L 224.880 2960.003 L 224.970 2960.284 L 225.051 2960.568 L 225.125 2960.854 L 225.190 2961.142 L 225.246 2961.432 L 225.294 2961.723 L 225.333 2962.016 L 225.363 2962.309 L 225.385 2962.604 L 225.398 2962.898 L 225.402 2963.194 L 225.402 2991.000 L 234.402 2991.000 L 234.402 2973.099 L 234.423 2972.455 L 234.485 2971.813 L 234.589 2971.176 L 234.733 2970.547 L 234.918 2969.929 L 235.142 2969.325 L 235.405 2968.735 L 235.705 2968.164 L 236.041 2967.614 L 236.412 2967.086 L 236.816 2966.584 L 237.252 2966.108 L 250.021 2954.096 L 263.746 2943.192 L 278.334 2933.469 L 293.681 2924.998 L 309.682 2917.836 L 326.224 2912.033 L 343.192 2907.631 L 360.469 2904.659 L 377.933 2903.138 L 395.463 2903.079 L 412.937 2904.483 L 430.234 2907.339 L 447.231 2911.627 L 463.812 2917.319 L 479.860 2924.373 L 495.264 2932.742 L 509.916 2942.366 L 511.204 2943.241 L 512.536 2944.048 L 513.907 2944.785 L 515.315 2945.450 L 516.756 2946.041 L 518.225 2946.557 L 519.719 2946.995 L 521.234 2947.356 L 522.766 2947.637 L 524.310 2947.839 L 525.862 2947.960 L 527.418 2948.000 L 609.402 2948.000 L 610.708 2947.915 L 611.990 2947.659 L 613.229 2947.239 L 614.402 2946.660 L 615.490 2945.934 L 616.473 2945.071 L 617.336 2944.088 L 618.063 2943.000 L 618.641 2941.827 L 619.062 2940.588 L 619.317 2939.305 L 619.402 2938.000 L 619.402 2920.151 L 619.317 2918.845 L 619.062 2917.562 L 618.641 2916.324 L 618.063 2915.151 L 617.336 2914.063 L 616.473 2913.079 L 615.490 2912.217 L 614.402 2911.490 L 613.229 2910.912 L 611.990 2910.491 L 610.708 2910.236 L 609.402 2910.151 L 604.402 2910.151 L 596.599 2909.382 L 589.095 2907.106 L 582.179 2903.409 L 576.118 2898.435 L 571.143 2892.373 L 567.447 2885.458 L 565.171 2877.954 L 564.402 2870.151 L 565.171 2862.347 L 567.447 2854.843 L 571.143 2847.928 L 576.118 2841.866 L 582.179 2836.892 L 589.095 2833.195 L 596.599 2830.919 L 604.402 2830.151 L 609.402 2830.151 L 610.708 2830.065 L 611.990 2829.810 L 613.229 2829.389 L 614.402 2828.811 L 615.490 2828.084 L 616.473 2827.222 L 617.336 2826.238 L 618.063 2825.151 L 618.641 2823.977 L 619.062 2822.739 L 619.317 2821.456 L 619.402 2820.151 L 619.402 2800.151 L 619.317 2798.845 L 619.062 2797.562 L 618.641 2796.324 L 618.063 2795.151 L 617.336 2794.063 L 616.473 2793.079 L 615.490 2792.217 L 614.402 2791.490 L 613.229 2790.912 L 611.990 2790.491 L 610.708 2790.236 L 609.402 2790.151 L 604.402 2790.151 L 596.599 2789.382 L 589.095 2787.106 L 582.179 2783.409 L 576.118 2778.435 L 571.143 2772.373 L 567.447 2765.458 L 565.171 2757.954 L 564.402 2750.151 L 565.171 2742.347 L 567.447 2734.843 L 571.143 2727.928 L 576.118 2721.866 L 582.179 2716.892 L 589.095 2713.195 L 596.599 2710.919 L 604.402 2710.151 L 609.402 2710.151 L 610.708 2710.065 L 611.990 2709.810 L 613.229 2709.389 L 614.402 2708.811 L 615.490 2708.084 L 616.473 2707.222 L 617.336 2706.238 L 618.063 2705.151 L 618.641 2703.977 L 619.062 2702.739 L 619.317 2701.456 L 619.402 2700.151 L 619.402 2675.006 L 619.317 2673.701 L 619.062 2672.418 L 618.641 2671.180 L 618.063 2670.006 L 617.336 2668.919 L 616.473 2667.935 L 615.490 2667.073 L 614.402 2666.346 L 613.229 2665.768 L 611.990 2665.347 L 610.708 2665.092 L 609.402 2665.006 L 403.402 2665.006 L 389.967 2664.252 L 376.700 2661.998 L 363.769 2658.272 L 351.336 2653.123 L 339.558 2646.613 L 328.583 2638.826 L 318.549 2629.859 L 309.582 2619.825 L 301.795 2608.850 L 295.286 2597.072 L 290.136 2584.640 L 286.411 2571.709 L 284.157 2558.442 L 283.402 2545.006 L 283.402 2188.146 L 277.520 2181.581 L 272.559 2174.294 L 268.606 2166.415 L 265.732 2158.082 L 263.987 2149.441 L 263.402 2140.646 L 263.987 2131.850 L 265.732 2123.210 L 268.606 2114.877 L 272.559 2106.997 L 277.520 2099.711 Z" fill="#f28e2b" fill-opacity="0.68" stroke="#1f2937" stroke-width="0.45" data-part-id="Lv8_11612_6db" data-instance-id="Lv8_11612_6db__0002" data-rotation-deg="270.000000"/>
  <path d="M 983.697 1370.856 L 983.697 1571.296 L 983.694 1571.452 L 983.687 1571.608 L 983.675 1571.764 L 983.658 1571.919 L 983.636 1572.074 L 983.609 1572.228 L 983.577 1572.381 L 983.541 1572.533 L 983.500 1572.683 L 983.454 1572.833 L 983.404 1572.981 L 983.349 1573.127 L 961.360 1628.997 L 964.274 1637.712 L 966.062 1646.726 L 966.695 1655.893 L 966.163 1665.067 L 964.476 1674.100 L 961.659 1682.847 L 957.758 1691.168 L 952.837 1698.928 L 946.973 1706.004 L 940.261 1712.280 L 932.809 1717.658 L 924.737 1722.049 L 892.244 1804.607 L 890.191 1809.145 L 887.697 1813.456 L 884.787 1817.498 L 881.489 1821.230 L 877.836 1824.616 L 873.864 1827.621 L 869.613 1830.216 L 865.125 1832.376 L 860.444 1834.078 L 855.617 1835.306 L 850.692 1836.048 L 845.718 1836.296 L 775.697 1836.296 L 774.391 1836.381 L 773.108 1836.636 L 771.870 1837.057 L 770.697 1837.635 L 769.609 1838.362 L 768.625 1839.225 L 767.763 1840.208 L 767.036 1841.296 L 766.458 1842.469 L 766.037 1843.707 L 765.782 1844.990 L 765.697 1846.296 L 765.697 2161.296 L 765.744 2162.265 L 765.884 2163.225 L 766.117 2164.166 L 766.441 2165.081 L 766.851 2165.960 L 767.345 2166.796 L 767.917 2167.579 L 768.563 2168.303 L 769.275 2168.962 L 770.049 2169.548 L 770.875 2170.056 L 771.747 2170.482 L 828.447 2194.862 L 832.805 2196.992 L 836.937 2199.534 L 840.802 2202.465 L 844.366 2205.757 L 847.593 2209.378 L 850.455 2213.296 L 852.923 2217.472 L 854.975 2221.868 L 856.592 2226.441 L 857.757 2231.150 L 858.461 2235.950 L 858.697 2240.796 L 858.697 2617.254 L 858.718 2617.908 L 858.782 2618.559 L 858.889 2619.204 L 859.037 2619.842 L 859.227 2620.468 L 859.458 2621.080 L 859.728 2621.676 L 860.036 2622.254 L 860.382 2622.809 L 860.763 2623.341 L 861.178 2623.847 L 861.625 2624.325 L 865.768 2628.467 L 866.215 2628.944 L 866.630 2629.450 L 867.011 2629.982 L 867.357 2630.538 L 867.665 2631.115 L 867.935 2631.711 L 868.166 2632.323 L 868.356 2632.950 L 868.504 2633.587 L 868.611 2634.233 L 868.675 2634.884 L 868.697 2635.538 L 868.697 2737.254 L 868.675 2737.908 L 868.611 2738.559 L 868.504 2739.204 L 868.356 2739.842 L 868.166 2740.468 L 867.935 2741.080 L 867.665 2741.676 L 867.357 2742.254 L 867.011 2742.809 L 866.630 2743.341 L 866.215 2743.847 L 865.768 2744.325 L 856.625 2753.467 L 856.148 2753.914 L 855.642 2754.329 L 855.110 2754.710 L 854.554 2755.056 L 853.977 2755.364 L 853.381 2755.634 L 852.769 2755.865 L 852.143 2756.055 L 851.505 2756.204 L 850.860 2756.310 L 850.208 2756.374 L 849.554 2756.396 L 832.887 2756.396 L 831.741 2756.462 L 830.609 2756.659 L 829.508 2756.984 L 828.451 2757.433 L 827.453 2758.001 L 826.527 2758.679 L 825.684 2759.460 L 824.936 2760.331 L 824.293 2761.283 L 823.764 2762.302 L 823.355 2763.375 L 823.071 2764.488 L 793.073 2918.812 L 792.506 2921.038 L 791.688 2923.183 L 790.629 2925.222 L 789.343 2927.125 L 787.848 2928.868 L 786.162 2930.428 L 784.309 2931.785 L 782.313 2932.920 L 780.199 2933.819 L 777.997 2934.470 L 775.734 2934.864 L 773.441 2934.996 L 644.123 2934.996 L 644.006 2934.999 L 643.890 2935.009 L 643.774 2935.026 L 643.660 2935.050 L 643.547 2935.080 L 643.436 2935.117 L 643.328 2935.161 L 643.222 2935.210 L 643.119 2935.266 L 643.020 2935.328 L 642.924 2935.395 L 642.833 2935.468 L 634.593 2942.132 L 626.076 2948.438 L 617.297 2954.374 L 608.273 2959.930 L 599.020 2965.095 L 589.555 2969.860 L 579.894 2974.216 L 570.057 2978.156 L 560.060 2981.672 L 549.922 2984.758 L 539.661 2987.407 L 529.297 2989.616 L 529.297 2994.996 L 862.697 2994.996 L 862.697 2973.996 L 869.697 2973.996 L 869.697 2994.996 L 1026.697 2994.996 L 1026.697 2973.996 L 1033.697 2973.996 L 1033.697 2994.996 L 1262.097 2994.996 L 1262.097 2989.616 L 1251.725 2987.410 L 1241.458 2984.763 L 1231.313 2981.679 L 1221.309 2978.164 L 1211.465 2974.225 L 1201.798 2969.869 L 1192.326 2965.104 L 1183.066 2959.938 L 1174.036 2954.380 L 1165.251 2948.442 L 1156.728 2942.134 L 1148.483 2935.468 L 1148.391 2935.395 L 1148.296 2935.328 L 1148.197 2935.266 L 1148.094 2935.210 L 1147.988 2935.161 L 1147.880 2935.117 L 1147.769 2935.080 L 1147.656 2935.050 L 1147.541 2935.026 L 1147.426 2935.009 L 1147.309 2934.999 L 1147.192 2934.996 L 1058.697 2934.996 L 1056.086 2934.825 L 1053.520 2934.314 L 1051.043 2933.473 L 1048.697 2932.316 L 1046.521 2930.863 L 1044.554 2929.138 L 1042.829 2927.171 L 1041.376 2924.996 L 1040.219 2922.649 L 1039.378 2920.172 L 1038.868 2917.606 L 1038.697 2914.996 L 1038.697 2899.496 L 1008.697 2899.496 L 1007.391 2899.410 L 1006.108 2899.155 L 1004.870 2898.734 L 1003.697 2898.156 L 1002.609 2897.429 L 1001.625 2896.567 L 1000.763 2895.583 L 1000.036 2894.496 L 999.458 2893.322 L 999.037 2892.084 L 998.782 2890.801 L 998.697 2889.496 L 998.697 2829.496 L 998.782 2828.190 L 999.037 2826.907 L 999.458 2825.669 L 1000.036 2824.496 L 1000.763 2823.408 L 1001.625 2822.425 L 1002.609 2821.562 L 1003.697 2820.835 L 1004.870 2820.257 L 1006.108 2819.836 L 1007.391 2819.581 L 1008.697 2819.496 L 1038.697 2819.496 L 1038.697 2134.697 L 1038.712 2133.461 L 1038.758 2132.226 L 1038.834 2130.992 L 1038.941 2129.760 L 1039.078 2128.532 L 1039.246 2127.307 L 1039.444 2126.087 L 1039.672 2124.871 L 1039.929 2123.662 L 1040.217 2122.460 L 1040.535 2121.265 L 1040.881 2120.079 L 1161.512 1725.514 L 1161.859 1724.328 L 1162.176 1723.133 L 1162.464 1721.931 L 1162.722 1720.721 L 1162.950 1719.506 L 1163.147 1718.286 L 1163.315 1717.061 L 1163.452 1715.833 L 1163.559 1714.601 L 1163.635 1713.367 L 1163.681 1712.132 L 1163.697 1710.896 L 1163.697 1576.692 L 1162.721 1576.548 L 1161.877 1576.038 L 1161.297 1575.241 L 1161.069 1574.282 L 1161.230 1573.309 L 1161.755 1572.474 L 1162.561 1571.907 L 1163.525 1571.696 L 1164.494 1571.874 L 1165.320 1572.413 L 1165.873 1573.229 L 1166.068 1574.196 L 1220.068 1574.196 L 1220.068 1570.796 L 1220.055 1570.571 L 1220.017 1570.349 L 1219.954 1570.132 L 1219.868 1569.925 L 1219.759 1569.728 L 1219.628 1569.544 L 1219.477 1569.377 L 1219.309 1569.227 L 1219.125 1569.098 L 1218.927 1568.990 L 1218.718 1568.905 L 1218.502 1568.843 L 1210.916 1566.702 L 1203.619 1563.721 L 1196.703 1559.939 L 1190.256 1555.403 L 1184.361 1550.171 L 1179.091 1544.309 L 1174.513 1537.893 L 1170.685 1531.002 L 1167.657 1523.724 L 1165.466 1516.152 L 1164.140 1508.382 L 1163.697 1500.512 L 1163.697 832.504 L 1042.317 504.277 L 1042.219 503.999 L 1042.129 503.718 L 1042.047 503.434 L 1041.974 503.148 L 1041.909 502.860 L 1041.853 502.570 L 1041.805 502.279 L 1041.766 501.987 L 1041.736 501.693 L 1041.714 501.399 L 1041.701 501.104 L 1041.697 500.809 L 1041.697 473.002 L 1032.697 473.002 L 1032.697 490.903 L 1032.676 491.547 L 1032.613 492.189 L 1032.510 492.826 L 1032.365 493.455 L 1032.181 494.073 L 1031.957 494.678 L 1031.694 495.267 L 1031.394 495.838 L 1031.058 496.388 L 1030.687 496.916 L 1030.282 497.418 L 1029.847 497.894 L 1017.078 509.906 L 1003.352 520.811 L 988.765 530.533 L 973.418 539.004 L 957.417 546.166 L 940.875 551.969 L 923.906 556.371 L 906.630 559.343 L 889.166 560.864 L 871.635 560.923 L 854.161 559.520 L 836.865 556.663 L 819.868 552.375 L 803.287 546.683 L 787.239 539.629 L 771.835 531.261 L 757.182 521.636 L 755.895 520.761 L 754.563 519.954 L 753.191 519.217 L 751.784 518.552 L 750.343 517.961 L 748.874 517.445 L 747.380 517.007 L 745.865 516.646 L 744.333 516.365 L 742.789 516.164 L 741.237 516.042 L 739.680 516.002 L 657.697 516.002 L 656.391 516.088 L 655.108 516.343 L 653.870 516.763 L 652.697 517.342 L 651.609 518.068 L 650.625 518.931 L 649.763 519.914 L 649.036 521.002 L 648.458 522.175 L 648.037 523.414 L 647.782 524.697 L 647.697 526.002 L 647.697 543.852 L 647.782 545.157 L 648.037 546.440 L 648.458 547.678 L 649.036 548.852 L 649.763 549.939 L 650.625 550.923 L 651.609 551.785 L 652.697 552.512 L 653.870 553.090 L 655.108 553.511 L 656.391 553.766 L 657.697 553.852 L 662.697 553.852 L 670.500 554.620 L 678.004 556.896 L 684.919 560.593 L 690.981 565.567 L 695.955 571.629 L 699.652 578.544 L 701.928 586.048 L 702.697 593.852 L 701.928 601.655 L 699.652 609.159 L 695.955 616.074 L 690.981 622.136 L 684.919 627.110 L 678.004 630.807 L 670.500 633.083 L 662.697 633.852 L 657.697 633.852 L 656.391 633.937 L 655.108 634.192 L 653.870 634.613 L 652.697 635.191 L 651.609 635.918 L 650.625 636.781 L 649.763 637.764 L 649.036 638.852 L 648.458 640.025 L 648.037 641.263 L 647.782 642.546 L 647.697 643.852 L 647.697 663.852 L 647.782 665.157 L 648.037 666.440 L 648.458 667.678 L 649.036 668.852 L 649.763 669.939 L 650.625 670.923 L 651.609 671.785 L 652.697 672.512 L 653.870 673.090 L 655.108 673.511 L 656.391 673.766 L 657.697 673.852 L 662.697 673.852 L 670.500 674.620 L 678.004 676.896 L 684.919 680.593 L 690.981 685.567 L 695.955 691.629 L 699.652 698.544 L 701.928 706.048 L 702.697 713.852 L 701.928 721.655 L 699.652 729.159 L 695.955 736.074 L 690.981 742.136 L 684.919 747.110 L 678.004 750.807 L 670.500 753.083 L 662.697 753.852 L 657.697 753.852 L 656.391 753.937 L 655.108 754.192 L 653.870 754.613 L 652.697 755.191 L 651.609 755.918 L 650.625 756.781 L 649.763 757.764 L 649.036 758.852 L 648.458 760.025 L 648.037 761.263 L 647.782 762.546 L 647.697 763.852 L 647.697 788.996 L 647.782 790.301 L 648.037 791.584 L 648.458 792.822 L 649.036 793.996 L 649.763 795.083 L 650.625 796.067 L 651.609 796.929 L 652.697 797.656 L 653.870 798.234 L 655.108 798.655 L 656.391 798.910 L 657.697 798.996 L 863.697 798.996 L 877.132 799.750 L 890.399 802.004 L 903.330 805.730 L 915.763 810.879 L 927.540 817.389 L 938.515 825.176 L 948.549 834.143 L 957.516 844.177 L 965.303 855.152 L 971.813 866.930 L 976.963 879.362 L 980.688 892.293 L 982.942 905.560 L 983.697 918.996 L 983.697 1275.856 L 989.579 1282.421 L 994.540 1289.708 L 998.493 1297.587 L 1001.367 1305.920 L 1003.111 1314.561 L 1003.697 1323.356 L 1003.111 1332.152 L 1001.367 1340.792 L 998.493 1349.126 L 994.540 1357.005 L 989.579 1364.291 Z" fill="#f28e2b" fill-opacity="0.68" stroke="#1f2937" stroke-width="0.45" data-part-id="Lv8_11612_6db" data-instance-id="Lv8_11612_6db__0006" data-rotation-deg="90.000000"/>
  <text x="8" y="28" font-family="Arial, sans-serif" font-size="26" fill="#111827">6big_sp8_builderonly sheet 1 placed=2</text>
</svg>
