<svg xmlns="http://www.w3.org/2000/svg" width="1000.00mm" height="2000.00mm" viewBox="0 0 1000.0000 2000.0000">
  <!-- Q39 S5 sheet 2 ORIGINAL contours -->
  <rect width="1000.0000" height="2000.0000" fill="#ffffff" stroke="#000000" stroke-width="2"/>
  <path d="M 8.354 355.142 L 8.354 515.276 L 8.356 515.319 L 8.362 515.363 L 8.371 515.405 L 8.384 515.447 L 8.401 515.487 L 8.421 515.526 L 8.445 515.563 L 8.471 515.597 L 8.501 515.629 L 8.533 515.659 L 8.567 515.685 L 8.604 515.709 L 8.723 515.804 L 8.807 515.930 L 8.850 516.076 L 8.847 516.229 L 8.798 516.373 L 8.708 516.495 L 8.585 516.585 L 8.441 516.634 L 8.289 516.637 L 8.143 516.595 L 8.016 516.510 L 7.921 516.392 L 7.898 516.355 L 7.871 516.320 L 7.842 516.288 L 7.810 516.259 L 7.775 516.232 L 7.738 516.209 L 7.699 516.189 L 7.659 516.172 L 7.618 516.159 L 7.575 516.149 L 7.532 516.144 L 7.488 516.142 L 3.854 516.142 L 3.789 516.146 L 3.725 516.159 L 3.663 516.180 L 3.604 516.209 L 3.550 516.245 L 3.501 516.288 L 3.457 516.337 L 3.421 516.392 L 3.392 516.450 L 3.371 516.512 L 3.358 516.576 L 3.354 516.642 L 3.354 531.642 L 3.358 531.707 L 3.371 531.771 L 3.392 531.833 L 3.421 531.892 L 3.457 531.946 L 3.501 531.995 L 3.550 532.038 L 3.604 532.075 L 3.663 532.104 L 3.725 532.125 L 3.789 532.137 L 3.854 532.142 L 7.488 532.142 L 7.532 532.140 L 7.575 532.134 L 7.618 532.125 L 7.659 532.112 L 7.699 532.095 L 7.738 532.075 L 7.775 532.051 L 7.810 532.025 L 7.842 531.995 L 7.871 531.963 L 7.898 531.929 L 7.921 531.892 L 8.016 531.773 L 8.143 531.689 L 8.289 531.646 L 8.441 531.649 L 8.585 531.698 L 8.708 531.788 L 8.798 531.911 L 8.847 532.055 L 8.850 532.207 L 8.807 532.353 L 8.723 532.480 L 8.604 532.575 L 8.567 532.598 L 8.533 532.625 L 8.501 532.654 L 8.471 532.686 L 8.445 532.721 L 8.421 532.758 L 8.401 532.796 L 8.384 532.837 L 8.371 532.878 L 8.362 532.921 L 8.356 532.964 L 8.354 533.008 L 8.354 562.142 L 8.440 563.447 L 8.695 564.730 L 9.115 565.969 L 9.694 567.142 L 10.421 568.229 L 11.283 569.213 L 12.267 570.075 L 13.354 570.802 L 14.527 571.381 L 15.766 571.801 L 17.049 572.056 L 18.354 572.142 L 108.354 572.142 L 109.659 572.056 L 110.942 571.801 L 112.181 571.381 L 113.354 570.802 L 114.442 570.075 L 115.425 569.213 L 116.288 568.229 L 117.014 567.142 L 117.593 565.969 L 118.013 564.730 L 118.269 563.447 L 118.354 562.142 L 118.354 533.008 L 118.352 532.964 L 118.347 532.921 L 118.337 532.878 L 118.324 532.837 L 118.307 532.796 L 118.287 532.758 L 118.264 532.721 L 118.237 532.686 L 118.208 532.654 L 118.176 532.625 L 118.141 532.598 L 118.104 532.575 L 117.986 532.480 L 117.901 532.353 L 117.858 532.207 L 117.862 532.055 L 117.911 531.911 L 118.001 531.788 L 118.123 531.698 L 118.267 531.649 L 118.419 531.646 L 118.565 531.689 L 118.692 531.773 L 118.787 531.892 L 118.811 531.929 L 118.837 531.963 L 118.867 531.995 L 118.899 532.025 L 118.933 532.051 L 118.970 532.075 L 119.009 532.095 L 119.049 532.112 L 119.091 532.125 L 119.133 532.134 L 119.177 532.140 L 119.220 532.142 L 122.854 532.142 L 122.919 532.137 L 122.984 532.125 L 123.045 532.104 L 123.104 532.075 L 123.159 532.038 L 123.208 531.995 L 123.251 531.946 L 123.287 531.892 L 123.316 531.833 L 123.337 531.771 L 123.350 531.707 L 123.354 531.642 L 123.354 516.642 L 123.350 516.576 L 123.337 516.512 L 123.316 516.450 L 123.287 516.392 L 123.251 516.337 L 123.208 516.288 L 123.159 516.245 L 123.104 516.209 L 123.045 516.180 L 122.984 516.159 L 122.919 516.146 L 122.854 516.142 L 119.220 516.142 L 119.177 516.144 L 119.133 516.149 L 119.091 516.159 L 119.049 516.172 L 119.009 516.189 L 118.970 516.209 L 118.933 516.232 L 118.899 516.259 L 118.867 516.288 L 118.837 516.320 L 118.811 516.355 L 118.787 516.392 L 118.676 516.525 L 118.525 516.612 L 118.354 516.642 L 118.183 516.612 L 118.033 516.525 L 117.921 516.392 L 117.862 516.229 L 117.862 516.055 L 117.921 515.892 L 118.033 515.759 L 118.183 515.672 L 118.354 515.642 L 118.354 355.142 L 118.269 353.836 L 118.013 352.554 L 117.593 351.315 L 117.014 350.142 L 116.288 349.054 L 115.425 348.071 L 114.442 347.208 L 113.354 346.481 L 112.181 345.903 L 110.942 345.482 L 109.659 345.227 L 108.354 345.142 L 83.354 345.142 L 82.702 345.185 L 82.060 345.312 L 81.441 345.522 L 80.854 345.812 L 80.310 346.175 L 79.819 346.606 L 79.387 347.098 L 79.024 347.642 L 78.735 348.228 L 78.525 348.848 L 78.397 349.489 L 78.354 350.142 L 78.354 355.142 L 78.397 355.794 L 78.525 356.436 L 78.735 357.055 L 79.024 357.642 L 79.387 358.186 L 79.819 358.677 L 80.310 359.109 L 80.854 359.472 L 81.441 359.761 L 82.060 359.971 L 82.702 360.099 L 83.354 360.142 L 93.354 360.142 L 94.659 360.227 L 95.942 360.482 L 97.181 360.903 L 98.354 361.481 L 99.442 362.208 L 100.425 363.071 L 101.288 364.054 L 102.014 365.142 L 102.593 366.315 L 103.013 367.554 L 103.269 368.836 L 103.354 370.142 L 103.354 380.142 L 103.269 381.447 L 103.013 382.730 L 102.593 383.969 L 102.014 385.142 L 101.288 386.229 L 100.425 387.213 L 99.442 388.075 L 98.354 388.802 L 97.181 389.381 L 95.942 389.801 L 94.659 390.056 L 93.354 390.142 L 33.354 390.142 L 32.049 390.056 L 30.766 389.801 L 29.527 389.381 L 28.354 388.802 L 27.267 388.075 L 26.283 387.213 L 25.421 386.229 L 24.694 385.142 L 24.115 383.969 L 23.695 382.730 L 23.440 381.447 L 23.354 380.142 L 23.354 370.142 L 23.440 368.836 L 23.695 367.554 L 24.115 366.315 L 24.694 365.142 L 25.421 364.054 L 26.283 363.071 L 27.267 362.208 L 28.354 361.481 L 29.527 360.903 L 30.766 360.482 L 32.049 360.227 L 33.354 360.142 L 43.354 360.142 L 44.007 360.099 L 44.648 359.971 L 45.268 359.761 L 45.854 359.472 L 46.398 359.109 L 46.890 358.677 L 47.321 358.186 L 47.684 357.642 L 47.974 357.055 L 48.184 356.436 L 48.311 355.794 L 48.354 355.142 L 48.354 350.142 L 48.311 349.489 L 48.184 348.848 L 47.974 348.228 L 47.684 347.642 L 47.321 347.098 L 46.890 346.606 L 46.398 346.175 L 45.854 345.812 L 45.268 345.522 L 44.648 345.312 L 44.007 345.185 L 43.354 345.142 L 18.354 345.142 L 17.049 345.227 L 15.766 345.482 L 14.527 345.903 L 13.354 346.481 L 12.267 347.208 L 11.283 348.071 L 10.421 349.054 L 9.694 350.142 L 9.115 351.315 L 8.695 352.554 L 8.440 353.836 Z" fill="#59a14f" fill-opacity="0.7" stroke="#222" stroke-width="0.5"/>
  <path d="M 498.675 1946.368 L 492.725 1942.763 L 487.333 1938.367 L 482.603 1933.266 L 478.627 1927.557 L 475.481 1921.352 L 473.228 1914.771 L 471.910 1907.940 L 471.552 1900.992 L 472.163 1894.062 L 473.729 1887.284 L 476.221 1880.789 L 479.591 1874.702 L 554.814 1758.685 L 557.524 1753.552 L 559.278 1748.019 L 560.020 1742.262 L 559.726 1736.465 L 558.405 1730.813 L 556.100 1725.486 L 552.884 1720.654 L 548.860 1716.471 L 544.156 1713.070 L 538.922 1710.561 L 533.325 1709.022 L 527.544 1708.504 L 501.544 1708.504 L 459.544 1708.504 L 332.544 1708.504 L 287.544 1708.504 L 140.544 1708.504 L 118.544 1708.504 L 72.544 1708.504 L 66.763 1709.022 L 61.166 1710.561 L 55.932 1713.070 L 51.228 1716.471 L 47.204 1720.654 L 43.988 1725.486 L 41.683 1730.813 L 40.363 1736.465 L 40.068 1742.262 L 40.810 1748.019 L 42.564 1753.552 L 45.274 1758.685 L 120.497 1874.702 L 123.867 1880.789 L 126.359 1887.284 L 127.925 1894.062 L 128.536 1900.992 L 128.178 1907.940 L 126.860 1914.771 L 124.607 1921.352 L 121.461 1927.557 L 117.485 1933.266 L 112.755 1938.367 L 107.363 1942.763 L 101.413 1946.368 L 0.044 1998.504 L 265.544 1998.504 L 314.544 1998.504 L 457.799 1998.504 L 600.044 1998.504 Z" fill="#4e79a7" fill-opacity="0.7" stroke="#222" stroke-width="0.5"/>
  <path d="M 52.185 1644.935 L 55.789 1638.984 L 60.185 1633.592 L 65.286 1628.862 L 70.995 1624.886 L 77.200 1621.741 L 83.782 1619.487 L 90.612 1618.169 L 97.560 1617.812 L 104.490 1618.422 L 111.268 1619.988 L 117.763 1622.480 L 123.850 1625.850 L 239.867 1701.073 L 245.000 1703.783 L 250.533 1705.537 L 256.290 1706.279 L 262.087 1705.985 L 267.739 1704.664 L 273.066 1702.359 L 277.899 1699.143 L 282.082 1695.119 L 285.482 1690.415 L 287.992 1685.181 L 289.530 1679.584 L 290.048 1673.803 L 290.048 1647.803 L 290.048 1605.803 L 290.048 1478.803 L 290.048 1433.803 L 290.048 1286.803 L 290.048 1264.803 L 290.048 1218.803 L 289.530 1213.022 L 287.992 1207.425 L 285.482 1202.191 L 282.082 1197.487 L 277.899 1193.463 L 273.066 1190.247 L 267.739 1187.942 L 262.087 1186.622 L 256.290 1186.328 L 250.533 1187.069 L 245.000 1188.823 L 239.867 1191.534 L 123.850 1266.757 L 117.763 1270.126 L 111.268 1272.618 L 104.490 1274.184 L 97.560 1274.795 L 90.612 1274.438 L 83.782 1273.119 L 77.200 1270.866 L 70.995 1267.721 L 65.286 1263.744 L 60.185 1259.014 L 55.789 1253.622 L 52.185 1247.672 L 0.048 1146.303 L 0.048 1411.803 L 0.048 1460.803 L 0.048 1604.058 L 0.048 1746.303 Z" fill="#4e79a7" fill-opacity="0.7" stroke="#222" stroke-width="0.5"/>
  <path d="M 240.740 713.453 L 237.136 719.404 L 232.740 724.796 L 227.639 729.526 L 221.930 733.502 L 215.725 736.647 L 209.143 738.901 L 202.313 740.219 L 195.365 740.576 L 188.435 739.966 L 181.657 738.400 L 175.162 735.908 L 169.075 732.538 L 53.058 657.315 L 47.925 654.605 L 42.392 652.851 L 36.635 652.109 L 30.838 652.403 L 25.186 653.724 L 19.859 656.029 L 15.026 659.245 L 10.843 663.269 L 7.443 667.973 L 4.933 673.207 L 3.395 678.804 L 2.877 684.585 L 2.877 710.585 L 2.877 752.585 L 2.877 879.585 L 2.877 924.585 L 2.877 1071.585 L 2.877 1093.585 L 2.877 1139.585 L 3.395 1145.366 L 4.933 1150.963 L 7.443 1156.197 L 10.843 1160.901 L 15.026 1164.925 L 19.859 1168.141 L 25.186 1170.446 L 30.838 1171.766 L 36.635 1172.060 L 42.392 1171.319 L 47.925 1169.565 L 53.058 1166.854 L 169.075 1091.631 L 175.162 1088.262 L 181.657 1085.770 L 188.435 1084.204 L 195.365 1083.593 L 202.313 1083.950 L 209.143 1085.269 L 215.725 1087.522 L 221.930 1090.667 L 227.639 1094.644 L 232.740 1099.374 L 237.136 1104.766 L 240.740 1110.716 L 292.877 1212.085 L 292.877 946.585 L 292.877 897.585 L 292.877 754.330 L 292.877 612.085 Z" fill="#4e79a7" fill-opacity="0.7" stroke="#222" stroke-width="0.5"/>
  <text x="6" y="20" font-size="34" fill="#000">S5 sheet 2  placed=4</text>
</svg>