<svg viewBox="-359.60617 -350.87207 6645.894 6453.744" xmlns="http://www.w3.org/2000/svg">
<g>
<g id="container_1169765749">
<path d="M0,0 L5926.682,0 L5926.682,5752 L0,5752 z" fill="#D3D3D3" stroke="black" stroke-width="29.335201"/>
<title>container, id: 1169765749, bbox: [x_min: 0.000, y_min: 0.000, x_max: 5926.682, y_max: 5752.000]</title>
</g>
<g id="items">
<defs>
<g id="item_0">
<path d="M0,0 L-5,-321 L1,-642 L151,-660 L259,-691 L423,-738 L547,-770 L680,-801 L858,-837 L988,-682 L1075,-620 L1211,-553 L1319,-527 L1481,-526 L1597,-540 L1737,-564 L1719,-440 L1708,-317 L1718,-194 L1736,-70 L1596,-95 L1480,-109 L1318,-109 L1210,-83 L1074,-17 L986,45 L856,199 L678,162 L545,131 L421,98 L257,50 L149,19 z" fill="#7A7A7A" fill-opacity="0.5" fill-rule="nonzero" stroke="black" stroke-width="14.667601"/>
</g>
<g id="cd_shape_0">
<path d="M0,0 L-5,-321 L1,-642 L151,-660 L552.12354,-775.1373 L858,-837 L988,-682 L1075,-620 L1211,-553 L1319,-527 L1481,-526 L1597,-540 L1737,-564 L1719,-440 L1708,-317 L1718,-194 L1736,-70 L1596,-95 L1480,-109 L1318,-109 L1210,-83 L1074,-17 L986,45 L856,198.99997 L549.1085,135.20798 L149,19 z" fill="none" stroke="black" stroke-dasharray="14.667601 29.335201" stroke-linecap="round" stroke-linejoin="round" stroke-opacity="0.3" stroke-width="7.3338003"/>
</g>
<g id="item_1">
<path d="M0,0 L8,-148 L26.962263,-299.69812 L68.443474,-462.4321 L179,-449 L288,-446 L401,-463 L548,-497 L764.0157,-545.56165 L805,-350 L887,-196 L755,-176 L655,-155 L523,-121 L272,-52 L117.45331,-11.877301 z" fill="#7A7A7A" fill-opacity="0.5" fill-rule="nonzero" stroke="black" stroke-width="14.667601"/>
</g>
<g id="cd_shape_1">
<path d="M0,0 L8,-148 L26.96225,-299.69812 L68.44348,-462.4321 L179,-449 L288,-446 L401,-463 L763.7356,-546.8981 L805,-350 L887,-196 L755,-176 L655,-155 L523,-121 L272,-52 L117.45331,-11.877289 z" fill="none" stroke="black" stroke-dasharray="14.667601 29.335201" stroke-linecap="round" stroke-linejoin="round" stroke-opacity="0.3" stroke-width="7.3338003"/>
</g>
<g id="item_2">
<path d="M-159,-185 L-328,-228 L-474,-262 L-694.8461,-307.57144 L-806.64514,-359.47812 L-532,-384 L-408,-400 L-215,-443 L-77,-501 L130,-620 L264,-589 L477.87183,-543.8493 L652.5122,-485.0418 L766,-431 L893,-362 L1115,-258 L1125,-131 L1133,-7 L940,23 L792,45 L680,59 L524,70 L357.5263,70 L181,44 L0.952833,4.181876 z" fill="#7A7A7A" fill-opacity="0.5" fill-rule="nonzero" stroke="black" stroke-width="14.667601"/>
</g>
<g id="cd_shape_2">
<path d="M-159,-185 L-474,-262 L-694.84607,-307.57144 L-806.64514,-359.47812 L-532,-384 L-408,-400 L-215,-443 L-77,-501 L130,-620 L264,-589 L477.87183,-543.8493 L652.5122,-485.0418 L766,-431 L893,-362 L1115,-258 L1134.7424,-7.2708282 L731.9797,55.334778 L524,70 L357.5263,70 L181,44 L0.9528198,4.1818695 z" fill="none" stroke="black" stroke-dasharray="14.667601 29.335201" stroke-linecap="round" stroke-linejoin="round" stroke-opacity="0.3" stroke-width="7.3338003"/>
</g>
<g id="item_3">
<path d="M0,0 L8,-172 L309,-166 L484,-165 L616,-167 L718,-172 L876,-194 L1031,-248 L1351.455,-111.0968 L1209,-57 L1048.9706,-6.821297 L909,16 L785,26 L668,29 L511,26 L213,14 z" fill="#7A7A7A" fill-opacity="0.5" fill-rule="nonzero" stroke="black" stroke-width="14.667601"/>
</g>
<g id="cd_shape_3">
<path d="M0,0 L8,-172 L309,-166 L484,-165 L616,-167 L718,-172 L876,-194 L1031,-248 L1351.455,-111.0968 L1209,-57 L1048.9706,-6.8212967 L909,16 L732.5139,30.23275 L511,26 L213,14 z" fill="none" stroke="black" stroke-dasharray="14.667601 29.335201" stroke-linecap="round" stroke-linejoin="round" stroke-opacity="0.3" stroke-width="7.3338003"/>
</g>
<g id="item_4">
<path d="M0,0 L33.96,-142.915 L77,-268 L89,-388 L-826,-439 L-824,-598 L39,-607 L169,-650 L209,-800 L251,-940 L371,-924 L354,-726 L348,-610 L350,-412 L360,-264 L382,-94 L488.69122,232.11281 L352,54 L217,0 z" fill="#7A7A7A" fill-opacity="0.5" fill-rule="nonzero" stroke="black" stroke-width="14.667601"/>
</g>
<g id="cd_shape_4">
<path d="M0,0 L33.96,-142.91501 L77,-268 L89,-388 L-826,-439 L-824,-598 L39,-607 L169,-650 L246.49358,-940.6008 L371,-924 L354,-726 L348,-610 L350,-412 L360,-264 L382,-94 L488.69122,232.11282 L352,54 L217,0 z" fill="none" stroke="black" stroke-dasharray="14.667601 29.335201" stroke-linecap="round" stroke-linejoin="round" stroke-opacity="0.3" stroke-width="7.3338003"/>
</g>
<g id="item_5">
<path d="M0,-7.222222 L129.8,-36.066666 L306.8846,22.961538 L495,110 L616,172 L737,238 L855,290 L959,313 L1071,306 L1275,255 L1260,394 L1250,499 L1260,606 L1275,745 L1071,694 L959,687 L855,710 L737,762 L616,828 L495,890 L306.8846,977.03845 L129.8,1036.0667 L0,1007.2222 z" fill="#7A7A7A" fill-opacity="0.5" fill-rule="nonzero" stroke="black" stroke-width="14.667601"/>
</g>
<g id="cd_shape_5">
<path d="M0,-7.222229 L129.79999,-36.06665 L306.8846,22.961548 L543.3278,132.36063 L737,238 L855,290 L959,313 L1071,306 L1275,255 L1250,499 L1275,745 L1071,694 L959,687 L855,710 L737,762 L543.3278,867.6394 L306.8846,977.03845 L129.79999,1036.0667 L0,1007.2222 z" fill="none" stroke="black" stroke-dasharray="14.667601 29.335201" stroke-linecap="round" stroke-linejoin="round" stroke-opacity="0.3" stroke-width="7.3338003"/>
</g>
<g id="item_6">
<path d="M0,0 L-4,-123 L-8,-291 L-17,-454 L-40,-620 L119,-619 L246,-538 L352,-501 L492,-458 L647,-416 L766,-369 L913,-302 L1061,-224 L1046,-100 L1037,2 L1061,224 L913,302 L766,369 L647,416 L492,458 L352,501 L246,538 L119,619 L-40,620 L-17,454 L-8,291 L-4,123 z" fill="#7A7A7A" fill-opacity="0.5" fill-rule="nonzero" stroke="black" stroke-width="14.667601"/>
</g>
<g id="cd_shape_6">
<path d="M0,0 L-4,-123 L-8,-291 L-17,-454 L-40,-620 L119,-619 L246,-538 L352,-501 L492,-458 L686.16406,-405.3878 L913,-302 L1061,-224 L1037,2 L1061,224 L913,302 L686.16406,405.3878 L492,458 L352,501 L246,538 L119,619 L-40,620 L-17,454 L-8,291 L-4,123 z" fill="none" stroke="black" stroke-dasharray="14.667601 29.335201" stroke-linecap="round" stroke-linejoin="round" stroke-opacity="0.3" stroke-width="7.3338003"/>
</g>
<g id="item_7">
<path d="M-76,-85 L-178,-200 L-270,-306 L-412,-374 L-958,-383 L-954,-543 L-366,-560 L-269,-659 L-90,-708 L-4,-539 L40,-443 L94,-312 L140.2381,-190.31746 L189,-42 L4.52434,5.060117 z" fill="#7A7A7A" fill-opacity="0.5" fill-rule="nonzero" stroke="black" stroke-width="14.667601"/>
</g>
<g id="cd_shape_7">
<path d="M3.998413,5.194275 L-178,-200 L-270,-306 L-412,-374 L-958,-383 L-954,-543 L-366,-560 L-269,-659 L-90,-708 L19.30841,-493.19626 L124.78949,-237.30698 L189,-42 z" fill="none" stroke="black" stroke-dasharray="14.667601 29.335201" stroke-linecap="round" stroke-linejoin="round" stroke-opacity="0.3" stroke-width="7.3338003"/>
</g>
<g id="item_8">
<path d="M-135.87357,-80.44827 L-238.05281,-203.06339 L-240.87816,-366.93304 L-197.36069,-485.8808 L-114.328445,-625.618 L-32.885136,-555.0338 L58.285713,-445 L118.14286,-305.33334 L108.69903,-151.08414 L7.1138,13.387181 z" fill="#7A7A7A" fill-opacity="0.5" fill-rule="nonzero" stroke="black" stroke-width="14.667601"/>
</g>
<g id="cd_shape_8">
<path d="M-135.87357,-80.44827 L-238.0528,-203.06339 L-240.87814,-366.93304 L-197.36069,-485.8808 L-114.328445,-625.618 L-32.885136,-555.0338 L58.285713,-445 L118.14286,-305.33334 L108.69903,-151.08414 L7.1138,13.3871765 z" fill="none" stroke="black" stroke-dasharray="14.667601 29.335201" stroke-linecap="round" stroke-linejoin="round" stroke-opacity="0.3" stroke-width="7.3338003"/>
</g>
<g id="item_9">
<path d="M-175.38889,-72.47953 L-304,-151 L-407,-193 L-510,-208 L-673,-192 L-790,-169 L-990,-124 L-1029,-292 L-760,-353 L-531,-404 L-413,-430 L-288,-510 L-252,-700 L-252,-862 L-274,-1015 L-533,-1157 L-762,-1207 L-1031,-1267 L-993,-1435 L-793,-1391 L-675,-1368 L-512,-1353 L-409,-1368 L-307,-1411 L-180.41176,-1488.2854 L6.421687,-1568.9188 L319,-1499 L270,-1290 L248,-1143 L241,-922 L242,-782 L242,-642 L246,-494 L257,-358 L322,-65 L15.847507,8.041056 z" fill="#7A7A7A" fill-opacity="0.5" fill-rule="nonzero" stroke="black" stroke-width="14.667601"/>
</g>
<g id="cd_shape_9">
<path d="M-175.38889,-72.47955 L-304,-151 L-407,-193 L-510,-208 L-673,-192 L-790,-169 L-990,-124 L-1029,-292 L-675.60785,-372.13727 L-413,-430 L-288,-510 L-252,-700 L-252,-862 L-274,-1015 L-533,-1157 L-1031.273,-1265.7932 L-993,-1435 L-675,-1368 L-512,-1353 L-409,-1368 L-307,-1411 L-180.41176,-1488.2854 L6.421692,-1568.9188 L319,-1499 L270,-1290 L248,-1143 L241,-922 L246,-494 L257,-358 L322,-65 L15.847504,8.041077 z" fill="none" stroke="black" stroke-dasharray="14.667601 29.335201" stroke-linecap="round" stroke-linejoin="round" stroke-opacity="0.3" stroke-width="7.3338003"/>
</g>
</defs>
<use href="#item_9" transform="translate(322.0619 24.826721), rotate(-180)">
<title>item, id: 9, transf: [r: -180.000°, t: (322.062, 24.827)]</title>
</use>
<use href="#item_9" transform="translate(322.2735 1604.4155), rotate(-180)">
<title>item, id: 9, transf: [r: -180.000°, t: (322.273, 1604.416)]</title>
</use>
<use href="#item_9" transform="translate(323.74628 3277.2405), rotate(-180)">
<title>item, id: 9, transf: [r: -180.000°, t: (323.746, 3277.240)]</title>
</use>
<use href="#item_0" transform="translate(5.368164 5552.8027), rotate(0)">
<title>item, id: 0, transf: [r: 0.000°, t: (5.368, 5552.803)]</title>
</use>
<use href="#item_0" transform="translate(3627.7021 2251.3457), rotate(0)">
<title>item, id: 0, transf: [r: 0.000°, t: (3627.702, 2251.346)]</title>
</use>
<use href="#item_0" transform="translate(2343.6577 2060.8018), rotate(-180)">
<title>item, id: 0, transf: [r: -180.000°, t: (2343.658, 2060.802)]</title>
</use>
<use href="#item_2" transform="translate(1710.3892 719.3672), rotate(-180)">
<title>item, id: 2, transf: [r: -180.000°, t: (1710.389, 719.367)]</title>
</use>
<use href="#item_2" transform="translate(2185.981 974.8671), rotate(0)">
<title>item, id: 2, transf: [r: 0.000°, t: (2185.981, 974.867)]</title>
</use>
<use href="#item_2" transform="translate(1626.1842 1884.0715), rotate(0)">
<title>item, id: 2, transf: [r: 0.000°, t: (1626.184, 1884.072)]</title>
</use>
<use href="#item_2" transform="translate(4669.299 1603.2422), rotate(0)">
<title>item, id: 2, transf: [r: 0.000°, t: (4669.299, 1603.242)]</title>
</use>
<use href="#item_2" transform="translate(3350.1147 1120.2839), rotate(-180)">
<title>item, id: 2, transf: [r: -180.000°, t: (3350.115, 1120.284)]</title>
</use>
<use href="#item_2" transform="translate(2597.0776 3195.9216), rotate(0)">
<title>item, id: 2, transf: [r: 0.000°, t: (2597.078, 3195.922)]</title>
</use>
<use href="#item_5" transform="translate(3622.133 2756.5598), rotate(-180)">
<title>item, id: 5, transf: [r: -180.000°, t: (3622.133, 2756.560)]</title>
</use>
<use href="#item_5" transform="translate(2196.4023 3825.2524), rotate(0)">
<title>item, id: 5, transf: [r: 0.000°, t: (2196.402, 3825.252)]</title>
</use>
<use href="#item_5" transform="translate(5924.887 1274.508), rotate(-180)">
<title>item, id: 5, transf: [r: -180.000°, t: (5924.887, 1274.508)]</title>
</use>
<use href="#item_6" transform="translate(3976.981 5024.6997), rotate(-180)">
<title>item, id: 6, transf: [r: -180.000°, t: (3976.981, 5024.700)]</title>
</use>
<use href="#item_6" transform="translate(4815.1714 3317.3555), rotate(0)">
<title>item, id: 6, transf: [r: 0.000°, t: (4815.171, 3317.355)]</title>
</use>
<use href="#item_6" transform="translate(3733.6758 3139.3003), rotate(0)">
<title>item, id: 6, transf: [r: 0.000°, t: (3733.676, 3139.300)]</title>
</use>
<use href="#item_4" transform="translate(5437.9155 2894.2307), rotate(0)">
<title>item, id: 4, transf: [r: 0.000°, t: (5437.916, 2894.231)]</title>
</use>
<use href="#item_4" transform="translate(1648.1514 4321.522), rotate(0)">
<title>item, id: 4, transf: [r: 0.000°, t: (1648.151, 4321.522)]</title>
</use>
<use href="#item_4" transform="translate(2105.8374 4513.3496), rotate(-180)">
<title>item, id: 4, transf: [r: -180.000°, t: (2105.837, 4513.350)]</title>
</use>
<use href="#item_4" transform="translate(2378.7778 3115.2292), rotate(-180)">
<title>item, id: 4, transf: [r: -180.000°, t: (2378.778, 3115.229)]</title>
</use>
<use href="#item_4" transform="translate(4379.979 4161.2593), rotate(-180)">
<title>item, id: 4, transf: [r: -180.000°, t: (4379.979, 4161.259)]</title>
</use>
<use href="#item_4" transform="translate(5028.1934 5436.7188), rotate(0)">
<title>item, id: 4, transf: [r: 0.000°, t: (5028.193, 5436.719)]</title>
</use>
<use href="#item_7" transform="translate(3469.1313 609.212), rotate(-180)">
<title>item, id: 7, transf: [r: -180.000°, t: (3469.131, 609.212)]</title>
</use>
<use href="#item_7" transform="translate(4680.7285 4305.029), rotate(0)">
<title>item, id: 7, transf: [r: 0.000°, t: (4680.729, 4305.029)]</title>
</use>
<use href="#item_7" transform="translate(3644.936 4273.347), rotate(0)">
<title>item, id: 7, transf: [r: 0.000°, t: (3644.936, 4273.347)]</title>
</use>
<use href="#item_7" transform="translate(3664.5615 827.7358), rotate(0)">
<title>item, id: 7, transf: [r: 0.000°, t: (3664.562, 827.736)]</title>
</use>
<use href="#item_7" transform="translate(1586.8918 3695.7617), rotate(0)">
<title>item, id: 7, transf: [r: 0.000°, t: (1586.892, 3695.762)]</title>
</use>
<use href="#item_7" transform="translate(5737.6416 4828.0054), rotate(0)">
<title>item, id: 7, transf: [r: 0.000°, t: (5737.642, 4828.005)]</title>
</use>
<use href="#item_3" transform="translate(5379.976 5503.976), rotate(-180)">
<title>item, id: 3, transf: [r: -180.000°, t: (5379.976, 5503.976)]</title>
</use>
<use href="#item_3" transform="translate(5922.1606 37.339294), rotate(-180)">
<title>item, id: 3, transf: [r: -180.000°, t: (5922.161, 37.339)]</title>
</use>
<use href="#item_3" transform="translate(2402.9434 5721.7373), rotate(0)">
<title>item, id: 3, transf: [r: 0.000°, t: (2402.943, 5721.737)]</title>
</use>
<use href="#item_3" transform="translate(2370.2947 3503.2842), rotate(0)">
<title>item, id: 3, transf: [r: 0.000°, t: (2370.295, 3503.284)]</title>
</use>
<use href="#item_3" transform="translate(2127.564 248.01526), rotate(0)">
<title>item, id: 3, transf: [r: 0.000°, t: (2127.564, 248.015)]</title>
</use>
<use href="#item_3" transform="translate(5502.686 2507.0405), rotate(-180)">
<title>item, id: 3, transf: [r: -180.000°, t: (5502.686, 2507.041)]</title>
</use>
<use href="#item_1" transform="translate(1324.9397 610.2416), rotate(0)">
<title>item, id: 1, transf: [r: 0.000°, t: (1324.940, 610.242)]</title>
</use>
<use href="#item_1" transform="translate(4008.5325 5576.551), rotate(0)">
<title>item, id: 1, transf: [r: 0.000°, t: (4008.532, 5576.551)]</title>
</use>
<use href="#item_1" transform="translate(3772.325 546.93274), rotate(0)">
<title>item, id: 1, transf: [r: 0.000°, t: (3772.325, 546.933)]</title>
</use>
<use href="#item_1" transform="translate(1895.9979 5668.021), rotate(0)">
<title>item, id: 1, transf: [r: 0.000°, t: (1895.998, 5668.021)]</title>
</use>
<use href="#item_1" transform="translate(5926.6772 3673.2026), rotate(-180)">
<title>item, id: 1, transf: [r: -180.000°, t: (5926.677, 3673.203)]</title>
</use>
<use href="#item_1" transform="translate(4660.99 356.61642), rotate(-180)">
<title>item, id: 1, transf: [r: -180.000°, t: (4660.990, 356.616)]</title>
</use>
<use href="#item_8" transform="translate(1712.2424 2867.2034), rotate(-180)">
<title>item, id: 8, transf: [r: -180.000°, t: (1712.242, 2867.203)]</title>
</use>
<use href="#item_8" transform="translate(1615.2678 4995.9424), rotate(0)">
<title>item, id: 8, transf: [r: 0.000°, t: (1615.268, 4995.942)]</title>
</use>
<use href="#item_8" transform="translate(1376.1583 4546.858), rotate(0)">
<title>item, id: 8, transf: [r: 0.000°, t: (1376.158, 4546.858)]</title>
</use>
<use href="#item_8" transform="translate(5808.5386 5738.3525), rotate(0)">
<title>item, id: 8, transf: [r: 0.000°, t: (5808.539, 5738.353)]</title>
</use>
<use href="#item_8" transform="translate(822.67804 4400.895), rotate(0)">
<title>item, id: 8, transf: [r: 0.000°, t: (822.678, 4400.895)]</title>
</use>
<use href="#item_8" transform="translate(5495.5503 4628.768), rotate(-180)">
<title>item, id: 8, transf: [r: -180.000°, t: (5495.550, 4628.768)]</title>
</use>
</g>
<g id="quality_zones"/>
<g id="optionals">
<g id="highlight_cd_shapes">
<use href="#cd_shape_9" transform="translate(322.0619 24.826721), rotate(-180)"/>
<use href="#cd_shape_9" transform="translate(322.2735 1604.4155), rotate(-180)"/>
<use href="#cd_shape_9" transform="translate(323.74628 3277.2405), rotate(-180)"/>
<use href="#cd_shape_0" transform="translate(5.368164 5552.8027), rotate(0)"/>
<use href="#cd_shape_0" transform="translate(3627.7021 2251.3457), rotate(0)"/>
<use href="#cd_shape_0" transform="translate(2343.6577 2060.8018), rotate(-180)"/>
<use href="#cd_shape_2" transform="translate(1710.3892 719.3672), rotate(-180)"/>
<use href="#cd_shape_2" transform="translate(2185.981 974.8671), rotate(0)"/>
<use href="#cd_shape_2" transform="translate(1626.1842 1884.0715), rotate(0)"/>
<use href="#cd_shape_2" transform="translate(4669.299 1603.2422), rotate(0)"/>
<use href="#cd_shape_2" transform="translate(3350.1147 1120.2839), rotate(-180)"/>
<use href="#cd_shape_2" transform="translate(2597.0776 3195.9216), rotate(0)"/>
<use href="#cd_shape_5" transform="translate(3622.133 2756.5598), rotate(-180)"/>
<use href="#cd_shape_5" transform="translate(2196.4023 3825.2524), rotate(0)"/>
<use href="#cd_shape_5" transform="translate(5924.887 1274.508), rotate(-180)"/>
<use href="#cd_shape_6" transform="translate(3976.981 5024.6997), rotate(-180)"/>
<use href="#cd_shape_6" transform="translate(4815.1714 3317.3555), rotate(0)"/>
<use href="#cd_shape_6" transform="translate(3733.6758 3139.3003), rotate(0)"/>
<use href="#cd_shape_4" transform="translate(5437.9155 2894.2307), rotate(0)"/>
<use href="#cd_shape_4" transform="translate(1648.1514 4321.522), rotate(0)"/>
<use href="#cd_shape_4" transform="translate(2105.8374 4513.3496), rotate(-180)"/>
<use href="#cd_shape_4" transform="translate(2378.7778 3115.2292), rotate(-180)"/>
<use href="#cd_shape_4" transform="translate(4379.979 4161.2593), rotate(-180)"/>
<use href="#cd_shape_4" transform="translate(5028.1934 5436.7188), rotate(0)"/>
<use href="#cd_shape_7" transform="translate(3469.1313 609.212), rotate(-180)"/>
<use href="#cd_shape_7" transform="translate(4680.7285 4305.029), rotate(0)"/>
<use href="#cd_shape_7" transform="translate(3644.936 4273.347), rotate(0)"/>
<use href="#cd_shape_7" transform="translate(3664.5615 827.7358), rotate(0)"/>
<use href="#cd_shape_7" transform="translate(1586.8918 3695.7617), rotate(0)"/>
<use href="#cd_shape_7" transform="translate(5737.6416 4828.0054), rotate(0)"/>
<use href="#cd_shape_3" transform="translate(5379.976 5503.976), rotate(-180)"/>
<use href="#cd_shape_3" transform="translate(5922.1606 37.339294), rotate(-180)"/>
<use href="#cd_shape_3" transform="translate(2402.9434 5721.7373), rotate(0)"/>
<use href="#cd_shape_3" transform="translate(2370.2947 3503.2842), rotate(0)"/>
<use href="#cd_shape_3" transform="translate(2127.564 248.01526), rotate(0)"/>
<use href="#cd_shape_3" transform="translate(5502.686 2507.0405), rotate(-180)"/>
<use href="#cd_shape_1" transform="translate(1324.9397 610.2416), rotate(0)"/>
<use href="#cd_shape_1" transform="translate(4008.5325 5576.551), rotate(0)"/>
<use href="#cd_shape_1" transform="translate(3772.325 546.93274), rotate(0)"/>
<use href="#cd_shape_1" transform="translate(1895.9979 5668.021), rotate(0)"/>
<use href="#cd_shape_1" transform="translate(5926.6772 3673.2026), rotate(-180)"/>
<use href="#cd_shape_1" transform="translate(4660.99 356.61642), rotate(-180)"/>
<use href="#cd_shape_8" transform="translate(1712.2424 2867.2034), rotate(-180)"/>
<use href="#cd_shape_8" transform="translate(1615.2678 4995.9424), rotate(0)"/>
<use href="#cd_shape_8" transform="translate(1376.1583 4546.858), rotate(0)"/>
<use href="#cd_shape_8" transform="translate(5808.5386 5738.3525), rotate(0)"/>
<use href="#cd_shape_8" transform="translate(822.67804 4400.895), rotate(0)"/>
<use href="#cd_shape_8" transform="translate(5495.5503 4628.768), rotate(-180)"/>
<path d="M0,0 L5926.682,0 L5926.682,5752 L0,5752 z" fill="none" stroke="black" stroke-dasharray="14.667601 29.335201" stroke-linecap="round" stroke-linejoin="round" stroke-opacity="0.3" stroke-width="7.3338003"/>
</g>
<g id="surrogates">
<defs/>
</g>
<g id="collision_lines"/>
</g>
<text font-family="monospace" font-size="143.8" font-weight="500" x="0" y="-71.9">
h: 5752.000 | w: 5926.682 | d: 74.640% | final_swim
</text>
</g>
</svg>