<svg xmlns="http://www.w3.org/2000/svg" width="1500.00mm" height="3000.00mm" viewBox="0 0 1500.0000 3000.0000">
  <!-- 6big_sp8_builderon sheet 2 rendered from solver output placements and input outer_points -->
  <rect width="1500.0000" height="3000.0000" fill="#ffffff" stroke="#111827" stroke-width="2"/>
  <rect x="5.0000" y="5.0000" width="1490.0000" height="2990.0000" fill="none" stroke="#dc2626" stroke-width="1.5" stroke-dasharray="8,6"/>
  <path d="M 1153.829 1345.427 L 1157.895 1545.825 L 1157.896 1545.981 L 1157.892 1546.137 L 1157.883 1546.293 L 1157.869 1546.449 L 1157.850 1546.604 L 1157.827 1546.758 L 1157.798 1546.912 L 1157.765 1547.065 L 1157.727 1547.216 L 1157.684 1547.366 L 1157.637 1547.515 L 1157.585 1547.663 L 1136.734 1603.967 L 1139.824 1612.621 L 1141.794 1621.597 L 1142.614 1630.750 L 1142.268 1639.933 L 1140.764 1648.998 L 1138.125 1657.801 L 1134.394 1666.199 L 1129.631 1674.057 L 1123.912 1681.250 L 1117.329 1687.662 L 1109.988 1693.189 L 1102.006 1697.743 L 1071.195 1780.944 L 1069.235 1785.522 L 1066.829 1789.883 L 1064.001 1793.983 L 1060.779 1797.782 L 1057.196 1801.241 L 1053.286 1804.326 L 1049.088 1807.007 L 1044.645 1809.257 L 1040.000 1811.053 L 1035.199 1812.379 L 1030.290 1813.221 L 1025.321 1813.570 L 955.314 1814.990 L 954.011 1815.102 L 952.734 1815.383 L 951.504 1815.829 L 950.343 1816.431 L 949.270 1817.180 L 948.304 1818.062 L 947.462 1819.063 L 946.757 1820.165 L 946.203 1821.350 L 945.808 1822.596 L 945.578 1823.884 L 945.519 1825.191 L 951.910 2140.126 L 951.977 2141.094 L 952.137 2142.051 L 952.389 2142.988 L 952.731 2143.896 L 953.159 2144.767 L 953.670 2145.592 L 954.258 2146.363 L 954.918 2147.074 L 955.644 2147.718 L 956.429 2148.288 L 957.265 2148.780 L 958.145 2149.188 L 1015.328 2172.412 L 1019.729 2174.453 L 1023.911 2176.912 L 1027.836 2179.763 L 1031.465 2182.982 L 1034.766 2186.538 L 1037.706 2190.396 L 1040.259 2194.521 L 1042.399 2198.874 L 1044.108 2203.414 L 1045.369 2208.099 L 1046.170 2212.883 L 1046.504 2217.723 L 1054.141 2594.103 L 1054.176 2594.757 L 1054.254 2595.407 L 1054.373 2596.050 L 1054.535 2596.684 L 1054.737 2597.306 L 1054.980 2597.914 L 1055.262 2598.504 L 1055.582 2599.075 L 1055.939 2599.624 L 1056.331 2600.148 L 1056.756 2600.645 L 1057.213 2601.114 L 1061.439 2605.171 L 1061.896 2605.639 L 1062.321 2606.137 L 1062.713 2606.661 L 1063.070 2607.209 L 1063.390 2607.780 L 1063.672 2608.370 L 1063.915 2608.978 L 1064.117 2609.600 L 1064.279 2610.234 L 1064.398 2610.878 L 1064.476 2611.528 L 1064.510 2612.181 L 1066.574 2713.876 L 1066.566 2714.530 L 1066.515 2715.183 L 1066.422 2715.830 L 1066.286 2716.470 L 1066.109 2717.100 L 1065.891 2717.717 L 1065.633 2718.319 L 1065.336 2718.902 L 1065.002 2719.465 L 1064.631 2720.004 L 1064.227 2720.518 L 1063.789 2721.005 L 1054.834 2730.331 L 1054.366 2730.787 L 1053.869 2731.213 L 1053.345 2731.605 L 1052.796 2731.961 L 1052.225 2732.282 L 1051.635 2732.564 L 1051.027 2732.807 L 1050.405 2733.009 L 1049.771 2733.171 L 1049.127 2733.290 L 1048.478 2733.368 L 1047.824 2733.402 L 1031.160 2733.740 L 1030.016 2733.830 L 1028.888 2734.050 L 1027.794 2734.397 L 1026.746 2734.868 L 1025.760 2735.456 L 1024.847 2736.153 L 1024.021 2736.950 L 1023.291 2737.837 L 1022.667 2738.801 L 1022.159 2739.830 L 1021.771 2740.912 L 1021.510 2742.030 L 994.650 2896.931 L 994.128 2899.168 L 993.354 2901.330 L 992.336 2903.389 L 991.089 2905.318 L 989.629 2907.091 L 987.976 2908.685 L 986.151 2910.079 L 984.178 2911.255 L 982.083 2912.196 L 979.894 2912.892 L 977.640 2913.331 L 975.350 2913.510 L 846.059 2916.133 L 845.942 2916.139 L 845.826 2916.152 L 845.710 2916.171 L 845.597 2916.197 L 845.484 2916.230 L 845.374 2916.269 L 845.267 2916.315 L 845.162 2916.366 L 845.060 2916.424 L 844.962 2916.488 L 844.868 2916.557 L 844.778 2916.632 L 836.675 2923.461 L 828.288 2929.939 L 819.632 2936.052 L 810.722 2941.790 L 801.576 2947.141 L 792.209 2952.098 L 782.639 2956.649 L 772.883 2960.788 L 762.959 2964.506 L 752.886 2967.796 L 742.681 2970.654 L 732.364 2973.072 L 732.473 2978.451 L 1065.804 2971.687 L 1065.378 2950.691 L 1072.377 2950.549 L 1072.803 2971.545 L 1229.771 2968.359 L 1229.345 2947.364 L 1236.343 2947.222 L 1236.769 2968.217 L 1465.122 2963.584 L 1465.013 2958.205 L 1454.599 2956.210 L 1444.280 2953.772 L 1434.075 2950.894 L 1424.002 2947.583 L 1414.079 2943.845 L 1404.326 2939.686 L 1394.759 2935.113 L 1385.397 2930.136 L 1376.255 2924.763 L 1367.352 2919.005 L 1358.703 2912.871 L 1350.324 2906.373 L 1350.231 2906.302 L 1350.134 2906.237 L 1350.034 2906.177 L 1349.930 2906.123 L 1349.823 2906.076 L 1349.714 2906.035 L 1349.602 2906.000 L 1349.489 2905.972 L 1349.374 2905.951 L 1349.258 2905.936 L 1349.141 2905.928 L 1349.024 2905.927 L 1260.547 2907.723 L 1257.933 2907.604 L 1255.358 2907.146 L 1252.864 2906.356 L 1250.494 2905.246 L 1248.290 2903.837 L 1246.289 2902.153 L 1244.524 2900.221 L 1243.027 2898.076 L 1241.822 2895.754 L 1240.931 2893.294 L 1240.369 2890.739 L 1240.145 2888.132 L 1239.831 2872.636 L 1209.837 2873.244 L 1208.530 2873.185 L 1207.242 2872.956 L 1205.995 2872.561 L 1204.811 2872.006 L 1203.708 2871.302 L 1202.708 2870.459 L 1201.826 2869.494 L 1201.077 2868.421 L 1200.475 2867.260 L 1200.029 2866.030 L 1199.748 2864.752 L 1199.636 2863.449 L 1198.419 2803.462 L 1198.478 2802.155 L 1198.707 2800.867 L 1199.102 2799.620 L 1199.657 2798.435 L 1200.361 2797.333 L 1201.204 2796.332 L 1202.169 2795.450 L 1203.242 2794.702 L 1204.403 2794.099 L 1205.633 2793.654 L 1206.910 2793.373 L 1208.214 2793.261 L 1238.208 2792.652 L 1224.314 2107.995 L 1224.305 2106.758 L 1224.325 2105.522 L 1224.377 2104.287 L 1224.458 2103.054 L 1224.571 2101.823 L 1224.713 2100.595 L 1224.886 2099.371 L 1225.090 2098.151 L 1225.323 2096.937 L 1225.586 2095.729 L 1225.879 2094.528 L 1226.202 2093.335 L 1338.803 1696.404 L 1339.125 1695.211 L 1339.418 1694.010 L 1339.682 1692.802 L 1339.915 1691.588 L 1340.118 1690.368 L 1340.291 1689.144 L 1340.434 1687.916 L 1340.546 1686.685 L 1340.628 1685.452 L 1340.680 1684.216 L 1340.700 1682.980 L 1340.690 1681.744 L 1337.968 1547.569 L 1336.990 1547.444 L 1336.136 1546.951 L 1335.539 1546.166 L 1335.292 1545.212 L 1335.433 1544.236 L 1335.941 1543.390 L 1336.736 1542.807 L 1337.695 1542.577 L 1338.668 1542.735 L 1339.504 1543.257 L 1340.074 1544.062 L 1340.288 1545.024 L 1394.277 1543.929 L 1394.208 1540.529 L 1394.190 1540.305 L 1394.148 1540.084 L 1394.081 1539.869 L 1393.990 1539.663 L 1393.877 1539.468 L 1393.742 1539.287 L 1393.589 1539.123 L 1393.417 1538.977 L 1393.230 1538.851 L 1393.031 1538.747 L 1392.820 1538.666 L 1392.602 1538.609 L 1384.975 1536.622 L 1377.619 1533.790 L 1370.628 1530.149 L 1364.090 1525.745 L 1358.090 1520.633 L 1352.702 1514.880 L 1347.995 1508.557 L 1344.028 1501.745 L 1340.853 1494.531 L 1338.509 1487.005 L 1337.026 1479.264 L 1336.422 1471.404 L 1322.870 803.533 L 1194.856 477.837 L 1194.752 477.560 L 1194.657 477.281 L 1194.569 476.999 L 1194.490 476.715 L 1194.420 476.428 L 1194.357 476.140 L 1194.304 475.849 L 1194.259 475.558 L 1194.222 475.265 L 1194.195 474.971 L 1194.176 474.676 L 1194.165 474.381 L 1193.601 446.581 L 1184.603 446.763 L 1184.966 464.660 L 1184.958 465.305 L 1184.909 465.948 L 1184.819 466.587 L 1184.687 467.218 L 1184.515 467.840 L 1184.303 468.449 L 1184.052 469.044 L 1183.764 469.621 L 1183.439 470.178 L 1183.079 470.713 L 1182.685 471.223 L 1182.259 471.708 L 1169.736 483.976 L 1156.235 495.157 L 1141.848 505.173 L 1126.675 513.954 L 1110.823 521.440 L 1094.402 527.577 L 1077.527 532.323 L 1060.314 535.644 L 1042.884 537.519 L 1025.359 537.934 L 1007.860 536.885 L 990.509 534.380 L 973.428 530.437 L 956.735 525.084 L 940.547 518.356 L 924.977 510.302 L 910.132 500.977 L 908.827 500.128 L 907.479 499.348 L 906.093 498.639 L 904.672 498.003 L 903.220 497.441 L 901.740 496.956 L 900.237 496.547 L 898.716 496.218 L 897.179 495.968 L 895.631 495.797 L 894.076 495.708 L 892.519 495.699 L 810.553 497.362 L 809.249 497.474 L 807.972 497.755 L 806.742 498.201 L 805.581 498.803 L 804.508 499.552 L 803.542 500.434 L 802.700 501.435 L 801.995 502.537 L 801.441 503.722 L 801.046 504.969 L 800.817 506.256 L 800.757 507.563 L 801.120 525.409 L 801.232 526.712 L 801.513 527.990 L 801.958 529.220 L 802.560 530.381 L 803.309 531.453 L 804.191 532.419 L 805.192 533.262 L 806.294 533.966 L 807.479 534.521 L 808.726 534.916 L 810.014 535.145 L 811.320 535.204 L 816.319 535.103 L 824.137 535.713 L 831.685 537.836 L 838.674 541.392 L 844.836 546.242 L 849.932 552.201 L 853.768 559.040 L 856.196 566.496 L 857.123 574.283 L 856.513 582.101 L 854.389 589.649 L 850.834 596.638 L 845.983 602.799 L 840.024 607.895 L 833.185 611.731 L 825.729 614.159 L 817.942 615.086 L 812.943 615.188 L 811.640 615.300 L 810.363 615.581 L 809.133 616.026 L 807.972 616.629 L 806.899 617.377 L 805.933 618.259 L 805.091 619.260 L 804.386 620.362 L 803.832 621.547 L 803.437 622.794 L 803.208 624.082 L 803.148 625.388 L 803.554 645.384 L 803.666 646.688 L 803.947 647.965 L 804.393 649.195 L 804.995 650.356 L 805.744 651.429 L 806.626 652.394 L 807.627 653.237 L 808.729 653.941 L 809.914 654.496 L 811.160 654.891 L 812.448 655.120 L 813.755 655.179 L 818.754 655.078 L 826.572 655.688 L 834.120 657.812 L 841.109 661.367 L 847.270 666.217 L 852.367 672.177 L 856.203 679.016 L 858.631 686.472 L 859.557 694.258 L 858.947 702.076 L 856.824 709.624 L 853.268 716.613 L 848.418 722.774 L 842.458 727.871 L 835.619 731.707 L 828.163 734.135 L 820.377 735.061 L 815.378 735.163 L 814.075 735.275 L 812.797 735.556 L 811.567 736.002 L 810.406 736.604 L 809.334 737.352 L 808.368 738.235 L 807.526 739.235 L 806.821 740.338 L 806.266 741.522 L 805.871 742.769 L 805.642 744.057 L 805.583 745.364 L 806.093 770.503 L 806.205 771.806 L 806.486 773.083 L 806.932 774.313 L 807.534 775.474 L 808.283 776.547 L 809.165 777.513 L 810.166 778.355 L 811.268 779.060 L 812.452 779.614 L 813.699 780.010 L 814.987 780.239 L 816.294 780.298 L 1022.252 776.118 L 1035.700 776.600 L 1049.010 778.585 L 1062.014 782.047 L 1074.548 786.943 L 1086.455 793.212 L 1097.586 800.775 L 1107.800 809.537 L 1116.969 819.387 L 1124.977 830.202 L 1131.724 841.845 L 1137.125 854.170 L 1141.112 867.023 L 1143.634 880.241 L 1144.661 893.659 L 1151.901 1250.446 L 1157.916 1256.890 L 1163.024 1264.075 L 1167.135 1271.872 L 1170.178 1280.145 L 1172.098 1288.749 L 1172.861 1297.531 L 1172.454 1306.336 L 1170.885 1315.010 L 1168.181 1323.400 L 1164.389 1331.358 L 1159.577 1338.744 Z" fill="#f28e2b" fill-opacity="0.68" stroke="#1f2937" stroke-width="0.45" data-part-id="Lv8_11612_6db" data-instance-id="Lv8_11612_6db__0001" data-rotation-deg="91.162500"/>
  <path d="M 463.400 1370.854 L 463.400 1571.293 L 463.398 1571.449 L 463.390 1571.605 L 463.378 1571.761 L 463.361 1571.916 L 463.339 1572.071 L 463.312 1572.225 L 463.281 1572.378 L 463.245 1572.530 L 463.204 1572.681 L 463.158 1572.830 L 463.108 1572.978 L 463.053 1573.124 L 441.064 1628.994 L 443.977 1637.709 L 445.765 1646.723 L 446.398 1655.891 L 445.867 1665.065 L 444.179 1674.098 L 441.362 1682.845 L 437.462 1691.165 L 432.540 1698.926 L 426.676 1706.001 L 419.964 1712.278 L 412.513 1717.655 L 404.440 1722.046 L 371.947 1804.605 L 369.895 1809.143 L 367.401 1813.454 L 364.490 1817.496 L 361.192 1821.228 L 357.539 1824.613 L 353.567 1827.618 L 349.316 1830.214 L 344.828 1832.373 L 340.148 1834.075 L 335.321 1835.303 L 330.396 1836.045 L 325.421 1836.293 L 255.400 1836.293 L 254.095 1836.379 L 252.812 1836.634 L 251.573 1837.054 L 250.400 1837.633 L 249.312 1838.360 L 248.329 1839.222 L 247.467 1840.205 L 246.740 1841.293 L 246.161 1842.466 L 245.741 1843.705 L 245.486 1844.988 L 245.400 1846.293 L 245.400 2161.293 L 245.447 2162.262 L 245.588 2163.222 L 245.821 2164.164 L 246.144 2165.079 L 246.555 2165.958 L 247.048 2166.793 L 247.621 2167.576 L 248.266 2168.301 L 248.979 2168.959 L 249.752 2169.545 L 250.578 2170.054 L 251.450 2170.480 L 308.150 2194.859 L 312.508 2196.989 L 316.640 2199.532 L 320.506 2202.463 L 324.069 2205.754 L 327.297 2209.376 L 330.158 2213.293 L 332.627 2217.469 L 334.679 2221.865 L 336.295 2226.439 L 337.461 2231.148 L 338.165 2235.948 L 338.400 2240.793 L 338.400 2617.251 L 338.421 2617.905 L 338.486 2618.556 L 338.592 2619.202 L 338.741 2619.839 L 338.931 2620.465 L 339.161 2621.078 L 339.431 2621.674 L 339.740 2622.251 L 340.085 2622.807 L 340.466 2623.339 L 340.882 2623.844 L 341.329 2624.322 L 345.471 2628.464 L 345.918 2628.942 L 346.333 2629.448 L 346.715 2629.979 L 347.060 2630.535 L 347.369 2631.112 L 347.639 2631.708 L 347.869 2632.321 L 348.059 2632.947 L 348.208 2633.584 L 348.314 2634.230 L 348.379 2634.881 L 348.400 2635.535 L 348.400 2737.251 L 348.379 2737.905 L 348.314 2738.556 L 348.208 2739.202 L 348.059 2739.839 L 347.869 2740.465 L 347.639 2741.078 L 347.369 2741.674 L 347.060 2742.251 L 346.715 2742.807 L 346.333 2743.339 L 345.918 2743.844 L 345.471 2744.322 L 336.329 2753.464 L 335.851 2753.911 L 335.345 2754.327 L 334.814 2754.708 L 334.258 2755.053 L 333.681 2755.362 L 333.085 2755.632 L 332.472 2755.862 L 331.846 2756.052 L 331.209 2756.201 L 330.563 2756.307 L 329.912 2756.372 L 329.258 2756.393 L 312.591 2756.393 L 311.444 2756.459 L 310.313 2756.656 L 309.212 2756.981 L 308.155 2757.431 L 307.157 2757.998 L 306.230 2758.677 L 305.387 2759.457 L 304.639 2760.329 L 303.997 2761.280 L 303.467 2762.299 L 303.058 2763.372 L 302.774 2764.485 L 272.777 2918.809 L 272.210 2921.035 L 271.391 2923.181 L 270.332 2925.219 L 269.047 2927.122 L 267.551 2928.865 L 265.866 2930.426 L 264.013 2931.782 L 262.016 2932.918 L 259.903 2933.817 L 257.700 2934.467 L 255.437 2934.861 L 253.144 2934.993 L 123.827 2934.993 L 123.710 2934.996 L 123.593 2935.007 L 123.478 2935.024 L 123.363 2935.047 L 123.250 2935.078 L 123.139 2935.115 L 123.031 2935.158 L 122.925 2935.208 L 122.822 2935.263 L 122.723 2935.325 L 122.627 2935.392 L 122.536 2935.465 L 114.296 2942.129 L 105.779 2948.435 L 97.001 2954.371 L 87.977 2959.927 L 78.724 2965.092 L 69.258 2969.857 L 59.598 2974.214 L 49.760 2978.154 L 39.763 2981.670 L 29.625 2984.755 L 19.364 2987.405 L 9.000 2989.614 L 9.000 2994.993 L 342.400 2994.993 L 342.400 2973.993 L 349.400 2973.993 L 349.400 2994.993 L 506.400 2994.993 L 506.400 2973.993 L 513.400 2973.993 L 513.400 2994.993 L 741.800 2994.993 L 741.800 2989.614 L 731.429 2987.408 L 721.161 2984.760 L 711.016 2981.677 L 701.013 2978.162 L 691.168 2974.223 L 681.501 2969.867 L 672.029 2965.101 L 662.769 2959.935 L 653.739 2954.378 L 644.954 2948.440 L 636.432 2942.132 L 628.186 2935.465 L 628.095 2935.392 L 627.999 2935.325 L 627.900 2935.263 L 627.797 2935.208 L 627.691 2935.158 L 627.583 2935.115 L 627.472 2935.078 L 627.359 2935.047 L 627.245 2935.024 L 627.129 2935.007 L 627.013 2934.996 L 626.896 2934.993 L 538.400 2934.993 L 535.789 2934.822 L 533.224 2934.312 L 530.746 2933.471 L 528.400 2932.314 L 526.225 2930.860 L 524.258 2929.135 L 522.533 2927.168 L 521.079 2924.993 L 519.922 2922.647 L 519.082 2920.169 L 518.571 2917.604 L 518.400 2914.993 L 518.400 2899.493 L 488.400 2899.493 L 487.095 2899.407 L 485.812 2899.152 L 484.573 2898.732 L 483.400 2898.153 L 482.312 2897.427 L 481.329 2896.564 L 480.466 2895.581 L 479.740 2894.493 L 479.161 2893.320 L 478.741 2892.081 L 478.486 2890.798 L 478.400 2889.493 L 478.400 2829.493 L 478.486 2828.188 L 478.741 2826.905 L 479.161 2825.666 L 479.740 2824.493 L 480.466 2823.405 L 481.329 2822.422 L 482.312 2821.560 L 483.400 2820.833 L 484.573 2820.254 L 485.812 2819.834 L 487.095 2819.579 L 488.400 2819.493 L 518.400 2819.493 L 518.400 2134.695 L 518.415 2133.459 L 518.461 2132.223 L 518.537 2130.989 L 518.644 2129.758 L 518.782 2128.529 L 518.949 2127.304 L 519.147 2126.084 L 519.375 2124.869 L 519.633 2123.660 L 519.921 2122.458 L 520.238 2121.263 L 520.585 2120.076 L 641.215 1725.512 L 641.562 1724.325 L 641.879 1723.130 L 642.167 1721.928 L 642.425 1720.719 L 642.653 1719.504 L 642.851 1718.284 L 643.018 1717.059 L 643.156 1715.830 L 643.263 1714.598 L 643.339 1713.365 L 643.385 1712.129 L 643.400 1710.893 L 643.400 1576.690 L 642.425 1576.545 L 641.581 1576.035 L 641.000 1575.238 L 640.773 1574.279 L 640.934 1573.306 L 641.458 1572.471 L 642.265 1571.904 L 643.228 1571.693 L 644.198 1571.871 L 645.024 1572.410 L 645.577 1573.226 L 645.771 1574.193 L 699.771 1574.193 L 699.771 1570.793 L 699.758 1570.568 L 699.721 1570.346 L 699.658 1570.130 L 699.571 1569.922 L 699.462 1569.725 L 699.331 1569.542 L 699.181 1569.374 L 699.012 1569.225 L 698.828 1569.095 L 698.630 1568.987 L 698.422 1568.902 L 698.205 1568.841 L 690.619 1566.699 L 683.322 1563.718 L 676.407 1559.936 L 669.960 1555.400 L 664.064 1550.168 L 658.794 1544.307 L 654.216 1537.890 L 650.389 1530.999 L 647.361 1523.722 L 645.170 1516.150 L 643.844 1508.380 L 643.400 1500.510 L 643.400 832.501 L 522.021 504.274 L 521.923 503.996 L 521.833 503.715 L 521.751 503.431 L 521.678 503.145 L 521.613 502.858 L 521.556 502.568 L 521.509 502.276 L 521.470 501.984 L 521.439 501.690 L 521.417 501.396 L 521.404 501.101 L 521.400 500.806 L 521.400 472.999 L 512.400 472.999 L 512.400 490.900 L 512.379 491.545 L 512.317 492.187 L 512.213 492.823 L 512.069 493.452 L 511.884 494.070 L 511.660 494.675 L 511.398 495.264 L 511.097 495.835 L 510.761 496.386 L 510.390 496.913 L 509.986 497.416 L 509.550 497.891 L 496.782 509.903 L 483.056 520.808 L 468.469 530.530 L 453.121 539.002 L 437.121 546.164 L 420.578 551.966 L 403.610 556.369 L 386.333 559.341 L 368.869 560.862 L 351.339 560.920 L 333.865 559.517 L 316.569 556.661 L 299.571 552.372 L 282.990 546.681 L 266.942 539.626 L 251.538 531.258 L 236.886 521.634 L 235.598 520.759 L 234.267 519.951 L 232.895 519.214 L 231.487 518.549 L 230.046 517.958 L 228.577 517.443 L 227.083 517.004 L 225.568 516.644 L 224.037 516.362 L 222.493 516.161 L 220.940 516.040 L 219.384 515.999 L 137.400 515.999 L 136.095 516.085 L 134.812 516.340 L 133.573 516.761 L 132.400 517.339 L 131.312 518.066 L 130.329 518.928 L 129.467 519.912 L 128.740 520.999 L 128.161 522.173 L 127.741 523.411 L 127.486 524.694 L 127.400 525.999 L 127.400 543.849 L 127.486 545.154 L 127.741 546.437 L 128.161 547.676 L 128.740 548.849 L 129.467 549.937 L 130.329 550.920 L 131.312 551.783 L 132.400 552.509 L 133.573 553.088 L 134.812 553.508 L 136.095 553.763 L 137.400 553.849 L 142.400 553.849 L 150.204 554.618 L 157.707 556.894 L 164.623 560.590 L 170.684 565.565 L 175.659 571.626 L 179.355 578.542 L 181.631 586.045 L 182.400 593.849 L 181.631 601.653 L 179.355 609.156 L 175.659 616.072 L 170.684 622.133 L 164.623 627.108 L 157.707 630.804 L 150.204 633.080 L 142.400 633.849 L 137.400 633.849 L 136.095 633.935 L 134.812 634.190 L 133.573 634.610 L 132.400 635.189 L 131.312 635.915 L 130.329 636.778 L 129.467 637.761 L 128.740 638.849 L 128.161 640.022 L 127.741 641.261 L 127.486 642.544 L 127.400 643.849 L 127.400 663.849 L 127.486 665.154 L 127.741 666.437 L 128.161 667.676 L 128.740 668.849 L 129.467 669.937 L 130.329 670.920 L 131.312 671.783 L 132.400 672.509 L 133.573 673.088 L 134.812 673.508 L 136.095 673.763 L 137.400 673.849 L 142.400 673.849 L 150.204 674.618 L 157.707 676.894 L 164.623 680.590 L 170.684 685.565 L 175.659 691.626 L 179.355 698.542 L 181.631 706.045 L 182.400 713.849 L 181.631 721.653 L 179.355 729.156 L 175.659 736.072 L 170.684 742.133 L 164.623 747.108 L 157.707 750.804 L 150.204 753.080 L 142.400 753.849 L 137.400 753.849 L 136.095 753.935 L 134.812 754.190 L 133.573 754.610 L 132.400 755.189 L 131.312 755.915 L 130.329 756.778 L 129.467 757.761 L 128.740 758.849 L 128.161 760.022 L 127.741 761.261 L 127.486 762.544 L 127.400 763.849 L 127.400 788.993 L 127.486 790.298 L 127.741 791.581 L 128.161 792.820 L 128.740 793.993 L 129.467 795.081 L 130.329 796.064 L 131.312 796.927 L 132.400 797.653 L 133.573 798.232 L 134.812 798.652 L 136.095 798.907 L 137.400 798.993 L 343.400 798.993 L 356.836 799.748 L 370.103 802.002 L 383.034 805.727 L 395.466 810.877 L 407.244 817.386 L 418.219 825.173 L 428.253 834.140 L 437.220 844.174 L 445.007 855.149 L 451.516 866.927 L 456.666 879.360 L 460.391 892.291 L 462.646 905.557 L 463.400 918.993 L 463.400 1275.854 L 469.283 1282.419 L 474.244 1289.705 L 478.196 1297.584 L 481.070 1305.917 L 482.815 1314.558 L 483.400 1323.354 L 482.815 1332.149 L 481.070 1340.790 L 478.196 1349.123 L 474.244 1357.002 L 469.283 1364.289 Z" fill="#f28e2b" fill-opacity="0.68" stroke="#1f2937" stroke-width="0.45" data-part-id="Lv8_11612_6db" data-instance-id="Lv8_11612_6db__0004" data-rotation-deg="90.000000"/>
  <text x="8" y="28" font-family="Arial, sans-serif" font-size="26" fill="#111827">6big_sp8_builderon sheet 2 placed=2</text>
</svg>
