  0
SECTION
  2
HEADER
  9
$ACADVER
  1
AC1024
  9
$ACADMAINTVER
 70
6
  9
$DWGCODEPAGE
  3
ANSI_1252
  9
$LASTSAVEDBY
  1
ezdxf
  9
$INSBASE
 10
0.0
 20
0.0
 30
0.0
  9
$EXTMIN
 10
1e+20
 20
1e+20
 30
1e+20
  9
$EXTMAX
 10
-1e+20
 20
-1e+20
 30
-1e+20
  9
$LIMMIN
 10
0.0
 20
0.0
  9
$LIMMAX
 10
420.0
 20
297.0
  9
$ORTHOMODE
 70
0
  9
$REGENMODE
 70
1
  9
$FILLMODE
 70
1
  9
$QTEXTMODE
 70
0
  9
$MIRRTEXT
 70
1
  9
$LTSCALE
 40
1.0
  9
$ATTMODE
 70
1
  9
$TEXTSIZE
 40
2.5
  9
$TRACEWID
 40
1.0
  9
$TEXTSTYLE
  7
Standard
  9
$CLAYER
  8
0
  9
$CELTYPE
  6
ByLayer
  9
$CECOLOR
 62
256
  9
$CELTSCALE
 40
1.0
  9
$DISPSILH
 70
0
  9
$DIMSCALE
 40
1.0
  9
$DIMASZ
 40
2.5
  9
$DIMEXO
 40
0.625
  9
$DIMDLI
 40
3.75
  9
$DIMRND
 40
0.0
  9
$DIMDLE
 40
0.0
  9
$DIMEXE
 40
1.25
  9
$DIMTP
 40
0.0
  9
$DIMTM
 40
0.0
  9
$DIMTXT
 40
2.5
  9
$DIMCEN
 40
2.5
  9
$DIMTSZ
 40
0.0
  9
$DIMTOL
 70
0
  9
$DIMLIM
 70
0
  9
$DIMTIH
 70
0
  9
$DIMTOH
 70
0
  9
$DIMSE1
 70
0
  9
$DIMSE2
 70
0
  9
$DIMTAD
 70
1
  9
$DIMZIN
 70
8
  9
$DIMBLK
  1

  9
$DIMASO
 70
1
  9
$DIMSHO
 70
1
  9
$DIMPOST
  1

  9
$DIMAPOST
  1

  9
$DIMALT
 70
0
  9
$DIMALTD
 70
3
  9
$DIMALTF
 40
0.03937007874
  9
$DIMLFAC
 40
1.0
  9
$DIMTOFL
 70
1
  9
$DIMTVP
 40
0.0
  9
$DIMTIX
 70
0
  9
$DIMSOXD
 70
0
  9
$DIMSAH
 70
0
  9
$DIMBLK1
  1

  9
$DIMBLK2
  1

  9
$DIMSTYLE
  2
ISO-25
  9
$DIMCLRD
 70
0
  9
$DIMCLRE
 70
0
  9
$DIMCLRT
 70
0
  9
$DIMTFAC
 40
1.0
  9
$DIMGAP
 40
0.625
  9
$DIMJUST
 70
0
  9
$DIMSD1
 70
0
  9
$DIMSD2
 70
0
  9
$DIMTOLJ
 70
0
  9
$DIMTZIN
 70
8
  9
$DIMALTZ
 70
0
  9
$DIMALTTZ
 70
0
  9
$DIMUPT
 70
0
  9
$DIMDEC
 70
2
  9
$DIMTDEC
 70
2
  9
$DIMALTU
 70
2
  9
$DIMALTTD
 70
3
  9
$DIMTXSTY
  7
Standard
  9
$DIMAUNIT
 70
0
  9
$DIMADEC
 70
0
  9
$DIMALTRND
 40
0.0
  9
$DIMAZIN
 70
0
  9
$DIMDSEP
 70
44
  9
$DIMATFIT
 70
3
  9
$DIMFRAC
 70
0
  9
$DIMLDRBLK
  1

  9
$DIMLUNIT
 70
2
  9
$DIMLWD
 70
-2
  9
$DIMLWE
 70
-2
  9
$DIMTMOVE
 70
0
  9
$DIMFXL
 40
1.0
  9
$DIMFXLON
 70
0
  9
$DIMJOGANG
 40
0.785398163397
  9
$DIMTFILL
 70
0
  9
$DIMTFILLCLR
 70
0
  9
$DIMARCSYM
 70
0
  9
$DIMLTYPE
  6

  9
$DIMLTEX1
  6

  9
$DIMLTEX2
  6

  9
$DIMTXTDIRECTION
 70
0
  9
$LUNITS
 70
2
  9
$LUPREC
 70
4
  9
$SKETCHINC
 40
1.0
  9
$FILLETRAD
 40
10.0
  9
$AUNITS
 70
0
  9
$AUPREC
 70
2
  9
$MENU
  1
.
  9
$ELEVATION
 40
0.0
  9
$PELEVATION
 40
0.0
  9
$THICKNESS
 40
0.0
  9
$LIMCHECK
 70
0
  9
$CHAMFERA
 40
0.0
  9
$CHAMFERB
 40
0.0
  9
$CHAMFERC
 40
0.0
  9
$CHAMFERD
 40
0.0
  9
$SKPOLY
 70
0
  9
$TDCREATE
 40
2461162.7609722223
  9
$TDUCREATE
 40
2458532.153996898
  9
$TDUPDATE
 40
2461162.7609722223
  9
$TDUUPDATE
 40
2458532.1544311
  9
$TDINDWG
 40
0.0
  9
$TDUSRTIMER
 40
0.0
  9
$USRTIMER
 70
1
  9
$ANGBASE
 50
0.0
  9
$ANGDIR
 70
0
  9
$PDMODE
 70
0
  9
$PDSIZE
 40
0.0
  9
$PLINEWID
 40
0.0
  9
$SPLFRAME
 70
0
  9
$SPLINETYPE
 70
6
  9
$SPLINESEGS
 70
8
  9
$HANDSEED
  5
3F
  9
$SURFTAB1
 70
6
  9
$SURFTAB2
 70
6
  9
$SURFTYPE
 70
6
  9
$SURFU
 70
6
  9
$SURFV
 70
6
  9
$UCSBASE
  2

  9
$UCSNAME
  2

  9
$UCSORG
 10
0.0
 20
0.0
 30
0.0
  9
$UCSXDIR
 10
1.0
 20
0.0
 30
0.0
  9
$UCSYDIR
 10
0.0
 20
1.0
 30
0.0
  9
$UCSORTHOREF
  2

  9
$UCSORTHOVIEW
 70
0
  9
$UCSORGTOP
 10
0.0
 20
0.0
 30
0.0
  9
$UCSORGBOTTOM
 10
0.0
 20
0.0
 30
0.0
  9
$UCSORGLEFT
 10
0.0
 20
0.0
 30
0.0
  9
$UCSORGRIGHT
 10
0.0
 20
0.0
 30
0.0
  9
$UCSORGFRONT
 10
0.0
 20
0.0
 30
0.0
  9
$UCSORGBACK
 10
0.0
 20
0.0
 30
0.0
  9
$PUCSBASE
  2

  9
$PUCSNAME
  2

  9
$PUCSORG
 10
0.0
 20
0.0
 30
0.0
  9
$PUCSXDIR
 10
1.0
 20
0.0
 30
0.0
  9
$PUCSYDIR
 10
0.0
 20
1.0
 30
0.0
  9
$PUCSORTHOREF
  2

  9
$PUCSORTHOVIEW
 70
0
  9
$PUCSORGTOP
 10
0.0
 20
0.0
 30
0.0
  9
$PUCSORGBOTTOM
 10
0.0
 20
0.0
 30
0.0
  9
$PUCSORGLEFT
 10
0.0
 20
0.0
 30
0.0
  9
$PUCSORGRIGHT
 10
0.0
 20
0.0
 30
0.0
  9
$PUCSORGFRONT
 10
0.0
 20
0.0
 30
0.0
  9
$PUCSORGBACK
 10
0.0
 20
0.0
 30
0.0
  9
$USERI1
 70
0
  9
$USERI2
 70
0
  9
$USERI3
 70
0
  9
$USERI4
 70
0
  9
$USERI5
 70
0
  9
$USERR1
 40
0.0
  9
$USERR2
 40
0.0
  9
$USERR3
 40
0.0
  9
$USERR4
 40
0.0
  9
$USERR5
 40
0.0
  9
$WORLDVIEW
 70
1
  9
$SHADEDGE
 70
3
  9
$SHADEDIF
 70
70
  9
$TILEMODE
 70
1
  9
$MAXACTVP
 70
64
  9
$PINSBASE
 10
0.0
 20
0.0
 30
0.0
  9
$PLIMCHECK
 70
0
  9
$PEXTMIN
 10
1e+20
 20
1e+20
 30
1e+20
  9
$PEXTMAX
 10
-1e+20
 20
-1e+20
 30
-1e+20
  9
$PLIMMIN
 10
0.0
 20
0.0
  9
$PLIMMAX
 10
420.0
 20
297.0
  9
$UNITMODE
 70
0
  9
$VISRETAIN
 70
1
  9
$PLINEGEN
 70
0
  9
$PSLTSCALE
 70
1
  9
$TREEDEPTH
 70
3020
  9
$CMLSTYLE
  2
Standard
  9
$CMLJUST
 70
0
  9
$CMLSCALE
 40
20.0
  9
$PROXYGRAPHICS
 70
1
  9
$MEASUREMENT
 70
1
  9
$CELWEIGHT
370
-1
  9
$ENDCAPS
280
0
  9
$JOINSTYLE
280
0
  9
$LWDISPLAY
290
0
  9
$INSUNITS
 70
4
  9
$HYPERLINKBASE
  1

  9
$STYLESHEET
  1

  9
$XEDIT
290
1
  9
$CEPSNTYPE
380
0
  9
$PSTYLEMODE
290
1
  9
$FINGERPRINTGUID
  2
{20089403-B28E-472D-B220-0F6A049795CF}
  9
$VERSIONGUID
  2
{1388CA4C-B114-4EC4-93D1-20C2B1E03024}
  9
$EXTNAMES
290
1
  9
$PSVPSCALE
 40
0.0
  9
$OLESTARTUP
290
0
  9
$SORTENTS
280
127
  9
$INDEXCTL
280
0
  9
$HIDETEXT
280
1
  9
$XCLIPFRAME
280
1
  9
$HALOGAP
280
0
  9
$OBSCOLOR
 70
257
  9
$OBSLTYPE
280
0
  9
$INTERSECTIONDISPLAY
280
0
  9
$INTERSECTIONCOLOR
 70
257
  9
$DIMASSOC
280
2
  9
$PROJECTNAME
  1

  9
$CAMERADISPLAY
290
0
  9
$LENSLENGTH
 40
50.0
  9
$CAMERAHEIGHT
 40
0.0
  9
$STEPSPERSEC
 40
24.0
  9
$STEPSIZE
 40
100.0
  9
$3DDWFPREC
 40
2.0
  9
$PSOLWIDTH
 40
0.005
  9
$PSOLHEIGHT
 40
0.08
  9
$LOFTANG1
 40
1.570796326795
  9
$LOFTANG2
 40
1.570796326795
  9
$LOFTMAG1
 40
0.0
  9
$LOFTMAG2
 40
0.0
  9
$LOFTPARAM
 70
7
  9
$LOFTNORMALS
280
1
  9
$LATITUDE
 40
37.795
  9
$LONGITUDE
 40
-122.394
  9
$NORTHDIRECTION
 40
0.0
  9
$TIMEZONE
 70
-8000
  9
$LIGHTGLYPHDISPLAY
280
1
  9
$TILEMODELIGHTSYNCH
280
1
  9
$CMATERIAL
347
20
  9
$SOLIDHIST
280
0
  9
$SHOWHIST
280
1
  9
$DWFFRAME
280
2
  9
$DGNFRAME
280
2
  9
$REALWORLDSCALE
290
1
  9
$INTERFERECOLOR
 62
256
  9
$CSHADOW
280
0
  9
$SHADOWPLANELOCATION
 40
0.0
  0
ENDSEC
  0
SECTION
  2
CLASSES
  0
CLASS
  1
ACDBDICTIONARYWDFLT
  2
AcDbDictionaryWithDefault
  3
ObjectDBX Classes
 90
0
 91
0
280
0
281
0
  0
CLASS
  1
SUN
  2
AcDbSun
  3
SCENEOE
 90
1153
 91
0
280
0
281
0
  0
CLASS
  1
VISUALSTYLE
  2
AcDbVisualStyle
  3
ObjectDBX Classes
 90
4095
 91
0
280
0
281
0
  0
CLASS
  1
MATERIAL
  2
AcDbMaterial
  3
ObjectDBX Classes
 90
1153
 91
0
280
0
281
0
  0
CLASS
  1
SCALE
  2
AcDbScale
  3
ObjectDBX Classes
 90
1153
 91
0
280
0
281
0
  0
CLASS
  1
TABLESTYLE
  2
AcDbTableStyle
  3
ObjectDBX Classes
 90
4095
 91
0
280
0
281
0
  0
CLASS
  1
MLEADERSTYLE
  2
AcDbMLeaderStyle
  3
ACDB_MLEADERSTYLE_CLASS
 90
4095
 91
0
280
0
281
0
  0
CLASS
  1
DICTIONARYVAR
  2
AcDbDictionaryVar
  3
ObjectDBX Classes
 90
0
 91
0
280
0
281
0
  0
CLASS
  1
CELLSTYLEMAP
  2
AcDbCellStyleMap
  3
ObjectDBX Classes
 90
1152
 91
0
280
0
281
0
  0
CLASS
  1
MENTALRAYRENDERSETTINGS
  2
AcDbMentalRayRenderSettings
  3
SCENEOE
 90
1024
 91
0
280
0
281
0
  0
CLASS
  1
ACDBDETAILVIEWSTYLE
  2
AcDbDetailViewStyle
  3
ObjectDBX Classes
 90
1025
 91
0
280
0
281
0
  0
CLASS
  1
ACDBSECTIONVIEWSTYLE
  2
AcDbSectionViewStyle
  3
ObjectDBX Classes
 90
1025
 91
0
280
0
281
0
  0
CLASS
  1
RASTERVARIABLES
  2
AcDbRasterVariables
  3
ISM
 90
0
 91
0
280
0
281
0
  0
CLASS
  1
ACDBPLACEHOLDER
  2
AcDbPlaceHolder
  3
ObjectDBX Classes
 90
0
 91
0
280
0
281
0
  0
CLASS
  1
LAYOUT
  2
AcDbLayout
  3
ObjectDBX Classes
 90
0
 91
0
280
0
281
0
  0
ENDSEC
  0
SECTION
  2
TABLES
  0
TABLE
  2
VPORT
  5
8
330
0
100
AcDbSymbolTable
 70
1
  0
VPORT
  5
23
330
8
100
AcDbSymbolTableRecord
100
AcDbViewportTableRecord
  2
*Active
 70
0
 10
0.0
 20
0.0
 11
1.0
 21
1.0
 12
0.0
 22
0.0
 13
0.0
 23
0.0
 14
0.5
 24
0.5
 15
0.5
 25
0.5
 16
0.0
 26
0.0
 36
1.0
 17
0.0
 27
0.0
 37
0.0
 40
1000.0
 41
1.34
 42
50.0
 43
0.0
 44
0.0
 50
0.0
 51
0.0
 71
0
 72
1000
 73
1
 74
3
 75
0
 76
0
 77
0
 78
0
281
0
 65
0
146
0.0
  0
ENDTAB
  0
TABLE
  2
LTYPE
  5
2
330
0
100
AcDbSymbolTable
 70
3
  0
LTYPE
  5
24
330
2
100
AcDbSymbolTableRecord
100
AcDbLinetypeTableRecord
  2
ByBlock
 70
0
  3

 72
65
 73
0
 40
0.0
  0
LTYPE
  5
25
330
2
100
AcDbSymbolTableRecord
100
AcDbLinetypeTableRecord
  2
ByLayer
 70
0
  3

 72
65
 73
0
 40
0.0
  0
LTYPE
  5
26
330
2
100
AcDbSymbolTableRecord
100
AcDbLinetypeTableRecord
  2
Continuous
 70
0
  3

 72
65
 73
0
 40
0.0
  0
ENDTAB
  0
TABLE
  2
LAYER
  5
1
330
0
100
AcDbSymbolTable
 70
5
  0
LAYER
  5
27
330
1
100
AcDbSymbolTableRecord
100
AcDbLayerTableRecord
  2
0
 70
0
 62
7
  6
Continuous
370
-3
390
13
347
21
  0
LAYER
  5
28
330
1
100
AcDbSymbolTableRecord
100
AcDbLayerTableRecord
  2
Defpoints
 70
0
 62
7
  6
Continuous
290
0
370
-3
390
13
347
21
  0
LAYER
  5
2F
330
1
100
AcDbSymbolTableRecord
100
AcDbLayerTableRecord
  2
CUT_OUTER
 70
0
 62
1
  6
Continuous
370
-3
390
13
347
21
  0
LAYER
  5
30
330
1
100
AcDbSymbolTableRecord
100
AcDbLayerTableRecord
  2
CUT_INNER
 70
0
 62
3
  6
Continuous
370
-3
390
13
347
21
  0
LAYER
  5
31
330
1
100
AcDbSymbolTableRecord
100
AcDbLayerTableRecord
  2
MARKING
 70
0
 62
2
  6
Continuous
370
-3
390
13
347
21
  0
ENDTAB
  0
TABLE
  2
STYLE
  5
5
330
0
100
AcDbSymbolTable
 70
1
  0
STYLE
  5
29
330
5
100
AcDbSymbolTableRecord
100
AcDbTextStyleTableRecord
  2
Standard
 70
0
 40
0.0
 41
1.0
 50
0.0
 71
0
 42
2.5
  3
txt
  4

  0
ENDTAB
  0
TABLE
  2
VIEW
  5
7
330
0
100
AcDbSymbolTable
 70
0
  0
ENDTAB
  0
TABLE
  2
UCS
  5
6
330
0
100
AcDbSymbolTable
 70
0
  0
ENDTAB
  0
TABLE
  2
APPID
  5
3
330
0
100
AcDbSymbolTable
 70
3
  0
APPID
  5
2A
330
3
100
AcDbSymbolTableRecord
100
AcDbRegAppTableRecord
  2
ACAD
 70
0
  0
APPID
  5
3C
330
3
100
AcDbSymbolTableRecord
100
AcDbRegAppTableRecord
  2
HATCHBACKGROUNDCOLOR
 70
0
  0
APPID
  5
3D
330
3
100
AcDbSymbolTableRecord
100
AcDbRegAppTableRecord
  2
EZDXF
 70
0
  0
ENDTAB
  0
TABLE
  2
DIMSTYLE
  5
4
330
0
100
AcDbSymbolTable
 70
1
100
AcDbDimStyleTable
  0
DIMSTYLE
105
2B
330
4
100
AcDbSymbolTableRecord
100
AcDbDimStyleTableRecord
  2
Standard
 70
0
 40
1.0
 41
2.5
 42
0.625
 43
3.75
 44
1.25
 45
0.0
 46
0.0
 47
0.0
 48
0.0
 49
2.5
140
2.5
141
2.5
142
0.0
143
0.03937007874
144
1.0
145
0.0
146
1.0
147
0.625
148
0.0
 69
0
 70
0
 71
0
 72
0
 73
0
 74
0
 75
0
 76
0
 77
1
 78
8
 79
3
170
0
171
3
172
1
173
0
174
0
175
0
176
0
177
0
178
0
179
2
271
2
272
2
273
2
274
3
275
0
276
0
277
2
278
44
279
0
280
0
281
0
282
0
283
0
284
8
285
0
286
0
288
0
289
3
290
0
371
-2
372
-2
  0
ENDTAB
  0
TABLE
  2
BLOCK_RECORD
  5
9
330
0
100
AcDbSymbolTable
 70
2
  0
BLOCK_RECORD
  5
17
330
9
100
AcDbSymbolTableRecord
100
AcDbBlockTableRecord
  2
*Model_Space
340
1A
 70
0
280
1
281
0
  0
BLOCK_RECORD
  5
1B
330
9
100
AcDbSymbolTableRecord
100
AcDbBlockTableRecord
  2
*Paper_Space
340
1E
 70
0
280
1
281
0
  0
ENDTAB
  0
ENDSEC
  0
SECTION
  2
BLOCKS
  0
BLOCK
  5
18
330
17
100
AcDbEntity
  8
0
100
AcDbBlockBegin
  2
*Model_Space
 70
0
 10
0.0
 20
0.0
 30
0.0
  3
*Model_Space
  1

  0
ENDBLK
  5
19
330
17
100
AcDbEntity
  8
0
100
AcDbBlockEnd
  0
BLOCK
  5
1C
330
1B
100
AcDbEntity
  8
0
100
AcDbBlockBegin
  2
*Paper_Space
 70
0
 10
0.0
 20
0.0
 30
0.0
  3
*Paper_Space
  1

  0
ENDBLK
  5
1D
330
1B
100
AcDbEntity
  8
0
100
AcDbBlockEnd
  0
ENDSEC
  0
SECTION
  2
ENTITIES
  0
LWPOLYLINE
  5
32
330
17
100
AcDbEntity
  8
CUT_INNER
100
AcDbPolyline
 90
23
 70
1
 10
1344.400000000002
 20
178.4000000000001
 10
1343.6583457469578
 20
183.79593542314046
 10
1341.4883880909315
 20
188.79167900070843
 10
1338.0510628643751
 20
193.01671928556198
 10
1333.6013007546253
 20
196.157704368047
 10
1328.4691202610547
 20
197.98168175364594
 10
1323.035151732709
 20
198.3533753838101
 10
1317.702407756583
 20
197.24521844237597
 10
1312.8663935577056
 20
194.73939786020833
 10
1308.8857741859147
 20
191.02175888652073
 10
1306.0557739698938
 20
186.36802179692472
 10
1304.5862810792764
 20
181.12333298192493
 10
1304.5862810792764
 20
175.67666701807525
 10
1306.0557739698938
 20
170.43197820307546
 10
1308.8857741859147
 20
165.77824111347945
 10
1312.8663935577056
 20
162.06060213979185
 10
1317.702407756583
 20
159.5547815576242
 10
1323.035151732709
 20
158.4466246161901
 10
1328.4691202610547
 20
158.81831824635424
 10
1333.6013007546253
 20
160.64229563195317
 10
1338.0510628643751
 20
163.7832807144382
 10
1341.4883880909315
 20
168.00832099929175
 10
1343.6583457469578
 20
173.00406457685972
  0
LWPOLYLINE
  5
33
330
17
100
AcDbEntity
  8
CUT_INNER
100
AcDbPolyline
 90
24
 70
1
 10
1261.9000000000037
 20
203.4000000000001
 10
1261.133331091508
 20
209.2234285148072
 10
1258.8855715851532
 20
214.65000000000077
 10
1255.3099025767006
 20
219.30990257669828
 10
1250.6500000000028
 20
222.88557158515118
 10
1245.2234285148093
 20
225.1333310915054
 10
1239.4000000000024
 20
225.90000000000146
 10
1233.5765714851955
 20
225.1333310915054
 10
1228.150000000002
 20
222.88557158515118
 10
1223.4900974233042
 20
219.30990257669828
 10
1219.9144284148515
 20
214.65000000000077
 10
1217.6666689084968
 20
209.2234285148072
 10
1216.900000000001
 20
203.4000000000001
 10
1217.6666689084968
 20
197.57657148519297
 10
1219.9144284148515
 20
192.1499999999994
 10
1223.4900974233042
 20
187.4900974233019
 10
1228.1500000000015
 20
183.914428414849
 10
1233.5765714851955
 20
181.66666890849478
 10
1239.4000000000024
 20
180.89999999999873
 10
1245.2234285148093
 20
181.66666890849478
 10
1250.6500000000028
 20
183.914428414849
 10
1255.3099025767006
 20
187.4900974233019
 10
1258.8855715851532
 20
192.1499999999994
 10
1261.133331091508
 20
197.57657148519297
  0
LWPOLYLINE
  5
34
330
17
100
AcDbEntity
  8
CUT_INNER
100
AcDbPolyline
 90
12
 70
1
 10
2360.9044671284005
 20
419.4000000000001
 10
2360.3685687435386
 20
421.39999999999986
 10
2358.9044671284014
 20
422.86410161513754
 10
2356.9044671284014
 20
423.39999999999964
 10
2354.9044671284014
 20
422.86410161513754
 10
2353.440365513264
 20
421.39999999999986
 10
2352.9044671284023
 20
419.4000000000001
 10
2353.440365513264
 20
417.4000000000003
 10
2354.9044671284014
 20
415.93589838486264
 10
2356.9044671284014
 20
415.40000000000055
 10
2358.9044671284014
 20
415.93589838486264
 10
2360.3685687435386
 20
417.4000000000003
  0
LWPOLYLINE
  5
35
330
17
100
AcDbEntity
  8
CUT_INNER
100
AcDbPolyline
 90
26
 70
1
 10
918.7000000000012
 20
346.4000000000001
 10
948.7000000000012
 20
346.4000000000001
 10
953.8763809020516
 20
347.0814834742189
 10
958.7000000000012
 20
349.07949192431147
 10
962.8421356237318
 20
352.25786437626925
 10
966.0205080756896
 20
356.4000000000001
 10
968.0185165257822
 20
361.2236190979497
 10
968.7000000000007
 20
366.4000000000001
 10
968.0185165257822
 20
371.57638090205046
 10
966.0205080756896
 20
376.39999999999986
 10
962.8421356237318
 20
380.5421356237309
 10
958.7000000000012
 20
383.7205080756887
 10
953.8763809020516
 20
385.7185165257813
 10
948.7000000000012
 20
386.39999999999986
 10
918.7000000000012
 20
386.4000000000001
 10
913.5236190979508
 20
385.7185165257813
 10
908.7000000000012
 20
383.7205080756887
 10
904.5578643762706
 20
380.5421356237309
 10
901.3794919243128
 20
376.4000000000001
 10
899.3814834742202
 20
371.57638090205046
 10
898.7000000000016
 20
366.4000000000001
 10
899.3814834742202
 20
361.2236190979497
 10
901.3794919243128
 20
356.4000000000003
 10
904.5578643762706
 20
352.25786437626925
 10
908.7000000000012
 20
349.07949192431147
 10
913.5236190979508
 20
347.0814834742189
  0
LWPOLYLINE
  5
36
330
17
100
AcDbEntity
  8
CUT_INNER
100
AcDbPolyline
 90
30
 70
1
 10
1047.7000000000012
 20
275.39999999999895
 10
1101.7000000000012
 20
275.39999999999895
 10
1107.9305861507787
 20
276.1020184589065
 10
1113.848744695294
 20
278.1728716987302
 10
1119.1577144520475
 20
281.5087184908932
 10
1123.5912815091078
 20
285.94228554795404
 10
1126.9271283012713
 20
291.25125530470746
 10
1128.9979815410948
 20
297.1694138492228
 10
1129.700000000004
 20
303.4000000000001
 10
1128.9979815410948
 20
309.6305861507774
 10
1126.9271283012713
 20
315.5487446952927
 10
1123.5912815091078
 20
320.85771445204614
 10
1119.1577144520475
 20
325.29128150910697
 10
1113.848744695294
 20
328.62712830127
 10
1107.9305861507787
 20
330.69798154109367
 10
1101.7000000000012
 20
331.4000000000026
 10
1047.7000000000012
 20
331.4000000000001
 10
1041.4694138492237
 20
330.69798154109367
 10
1035.5512553047083
 20
328.62712830127
 10
1030.242285547955
 20
325.29128150910697
 10
1025.8087184908945
 20
320.85771445204614
 10
1022.4728716987311
 20
315.5487446952927
 10
1020.4020184589076
 20
309.6305861507774
 10
1019.6999999999985
 20
303.4000000000001
 10
1020.4020184589076
 20
297.1694138492228
 10
1022.4728716987311
 20
291.25125530470746
 10
1025.8087184908945
 20
285.94228554795404
 10
1030.242285547955
 20
281.5087184908932
 10
1035.5512553047083
 20
278.1728716987302
 10
1041.4694138492237
 20
276.1020184589065
  0
LWPOLYLINE
  5
37
330
17
100
AcDbEntity
  8
CUT_INNER
100
AcDbPolyline
 90
4
 70
1
 10
2121.5000000000005
 20
109.90000000000009
 10
2121.5000000000005
 20
102.90000000000009
 10
2150.5000000000005
 20
102.90000000000009
 10
2150.5000000000005
 20
109.90000000000009
  0
LWPOLYLINE
  5
38
330
17
100
AcDbEntity
  8
CUT_INNER
100
AcDbPolyline
 90
4
 70
1
 10
1593.781577700001
 20
109.90000000000009
 10
1593.781577700001
 20
102.90000000000009
 10
1622.781577700001
 20
102.90000000000009
 10
1622.781577700001
 20
109.90000000000009
  0
LWPOLYLINE
  5
39
330
17
100
AcDbEntity
  8
CUT_OUTER
100
AcDbPolyline
 90
520
 70
1
 10
1624.1394790174004
 20
278.4000000000001
 10
1423.7000000000012
 20
278.40000000000805
 10
1423.5437935237155
 20
278.40244064200465
 10
1423.387739545064
 20
278.4097601853016
 10
1423.2319904128049
 20
278.42195148414453
 10
1423.0766981780866
 20
278.43900263669525
 10
1422.92201444601
 20
278.46089699665004
 10
1422.7680902276197
 20
278.4876131894914
 10
1422.6150757924806
 20
278.519125133354
 10
1422.4631205219753
 20
278.55540206448904
 10
1422.3123727634688
 20
278.5964085672954
 10
1422.1629796854868
 20
278.64210460889603
 10
1422.015087134036
 20
278.6924455782196
 10
1421.8688394902001
 20
278.74738232949994
 10
1365.9989913518834
 20
300.7364359858434
 10
1357.2837369317235
 20
297.8227503911837
 10
1348.2699221660846
 20
296.0349118292918
 10
1339.1023601063134
 20
295.40164313996365
 10
1329.9283338583768
 20
295.9331182144549
 10
1320.8952303798105
 20
297.62079854501326
 10
1312.1481726082257
 20
300.43757040180094
 10
1303.827687962827
 20
304.33818043336373
 10
1296.0674506760593
 20
309.2599626924341
 10
1288.9921342263433
 20
315.12384540690005
 10
1282.715408374038
 20
321.8356213214877
 10
1277.338112979599
 20
329.2874612012479
 10
1272.9466379428013
 20
337.35964618139997
 10
1190.3883949022238
 20
369.85262220475806
 10
1185.850426438294
 20
371.90524510428736
 10
1181.5391844085239
 20
374.3991598398061
 10
1177.4974474026126
 20
377.30962037421364
 10
1173.7653198284916
 20
380.60774746663765
 10
1170.3798339736309
 20
384.26081522864706
 10
1167.3745825496712
 20
388.2325758490874
 10
1164.779385366477
 20
392.4836192654309
 10
1162.6199934430647
 20
396.971764212778
 10
1160.9178334913781
 20
401.65247677030266
 10
1159.6897953082948
 20
406.4793122520841
 10
1158.9480641854807
 20
411.40437605763464
 10
1158.7000000000012
 20
416.37879890930094
 10
1158.7000000000044
 20
486.4000000000001
 10
1158.6144486137423
 20
487.7052619222011
 10
1158.3592582628949
 20
488.98819045102596
 10
1157.9387953251166
 20
490.22683432365216
 10
1157.3602540378483
 20
491.4000000000017
 10
1156.6335334029159
 20
492.48761429008914
 10
1155.7710678118688
 20
493.47106781186767
 10
1154.78761429009
 20
494.3335334029148
 10
1153.7000000000025
 20
495.060254037847
 10
1152.526834323653
 20
495.6387953251158
 10
1151.2881904510273
 20
496.05925826289354
 10
1150.005261922202
 20
496.3144486137412
 10
1148.7000000000012
 20
496.39999999999895
 10
833.7000000000003
 20
496.39999999999986
 10
832.7309182013064
 20
496.3529332594687
 10
831.7709587069266
 20
496.21217609348787
 10
830.8291579497504
 20
495.9790534982592
 10
829.9143814281506
 20
495.6557599379232
 10
829.0352402519657
 20
495.24533868730373
 10
828.2000100831206
 20
494.7516531845031
 10
827.4165532339443
 20
494.179350663014
 10
826.6922446564836
 20
493.5338184056934
 10
826.0339025195149
 20
492.8211330323934
 10
825.4477240267465
 20
492.0480032986229
 10
824.9392270803833
 20
491.2217069436972
 10
824.5131983392012
 20
490.35002218290015
 10
800.1340083040454
 20
433.64988908577766
 10
798.003864598089
 20
429.2914652815127
 10
795.4613798662717
 20
425.1599835068844
 10
792.5304874024291
 20
421.2943348380318
 10
789.2387767175856
 20
417.7309079715312
 10
785.6172338302827
 20
414.5032466849282
 10
781.6999495843997
 20
411.6417340774826
 10
777.5237987401752
 20
409.17330656347895
 10
773.1280928592487
 20
407.1212003103815
 10
768.5542102512513
 20
405.5047325087012
 10
763.8452064653684
 20
404.33911953255824
 10
759.0454089934706
 20
403.6353337026544
 10
754.2000000000003
 20
403.4000000000001
 10
377.74213562370005
 20
403.4000000000001
 10
377.0881043313984
 20
403.37858923238605
 10
376.4368737014993
 20
403.31444861373825
 10
375.7912324035383
 20
403.2078528040324
 10
375.1539451726744
 20
403.0592582628906
 10
374.52774097066776
 20
402.8693012949509
 10
373.9153013000482
 20
402.6387953251126
 10
373.3192487215092
 20
402.3687274153265
 10
372.74213562369914
 20
402.06025403784383
 10
372.1864332935029
 20
401.71469612302485
 10
371.6545213336117
 20
401.3335334029116
 10
371.1486774726982
 20
400.9183980747889
 10
370.67106781190114
 20
400.47106781189996
 10
366.5289321881678
 20
396.3289321881357
 10
366.051322527303
 20
395.88160192521127
 10
365.5454786663895
 20
395.4664665970886
 10
365.0135667064983
 20
395.08530387697533
 10
364.45786437630204
 20
394.73974596215635
 10
363.88075127849197
 20
394.4312725846737
 10
363.28469869995297
 20
394.1612046748876
 10
362.6722590293334
 20
393.9306987050493
 10
362.04605482732677
 20
393.7407417371096
 10
361.4087675964629
 20
393.59214719596775
 10
360.7631262985019
 20
393.48555138626193
 10
360.11189566860276
 20
393.42141076761413
 10
359.45786437630113
 20
393.4000000000001
 10
257.74213562370096
 20
393.4000000000001
 10
257.08810433139934
 20
393.42141076761413
 10
256.4368737015002
 20
393.48555138626193
 10
255.7912324035392
 20
393.59214719596775
 10
255.15394517267532
 20
393.7407417371096
 10
254.52774097066867
 20
393.9306987050493
 10
253.91530130004912
 20
394.1612046748876
 10
253.31924872151012
 20
394.4312725846737
 10
252.74213562370005
 20
394.73974596215635
 10
252.1864332935038
 20
395.08530387697533
 10
251.6545213336126
 20
395.4664665970886
 10
251.1486774726991
 20
395.88160192521127
 10
250.67106781190114
 20
396.3289321881
 10
241.52893218813415
 20
405.471067811837
 10
241.08160192520972
 20
405.9486774727018
 10
240.6664665970875
 20
406.4545213336153
 10
240.28530387697447
 20
406.98643329350625
 10
239.93974596215594
 20
407.5421356237023
 10
239.6312725846733
 20
408.1192487215121
 10
239.36120467488763
 20
408.7153013000511
 10
239.13069870504933
 20
409.3277409706702
 10
238.94074173710987
 20
409.95394517267664
 10
238.79214719596848
 20
410.5912324035403
 10
238.68555138626243
 20
411.23687370150105
 10
238.62141076761463
 20
411.8881043314
 10
238.60000000000036
 20
412.54213562370114
 10
238.60000000000082
 20
429.2092570389
 10
238.5340615743421
 20
430.35573889099874
 10
238.3371158725622
 20
431.48710130142285
 10
238.01176015256397
 20
432.5884242189338
 10
237.56228510313895
 20
433.6451837436671
 10
236.99461825971275
 20
434.64344366375076
 10
236.31624583387702
 20
435.5700392416786
 10
235.53611398758494
 20
436.4127508267252
 10
234.6645108539874
 20
437.1604650038496
 10
233.71293086076957
 20
437.8033211539157
 10
232.6939231452593
 20
438.33284149243127
 10
231.6209260603564
 20
438.74204287190105
 10
230.50808995380112
 20
439.0255288733001
 10
76.18382009247307
 20
469.0231281564352
 10
73.95814787928566
 20
469.59010015938793
 10
71.81215370947893
 20
470.40850291832817
 10
69.77413827845794
 20
471.46754359535976
 10
67.87097829202094
 20
472.75325589549243
 10
66.12777202482448
 20
474.24868424974215
 10
64.56750833223987
 20
475.934107419836
 10
63.21076348056749
 20
477.78729857569306
 10
62.0754297937151
 20
479.7838184158611
 10
61.176479694864156
 20
481.89733746532875
 10
60.52576825486767
 20
484.0999833003518
 10
60.131876851307425
 20
486.3627081212012
 10
60.0
 20
488.6556718254001
 10
60.0
 20
617.9733644617047
 10
59.99658433161267
 20
618.0902019846108
 10
59.98634899324088
 20
618.2066404292834
 10
59.96932894540669
 20
618.3222820806081
 10
59.945582322949576
 20
618.4367319450521
 10
59.91519023645651
 20
618.5495990998315
 10
59.878256495217556
 20
618.6604980281736
 10
59.83490725264437
 20
618.7690499361149
 10
59.7852905753748
 20
618.874884046335
 10
59.72957593752426
 20
618.9776388646094
 10
59.667953641820986
 20
619.0769634145533
 10
59.60063416959156
 20
619.172518436442
 10
59.527847461798046
 20
619.2639775460248
 10
52.863910936294815
 20
627.5037096523245
 10
46.55806792976455
 20
636.0206092746353
 10
40.621832391846965
 20
644.7991252561601
 10
35.0660433994035
 20
653.8232287501905
 10
29.90084536526001
 20
663.0764424874606
 10
25.135669515340396
 20
672.5418708622815
 10
20.779216668028766
 20
682.2022307825264
 10
16.83944134719104
 20
692.0398832271312
 10
13.323537257870157
 20
702.0368654534941
 10
10.237924151172592
 20
712.174923795963
 10
7.588236102332758
 20
722.4355469955235
 10
5.3793112234002365
 20
732.8000000000011
 10
0.0
 20
732.8000000000011
 10
0.0
 20
399.4000000000001
 10
21.0
 20
399.4000000000001
 10
21.0
 20
392.4000000000001
 10
0.0
 20
392.4000000000001
 10
0.0
 20
235.4000000000001
 10
21.0
 20
235.4000000000001
 10
21.0
 20
228.4000000000001
 10
0.0
 20
228.4000000000001
 10
0.0
 20
0.0
 10
5.379311223394325
 20
1.2505552149377763e-10
 10
7.585364150577334
 20
10.37123917698159
 10
10.232722873441162
 20
20.63870056593123
 10
13.316548021980907
 20
30.783615254302276
 10
16.83120236585046
 20
40.787438344711745
 10
20.770261119220322
 20
50.63188285512456
 10
25.12652368527688
 20
60.29895314744499
 10
29.89202681891311
 20
69.77097782353212
 10
35.05805918353144
 20
79.03064202850214
 10
40.61517727536557
 20
88.06101910227426
 10
46.553222686194204
 20
96.84560152149174
 10
52.861340672910046
 20
105.36833107526536
 10
59.52800000000025
 20
113.61362821955822
 10
59.60076408714713
 20
113.70508016436565
 10
59.668062337070296
 20
113.80062604938803
 10
59.72966495870742
 20
113.8999396315146
 10
59.78536160882004
 20
114.00268180276703
 10
59.83496211021338
 20
114.10850174818825
 10
59.87829710109963
 20
114.21703814370744
 10
59.91521861338879
 20
114.32792038988646
 10
59.945600577924324
 20
114.44076987733933
 10
59.96933925495341
 20
114.55520127949944
 10
59.98635358834326
 20
114.67082386832499
 10
59.99658548235311
 20
114.78724284844566
 10
60.0
 20
114.90406070519998
 10
60.00000000000318
 20
203.4000000000001
 10
60.171102772526865
 20
206.01052384440095
 10
60.68148347422175
 20
208.57638090205
 10
61.52240934977726
 20
211.05366864730127
 10
62.67949192431388
 20
213.3999999999994
 10
64.1329331941779
 20
215.57522858017364
 10
65.85786437627166
 20
217.54213562373002
 10
67.82477141982781
 20
219.26706680582356
 10
70.00000000000227
 20
220.72050807568758
 10
72.34633135269996
 20
221.87759065022442
 10
74.82361909795145
 20
222.71851652577993
 10
77.38947615560073
 20
223.22889722747482
 10
80.00000000000136
 20
223.4000000000001
 10
95.5
 20
223.4000000000001
 10
95.49999999999864
 20
253.4000000000001
 10
95.5855513862607
 20
254.70526192220086
 10
95.84074173710815
 20
255.98819045102596
 10
96.2612046748859
 20
257.22683432365193
 10
96.83974596215467
 20
258.40000000000146
 10
97.56646659708667
 20
259.4876142900889
 10
98.42893218813379
 20
260.47106781186744
 10
99.41238570991254
 20
261.33353340291455
 10
100.5
 20
262.0602540378468
 10
101.67316567634953
 20
262.63879532511555
 10
102.91180954897527
 20
263.0592582628933
 10
104.1947380778006
 20
263.314448613741
 10
105.50000000000136
 20
263.400000000001
 10
165.5
 20
263.3999999999826
 10
166.80526192219804
 20
263.31444861372074
 10
168.08819045102064
 20
263.05925826287375
 10
169.3268343236441
 20
262.6387953250967
 10
170.49999999999136
 20
262.0602540378293
 10
171.58761429007654
 20
261.33353340289864
 10
172.57106781185303
 20
260.4710678118531
 10
173.43353340289832
 20
259.48761429007664
 10
174.16025403782942
 20
258.3999999999912
 10
174.73879532509682
 20
257.2268343236442
 10
175.15925826287366
 20
255.98819045102073
 10
175.41444861372065
 20
254.70526192219836
 10
175.5
 20
253.4000000000001
 10
175.5
 20
223.4000000000001
 10
860.2983225546013
 20
223.39999999999964
 10
861.534471479124
 20
223.38471702266975
 10
862.7698647222069
 20
223.33887743345576
 10
864.0037470643733
 20
223.2625092549738
 10
865.2353642097883
 20
223.15565917254958
 10
866.4639632473759
 20
223.01839250567855
 10
867.6887931110859
 20
222.85079316809492
 10
868.9091050390371
 20
222.65296361647393
 10
870.1241530312482
 20
222.4250247877976
 10
871.3331943056824
 20
222.16711602542387
 10
872.5354897523239
 20
221.87939499390382
 10
873.7303043850111
 20
221.5620375825972
 10
874.9169077907022
 20
221.2152377982011
 10
1269.4814147638544
 20
100.58476220184343
 10
1270.6680181695892
 20
100.23796241739524
 10
1271.8628328022764
 20
99.92060500608864
 10
1273.0651282489184
 20
99.63288397456836
 10
1274.274169523353
 20
99.37497521219484
 10
1275.4892175155642
 20
99.1470363835183
 10
1276.7095294435157
 20
98.9492068318973
 10
1277.9343593072258
 20
98.78160749431368
 10
1279.1629583448134
 20
98.64434082744265
 10
1280.3945754902288
 20
98.53749074501843
 10
1281.6284578323953
 20
98.46112256653646
 10
1282.8638510754786
 20
98.41528297732248
 10
1284.1000000000013
 20
98.40000000000009
 10
1418.303326915503
 20
98.39999999996417
 10
1418.4476522623431
 20
99.37537186175155
 10
1418.9578825050016
 20
100.21908103793953
 10
1419.7546519354264
 20
100.79988956856505
 10
1420.7140240153403
 20
101.02745337673582
 10
1421.686769557522
 20
100.86637518245425
 10
1422.5215791485834
 20
100.34171050746772
 10
1423.0885991484547
 20
99.53507031862728
 10
1423.2996302698207
 20
98.57192653895459
 10
1423.1218468724742
 20
97.60209503908709
 10
1422.5829029526521
 20
96.77643195659311
 10
1421.7666305967741
 20
96.22336820300143
 10
1420.800000000002
 20
96.02893218810004
 10
1420.800000000002
 20
42.02893218810004
 10
1424.2000000000012
 20
42.02893218810277
 10
1424.4248545898422
 20
42.04161228093449
 10
1424.6468580026108
 20
42.07949177467549
 10
1424.8631952144233
 20
42.142090353828735
 10
1425.0711230493516
 20
42.228614262599194
 10
1425.2680049631463
 20
42.33796636979196
 10
1425.4513444748636
 20
42.46876008053596
 10
1425.6188168224749
 20
42.61933691843751
 10
1425.7682984410658
 20
42.78778755521353
 10
1425.8978938898367
 20
42.97197602115216
 10
1426.0059598864655
 20
43.16956678940687
 10
1426.0911261440838
 20
43.37805439069348
 10
1426.1523127465857
 20
43.594795182854796
 10
1428.2938438359924
 20
51.18072290916825
 10
1431.274662852626
 20
58.47778895421834
 10
1435.056972734641
 20
65.39346584315399
 10
1439.5928134416145
 20
71.84006215102909
 10
1444.8246700923123
 20
77.73583443821053
 10
1450.6862022587206
 20
83.00602376478196
 10
1457.1030851688329
 20
87.5838036408411
 10
1463.9939521516585
 20
91.41112739259643
 10
1471.2714263741636
 20
94.4394641995782
 10
1478.8432287876262
 20
96.63041446994794
 10
1486.613348234539
 20
97.95619675088756
 10
1494.4832588790014
 20
98.40000000000009
 10
2162.4919950804
 20
98.40000000000009
 10
2490.7186058884377
 20
219.77921929979152
 10
2490.996925100359
 20
219.87749828009623
 10
2491.278023577673
 20
219.9675204315149
 10
2491.561656426425
 20
220.04920732644223
 10
2491.8475765447088
 20
220.12248779897595
 10
2492.1355348379407
 20
220.1872980069179
 10
2492.4252804358707
 20
220.2435814873936
 10
2492.716560911144
 20
220.29128920604262
 10
2493.009122499215
 20
220.3303795997374
 10
2493.3027103194304
 20
220.3608186127933
 10
2493.5970685970756
 20
220.38257972663814
 10
2493.8919408862143
 20
220.39564398291532
 10
2494.1870702931014
 20
220.4000000000001
 10
2521.993635618001
 20
220.4000000000001
 10
2521.993635618001
 20
229.400000000001
 10
2504.0929701546015
 20
229.39999999999986
 10
2503.4482740700546
 20
229.4208032909171
 10
2502.806260345548
 20
229.48312660828583
 10
2502.1696001807372
 20
229.58671064608598
 10
2501.540942500949
 20
229.73112442654292
 10
2500.9229029359017
 20
229.9157670932791
 10
2500.3180529369697
 20
230.1398704112721
 10
2499.728909078252
 20
230.40250196321836
 10
2499.1579225859637
 20
230.70256902900155
 10
2498.6074691397275
 20
231.03882313212898
 10
2498.0798389881797
 20
231.40986523421498
 10
2497.5772274200267
 20
231.8141515559007
 10
2497.101725630359
 20
232.24999999987403
 10
2485.0900121167865
 20
245.01836173407514
 10
2474.1850957704005
 20
258.7440720029781
 10
2464.4629678649767
 20
273.33148273614506
 10
2455.9913773735357
 20
288.67894107467373
 10
2448.829358857362
 20
304.6794977425377
 10
2443.0268210816926
 20
321.2216523261902
 10
2438.6241992248156
 20
338.1901302689198
 10
2435.652173104187
 20
355.4666861654473
 10
2434.1314533830914
 20
372.9309277589839
 10
2434.072637247696
 20
390.4611548986918
 10
2435.476134560204
 20
407.9352076112518
 10
2438.3321650027187
 20
425.2313173767154
 10
2442.620826231712
 20
442.22895567650517
 10
2448.31223256817
 20
458.80967390041997
 10
2455.36672325695
 20
474.8579287597329
 10
2463.7351388440716
 20
490.2618874544569
 10
2473.3591637461
 20
504.91420698406364
 10
2474.2344515623113
 20
506.20200791087655
 10
2475.041741742511
 20
507.5334892488088
 10
2475.778859482843
 20
508.90506404633015
 10
2476.443819020886
 20
510.31303734191306
 10
2477.034828985206
 20
511.753616118094
 10
2477.550297221234
 20
513.2229195196942
 10
2477.988835080459
 20
514.7169893086716
 10
2478.349261161384
 20
516.2318005274367
 10
2478.6306044921716
 20
517.7632723419113
 10
2478.8321071463956
 20
519.3072790351121
 10
2478.953226284864
 20
520.8596611216503
 10
2478.993635618
 20
522.4162365532
 10
2478.993635618001
 20
604.400000000001
 10
2478.9080842317394
 20
605.7052619222015
 10
2478.652893880892
 20
606.9881904510262
 10
2478.2324309431137
 20
608.2268343236519
 10
2477.6538896558454
 20
609.400000000001
 10
2476.927169020913
 20
610.4876142900882
 10
2476.0647034298668
 20
611.4710678118665
 10
2475.081249908088
 20
612.3335334029134
 10
2473.993635618001
 20
613.0602540378454
 10
2472.8204699416515
 20
613.638795325114
 10
2471.581826069026
 20
614.0592582628917
 10
2470.298897540202
 20
614.3144486137392
 10
2468.993635618001
 20
614.400000000001
 10
2451.1440623568
 20
614.4000000000019
 10
2449.8388004345993
 20
614.3144486137401
 10
2448.555871905775
 20
614.0592582628926
 10
2447.3172280331487
 20
613.6387953251146
 10
2446.1440623568
 20
613.0602540378461
 10
2445.056448066712
 20
612.3335334029141
 10
2444.0729945449343
 20
611.4710678118672
 10
2443.210528953887
 20
610.4876142900887
 10
2442.4838083189547
 20
609.4000000000015
 10
2441.9052670316864
 20
608.2268343236522
 10
2441.484804093908
 20
606.9881904510264
 10
2441.229613743061
 20
605.7052619222015
 10
2441.1440623568
 20
604.400000000001
 10
2441.1440623568
 20
599.400000000001
 10
2440.3754735729294
 20
591.5963871193558
 10
2438.099243657252
 20
584.0926627053973
 10
2434.402846848902
 20
577.1771906792169
 10
2429.428333604262
 20
571.1157287525391
 10
2423.366871677584
 20
566.1412155078992
 10
2416.451399651404
 20
562.4448186995496
 10
2408.9476752374453
 20
560.1685887838719
 10
2401.1440623568
 20
559.400000000001
 10
2393.340449476155
 20
560.1685887838719
 10
2385.8367250621964
 20
562.4448186995496
 10
2378.921253036016
 20
566.1412155078992
 10
2372.859791109338
 20
571.1157287525391
 10
2367.8852778646983
 20
577.1771906792169
 10
2364.1888810563482
 20
584.0926627053975
 10
2361.9126511406707
 20
591.5963871193558
 10
2361.1440623568
 20
599.400000000001
 10
2361.1440623568
 20
604.400000000001
 10
2361.0585109705385
 20
605.7052619222015
 10
2360.803320619691
 20
606.9881904510262
 10
2360.382857681913
 20
608.2268343236519
 10
2359.8043163946445
 20
609.400000000001
 10
2359.077595759712
 20
610.4876142900882
 10
2358.215130168666
 20
611.4710678118665
 10
2357.231676646887
 20
612.3335334029134
 10
2356.1440623568
 20
613.0602540378454
 10
2354.9708966804506
 20
613.638795325114
 10
2353.7322528078253
 20
614.0592582628917
 10
2352.449324279001
 20
614.3144486137392
 10
2351.1440623568
 20
614.400000000001
 10
2331.144062356799
 20
614.400000000001
 10
2329.8388004345984
 20
614.3144486137392
 10
2328.555871905774
 20
614.0592582628917
 10
2327.3172280331487
 20
613.638795325114
 10
2326.144062356799
 20
613.0602540378454
 10
2325.056448066712
 20
612.3335334029134
 10
2324.0729945449334
 20
611.4710678118665
 10
2323.210528953887
 20
610.4876142900882
 10
2322.4838083189547
 20
609.400000000001
 10
2321.9052670316864
 20
608.2268343236519
 10
2321.484804093908
 20
606.9881904510262
 10
2321.229613743061
 20
605.7052619222015
 10
2321.1440623568
 20
604.400000000001
 10
2321.1440623568
 20
599.400000000001
 10
2320.3754735729294
 20
591.5963871193558
 10
2318.099243657252
 20
584.0926627053973
 10
2314.402846848902
 20
577.1771906792167
 10
2309.428333604262
 20
571.1157287525389
 10
2303.366871677584
 20
566.1412155078988
 10
2296.451399651404
 20
562.4448186995492
 10
2288.9476752374453
 20
560.1685887838714
 10
2281.1440623568
 20
559.4000000000005
 10
2273.340449476155
 20
560.1685887838714
 10
2265.8367250621964
 20
562.4448186995492
 10
2258.921253036016
 20
566.1412155078988
 10
2252.859791109338
 20
571.1157287525389
 10
2247.8852778646983
 20
577.1771906792167
 10
2244.1888810563482
 20
584.0926627053973
 10
2241.9126511406707
 20
591.5963871193558
 10
2241.1440623568
 20
599.400000000001
 10
2241.1440623568
 20
604.400000000001
 10
2241.0585109705385
 20
605.7052619222015
 10
2240.803320619691
 20
606.9881904510262
 10
2240.382857681913
 20
608.2268343236519
 10
2239.8043163946445
 20
609.400000000001
 10
2239.077595759712
 20
610.4876142900882
 10
2238.215130168666
 20
611.4710678118665
 10
2237.231676646887
 20
612.3335334029134
 10
2236.1440623568
 20
613.0602540378454
 10
2234.9708966804506
 20
613.638795325114
 10
2233.7322528078253
 20
614.0592582628917
 10
2232.449324279001
 20
614.3144486137392
 10
2231.1440623568
 20
614.400000000001
 10
2206.0000000000005
 20
614.400000000001
 10
2204.6947380777997
 20
614.3144486137392
 10
2203.4118095489753
 20
614.0592582628917
 10
2202.17316567635
 20
613.638795325114
 10
2201.0000000000005
 20
613.0602540378454
 10
2199.9123857099135
 20
612.3335334029134
 10
2198.9289321881347
 20
611.4710678118665
 10
2198.0664665970885
 20
610.4876142900882
 10
2197.339745962156
 20
609.400000000001
 10
2196.7612046748877
 20
608.2268343236519
 10
2196.3407417371095
 20
606.9881904510262
 10
2196.085551386262
 20
605.7052619222015
 10
2196.0000000000005
 20
604.400000000001
 10
2196.0000000000014
 20
398.4000000000001
 10
2195.245465187191
 20
384.9642628676031
 10
2192.99134946182
 20
371.69748792524206
 10
2189.2659996370053
 20
358.7665125653798
 10
2184.116264148292
 20
346.3339513058927
 10
2177.606903907395
 20
334.55615081815927
 10
2169.8197778961644
 20
323.58122377695145
 10
2160.852813742387
 20
313.5471862576137
 10
2150.8187762230486
 20
304.5802221038357
 10
2139.843849181841
 20
296.7930960926053
 10
2128.0660486941074
 20
290.283735851709
 10
2115.6334874346207
 20
285.13400036299504
 10
2102.702512074758
 20
281.4086505381804
 10
2089.435737132397
 20
279.1545348128102
 10
2076.0000000000005
 20
278.4000000000001
 10
1719.139479017399
 20
278.4000000000001
 10
1712.574457123084
 20
272.51745955166734
 10
1705.2881303361678
 20
267.55628665075005
 10
1697.4088891774945
 20
263.6039008697312
 10
1689.0755717620677
 20
260.72994619850215
 10
1680.4350173677303
 20
258.98506386521217
 10
1671.639479017399
 20
258.39999999999986
 10
1662.8439406670677
 20
258.98506386521217
 10
1654.2033862727303
 20
260.72994619850215
 10
1645.8700688573035
 20
263.6039008697312
 10
1637.9908276986303
 20
267.55628665075005
 10
1630.7045009117141
 20
272.51745955166734
  0
LWPOLYLINE
  5
3A
330
17
100
AcDbEntity
  8
CUT_INNER
100
AcDbPolyline
 90
15
 70
1
 10
1768.2644790174004
 20
266.4000000000001
 10
1767.4755813183888
 20
270.1114718680667
 10
1765.2452958004246
 20
273.1811965324814
 10
1761.959259091072
 20
275.0783907111934
 10
1758.1856567900832
 20
275.4750122952355
 10
1754.5769790174004
 20
274.302481809533
 10
1751.7571989437288
 20
271.7635404271689
 10
1750.2138821607045
 20
268.29719417871206
 10
1750.2138821607045
 20
264.5028058212881
 10
1751.7571989437288
 20
261.0364595728313
 10
1754.5769790174004
 20
258.4975181904672
 10
1758.1856567900832
 20
257.3249877047647
 10
1761.959259091072
 20
257.7216092888068
 10
1765.2452958004246
 20
259.6188034675188
 10
1767.4755813183888
 20
262.6885281319335
  0
LWPOLYLINE
  5
3B
330
17
100
AcDbEntity
  8
CUT_INNER
100
AcDbPolyline
 90
15
 70
1
 10
1833.2644790173995
 20
266.4000000000001
 10
1832.4755813183879
 20
270.1114718680667
 10
1830.2452958004237
 20
273.1811965324814
 10
1826.959259091071
 20
275.0783907111934
 10
1823.1856567900818
 20
275.4750122952355
 10
1819.5769790173995
 20
274.302481809533
 10
1816.7571989437279
 20
271.7635404271689
 10
1815.2138821607036
 20
268.29719417871206
 10
1815.2138821607036
 20
264.5028058212881
 10
1816.7571989437279
 20
261.0364595728313
 10
1819.5769790173995
 20
258.4975181904672
 10
1823.1856567900818
 20
257.3249877047647
 10
1826.959259091071
 20
257.7216092888068
 10
1830.2452958004237
 20
259.6188034675188
 10
1832.4755813183879
 20
262.6885281319335
  0
ENDSEC
  0
SECTION
  2
OBJECTS
  0
DICTIONARY
  5
A
330
0
100
AcDbDictionary
281
1
  3
ACAD_COLOR
350
B
  3
ACAD_GROUP
350
C
  3
ACAD_LAYOUT
350
D
  3
ACAD_MATERIAL
350
E
  3
ACAD_MLEADERSTYLE
350
F
  3
ACAD_MLINESTYLE
350
10
  3
ACAD_PLOTSETTINGS
350
11
  3
ACAD_PLOTSTYLENAME
350
12
  3
ACAD_SCALELIST
350
14
  3
ACAD_TABLESTYLE
350
15
  3
ACAD_VISUALSTYLE
350
16
  3
EZDXF_META
350
2D
  0
DICTIONARY
  5
B
330
A
100
AcDbDictionary
281
1
  0
DICTIONARY
  5
C
330
A
100
AcDbDictionary
281
1
  0
DICTIONARY
  5
D
330
A
100
AcDbDictionary
281
1
  3
Model
350
1A
  3
Layout1
350
1E
  0
DICTIONARY
  5
E
330
A
100
AcDbDictionary
281
1
  3
ByBlock
350
1F
  3
ByLayer
350
20
  3
Global
350
21
  0
DICTIONARY
  5
F
330
A
100
AcDbDictionary
281
1
  3
Standard
350
2C
  0
DICTIONARY
  5
10
330
A
100
AcDbDictionary
281
1
  3
Standard
350
22
  0
DICTIONARY
  5
11
330
A
100
AcDbDictionary
281
1
  0
ACDBDICTIONARYWDFLT
  5
12
330
A
100
AcDbDictionary
281
1
  3
Normal
350
13
100
AcDbDictionaryWithDefault
340
13
  0
ACDBPLACEHOLDER
  5
13
330
12
  0
DICTIONARY
  5
14
330
A
100
AcDbDictionary
281
1
  0
DICTIONARY
  5
15
330
A
100
AcDbDictionary
281
1
  0
DICTIONARY
  5
16
330
A
100
AcDbDictionary
281
1
  0
LAYOUT
  5
1A
330
D
100
AcDbPlotSettings
  1

  4
A3
  6

 40
7.5
 41
20.0
 42
7.5
 43
20.0
 44
420.0
 45
297.0
 46
0.0
 47
0.0
 48
0.0
 49
0.0
140
0.0
141
0.0
142
1.0
143
1.0
 70
1024
 72
1
 73
0
 74
5
  7

 75
16
 76
0
 77
2
 78
300
147
1.0
148
0.0
149
0.0
100
AcDbLayout
  1
Model
 70
1
 71
0
 10
0.0
 20
0.0
 11
420.0
 21
297.0
 12
0.0
 22
0.0
 32
0.0
 14
1e+20
 24
1e+20
 34
1e+20
 15
-1e+20
 25
-1e+20
 35
-1e+20
146
0.0
 13
0.0
 23
0.0
 33
0.0
 16
1.0
 26
0.0
 36
0.0
 17
0.0
 27
1.0
 37
0.0
 76
1
330
17
  0
LAYOUT
  5
1E
330
D
100
AcDbPlotSettings
  1

  4
A3
  6

 40
7.5
 41
20.0
 42
7.5
 43
20.0
 44
420.0
 45
297.0
 46
0.0
 47
0.0
 48
0.0
 49
0.0
140
0.0
141
0.0
142
1.0
143
1.0
 70
0
 72
1
 73
0
 74
5
  7

 75
16
 76
0
 77
2
 78
300
147
1.0
148
0.0
149
0.0
100
AcDbLayout
  1
Layout1
 70
1
 71
1
 10
0.0
 20
0.0
 11
420.0
 21
297.0
 12
0.0
 22
0.0
 32
0.0
 14
1e+20
 24
1e+20
 34
1e+20
 15
-1e+20
 25
-1e+20
 35
-1e+20
146
0.0
 13
0.0
 23
0.0
 33
0.0
 16
1.0
 26
0.0
 36
0.0
 17
0.0
 27
1.0
 37
0.0
 76
1
330
1B
  0
MATERIAL
  5
1F
102
{ACAD_REACTORS
330
E
102
}
330
E
100
AcDbMaterial
  1
ByBlock
  2

 70
0
 40
1.0
 71
1
 41
1.0
 91
-1023410177
 42
1.0
 72
1
  3

 73
1
 74
1
 75
1
 44
0.5
 73
0
 45
1.0
 46
1.0
 77
1
  4

 78
1
 79
1
170
1
 48
1.0
171
1
  6

172
1
173
1
174
1
140
1.0
141
1.0
175
1
  7

176
1
177
1
178
1
143
1.0
179
1
  8

270
1
271
1
272
1
145
1.0
146
1.0
273
1
  9

274
1
275
1
276
1
 42
1.0
 72
1
  3

 73
1
 74
1
 75
1
 94
63
  0
MATERIAL
  5
20
102
{ACAD_REACTORS
330
E
102
}
330
E
100
AcDbMaterial
  1
ByLayer
  2

 70
0
 40
1.0
 71
1
 41
1.0
 91
-1023410177
 42
1.0
 72
1
  3

 73
1
 74
1
 75
1
 44
0.5
 73
0
 45
1.0
 46
1.0
 77
1
  4

 78
1
 79
1
170
1
 48
1.0
171
1
  6

172
1
173
1
174
1
140
1.0
141
1.0
175
1
  7

176
1
177
1
178
1
143
1.0
179
1
  8

270
1
271
1
272
1
145
1.0
146
1.0
273
1
  9

274
1
275
1
276
1
 42
1.0
 72
1
  3

 73
1
 74
1
 75
1
 94
63
  0
MATERIAL
  5
21
102
{ACAD_REACTORS
330
E
102
}
330
E
100
AcDbMaterial
  1
Global
  2

 70
0
 40
1.0
 71
1
 41
1.0
 91
-1023410177
 42
1.0
 72
1
  3

 73
1
 74
1
 75
1
 44
0.5
 73
0
 45
1.0
 46
1.0
 77
1
  4

 78
1
 79
1
170
1
 48
1.0
171
1
  6

172
1
173
1
174
1
140
1.0
141
1.0
175
1
  7

176
1
177
1
178
1
143
1.0
179
1
  8

270
1
271
1
272
1
145
1.0
146
1.0
273
1
  9

274
1
275
1
276
1
 42
1.0
 72
1
  3

 73
1
 74
1
 75
1
 94
63
  0
MLINESTYLE
  5
22
102
{ACAD_REACTORS
330
10
102
}
330
10
100
AcDbMlineStyle
  2
Standard
 70
0
  3

 62
256
 51
90.0
 52
90.0
 71
2
 49
0.5
 62
256
  6
BYLAYER
 49
-0.5
 62
256
  6
BYLAYER
  0
MLEADERSTYLE
  5
2C
102
{ACAD_REACTORS
330
F
102
}
330
F
100
AcDbMLeaderStyle
179
2
170
2
171
1
172
0
 90
2
 40
0.0
 41
0.0
173
1
 91
-1056964608
 92
-2
290
1
 42
2.0
291
1
 43
8.0
  3
Standard
 44
4.0
300

342
29
174
1
175
1
176
0
178
1
 93
-1056964608
 45
4.0
292
0
297
0
 46
4.0
 94
-1056964608
 47
1.0
 49
1.0
140
1.0
294
1
141
0.0
177
0
142
1.0
295
0
296
0
143
3.75
271
0
272
9
273
9
  0
DICTIONARY
  5
2D
330
A
100
AcDbDictionary
280
1
281
1
  3
CREATED_BY_EZDXF
350
2E
  3
WRITTEN_BY_EZDXF
350
3E
  0
DICTIONARYVAR
  5
2E
330
2D
100
DictionaryVariables
280
0
  1
1.4.3 @ 2026-05-01T11:57:16.760745+00:00
  0
DICTIONARYVAR
  5
3E
330
2D
100
DictionaryVariables
280
0
  1
1.4.3 @ 2026-05-01T16:15:48.067165+00:00
  0
ENDSEC
  0
EOF
