  0
SECTION
  2
HEADER
  9
$ACADVER
  1
AC1024
  9
$ACADMAINTVER
 70
6
  9
$DWGCODEPAGE
  3
ANSI_1252
  9
$LASTSAVEDBY
  1
ezdxf
  9
$INSBASE
 10
0.0
 20
0.0
 30
0.0
  9
$EXTMIN
 10
1e+20
 20
1e+20
 30
1e+20
  9
$EXTMAX
 10
-1e+20
 20
-1e+20
 30
-1e+20
  9
$LIMMIN
 10
0.0
 20
0.0
  9
$LIMMAX
 10
420.0
 20
297.0
  9
$ORTHOMODE
 70
0
  9
$REGENMODE
 70
1
  9
$FILLMODE
 70
1
  9
$QTEXTMODE
 70
0
  9
$MIRRTEXT
 70
1
  9
$LTSCALE
 40
1.0
  9
$ATTMODE
 70
1
  9
$TEXTSIZE
 40
2.5
  9
$TRACEWID
 40
1.0
  9
$TEXTSTYLE
  7
Standard
  9
$CLAYER
  8
0
  9
$CELTYPE
  6
ByLayer
  9
$CECOLOR
 62
256
  9
$CELTSCALE
 40
1.0
  9
$DISPSILH
 70
0
  9
$DIMSCALE
 40
1.0
  9
$DIMASZ
 40
2.5
  9
$DIMEXO
 40
0.625
  9
$DIMDLI
 40
3.75
  9
$DIMRND
 40
0.0
  9
$DIMDLE
 40
0.0
  9
$DIMEXE
 40
1.25
  9
$DIMTP
 40
0.0
  9
$DIMTM
 40
0.0
  9
$DIMTXT
 40
2.5
  9
$DIMCEN
 40
2.5
  9
$DIMTSZ
 40
0.0
  9
$DIMTOL
 70
0
  9
$DIMLIM
 70
0
  9
$DIMTIH
 70
0
  9
$DIMTOH
 70
0
  9
$DIMSE1
 70
0
  9
$DIMSE2
 70
0
  9
$DIMTAD
 70
1
  9
$DIMZIN
 70
8
  9
$DIMBLK
  1

  9
$DIMASO
 70
1
  9
$DIMSHO
 70
1
  9
$DIMPOST
  1

  9
$DIMAPOST
  1

  9
$DIMALT
 70
0
  9
$DIMALTD
 70
3
  9
$DIMALTF
 40
0.03937007874
  9
$DIMLFAC
 40
1.0
  9
$DIMTOFL
 70
1
  9
$DIMTVP
 40
0.0
  9
$DIMTIX
 70
0
  9
$DIMSOXD
 70
0
  9
$DIMSAH
 70
0
  9
$DIMBLK1
  1

  9
$DIMBLK2
  1

  9
$DIMSTYLE
  2
ISO-25
  9
$DIMCLRD
 70
0
  9
$DIMCLRE
 70
0
  9
$DIMCLRT
 70
0
  9
$DIMTFAC
 40
1.0
  9
$DIMGAP
 40
0.625
  9
$DIMJUST
 70
0
  9
$DIMSD1
 70
0
  9
$DIMSD2
 70
0
  9
$DIMTOLJ
 70
0
  9
$DIMTZIN
 70
8
  9
$DIMALTZ
 70
0
  9
$DIMALTTZ
 70
0
  9
$DIMUPT
 70
0
  9
$DIMDEC
 70
2
  9
$DIMTDEC
 70
2
  9
$DIMALTU
 70
2
  9
$DIMALTTD
 70
3
  9
$DIMTXSTY
  7
Standard
  9
$DIMAUNIT
 70
0
  9
$DIMADEC
 70
0
  9
$DIMALTRND
 40
0.0
  9
$DIMAZIN
 70
0
  9
$DIMDSEP
 70
44
  9
$DIMATFIT
 70
3
  9
$DIMFRAC
 70
0
  9
$DIMLDRBLK
  1

  9
$DIMLUNIT
 70
2
  9
$DIMLWD
 70
-2
  9
$DIMLWE
 70
-2
  9
$DIMTMOVE
 70
0
  9
$DIMFXL
 40
1.0
  9
$DIMFXLON
 70
0
  9
$DIMJOGANG
 40
0.785398163397
  9
$DIMTFILL
 70
0
  9
$DIMTFILLCLR
 70
0
  9
$DIMARCSYM
 70
0
  9
$DIMLTYPE
  6

  9
$DIMLTEX1
  6

  9
$DIMLTEX2
  6

  9
$DIMTXTDIRECTION
 70
0
  9
$LUNITS
 70
2
  9
$LUPREC
 70
4
  9
$SKETCHINC
 40
1.0
  9
$FILLETRAD
 40
10.0
  9
$AUNITS
 70
0
  9
$AUPREC
 70
2
  9
$MENU
  1
.
  9
$ELEVATION
 40
0.0
  9
$PELEVATION
 40
0.0
  9
$THICKNESS
 40
0.0
  9
$LIMCHECK
 70
0
  9
$CHAMFERA
 40
0.0
  9
$CHAMFERB
 40
0.0
  9
$CHAMFERC
 40
0.0
  9
$CHAMFERD
 40
0.0
  9
$SKPOLY
 70
0
  9
$TDCREATE
 40
2461162.7609606483
  9
$TDUCREATE
 40
2458532.153996898
  9
$TDUPDATE
 40
2461162.7609606483
  9
$TDUUPDATE
 40
2458532.1544311
  9
$TDINDWG
 40
0.0
  9
$TDUSRTIMER
 40
0.0
  9
$USRTIMER
 70
1
  9
$ANGBASE
 50
0.0
  9
$ANGDIR
 70
0
  9
$PDMODE
 70
0
  9
$PDSIZE
 40
0.0
  9
$PLINEWID
 40
0.0
  9
$SPLFRAME
 70
0
  9
$SPLINETYPE
 70
6
  9
$SPLINESEGS
 70
8
  9
$HANDSEED
  5
37
  9
$SURFTAB1
 70
6
  9
$SURFTAB2
 70
6
  9
$SURFTYPE
 70
6
  9
$SURFU
 70
6
  9
$SURFV
 70
6
  9
$UCSBASE
  2

  9
$UCSNAME
  2

  9
$UCSORG
 10
0.0
 20
0.0
 30
0.0
  9
$UCSXDIR
 10
1.0
 20
0.0
 30
0.0
  9
$UCSYDIR
 10
0.0
 20
1.0
 30
0.0
  9
$UCSORTHOREF
  2

  9
$UCSORTHOVIEW
 70
0
  9
$UCSORGTOP
 10
0.0
 20
0.0
 30
0.0
  9
$UCSORGBOTTOM
 10
0.0
 20
0.0
 30
0.0
  9
$UCSORGLEFT
 10
0.0
 20
0.0
 30
0.0
  9
$UCSORGRIGHT
 10
0.0
 20
0.0
 30
0.0
  9
$UCSORGFRONT
 10
0.0
 20
0.0
 30
0.0
  9
$UCSORGBACK
 10
0.0
 20
0.0
 30
0.0
  9
$PUCSBASE
  2

  9
$PUCSNAME
  2

  9
$PUCSORG
 10
0.0
 20
0.0
 30
0.0
  9
$PUCSXDIR
 10
1.0
 20
0.0
 30
0.0
  9
$PUCSYDIR
 10
0.0
 20
1.0
 30
0.0
  9
$PUCSORTHOREF
  2

  9
$PUCSORTHOVIEW
 70
0
  9
$PUCSORGTOP
 10
0.0
 20
0.0
 30
0.0
  9
$PUCSORGBOTTOM
 10
0.0
 20
0.0
 30
0.0
  9
$PUCSORGLEFT
 10
0.0
 20
0.0
 30
0.0
  9
$PUCSORGRIGHT
 10
0.0
 20
0.0
 30
0.0
  9
$PUCSORGFRONT
 10
0.0
 20
0.0
 30
0.0
  9
$PUCSORGBACK
 10
0.0
 20
0.0
 30
0.0
  9
$USERI1
 70
0
  9
$USERI2
 70
0
  9
$USERI3
 70
0
  9
$USERI4
 70
0
  9
$USERI5
 70
0
  9
$USERR1
 40
0.0
  9
$USERR2
 40
0.0
  9
$USERR3
 40
0.0
  9
$USERR4
 40
0.0
  9
$USERR5
 40
0.0
  9
$WORLDVIEW
 70
1
  9
$SHADEDGE
 70
3
  9
$SHADEDIF
 70
70
  9
$TILEMODE
 70
1
  9
$MAXACTVP
 70
64
  9
$PINSBASE
 10
0.0
 20
0.0
 30
0.0
  9
$PLIMCHECK
 70
0
  9
$PEXTMIN
 10
1e+20
 20
1e+20
 30
1e+20
  9
$PEXTMAX
 10
-1e+20
 20
-1e+20
 30
-1e+20
  9
$PLIMMIN
 10
0.0
 20
0.0
  9
$PLIMMAX
 10
420.0
 20
297.0
  9
$UNITMODE
 70
0
  9
$VISRETAIN
 70
1
  9
$PLINEGEN
 70
0
  9
$PSLTSCALE
 70
1
  9
$TREEDEPTH
 70
3020
  9
$CMLSTYLE
  2
Standard
  9
$CMLJUST
 70
0
  9
$CMLSCALE
 40
20.0
  9
$PROXYGRAPHICS
 70
1
  9
$MEASUREMENT
 70
1
  9
$CELWEIGHT
370
-1
  9
$ENDCAPS
280
0
  9
$JOINSTYLE
280
0
  9
$LWDISPLAY
290
0
  9
$INSUNITS
 70
4
  9
$HYPERLINKBASE
  1

  9
$STYLESHEET
  1

  9
$XEDIT
290
1
  9
$CEPSNTYPE
380
0
  9
$PSTYLEMODE
290
1
  9
$FINGERPRINTGUID
  2
{C7414465-90A2-47CB-AC58-C06291658C6F}
  9
$VERSIONGUID
  2
{AF20246C-B6BE-435D-8BA2-C17AACC7BF41}
  9
$EXTNAMES
290
1
  9
$PSVPSCALE
 40
0.0
  9
$OLESTARTUP
290
0
  9
$SORTENTS
280
127
  9
$INDEXCTL
280
0
  9
$HIDETEXT
280
1
  9
$XCLIPFRAME
280
1
  9
$HALOGAP
280
0
  9
$OBSCOLOR
 70
257
  9
$OBSLTYPE
280
0
  9
$INTERSECTIONDISPLAY
280
0
  9
$INTERSECTIONCOLOR
 70
257
  9
$DIMASSOC
280
2
  9
$PROJECTNAME
  1

  9
$CAMERADISPLAY
290
0
  9
$LENSLENGTH
 40
50.0
  9
$CAMERAHEIGHT
 40
0.0
  9
$STEPSPERSEC
 40
24.0
  9
$STEPSIZE
 40
100.0
  9
$3DDWFPREC
 40
2.0
  9
$PSOLWIDTH
 40
0.005
  9
$PSOLHEIGHT
 40
0.08
  9
$LOFTANG1
 40
1.570796326795
  9
$LOFTANG2
 40
1.570796326795
  9
$LOFTMAG1
 40
0.0
  9
$LOFTMAG2
 40
0.0
  9
$LOFTPARAM
 70
7
  9
$LOFTNORMALS
280
1
  9
$LATITUDE
 40
37.795
  9
$LONGITUDE
 40
-122.394
  9
$NORTHDIRECTION
 40
0.0
  9
$TIMEZONE
 70
-8000
  9
$LIGHTGLYPHDISPLAY
280
1
  9
$TILEMODELIGHTSYNCH
280
1
  9
$CMATERIAL
347
20
  9
$SOLIDHIST
280
0
  9
$SHOWHIST
280
1
  9
$DWFFRAME
280
2
  9
$DGNFRAME
280
2
  9
$REALWORLDSCALE
290
1
  9
$INTERFERECOLOR
 62
256
  9
$CSHADOW
280
0
  9
$SHADOWPLANELOCATION
 40
0.0
  0
ENDSEC
  0
SECTION
  2
CLASSES
  0
CLASS
  1
ACDBDICTIONARYWDFLT
  2
AcDbDictionaryWithDefault
  3
ObjectDBX Classes
 90
0
 91
0
280
0
281
0
  0
CLASS
  1
SUN
  2
AcDbSun
  3
SCENEOE
 90
1153
 91
0
280
0
281
0
  0
CLASS
  1
VISUALSTYLE
  2
AcDbVisualStyle
  3
ObjectDBX Classes
 90
4095
 91
0
280
0
281
0
  0
CLASS
  1
MATERIAL
  2
AcDbMaterial
  3
ObjectDBX Classes
 90
1153
 91
0
280
0
281
0
  0
CLASS
  1
SCALE
  2
AcDbScale
  3
ObjectDBX Classes
 90
1153
 91
0
280
0
281
0
  0
CLASS
  1
TABLESTYLE
  2
AcDbTableStyle
  3
ObjectDBX Classes
 90
4095
 91
0
280
0
281
0
  0
CLASS
  1
MLEADERSTYLE
  2
AcDbMLeaderStyle
  3
ACDB_MLEADERSTYLE_CLASS
 90
4095
 91
0
280
0
281
0
  0
CLASS
  1
DICTIONARYVAR
  2
AcDbDictionaryVar
  3
ObjectDBX Classes
 90
0
 91
0
280
0
281
0
  0
CLASS
  1
CELLSTYLEMAP
  2
AcDbCellStyleMap
  3
ObjectDBX Classes
 90
1152
 91
0
280
0
281
0
  0
CLASS
  1
MENTALRAYRENDERSETTINGS
  2
AcDbMentalRayRenderSettings
  3
SCENEOE
 90
1024
 91
0
280
0
281
0
  0
CLASS
  1
ACDBDETAILVIEWSTYLE
  2
AcDbDetailViewStyle
  3
ObjectDBX Classes
 90
1025
 91
0
280
0
281
0
  0
CLASS
  1
ACDBSECTIONVIEWSTYLE
  2
AcDbSectionViewStyle
  3
ObjectDBX Classes
 90
1025
 91
0
280
0
281
0
  0
CLASS
  1
RASTERVARIABLES
  2
AcDbRasterVariables
  3
ISM
 90
0
 91
0
280
0
281
0
  0
CLASS
  1
ACDBPLACEHOLDER
  2
AcDbPlaceHolder
  3
ObjectDBX Classes
 90
0
 91
0
280
0
281
0
  0
CLASS
  1
LAYOUT
  2
AcDbLayout
  3
ObjectDBX Classes
 90
0
 91
0
280
0
281
0
  0
ENDSEC
  0
SECTION
  2
TABLES
  0
TABLE
  2
VPORT
  5
8
330
0
100
AcDbSymbolTable
 70
1
  0
VPORT
  5
23
330
8
100
AcDbSymbolTableRecord
100
AcDbViewportTableRecord
  2
*Active
 70
0
 10
0.0
 20
0.0
 11
1.0
 21
1.0
 12
0.0
 22
0.0
 13
0.0
 23
0.0
 14
0.5
 24
0.5
 15
0.5
 25
0.5
 16
0.0
 26
0.0
 36
1.0
 17
0.0
 27
0.0
 37
0.0
 40
1000.0
 41
1.34
 42
50.0
 43
0.0
 44
0.0
 50
0.0
 51
0.0
 71
0
 72
1000
 73
1
 74
3
 75
0
 76
0
 77
0
 78
0
281
0
 65
0
146
0.0
  0
ENDTAB
  0
TABLE
  2
LTYPE
  5
2
330
0
100
AcDbSymbolTable
 70
3
  0
LTYPE
  5
24
330
2
100
AcDbSymbolTableRecord
100
AcDbLinetypeTableRecord
  2
ByBlock
 70
0
  3

 72
65
 73
0
 40
0.0
  0
LTYPE
  5
25
330
2
100
AcDbSymbolTableRecord
100
AcDbLinetypeTableRecord
  2
ByLayer
 70
0
  3

 72
65
 73
0
 40
0.0
  0
LTYPE
  5
26
330
2
100
AcDbSymbolTableRecord
100
AcDbLinetypeTableRecord
  2
Continuous
 70
0
  3

 72
65
 73
0
 40
0.0
  0
ENDTAB
  0
TABLE
  2
LAYER
  5
1
330
0
100
AcDbSymbolTable
 70
5
  0
LAYER
  5
27
330
1
100
AcDbSymbolTableRecord
100
AcDbLayerTableRecord
  2
0
 70
0
 62
7
  6
Continuous
370
-3
390
13
347
21
  0
LAYER
  5
28
330
1
100
AcDbSymbolTableRecord
100
AcDbLayerTableRecord
  2
Defpoints
 70
0
 62
7
  6
Continuous
290
0
370
-3
390
13
347
21
  0
LAYER
  5
2F
330
1
100
AcDbSymbolTableRecord
100
AcDbLayerTableRecord
  2
CUT_OUTER
 70
0
 62
1
  6
Continuous
370
-3
390
13
347
21
  0
LAYER
  5
30
330
1
100
AcDbSymbolTableRecord
100
AcDbLayerTableRecord
  2
CUT_INNER
 70
0
 62
3
  6
Continuous
370
-3
390
13
347
21
  0
LAYER
  5
31
330
1
100
AcDbSymbolTableRecord
100
AcDbLayerTableRecord
  2
MARKING
 70
0
 62
2
  6
Continuous
370
-3
390
13
347
21
  0
ENDTAB
  0
TABLE
  2
STYLE
  5
5
330
0
100
AcDbSymbolTable
 70
1
  0
STYLE
  5
29
330
5
100
AcDbSymbolTableRecord
100
AcDbTextStyleTableRecord
  2
Standard
 70
0
 40
0.0
 41
1.0
 50
0.0
 71
0
 42
2.5
  3
txt
  4

  0
ENDTAB
  0
TABLE
  2
VIEW
  5
7
330
0
100
AcDbSymbolTable
 70
0
  0
ENDTAB
  0
TABLE
  2
UCS
  5
6
330
0
100
AcDbSymbolTable
 70
0
  0
ENDTAB
  0
TABLE
  2
APPID
  5
3
330
0
100
AcDbSymbolTable
 70
3
  0
APPID
  5
2A
330
3
100
AcDbSymbolTableRecord
100
AcDbRegAppTableRecord
  2
ACAD
 70
0
  0
APPID
  5
34
330
3
100
AcDbSymbolTableRecord
100
AcDbRegAppTableRecord
  2
HATCHBACKGROUNDCOLOR
 70
0
  0
APPID
  5
35
330
3
100
AcDbSymbolTableRecord
100
AcDbRegAppTableRecord
  2
EZDXF
 70
0
  0
ENDTAB
  0
TABLE
  2
DIMSTYLE
  5
4
330
0
100
AcDbSymbolTable
 70
1
100
AcDbDimStyleTable
  0
DIMSTYLE
105
2B
330
4
100
AcDbSymbolTableRecord
100
AcDbDimStyleTableRecord
  2
Standard
 70
0
 40
1.0
 41
2.5
 42
0.625
 43
3.75
 44
1.25
 45
0.0
 46
0.0
 47
0.0
 48
0.0
 49
2.5
140
2.5
141
2.5
142
0.0
143
0.03937007874
144
1.0
145
0.0
146
1.0
147
0.625
148
0.0
 69
0
 70
0
 71
0
 72
0
 73
0
 74
0
 75
0
 76
0
 77
1
 78
8
 79
3
170
0
171
3
172
1
173
0
174
0
175
0
176
0
177
0
178
0
179
2
271
2
272
2
273
2
274
3
275
0
276
0
277
2
278
44
279
0
280
0
281
0
282
0
283
0
284
8
285
0
286
0
288
0
289
3
290
0
371
-2
372
-2
  0
ENDTAB
  0
TABLE
  2
BLOCK_RECORD
  5
9
330
0
100
AcDbSymbolTable
 70
2
  0
BLOCK_RECORD
  5
17
330
9
100
AcDbSymbolTableRecord
100
AcDbBlockTableRecord
  2
*Model_Space
340
1A
 70
0
280
1
281
0
  0
BLOCK_RECORD
  5
1B
330
9
100
AcDbSymbolTableRecord
100
AcDbBlockTableRecord
  2
*Paper_Space
340
1E
 70
0
280
1
281
0
  0
ENDTAB
  0
ENDSEC
  0
SECTION
  2
BLOCKS
  0
BLOCK
  5
18
330
17
100
AcDbEntity
  8
0
100
AcDbBlockBegin
  2
*Model_Space
 70
0
 10
0.0
 20
0.0
 30
0.0
  3
*Model_Space
  1

  0
ENDBLK
  5
19
330
17
100
AcDbEntity
  8
0
100
AcDbBlockEnd
  0
BLOCK
  5
1C
330
1B
100
AcDbEntity
  8
0
100
AcDbBlockBegin
  2
*Paper_Space
 70
0
 10
0.0
 20
0.0
 30
0.0
  3
*Paper_Space
  1

  0
ENDBLK
  5
1D
330
1B
100
AcDbEntity
  8
0
100
AcDbBlockEnd
  0
ENDSEC
  0
SECTION
  2
ENTITIES
  0
LWPOLYLINE
  5
32
330
17
100
AcDbEntity
  8
CUT_OUTER
100
AcDbPolyline
 90
216
 70
1
 10
57.0
 20
105.5
 10
56.9347369038901
 20
105.49572243068701
 10
56.870590477448786
 20
105.48296291314455
 10
56.808658283817294
 20
105.46193976625568
 10
56.75
 20
105.43301270189227
 10
56.69561928549547
 20
105.39667667014555
 10
56.64644660940667
 20
105.35355339059333
 10
56.60332332985445
 20
105.3043807145043
 10
56.56698729810796
 20
105.25
 10
56.538060233744545
 20
105.19134171618248
 10
56.51703708685545
 20
105.12940952255121
 10
56.50427756931322
 20
105.06526309611013
 10
56.5
 20
105.0
 10
56.5
 20
101.91421356237288
 10
56.50262835562489
 20
101.86301349038285
 10
56.51048578948712
 20
101.8123517063816
 10
56.52348969306422
 20
101.76276083910898
 10
56.54150335082386
 20
101.71476225830497
 10
56.56433737757152
 20
101.66886059332887
 10
56.59175170953631
 20
101.62553842777811
 10
56.62345812826334
 20
101.58525122588253
 10
56.65912329077764
 20
101.54842254401728
 10
56.69837223415607
 20
101.5154395776749
 10
56.74079231767473
 20
101.48664909071567
 10
56.78593756107284
 20
101.46235376969298
 10
56.83333333333303
 20
101.44280904158177
 10
57.125596974168275
 20
101.28014641312507
 10
57.34787059819291
 20
101.03020321455097
 10
57.475286862174926
 20
100.72094238269028
 10
57.49359079554097
 20
100.38696314310528
 10
57.40073460609028
 20
100.06563014677408
 10
57.20710678118667
 20
99.79289321881333
 10
56.93436985322569
 20
99.59926539390972
 10
56.61303685689427
 20
99.50640920445926
 10
56.27905761730926
 20
99.52471313782507
 10
55.96979678544858
 20
99.65212940180731
 10
55.719853586874706
 20
99.87440302583218
 10
55.55719095841778
 20
100.16666666666674
 10
55.53764623030702
 20
100.21406243892693
 10
55.51335090928433
 20
100.25920768232527
 10
55.4845604223251
 20
100.30162776584393
 10
55.451577455982715
 20
100.34087670922258
 10
55.41474877411747
 20
100.37654187173644
 10
55.37446157222212
 20
100.40824829046392
 10
55.3311394066709
 20
100.43566262242848
 10
55.2852377416948
 20
100.45849664917591
 10
55.23723916089102
 20
100.47651030693578
 10
55.18764829361862
 20
100.48951421051288
 10
55.136986509617145
 20
100.49737164437488
 10
55.08578643762712
 20
100.5
 10
40.91421356237424
 20
100.5
 10
40.86301349038422
 20
100.49737164437488
 10
40.81235170638274
 20
100.48951421051288
 10
40.76276083911034
 20
100.47651030693578
 10
40.714762258306564
 20
100.45849664917614
 10
40.66886059333001
 20
100.43566262242848
 10
40.62553842777925
 20
100.40824829046392
 10
40.585251225883894
 20
100.37654187173644
 10
40.54842254401865
 20
100.34087670922258
 10
40.51543957767626
 20
100.30162776584393
 10
40.48664909071704
 20
100.25920768232527
 10
40.462353769694346
 20
100.21406243892693
 10
40.44280904158313
 20
100.16666666666652
 10
40.280146413126204
 20
99.87440302583218
 10
40.03020321455233
 20
99.65212940180731
 10
39.720942382691646
 20
99.52471313782507
 10
39.38696314310664
 20
99.50640920445926
 10
39.06563014677522
 20
99.59926539390972
 10
38.79289321881424
 20
99.79289321881333
 10
38.59926539391063
 20
100.06563014677408
 10
38.50640920445994
 20
100.38696314310528
 10
38.524713137825984
 20
100.72094238269028
 10
38.652129401808
 20
101.03020321455097
 10
38.874403025832635
 20
101.28014641312507
 10
39.166666666667425
 20
101.442809041582
 10
39.21406243892716
 20
101.46235376969298
 10
39.25920768232527
 20
101.48664909071567
 10
39.30162776584393
 20
101.5154395776749
 10
39.34087670922236
 20
101.54842254401728
 10
39.37654187173666
 20
101.58525122588253
 10
39.40824829046369
 20
101.62553842777811
 10
39.43566262242848
 20
101.66886059332887
 10
39.45849664917614
 20
101.71476225830497
 10
39.47651030693578
 20
101.76276083910898
 10
39.48951421051288
 20
101.8123517063816
 10
39.49737164437511
 20
101.86301349038285
 10
39.5
 20
101.91421356237288
 10
39.50000000000091
 20
105.0
 10
39.49572243068678
 20
105.06526309611013
 10
39.48296291314455
 20
105.12940952255121
 10
39.461939766255455
 20
105.19134171618248
 10
39.43301270189204
 20
105.25
 10
39.39667667014555
 20
105.3043807145043
 10
39.35355339059333
 20
105.35355339059333
 10
39.30438071450453
 20
105.39667667014555
 10
39.25
 20
105.43301270189227
 10
39.191341716182706
 20
105.46193976625568
 10
39.129409522551214
 20
105.48296291314455
 10
39.0652630961099
 20
105.49572243068701
 10
39.0
 20
105.5
 10
10.0
 20
105.5
 10
8.694738077799684
 20
105.41444861373816
 10
7.411809548974816
 20
105.15925826289072
 10
6.173165676349072
 20
104.73879532511296
 10
5.0
 20
104.16025403784442
 10
3.9123857099129964
 20
103.43353340291242
 10
2.928932188134695
 20
102.57106781186553
 10
2.066466597087583
 20
101.58761429008723
 10
1.3397459621555754
 20
100.5
 10
0.7612046748872672
 20
99.32683432365093
 10
0.3407417371095107
 20
98.08819045102518
 10
0.08555138626206826
 20
96.80526192220054
 10
0.0
 20
95.5
 10
9.094947017729282e-13
 20
71.04309051452788
 10
0.035559911820200796
 20
70.20051486268585
 10
0.14198674581530213
 20
69.36393159402019
 10
0.31852359621871074
 20
68.53929047398378
 10
0.5639149360640658
 20
67.73245633567853
 10
0.876415546469616
 20
66.94916736926734
 10
1.2538029286056371
 20
66.19499431206486
 10
1.693393110066154
 20
65.47530082955359
 10
2.1920597332332363
 20
64.79520536908876
 10
2.746256289876783
 20
64.15954475759077
 10
3.352041343860037
 20
63.572839802118324
 10
4.0051065625630144
 20
63.03926313796774
 10
4.700807357667145
 20
62.56260955296398
 10
70.38348228662517
 20
21.519519038435874
 10
70.78377774657474
 20
21.282155863032813
 10
71.19468312695108
 20
21.063673596766193
 10
71.61530849819746
 20
20.864545423574327
 10
72.04474287942412
 20
20.68520261073877
 10
72.48205621138595
 20
20.52603357485691
 10
72.92630137078595
 20
20.387383040616896
 10
73.37651622153135
 20
20.269551294201847
 10
73.83172569850876
 20
20.172793532935884
 10
74.29094391935541
 20
20.097319312584432
 10
74.75317631966209
 20
20.043292093502032
 10
75.21742180697856
 20
20.010828886614718
 10
75.6826749289562
 20
20.0
 10
80.00000000000227
 20
20.0
 10
81.30526192220259
 20
19.91444861373816
 10
82.58819045102746
 20
19.659258262890717
 10
83.8268343236532
 20
19.23879532511296
 10
85.00000000000227
 20
18.660254037844425
 10
86.08761429008928
 20
17.933533402912417
 10
87.07106781186758
 20
17.071067811865532
 10
87.93353340291469
 20
16.08761429008723
 10
88.6602540378467
 20
15.0
 10
89.238795325115
 20
13.826834323650928
 10
89.65925826289276
 20
12.588190451025184
 10
89.9144486137402
 20
11.305261922200543
 10
90.00000000000227
 20
10.0
 10
90.08555138626207
 20
8.694738077799457
 10
90.34074173710906
 20
7.411809548974816
 10
90.76120467488727
 20
6.173165676349072
 10
91.33974596215558
 20
5.0
 10
92.06646659708758
 20
3.912385709912769
 10
92.9289321881347
 20
2.9289321881344677
 10
93.91238570991254
 20
2.066466597087583
 10
95.0
 20
1.3397459621555754
 10
96.17316567634907
 20
0.7612046748870398
 10
97.41180954897482
 20
0.34074173710928335
 10
98.69473807779968
 20
0.08555138626184089
 10
100.0
 20
0.0
 10
165.0000000000009
 20
0.0
 10
166.30526192220123
 20
0.08555138626184089
 10
167.5881904510261
 20
0.34074173710928335
 10
168.82683432365184
 20
0.7612046748870398
 10
170.0000000000009
 20
1.3397459621555754
 10
171.0876142900879
 20
2.066466597087583
 10
172.07106781186621
 20
2.9289321881344677
 10
172.93353340291333
 20
3.912385709912769
 10
173.66025403784533
 20
5.0
 10
174.23879532511364
 20
6.173165676349072
 10
174.6592582628914
 20
7.411809548974816
 10
174.91444861373884
 20
8.694738077799457
 10
175.0000000000009
 20
10.0
 10
175.0
 20
35.0
 10
174.9572243068692
 20
35.65263096110016
 10
174.82962913144547
 20
36.29409522551259
 10
174.61939766255637
 20
36.913417161825464
 10
174.3301270189222
 20
37.5
 10
173.96676670145598
 20
38.0438071450435
 10
173.53553390593288
 20
38.53553390593265
 10
173.0438071450435
 20
38.96676670145621
 10
172.5
 20
39.33012701892221
 10
171.91341716182524
 20
39.619397662556366
 10
171.2940952255126
 20
39.829629131445245
 10
170.65263096110039
 20
39.957224306868966
 10
170.0
 20
40.0
 10
120.00000000000227
 20
40.0
 10
119.34736903890189
 20
40.042775693131034
 10
118.70590477448968
 20
40.170370868554755
 10
118.08658283817704
 20
40.380602337443634
 10
117.50000000000227
 20
40.66987298107779
 10
116.95619285495877
 20
41.03323329854379
 10
116.4644660940694
 20
41.46446609406735
 10
116.03323329854629
 20
41.9561928549565
 10
115.66987298108006
 20
42.5
 10
115.38060233744591
 20
43.086582838174536
 10
115.1703708685568
 20
43.70590477448741
 10
115.04277569313308
 20
44.34736903889984
 10
115.00000000000227
 20
45.0
 10
115.00000000000091
 20
100.5
 10
114.9572243068692
 20
101.15263096110016
 10
114.82962913144547
 20
101.79409522551259
 10
114.61939766255637
 20
102.41341716182546
 10
114.33012701892221
 20
103.0
 10
113.96676670145644
 20
103.54380714504373
 10
113.53553390593288
 20
104.03553390593288
 10
113.0438071450435
 20
104.46676670145621
 10
112.5
 20
104.83012701892221
 10
111.91341716182569
 20
105.1193976625566
 10
111.29409522551259
 20
105.32962913144547
 10
110.65263096110039
 20
105.4572243068692
 10
110.0
 20
105.5
  0
LWPOLYLINE
  5
33
330
17
100
AcDbEntity
  8
CUT_INNER
100
AcDbPolyline
 90
64
 70
1
 10
27.000000000002274
 20
80.5
 10
26.824079950804844
 20
80.4922480107382
 10
26.649523631939246
 20
80.46905213629043
 10
26.477684202116052
 20
80.43059219082602
 10
26.309893758748785
 20
80.37716631542958
 10
26.147453011553353
 20
80.30918866691309
 10
25.991621199457768
 20
80.22718620727824
 10
25.843606328995975
 20
80.13179461871164
 10
25.7045558098539
 20
80.02375337578314
 10
25.57554756016316
 20
79.90390001304786
 10
25.45758165048983
 20
79.77316363248701
 10
25.35157255129934
 20
79.63255770111846
 10
25.25834204399007
 20
79.48317219461251
 10
25.300665014066453
 20
79.41170672368571
 10
25.345918719850488
 20
79.34206011972219
 10
25.39402511513481
 20
79.27435249782025
 10
25.444901233857763
 20
79.20870062903873
 10
25.498459333191477
 20
79.1452177390081
 10
25.55460704486495
 20
79.08401331265941
 10
25.61324753446661
 20
79.02519290540022
 10
25.67427966844798
 20
78.96885796107154
 10
25.73759818854296
 20
78.91510563699353
 10
25.80309389330023
 20
78.86402863640365
 10
25.870653826414127
 20
78.81571504857902
 10
25.940161471535703
 20
78.77024819691223
 10
78.76798632296732
 20
45.75975951921805
 10
78.96813405294233
 20
45.64107793151629
 10
79.17358674313073
 20
45.53183679838321
 10
79.38389942875392
 20
45.432272711787164
 10
79.59861661936748
 20
45.3426013053695
 10
79.81727328534816
 20
45.26301678742834
 10
80.03939586504794
 20
45.19369152030845
 10
80.26450329042109
 20
45.13477564710092
 10
80.49210802890957
 20
45.08639676646794
 10
80.72171713933267
 20
45.0486596562921
 10
80.95283333948646
 20
45.0216460467509
 10
81.1849560831447
 20
45.00541444330747
 10
81.41758264413329
 20
45.0
 10
85.00000000000091
 20
45.0
 10
85.6526309611013
 20
45.042775693131034
 10
86.2940952255135
 20
45.170370868554755
 10
86.91341716182615
 20
45.380602337443634
 10
87.50000000000091
 20
45.66987298107779
 10
88.04380714504441
 20
46.03323329854379
 10
88.53553390593379
 20
46.46446609406735
 10
88.96676670145689
 20
46.9561928549565
 10
89.33012701892312
 20
47.5
 10
89.61939766255728
 20
48.086582838174536
 10
89.82962913144638
 20
48.70590477448741
 10
89.9572243068701
 20
49.34736903889984
 10
90.00000000000091
 20
50.0
 10
90.0
 20
75.5
 10
89.9572243068701
 20
76.15263096110016
 10
89.82962913144638
 20
76.79409522551259
 10
89.61939766255728
 20
77.41341716182546
 10
89.33012701892312
 20
78.0
 10
88.96676670145689
 20
78.5438071450435
 10
88.53553390593379
 20
79.03553390593265
 10
88.04380714504441
 20
79.46676670145621
 10
87.50000000000091
 20
79.83012701892221
 10
86.91341716182615
 20
80.11939766255637
 10
86.2940952255135
 20
80.32962913144524
 10
85.6526309611013
 20
80.45722430686897
 10
85.00000000000091
 20
80.5
  0
ENDSEC
  0
SECTION
  2
OBJECTS
  0
DICTIONARY
  5
A
330
0
100
AcDbDictionary
281
1
  3
ACAD_COLOR
350
B
  3
ACAD_GROUP
350
C
  3
ACAD_LAYOUT
350
D
  3
ACAD_MATERIAL
350
E
  3
ACAD_MLEADERSTYLE
350
F
  3
ACAD_MLINESTYLE
350
10
  3
ACAD_PLOTSETTINGS
350
11
  3
ACAD_PLOTSTYLENAME
350
12
  3
ACAD_SCALELIST
350
14
  3
ACAD_TABLESTYLE
350
15
  3
ACAD_VISUALSTYLE
350
16
  3
EZDXF_META
350
2D
  0
DICTIONARY
  5
B
330
A
100
AcDbDictionary
281
1
  0
DICTIONARY
  5
C
330
A
100
AcDbDictionary
281
1
  0
DICTIONARY
  5
D
330
A
100
AcDbDictionary
281
1
  3
Model
350
1A
  3
Layout1
350
1E
  0
DICTIONARY
  5
E
330
A
100
AcDbDictionary
281
1
  3
ByBlock
350
1F
  3
ByLayer
350
20
  3
Global
350
21
  0
DICTIONARY
  5
F
330
A
100
AcDbDictionary
281
1
  3
Standard
350
2C
  0
DICTIONARY
  5
10
330
A
100
AcDbDictionary
281
1
  3
Standard
350
22
  0
DICTIONARY
  5
11
330
A
100
AcDbDictionary
281
1
  0
ACDBDICTIONARYWDFLT
  5
12
330
A
100
AcDbDictionary
281
1
  3
Normal
350
13
100
AcDbDictionaryWithDefault
340
13
  0
ACDBPLACEHOLDER
  5
13
330
12
  0
DICTIONARY
  5
14
330
A
100
AcDbDictionary
281
1
  0
DICTIONARY
  5
15
330
A
100
AcDbDictionary
281
1
  0
DICTIONARY
  5
16
330
A
100
AcDbDictionary
281
1
  0
LAYOUT
  5
1A
330
D
100
AcDbPlotSettings
  1

  4
A3
  6

 40
7.5
 41
20.0
 42
7.5
 43
20.0
 44
420.0
 45
297.0
 46
0.0
 47
0.0
 48
0.0
 49
0.0
140
0.0
141
0.0
142
1.0
143
1.0
 70
1024
 72
1
 73
0
 74
5
  7

 75
16
 76
0
 77
2
 78
300
147
1.0
148
0.0
149
0.0
100
AcDbLayout
  1
Model
 70
1
 71
0
 10
0.0
 20
0.0
 11
420.0
 21
297.0
 12
0.0
 22
0.0
 32
0.0
 14
1e+20
 24
1e+20
 34
1e+20
 15
-1e+20
 25
-1e+20
 35
-1e+20
146
0.0
 13
0.0
 23
0.0
 33
0.0
 16
1.0
 26
0.0
 36
0.0
 17
0.0
 27
1.0
 37
0.0
 76
1
330
17
  0
LAYOUT
  5
1E
330
D
100
AcDbPlotSettings
  1

  4
A3
  6

 40
7.5
 41
20.0
 42
7.5
 43
20.0
 44
420.0
 45
297.0
 46
0.0
 47
0.0
 48
0.0
 49
0.0
140
0.0
141
0.0
142
1.0
143
1.0
 70
0
 72
1
 73
0
 74
5
  7

 75
16
 76
0
 77
2
 78
300
147
1.0
148
0.0
149
0.0
100
AcDbLayout
  1
Layout1
 70
1
 71
1
 10
0.0
 20
0.0
 11
420.0
 21
297.0
 12
0.0
 22
0.0
 32
0.0
 14
1e+20
 24
1e+20
 34
1e+20
 15
-1e+20
 25
-1e+20
 35
-1e+20
146
0.0
 13
0.0
 23
0.0
 33
0.0
 16
1.0
 26
0.0
 36
0.0
 17
0.0
 27
1.0
 37
0.0
 76
1
330
1B
  0
MATERIAL
  5
1F
102
{ACAD_REACTORS
330
E
102
}
330
E
100
AcDbMaterial
  1
ByBlock
  2

 70
0
 40
1.0
 71
1
 41
1.0
 91
-1023410177
 42
1.0
 72
1
  3

 73
1
 74
1
 75
1
 44
0.5
 73
0
 45
1.0
 46
1.0
 77
1
  4

 78
1
 79
1
170
1
 48
1.0
171
1
  6

172
1
173
1
174
1
140
1.0
141
1.0
175
1
  7

176
1
177
1
178
1
143
1.0
179
1
  8

270
1
271
1
272
1
145
1.0
146
1.0
273
1
  9

274
1
275
1
276
1
 42
1.0
 72
1
  3

 73
1
 74
1
 75
1
 94
63
  0
MATERIAL
  5
20
102
{ACAD_REACTORS
330
E
102
}
330
E
100
AcDbMaterial
  1
ByLayer
  2

 70
0
 40
1.0
 71
1
 41
1.0
 91
-1023410177
 42
1.0
 72
1
  3

 73
1
 74
1
 75
1
 44
0.5
 73
0
 45
1.0
 46
1.0
 77
1
  4

 78
1
 79
1
170
1
 48
1.0
171
1
  6

172
1
173
1
174
1
140
1.0
141
1.0
175
1
  7

176
1
177
1
178
1
143
1.0
179
1
  8

270
1
271
1
272
1
145
1.0
146
1.0
273
1
  9

274
1
275
1
276
1
 42
1.0
 72
1
  3

 73
1
 74
1
 75
1
 94
63
  0
MATERIAL
  5
21
102
{ACAD_REACTORS
330
E
102
}
330
E
100
AcDbMaterial
  1
Global
  2

 70
0
 40
1.0
 71
1
 41
1.0
 91
-1023410177
 42
1.0
 72
1
  3

 73
1
 74
1
 75
1
 44
0.5
 73
0
 45
1.0
 46
1.0
 77
1
  4

 78
1
 79
1
170
1
 48
1.0
171
1
  6

172
1
173
1
174
1
140
1.0
141
1.0
175
1
  7

176
1
177
1
178
1
143
1.0
179
1
  8

270
1
271
1
272
1
145
1.0
146
1.0
273
1
  9

274
1
275
1
276
1
 42
1.0
 72
1
  3

 73
1
 74
1
 75
1
 94
63
  0
MLINESTYLE
  5
22
102
{ACAD_REACTORS
330
10
102
}
330
10
100
AcDbMlineStyle
  2
Standard
 70
0
  3

 62
256
 51
90.0
 52
90.0
 71
2
 49
0.5
 62
256
  6
BYLAYER
 49
-0.5
 62
256
  6
BYLAYER
  0
MLEADERSTYLE
  5
2C
102
{ACAD_REACTORS
330
F
102
}
330
F
100
AcDbMLeaderStyle
179
2
170
2
171
1
172
0
 90
2
 40
0.0
 41
0.0
173
1
 91
-1056964608
 92
-2
290
1
 42
2.0
291
1
 43
8.0
  3
Standard
 44
4.0
300

342
29
174
1
175
1
176
0
178
1
 93
-1056964608
 45
4.0
292
0
297
0
 46
4.0
 94
-1056964608
 47
1.0
 49
1.0
140
1.0
294
1
141
0.0
177
0
142
1.0
295
0
296
0
143
3.75
271
0
272
9
273
9
  0
DICTIONARY
  5
2D
330
A
100
AcDbDictionary
280
1
281
1
  3
CREATED_BY_EZDXF
350
2E
  3
WRITTEN_BY_EZDXF
350
36
  0
DICTIONARYVAR
  5
2E
330
2D
100
DictionaryVariables
280
0
  1
1.4.3 @ 2026-05-01T11:57:14.054012+00:00
  0
DICTIONARYVAR
  5
36
330
2D
100
DictionaryVariables
280
0
  1
1.4.3 @ 2026-05-01T16:15:47.970690+00:00
  0
ENDSEC
  0
EOF
