  0
SECTION
  2
HEADER
  9
$ACADVER
  1
AC1024
  9
$ACADMAINTVER
 70
6
  9
$DWGCODEPAGE
  3
ANSI_1252
  9
$LASTSAVEDBY
  1
ezdxf
  9
$INSBASE
 10
0.0
 20
0.0
 30
0.0
  9
$EXTMIN
 10
1e+20
 20
1e+20
 30
1e+20
  9
$EXTMAX
 10
-1e+20
 20
-1e+20
 30
-1e+20
  9
$LIMMIN
 10
0.0
 20
0.0
  9
$LIMMAX
 10
420.0
 20
297.0
  9
$ORTHOMODE
 70
0
  9
$REGENMODE
 70
1
  9
$FILLMODE
 70
1
  9
$QTEXTMODE
 70
0
  9
$MIRRTEXT
 70
1
  9
$LTSCALE
 40
1.0
  9
$ATTMODE
 70
1
  9
$TEXTSIZE
 40
2.5
  9
$TRACEWID
 40
1.0
  9
$TEXTSTYLE
  7
Standard
  9
$CLAYER
  8
0
  9
$CELTYPE
  6
ByLayer
  9
$CECOLOR
 62
256
  9
$CELTSCALE
 40
1.0
  9
$DISPSILH
 70
0
  9
$DIMSCALE
 40
1.0
  9
$DIMASZ
 40
2.5
  9
$DIMEXO
 40
0.625
  9
$DIMDLI
 40
3.75
  9
$DIMRND
 40
0.0
  9
$DIMDLE
 40
0.0
  9
$DIMEXE
 40
1.25
  9
$DIMTP
 40
0.0
  9
$DIMTM
 40
0.0
  9
$DIMTXT
 40
2.5
  9
$DIMCEN
 40
2.5
  9
$DIMTSZ
 40
0.0
  9
$DIMTOL
 70
0
  9
$DIMLIM
 70
0
  9
$DIMTIH
 70
0
  9
$DIMTOH
 70
0
  9
$DIMSE1
 70
0
  9
$DIMSE2
 70
0
  9
$DIMTAD
 70
1
  9
$DIMZIN
 70
8
  9
$DIMBLK
  1

  9
$DIMASO
 70
1
  9
$DIMSHO
 70
1
  9
$DIMPOST
  1

  9
$DIMAPOST
  1

  9
$DIMALT
 70
0
  9
$DIMALTD
 70
3
  9
$DIMALTF
 40
0.03937007874
  9
$DIMLFAC
 40
1.0
  9
$DIMTOFL
 70
1
  9
$DIMTVP
 40
0.0
  9
$DIMTIX
 70
0
  9
$DIMSOXD
 70
0
  9
$DIMSAH
 70
0
  9
$DIMBLK1
  1

  9
$DIMBLK2
  1

  9
$DIMSTYLE
  2
ISO-25
  9
$DIMCLRD
 70
0
  9
$DIMCLRE
 70
0
  9
$DIMCLRT
 70
0
  9
$DIMTFAC
 40
1.0
  9
$DIMGAP
 40
0.625
  9
$DIMJUST
 70
0
  9
$DIMSD1
 70
0
  9
$DIMSD2
 70
0
  9
$DIMTOLJ
 70
0
  9
$DIMTZIN
 70
8
  9
$DIMALTZ
 70
0
  9
$DIMALTTZ
 70
0
  9
$DIMUPT
 70
0
  9
$DIMDEC
 70
2
  9
$DIMTDEC
 70
2
  9
$DIMALTU
 70
2
  9
$DIMALTTD
 70
3
  9
$DIMTXSTY
  7
Standard
  9
$DIMAUNIT
 70
0
  9
$DIMADEC
 70
0
  9
$DIMALTRND
 40
0.0
  9
$DIMAZIN
 70
0
  9
$DIMDSEP
 70
44
  9
$DIMATFIT
 70
3
  9
$DIMFRAC
 70
0
  9
$DIMLDRBLK
  1

  9
$DIMLUNIT
 70
2
  9
$DIMLWD
 70
-2
  9
$DIMLWE
 70
-2
  9
$DIMTMOVE
 70
0
  9
$DIMFXL
 40
1.0
  9
$DIMFXLON
 70
0
  9
$DIMJOGANG
 40
0.785398163397
  9
$DIMTFILL
 70
0
  9
$DIMTFILLCLR
 70
0
  9
$DIMARCSYM
 70
0
  9
$DIMLTYPE
  6

  9
$DIMLTEX1
  6

  9
$DIMLTEX2
  6

  9
$DIMTXTDIRECTION
 70
0
  9
$LUNITS
 70
2
  9
$LUPREC
 70
4
  9
$SKETCHINC
 40
1.0
  9
$FILLETRAD
 40
10.0
  9
$AUNITS
 70
0
  9
$AUPREC
 70
2
  9
$MENU
  1
.
  9
$ELEVATION
 40
0.0
  9
$PELEVATION
 40
0.0
  9
$THICKNESS
 40
0.0
  9
$LIMCHECK
 70
0
  9
$CHAMFERA
 40
0.0
  9
$CHAMFERB
 40
0.0
  9
$CHAMFERC
 40
0.0
  9
$CHAMFERD
 40
0.0
  9
$SKPOLY
 70
0
  9
$TDCREATE
 40
2461162.7609722223
  9
$TDUCREATE
 40
2458532.153996898
  9
$TDUPDATE
 40
2461162.7609722223
  9
$TDUUPDATE
 40
2458532.1544311
  9
$TDINDWG
 40
0.0
  9
$TDUSRTIMER
 40
0.0
  9
$USRTIMER
 70
1
  9
$ANGBASE
 50
0.0
  9
$ANGDIR
 70
0
  9
$PDMODE
 70
0
  9
$PDSIZE
 40
0.0
  9
$PLINEWID
 40
0.0
  9
$SPLFRAME
 70
0
  9
$SPLINETYPE
 70
6
  9
$SPLINESEGS
 70
8
  9
$HANDSEED
  5
3B
  9
$SURFTAB1
 70
6
  9
$SURFTAB2
 70
6
  9
$SURFTYPE
 70
6
  9
$SURFU
 70
6
  9
$SURFV
 70
6
  9
$UCSBASE
  2

  9
$UCSNAME
  2

  9
$UCSORG
 10
0.0
 20
0.0
 30
0.0
  9
$UCSXDIR
 10
1.0
 20
0.0
 30
0.0
  9
$UCSYDIR
 10
0.0
 20
1.0
 30
0.0
  9
$UCSORTHOREF
  2

  9
$UCSORTHOVIEW
 70
0
  9
$UCSORGTOP
 10
0.0
 20
0.0
 30
0.0
  9
$UCSORGBOTTOM
 10
0.0
 20
0.0
 30
0.0
  9
$UCSORGLEFT
 10
0.0
 20
0.0
 30
0.0
  9
$UCSORGRIGHT
 10
0.0
 20
0.0
 30
0.0
  9
$UCSORGFRONT
 10
0.0
 20
0.0
 30
0.0
  9
$UCSORGBACK
 10
0.0
 20
0.0
 30
0.0
  9
$PUCSBASE
  2

  9
$PUCSNAME
  2

  9
$PUCSORG
 10
0.0
 20
0.0
 30
0.0
  9
$PUCSXDIR
 10
1.0
 20
0.0
 30
0.0
  9
$PUCSYDIR
 10
0.0
 20
1.0
 30
0.0
  9
$PUCSORTHOREF
  2

  9
$PUCSORTHOVIEW
 70
0
  9
$PUCSORGTOP
 10
0.0
 20
0.0
 30
0.0
  9
$PUCSORGBOTTOM
 10
0.0
 20
0.0
 30
0.0
  9
$PUCSORGLEFT
 10
0.0
 20
0.0
 30
0.0
  9
$PUCSORGRIGHT
 10
0.0
 20
0.0
 30
0.0
  9
$PUCSORGFRONT
 10
0.0
 20
0.0
 30
0.0
  9
$PUCSORGBACK
 10
0.0
 20
0.0
 30
0.0
  9
$USERI1
 70
0
  9
$USERI2
 70
0
  9
$USERI3
 70
0
  9
$USERI4
 70
0
  9
$USERI5
 70
0
  9
$USERR1
 40
0.0
  9
$USERR2
 40
0.0
  9
$USERR3
 40
0.0
  9
$USERR4
 40
0.0
  9
$USERR5
 40
0.0
  9
$WORLDVIEW
 70
1
  9
$SHADEDGE
 70
3
  9
$SHADEDIF
 70
70
  9
$TILEMODE
 70
1
  9
$MAXACTVP
 70
64
  9
$PINSBASE
 10
0.0
 20
0.0
 30
0.0
  9
$PLIMCHECK
 70
0
  9
$PEXTMIN
 10
1e+20
 20
1e+20
 30
1e+20
  9
$PEXTMAX
 10
-1e+20
 20
-1e+20
 30
-1e+20
  9
$PLIMMIN
 10
0.0
 20
0.0
  9
$PLIMMAX
 10
420.0
 20
297.0
  9
$UNITMODE
 70
0
  9
$VISRETAIN
 70
1
  9
$PLINEGEN
 70
0
  9
$PSLTSCALE
 70
1
  9
$TREEDEPTH
 70
3020
  9
$CMLSTYLE
  2
Standard
  9
$CMLJUST
 70
0
  9
$CMLSCALE
 40
20.0
  9
$PROXYGRAPHICS
 70
1
  9
$MEASUREMENT
 70
1
  9
$CELWEIGHT
370
-1
  9
$ENDCAPS
280
0
  9
$JOINSTYLE
280
0
  9
$LWDISPLAY
290
0
  9
$INSUNITS
 70
4
  9
$HYPERLINKBASE
  1

  9
$STYLESHEET
  1

  9
$XEDIT
290
1
  9
$CEPSNTYPE
380
0
  9
$PSTYLEMODE
290
1
  9
$FINGERPRINTGUID
  2
{C761DECE-50F6-413A-9B0A-776399D52400}
  9
$VERSIONGUID
  2
{A37DF534-BB91-423B-9BD1-1F63BB2D5FF9}
  9
$EXTNAMES
290
1
  9
$PSVPSCALE
 40
0.0
  9
$OLESTARTUP
290
0
  9
$SORTENTS
280
127
  9
$INDEXCTL
280
0
  9
$HIDETEXT
280
1
  9
$XCLIPFRAME
280
1
  9
$HALOGAP
280
0
  9
$OBSCOLOR
 70
257
  9
$OBSLTYPE
280
0
  9
$INTERSECTIONDISPLAY
280
0
  9
$INTERSECTIONCOLOR
 70
257
  9
$DIMASSOC
280
2
  9
$PROJECTNAME
  1

  9
$CAMERADISPLAY
290
0
  9
$LENSLENGTH
 40
50.0
  9
$CAMERAHEIGHT
 40
0.0
  9
$STEPSPERSEC
 40
24.0
  9
$STEPSIZE
 40
100.0
  9
$3DDWFPREC
 40
2.0
  9
$PSOLWIDTH
 40
0.005
  9
$PSOLHEIGHT
 40
0.08
  9
$LOFTANG1
 40
1.570796326795
  9
$LOFTANG2
 40
1.570796326795
  9
$LOFTMAG1
 40
0.0
  9
$LOFTMAG2
 40
0.0
  9
$LOFTPARAM
 70
7
  9
$LOFTNORMALS
280
1
  9
$LATITUDE
 40
37.795
  9
$LONGITUDE
 40
-122.394
  9
$NORTHDIRECTION
 40
0.0
  9
$TIMEZONE
 70
-8000
  9
$LIGHTGLYPHDISPLAY
280
1
  9
$TILEMODELIGHTSYNCH
280
1
  9
$CMATERIAL
347
20
  9
$SOLIDHIST
280
0
  9
$SHOWHIST
280
1
  9
$DWFFRAME
280
2
  9
$DGNFRAME
280
2
  9
$REALWORLDSCALE
290
1
  9
$INTERFERECOLOR
 62
256
  9
$CSHADOW
280
0
  9
$SHADOWPLANELOCATION
 40
0.0
  0
ENDSEC
  0
SECTION
  2
CLASSES
  0
CLASS
  1
ACDBDICTIONARYWDFLT
  2
AcDbDictionaryWithDefault
  3
ObjectDBX Classes
 90
0
 91
0
280
0
281
0
  0
CLASS
  1
SUN
  2
AcDbSun
  3
SCENEOE
 90
1153
 91
0
280
0
281
0
  0
CLASS
  1
VISUALSTYLE
  2
AcDbVisualStyle
  3
ObjectDBX Classes
 90
4095
 91
0
280
0
281
0
  0
CLASS
  1
MATERIAL
  2
AcDbMaterial
  3
ObjectDBX Classes
 90
1153
 91
0
280
0
281
0
  0
CLASS
  1
SCALE
  2
AcDbScale
  3
ObjectDBX Classes
 90
1153
 91
0
280
0
281
0
  0
CLASS
  1
TABLESTYLE
  2
AcDbTableStyle
  3
ObjectDBX Classes
 90
4095
 91
0
280
0
281
0
  0
CLASS
  1
MLEADERSTYLE
  2
AcDbMLeaderStyle
  3
ACDB_MLEADERSTYLE_CLASS
 90
4095
 91
0
280
0
281
0
  0
CLASS
  1
DICTIONARYVAR
  2
AcDbDictionaryVar
  3
ObjectDBX Classes
 90
0
 91
0
280
0
281
0
  0
CLASS
  1
CELLSTYLEMAP
  2
AcDbCellStyleMap
  3
ObjectDBX Classes
 90
1152
 91
0
280
0
281
0
  0
CLASS
  1
MENTALRAYRENDERSETTINGS
  2
AcDbMentalRayRenderSettings
  3
SCENEOE
 90
1024
 91
0
280
0
281
0
  0
CLASS
  1
ACDBDETAILVIEWSTYLE
  2
AcDbDetailViewStyle
  3
ObjectDBX Classes
 90
1025
 91
0
280
0
281
0
  0
CLASS
  1
ACDBSECTIONVIEWSTYLE
  2
AcDbSectionViewStyle
  3
ObjectDBX Classes
 90
1025
 91
0
280
0
281
0
  0
CLASS
  1
RASTERVARIABLES
  2
AcDbRasterVariables
  3
ISM
 90
0
 91
0
280
0
281
0
  0
CLASS
  1
ACDBPLACEHOLDER
  2
AcDbPlaceHolder
  3
ObjectDBX Classes
 90
0
 91
0
280
0
281
0
  0
CLASS
  1
LAYOUT
  2
AcDbLayout
  3
ObjectDBX Classes
 90
0
 91
0
280
0
281
0
  0
ENDSEC
  0
SECTION
  2
TABLES
  0
TABLE
  2
VPORT
  5
8
330
0
100
AcDbSymbolTable
 70
1
  0
VPORT
  5
23
330
8
100
AcDbSymbolTableRecord
100
AcDbViewportTableRecord
  2
*Active
 70
0
 10
0.0
 20
0.0
 11
1.0
 21
1.0
 12
0.0
 22
0.0
 13
0.0
 23
0.0
 14
0.5
 24
0.5
 15
0.5
 25
0.5
 16
0.0
 26
0.0
 36
1.0
 17
0.0
 27
0.0
 37
0.0
 40
1000.0
 41
1.34
 42
50.0
 43
0.0
 44
0.0
 50
0.0
 51
0.0
 71
0
 72
1000
 73
1
 74
3
 75
0
 76
0
 77
0
 78
0
281
0
 65
0
146
0.0
  0
ENDTAB
  0
TABLE
  2
LTYPE
  5
2
330
0
100
AcDbSymbolTable
 70
3
  0
LTYPE
  5
24
330
2
100
AcDbSymbolTableRecord
100
AcDbLinetypeTableRecord
  2
ByBlock
 70
0
  3

 72
65
 73
0
 40
0.0
  0
LTYPE
  5
25
330
2
100
AcDbSymbolTableRecord
100
AcDbLinetypeTableRecord
  2
ByLayer
 70
0
  3

 72
65
 73
0
 40
0.0
  0
LTYPE
  5
26
330
2
100
AcDbSymbolTableRecord
100
AcDbLinetypeTableRecord
  2
Continuous
 70
0
  3

 72
65
 73
0
 40
0.0
  0
ENDTAB
  0
TABLE
  2
LAYER
  5
1
330
0
100
AcDbSymbolTable
 70
5
  0
LAYER
  5
27
330
1
100
AcDbSymbolTableRecord
100
AcDbLayerTableRecord
  2
0
 70
0
 62
7
  6
Continuous
370
-3
390
13
347
21
  0
LAYER
  5
28
330
1
100
AcDbSymbolTableRecord
100
AcDbLayerTableRecord
  2
Defpoints
 70
0
 62
7
  6
Continuous
290
0
370
-3
390
13
347
21
  0
LAYER
  5
2F
330
1
100
AcDbSymbolTableRecord
100
AcDbLayerTableRecord
  2
CUT_OUTER
 70
0
 62
1
  6
Continuous
370
-3
390
13
347
21
  0
LAYER
  5
30
330
1
100
AcDbSymbolTableRecord
100
AcDbLayerTableRecord
  2
CUT_INNER
 70
0
 62
3
  6
Continuous
370
-3
390
13
347
21
  0
LAYER
  5
31
330
1
100
AcDbSymbolTableRecord
100
AcDbLayerTableRecord
  2
MARKING
 70
0
 62
2
  6
Continuous
370
-3
390
13
347
21
  0
ENDTAB
  0
TABLE
  2
STYLE
  5
5
330
0
100
AcDbSymbolTable
 70
1
  0
STYLE
  5
29
330
5
100
AcDbSymbolTableRecord
100
AcDbTextStyleTableRecord
  2
Standard
 70
0
 40
0.0
 41
1.0
 50
0.0
 71
0
 42
2.5
  3
txt
  4

  0
ENDTAB
  0
TABLE
  2
VIEW
  5
7
330
0
100
AcDbSymbolTable
 70
0
  0
ENDTAB
  0
TABLE
  2
UCS
  5
6
330
0
100
AcDbSymbolTable
 70
0
  0
ENDTAB
  0
TABLE
  2
APPID
  5
3
330
0
100
AcDbSymbolTable
 70
3
  0
APPID
  5
2A
330
3
100
AcDbSymbolTableRecord
100
AcDbRegAppTableRecord
  2
ACAD
 70
0
  0
APPID
  5
38
330
3
100
AcDbSymbolTableRecord
100
AcDbRegAppTableRecord
  2
HATCHBACKGROUNDCOLOR
 70
0
  0
APPID
  5
39
330
3
100
AcDbSymbolTableRecord
100
AcDbRegAppTableRecord
  2
EZDXF
 70
0
  0
ENDTAB
  0
TABLE
  2
DIMSTYLE
  5
4
330
0
100
AcDbSymbolTable
 70
1
100
AcDbDimStyleTable
  0
DIMSTYLE
105
2B
330
4
100
AcDbSymbolTableRecord
100
AcDbDimStyleTableRecord
  2
Standard
 70
0
 40
1.0
 41
2.5
 42
0.625
 43
3.75
 44
1.25
 45
0.0
 46
0.0
 47
0.0
 48
0.0
 49
2.5
140
2.5
141
2.5
142
0.0
143
0.03937007874
144
1.0
145
0.0
146
1.0
147
0.625
148
0.0
 69
0
 70
0
 71
0
 72
0
 73
0
 74
0
 75
0
 76
0
 77
1
 78
8
 79
3
170
0
171
3
172
1
173
0
174
0
175
0
176
0
177
0
178
0
179
2
271
2
272
2
273
2
274
3
275
0
276
0
277
2
278
44
279
0
280
0
281
0
282
0
283
0
284
8
285
0
286
0
288
0
289
3
290
0
371
-2
372
-2
  0
ENDTAB
  0
TABLE
  2
BLOCK_RECORD
  5
9
330
0
100
AcDbSymbolTable
 70
2
  0
BLOCK_RECORD
  5
17
330
9
100
AcDbSymbolTableRecord
100
AcDbBlockTableRecord
  2
*Model_Space
340
1A
 70
0
280
1
281
0
  0
BLOCK_RECORD
  5
1B
330
9
100
AcDbSymbolTableRecord
100
AcDbBlockTableRecord
  2
*Paper_Space
340
1E
 70
0
280
1
281
0
  0
ENDTAB
  0
ENDSEC
  0
SECTION
  2
BLOCKS
  0
BLOCK
  5
18
330
17
100
AcDbEntity
  8
0
100
AcDbBlockBegin
  2
*Model_Space
 70
0
 10
0.0
 20
0.0
 30
0.0
  3
*Model_Space
  1

  0
ENDBLK
  5
19
330
17
100
AcDbEntity
  8
0
100
AcDbBlockEnd
  0
BLOCK
  5
1C
330
1B
100
AcDbEntity
  8
0
100
AcDbBlockBegin
  2
*Paper_Space
 70
0
 10
0.0
 20
0.0
 30
0.0
  3
*Paper_Space
  1

  0
ENDBLK
  5
1D
330
1B
100
AcDbEntity
  8
0
100
AcDbBlockEnd
  0
ENDSEC
  0
SECTION
  2
ENTITIES
  0
LWPOLYLINE
  5
32
330
17
100
AcDbEntity
  8
CUT_OUTER
100
AcDbPolyline
 90
344
 70
1
 10
10.0
 20
5.0000000000009095
 10
170.13397459621592
 20
5.0000000000009095
 10
170.17755246758998
 20
5.001902650955117
 10
170.22079868504943
 20
5.00759612349475
 10
170.26338411876714
 20
5.017037086856362
 10
170.30498466787867
 20
5.030153689607914
 10
170.3452837270861
 20
5.04684610648269
 10
170.38397459621592
 20
5.066987298108643
 10
170.4207628143913
 20
5.090423977856517
 10
170.45536840105933
 20
5.116977778441424
 10
170.48752798680925
 20
5.146446609407576
 10
170.51699681777518
 20
5.178606195157727
 10
170.5435506183603
 20
5.213211781825521
 10
170.56698729810796
 20
5.2500000000009095
 10
170.66220489619218
 20
5.368638668405993
 10
170.78869086912982
 20
5.453153893519129
 10
170.9347369038901
 20
5.49572243068792
 10
171.0868240888335
 20
5.492403876507069
 10
171.23087430661735
 20
5.443505416590142
 10
171.35355339059333
 20
5.353553390594243
 10
171.44350541658923
 20
5.230874306618489
 10
171.49240387650616
 20
5.086824088834419
 10
171.49572243068678
 20
4.934736903891007
 10
171.45315389351845
 20
4.788690869130505
 10
171.3686386684053
 20
4.662204896193089
 10
171.25
 20
4.566987298108188
 10
171.2132117818246
 20
4.543550618360541
 10
171.1786061951566
 20
4.516996817775407
 10
171.14644660940667
 20
4.487527986809255
 10
171.11697777844074
 20
4.455368401059104
 10
171.0904239778556
 20
4.420762814391537
 10
171.06698729810796
 20
4.383974596215921
 10
171.04684610648155
 20
4.345283727086326
 10
171.03015368960723
 20
4.304984667878671
 10
171.01703708685545
 20
4.263384118767135
 10
171.00759612349384
 20
4.220798685049431
 10
171.00190265095398
 20
4.177552467589749
 10
171.0
 20
4.133974596215921
 10
171.0
 20
0.5000000000009095
 10
171.00427756931322
 20
0.43473690389078
 10
171.01703708685545
 20
0.37059047744969575
 10
171.03806023374455
 20
0.3086582838184313
 10
171.06698729810796
 20
0.2500000000009095
 10
171.10332332985445
 20
0.1956192854966048
 10
171.14644660940667
 20
0.14644660940757603
 10
171.19561928549547
 20
0.10332332985535686
 10
171.25
 20
0.06698729810864279
 10
171.3086582838173
 20
0.03806023374522738
 10
171.3705904774488
 20
0.017037086856362293
 10
171.4347369038901
 20
0.004277569313899221
 10
171.5
 20
9.094947017729282e-13
 10
186.5
 20
0.0
 10
186.5652630961099
 20
0.004277569312989726
 10
186.6294095225512
 20
0.0170370868554528
 10
186.6913417161827
 20
0.038060233744317884
 10
186.75
 20
0.0669872981077333
 10
186.80438071450453
 20
0.10332332985444737
 10
186.85355339059333
 20
0.14644660940666654
 10
186.89667667014555
 20
0.1956192854956953
 10
186.93301270189204
 20
0.25
 10
186.96193976625545
 20
0.3086582838175218
 10
186.98296291314455
 20
0.37059047744878626
 10
186.99572243068678
 20
0.4347369038898705
 10
187.0
 20
0.5
 10
187.0
 20
4.133974596215921
 10
186.99809734904602
 20
4.177552467589749
 10
186.99240387650616
 20
4.220798685049431
 10
186.98296291314455
 20
4.263384118767135
 10
186.96984631039277
 20
4.304984667878671
 10
186.95315389351845
 20
4.345283727086326
 10
186.93301270189204
 20
4.383974596215921
 10
186.9095760221444
 20
4.420762814391537
 10
186.88302222155926
 20
4.455368401059104
 10
186.85355339059333
 20
4.487527986809255
 10
186.8213938048434
 20
4.516996817775407
 10
186.7867882181754
 20
4.543550618360541
 10
186.75
 20
4.566987298106596
 10
186.63136133159514
 20
4.662204896191042
 10
186.54684610648155
 20
4.788690869128459
 10
186.50427756931322
 20
4.934736903888734
 10
186.50759612349384
 20
5.086824088832373
 10
186.55649458341077
 20
5.2308743066164425
 10
186.64644660940667
 20
5.353553390592197
 10
186.76912569338265
 20
5.443505416587868
 10
186.9131759111665
 20
5.492403876505023
 10
187.0652630961099
 20
5.495722430685646
 10
187.21130913087018
 20
5.453153893517083
 10
187.33779510380782
 20
5.368638668403946
 10
187.43301270189158
 20
5.25
 10
187.4564493816397
 20
5.213211781824384
 10
187.48300318222437
 20
5.178606195156817
 10
187.51247201319075
 20
5.1464466094066665
 10
187.54463159894067
 20
5.116977778440514
 10
187.5792371856087
 20
5.09042397785538
 10
187.61602540378408
 20
5.066987298107733
 10
187.6547162729139
 20
5.046846106481553
 10
187.69501533212133
 20
5.030153689607005
 10
187.73661588123286
 20
5.017037086855453
 10
187.77920131495057
 20
5.00759612349384
 10
187.82244753241002
 20
5.00190265095398
 10
187.86602540378408
 20
4.999999999998863
 10
217.0000000000009
 20
5.0000000000009095
 10
218.30526192220123
 20
5.08555138626275
 10
219.5881904510261
 20
5.340741737110193
 10
220.82683432365184
 20
5.761204674887949
 10
222.0000000000009
 20
6.339745962156485
 10
223.0876142900879
 20
7.066466597088493
 10
224.07106781186621
 20
7.928932188135377
 10
224.93353340291333
 20
8.912385709913679
 10
225.66025403784533
 20
10.00000000000091
 10
226.23879532511364
 20
11.173165676349981
 10
226.6592582628914
 20
12.411809548975725
 10
226.91444861373884
 20
13.694738077800366
 10
227.0
 20
15.00000000000091
 10
227.0000000000009
 20
105.00000000000091
 10
226.91444861373884
 20
106.30526192220145
 10
226.6592582628914
 20
107.5881904510261
 10
226.23879532511364
 20
108.82683432365184
 10
225.66025403784533
 20
110.00000000000091
 10
224.93353340291333
 20
111.08761429008814
 10
224.07106781186621
 20
112.07106781186644
 10
223.0876142900879
 20
112.93353340291333
 10
222.0000000000009
 20
113.66025403784533
 10
220.82683432365184
 20
114.23879532511387
 10
219.5881904510261
 20
114.65925826289163
 10
218.30526192220123
 20
114.91444861373907
 10
217.0000000000009
 20
115.00000000000091
 10
187.86602540378408
 20
115.00000000000091
 10
187.82244753241002
 20
114.9980973490467
 10
187.77920131495057
 20
114.99240387650707
 10
187.73661588123286
 20
114.98296291314546
 10
187.69501533212133
 20
114.9698463103939
 10
187.6547162729139
 20
114.95315389351913
 10
187.61602540378408
 20
114.93301270189318
 10
187.5792371856087
 20
114.9095760221453
 10
187.54463159894067
 20
114.8830222215604
 10
187.51247201319075
 20
114.85355339059424
 10
187.48300318222437
 20
114.82139380484409
 10
187.4564493816397
 20
114.78678821817653
 10
187.43301270189204
 20
114.75000000000091
 10
187.33779510380782
 20
114.63136133159583
 10
187.21130913087018
 20
114.54684610648269
 10
187.0652630961099
 20
114.5042775693139
 10
186.9131759111665
 20
114.50759612349475
 10
186.76912569338265
 20
114.55649458341168
 10
186.64644660940667
 20
114.64644660940758
 10
186.55649458341077
 20
114.76912569338333
 10
186.50759612349384
 20
114.9131759111674
 10
186.50427756931322
 20
115.06526309611081
 10
186.54684610648155
 20
115.21130913087131
 10
186.6313613315947
 20
115.33779510380873
 10
186.75
 20
115.43301270189272
 10
186.7867882181754
 20
115.45644938164037
 10
186.8213938048434
 20
115.4830031822255
 10
186.85355339059333
 20
115.51247201319165
 10
186.8830222215597
 20
115.5446315989418
 10
186.9095760221444
 20
115.57923718560937
 10
186.93301270189204
 20
115.61602540378499
 10
186.95315389351845
 20
115.65471627291458
 10
186.96984631039277
 20
115.69501533212224
 10
186.98296291314455
 20
115.73661588123377
 10
186.99240387650616
 20
115.77920131495148
 10
186.99809734904602
 20
115.82244753241116
 10
187.0
 20
115.86602540378499
 10
187.0
 20
119.50000000000091
 10
186.99572243068678
 20
119.56526309611104
 10
186.98296291314455
 20
119.62940952255212
 10
186.96193976625545
 20
119.69134171618339
 10
186.93301270189204
 20
119.75000000000091
 10
186.89667667014555
 20
119.80438071450521
 10
186.85355339059333
 20
119.85355339059424
 10
186.80438071450453
 20
119.89667667014646
 10
186.75
 20
119.93301270189318
 10
186.6913417161827
 20
119.96193976625659
 10
186.6294095225512
 20
119.98296291314546
 10
186.5652630961099
 20
119.99572243068792
 10
186.5
 20
120.00000000000091
 10
171.5
 20
120.00000000000091
 10
171.4347369038901
 20
119.99572243068792
 10
171.3705904774488
 20
119.98296291314546
 10
171.3086582838173
 20
119.96193976625659
 10
171.25
 20
119.93301270189318
 10
171.19561928549547
 20
119.89667667014646
 10
171.14644660940667
 20
119.85355339059424
 10
171.10332332985445
 20
119.80438071450521
 10
171.06698729810796
 20
119.75000000000091
 10
171.03806023374455
 20
119.69134171618339
 10
171.01703708685545
 20
119.62940952255212
 10
171.00427756931322
 20
119.56526309611104
 10
171.0
 20
119.50000000000091
 10
171.0
 20
115.86602540378499
 10
171.00190265095398
 20
115.82244753241116
 10
171.00759612349384
 20
115.77920131495148
 10
171.01703708685545
 20
115.73661588123377
 10
171.03015368960723
 20
115.69501533212224
 10
171.04684610648155
 20
115.65471627291458
 10
171.06698729810796
 20
115.61602540378499
 10
171.0904239778556
 20
115.57923718560937
 10
171.1169777784403
 20
115.54463159894158
 10
171.14644660940667
 20
115.51247201319165
 10
171.1786061951566
 20
115.4830031822255
 10
171.2132117818246
 20
115.45644938164037
 10
171.25
 20
115.43301270189318
 10
171.38302222155926
 20
115.32139380484409
 10
171.46984631039277
 20
115.17101007166366
 10
171.5
 20
115.00000000000091
 10
171.46984631039277
 20
114.82898992833816
 10
171.3830222215597
 20
114.67860619515773
 10
171.25
 20
114.56698729810864
 10
171.0868240888335
 20
114.50759612349475
 10
170.9131759111665
 20
114.50759612349475
 10
170.75
 20
114.56698729810864
 10
170.6169777784403
 20
114.67860619515773
 10
170.53015368960723
 20
114.82898992833816
 10
170.5
 20
115.00000000000091
 10
10.0
 20
115.00000000000091
 10
8.694738077799684
 20
114.91444861373907
 10
7.411809548974816
 20
114.65925826289163
 10
6.173165676349072
 20
114.23879532511387
 10
5.0
 20
113.66025403784533
 10
3.9123857099129964
 20
112.93353340291333
 10
2.928932188134695
 20
112.07106781186644
 10
2.066466597087583
 20
111.08761429008814
 10
1.3397459621555754
 20
110.00000000000091
 10
0.7612046748872672
 20
108.82683432365184
 10
0.3407417371095107
 20
107.5881904510261
 10
0.08555138626206826
 20
106.30526192220145
 10
0.0
 20
105.00000000000091
 10
0.0
 20
80.00000000000091
 10
0.04277569313080676
 20
79.34736903890075
 10
0.170370868554528
 20
78.70590477448832
 10
0.3806023374436336
 20
78.08658283817545
 10
0.6698729810777877
 20
77.50000000000091
 10
1.033233298544019
 20
76.95619285495718
 10
1.4644660940671201
 20
76.46446609406826
 10
1.9561928549564982
 20
76.0332332985447
 10
2.5
 20
75.6698729810787
 10
3.0865828381747633
 20
75.38060233744454
 10
3.705904774487408
 20
75.17037086855544
 10
4.347369038899615
 20
75.04277569313172
 10
5.0
 20
75.00000000000091
 10
10.0
 20
75.00000000000091
 10
10.652630961100385
 20
75.04277569313194
 10
11.294095225512592
 20
75.17037086855566
 10
11.913417161825237
 20
75.38060233744454
 10
12.5
 20
75.6698729810787
 10
13.043807145043502
 20
76.0332332985447
 10
13.53553390593288
 20
76.46446609406826
 10
13.966766701455981
 20
76.95619285495741
 10
14.330127018922212
 20
77.50000000000091
 10
14.619397662556366
 20
78.08658283817545
 10
14.829629131445472
 20
78.70590477448832
 10
14.957224306869193
 20
79.34736903890075
 10
15.0
 20
80.00000000000091
 10
15.0
 20
90.00000000000091
 10
15.085551386262068
 20
91.30526192220145
 10
15.34074173710951
 20
92.5881904510261
 10
15.761204674887267
 20
93.82683432365184
 10
16.339745962155575
 20
95.00000000000091
 10
17.066466597087583
 20
96.08761429008814
 10
17.928932188134695
 20
97.07106781186644
 10
18.912385709912996
 20
97.93353340291333
 10
20.0
 20
98.66025403784533
 10
21.173165676349072
 20
99.23879532511387
 10
22.411809548974816
 20
99.65925826289163
 10
23.694738077799684
 20
99.91444861373907
 10
25.0
 20
100.00000000000091
 10
35.00000000000091
 20
100.00000000000114
 10
36.30526192220168
 20
99.9144486137393
 10
37.588190451026094
 20
99.65925826289185
 10
38.82683432365184
 20
99.2387953251141
 10
40.00000000000091
 20
98.66025403784556
 10
41.08761429008837
 20
97.93353340291355
 10
42.07106781186667
 20
97.07106781186644
 10
42.933533402913326
 20
96.08761429008837
 10
43.660254037845334
 20
95.00000000000091
 10
44.2387953251141
 20
93.82683432365184
 10
44.65925826289185
 20
92.5881904510261
 10
44.914448613739296
 20
91.30526192220145
 10
45.0
 20
90.00000000000091
 10
45.00000000000091
 20
30.00000000000091
 10
44.91444861373884
 20
28.694738077800366
 10
44.6592582628914
 20
27.411809548975725
 10
44.23879532511364
 20
26.17316567634998
 10
43.660254037845334
 20
25.00000000000091
 10
42.933533402913326
 20
23.91238570991368
 10
42.071067811866214
 20
22.928932188135377
 10
41.08761429008791
 20
22.066466597088493
 10
40.00000000000091
 20
21.339745962156485
 10
38.82683432365184
 20
20.761204674888177
 10
37.588190451026094
 20
20.340741737110193
 10
36.305261922201225
 20
20.08555138626275
 10
35.00000000000091
 20
20.00000000000091
 10
25.0
 20
20.00000000000091
 10
23.694738077799684
 20
20.08555138626275
 10
22.411809548974816
 20
20.340741737110193
 10
21.173165676349072
 20
20.76120467488795
 10
20.0
 20
21.339745962156485
 10
18.912385709912996
 20
22.066466597088493
 10
17.928932188134695
 20
22.928932188135377
 10
17.066466597087583
 20
23.91238570991368
 10
16.339745962155575
 20
25.00000000000091
 10
15.761204674887267
 20
26.17316567634998
 10
15.34074173710951
 20
27.411809548975725
 10
15.085551386262068
 20
28.694738077800366
 10
15.0
 20
30.00000000000091
 10
15.0
 20
40.00000000000091
 10
14.957224306869193
 20
40.65263096110107
 10
14.829629131445472
 20
41.2940952255135
 10
14.619397662556366
 20
41.913417161826374
 10
14.330127018922212
 20
42.50000000000091
 10
13.966766701455981
 20
43.04380714504441
 10
13.53553390593288
 20
43.53553390593356
 10
13.043807145043502
 20
43.96676670145712
 10
12.5
 20
44.33012701892312
 10
11.913417161825237
 20
44.619397662557276
 10
11.294095225512592
 20
44.829629131446154
 10
10.652630961100385
 20
44.957224306869875
 10
10.0
 20
45.00000000000091
 10
5.0
 20
45.00000000000091
 10
4.347369038899615
 20
44.9572243068701
 10
3.705904774487408
 20
44.82962913144638
 10
3.0865828381747633
 20
44.619397662557276
 10
2.5
 20
44.33012701892312
 10
1.9561928549564982
 20
43.96676670145712
 10
1.4644660940671201
 20
43.53553390593356
 10
1.033233298544019
 20
43.04380714504464
 10
0.6698729810777877
 20
42.50000000000091
 10
0.3806023374436336
 20
41.913417161826374
 10
0.170370868554528
 20
41.2940952255135
 10
0.04277569313080676
 20
40.65263096110107
 10
0.0
 20
40.00000000000091
 10
0.0
 20
15.00000000000091
 10
0.08555138626206826
 20
13.694738077800366
 10
0.3407417371095107
 20
12.411809548975725
 10
0.7612046748872672
 20
11.173165676349981
 10
1.3397459621555754
 20
10.00000000000091
 10
2.066466597087583
 20
8.912385709913679
 10
2.928932188134695
 20
7.928932188135377
 10
3.9123857099129964
 20
7.066466597088493
 10
5.0
 20
6.339745962156485
 10
6.173165676349072
 20
5.761204674887949
 10
7.411809548974816
 20
5.340741737110193
 10
8.694738077799684
 20
5.08555138626275
  0
LWPOLYLINE
  5
33
330
17
100
AcDbEntity
  8
CUT_INNER
100
AcDbPolyline
 90
26
 70
1
 10
135.6087999867882
 20
21.4288894119818
 10
136.87500000000045
 20
21.953366630131313
 10
137.96231060122955
 20
22.787689398770226
 10
138.7966333698687
 20
23.874999999999773
 10
139.3211105880182
 20
25.141200013211574
 10
139.50000000000045
 20
26.5
 10
139.3211105880182
 20
27.858799986788426
 10
138.7966333698687
 20
29.125000000000227
 10
137.96231060122955
 20
30.212310601229774
 10
136.87500000000045
 20
31.046633369868687
 10
135.6087999867882
 20
31.5711105880182
 10
134.25
 20
31.75000000000091
 10
127.75
 20
31.75000000000091
 10
126.3912000132118
 20
31.571110588018428
 10
125.12499999999955
 20
31.046633369868914
 10
124.03768939877
 20
30.21231060123
 10
123.20336663013086
 20
29.125000000000455
 10
122.6788894119818
 20
27.858799986788426
 10
122.49999999999909
 20
26.5
 10
122.6788894119818
 20
25.141200013211574
 10
123.20336663013086
 20
23.874999999999545
 10
124.03768939877
 20
22.78768939877
 10
125.12499999999955
 20
21.953366630131086
 10
126.3912000132118
 20
21.428889411981572
 10
127.75
 20
21.249999999999318
 10
134.25
 20
21.25
  0
LWPOLYLINE
  5
34
330
17
100
AcDbEntity
  8
CUT_INNER
100
AcDbPolyline
 90
26
 70
1
 10
208.75
 20
31.75000000000091
 10
207.3912000132118
 20
31.571110588018428
 10
206.125
 20
31.04663336986914
 10
205.03768939877045
 20
30.21231060123023
 10
204.20336663013177
 20
29.12500000000091
 10
203.67888941198225
 20
27.85879998678911
 10
203.5
 20
26.50000000000091
 10
203.67888941198225
 20
25.14120001321271
 10
204.20336663013177
 20
23.87500000000091
 10
205.03768939877045
 20
22.78768939877159
 10
206.125
 20
21.953366630132678
 10
207.3912000132118
 20
21.42888941198339
 10
208.75
 20
21.25000000000091
 10
215.25
 20
21.25000000000091
 10
216.6087999867882
 20
21.428889411983164
 10
217.875
 20
21.95336663013245
 10
218.96231060122955
 20
22.787689398771363
 10
219.79663336986823
 20
23.87500000000091
 10
220.32111058801775
 20
25.14120001321271
 10
220.5
 20
26.50000000000091
 10
220.32111058801775
 20
27.85879998678911
 10
219.79663336986823
 20
29.12500000000091
 10
218.96231060122955
 20
30.212310601230456
 10
217.875
 20
31.04663336986937
 10
216.6087999867882
 20
31.571110588018655
 10
215.25
 20
31.75000000000091
  0
LWPOLYLINE
  5
35
330
17
100
AcDbEntity
  8
CUT_INNER
100
AcDbPolyline
 90
26
 70
1
 10
216.6087999867882
 20
88.42888941198339
 10
217.875
 20
88.95336663013268
 10
218.96231060122955
 20
89.78768939877159
 10
219.79663336986823
 20
90.87500000000091
 10
220.32111058801775
 20
92.14120001321271
 10
220.5
 20
93.50000000000091
 10
220.32111058801775
 20
94.85879998678911
 10
219.79663336986823
 20
96.12500000000091
 10
218.96231060122955
 20
97.21231060123023
 10
217.875
 20
98.04663336986914
 10
216.6087999867882
 20
98.57111058801843
 10
215.25
 20
98.75000000000091
 10
208.75
 20
98.75000000000091
 10
207.3912000132118
 20
98.57111058801866
 10
206.125
 20
98.04663336986937
 10
205.03768939877045
 20
97.21231060123046
 10
204.20336663013177
 20
96.12500000000091
 10
203.67888941198225
 20
94.85879998678911
 10
203.5
 20
93.50000000000091
 10
203.67888941198225
 20
92.14120001321271
 10
204.20336663013177
 20
90.87500000000091
 10
205.03768939877045
 20
89.78768939877136
 10
206.125
 20
88.95336663013245
 10
207.3912000132118
 20
88.42888941198316
 10
208.75
 20
88.25000000000068
 10
215.25
 20
88.25000000000091
  0
LWPOLYLINE
  5
36
330
17
100
AcDbEntity
  8
CUT_INNER
100
AcDbPolyline
 90
26
 70
1
 10
127.75
 20
88.25000000000091
 10
134.25
 20
88.25000000000091
 10
135.6087999867882
 20
88.42888941198316
 10
136.875
 20
88.95336663013245
 10
137.96231060122955
 20
89.78768939877159
 10
138.79663336986823
 20
90.87500000000091
 10
139.32111058801775
 20
92.14120001321271
 10
139.5
 20
93.50000000000091
 10
139.32111058801775
 20
94.85879998678911
 10
138.79663336986823
 20
96.12500000000091
 10
137.96231060122955
 20
97.21231060123023
 10
136.875
 20
98.04663336986937
 10
135.6087999867882
 20
98.57111058801866
 10
134.25
 20
98.75000000000091
 10
127.75
 20
98.75000000000091
 10
126.3912000132118
 20
98.57111058801843
 10
125.125
 20
98.04663336986914
 10
124.03768939877045
 20
97.21231060123023
 10
123.20336663013177
 20
96.12500000000091
 10
122.67888941198225
 20
94.85879998678911
 10
122.5
 20
93.50000000000091
 10
122.67888941198225
 20
92.14120001321271
 10
123.20336663013177
 20
90.87500000000091
 10
124.03768939877045
 20
89.78768939877159
 10
125.125
 20
88.95336663013268
 10
126.3912000132118
 20
88.42888941198339
  0
LWPOLYLINE
  5
37
330
17
100
AcDbEntity
  8
CUT_INNER
100
AcDbPolyline
 90
34
 70
1
 10
175.0
 20
19.00000000000091
 10
182.9987032026611
 20
19.787803503468467
 10
190.69002072696867
 20
22.12093916703816
 10
197.77837955380392
 20
25.909745895596416
 10
203.99137802864834
 20
31.00862197135234
 10
209.09025410440427
 20
37.22162044619722
 10
212.87906083296275
 20
44.30997927303224
 10
215.21219649653267
 20
52.00129679733959
 10
216.0
 20
60.00000000000091
 10
215.21219649653267
 20
67.99870320266223
 10
212.87906083296275
 20
75.69002072696958
 10
209.09025410440427
 20
82.7783795538046
 10
203.99137802864834
 20
88.99137802864948
 10
197.77837955380392
 20
94.0902541044054
 10
190.69002072696867
 20
97.87906083296366
 10
182.9987032026611
 20
100.21219649653335
 10
175.0
 20
101.00000000000091
 10
168.0
 20
101.00000000000091
 10
160.0012967973389
 20
100.21219649653335
 10
152.30997927303133
 20
97.87906083296366
 10
145.22162044619608
 20
94.0902541044054
 10
139.00862197135166
 20
88.99137802864948
 10
133.90974589559573
 20
82.7783795538046
 10
130.12093916703725
 20
75.69002072696958
 10
127.78780350346733
 20
67.99870320266223
 10
127.0
 20
60.00000000000091
 10
127.78780350346733
 20
52.00129679733959
 10
130.12093916703725
 20
44.30997927303224
 10
133.90974589559573
 20
37.22162044619722
 10
139.00862197135166
 20
31.00862197135234
 10
145.22162044619608
 20
25.909745895596416
 10
152.30997927303133
 20
22.12093916703816
 10
160.0012967973389
 20
19.787803503468467
 10
168.0
 20
19.00000000000091
  0
ENDSEC
  0
SECTION
  2
OBJECTS
  0
DICTIONARY
  5
A
330
0
100
AcDbDictionary
281
1
  3
ACAD_COLOR
350
B
  3
ACAD_GROUP
350
C
  3
ACAD_LAYOUT
350
D
  3
ACAD_MATERIAL
350
E
  3
ACAD_MLEADERSTYLE
350
F
  3
ACAD_MLINESTYLE
350
10
  3
ACAD_PLOTSETTINGS
350
11
  3
ACAD_PLOTSTYLENAME
350
12
  3
ACAD_SCALELIST
350
14
  3
ACAD_TABLESTYLE
350
15
  3
ACAD_VISUALSTYLE
350
16
  3
EZDXF_META
350
2D
  0
DICTIONARY
  5
B
330
A
100
AcDbDictionary
281
1
  0
DICTIONARY
  5
C
330
A
100
AcDbDictionary
281
1
  0
DICTIONARY
  5
D
330
A
100
AcDbDictionary
281
1
  3
Model
350
1A
  3
Layout1
350
1E
  0
DICTIONARY
  5
E
330
A
100
AcDbDictionary
281
1
  3
ByBlock
350
1F
  3
ByLayer
350
20
  3
Global
350
21
  0
DICTIONARY
  5
F
330
A
100
AcDbDictionary
281
1
  3
Standard
350
2C
  0
DICTIONARY
  5
10
330
A
100
AcDbDictionary
281
1
  3
Standard
350
22
  0
DICTIONARY
  5
11
330
A
100
AcDbDictionary
281
1
  0
ACDBDICTIONARYWDFLT
  5
12
330
A
100
AcDbDictionary
281
1
  3
Normal
350
13
100
AcDbDictionaryWithDefault
340
13
  0
ACDBPLACEHOLDER
  5
13
330
12
  0
DICTIONARY
  5
14
330
A
100
AcDbDictionary
281
1
  0
DICTIONARY
  5
15
330
A
100
AcDbDictionary
281
1
  0
DICTIONARY
  5
16
330
A
100
AcDbDictionary
281
1
  0
LAYOUT
  5
1A
330
D
100
AcDbPlotSettings
  1

  4
A3
  6

 40
7.5
 41
20.0
 42
7.5
 43
20.0
 44
420.0
 45
297.0
 46
0.0
 47
0.0
 48
0.0
 49
0.0
140
0.0
141
0.0
142
1.0
143
1.0
 70
1024
 72
1
 73
0
 74
5
  7

 75
16
 76
0
 77
2
 78
300
147
1.0
148
0.0
149
0.0
100
AcDbLayout
  1
Model
 70
1
 71
0
 10
0.0
 20
0.0
 11
420.0
 21
297.0
 12
0.0
 22
0.0
 32
0.0
 14
1e+20
 24
1e+20
 34
1e+20
 15
-1e+20
 25
-1e+20
 35
-1e+20
146
0.0
 13
0.0
 23
0.0
 33
0.0
 16
1.0
 26
0.0
 36
0.0
 17
0.0
 27
1.0
 37
0.0
 76
1
330
17
  0
LAYOUT
  5
1E
330
D
100
AcDbPlotSettings
  1

  4
A3
  6

 40
7.5
 41
20.0
 42
7.5
 43
20.0
 44
420.0
 45
297.0
 46
0.0
 47
0.0
 48
0.0
 49
0.0
140
0.0
141
0.0
142
1.0
143
1.0
 70
0
 72
1
 73
0
 74
5
  7

 75
16
 76
0
 77
2
 78
300
147
1.0
148
0.0
149
0.0
100
AcDbLayout
  1
Layout1
 70
1
 71
1
 10
0.0
 20
0.0
 11
420.0
 21
297.0
 12
0.0
 22
0.0
 32
0.0
 14
1e+20
 24
1e+20
 34
1e+20
 15
-1e+20
 25
-1e+20
 35
-1e+20
146
0.0
 13
0.0
 23
0.0
 33
0.0
 16
1.0
 26
0.0
 36
0.0
 17
0.0
 27
1.0
 37
0.0
 76
1
330
1B
  0
MATERIAL
  5
1F
102
{ACAD_REACTORS
330
E
102
}
330
E
100
AcDbMaterial
  1
ByBlock
  2

 70
0
 40
1.0
 71
1
 41
1.0
 91
-1023410177
 42
1.0
 72
1
  3

 73
1
 74
1
 75
1
 44
0.5
 73
0
 45
1.0
 46
1.0
 77
1
  4

 78
1
 79
1
170
1
 48
1.0
171
1
  6

172
1
173
1
174
1
140
1.0
141
1.0
175
1
  7

176
1
177
1
178
1
143
1.0
179
1
  8

270
1
271
1
272
1
145
1.0
146
1.0
273
1
  9

274
1
275
1
276
1
 42
1.0
 72
1
  3

 73
1
 74
1
 75
1
 94
63
  0
MATERIAL
  5
20
102
{ACAD_REACTORS
330
E
102
}
330
E
100
AcDbMaterial
  1
ByLayer
  2

 70
0
 40
1.0
 71
1
 41
1.0
 91
-1023410177
 42
1.0
 72
1
  3

 73
1
 74
1
 75
1
 44
0.5
 73
0
 45
1.0
 46
1.0
 77
1
  4

 78
1
 79
1
170
1
 48
1.0
171
1
  6

172
1
173
1
174
1
140
1.0
141
1.0
175
1
  7

176
1
177
1
178
1
143
1.0
179
1
  8

270
1
271
1
272
1
145
1.0
146
1.0
273
1
  9

274
1
275
1
276
1
 42
1.0
 72
1
  3

 73
1
 74
1
 75
1
 94
63
  0
MATERIAL
  5
21
102
{ACAD_REACTORS
330
E
102
}
330
E
100
AcDbMaterial
  1
Global
  2

 70
0
 40
1.0
 71
1
 41
1.0
 91
-1023410177
 42
1.0
 72
1
  3

 73
1
 74
1
 75
1
 44
0.5
 73
0
 45
1.0
 46
1.0
 77
1
  4

 78
1
 79
1
170
1
 48
1.0
171
1
  6

172
1
173
1
174
1
140
1.0
141
1.0
175
1
  7

176
1
177
1
178
1
143
1.0
179
1
  8

270
1
271
1
272
1
145
1.0
146
1.0
273
1
  9

274
1
275
1
276
1
 42
1.0
 72
1
  3

 73
1
 74
1
 75
1
 94
63
  0
MLINESTYLE
  5
22
102
{ACAD_REACTORS
330
10
102
}
330
10
100
AcDbMlineStyle
  2
Standard
 70
0
  3

 62
256
 51
90.0
 52
90.0
 71
2
 49
0.5
 62
256
  6
BYLAYER
 49
-0.5
 62
256
  6
BYLAYER
  0
MLEADERSTYLE
  5
2C
102
{ACAD_REACTORS
330
F
102
}
330
F
100
AcDbMLeaderStyle
179
2
170
2
171
1
172
0
 90
2
 40
0.0
 41
0.0
173
1
 91
-1056964608
 92
-2
290
1
 42
2.0
291
1
 43
8.0
  3
Standard
 44
4.0
300

342
29
174
1
175
1
176
0
178
1
 93
-1056964608
 45
4.0
292
0
297
0
 46
4.0
 94
-1056964608
 47
1.0
 49
1.0
140
1.0
294
1
141
0.0
177
0
142
1.0
295
0
296
0
143
3.75
271
0
272
9
273
9
  0
DICTIONARY
  5
2D
330
A
100
AcDbDictionary
280
1
281
1
  3
CREATED_BY_EZDXF
350
2E
  3
WRITTEN_BY_EZDXF
350
3A
  0
DICTIONARYVAR
  5
2E
330
2D
100
DictionaryVariables
280
0
  1
1.4.3 @ 2026-05-01T11:57:14.597798+00:00
  0
DICTIONARYVAR
  5
3A
330
2D
100
DictionaryVariables
280
0
  1
1.4.3 @ 2026-05-01T16:15:48.017516+00:00
  0
ENDSEC
  0
EOF
