<svg xmlns="http://www.w3.org/2000/svg" width="1500.00mm" height="3000.00mm" viewBox="0 0 1500.0000 3000.0000">
  <!-- q76_mixedmed_A_default sheet 0 rendered from solver output placements and input outer_points -->
  <rect width="1500.0000" height="3000.0000" fill="#ffffff" stroke="#111827" stroke-width="2"/>
  <rect x="5.0000" y="5.0000" width="1490.0000" height="2990.0000" fill="none" stroke="#dc2626" stroke-width="1.5" stroke-dasharray="8,6"/>
  <path d="M 198.593 853.965 L 216.362 1213.526 L 360.187 1206.418 L 349.525 990.682 L 565.262 980.020 L 558.155 836.196 Z" fill="#59a14f" fill-opacity="0.68" stroke="#1f2937" stroke-width="0.45" data-part-id="l_med" data-instance-id="l_med__0002" data-rotation-deg="272.829150"/>
  <path d="M 306.183 2234.435 L 6.660 2434.150 L 86.546 2553.959 L 266.260 2434.130 L 386.089 2613.844 L 505.898 2533.958 Z" fill="#59a14f" fill-opacity="0.68" stroke="#1f2937" stroke-width="0.45" data-part-id="l_med" data-instance-id="l_med__0004" data-rotation-deg="213.694503"/>
  <path d="M 304.653 1957.564 L 6.639 2159.524 L 87.423 2278.729 L 266.231 2157.553 L 387.407 2336.361 L 506.613 2255.577 Z" fill="#59a14f" fill-opacity="0.68" stroke="#1f2937" stroke-width="0.45" data-part-id="l_med" data-instance-id="l_med__0006" data-rotation-deg="214.125000"/>
  <path d="M 232.601 1694.190 L 6.017 1973.939 L 117.916 2064.573 L 253.867 1896.723 L 421.716 2032.674 L 512.350 1920.774 Z" fill="#59a14f" fill-opacity="0.68" stroke="#1f2937" stroke-width="0.45" data-part-id="l_med" data-instance-id="l_med__0008" data-rotation-deg="230.994141"/>
  <path d="M 219.501 1447.429 L 5.996 1737.284 L 121.938 1822.686 L 250.041 1648.773 L 423.954 1776.875 L 509.356 1660.933 Z" fill="#59a14f" fill-opacity="0.68" stroke="#1f2937" stroke-width="0.45" data-part-id="l_med" data-instance-id="l_med__0010" data-rotation-deg="233.625000"/>
  <path d="M 989.285 764.243 L 1169.285 764.134 L 1169.176 584.134 L 989.176 584.243 Z" fill="#59a14f" fill-opacity="0.68" stroke="#1f2937" stroke-width="0.45" data-part-id="m_180x180" data-instance-id="m_180x180__0001" data-rotation-deg="0.034699"/>
  <path d="M 953.361 2994.905 L 953.270 2814.905 L 773.270 2814.996 L 773.361 2994.996 Z" fill="#59a14f" fill-opacity="0.68" stroke="#1f2937" stroke-width="0.45" data-part-id="m_180x180" data-instance-id="m_180x180__0002" data-rotation-deg="90.029175"/>
  <path d="M 1297.177 2809.931 L 1477.177 2809.931 L 1477.177 2629.931 L 1297.177 2629.931 Z" fill="#59a14f" fill-opacity="0.68" stroke="#1f2937" stroke-width="0.45" data-part-id="m_180x180" data-instance-id="m_180x180__0003" data-rotation-deg="0.000000"/>
  <path d="M 597.714 730.075 L 597.714 910.075 L 777.714 910.076 L 777.714 730.076 Z" fill="#59a14f" fill-opacity="0.68" stroke="#1f2937" stroke-width="0.45" data-part-id="m_180x180" data-instance-id="m_180x180__0004" data-rotation-deg="269.999825"/>
  <path d="M 160.368 1439.444 L 340.355 1441.597 L 342.508 1261.609 L 162.520 1259.457 Z" fill="#59a14f" fill-opacity="0.68" stroke="#1f2937" stroke-width="0.45" data-part-id="m_180x180" data-instance-id="m_180x180__0007" data-rotation-deg="-0.685219"/>
  <path d="M 1488.127 2022.938 L 1308.127 2022.938 L 1308.127 2202.938 L 1488.127 2202.938 Z" fill="#59a14f" fill-opacity="0.68" stroke="#1f2937" stroke-width="0.45" data-part-id="m_180x180" data-instance-id="m_180x180__0009" data-rotation-deg="180.000000"/>
  <path d="M 187.500 923.843 L 187.602 743.843 L 7.602 743.741 L 7.500 923.741 Z" fill="#59a14f" fill-opacity="0.68" stroke="#1f2937" stroke-width="0.45" data-part-id="m_180x180" data-instance-id="m_180x180__0010" data-rotation-deg="89.967435"/>
  <path d="M 5.007 738.680 L 185.007 738.680 L 185.007 558.680 L 5.007 558.680 Z" fill="#59a14f" fill-opacity="0.68" stroke="#1f2937" stroke-width="0.45" data-part-id="m_180x180" data-instance-id="m_180x180__0011" data-rotation-deg="0.000000"/>
  <path d="M 1256.387 2994.938 L 1436.387 2994.992 L 1436.440 2814.992 L 1256.440 2814.938 Z" fill="#59a14f" fill-opacity="0.68" stroke="#1f2937" stroke-width="0.45" data-part-id="m_180x180" data-instance-id="m_180x180__0015" data-rotation-deg="-0.017062"/>
  <path d="M 347.555 1400.496 L 527.555 1400.496 L 527.555 1220.496 L 347.555 1220.496 Z" fill="#59a14f" fill-opacity="0.68" stroke="#1f2937" stroke-width="0.45" data-part-id="m_180x180" data-instance-id="m_180x180__0016" data-rotation-deg="0.000000"/>
  <path d="M 187.500 2994.993 L 187.529 2814.993 L 7.529 2814.964 L 7.500 2994.964 Z" fill="#59a14f" fill-opacity="0.68" stroke="#1f2937" stroke-width="0.45" data-part-id="m_180x180" data-instance-id="m_180x180__0018" data-rotation-deg="89.990816"/>
  <path d="M 5.180 1108.531 L 184.715 1121.464 L 197.647 941.929 L 18.113 928.997 Z" fill="#59a14f" fill-opacity="0.68" stroke="#1f2937" stroke-width="0.45" data-part-id="m_180x180" data-instance-id="m_180x180__0021" data-rotation-deg="-4.120167"/>
  <path d="M 187.500 271.018 L 7.500 271.225 L 7.707 451.225 L 187.707 451.018 Z" fill="#59a14f" fill-opacity="0.68" stroke="#1f2937" stroke-width="0.45" data-part-id="m_180x180" data-instance-id="m_180x180__0024" data-rotation-deg="180.065782"/>
  <path d="M 1310.993 2437.114 L 1312.457 2617.108 L 1492.451 2615.644 L 1490.988 2435.650 Z" fill="#59a14f" fill-opacity="0.68" stroke="#1f2937" stroke-width="0.45" data-part-id="m_180x180" data-instance-id="m_180x180__0027" data-rotation-deg="270.465984"/>
  <path d="M 1311.678 2017.849 L 1491.678 2017.848 L 1491.677 1837.848 L 1311.677 1837.849 Z" fill="#59a14f" fill-opacity="0.68" stroke="#1f2937" stroke-width="0.45" data-part-id="m_180x180" data-instance-id="m_180x180__0029" data-rotation-deg="0.000314"/>
  <path d="M 440.021 1001.310 L 389.265 1174.005 L 561.961 1224.761 L 612.717 1052.066 Z" fill="#59a14f" fill-opacity="0.68" stroke="#1f2937" stroke-width="0.45" data-part-id="m_180x180" data-instance-id="m_180x180__0030" data-rotation-deg="253.621687"/>
  <path d="M 951.220 1219.244 L 1136.030 1338.597 L 1309.634 1069.783 L 1124.824 950.429 Z" fill="#f28e2b" fill-opacity="0.68" stroke="#1f2937" stroke-width="0.45" data-part-id="m_220x320" data-instance-id="m_220x320__0003" data-rotation-deg="327.145016"/>
  <path d="M 715.207 359.506 L 935.207 359.506 L 935.207 39.506 L 715.207 39.506 Z" fill="#f28e2b" fill-opacity="0.68" stroke="#1f2937" stroke-width="0.45" data-part-id="m_220x320" data-instance-id="m_220x320__0005" data-rotation-deg="0.000000"/>
  <path d="M 717.954 916.088 L 611.882 1108.828 L 892.231 1263.114 L 998.303 1070.374 Z" fill="#f28e2b" fill-opacity="0.68" stroke="#1f2937" stroke-width="0.45" data-part-id="m_220x320" data-instance-id="m_220x320__0006" data-rotation-deg="241.174415"/>
  <path d="M 1167.528 2205.965 L 1164.379 2425.943 L 1484.347 2430.523 L 1487.495 2210.545 Z" fill="#f28e2b" fill-opacity="0.68" stroke="#1f2937" stroke-width="0.45" data-part-id="m_220x320" data-instance-id="m_220x320__0008" data-rotation-deg="269.179954"/>
  <path d="M 1494.989 1202.067 L 1274.990 1201.647 L 1274.380 1521.647 L 1494.380 1522.066 Z" fill="#f28e2b" fill-opacity="0.68" stroke="#1f2937" stroke-width="0.45" data-part-id="m_220x320" data-instance-id="m_220x320__0009" data-rotation-deg="179.890800"/>
  <path d="M 190.048 456.039 L 190.052 676.039 L 510.052 676.033 L 510.048 456.033 Z" fill="#f28e2b" fill-opacity="0.68" stroke="#1f2937" stroke-width="0.45" data-part-id="m_220x320" data-instance-id="m_220x320__0011" data-rotation-deg="270.001073"/>
  <path d="M 1415.387 40.066 L 1195.387 40.066 L 1195.387 360.066 L 1415.387 360.066 Z" fill="#f28e2b" fill-opacity="0.68" stroke="#1f2937" stroke-width="0.45" data-part-id="m_220x320" data-instance-id="m_220x320__0012" data-rotation-deg="180.000000"/>
  <path d="M 850.602 1468.069 L 714.122 1677.528 L 923.582 1814.008 L 1060.061 1604.548 Z" fill="#e15759" fill-opacity="0.68" stroke="#1f2937" stroke-width="0.45" data-part-id="m_250x250" data-instance-id="m_250x250__0001" data-rotation-deg="236.912516"/>
  <path d="M 992.868 2784.790 L 1012.418 2535.556 L 763.183 2516.006 L 743.634 2765.241 Z" fill="#e15759" fill-opacity="0.68" stroke="#1f2937" stroke-width="0.45" data-part-id="m_250x250" data-instance-id="m_250x250__0002" data-rotation-deg="85.515000"/>
  <path d="M 1494.839 1020.780 L 1494.798 770.780 L 1244.798 770.821 L 1244.839 1020.821 Z" fill="#e15759" fill-opacity="0.68" stroke="#1f2937" stroke-width="0.45" data-part-id="m_250x250" data-instance-id="m_250x250__0004" data-rotation-deg="90.009375"/>
  <path d="M 257.500 2559.959 L 7.500 2559.959 L 7.500 2809.959 L 257.500 2809.959 Z" fill="#e15759" fill-opacity="0.68" stroke="#1f2937" stroke-width="0.45" data-part-id="m_250x250" data-instance-id="m_250x250__0007" data-rotation-deg="180.000000"/>
  <path d="M 1001.281 2994.993 L 1251.281 2994.993 L 1251.281 2744.993 L 1001.281 2744.993 Z" fill="#e15759" fill-opacity="0.68" stroke="#1f2937" stroke-width="0.45" data-part-id="m_250x250" data-instance-id="m_250x250__0009" data-rotation-deg="0.000000"/>
  <path d="M 1053.124 1950.517 L 1053.124 2200.517 L 1303.124 2200.517 L 1303.124 1950.517 Z" fill="#e15759" fill-opacity="0.68" stroke="#1f2937" stroke-width="0.45" data-part-id="m_250x250" data-instance-id="m_250x250__0011" data-rotation-deg="270.000000"/>
  <path d="M 1005.957 1264.874 L 872.072 1476.001 L 1083.199 1609.886 L 1217.084 1398.759 Z" fill="#e15759" fill-opacity="0.68" stroke="#1f2937" stroke-width="0.45" data-part-id="m_250x250" data-instance-id="m_250x250__0012" data-rotation-deg="237.619398"/>
  <path d="M 801.488 951.549 L 1018.321 1075.982 L 1142.754 859.149 L 925.921 734.716 Z" fill="#e15759" fill-opacity="0.68" stroke="#1f2937" stroke-width="0.45" data-part-id="m_250x250" data-instance-id="m_250x250__0013" data-rotation-deg="330.150088"/>
  <path d="M 1031.403 2716.566 L 1280.031 2742.726 L 1306.191 2494.098 L 1057.563 2467.938 Z" fill="#e15759" fill-opacity="0.68" stroke="#1f2937" stroke-width="0.45" data-part-id="m_250x250" data-instance-id="m_250x250__0015" data-rotation-deg="-6.006445"/>
  <path d="M 750.097 1560.729 L 610.692 1353.205 L 403.168 1492.609 L 542.573 1700.134 Z" fill="#e15759" fill-opacity="0.68" stroke="#1f2937" stroke-width="0.45" data-part-id="m_250x250" data-instance-id="m_250x250__0016" data-rotation-deg="123.891251"/>
  <path d="M 1190.270 273.965 L 1190.270 23.965 L 940.270 23.965 L 940.270 273.965 Z" fill="#e15759" fill-opacity="0.68" stroke="#1f2937" stroke-width="0.45" data-part-id="m_250x250" data-instance-id="m_250x250__0019" data-rotation-deg="90.000000"/>
  <path d="M 722.380 2515.175 L 600.428 2241.081 L 417.699 2322.382 L 539.651 2596.477 Z" fill="#2ca02c" fill-opacity="0.68" stroke="#1f2937" stroke-width="0.45" data-part-id="m_300x200" data-instance-id="m_300x200__0002" data-rotation-deg="113.985575"/>
  <path d="M 766.951 2088.239 L 513.128 1928.321 L 406.516 2097.536 L 660.339 2257.455 Z" fill="#2ca02c" fill-opacity="0.68" stroke="#1f2937" stroke-width="0.45" data-part-id="m_300x200" data-instance-id="m_300x200__0004" data-rotation-deg="147.787500"/>
  <path d="M 1306.532 1739.000 L 1006.532 1739.000 L 1006.532 1939.000 L 1306.532 1939.000 Z" fill="#2ca02c" fill-opacity="0.68" stroke="#1f2937" stroke-width="0.45" data-part-id="m_300x200" data-instance-id="m_300x200__0005" data-rotation-deg="180.000000"/>
  <path d="M 901.778 526.363 L 601.795 523.157 L 599.658 723.145 L 899.640 726.352 Z" fill="#2ca02c" fill-opacity="0.68" stroke="#1f2937" stroke-width="0.45" data-part-id="m_300x200" data-instance-id="m_300x200__0006" data-rotation-deg="179.387550"/>
  <path d="M 5.003 264.858 L 305.003 264.858 L 305.003 64.858 L 5.003 64.858 Z" fill="#2ca02c" fill-opacity="0.68" stroke="#1f2937" stroke-width="0.45" data-part-id="m_300x200" data-instance-id="m_300x200__0008" data-rotation-deg="0.000000"/>
  <path d="M 647.469 1999.988 L 814.214 1750.597 L 647.952 1639.434 L 481.208 1888.825 Z" fill="#2ca02c" fill-opacity="0.68" stroke="#1f2937" stroke-width="0.45" data-part-id="m_300x200" data-instance-id="m_300x200__0011" data-rotation-deg="56.233125"/>
  <path d="M 1158.272 1712.545 L 1455.290 1754.737 L 1483.419 1556.725 L 1186.401 1514.533 Z" fill="#2ca02c" fill-opacity="0.68" stroke="#1f2937" stroke-width="0.45" data-part-id="m_300x200" data-instance-id="m_300x200__0012" data-rotation-deg="351.915000"/>
  <path d="M 787.044 2068.409 L 648.653 2334.582 L 826.102 2426.842 L 964.492 2160.670 Z" fill="#2ca02c" fill-opacity="0.68" stroke="#1f2937" stroke-width="0.45" data-part-id="m_300x200" data-instance-id="m_300x200__0016" data-rotation-deg="242.528844"/>
  <path d="M 262.561 2839.978 L 562.561 2839.969 L 562.555 2639.969 L 262.555 2639.978 Z" fill="#2ca02c" fill-opacity="0.68" stroke="#1f2937" stroke-width="0.45" data-part-id="m_300x200" data-instance-id="m_300x200__0017" data-rotation-deg="0.001709"/>
  <path d="M 938.031 1331.491 L 692.454 1159.177 L 577.578 1322.895 L 823.155 1495.209 Z" fill="#2ca02c" fill-opacity="0.68" stroke="#1f2937" stroke-width="0.45" data-part-id="m_300x200" data-instance-id="m_300x200__0020" data-rotation-deg="144.943772"/>
  <path d="M 1047.100 1973.791 L 798.927 1805.238 L 686.558 1970.686 L 934.731 2139.239 Z" fill="#2ca02c" fill-opacity="0.68" stroke="#1f2937" stroke-width="0.45" data-part-id="m_300x200" data-instance-id="m_300x200__0022" data-rotation-deg="145.816650"/>
  <path d="M 1142.843 579.025 L 1142.843 279.025 L 942.843 279.025 L 942.843 579.025 Z" fill="#2ca02c" fill-opacity="0.68" stroke="#1f2937" stroke-width="0.45" data-part-id="m_300x200" data-instance-id="m_300x200__0028" data-rotation-deg="90.000000"/>
  <path d="M 988.761 2169.166 L 835.212 2426.892 L 1007.029 2529.258 L 1160.579 2271.532 Z" fill="#2ca02c" fill-opacity="0.68" stroke="#1f2937" stroke-width="0.45" data-part-id="m_300x200" data-instance-id="m_300x200__0030" data-rotation-deg="239.214088"/>
  <path d="M 6.581 1124.143 L 5.010 1524.140 L 155.009 1524.729 L 156.580 1124.732 Z" fill="#1f77b4" fill-opacity="0.68" stroke="#1f2937" stroke-width="0.45" data-part-id="m_400x150" data-instance-id="m_400x150__0002" data-rotation-deg="269.775000"/>
  <path d="M 192.619 831.048 L 592.619 831.048 L 592.619 681.048 L 192.619 681.048 Z" fill="#1f77b4" fill-opacity="0.68" stroke="#1f2937" stroke-width="0.45" data-part-id="m_400x150" data-instance-id="m_400x150__0003" data-rotation-deg="0.000000"/>
  <path d="M 562.126 2596.676 L 619.420 2992.552 L 767.873 2971.067 L 710.580 2575.191 Z" fill="#1f77b4" fill-opacity="0.68" stroke="#1f2937" stroke-width="0.45" data-part-id="m_400x150" data-instance-id="m_400x150__0004" data-rotation-deg="278.235000"/>
  <path d="M 1481.988 764.702 L 1479.395 364.711 L 1329.398 365.683 L 1331.991 765.675 Z" fill="#1f77b4" fill-opacity="0.68" stroke="#1f2937" stroke-width="0.45" data-part-id="m_400x150" data-instance-id="m_400x150__0005" data-rotation-deg="90.371437"/>
  <path d="M 533.558 509.442 L 933.392 520.977 L 937.717 371.040 L 537.884 359.504 Z" fill="#1f77b4" fill-opacity="0.68" stroke="#1f2937" stroke-width="0.45" data-part-id="m_400x150" data-instance-id="m_400x150__0008" data-rotation-deg="358.347422"/>
  <path d="M 1174.353 365.782 L 1174.353 765.782 L 1324.353 765.782 L 1324.353 365.782 Z" fill="#1f77b4" fill-opacity="0.68" stroke="#1f2937" stroke-width="0.45" data-part-id="m_400x150" data-instance-id="m_400x150__0010" data-rotation-deg="270.000000"/>
  <path d="M 710.064 204.426 L 310.064 204.426 L 310.064 354.426 L 710.064 354.426 Z" fill="#1f77b4" fill-opacity="0.68" stroke="#1f2937" stroke-width="0.45" data-part-id="m_400x150" data-instance-id="m_400x150__0011" data-rotation-deg="180.000000"/>
  <path d="M 710.071 49.296 L 310.071 49.296 L 310.071 199.296 L 710.071 199.296 Z" fill="#1f77b4" fill-opacity="0.68" stroke="#1f2937" stroke-width="0.45" data-part-id="m_400x150" data-instance-id="m_400x150__0012" data-rotation-deg="180.000000"/>
  <path d="M 192.564 2994.998 L 592.564 2994.998 L 592.564 2844.998 L 192.564 2844.998 Z" fill="#1f77b4" fill-opacity="0.68" stroke="#1f2937" stroke-width="0.45" data-part-id="m_400x150" data-instance-id="m_400x150__0016" data-rotation-deg="0.000000"/>
  <text x="8" y="28" font-family="Arial, sans-serif" font-size="26" fill="#111827">q76_mixedmed_A_default sheet 0 placed=61</text>
</svg>
