<svg xmlns="http://www.w3.org/2000/svg" width="1500.00mm" height="3000.00mm" viewBox="0 0 1500.0000 3000.0000">
  <!-- q76_mixedmed_A_default sheet 1 rendered from solver output placements and input outer_points -->
  <rect width="1500.0000" height="3000.0000" fill="#ffffff" stroke="#111827" stroke-width="2"/>
  <rect x="5.0000" y="5.0000" width="1490.0000" height="2990.0000" fill="none" stroke="#dc2626" stroke-width="1.5" stroke-dasharray="8,6"/>
  <path d="M 1481.667 487.912 L 1472.938 128.018 L 1328.981 131.510 L 1334.218 347.446 L 1118.282 352.684 L 1121.773 496.641 Z" fill="#59a14f" fill-opacity="0.68" stroke="#1f2937" stroke-width="0.45" data-part-id="l_med" data-instance-id="l_med__0001" data-rotation-deg="91.389375"/>
  <path d="M 66.360 2431.663 L 5.394 2786.463 L 147.314 2810.849 L 183.894 2597.969 L 396.774 2634.549 L 421.160 2492.629 Z" fill="#59a14f" fill-opacity="0.68" stroke="#1f2937" stroke-width="0.45" data-part-id="l_med" data-instance-id="l_med__0003" data-rotation-deg="260.250000"/>
  <path d="M 300.574 2104.111 L 6.583 2311.883 L 89.692 2429.479 L 266.087 2304.816 L 390.750 2481.211 L 508.346 2398.102 Z" fill="#59a14f" fill-opacity="0.68" stroke="#1f2937" stroke-width="0.45" data-part-id="l_med" data-instance-id="l_med__0005" data-rotation-deg="215.250000"/>
  <path d="M 5.460 1830.733 L 78.002 2183.348 L 219.048 2154.332 L 175.523 1942.762 L 387.092 1899.237 L 358.075 1758.191 Z" fill="#59a14f" fill-opacity="0.68" stroke="#1f2937" stroke-width="0.45" data-part-id="l_med" data-instance-id="l_med__0007" data-rotation-deg="281.625000"/>
  <path d="M 367.500 2994.996 L 367.500 2634.996 L 223.500 2634.996 L 223.500 2850.996 L 7.500 2850.996 L 7.500 2994.996 Z" fill="#59a14f" fill-opacity="0.68" stroke="#1f2937" stroke-width="0.45" data-part-id="l_med" data-instance-id="l_med__0009" data-rotation-deg="90.000000"/>
  <path d="M 5.006 1602.525 L 185.006 1602.573 L 185.054 1422.573 L 5.054 1422.525 Z" fill="#59a14f" fill-opacity="0.68" stroke="#1f2937" stroke-width="0.45" data-part-id="m_180x180" data-instance-id="m_180x180__0005" data-rotation-deg="359.984639"/>
  <path d="M 825.327 2646.343 L 645.959 2631.273 L 630.889 2810.641 L 810.257 2825.711 Z" fill="#59a14f" fill-opacity="0.68" stroke="#1f2937" stroke-width="0.45" data-part-id="m_180x180" data-instance-id="m_180x180__0006" data-rotation-deg="175.197262"/>
  <path d="M 1311.241 2589.973 L 1311.212 2769.973 L 1491.212 2770.002 L 1491.241 2590.002 Z" fill="#59a14f" fill-opacity="0.68" stroke="#1f2937" stroke-width="0.45" data-part-id="m_180x180" data-instance-id="m_180x180__0008" data-rotation-deg="269.990625"/>
  <path d="M 847.907 2769.686 L 1026.475 2747.023 L 1003.811 2568.455 L 825.243 2591.119 Z" fill="#59a14f" fill-opacity="0.68" stroke="#1f2937" stroke-width="0.45" data-part-id="m_180x180" data-instance-id="m_180x180__0012" data-rotation-deg="367.233358"/>
  <path d="M 1011.362 1578.548 L 864.297 1474.760 L 760.509 1621.825 L 907.574 1725.613 Z" fill="#59a14f" fill-opacity="0.68" stroke="#1f2937" stroke-width="0.45" data-part-id="m_180x180" data-instance-id="m_180x180__0013" data-rotation-deg="144.788300"/>
  <path d="M 1273.051 163.797 L 1093.078 166.940 L 1096.221 346.912 L 1276.193 343.770 Z" fill="#59a14f" fill-opacity="0.68" stroke="#1f2937" stroke-width="0.45" data-part-id="m_180x180" data-instance-id="m_180x180__0014" data-rotation-deg="181.000331"/>
  <path d="M 979.002 853.955 L 1158.201 870.916 L 1175.161 691.716 L 995.962 674.756 Z" fill="#59a14f" fill-opacity="0.68" stroke="#1f2937" stroke-width="0.45" data-part-id="m_180x180" data-instance-id="m_180x180__0017" data-rotation-deg="354.593250"/>
  <path d="M 1231.739 1076.993 L 1397.811 1146.419 L 1467.238 980.347 L 1301.166 910.921 Z" fill="#59a14f" fill-opacity="0.68" stroke="#1f2937" stroke-width="0.45" data-part-id="m_180x180" data-instance-id="m_180x180__0019" data-rotation-deg="337.312500"/>
  <path d="M 479.634 2015.545 L 586.266 2160.561 L 731.282 2053.930 L 624.651 1908.913 Z" fill="#59a14f" fill-opacity="0.68" stroke="#1f2937" stroke-width="0.45" data-part-id="m_180x180" data-instance-id="m_180x180__0020" data-rotation-deg="306.327375"/>
  <path d="M 187.500 587.813 L 7.500 587.813 L 7.500 767.813 L 187.500 767.813 Z" fill="#59a14f" fill-opacity="0.68" stroke="#1f2937" stroke-width="0.45" data-part-id="m_180x180" data-instance-id="m_180x180__0022" data-rotation-deg="180.000000"/>
  <path d="M 484.015 1712.354 L 385.875 1863.247 L 536.768 1961.387 L 634.908 1810.494 Z" fill="#59a14f" fill-opacity="0.68" stroke="#1f2937" stroke-width="0.45" data-part-id="m_180x180" data-instance-id="m_180x180__0023" data-rotation-deg="236.960130"/>
  <path d="M 212.517 572.428 L 392.517 572.428 L 392.517 392.428 L 212.517 392.428 Z" fill="#59a14f" fill-opacity="0.68" stroke="#1f2937" stroke-width="0.45" data-part-id="m_180x180" data-instance-id="m_180x180__0025" data-rotation-deg="0.000000"/>
  <path d="M 5.002 772.867 L 5.002 952.867 L 185.002 952.867 L 185.002 772.867 Z" fill="#59a14f" fill-opacity="0.68" stroke="#1f2937" stroke-width="0.45" data-part-id="m_180x180" data-instance-id="m_180x180__0026" data-rotation-deg="270.000000"/>
  <path d="M 187.514 1787.629 L 187.500 1607.629 L 7.500 1607.643 L 7.514 1787.643 Z" fill="#59a14f" fill-opacity="0.68" stroke="#1f2937" stroke-width="0.45" data-part-id="m_180x180" data-instance-id="m_180x180__0028" data-rotation-deg="90.004248"/>
  <path d="M 1278.204 1634.046 L 1405.176 1454.386 L 1143.852 1269.698 L 1016.879 1449.359 Z" fill="#f28e2b" fill-opacity="0.68" stroke="#1f2937" stroke-width="0.45" data-part-id="m_220x320" data-instance-id="m_220x320__0001" data-rotation-deg="54.749766"/>
  <path d="M 1464.893 2994.998 L 1464.900 2774.998 L 1144.900 2774.989 L 1144.893 2994.989 Z" fill="#f28e2b" fill-opacity="0.68" stroke="#1f2937" stroke-width="0.45" data-part-id="m_220x320" data-instance-id="m_220x320__0002" data-rotation-deg="89.998219"/>
  <path d="M 856.246 354.316 L 1075.856 367.411 L 1094.903 47.979 L 875.293 34.883 Z" fill="#f28e2b" fill-opacity="0.68" stroke="#1f2937" stroke-width="0.45" data-part-id="m_220x320" data-instance-id="m_220x320__0004" data-rotation-deg="-3.412500"/>
  <path d="M 1139.823 2994.924 L 1139.773 2774.924 L 819.773 2774.998 L 819.823 2994.998 Z" fill="#f28e2b" fill-opacity="0.68" stroke="#1f2937" stroke-width="0.45" data-part-id="m_220x320" data-instance-id="m_220x320__0007" data-rotation-deg="90.013113"/>
  <path d="M 1110.547 1243.105 L 934.401 1111.299 L 742.685 1367.512 L 918.831 1499.317 Z" fill="#f28e2b" fill-opacity="0.68" stroke="#1f2937" stroke-width="0.45" data-part-id="m_220x320" data-instance-id="m_220x320__0010" data-rotation-deg="143.193490"/>
  <path d="M 1358.657 2292.780 L 1486.069 2113.431 L 1225.197 1928.104 L 1097.785 2107.454 Z" fill="#f28e2b" fill-opacity="0.68" stroke="#1f2937" stroke-width="0.45" data-part-id="m_220x320" data-instance-id="m_220x320__0013" data-rotation-deg="54.609561"/>
  <path d="M 659.730 1038.905 L 503.767 883.742 L 278.075 1110.597 L 434.038 1265.760 Z" fill="#f28e2b" fill-opacity="0.68" stroke="#1f2937" stroke-width="0.45" data-part-id="m_220x320" data-instance-id="m_220x320__0014" data-rotation-deg="135.147355"/>
  <path d="M 394.135 250.099 L 400.351 500.022 L 650.274 493.806 L 644.058 243.883 Z" fill="#e15759" fill-opacity="0.68" stroke="#1f2937" stroke-width="0.45" data-part-id="m_250x250" data-instance-id="m_250x250__0003" data-rotation-deg="271.424742"/>
  <path d="M 1239.524 2334.672 L 1239.197 2584.672 L 1489.197 2584.999 L 1489.524 2334.999 Z" fill="#e15759" fill-opacity="0.68" stroke="#1f2937" stroke-width="0.45" data-part-id="m_250x250" data-instance-id="m_250x250__0005" data-rotation-deg="269.925000"/>
  <path d="M 709.879 666.868 L 700.408 916.688 L 950.228 926.159 L 959.699 676.339 Z" fill="#e15759" fill-opacity="0.68" stroke="#1f2937" stroke-width="0.45" data-part-id="m_250x250" data-instance-id="m_250x250__0006" data-rotation-deg="267.828938"/>
  <path d="M 865.814 1971.624 L 1071.966 2113.051 L 1213.392 1906.899 L 1007.241 1765.472 Z" fill="#e15759" fill-opacity="0.68" stroke="#1f2937" stroke-width="0.45" data-part-id="m_250x250" data-instance-id="m_250x250__0008" data-rotation-deg="325.548633"/>
  <path d="M 1291.228 1648.883 L 1083.637 1509.577 L 944.331 1717.168 L 1151.922 1856.474 Z" fill="#e15759" fill-opacity="0.68" stroke="#1f2937" stroke-width="0.45" data-part-id="m_250x250" data-instance-id="m_250x250__0010" data-rotation-deg="146.136078"/>
  <path d="M 5.004 277.724 L 255.004 277.729 L 255.010 27.729 L 5.010 27.724 Z" fill="#e15759" fill-opacity="0.68" stroke="#1f2937" stroke-width="0.45" data-part-id="m_250x250" data-instance-id="m_250x250__0014" data-rotation-deg="-0.001163"/>
  <path d="M 1132.553 2458.133 L 1286.313 2261.010 L 1089.189 2107.249 L 935.429 2304.373 Z" fill="#e15759" fill-opacity="0.68" stroke="#1f2937" stroke-width="0.45" data-part-id="m_250x250" data-instance-id="m_250x250__0017" data-rotation-deg="52.045151"/>
  <path d="M 879.695 668.022 L 1128.877 647.814 L 1108.668 398.632 L 859.486 418.841 Z" fill="#e15759" fill-opacity="0.68" stroke="#1f2937" stroke-width="0.45" data-part-id="m_250x250" data-instance-id="m_250x250__0018" data-rotation-deg="4.636500"/>
  <path d="M 1167.711 1159.789 L 1224.552 916.337 L 981.099 859.496 L 924.258 1102.948 Z" fill="#e15759" fill-opacity="0.68" stroke="#1f2937" stroke-width="0.45" data-part-id="m_250x250" data-instance-id="m_250x250__0020" data-rotation-deg="76.858125"/>
  <path d="M 626.963 2791.626 L 652.849 2492.745 L 453.595 2475.488 L 427.709 2774.369 Z" fill="#2ca02c" fill-opacity="0.68" stroke="#1f2937" stroke-width="0.45" data-part-id="m_300x200" data-instance-id="m_300x200__0001" data-rotation-deg="85.050000"/>
  <path d="M 1126.715 1253.062 L 1382.179 1410.345 L 1487.034 1240.036 L 1231.570 1082.752 Z" fill="#2ca02c" fill-opacity="0.68" stroke="#1f2937" stroke-width="0.45" data-part-id="m_300x200" data-instance-id="m_300x200__0003" data-rotation-deg="328.380302"/>
  <path d="M 397.943 576.520 L 510.832 854.470 L 696.132 779.211 L 583.243 501.261 Z" fill="#2ca02c" fill-opacity="0.68" stroke="#1f2937" stroke-width="0.45" data-part-id="m_300x200" data-instance-id="m_300x200__0007" data-rotation-deg="292.104366"/>
  <path d="M 424.222 1623.109 L 652.141 1818.180 L 782.189 1666.234 L 554.270 1471.163 Z" fill="#2ca02c" fill-opacity="0.68" stroke="#1f2937" stroke-width="0.45" data-part-id="m_300x200" data-instance-id="m_300x200__0009" data-rotation-deg="319.440394"/>
  <path d="M 692.961 2130.254 L 482.112 2343.661 L 624.383 2484.227 L 835.232 2270.820 Z" fill="#2ca02c" fill-opacity="0.68" stroke="#1f2937" stroke-width="0.45" data-part-id="m_300x200" data-instance-id="m_300x200__0010" data-rotation-deg="225.345533"/>
  <path d="M 649.014 45.748 L 651.693 345.736 L 851.685 343.950 L 849.006 43.962 Z" fill="#2ca02c" fill-opacity="0.68" stroke="#1f2937" stroke-width="0.45" data-part-id="m_300x200" data-instance-id="m_300x200__0013" data-rotation-deg="270.511643"/>
  <path d="M 1232.704 2759.410 L 1217.099 2459.816 L 1017.370 2470.219 L 1032.974 2769.813 Z" fill="#2ca02c" fill-opacity="0.68" stroke="#1f2937" stroke-width="0.45" data-part-id="m_300x200" data-instance-id="m_300x200__0014" data-rotation-deg="92.981625"/>
  <path d="M 193.415 706.788 L 339.514 968.809 L 514.195 871.410 L 368.096 609.389 Z" fill="#2ca02c" fill-opacity="0.68" stroke="#1f2937" stroke-width="0.45" data-part-id="m_300x200" data-instance-id="m_300x200__0015" data-rotation-deg="299.143376"/>
  <path d="M 559.812 13.993 L 259.947 22.962 L 265.926 222.873 L 565.792 213.903 Z" fill="#2ca02c" fill-opacity="0.68" stroke="#1f2937" stroke-width="0.45" data-part-id="m_300x200" data-instance-id="m_300x200__0018" data-rotation-deg="181.713281"/>
  <path d="M 778.535 925.681 L 573.600 1144.775 L 719.663 1281.398 L 924.597 1062.304 Z" fill="#2ca02c" fill-opacity="0.68" stroke="#1f2937" stroke-width="0.45" data-part-id="m_300x200" data-instance-id="m_300x200__0019" data-rotation-deg="226.912500"/>
  <path d="M 392.536 1752.734 L 392.536 1452.734 L 192.536 1452.734 L 192.536 1752.734 Z" fill="#2ca02c" fill-opacity="0.68" stroke="#1f2937" stroke-width="0.45" data-part-id="m_300x200" data-instance-id="m_300x200__0021" data-rotation-deg="90.000000"/>
  <path d="M 786.649 2620.478 L 1000.770 2410.354 L 860.688 2267.606 L 646.566 2477.730 Z" fill="#2ca02c" fill-opacity="0.68" stroke="#1f2937" stroke-width="0.45" data-part-id="m_300x200" data-instance-id="m_300x200__0023" data-rotation-deg="44.460159"/>
  <path d="M 805.799 1660.321 L 601.630 1880.128 L 748.168 2016.241 L 952.337 1796.434 Z" fill="#2ca02c" fill-opacity="0.68" stroke="#1f2937" stroke-width="0.45" data-part-id="m_300x200" data-instance-id="m_300x200__0024" data-rotation-deg="227.112387"/>
  <path d="M 653.262 362.554 L 657.979 662.517 L 857.954 659.373 L 853.237 359.410 Z" fill="#2ca02c" fill-opacity="0.68" stroke="#1f2937" stroke-width="0.45" data-part-id="m_300x200" data-instance-id="m_300x200__0025" data-rotation-deg="270.900919"/>
  <path d="M 207.500 582.737 L 207.500 282.737 L 7.500 282.737 L 7.500 582.737 Z" fill="#2ca02c" fill-opacity="0.68" stroke="#1f2937" stroke-width="0.45" data-part-id="m_300x200" data-instance-id="m_300x200__0026" data-rotation-deg="90.000000"/>
  <path d="M 1058.325 2138.539 L 827.625 1946.764 L 699.775 2100.564 L 930.475 2292.339 Z" fill="#2ca02c" fill-opacity="0.68" stroke="#1f2937" stroke-width="0.45" data-part-id="m_300x200" data-instance-id="m_300x200__0027" data-rotation-deg="140.264166"/>
  <path d="M 1493.697 1963.489 L 1484.765 1663.622 L 1284.854 1669.578 L 1293.786 1969.445 Z" fill="#2ca02c" fill-opacity="0.68" stroke="#1f2937" stroke-width="0.45" data-part-id="m_300x200" data-instance-id="m_300x200__0029" data-rotation-deg="91.706250"/>
  <path d="M 1330.497 900.299 L 1330.497 500.299 L 1180.497 500.299 L 1180.497 900.299 Z" fill="#1f77b4" fill-opacity="0.68" stroke="#1f2937" stroke-width="0.45" data-part-id="m_400x150" data-instance-id="m_400x150__0001" data-rotation-deg="90.000000"/>
  <path d="M 471.173 1258.078 L 705.880 1581.980 L 827.343 1493.965 L 592.636 1170.063 Z" fill="#1f77b4" fill-opacity="0.68" stroke="#1f2937" stroke-width="0.45" data-part-id="m_400x150" data-instance-id="m_400x150__0006" data-rotation-deg="305.927938"/>
  <path d="M 1494.682 922.843 L 1494.682 522.843 L 1344.682 522.843 L 1344.682 922.843 Z" fill="#1f77b4" fill-opacity="0.68" stroke="#1f2937" stroke-width="0.45" data-part-id="m_400x150" data-instance-id="m_400x150__0007" data-rotation-deg="90.000000"/>
  <path d="M 218.917 909.996 L 6.357 1248.845 L 133.426 1328.555 L 345.985 989.706 Z" fill="#1f77b4" fill-opacity="0.68" stroke="#1f2937" stroke-width="0.45" data-part-id="m_400x150" data-instance-id="m_400x150__0009" data-rotation-deg="237.900000"/>
  <path d="M 226.644 2023.308 L 510.964 2304.666 L 616.473 2198.046 L 332.153 1916.688 Z" fill="#1f77b4" fill-opacity="0.68" stroke="#1f2937" stroke-width="0.45" data-part-id="m_400x150" data-instance-id="m_400x150__0013" data-rotation-deg="315.300000"/>
  <path d="M 793.047 2844.914 L 399.276 2774.595 L 372.906 2922.259 L 766.677 2992.578 Z" fill="#1f77b4" fill-opacity="0.68" stroke="#1f2937" stroke-width="0.45" data-part-id="m_400x150" data-instance-id="m_400x150__0014" data-rotation-deg="169.875000"/>
  <path d="M 585.125 1424.619 L 302.282 1141.777 L 196.216 1247.843 L 479.059 1530.685 Z" fill="#1f77b4" fill-opacity="0.68" stroke="#1f2937" stroke-width="0.45" data-part-id="m_400x150" data-instance-id="m_400x150__0015" data-rotation-deg="135.000000"/>
  <text x="8" y="28" font-family="Arial, sans-serif" font-size="26" fill="#111827">q76_mixedmed_A_default sheet 1 placed=59</text>
</svg>
