<svg xmlns="http://www.w3.org/2000/svg" width="1500.00mm" height="3000.00mm" viewBox="0 0 1500.0000 3000.0000">
  <!-- 6big_sp0_builderon sheet 0 rendered from solver output placements and input outer_points -->
  <rect width="1500.0000" height="3000.0000" fill="#ffffff" stroke="#111827" stroke-width="2"/>
  <rect x="5.0000" y="5.0000" width="1490.0000" height="2990.0000" fill="none" stroke="#dc2626" stroke-width="1.5" stroke-dasharray="8,6"/>
  <path d="M 754.936 1893.409 L 754.936 1692.970 L 754.938 1692.814 L 754.945 1692.657 L 754.958 1692.502 L 754.975 1692.346 L 754.997 1692.192 L 755.023 1692.038 L 755.055 1691.885 L 755.091 1691.733 L 755.132 1691.582 L 755.178 1691.433 L 755.228 1691.285 L 755.283 1691.139 L 777.272 1635.269 L 774.358 1626.553 L 772.571 1617.540 L 771.937 1608.372 L 772.469 1599.198 L 774.156 1590.165 L 776.973 1581.418 L 780.874 1573.097 L 785.796 1565.337 L 791.659 1558.262 L 798.371 1551.985 L 805.823 1546.608 L 813.895 1542.216 L 846.388 1459.658 L 848.441 1455.120 L 850.935 1450.809 L 853.845 1446.767 L 857.143 1443.035 L 860.796 1439.650 L 864.768 1436.644 L 869.019 1434.049 L 873.507 1431.890 L 878.188 1430.188 L 883.015 1428.960 L 887.940 1428.218 L 892.914 1427.970 L 962.936 1427.970 L 964.241 1427.884 L 965.524 1427.629 L 966.762 1427.209 L 967.936 1426.630 L 969.023 1425.903 L 970.007 1425.041 L 970.869 1424.057 L 971.596 1422.970 L 972.174 1421.797 L 972.595 1420.558 L 972.850 1419.275 L 972.936 1417.970 L 972.936 1102.970 L 972.889 1102.001 L 972.748 1101.041 L 972.515 1100.099 L 972.191 1099.184 L 971.781 1098.305 L 971.287 1097.470 L 970.715 1096.686 L 970.069 1095.962 L 969.357 1095.304 L 968.584 1094.717 L 967.757 1094.209 L 966.886 1093.783 L 910.186 1069.404 L 905.827 1067.274 L 901.696 1064.731 L 897.830 1061.800 L 894.267 1058.509 L 891.039 1054.887 L 888.177 1050.970 L 885.709 1046.794 L 883.657 1042.398 L 882.040 1037.824 L 880.875 1033.115 L 880.171 1028.315 L 879.936 1023.470 L 879.936 647.012 L 879.914 646.358 L 879.850 645.707 L 879.744 645.061 L 879.595 644.424 L 879.405 643.797 L 879.174 643.185 L 878.904 642.589 L 878.596 642.012 L 878.250 641.456 L 877.869 640.924 L 877.454 640.418 L 877.007 639.941 L 872.865 635.799 L 872.417 635.321 L 872.002 634.815 L 871.621 634.283 L 871.275 633.728 L 870.967 633.151 L 870.697 632.554 L 870.466 631.942 L 870.276 631.316 L 870.128 630.679 L 870.021 630.033 L 869.957 629.382 L 869.936 628.728 L 869.936 527.012 L 869.957 526.358 L 870.021 525.707 L 870.128 525.061 L 870.276 524.424 L 870.466 523.797 L 870.697 523.185 L 870.967 522.589 L 871.275 522.012 L 871.621 521.456 L 872.002 520.924 L 872.417 520.418 L 872.865 519.941 L 882.007 510.799 L 882.484 510.351 L 882.990 509.936 L 883.522 509.555 L 884.078 509.209 L 884.655 508.901 L 885.251 508.631 L 885.863 508.400 L 886.490 508.210 L 887.127 508.062 L 887.773 507.955 L 888.424 507.891 L 889.078 507.870 L 905.745 507.870 L 906.891 507.804 L 908.023 507.607 L 909.124 507.282 L 910.181 506.832 L 911.179 506.264 L 912.106 505.586 L 912.948 504.806 L 913.696 503.934 L 914.339 502.983 L 914.868 501.964 L 915.278 500.891 L 915.561 499.778 L 945.559 345.454 L 946.126 343.228 L 946.944 341.082 L 948.003 339.044 L 949.289 337.141 L 950.784 335.398 L 952.470 333.837 L 954.323 332.481 L 956.319 331.345 L 958.433 330.446 L 960.636 329.796 L 962.898 329.402 L 965.191 329.270 L 1094.509 329.270 L 1094.626 329.266 L 1094.742 329.256 L 1094.858 329.239 L 1094.972 329.215 L 1095.085 329.185 L 1095.196 329.148 L 1095.305 329.105 L 1095.411 329.055 L 1095.513 328.999 L 1095.613 328.938 L 1095.708 328.870 L 1095.800 328.798 L 1104.039 322.134 L 1112.556 315.828 L 1121.335 309.892 L 1130.359 304.336 L 1139.612 299.171 L 1149.078 294.405 L 1158.738 290.049 L 1168.576 286.109 L 1178.573 282.593 L 1188.711 279.508 L 1198.971 276.858 L 1209.336 274.649 L 1209.336 269.270 L 875.936 269.270 L 875.936 290.270 L 868.936 290.270 L 868.936 269.270 L 711.936 269.270 L 711.936 290.270 L 704.936 290.270 L 704.936 269.270 L 476.536 269.270 L 476.536 274.649 L 486.907 276.855 L 497.174 279.502 L 507.319 282.586 L 517.323 286.101 L 527.168 290.040 L 536.835 294.396 L 546.307 299.162 L 555.566 304.328 L 564.597 309.885 L 573.381 315.823 L 581.904 322.131 L 590.149 328.798 L 590.241 328.871 L 590.336 328.938 L 590.436 328.999 L 590.538 329.055 L 590.644 329.105 L 590.753 329.148 L 590.864 329.185 L 590.976 329.215 L 591.091 329.239 L 591.206 329.256 L 591.323 329.266 L 591.440 329.270 L 679.936 329.270 L 682.546 329.441 L 685.112 329.951 L 687.589 330.792 L 689.936 331.949 L 692.111 333.403 L 694.078 335.128 L 695.803 337.095 L 697.256 339.270 L 698.413 341.616 L 699.254 344.093 L 699.765 346.659 L 699.936 349.270 L 699.936 364.770 L 729.936 364.770 L 731.241 364.855 L 732.524 365.110 L 733.762 365.531 L 734.936 366.109 L 736.023 366.836 L 737.007 367.699 L 737.869 368.682 L 738.596 369.770 L 739.174 370.943 L 739.595 372.182 L 739.850 373.464 L 739.936 374.770 L 739.936 434.770 L 739.850 436.075 L 739.595 437.358 L 739.174 438.597 L 738.596 439.770 L 737.869 440.857 L 737.007 441.841 L 736.023 442.703 L 734.936 443.430 L 733.762 444.009 L 732.524 444.429 L 731.241 444.684 L 729.936 444.770 L 699.936 444.770 L 699.936 1129.568 L 699.920 1130.804 L 699.875 1132.040 L 699.798 1133.273 L 699.691 1134.505 L 699.554 1135.734 L 699.386 1136.959 L 699.189 1138.179 L 698.961 1139.394 L 698.703 1140.603 L 698.415 1141.805 L 698.098 1143.000 L 697.751 1144.187 L 577.120 1538.751 L 576.774 1539.938 L 576.456 1541.133 L 576.169 1542.335 L 575.911 1543.544 L 575.683 1544.759 L 575.485 1545.979 L 575.317 1547.204 L 575.180 1548.433 L 575.073 1549.664 L 574.997 1550.898 L 574.951 1552.134 L 574.936 1553.370 L 574.936 1687.573 L 575.911 1687.717 L 576.755 1688.228 L 577.336 1689.024 L 577.563 1689.984 L 577.402 1690.957 L 576.877 1691.791 L 576.071 1692.358 L 575.108 1692.569 L 574.138 1692.392 L 573.312 1691.853 L 572.759 1691.036 L 572.565 1690.070 L 518.565 1690.070 L 518.565 1693.470 L 518.577 1693.695 L 518.615 1693.917 L 518.678 1694.133 L 518.764 1694.341 L 518.874 1694.538 L 519.004 1694.721 L 519.155 1694.889 L 519.323 1695.038 L 519.508 1695.168 L 519.705 1695.276 L 519.914 1695.361 L 520.130 1695.422 L 527.716 1697.564 L 535.013 1700.544 L 541.929 1704.327 L 548.376 1708.863 L 554.271 1714.094 L 559.542 1719.956 L 564.119 1726.373 L 567.947 1733.264 L 570.975 1740.541 L 573.166 1748.113 L 574.492 1755.883 L 574.936 1763.753 L 574.936 2431.762 L 696.315 2759.988 L 696.413 2760.267 L 696.503 2760.548 L 696.585 2760.831 L 696.658 2761.117 L 696.723 2761.405 L 696.779 2761.695 L 696.827 2761.986 L 696.866 2762.279 L 696.896 2762.572 L 696.918 2762.867 L 696.931 2763.162 L 696.936 2763.457 L 696.936 2791.263 L 705.936 2791.263 L 705.936 2773.363 L 705.956 2772.718 L 706.019 2772.076 L 706.122 2771.439 L 706.267 2770.811 L 706.451 2770.193 L 706.676 2769.588 L 706.938 2768.999 L 707.238 2768.428 L 707.574 2767.877 L 707.946 2767.350 L 708.350 2766.847 L 708.786 2766.371 L 721.554 2754.360 L 735.280 2743.455 L 749.867 2733.733 L 765.215 2725.261 L 781.215 2718.099 L 797.757 2712.297 L 814.726 2707.894 L 832.002 2704.922 L 849.467 2703.401 L 866.997 2703.342 L 884.471 2704.746 L 901.767 2707.602 L 918.765 2711.891 L 935.345 2717.582 L 951.394 2724.636 L 966.798 2733.005 L 981.450 2742.629 L 982.738 2743.504 L 984.069 2744.311 L 985.441 2745.049 L 986.849 2745.714 L 988.289 2746.305 L 989.759 2746.820 L 991.253 2747.259 L 992.767 2747.619 L 994.299 2747.900 L 995.843 2748.102 L 997.395 2748.223 L 998.952 2748.263 L 1080.936 2748.263 L 1082.241 2748.178 L 1083.524 2747.923 L 1084.762 2747.502 L 1085.936 2746.924 L 1087.023 2746.197 L 1088.007 2745.334 L 1088.869 2744.351 L 1089.596 2743.263 L 1090.174 2742.090 L 1090.595 2740.852 L 1090.850 2739.569 L 1090.936 2738.263 L 1090.936 2720.414 L 1090.850 2719.109 L 1090.595 2717.826 L 1090.174 2716.587 L 1089.596 2715.414 L 1088.869 2714.326 L 1088.007 2713.343 L 1087.023 2712.480 L 1085.936 2711.754 L 1084.762 2711.175 L 1083.524 2710.755 L 1082.241 2710.499 L 1080.936 2710.414 L 1075.936 2710.414 L 1068.132 2709.645 L 1060.628 2707.369 L 1053.713 2703.673 L 1047.651 2698.698 L 1042.677 2692.637 L 1038.980 2685.721 L 1036.704 2678.217 L 1035.936 2670.414 L 1036.704 2662.610 L 1038.980 2655.106 L 1042.677 2648.191 L 1047.651 2642.130 L 1053.713 2637.155 L 1060.628 2633.459 L 1068.132 2631.182 L 1075.936 2630.414 L 1080.936 2630.414 L 1082.241 2630.328 L 1083.524 2630.073 L 1084.762 2629.653 L 1085.936 2629.074 L 1087.023 2628.347 L 1088.007 2627.485 L 1088.869 2626.501 L 1089.596 2625.414 L 1090.174 2624.241 L 1090.595 2623.002 L 1090.850 2621.719 L 1090.936 2620.414 L 1090.936 2600.414 L 1090.850 2599.109 L 1090.595 2597.826 L 1090.174 2596.587 L 1089.596 2595.414 L 1088.869 2594.326 L 1088.007 2593.343 L 1087.023 2592.480 L 1085.936 2591.754 L 1084.762 2591.175 L 1083.524 2590.755 L 1082.241 2590.499 L 1080.936 2590.414 L 1075.936 2590.414 L 1068.132 2589.645 L 1060.628 2587.369 L 1053.713 2583.673 L 1047.651 2578.698 L 1042.677 2572.637 L 1038.980 2565.721 L 1036.704 2558.217 L 1035.936 2550.414 L 1036.704 2542.610 L 1038.980 2535.106 L 1042.677 2528.191 L 1047.651 2522.130 L 1053.713 2517.155 L 1060.628 2513.459 L 1068.132 2511.182 L 1075.936 2510.414 L 1080.936 2510.414 L 1082.241 2510.328 L 1083.524 2510.073 L 1084.762 2509.653 L 1085.936 2509.074 L 1087.023 2508.347 L 1088.007 2507.485 L 1088.869 2506.501 L 1089.596 2505.414 L 1090.174 2504.241 L 1090.595 2503.002 L 1090.850 2501.719 L 1090.936 2500.414 L 1090.936 2475.270 L 1090.850 2473.964 L 1090.595 2472.682 L 1090.174 2471.443 L 1089.596 2470.270 L 1088.869 2469.182 L 1088.007 2468.199 L 1087.023 2467.336 L 1085.936 2466.609 L 1084.762 2466.031 L 1083.524 2465.610 L 1082.241 2465.355 L 1080.936 2465.270 L 874.936 2465.270 L 861.500 2464.515 L 848.233 2462.261 L 835.302 2458.536 L 822.870 2453.386 L 811.092 2446.877 L 800.117 2439.090 L 790.083 2430.123 L 781.116 2420.089 L 773.329 2409.114 L 766.819 2397.336 L 761.670 2384.903 L 757.944 2371.972 L 755.690 2358.705 L 754.936 2345.270 L 754.936 1988.409 L 749.053 1981.844 L 744.092 1974.558 L 740.140 1966.679 L 737.266 1958.345 L 735.521 1949.705 L 734.936 1940.909 L 735.521 1932.114 L 737.266 1923.473 L 740.140 1915.140 L 744.092 1907.261 L 749.053 1899.974 Z" fill="#f28e2b" fill-opacity="0.68" stroke="#1f2937" stroke-width="0.45" data-part-id="Lv8_11612_6db" data-instance-id="Lv8_11612_6db__0001" data-rotation-deg="270.000000"/>
  <path d="M 1215.973 1370.860 L 1215.973 1571.300 L 1215.971 1571.456 L 1215.963 1571.612 L 1215.951 1571.768 L 1215.934 1571.923 L 1215.912 1572.078 L 1215.886 1572.232 L 1215.854 1572.385 L 1215.818 1572.537 L 1215.777 1572.688 L 1215.731 1572.837 L 1215.681 1572.985 L 1215.626 1573.131 L 1193.637 1629.001 L 1196.550 1637.716 L 1198.338 1646.730 L 1198.972 1655.898 L 1198.440 1665.072 L 1196.752 1674.105 L 1193.936 1682.852 L 1190.035 1691.172 L 1185.113 1698.932 L 1179.249 1706.008 L 1172.538 1712.285 L 1165.086 1717.662 L 1157.014 1722.053 L 1124.521 1804.612 L 1122.468 1809.150 L 1119.974 1813.461 L 1117.064 1817.503 L 1113.766 1821.235 L 1110.112 1824.620 L 1106.141 1827.625 L 1101.890 1830.221 L 1097.401 1832.380 L 1092.721 1834.082 L 1087.894 1835.310 L 1082.969 1836.052 L 1077.994 1836.300 L 1007.973 1836.300 L 1006.668 1836.386 L 1005.385 1836.641 L 1004.146 1837.061 L 1002.973 1837.640 L 1001.886 1838.366 L 1000.902 1839.229 L 1000.040 1840.212 L 999.313 1841.300 L 998.734 1842.473 L 998.314 1843.712 L 998.059 1844.995 L 997.973 1846.300 L 997.973 2161.300 L 998.020 2162.269 L 998.161 2163.229 L 998.394 2164.171 L 998.717 2165.086 L 999.128 2165.965 L 999.622 2166.800 L 1000.194 2167.583 L 1000.839 2168.308 L 1001.552 2168.966 L 1002.325 2169.552 L 1003.152 2170.061 L 1004.023 2170.487 L 1060.723 2194.866 L 1065.082 2196.996 L 1069.213 2199.539 L 1073.079 2202.469 L 1076.642 2205.761 L 1079.870 2209.383 L 1082.732 2213.300 L 1085.200 2217.476 L 1087.252 2221.872 L 1088.869 2226.446 L 1090.034 2231.155 L 1090.738 2235.955 L 1090.973 2240.800 L 1090.973 2617.258 L 1090.995 2617.912 L 1091.059 2618.563 L 1091.165 2619.209 L 1091.314 2619.846 L 1091.504 2620.472 L 1091.734 2621.085 L 1092.005 2621.681 L 1092.313 2622.258 L 1092.659 2622.814 L 1093.040 2623.345 L 1093.455 2623.851 L 1093.902 2624.329 L 1098.044 2628.471 L 1098.492 2628.949 L 1098.907 2629.454 L 1099.288 2629.986 L 1099.634 2630.542 L 1099.942 2631.119 L 1100.212 2631.715 L 1100.443 2632.328 L 1100.633 2632.954 L 1100.781 2633.591 L 1100.888 2634.237 L 1100.952 2634.888 L 1100.973 2635.542 L 1100.973 2737.258 L 1100.952 2737.912 L 1100.888 2738.563 L 1100.781 2739.209 L 1100.633 2739.846 L 1100.443 2740.472 L 1100.212 2741.085 L 1099.942 2741.681 L 1099.634 2742.258 L 1099.288 2742.814 L 1098.907 2743.345 L 1098.492 2743.851 L 1098.044 2744.329 L 1088.902 2753.471 L 1088.425 2753.918 L 1087.919 2754.333 L 1087.387 2754.715 L 1086.831 2755.060 L 1086.254 2755.369 L 1085.658 2755.639 L 1085.046 2755.869 L 1084.419 2756.059 L 1083.782 2756.208 L 1083.136 2756.314 L 1082.485 2756.379 L 1081.831 2756.400 L 1065.164 2756.400 L 1064.018 2756.466 L 1062.886 2756.663 L 1061.785 2756.988 L 1060.728 2757.438 L 1059.730 2758.005 L 1058.803 2758.684 L 1057.960 2759.464 L 1057.213 2760.335 L 1056.570 2761.287 L 1056.040 2762.306 L 1055.631 2763.379 L 1055.348 2764.492 L 1025.350 2918.816 L 1024.783 2921.042 L 1023.965 2923.188 L 1022.906 2925.226 L 1021.620 2927.129 L 1020.125 2928.872 L 1018.439 2930.432 L 1016.586 2931.789 L 1014.589 2932.925 L 1012.476 2933.823 L 1010.273 2934.474 L 1008.011 2934.868 L 1005.718 2935.000 L 876.400 2935.000 L 876.283 2935.003 L 876.167 2935.014 L 876.051 2935.031 L 875.937 2935.054 L 875.824 2935.085 L 875.713 2935.122 L 875.604 2935.165 L 875.498 2935.215 L 875.396 2935.270 L 875.296 2935.332 L 875.201 2935.399 L 875.109 2935.472 L 866.870 2942.136 L 858.353 2948.442 L 849.574 2954.378 L 840.550 2959.934 L 831.297 2965.099 L 821.831 2969.864 L 812.171 2974.221 L 802.333 2978.161 L 792.336 2981.676 L 782.198 2984.762 L 771.938 2987.412 L 761.573 2989.621 L 761.573 2995.000 L 1094.973 2995.000 L 1094.973 2974.000 L 1101.973 2974.000 L 1101.973 2995.000 L 1258.973 2995.000 L 1258.973 2974.000 L 1265.973 2974.000 L 1265.973 2995.000 L 1494.373 2995.000 L 1494.373 2989.621 L 1484.002 2987.415 L 1473.735 2984.767 L 1463.590 2981.683 L 1453.586 2978.169 L 1443.741 2974.230 L 1434.074 2969.873 L 1424.602 2965.108 L 1415.343 2959.942 L 1406.312 2954.385 L 1397.528 2948.447 L 1389.005 2942.139 L 1380.760 2935.472 L 1380.668 2935.399 L 1380.573 2935.332 L 1380.473 2935.270 L 1380.371 2935.215 L 1380.265 2935.165 L 1380.156 2935.122 L 1380.045 2935.085 L 1379.932 2935.054 L 1379.818 2935.031 L 1379.702 2935.014 L 1379.586 2935.003 L 1379.469 2935.000 L 1290.973 2935.000 L 1288.363 2934.829 L 1285.797 2934.318 L 1283.320 2933.478 L 1280.973 2932.320 L 1278.798 2930.867 L 1276.831 2929.142 L 1275.106 2927.175 L 1273.653 2925.000 L 1272.496 2922.654 L 1271.655 2920.176 L 1271.144 2917.610 L 1270.973 2915.000 L 1270.973 2899.500 L 1240.973 2899.500 L 1239.668 2899.414 L 1238.385 2899.159 L 1237.146 2898.739 L 1235.973 2898.160 L 1234.886 2897.433 L 1233.902 2896.571 L 1233.040 2895.588 L 1232.313 2894.500 L 1231.734 2893.327 L 1231.314 2892.088 L 1231.059 2890.805 L 1230.973 2889.500 L 1230.973 2829.500 L 1231.059 2828.195 L 1231.314 2826.912 L 1231.734 2825.673 L 1232.313 2824.500 L 1233.040 2823.412 L 1233.902 2822.429 L 1234.886 2821.566 L 1235.973 2820.840 L 1237.146 2820.261 L 1238.385 2819.841 L 1239.668 2819.586 L 1240.973 2819.500 L 1270.973 2819.500 L 1270.973 2134.702 L 1270.989 2133.465 L 1271.034 2132.230 L 1271.111 2130.996 L 1271.218 2129.765 L 1271.355 2128.536 L 1271.522 2127.311 L 1271.720 2126.091 L 1271.948 2124.876 L 1272.206 2123.667 L 1272.494 2122.464 L 1272.811 2121.270 L 1273.158 2120.083 L 1393.788 1725.519 L 1394.135 1724.332 L 1394.453 1723.137 L 1394.740 1721.935 L 1394.998 1720.726 L 1395.226 1719.511 L 1395.424 1718.290 L 1395.592 1717.066 L 1395.729 1715.837 L 1395.836 1714.605 L 1395.912 1713.371 L 1395.958 1712.136 L 1395.973 1710.900 L 1395.973 1576.697 L 1394.998 1576.552 L 1394.154 1576.042 L 1393.573 1575.245 L 1393.346 1574.286 L 1393.507 1573.313 L 1394.032 1572.478 L 1394.838 1571.911 L 1395.801 1571.700 L 1396.771 1571.878 L 1397.597 1572.417 L 1398.150 1573.233 L 1398.344 1574.200 L 1452.344 1574.200 L 1452.344 1570.800 L 1452.332 1570.575 L 1452.294 1570.353 L 1452.231 1570.137 L 1452.145 1569.929 L 1452.035 1569.732 L 1451.904 1569.549 L 1451.754 1569.381 L 1451.585 1569.232 L 1451.401 1569.102 L 1451.204 1568.994 L 1450.995 1568.909 L 1450.778 1568.848 L 1443.193 1566.706 L 1435.895 1563.725 L 1428.980 1559.943 L 1422.533 1555.407 L 1416.637 1550.175 L 1411.367 1544.314 L 1406.789 1537.897 L 1402.962 1531.006 L 1399.934 1523.729 L 1397.743 1516.157 L 1396.417 1508.387 L 1395.973 1500.517 L 1395.973 832.508 L 1274.594 504.281 L 1274.496 504.003 L 1274.406 503.722 L 1274.324 503.438 L 1274.251 503.152 L 1274.186 502.864 L 1274.130 502.575 L 1274.082 502.283 L 1274.043 501.991 L 1274.012 501.697 L 1273.991 501.403 L 1273.978 501.108 L 1273.973 500.813 L 1273.973 473.006 L 1264.973 473.006 L 1264.973 490.907 L 1264.952 491.552 L 1264.890 492.194 L 1264.787 492.830 L 1264.642 493.459 L 1264.457 494.077 L 1264.233 494.682 L 1263.971 495.271 L 1263.671 495.842 L 1263.334 496.392 L 1262.963 496.920 L 1262.559 497.423 L 1262.123 497.898 L 1249.355 509.910 L 1235.629 520.815 L 1221.042 530.537 L 1205.694 539.009 L 1189.694 546.171 L 1173.152 551.973 L 1156.183 556.376 L 1138.907 559.348 L 1121.442 560.868 L 1103.912 560.927 L 1086.438 559.524 L 1069.142 556.668 L 1052.144 552.379 L 1035.564 546.688 L 1019.515 539.633 L 1004.111 531.265 L 989.459 521.641 L 988.171 520.765 L 986.840 519.958 L 985.468 519.221 L 984.060 518.556 L 982.620 517.965 L 981.150 517.450 L 979.656 517.011 L 978.141 516.651 L 976.610 516.369 L 975.066 516.168 L 973.514 516.047 L 971.957 516.006 L 889.973 516.006 L 888.668 516.092 L 887.385 516.347 L 886.146 516.768 L 884.973 517.346 L 883.886 518.073 L 882.902 518.935 L 882.040 519.919 L 881.313 521.006 L 880.734 522.179 L 880.314 523.418 L 880.059 524.701 L 879.973 526.006 L 879.973 543.856 L 880.059 545.161 L 880.314 546.444 L 880.734 547.683 L 881.313 548.856 L 882.040 549.944 L 882.902 550.927 L 883.886 551.789 L 884.973 552.516 L 886.146 553.095 L 887.385 553.515 L 888.668 553.770 L 889.973 553.856 L 894.973 553.856 L 902.777 554.624 L 910.281 556.901 L 917.196 560.597 L 923.258 565.572 L 928.232 571.633 L 931.928 578.549 L 934.205 586.052 L 934.973 593.856 L 934.205 601.660 L 931.928 609.163 L 928.232 616.079 L 923.258 622.140 L 917.196 627.115 L 910.281 630.811 L 902.777 633.087 L 894.973 633.856 L 889.973 633.856 L 888.668 633.941 L 887.385 634.197 L 886.146 634.617 L 884.973 635.196 L 883.886 635.922 L 882.902 636.785 L 882.040 637.768 L 881.313 638.856 L 880.734 640.029 L 880.314 641.268 L 880.059 642.551 L 879.973 643.856 L 879.973 663.856 L 880.059 665.161 L 880.314 666.444 L 880.734 667.683 L 881.313 668.856 L 882.040 669.944 L 882.902 670.927 L 883.886 671.789 L 884.973 672.516 L 886.146 673.095 L 887.385 673.515 L 888.668 673.770 L 889.973 673.856 L 894.973 673.856 L 902.777 674.624 L 910.281 676.901 L 917.196 680.597 L 923.258 685.572 L 928.232 691.633 L 931.928 698.549 L 934.205 706.052 L 934.973 713.856 L 934.205 721.660 L 931.928 729.163 L 928.232 736.079 L 923.258 742.140 L 917.196 747.115 L 910.281 750.811 L 902.777 753.087 L 894.973 753.856 L 889.973 753.856 L 888.668 753.941 L 887.385 754.197 L 886.146 754.617 L 884.973 755.196 L 883.886 755.922 L 882.902 756.785 L 882.040 757.768 L 881.313 758.856 L 880.734 760.029 L 880.314 761.268 L 880.059 762.551 L 879.973 763.856 L 879.973 789.000 L 880.059 790.305 L 880.314 791.588 L 880.734 792.827 L 881.313 794.000 L 882.040 795.088 L 882.902 796.071 L 883.886 796.933 L 884.973 797.660 L 886.146 798.239 L 887.385 798.659 L 888.668 798.914 L 889.973 799.000 L 1095.973 799.000 L 1109.409 799.754 L 1122.676 802.009 L 1135.607 805.734 L 1148.039 810.884 L 1159.817 817.393 L 1170.792 825.180 L 1180.826 834.147 L 1189.793 844.181 L 1197.580 855.156 L 1204.090 866.934 L 1209.239 879.366 L 1212.965 892.297 L 1215.219 905.564 L 1215.973 919.000 L 1215.973 1275.860 L 1221.856 1282.425 L 1226.817 1289.712 L 1230.769 1297.591 L 1233.643 1305.924 L 1235.388 1314.565 L 1235.973 1323.360 L 1235.388 1332.156 L 1233.643 1340.797 L 1230.769 1349.130 L 1226.817 1357.009 L 1221.856 1364.295 Z" fill="#f28e2b" fill-opacity="0.68" stroke="#1f2937" stroke-width="0.45" data-part-id="Lv8_11612_6db" data-instance-id="Lv8_11612_6db__0002" data-rotation-deg="90.000000"/>
  <path d="M 283.400 1992.745 L 283.400 1792.306 L 283.402 1792.149 L 283.410 1791.993 L 283.422 1791.838 L 283.439 1791.682 L 283.461 1791.528 L 283.488 1791.374 L 283.519 1791.221 L 283.555 1791.069 L 283.596 1790.918 L 283.642 1790.769 L 283.692 1790.621 L 283.747 1790.474 L 305.736 1734.605 L 302.823 1725.889 L 301.035 1716.875 L 300.402 1707.708 L 300.933 1698.534 L 302.621 1689.501 L 305.438 1680.754 L 309.338 1672.433 L 314.260 1664.673 L 320.124 1657.598 L 326.836 1651.321 L 334.288 1645.944 L 342.360 1641.552 L 374.853 1558.994 L 376.905 1554.456 L 379.399 1550.145 L 382.310 1546.103 L 385.608 1542.371 L 389.261 1538.985 L 393.233 1535.980 L 397.484 1533.385 L 401.972 1531.226 L 406.653 1529.523 L 411.479 1528.295 L 416.404 1527.554 L 421.379 1527.306 L 491.400 1527.306 L 492.705 1527.220 L 493.988 1526.965 L 495.227 1526.544 L 496.400 1525.966 L 497.488 1525.239 L 498.471 1524.377 L 499.334 1523.393 L 500.060 1522.306 L 500.639 1521.132 L 501.059 1519.894 L 501.314 1518.611 L 501.400 1517.306 L 501.400 1202.306 L 501.353 1201.336 L 501.212 1200.377 L 500.979 1199.435 L 500.656 1198.520 L 500.245 1197.641 L 499.752 1196.806 L 499.179 1196.022 L 498.534 1195.298 L 497.821 1194.639 L 497.048 1194.053 L 496.222 1193.545 L 495.350 1193.119 L 438.650 1168.740 L 434.292 1166.609 L 430.160 1164.067 L 426.294 1161.136 L 422.731 1157.844 L 419.503 1154.223 L 416.642 1150.305 L 414.173 1146.129 L 412.121 1141.734 L 410.505 1137.160 L 409.339 1132.451 L 408.635 1127.651 L 408.400 1122.806 L 408.400 746.348 L 408.379 745.694 L 408.314 745.042 L 408.208 744.397 L 408.059 743.759 L 407.869 743.133 L 407.639 742.521 L 407.369 741.925 L 407.060 741.348 L 406.715 740.792 L 406.334 740.260 L 405.918 739.754 L 405.471 739.277 L 401.329 735.134 L 400.882 734.657 L 400.467 734.151 L 400.085 733.619 L 399.740 733.063 L 399.431 732.486 L 399.161 731.890 L 398.931 731.278 L 398.741 730.652 L 398.592 730.014 L 398.486 729.369 L 398.421 728.717 L 398.400 728.063 L 398.400 626.348 L 398.421 625.694 L 398.486 625.042 L 398.592 624.397 L 398.741 623.759 L 398.931 623.133 L 399.161 622.521 L 399.431 621.925 L 399.740 621.348 L 400.085 620.792 L 400.467 620.260 L 400.882 619.754 L 401.329 619.277 L 410.471 610.134 L 410.949 609.687 L 411.455 609.272 L 411.986 608.891 L 412.542 608.545 L 413.119 608.237 L 413.715 607.967 L 414.328 607.736 L 414.954 607.546 L 415.591 607.398 L 416.237 607.291 L 416.888 607.227 L 417.542 607.206 L 434.209 607.206 L 435.356 607.140 L 436.487 606.943 L 437.588 606.617 L 438.645 606.168 L 439.643 605.600 L 440.570 604.922 L 441.413 604.142 L 442.161 603.270 L 442.803 602.318 L 443.333 601.299 L 443.742 600.226 L 444.026 599.114 L 474.023 444.789 L 474.590 442.564 L 475.409 440.418 L 476.468 438.380 L 477.753 436.477 L 479.249 434.733 L 480.934 433.173 L 482.787 431.816 L 484.784 430.681 L 486.897 429.782 L 489.100 429.131 L 491.363 428.737 L 493.656 428.606 L 622.973 428.606 L 623.090 428.602 L 623.207 428.592 L 623.322 428.575 L 623.437 428.551 L 623.550 428.521 L 623.661 428.484 L 623.769 428.440 L 623.875 428.391 L 623.978 428.335 L 624.077 428.274 L 624.173 428.206 L 624.264 428.133 L 632.504 421.469 L 641.021 415.164 L 649.799 409.227 L 658.823 403.672 L 668.076 398.506 L 677.542 393.741 L 687.202 389.385 L 697.040 385.445 L 707.037 381.929 L 717.175 378.843 L 727.436 376.194 L 737.800 373.985 L 737.800 368.606 L 404.400 368.606 L 404.400 389.606 L 397.400 389.606 L 397.400 368.606 L 240.400 368.606 L 240.400 389.606 L 233.400 389.606 L 233.400 368.606 L 5.000 368.606 L 5.000 373.985 L 15.371 376.191 L 25.639 378.838 L 35.784 381.922 L 45.787 385.437 L 55.632 389.376 L 65.299 393.732 L 74.771 398.498 L 84.031 403.664 L 93.061 409.221 L 101.846 415.159 L 110.368 421.467 L 118.614 428.134 L 118.705 428.206 L 118.801 428.274 L 118.900 428.335 L 119.003 428.391 L 119.109 428.441 L 119.217 428.484 L 119.328 428.521 L 119.441 428.551 L 119.555 428.575 L 119.671 428.592 L 119.787 428.602 L 119.904 428.606 L 208.400 428.606 L 211.011 428.777 L 213.576 429.287 L 216.054 430.128 L 218.400 431.285 L 220.575 432.738 L 222.542 434.463 L 224.267 436.430 L 225.721 438.606 L 226.878 440.952 L 227.719 443.429 L 228.229 445.995 L 228.400 448.606 L 228.400 464.106 L 258.400 464.106 L 259.705 464.191 L 260.988 464.446 L 262.227 464.867 L 263.400 465.445 L 264.488 466.172 L 265.471 467.034 L 266.334 468.018 L 267.060 469.106 L 267.639 470.279 L 268.059 471.517 L 268.314 472.800 L 268.400 474.106 L 268.400 534.106 L 268.314 535.411 L 268.059 536.694 L 267.639 537.932 L 267.060 539.106 L 266.334 540.193 L 265.471 541.177 L 264.488 542.039 L 263.400 542.766 L 262.227 543.344 L 260.988 543.765 L 259.705 544.020 L 258.400 544.106 L 228.400 544.106 L 228.400 1228.904 L 228.385 1230.140 L 228.339 1231.375 L 228.263 1232.609 L 228.156 1233.841 L 228.018 1235.070 L 227.851 1236.294 L 227.653 1237.515 L 227.425 1238.730 L 227.167 1239.939 L 226.879 1241.141 L 226.562 1242.336 L 226.215 1243.522 L 105.585 1638.087 L 105.238 1639.274 L 104.921 1640.468 L 104.633 1641.671 L 104.375 1642.880 L 104.147 1644.095 L 103.949 1645.315 L 103.782 1646.540 L 103.644 1647.769 L 103.538 1649.000 L 103.461 1650.234 L 103.415 1651.469 L 103.400 1652.706 L 103.400 1786.909 L 104.375 1787.053 L 105.219 1787.563 L 105.800 1788.360 L 106.028 1789.320 L 105.866 1790.292 L 105.342 1791.127 L 104.535 1791.694 L 103.572 1791.905 L 102.602 1791.727 L 101.776 1791.188 L 101.223 1790.372 L 101.029 1789.406 L 47.029 1789.406 L 47.029 1792.806 L 47.042 1793.030 L 47.080 1793.252 L 47.142 1793.469 L 47.229 1793.677 L 47.338 1793.874 L 47.469 1794.057 L 47.619 1794.224 L 47.788 1794.374 L 47.972 1794.503 L 48.170 1794.612 L 48.378 1794.697 L 48.595 1794.758 L 56.181 1796.899 L 63.478 1799.880 L 70.394 1803.663 L 76.840 1808.198 L 82.736 1813.430 L 88.006 1819.292 L 92.584 1825.709 L 96.411 1832.600 L 99.440 1839.877 L 101.630 1847.449 L 102.956 1855.219 L 103.400 1863.089 L 103.400 2531.098 L 224.779 2859.324 L 224.878 2859.602 L 224.968 2859.884 L 225.049 2860.167 L 225.123 2860.453 L 225.187 2860.741 L 225.244 2861.031 L 225.291 2861.322 L 225.330 2861.615 L 225.361 2861.908 L 225.383 2862.203 L 225.396 2862.497 L 225.400 2862.793 L 225.400 2890.599 L 234.400 2890.599 L 234.400 2872.699 L 234.421 2872.054 L 234.483 2871.412 L 234.587 2870.775 L 234.731 2870.146 L 234.916 2869.528 L 235.140 2868.924 L 235.403 2868.334 L 235.703 2867.763 L 236.039 2867.213 L 236.410 2866.685 L 236.814 2866.183 L 237.250 2865.707 L 250.018 2853.696 L 263.744 2842.791 L 278.332 2833.069 L 293.679 2824.597 L 309.680 2817.435 L 326.222 2811.632 L 343.190 2807.230 L 360.467 2804.258 L 377.931 2802.737 L 395.461 2802.678 L 412.935 2804.082 L 430.231 2806.938 L 447.229 2811.226 L 463.810 2816.918 L 479.858 2823.972 L 495.262 2832.341 L 509.914 2841.965 L 511.202 2842.840 L 512.534 2843.647 L 513.905 2844.384 L 515.313 2845.049 L 516.754 2845.640 L 518.223 2846.156 L 519.717 2846.594 L 521.232 2846.955 L 522.763 2847.236 L 524.307 2847.438 L 525.860 2847.559 L 527.416 2847.599 L 609.400 2847.599 L 610.705 2847.514 L 611.988 2847.258 L 613.227 2846.838 L 614.400 2846.259 L 615.488 2845.533 L 616.471 2844.670 L 617.334 2843.687 L 618.060 2842.599 L 618.639 2841.426 L 619.059 2840.187 L 619.314 2838.904 L 619.400 2837.599 L 619.400 2819.750 L 619.314 2818.444 L 619.059 2817.161 L 618.639 2815.923 L 618.060 2814.750 L 617.334 2813.662 L 616.471 2812.679 L 615.488 2811.816 L 614.400 2811.089 L 613.227 2810.511 L 611.988 2810.090 L 610.705 2809.835 L 609.400 2809.750 L 604.400 2809.750 L 596.596 2808.981 L 589.093 2806.705 L 582.177 2803.008 L 576.116 2798.034 L 571.141 2791.972 L 567.445 2785.057 L 565.169 2777.553 L 564.400 2769.750 L 565.169 2761.946 L 567.445 2754.442 L 571.141 2747.527 L 576.116 2741.465 L 582.177 2736.491 L 589.093 2732.794 L 596.596 2730.518 L 604.400 2729.750 L 609.400 2729.750 L 610.705 2729.664 L 611.988 2729.409 L 613.227 2728.988 L 614.400 2728.410 L 615.488 2727.683 L 616.471 2726.821 L 617.334 2725.837 L 618.060 2724.750 L 618.639 2723.576 L 619.059 2722.338 L 619.314 2721.055 L 619.400 2719.750 L 619.400 2699.750 L 619.314 2698.444 L 619.059 2697.161 L 618.639 2695.923 L 618.060 2694.750 L 617.334 2693.662 L 616.471 2692.679 L 615.488 2691.816 L 614.400 2691.089 L 613.227 2690.511 L 611.988 2690.090 L 610.705 2689.835 L 609.400 2689.750 L 604.400 2689.750 L 596.596 2688.981 L 589.093 2686.705 L 582.177 2683.008 L 576.116 2678.034 L 571.141 2671.972 L 567.445 2665.057 L 565.169 2657.553 L 564.400 2649.750 L 565.169 2641.946 L 567.445 2634.442 L 571.141 2627.527 L 576.116 2621.465 L 582.177 2616.491 L 589.093 2612.794 L 596.596 2610.518 L 604.400 2609.750 L 609.400 2609.750 L 610.705 2609.664 L 611.988 2609.409 L 613.227 2608.988 L 614.400 2608.410 L 615.488 2607.683 L 616.471 2606.821 L 617.334 2605.837 L 618.060 2604.750 L 618.639 2603.576 L 619.059 2602.338 L 619.314 2601.055 L 619.400 2599.750 L 619.400 2574.606 L 619.314 2573.300 L 619.059 2572.017 L 618.639 2570.779 L 618.060 2569.606 L 617.334 2568.518 L 616.471 2567.534 L 615.488 2566.672 L 614.400 2565.945 L 613.227 2565.367 L 611.988 2564.946 L 610.705 2564.691 L 609.400 2564.606 L 403.400 2564.606 L 389.964 2563.851 L 376.698 2561.597 L 363.767 2557.872 L 351.334 2552.722 L 339.556 2546.212 L 328.581 2538.425 L 318.547 2529.458 L 309.580 2519.424 L 301.793 2508.449 L 295.284 2496.672 L 290.134 2484.239 L 286.409 2471.308 L 284.155 2458.041 L 283.400 2444.606 L 283.400 2087.745 L 277.518 2081.180 L 272.556 2073.894 L 268.604 2066.014 L 265.730 2057.681 L 263.985 2049.041 L 263.400 2040.245 L 263.985 2031.449 L 265.730 2022.809 L 268.604 2014.476 L 272.556 2006.596 L 277.518 1999.310 Z" fill="#f28e2b" fill-opacity="0.68" stroke="#1f2937" stroke-width="0.45" data-part-id="Lv8_11612_6db" data-instance-id="Lv8_11612_6db__0005" data-rotation-deg="270.000000"/>
  <text x="8" y="28" font-family="Arial, sans-serif" font-size="26" fill="#111827">6big_sp0_builderon sheet 0 placed=3</text>
</svg>
