<svg xmlns="http://www.w3.org/2000/svg" width="1500.00mm" height="3000.00mm" viewBox="0 0 1500.0000 3000.0000">
  <!-- 6big_sp0_builderon sheet 1 rendered from solver output placements and input outer_points -->
  <rect width="1500.0000" height="3000.0000" fill="#ffffff" stroke="#111827" stroke-width="2"/>
  <rect x="5.0000" y="5.0000" width="1490.0000" height="2990.0000" fill="none" stroke="#dc2626" stroke-width="1.5" stroke-dasharray="8,6"/>
  <path d="M 283.400 2059.220 L 283.400 1858.780 L 283.402 1858.624 L 283.410 1858.468 L 283.422 1858.312 L 283.439 1858.157 L 283.461 1858.002 L 283.488 1857.849 L 283.519 1857.696 L 283.555 1857.544 L 283.596 1857.393 L 283.642 1857.243 L 283.692 1857.096 L 283.747 1856.949 L 305.736 1801.079 L 302.823 1792.364 L 301.035 1783.350 L 300.402 1774.183 L 300.933 1765.009 L 302.621 1755.976 L 305.438 1747.229 L 309.338 1738.908 L 314.260 1731.148 L 320.124 1724.073 L 326.836 1717.796 L 334.288 1712.419 L 342.360 1708.027 L 374.853 1625.469 L 376.905 1620.931 L 379.399 1616.620 L 382.310 1612.578 L 385.608 1608.846 L 389.261 1605.460 L 393.233 1602.455 L 397.484 1599.860 L 401.972 1597.700 L 406.653 1595.998 L 411.479 1594.770 L 416.404 1594.029 L 421.379 1593.780 L 491.400 1593.780 L 492.705 1593.695 L 493.988 1593.440 L 495.227 1593.019 L 496.400 1592.441 L 497.488 1591.714 L 498.471 1590.852 L 499.334 1589.868 L 500.060 1588.780 L 500.639 1587.607 L 501.059 1586.369 L 501.314 1585.086 L 501.400 1583.780 L 501.400 1268.780 L 501.353 1267.811 L 501.212 1266.851 L 500.979 1265.910 L 500.656 1264.995 L 500.245 1264.116 L 499.752 1263.280 L 499.179 1262.497 L 498.534 1261.773 L 497.821 1261.114 L 497.048 1260.528 L 496.222 1260.020 L 495.350 1259.594 L 438.650 1235.214 L 434.292 1233.084 L 430.160 1230.542 L 426.294 1227.611 L 422.731 1224.319 L 419.503 1220.698 L 416.642 1216.780 L 414.173 1212.604 L 412.121 1208.209 L 410.505 1203.635 L 409.339 1198.926 L 408.635 1194.126 L 408.400 1189.280 L 408.400 812.823 L 408.379 812.169 L 408.314 811.517 L 408.208 810.872 L 408.059 810.234 L 407.869 809.608 L 407.639 808.996 L 407.369 808.400 L 407.060 807.823 L 406.715 807.267 L 406.334 806.735 L 405.918 806.229 L 405.471 805.752 L 401.329 801.609 L 400.882 801.132 L 400.467 800.626 L 400.085 800.094 L 399.740 799.538 L 399.431 798.961 L 399.161 798.365 L 398.931 797.753 L 398.741 797.127 L 398.592 796.489 L 398.486 795.844 L 398.421 795.192 L 398.400 794.538 L 398.400 692.823 L 398.421 692.169 L 398.486 691.517 L 398.592 690.872 L 398.741 690.234 L 398.931 689.608 L 399.161 688.996 L 399.431 688.400 L 399.740 687.823 L 400.085 687.267 L 400.467 686.735 L 400.882 686.229 L 401.329 685.752 L 410.471 676.609 L 410.949 676.162 L 411.455 675.747 L 411.986 675.366 L 412.542 675.020 L 413.119 674.712 L 413.715 674.442 L 414.328 674.211 L 414.954 674.021 L 415.591 673.873 L 416.237 673.766 L 416.888 673.702 L 417.542 673.680 L 434.209 673.680 L 435.356 673.615 L 436.487 673.418 L 437.588 673.092 L 438.645 672.643 L 439.643 672.075 L 440.570 671.397 L 441.413 670.617 L 442.161 669.745 L 442.803 668.793 L 443.333 667.774 L 443.742 666.701 L 444.026 665.589 L 474.023 511.264 L 474.590 509.039 L 475.409 506.893 L 476.468 504.855 L 477.753 502.951 L 479.249 501.208 L 480.934 499.648 L 482.787 498.291 L 484.784 497.156 L 486.897 496.257 L 489.100 495.606 L 491.363 495.212 L 493.656 495.080 L 622.973 495.080 L 623.090 495.077 L 623.207 495.067 L 623.322 495.050 L 623.437 495.026 L 623.550 494.996 L 623.661 494.959 L 623.769 494.915 L 623.875 494.866 L 623.978 494.810 L 624.077 494.748 L 624.173 494.681 L 624.264 494.608 L 632.504 487.944 L 641.021 481.639 L 649.799 475.702 L 658.823 470.146 L 668.076 464.981 L 677.542 460.216 L 687.202 455.860 L 697.040 451.920 L 707.037 448.404 L 717.175 445.318 L 727.436 442.669 L 737.800 440.460 L 737.800 435.080 L 404.400 435.080 L 404.400 456.080 L 397.400 456.080 L 397.400 435.080 L 240.400 435.080 L 240.400 456.080 L 233.400 456.080 L 233.400 435.080 L 5.000 435.080 L 5.000 440.460 L 15.371 442.666 L 25.639 445.313 L 35.784 448.397 L 45.787 451.912 L 55.632 455.851 L 65.299 460.207 L 74.771 464.972 L 84.031 470.139 L 93.061 475.696 L 101.846 481.634 L 110.368 487.942 L 118.614 494.608 L 118.705 494.681 L 118.801 494.749 L 118.900 494.810 L 119.003 494.866 L 119.109 494.915 L 119.217 494.959 L 119.328 494.996 L 119.441 495.026 L 119.555 495.050 L 119.671 495.067 L 119.787 495.077 L 119.904 495.080 L 208.400 495.080 L 211.011 495.252 L 213.576 495.762 L 216.054 496.603 L 218.400 497.760 L 220.575 499.213 L 222.542 500.938 L 224.267 502.905 L 225.721 505.080 L 226.878 507.427 L 227.719 509.904 L 228.229 512.470 L 228.400 515.080 L 228.400 530.580 L 258.400 530.580 L 259.705 530.666 L 260.988 530.921 L 262.227 531.342 L 263.400 531.920 L 264.488 532.647 L 265.471 533.509 L 266.334 534.493 L 267.060 535.580 L 267.639 536.754 L 268.059 537.992 L 268.314 539.275 L 268.400 540.580 L 268.400 600.580 L 268.314 601.886 L 268.059 603.169 L 267.639 604.407 L 267.060 605.580 L 266.334 606.668 L 265.471 607.652 L 264.488 608.514 L 263.400 609.241 L 262.227 609.819 L 260.988 610.240 L 259.705 610.495 L 258.400 610.580 L 228.400 610.580 L 228.400 1295.379 L 228.385 1296.615 L 228.339 1297.850 L 228.263 1299.084 L 228.156 1300.316 L 228.018 1301.544 L 227.851 1302.769 L 227.653 1303.990 L 227.425 1305.205 L 227.167 1306.414 L 226.879 1307.616 L 226.562 1308.811 L 226.215 1309.997 L 105.585 1704.562 L 105.238 1705.748 L 104.921 1706.943 L 104.633 1708.146 L 104.375 1709.355 L 104.147 1710.570 L 103.949 1711.790 L 103.782 1713.015 L 103.644 1714.243 L 103.538 1715.475 L 103.461 1716.709 L 103.415 1717.944 L 103.400 1719.180 L 103.400 1853.384 L 104.375 1853.528 L 105.219 1854.038 L 105.800 1854.835 L 106.028 1855.794 L 105.866 1856.767 L 105.342 1857.602 L 104.535 1858.169 L 103.572 1858.380 L 102.602 1858.202 L 101.776 1857.663 L 101.223 1856.847 L 101.029 1855.880 L 47.029 1855.880 L 47.029 1859.280 L 47.042 1859.505 L 47.080 1859.727 L 47.142 1859.944 L 47.229 1860.152 L 47.338 1860.348 L 47.469 1860.532 L 47.619 1860.699 L 47.788 1860.849 L 47.972 1860.978 L 48.170 1861.086 L 48.378 1861.172 L 48.595 1861.233 L 56.181 1863.374 L 63.478 1866.355 L 70.394 1870.137 L 76.840 1874.673 L 82.736 1879.905 L 88.006 1885.767 L 92.584 1892.184 L 96.411 1899.074 L 99.440 1906.352 L 101.630 1913.924 L 102.956 1921.694 L 103.400 1929.564 L 103.400 2597.572 L 224.779 2925.799 L 224.878 2926.077 L 224.968 2926.358 L 225.049 2926.642 L 225.123 2926.928 L 225.187 2927.216 L 225.244 2927.506 L 225.291 2927.797 L 225.330 2928.090 L 225.361 2928.383 L 225.383 2928.678 L 225.396 2928.972 L 225.400 2929.268 L 225.400 2957.074 L 234.400 2957.074 L 234.400 2939.173 L 234.421 2938.529 L 234.483 2937.887 L 234.587 2937.250 L 234.731 2936.621 L 234.916 2936.003 L 235.140 2935.399 L 235.403 2934.809 L 235.703 2934.238 L 236.039 2933.688 L 236.410 2933.160 L 236.814 2932.658 L 237.250 2932.182 L 250.018 2920.170 L 263.744 2909.266 L 278.332 2899.543 L 293.679 2891.072 L 309.680 2883.910 L 326.222 2878.107 L 343.190 2873.705 L 360.467 2870.733 L 377.931 2869.212 L 395.461 2869.153 L 412.935 2870.557 L 430.231 2873.413 L 447.229 2877.701 L 463.810 2883.393 L 479.858 2890.447 L 495.262 2898.816 L 509.914 2908.440 L 511.202 2909.315 L 512.534 2910.122 L 513.905 2910.859 L 515.313 2911.524 L 516.754 2912.115 L 518.223 2912.631 L 519.717 2913.069 L 521.232 2913.430 L 522.763 2913.711 L 524.307 2913.913 L 525.860 2914.034 L 527.416 2914.074 L 609.400 2914.074 L 610.705 2913.989 L 611.988 2913.733 L 613.227 2913.313 L 614.400 2912.734 L 615.488 2912.008 L 616.471 2911.145 L 617.334 2910.162 L 618.060 2909.074 L 618.639 2907.901 L 619.059 2906.662 L 619.314 2905.379 L 619.400 2904.074 L 619.400 2886.225 L 619.314 2884.919 L 619.059 2883.636 L 618.639 2882.398 L 618.060 2881.225 L 617.334 2880.137 L 616.471 2879.153 L 615.488 2878.291 L 614.400 2877.564 L 613.227 2876.986 L 611.988 2876.565 L 610.705 2876.310 L 609.400 2876.225 L 604.400 2876.225 L 596.596 2875.456 L 589.093 2873.180 L 582.177 2869.483 L 576.116 2864.509 L 571.141 2858.447 L 567.445 2851.532 L 565.169 2844.028 L 564.400 2836.225 L 565.169 2828.421 L 567.445 2820.917 L 571.141 2814.002 L 576.116 2807.940 L 582.177 2802.966 L 589.093 2799.269 L 596.596 2796.993 L 604.400 2796.225 L 609.400 2796.225 L 610.705 2796.139 L 611.988 2795.884 L 613.227 2795.463 L 614.400 2794.885 L 615.488 2794.158 L 616.471 2793.296 L 617.334 2792.312 L 618.060 2791.225 L 618.639 2790.051 L 619.059 2788.813 L 619.314 2787.530 L 619.400 2786.225 L 619.400 2766.225 L 619.314 2764.919 L 619.059 2763.636 L 618.639 2762.398 L 618.060 2761.225 L 617.334 2760.137 L 616.471 2759.153 L 615.488 2758.291 L 614.400 2757.564 L 613.227 2756.986 L 611.988 2756.565 L 610.705 2756.310 L 609.400 2756.225 L 604.400 2756.225 L 596.596 2755.456 L 589.093 2753.180 L 582.177 2749.483 L 576.116 2744.509 L 571.141 2738.447 L 567.445 2731.532 L 565.169 2724.028 L 564.400 2716.225 L 565.169 2708.421 L 567.445 2700.917 L 571.141 2694.002 L 576.116 2687.940 L 582.177 2682.966 L 589.093 2679.269 L 596.596 2676.993 L 604.400 2676.225 L 609.400 2676.225 L 610.705 2676.139 L 611.988 2675.884 L 613.227 2675.463 L 614.400 2674.885 L 615.488 2674.158 L 616.471 2673.296 L 617.334 2672.312 L 618.060 2671.225 L 618.639 2670.051 L 619.059 2668.813 L 619.314 2667.530 L 619.400 2666.225 L 619.400 2641.080 L 619.314 2639.775 L 619.059 2638.492 L 618.639 2637.254 L 618.060 2636.080 L 617.334 2634.993 L 616.471 2634.009 L 615.488 2633.147 L 614.400 2632.420 L 613.227 2631.842 L 611.988 2631.421 L 610.705 2631.166 L 609.400 2631.080 L 403.400 2631.080 L 389.964 2630.326 L 376.698 2628.072 L 363.767 2624.346 L 351.334 2619.197 L 339.556 2612.687 L 328.581 2604.900 L 318.547 2595.933 L 309.580 2585.899 L 301.793 2574.924 L 295.284 2563.146 L 290.134 2550.714 L 286.409 2537.783 L 284.155 2524.516 L 283.400 2511.080 L 283.400 2154.220 L 277.518 2147.655 L 272.556 2140.369 L 268.604 2132.489 L 265.730 2124.156 L 263.985 2115.515 L 263.400 2106.720 L 263.985 2097.924 L 265.730 2089.284 L 268.604 2080.951 L 272.556 2073.071 L 277.518 2065.785 Z" fill="#f28e2b" fill-opacity="0.68" stroke="#1f2937" stroke-width="0.45" data-part-id="Lv8_11612_6db" data-instance-id="Lv8_11612_6db__0003" data-rotation-deg="270.000000"/>
  <path d="M 1213.157 1370.860 L 1213.157 1571.300 L 1213.154 1571.456 L 1213.147 1571.612 L 1213.135 1571.768 L 1213.118 1571.923 L 1213.096 1572.078 L 1213.069 1572.232 L 1213.038 1572.385 L 1213.001 1572.537 L 1212.960 1572.688 L 1212.915 1572.837 L 1212.864 1572.985 L 1212.809 1573.131 L 1190.820 1629.001 L 1193.734 1637.716 L 1195.522 1646.730 L 1196.155 1655.898 L 1195.624 1665.072 L 1193.936 1674.105 L 1191.119 1682.852 L 1187.219 1691.172 L 1182.297 1698.932 L 1176.433 1706.008 L 1169.721 1712.285 L 1162.269 1717.662 L 1154.197 1722.053 L 1121.704 1804.612 L 1119.652 1809.150 L 1117.158 1813.461 L 1114.247 1817.503 L 1110.949 1821.235 L 1107.296 1824.620 L 1103.324 1827.625 L 1099.073 1830.221 L 1094.585 1832.380 L 1089.904 1834.082 L 1085.078 1835.310 L 1080.152 1836.052 L 1075.178 1836.300 L 1005.157 1836.300 L 1003.852 1836.386 L 1002.569 1836.641 L 1001.330 1837.061 L 1000.157 1837.640 L 999.069 1838.366 L 998.086 1839.229 L 997.223 1840.212 L 996.497 1841.300 L 995.918 1842.473 L 995.498 1843.712 L 995.242 1844.995 L 995.157 1846.300 L 995.157 2161.300 L 995.204 2162.269 L 995.345 2163.229 L 995.578 2164.171 L 995.901 2165.086 L 996.312 2165.965 L 996.805 2166.800 L 997.377 2167.583 L 998.023 2168.308 L 998.736 2168.966 L 999.509 2169.552 L 1000.335 2170.061 L 1001.207 2170.487 L 1057.907 2194.866 L 1062.265 2196.996 L 1066.397 2199.539 L 1070.263 2202.469 L 1073.826 2205.761 L 1077.054 2209.383 L 1079.915 2213.300 L 1082.384 2217.476 L 1084.436 2221.872 L 1086.052 2226.446 L 1087.218 2231.155 L 1087.922 2235.955 L 1088.157 2240.800 L 1088.157 2617.258 L 1088.178 2617.912 L 1088.242 2618.563 L 1088.349 2619.209 L 1088.498 2619.846 L 1088.688 2620.472 L 1088.918 2621.085 L 1089.188 2621.681 L 1089.497 2622.258 L 1089.842 2622.814 L 1090.223 2623.345 L 1090.638 2623.851 L 1091.086 2624.329 L 1095.228 2628.471 L 1095.675 2628.949 L 1096.090 2629.454 L 1096.472 2629.986 L 1096.817 2630.542 L 1097.126 2631.119 L 1097.396 2631.715 L 1097.626 2632.328 L 1097.816 2632.954 L 1097.965 2633.591 L 1098.071 2634.237 L 1098.135 2634.888 L 1098.157 2635.542 L 1098.157 2737.258 L 1098.135 2737.912 L 1098.071 2738.563 L 1097.965 2739.209 L 1097.816 2739.846 L 1097.626 2740.472 L 1097.396 2741.085 L 1097.126 2741.681 L 1096.817 2742.258 L 1096.472 2742.814 L 1096.090 2743.345 L 1095.675 2743.851 L 1095.228 2744.329 L 1086.086 2753.471 L 1085.608 2753.918 L 1085.102 2754.333 L 1084.570 2754.715 L 1084.015 2755.060 L 1083.438 2755.369 L 1082.842 2755.639 L 1082.229 2755.869 L 1081.603 2756.059 L 1080.966 2756.208 L 1080.320 2756.314 L 1079.669 2756.379 L 1079.015 2756.400 L 1062.348 2756.400 L 1061.201 2756.466 L 1060.070 2756.663 L 1058.968 2756.988 L 1057.912 2757.438 L 1056.913 2758.005 L 1055.987 2758.684 L 1055.144 2759.464 L 1054.396 2760.335 L 1053.754 2761.287 L 1053.224 2762.306 L 1052.815 2763.379 L 1052.531 2764.492 L 1022.534 2918.816 L 1021.967 2921.042 L 1021.148 2923.188 L 1020.089 2925.226 L 1018.804 2927.129 L 1017.308 2928.872 L 1015.623 2930.432 L 1013.770 2931.789 L 1011.773 2932.925 L 1009.660 2933.823 L 1007.457 2934.474 L 1005.194 2934.868 L 1002.901 2935.000 L 873.583 2935.000 L 873.467 2935.003 L 873.350 2935.014 L 873.235 2935.031 L 873.120 2935.054 L 873.007 2935.085 L 872.896 2935.122 L 872.788 2935.165 L 872.682 2935.215 L 872.579 2935.270 L 872.480 2935.332 L 872.384 2935.399 L 872.293 2935.472 L 864.053 2942.136 L 855.536 2948.442 L 846.758 2954.378 L 837.734 2959.934 L 828.480 2965.099 L 819.015 2969.864 L 809.355 2974.221 L 799.517 2978.161 L 789.520 2981.676 L 779.382 2984.762 L 769.121 2987.412 L 758.757 2989.621 L 758.757 2995.000 L 1092.157 2995.000 L 1092.157 2974.000 L 1099.157 2974.000 L 1099.157 2995.000 L 1256.157 2995.000 L 1256.157 2974.000 L 1263.157 2974.000 L 1263.157 2995.000 L 1491.557 2995.000 L 1491.557 2989.621 L 1481.186 2987.415 L 1470.918 2984.767 L 1460.773 2981.683 L 1450.769 2978.169 L 1440.925 2974.230 L 1431.258 2969.873 L 1421.786 2965.108 L 1412.526 2959.942 L 1403.496 2954.385 L 1394.711 2948.447 L 1386.189 2942.139 L 1377.943 2935.472 L 1377.852 2935.399 L 1377.756 2935.332 L 1377.657 2935.270 L 1377.554 2935.215 L 1377.448 2935.165 L 1377.340 2935.122 L 1377.229 2935.085 L 1377.116 2935.054 L 1377.002 2935.031 L 1376.886 2935.014 L 1376.770 2935.003 L 1376.653 2935.000 L 1288.157 2935.000 L 1285.546 2934.829 L 1282.980 2934.318 L 1280.503 2933.478 L 1278.157 2932.320 L 1275.982 2930.867 L 1274.015 2929.142 L 1272.290 2927.175 L 1270.836 2925.000 L 1269.679 2922.654 L 1268.838 2920.176 L 1268.328 2917.610 L 1268.157 2915.000 L 1268.157 2899.500 L 1238.157 2899.500 L 1236.852 2899.414 L 1235.569 2899.159 L 1234.330 2898.739 L 1233.157 2898.160 L 1232.069 2897.433 L 1231.086 2896.571 L 1230.223 2895.588 L 1229.497 2894.500 L 1228.918 2893.327 L 1228.498 2892.088 L 1228.242 2890.805 L 1228.157 2889.500 L 1228.157 2829.500 L 1228.242 2828.195 L 1228.498 2826.912 L 1228.918 2825.673 L 1229.497 2824.500 L 1230.223 2823.412 L 1231.086 2822.429 L 1232.069 2821.566 L 1233.157 2820.840 L 1234.330 2820.261 L 1235.569 2819.841 L 1236.852 2819.586 L 1238.157 2819.500 L 1268.157 2819.500 L 1268.157 2134.702 L 1268.172 2133.465 L 1268.218 2132.230 L 1268.294 2130.996 L 1268.401 2129.765 L 1268.538 2128.536 L 1268.706 2127.311 L 1268.904 2126.091 L 1269.132 2124.876 L 1269.390 2123.667 L 1269.677 2122.464 L 1269.995 2121.270 L 1270.342 2120.083 L 1390.972 1725.519 L 1391.319 1724.332 L 1391.636 1723.137 L 1391.924 1721.935 L 1392.182 1720.726 L 1392.410 1719.511 L 1392.608 1718.290 L 1392.775 1717.066 L 1392.913 1715.837 L 1393.019 1714.605 L 1393.096 1713.371 L 1393.142 1712.136 L 1393.157 1710.900 L 1393.157 1576.697 L 1392.181 1576.552 L 1391.338 1576.042 L 1390.757 1575.245 L 1390.529 1574.286 L 1390.690 1573.313 L 1391.215 1572.478 L 1392.022 1571.911 L 1392.985 1571.700 L 1393.955 1571.878 L 1394.780 1572.417 L 1395.333 1573.233 L 1395.528 1574.200 L 1449.528 1574.200 L 1449.528 1570.800 L 1449.515 1570.575 L 1449.477 1570.353 L 1449.415 1570.137 L 1449.328 1569.929 L 1449.219 1569.732 L 1449.088 1569.549 L 1448.938 1569.381 L 1448.769 1569.232 L 1448.585 1569.102 L 1448.387 1568.994 L 1448.179 1568.909 L 1447.962 1568.848 L 1440.376 1566.706 L 1433.079 1563.725 L 1426.163 1559.943 L 1419.717 1555.407 L 1413.821 1550.175 L 1408.551 1544.314 L 1403.973 1537.897 L 1400.146 1531.006 L 1397.117 1523.729 L 1394.926 1516.157 L 1393.601 1508.387 L 1393.157 1500.517 L 1393.157 832.508 L 1271.778 504.281 L 1271.679 504.003 L 1271.589 503.722 L 1271.508 503.438 L 1271.434 503.152 L 1271.370 502.864 L 1271.313 502.575 L 1271.266 502.283 L 1271.226 501.991 L 1271.196 501.697 L 1271.174 501.403 L 1271.161 501.108 L 1271.157 500.813 L 1271.157 473.006 L 1262.157 473.006 L 1262.157 490.907 L 1262.136 491.552 L 1262.074 492.194 L 1261.970 492.830 L 1261.826 493.459 L 1261.641 494.077 L 1261.417 494.682 L 1261.154 495.271 L 1260.854 495.842 L 1260.518 496.392 L 1260.147 496.920 L 1259.743 497.423 L 1259.307 497.898 L 1246.538 509.910 L 1232.813 520.815 L 1218.225 530.537 L 1202.878 539.009 L 1186.877 546.171 L 1170.335 551.973 L 1153.367 556.376 L 1136.090 559.348 L 1118.626 560.868 L 1101.096 560.927 L 1083.622 559.524 L 1066.326 556.668 L 1049.328 552.379 L 1032.747 546.688 L 1016.699 539.633 L 1001.295 531.265 L 986.643 521.641 L 985.355 520.765 L 984.023 519.958 L 982.652 519.221 L 981.244 518.556 L 979.803 517.965 L 978.334 517.450 L 976.840 517.011 L 975.325 516.651 L 973.794 516.369 L 972.250 516.168 L 970.697 516.047 L 969.141 516.006 L 887.157 516.006 L 885.852 516.092 L 884.569 516.347 L 883.330 516.768 L 882.157 517.346 L 881.069 518.073 L 880.086 518.935 L 879.223 519.919 L 878.497 521.006 L 877.918 522.179 L 877.498 523.418 L 877.242 524.701 L 877.157 526.006 L 877.157 543.856 L 877.242 545.161 L 877.498 546.444 L 877.918 547.683 L 878.497 548.856 L 879.223 549.944 L 880.086 550.927 L 881.069 551.789 L 882.157 552.516 L 883.330 553.095 L 884.569 553.515 L 885.852 553.770 L 887.157 553.856 L 892.157 553.856 L 899.960 554.624 L 907.464 556.901 L 914.380 560.597 L 920.441 565.572 L 925.416 571.633 L 929.112 578.549 L 931.388 586.052 L 932.157 593.856 L 931.388 601.660 L 929.112 609.163 L 925.416 616.079 L 920.441 622.140 L 914.380 627.115 L 907.464 630.811 L 899.960 633.087 L 892.157 633.856 L 887.157 633.856 L 885.852 633.941 L 884.569 634.197 L 883.330 634.617 L 882.157 635.196 L 881.069 635.922 L 880.086 636.785 L 879.223 637.768 L 878.497 638.856 L 877.918 640.029 L 877.498 641.268 L 877.242 642.551 L 877.157 643.856 L 877.157 663.856 L 877.242 665.161 L 877.498 666.444 L 877.918 667.683 L 878.497 668.856 L 879.223 669.944 L 880.086 670.927 L 881.069 671.789 L 882.157 672.516 L 883.330 673.095 L 884.569 673.515 L 885.852 673.770 L 887.157 673.856 L 892.157 673.856 L 899.960 674.624 L 907.464 676.901 L 914.380 680.597 L 920.441 685.572 L 925.416 691.633 L 929.112 698.549 L 931.388 706.052 L 932.157 713.856 L 931.388 721.660 L 929.112 729.163 L 925.416 736.079 L 920.441 742.140 L 914.380 747.115 L 907.464 750.811 L 899.960 753.087 L 892.157 753.856 L 887.157 753.856 L 885.852 753.941 L 884.569 754.197 L 883.330 754.617 L 882.157 755.196 L 881.069 755.922 L 880.086 756.785 L 879.223 757.768 L 878.497 758.856 L 877.918 760.029 L 877.498 761.268 L 877.242 762.551 L 877.157 763.856 L 877.157 789.000 L 877.242 790.305 L 877.498 791.588 L 877.918 792.827 L 878.497 794.000 L 879.223 795.088 L 880.086 796.071 L 881.069 796.933 L 882.157 797.660 L 883.330 798.239 L 884.569 798.659 L 885.852 798.914 L 887.157 799.000 L 1093.157 799.000 L 1106.593 799.754 L 1119.859 802.009 L 1132.790 805.734 L 1145.223 810.884 L 1157.001 817.393 L 1167.976 825.180 L 1178.010 834.147 L 1186.977 844.181 L 1194.764 855.156 L 1201.273 866.934 L 1206.423 879.366 L 1210.148 892.297 L 1212.402 905.564 L 1213.157 919.000 L 1213.157 1275.860 L 1219.039 1282.425 L 1224.001 1289.712 L 1227.953 1297.591 L 1230.827 1305.924 L 1232.572 1314.565 L 1233.157 1323.360 L 1232.572 1332.156 L 1230.827 1340.797 L 1227.953 1349.130 L 1224.001 1357.009 L 1219.039 1364.295 Z" fill="#f28e2b" fill-opacity="0.68" stroke="#1f2937" stroke-width="0.45" data-part-id="Lv8_11612_6db" data-instance-id="Lv8_11612_6db__0004" data-rotation-deg="90.000000"/>
  <path d="M 748.030 1900.478 L 748.686 1700.039 L 748.689 1699.883 L 748.697 1699.727 L 748.710 1699.571 L 748.727 1699.416 L 748.749 1699.261 L 748.777 1699.108 L 748.809 1698.955 L 748.845 1698.803 L 748.887 1698.652 L 748.933 1698.503 L 748.984 1698.355 L 749.039 1698.209 L 771.211 1642.412 L 768.326 1633.687 L 766.568 1624.667 L 765.964 1615.498 L 766.526 1606.325 L 768.243 1597.298 L 771.089 1588.560 L 775.016 1580.252 L 779.964 1572.508 L 785.850 1565.452 L 792.583 1559.198 L 800.052 1553.845 L 808.139 1549.480 L 840.902 1467.028 L 842.969 1462.497 L 845.477 1458.194 L 848.401 1454.162 L 851.711 1450.440 L 855.375 1447.067 L 859.357 1444.075 L 863.616 1441.493 L 868.112 1439.349 L 872.798 1437.662 L 877.629 1436.450 L 882.556 1435.724 L 887.531 1435.492 L 957.552 1435.721 L 958.858 1435.640 L 960.141 1435.389 L 961.381 1434.973 L 962.556 1434.398 L 963.646 1433.675 L 964.633 1432.816 L 965.498 1431.835 L 966.229 1430.750 L 966.811 1429.578 L 967.236 1428.341 L 967.495 1427.059 L 967.585 1425.754 L 968.616 1110.756 L 968.572 1109.787 L 968.434 1108.826 L 968.204 1107.884 L 967.884 1106.968 L 967.476 1106.087 L 966.985 1105.250 L 966.416 1104.465 L 965.772 1103.739 L 965.062 1103.078 L 964.291 1102.489 L 963.466 1101.978 L 962.596 1101.549 L 905.976 1076.985 L 901.624 1074.840 L 897.501 1072.284 L 893.645 1069.341 L 890.092 1066.037 L 886.877 1062.405 L 884.028 1058.479 L 881.573 1054.294 L 879.536 1049.892 L 877.934 1045.313 L 876.784 1040.600 L 876.096 1035.798 L 875.876 1030.952 L 877.108 654.496 L 877.089 653.842 L 877.027 653.191 L 876.923 652.544 L 876.776 651.907 L 876.588 651.280 L 876.360 650.667 L 876.091 650.070 L 875.785 649.492 L 875.441 648.935 L 875.062 648.402 L 874.648 647.895 L 874.202 647.415 L 870.074 643.260 L 869.628 642.781 L 869.215 642.274 L 868.835 641.740 L 868.491 641.184 L 868.185 640.605 L 867.917 640.008 L 867.688 639.395 L 867.500 638.768 L 867.354 638.131 L 867.249 637.485 L 867.187 636.833 L 867.168 636.179 L 867.501 534.464 L 867.525 533.810 L 867.591 533.159 L 867.699 532.514 L 867.850 531.877 L 868.042 531.251 L 868.275 530.640 L 868.547 530.044 L 868.857 529.468 L 869.204 528.914 L 869.587 528.383 L 870.004 527.879 L 870.453 527.403 L 879.625 518.290 L 880.104 517.845 L 880.611 517.431 L 881.144 517.052 L 881.701 516.708 L 882.279 516.401 L 882.876 516.133 L 883.490 515.905 L 884.116 515.717 L 884.754 515.570 L 885.400 515.466 L 886.052 515.404 L 886.706 515.385 L 903.373 515.439 L 904.519 515.377 L 905.651 515.184 L 906.754 514.862 L 907.812 514.416 L 908.812 513.852 L 909.741 513.176 L 910.586 512.399 L 911.337 511.530 L 911.983 510.580 L 912.516 509.563 L 912.928 508.491 L 913.215 507.379 L 943.718 353.154 L 944.292 350.930 L 945.118 348.787 L 946.183 346.752 L 947.475 344.854 L 948.976 343.115 L 950.667 341.560 L 952.524 340.210 L 954.525 339.081 L 956.641 338.189 L 958.846 337.545 L 961.110 337.159 L 963.403 337.035 L 1092.720 337.458 L 1092.837 337.455 L 1092.954 337.445 L 1093.069 337.428 L 1093.184 337.405 L 1093.297 337.375 L 1093.408 337.338 L 1093.516 337.295 L 1093.622 337.246 L 1093.725 337.191 L 1093.825 337.129 L 1093.921 337.062 L 1094.012 336.990 L 1102.274 330.353 L 1110.811 324.075 L 1119.609 318.167 L 1128.651 312.641 L 1137.922 307.506 L 1147.403 302.772 L 1157.077 298.447 L 1166.928 294.540 L 1176.936 291.057 L 1187.084 288.004 L 1197.353 285.388 L 1207.725 283.213 L 1207.743 277.834 L 874.344 276.743 L 874.276 297.743 L 867.276 297.720 L 867.344 276.720 L 710.345 276.206 L 710.277 297.206 L 703.277 297.183 L 703.345 276.183 L 474.947 275.436 L 474.929 280.815 L 485.293 283.055 L 495.552 285.736 L 505.686 288.853 L 515.679 292.400 L 525.510 296.372 L 535.163 300.760 L 544.619 305.556 L 553.862 310.752 L 562.874 316.339 L 571.639 322.306 L 580.141 328.642 L 588.365 335.335 L 588.456 335.408 L 588.551 335.476 L 588.650 335.538 L 588.753 335.594 L 588.859 335.644 L 588.967 335.688 L 589.078 335.725 L 589.191 335.756 L 589.305 335.780 L 589.420 335.797 L 589.537 335.808 L 589.654 335.812 L 678.149 336.101 L 680.759 336.281 L 683.323 336.800 L 685.798 337.649 L 688.140 338.813 L 690.311 340.274 L 692.272 342.005 L 693.991 343.978 L 695.437 346.158 L 696.586 348.508 L 697.419 350.988 L 697.921 353.555 L 698.084 356.166 L 698.033 371.666 L 728.033 371.765 L 729.338 371.854 L 730.620 372.114 L 731.857 372.538 L 733.028 373.121 L 734.113 373.851 L 735.094 374.717 L 735.953 375.703 L 736.677 376.793 L 737.251 377.968 L 737.668 379.208 L 737.919 380.492 L 738.000 381.797 L 737.804 441.797 L 737.714 443.102 L 737.454 444.384 L 737.030 445.621 L 736.447 446.792 L 735.717 447.878 L 734.852 448.858 L 733.865 449.718 L 732.775 450.441 L 731.600 451.015 L 730.360 451.432 L 729.076 451.683 L 727.771 451.764 L 697.771 451.666 L 695.530 1136.461 L 695.511 1137.697 L 695.461 1138.932 L 695.380 1140.166 L 695.270 1141.397 L 695.128 1142.625 L 694.957 1143.849 L 694.755 1145.069 L 694.523 1146.283 L 694.261 1147.491 L 693.969 1148.693 L 693.648 1149.886 L 693.297 1151.072 L 571.376 1545.240 L 571.026 1546.425 L 570.704 1547.619 L 570.413 1548.820 L 570.151 1550.028 L 569.919 1551.243 L 569.717 1552.462 L 569.546 1553.687 L 569.404 1554.915 L 569.293 1556.146 L 569.213 1557.380 L 569.163 1558.615 L 569.144 1559.851 L 568.705 1694.054 L 569.680 1694.201 L 570.522 1694.714 L 571.100 1695.513 L 571.324 1696.473 L 571.160 1697.445 L 570.633 1698.278 L 569.824 1698.843 L 568.860 1699.050 L 567.891 1698.869 L 567.067 1698.328 L 566.517 1697.510 L 566.325 1696.542 L 512.326 1696.366 L 512.315 1699.766 L 512.327 1699.991 L 512.364 1700.213 L 512.426 1700.429 L 512.511 1700.637 L 512.620 1700.835 L 512.750 1701.018 L 512.900 1701.186 L 513.068 1701.336 L 513.252 1701.467 L 513.449 1701.575 L 513.658 1701.661 L 513.874 1701.723 L 521.453 1703.889 L 528.740 1706.894 L 535.643 1710.699 L 542.075 1715.256 L 547.954 1720.507 L 553.205 1726.386 L 557.762 1732.818 L 561.566 1739.721 L 564.571 1747.008 L 566.737 1754.587 L 568.037 1762.362 L 568.455 1770.233 L 566.269 2438.238 L 686.574 2766.860 L 686.671 2767.139 L 686.760 2767.420 L 686.841 2767.704 L 686.913 2767.990 L 686.977 2768.279 L 687.033 2768.569 L 687.079 2768.860 L 687.117 2769.153 L 687.147 2769.446 L 687.168 2769.741 L 687.180 2770.036 L 687.183 2770.331 L 687.092 2798.137 L 696.092 2798.167 L 696.151 2780.266 L 696.174 2779.621 L 696.238 2778.980 L 696.344 2778.343 L 696.490 2777.715 L 696.677 2777.098 L 696.903 2776.494 L 697.167 2775.905 L 697.469 2775.335 L 697.807 2774.786 L 698.180 2774.260 L 698.586 2773.758 L 699.024 2773.284 L 711.831 2761.314 L 725.593 2750.454 L 740.212 2740.780 L 755.587 2732.359 L 771.611 2725.249 L 788.172 2719.501 L 805.154 2715.154 L 822.441 2712.238 L 839.910 2710.775 L 857.440 2710.773 L 874.910 2712.234 L 892.196 2715.147 L 909.180 2719.491 L 925.742 2725.236 L 941.767 2732.343 L 957.143 2740.762 L 971.764 2750.434 L 973.049 2751.314 L 974.378 2752.125 L 975.747 2752.867 L 977.153 2753.536 L 978.591 2754.132 L 980.059 2754.652 L 981.552 2755.096 L 983.065 2755.461 L 984.596 2755.748 L 986.139 2755.954 L 987.691 2756.080 L 989.247 2756.126 L 1071.231 2756.394 L 1072.536 2756.313 L 1073.820 2756.062 L 1075.060 2755.645 L 1076.235 2755.071 L 1077.325 2754.348 L 1078.311 2753.488 L 1079.177 2752.508 L 1079.907 2751.422 L 1080.490 2750.251 L 1080.914 2749.014 L 1081.174 2747.732 L 1081.264 2746.427 L 1081.322 2728.577 L 1081.241 2727.272 L 1080.990 2725.988 L 1080.573 2724.748 L 1079.999 2723.573 L 1079.275 2722.483 L 1078.416 2721.497 L 1077.436 2720.631 L 1076.350 2719.901 L 1075.179 2719.318 L 1073.942 2718.894 L 1072.660 2718.634 L 1071.355 2718.545 L 1066.355 2718.528 L 1058.554 2717.734 L 1051.057 2715.433 L 1044.154 2711.714 L 1038.109 2706.720 L 1033.154 2700.642 L 1029.481 2693.715 L 1027.229 2686.204 L 1026.486 2678.398 L 1027.280 2670.597 L 1029.581 2663.100 L 1033.300 2656.197 L 1038.294 2650.152 L 1044.372 2645.197 L 1051.299 2641.523 L 1058.810 2639.272 L 1066.617 2638.529 L 1071.617 2638.545 L 1072.922 2638.464 L 1074.206 2638.213 L 1075.446 2637.796 L 1076.621 2637.222 L 1077.711 2636.499 L 1078.697 2635.639 L 1079.563 2634.659 L 1080.293 2633.574 L 1080.875 2632.402 L 1081.300 2631.165 L 1081.559 2629.883 L 1081.649 2628.578 L 1081.715 2608.578 L 1081.633 2607.272 L 1081.382 2605.989 L 1080.966 2604.749 L 1080.391 2603.574 L 1079.668 2602.484 L 1078.809 2601.497 L 1077.828 2600.632 L 1076.743 2599.901 L 1075.572 2599.319 L 1074.334 2598.895 L 1073.052 2598.635 L 1071.747 2598.545 L 1066.747 2598.529 L 1058.946 2597.735 L 1051.450 2595.434 L 1044.547 2591.715 L 1038.502 2586.721 L 1033.547 2580.643 L 1029.873 2573.716 L 1027.622 2566.204 L 1026.879 2558.398 L 1027.673 2550.597 L 1029.973 2543.101 L 1033.692 2536.198 L 1038.687 2530.153 L 1044.764 2525.198 L 1051.692 2521.524 L 1059.203 2519.272 L 1067.009 2518.529 L 1072.009 2518.546 L 1073.315 2518.464 L 1074.599 2518.213 L 1075.838 2517.797 L 1077.014 2517.222 L 1078.104 2516.499 L 1079.090 2515.640 L 1079.955 2514.659 L 1080.686 2513.574 L 1081.268 2512.403 L 1081.693 2511.166 L 1081.952 2509.883 L 1082.042 2508.579 L 1082.124 2483.435 L 1082.043 2482.129 L 1081.792 2480.845 L 1081.375 2479.605 L 1080.801 2478.430 L 1080.078 2477.340 L 1079.218 2476.354 L 1078.238 2475.488 L 1077.153 2474.758 L 1075.981 2474.176 L 1074.744 2473.751 L 1073.462 2473.492 L 1072.157 2473.402 L 866.158 2472.728 L 852.725 2471.929 L 839.466 2469.632 L 826.547 2465.864 L 814.131 2460.674 L 802.375 2454.126 L 791.425 2446.303 L 781.421 2437.303 L 772.487 2427.240 L 764.735 2416.239 L 758.265 2404.440 L 753.156 2391.991 L 749.473 2379.048 L 747.262 2365.774 L 746.551 2352.336 L 747.719 1995.477 L 741.858 1988.893 L 736.921 1981.590 L 732.994 1973.698 L 730.148 1965.356 L 728.431 1956.709 L 727.875 1947.912 L 728.489 1939.118 L 730.262 1930.484 L 733.163 1922.160 L 737.141 1914.293 L 742.126 1907.023 Z" fill="#f28e2b" fill-opacity="0.68" stroke="#1f2937" stroke-width="0.45" data-part-id="Lv8_11612_6db" data-instance-id="Lv8_11612_6db__0006" data-rotation-deg="269.812500"/>
  <text x="8" y="28" font-family="Arial, sans-serif" font-size="26" fill="#111827">6big_sp0_builderon sheet 1 placed=3</text>
</svg>
