<svg xmlns="http://www.w3.org/2000/svg" width="1500.00mm" height="3000.00mm" viewBox="0 0 1500.0000 3000.0000">
  <!-- Q39 S4 sheet 2 ORIGINAL contours -->
  <rect width="1500.0000" height="3000.0000" fill="#ffffff" stroke="#000000" stroke-width="2"/>
  <path d="M 217.008 2139.455 L 56.874 2139.455 L 56.830 2139.457 L 56.787 2139.463 L 56.744 2139.472 L 56.703 2139.486 L 56.663 2139.502 L 56.624 2139.522 L 56.587 2139.546 L 56.552 2139.572 L 56.520 2139.602 L 56.491 2139.634 L 56.464 2139.669 L 56.441 2139.705 L 56.346 2139.824 L 56.219 2139.909 L 56.073 2139.951 L 55.921 2139.948 L 55.777 2139.899 L 55.654 2139.809 L 55.564 2139.686 L 55.515 2139.542 L 55.512 2139.390 L 55.555 2139.244 L 55.639 2139.118 L 55.758 2139.022 L 55.795 2138.999 L 55.829 2138.972 L 55.861 2138.943 L 55.891 2138.911 L 55.917 2138.876 L 55.941 2138.839 L 55.961 2138.801 L 55.978 2138.760 L 55.991 2138.719 L 56.000 2138.676 L 56.006 2138.633 L 56.008 2138.589 L 56.008 2134.955 L 56.004 2134.890 L 55.991 2134.826 L 55.970 2134.764 L 55.941 2134.705 L 55.905 2134.651 L 55.861 2134.602 L 55.812 2134.559 L 55.758 2134.522 L 55.699 2134.494 L 55.637 2134.472 L 55.573 2134.460 L 55.508 2134.455 L 40.508 2134.455 L 40.443 2134.460 L 40.378 2134.472 L 40.317 2134.494 L 40.258 2134.522 L 40.203 2134.559 L 40.154 2134.602 L 40.111 2134.651 L 40.075 2134.705 L 40.046 2134.764 L 40.025 2134.826 L 40.012 2134.890 L 40.008 2134.955 L 40.008 2138.589 L 40.010 2138.633 L 40.015 2138.676 L 40.025 2138.719 L 40.038 2138.760 L 40.055 2138.801 L 40.075 2138.839 L 40.098 2138.876 L 40.125 2138.911 L 40.154 2138.943 L 40.186 2138.972 L 40.221 2138.999 L 40.258 2139.022 L 40.376 2139.118 L 40.461 2139.244 L 40.504 2139.390 L 40.500 2139.542 L 40.451 2139.686 L 40.361 2139.809 L 40.239 2139.899 L 40.095 2139.948 L 39.943 2139.951 L 39.797 2139.909 L 39.670 2139.824 L 39.575 2139.705 L 39.551 2139.669 L 39.525 2139.634 L 39.495 2139.602 L 39.463 2139.572 L 39.429 2139.546 L 39.392 2139.522 L 39.353 2139.502 L 39.313 2139.486 L 39.271 2139.472 L 39.229 2139.463 L 39.185 2139.457 L 39.142 2139.455 L 10.008 2139.455 L 8.703 2139.541 L 7.420 2139.796 L 6.181 2140.217 L 5.008 2140.795 L 3.920 2141.522 L 2.937 2142.384 L 2.074 2143.368 L 1.348 2144.455 L 0.769 2145.629 L 0.349 2146.867 L 0.093 2148.150 L 0.008 2149.455 L 0.008 2239.455 L 0.093 2240.761 L 0.349 2242.044 L 0.769 2243.282 L 1.348 2244.455 L 2.074 2245.543 L 2.937 2246.527 L 3.920 2247.389 L 5.008 2248.116 L 6.181 2248.694 L 7.420 2249.115 L 8.703 2249.370 L 10.008 2249.455 L 39.142 2249.455 L 39.185 2249.454 L 39.229 2249.448 L 39.271 2249.438 L 39.313 2249.425 L 39.353 2249.409 L 39.392 2249.388 L 39.429 2249.365 L 39.463 2249.338 L 39.495 2249.309 L 39.525 2249.277 L 39.551 2249.242 L 39.575 2249.205 L 39.670 2249.087 L 39.797 2249.002 L 39.943 2248.960 L 40.095 2248.963 L 40.239 2249.012 L 40.361 2249.102 L 40.451 2249.225 L 40.500 2249.369 L 40.504 2249.521 L 40.461 2249.667 L 40.376 2249.793 L 40.258 2249.888 L 40.221 2249.912 L 40.186 2249.938 L 40.154 2249.968 L 40.125 2250.000 L 40.098 2250.035 L 40.075 2250.071 L 40.055 2250.110 L 40.038 2250.150 L 40.025 2250.192 L 40.015 2250.235 L 40.010 2250.278 L 40.008 2250.321 L 40.008 2253.955 L 40.012 2254.021 L 40.025 2254.085 L 40.046 2254.147 L 40.075 2254.205 L 40.111 2254.260 L 40.154 2254.309 L 40.203 2254.352 L 40.258 2254.388 L 40.317 2254.417 L 40.378 2254.438 L 40.443 2254.451 L 40.508 2254.455 L 55.508 2254.455 L 55.573 2254.451 L 55.637 2254.438 L 55.699 2254.417 L 55.758 2254.388 L 55.812 2254.352 L 55.861 2254.309 L 55.905 2254.260 L 55.941 2254.205 L 55.970 2254.147 L 55.991 2254.085 L 56.004 2254.021 L 56.008 2253.955 L 56.008 2250.321 L 56.006 2250.278 L 56.000 2250.235 L 55.991 2250.192 L 55.978 2250.150 L 55.961 2250.110 L 55.941 2250.071 L 55.917 2250.035 L 55.891 2250.000 L 55.861 2249.968 L 55.829 2249.938 L 55.795 2249.912 L 55.758 2249.888 L 55.625 2249.777 L 55.538 2249.626 L 55.508 2249.455 L 55.538 2249.284 L 55.625 2249.134 L 55.758 2249.022 L 55.921 2248.963 L 56.095 2248.963 L 56.258 2249.022 L 56.391 2249.134 L 56.478 2249.284 L 56.508 2249.455 L 217.008 2249.455 L 218.313 2249.370 L 219.596 2249.115 L 220.835 2248.694 L 222.008 2248.116 L 223.095 2247.389 L 224.079 2246.527 L 224.941 2245.543 L 225.668 2244.455 L 226.247 2243.282 L 226.667 2242.044 L 226.922 2240.761 L 227.008 2239.455 L 227.008 2214.455 L 226.965 2213.803 L 226.837 2213.161 L 226.627 2212.542 L 226.338 2211.955 L 225.975 2211.412 L 225.543 2210.920 L 225.052 2210.489 L 224.508 2210.125 L 223.921 2209.836 L 223.302 2209.626 L 222.660 2209.498 L 222.008 2209.455 L 217.008 2209.455 L 216.355 2209.498 L 215.714 2209.626 L 215.094 2209.836 L 214.508 2210.125 L 213.964 2210.489 L 213.472 2210.920 L 213.041 2211.412 L 212.678 2211.955 L 212.388 2212.542 L 212.178 2213.161 L 212.051 2213.803 L 212.008 2214.455 L 212.008 2224.455 L 211.922 2225.761 L 211.667 2227.044 L 211.247 2228.282 L 210.668 2229.455 L 209.941 2230.543 L 209.079 2231.527 L 208.095 2232.389 L 207.008 2233.116 L 205.835 2233.694 L 204.596 2234.115 L 203.313 2234.370 L 202.008 2234.455 L 192.008 2234.455 L 190.703 2234.370 L 189.420 2234.115 L 188.181 2233.694 L 187.008 2233.116 L 185.920 2232.389 L 184.937 2231.527 L 184.074 2230.543 L 183.348 2229.455 L 182.769 2228.282 L 182.349 2227.044 L 182.093 2225.761 L 182.008 2224.455 L 182.008 2164.455 L 182.093 2163.150 L 182.349 2161.867 L 182.769 2160.629 L 183.348 2159.455 L 184.074 2158.368 L 184.937 2157.384 L 185.920 2156.522 L 187.008 2155.795 L 188.181 2155.217 L 189.420 2154.796 L 190.703 2154.541 L 192.008 2154.455 L 202.008 2154.455 L 203.313 2154.541 L 204.596 2154.796 L 205.835 2155.217 L 207.008 2155.795 L 208.095 2156.522 L 209.079 2157.384 L 209.941 2158.368 L 210.668 2159.455 L 211.247 2160.629 L 211.667 2161.867 L 211.922 2163.150 L 212.008 2164.455 L 212.008 2174.455 L 212.051 2175.108 L 212.178 2175.750 L 212.388 2176.369 L 212.678 2176.955 L 213.041 2177.499 L 213.472 2177.991 L 213.964 2178.422 L 214.508 2178.786 L 215.094 2179.075 L 215.714 2179.285 L 216.355 2179.413 L 217.008 2179.455 L 222.008 2179.455 L 222.660 2179.413 L 223.302 2179.285 L 223.921 2179.075 L 224.508 2178.786 L 225.052 2178.422 L 225.543 2177.991 L 225.975 2177.499 L 226.338 2176.955 L 226.627 2176.369 L 226.837 2175.750 L 226.965 2175.108 L 227.008 2174.455 L 227.008 2149.455 L 226.922 2148.150 L 226.667 2146.867 L 226.247 2145.629 L 225.668 2144.455 L 224.941 2143.368 L 224.079 2142.384 L 223.095 2141.522 L 222.008 2140.795 L 220.835 2140.217 L 219.596 2139.796 L 218.313 2139.541 Z" fill="#59a14f" fill-opacity="0.7" stroke="#222" stroke-width="0.5"/>
  <path d="M 454.553 1374.097 L 454.553 1574.537 L 454.550 1574.693 L 454.543 1574.849 L 454.531 1575.005 L 454.514 1575.160 L 454.492 1575.315 L 454.465 1575.469 L 454.434 1575.622 L 454.397 1575.774 L 454.356 1575.925 L 454.311 1576.074 L 454.260 1576.222 L 454.205 1576.368 L 432.216 1632.238 L 435.130 1640.953 L 436.918 1649.967 L 437.551 1659.135 L 437.020 1668.309 L 435.332 1677.342 L 432.515 1686.089 L 428.615 1694.409 L 423.693 1702.169 L 417.829 1709.245 L 411.117 1715.522 L 403.665 1720.899 L 395.593 1725.290 L 363.100 1807.849 L 361.048 1812.387 L 358.554 1816.698 L 355.643 1820.740 L 352.345 1824.472 L 348.692 1827.857 L 344.720 1830.862 L 340.469 1833.458 L 335.981 1835.617 L 331.300 1837.319 L 326.474 1838.547 L 321.548 1839.289 L 316.574 1839.537 L 246.553 1839.537 L 245.248 1839.623 L 243.965 1839.878 L 242.726 1840.298 L 241.553 1840.877 L 240.465 1841.603 L 239.482 1842.466 L 238.619 1843.449 L 237.893 1844.537 L 237.314 1845.710 L 236.894 1846.949 L 236.638 1848.232 L 236.553 1849.537 L 236.553 2164.537 L 236.600 2165.506 L 236.741 2166.466 L 236.974 2167.408 L 237.297 2168.323 L 237.708 2169.202 L 238.201 2170.037 L 238.773 2170.820 L 239.419 2171.545 L 240.132 2172.203 L 240.905 2172.789 L 241.731 2173.298 L 242.603 2173.724 L 299.303 2198.103 L 303.661 2200.233 L 307.793 2202.776 L 311.659 2205.706 L 315.222 2208.998 L 318.450 2212.620 L 321.311 2216.537 L 323.780 2220.713 L 325.832 2225.109 L 327.448 2229.683 L 328.614 2234.392 L 329.318 2239.192 L 329.553 2244.037 L 329.553 2620.495 L 329.574 2621.149 L 329.638 2621.800 L 329.745 2622.446 L 329.894 2623.083 L 330.084 2623.709 L 330.314 2624.322 L 330.584 2624.918 L 330.893 2625.495 L 331.238 2626.051 L 331.619 2626.582 L 332.034 2627.088 L 332.482 2627.566 L 336.624 2631.708 L 337.071 2632.186 L 337.486 2632.691 L 337.868 2633.223 L 338.213 2633.779 L 338.522 2634.356 L 338.792 2634.952 L 339.022 2635.565 L 339.212 2636.191 L 339.361 2636.828 L 339.467 2637.474 L 339.531 2638.125 L 339.553 2638.779 L 339.553 2740.495 L 339.531 2741.149 L 339.467 2741.800 L 339.361 2742.446 L 339.212 2743.083 L 339.022 2743.709 L 338.792 2744.322 L 338.522 2744.918 L 338.213 2745.495 L 337.868 2746.051 L 337.486 2746.582 L 337.071 2747.088 L 336.624 2747.566 L 327.482 2756.708 L 327.004 2757.155 L 326.498 2757.570 L 325.966 2757.952 L 325.411 2758.297 L 324.834 2758.606 L 324.238 2758.876 L 323.625 2759.106 L 322.999 2759.296 L 322.362 2759.445 L 321.716 2759.551 L 321.065 2759.616 L 320.411 2759.637 L 303.744 2759.637 L 302.597 2759.703 L 301.466 2759.900 L 300.364 2760.225 L 299.308 2760.675 L 298.309 2761.242 L 297.383 2761.921 L 296.540 2762.701 L 295.792 2763.572 L 295.150 2764.524 L 294.620 2765.543 L 294.211 2766.616 L 293.927 2767.729 L 263.930 2922.053 L 263.363 2924.279 L 262.544 2926.425 L 261.485 2928.463 L 260.200 2930.366 L 258.704 2932.109 L 257.019 2933.669 L 255.166 2935.026 L 253.169 2936.162 L 251.056 2937.060 L 248.853 2937.711 L 246.590 2938.105 L 244.297 2938.237 L 114.979 2938.237 L 114.863 2938.240 L 114.746 2938.251 L 114.631 2938.268 L 114.516 2938.291 L 114.403 2938.322 L 114.292 2938.359 L 114.184 2938.402 L 114.078 2938.452 L 113.975 2938.507 L 113.876 2938.569 L 113.780 2938.636 L 113.689 2938.709 L 105.449 2945.373 L 96.932 2951.679 L 88.154 2957.615 L 79.130 2963.171 L 69.876 2968.336 L 60.411 2973.101 L 50.751 2977.458 L 40.913 2981.398 L 30.916 2984.913 L 20.778 2987.999 L 10.517 2990.649 L 0.153 2992.858 L 0.153 2998.237 L 333.553 2998.237 L 333.553 2977.237 L 340.553 2977.237 L 340.553 2998.237 L 497.553 2998.237 L 497.553 2977.237 L 504.553 2977.237 L 504.553 2998.237 L 732.953 2998.237 L 732.953 2992.858 L 722.582 2990.652 L 712.314 2988.004 L 702.169 2984.920 L 692.165 2981.406 L 682.321 2977.467 L 672.654 2973.110 L 663.182 2968.345 L 653.922 2963.179 L 644.892 2957.622 L 636.107 2951.684 L 627.585 2945.376 L 619.339 2938.709 L 619.248 2938.636 L 619.152 2938.569 L 619.053 2938.507 L 618.950 2938.452 L 618.844 2938.402 L 618.736 2938.359 L 618.625 2938.322 L 618.512 2938.291 L 618.398 2938.268 L 618.282 2938.251 L 618.166 2938.240 L 618.049 2938.237 L 529.553 2938.237 L 526.942 2938.066 L 524.376 2937.555 L 521.899 2936.715 L 519.553 2935.557 L 517.378 2934.104 L 515.411 2932.379 L 513.686 2930.412 L 512.232 2928.237 L 511.075 2925.891 L 510.234 2923.413 L 509.724 2920.847 L 509.553 2918.237 L 509.553 2902.737 L 479.553 2902.737 L 478.248 2902.651 L 476.965 2902.396 L 475.726 2901.976 L 474.553 2901.397 L 473.465 2900.670 L 472.482 2899.808 L 471.619 2898.825 L 470.893 2897.737 L 470.314 2896.564 L 469.894 2895.325 L 469.638 2894.042 L 469.553 2892.737 L 469.553 2832.737 L 469.638 2831.432 L 469.894 2830.149 L 470.314 2828.910 L 470.893 2827.737 L 471.619 2826.649 L 472.482 2825.666 L 473.465 2824.803 L 474.553 2824.077 L 475.726 2823.498 L 476.965 2823.078 L 478.248 2822.823 L 479.553 2822.737 L 509.553 2822.737 L 509.553 2137.939 L 509.568 2136.702 L 509.614 2135.467 L 509.690 2134.233 L 509.797 2133.002 L 509.934 2131.773 L 510.102 2130.548 L 510.300 2129.328 L 510.528 2128.113 L 510.786 2126.904 L 511.073 2125.701 L 511.391 2124.507 L 511.738 2123.320 L 632.368 1728.756 L 632.715 1727.569 L 633.032 1726.374 L 633.320 1725.172 L 633.578 1723.963 L 633.806 1722.748 L 634.004 1721.527 L 634.171 1720.303 L 634.309 1719.074 L 634.415 1717.842 L 634.492 1716.608 L 634.538 1715.373 L 634.553 1714.137 L 634.553 1579.934 L 633.577 1579.789 L 632.734 1579.279 L 632.153 1578.482 L 631.925 1577.523 L 632.086 1576.550 L 632.611 1575.715 L 633.418 1575.148 L 634.381 1574.937 L 635.351 1575.115 L 636.176 1575.654 L 636.729 1576.470 L 636.924 1577.437 L 690.924 1577.437 L 690.924 1574.037 L 690.911 1573.812 L 690.873 1573.590 L 690.811 1573.374 L 690.724 1573.166 L 690.615 1572.969 L 690.484 1572.786 L 690.334 1572.618 L 690.165 1572.469 L 689.981 1572.339 L 689.783 1572.231 L 689.575 1572.146 L 689.358 1572.085 L 681.772 1569.943 L 674.475 1566.962 L 667.559 1563.180 L 661.113 1558.644 L 655.217 1553.412 L 649.947 1547.551 L 645.369 1541.134 L 641.542 1534.243 L 638.513 1526.966 L 636.322 1519.394 L 634.997 1511.624 L 634.553 1503.754 L 634.553 835.745 L 513.174 507.518 L 513.075 507.240 L 512.985 506.959 L 512.904 506.675 L 512.830 506.389 L 512.766 506.101 L 512.709 505.812 L 512.662 505.520 L 512.622 505.228 L 512.592 504.934 L 512.570 504.640 L 512.557 504.345 L 512.553 504.050 L 512.553 476.243 L 503.553 476.243 L 503.553 494.144 L 503.532 494.789 L 503.470 495.431 L 503.366 496.067 L 503.222 496.696 L 503.037 497.314 L 502.813 497.919 L 502.550 498.508 L 502.250 499.079 L 501.914 499.629 L 501.543 500.157 L 501.139 500.660 L 500.703 501.135 L 487.934 513.147 L 474.209 524.052 L 459.621 533.774 L 444.274 542.246 L 428.273 549.408 L 411.731 555.210 L 394.763 559.613 L 377.486 562.585 L 360.022 564.105 L 342.492 564.164 L 325.018 562.761 L 307.722 559.905 L 290.724 555.616 L 274.143 549.925 L 258.095 542.870 L 242.691 534.502 L 228.039 524.878 L 226.751 524.002 L 225.419 523.195 L 224.048 522.458 L 222.640 521.793 L 221.199 521.202 L 219.730 520.687 L 218.236 520.248 L 216.721 519.888 L 215.190 519.606 L 213.646 519.405 L 212.093 519.284 L 210.537 519.243 L 128.553 519.243 L 127.248 519.329 L 125.965 519.584 L 124.726 520.005 L 123.553 520.583 L 122.465 521.310 L 121.482 522.172 L 120.619 523.156 L 119.893 524.243 L 119.314 525.416 L 118.894 526.655 L 118.638 527.938 L 118.553 529.243 L 118.553 547.093 L 118.638 548.398 L 118.894 549.681 L 119.314 550.920 L 119.893 552.093 L 120.619 553.181 L 121.482 554.164 L 122.465 555.026 L 123.553 555.753 L 124.726 556.332 L 125.965 556.752 L 127.248 557.007 L 128.553 557.093 L 133.553 557.093 L 141.356 557.861 L 148.860 560.138 L 155.776 563.834 L 161.837 568.809 L 166.812 574.870 L 170.508 581.786 L 172.784 589.289 L 173.553 597.093 L 172.784 604.897 L 170.508 612.400 L 166.812 619.316 L 161.837 625.377 L 155.776 630.352 L 148.860 634.048 L 141.356 636.324 L 133.553 637.093 L 128.553 637.093 L 127.248 637.178 L 125.965 637.434 L 124.726 637.854 L 123.553 638.433 L 122.465 639.159 L 121.482 640.022 L 120.619 641.005 L 119.893 642.093 L 119.314 643.266 L 118.894 644.505 L 118.638 645.788 L 118.553 647.093 L 118.553 667.093 L 118.638 668.398 L 118.894 669.681 L 119.314 670.920 L 119.893 672.093 L 120.619 673.181 L 121.482 674.164 L 122.465 675.026 L 123.553 675.753 L 124.726 676.332 L 125.965 676.752 L 127.248 677.007 L 128.553 677.093 L 133.553 677.093 L 141.356 677.861 L 148.860 680.138 L 155.776 683.834 L 161.837 688.809 L 166.812 694.870 L 170.508 701.786 L 172.784 709.289 L 173.553 717.093 L 172.784 724.897 L 170.508 732.400 L 166.812 739.316 L 161.837 745.377 L 155.776 750.352 L 148.860 754.048 L 141.356 756.324 L 133.553 757.093 L 128.553 757.093 L 127.248 757.178 L 125.965 757.434 L 124.726 757.854 L 123.553 758.433 L 122.465 759.159 L 121.482 760.022 L 120.619 761.005 L 119.893 762.093 L 119.314 763.266 L 118.894 764.505 L 118.638 765.788 L 118.553 767.093 L 118.553 792.237 L 118.638 793.542 L 118.894 794.825 L 119.314 796.064 L 119.893 797.237 L 120.619 798.325 L 121.482 799.308 L 122.465 800.170 L 123.553 800.897 L 124.726 801.476 L 125.965 801.896 L 127.248 802.151 L 128.553 802.237 L 334.553 802.237 L 347.989 802.991 L 361.255 805.246 L 374.186 808.971 L 386.619 814.121 L 398.397 820.630 L 409.372 828.417 L 419.406 837.384 L 428.373 847.418 L 436.160 858.393 L 442.669 870.171 L 447.819 882.603 L 451.544 895.534 L 453.798 908.801 L 454.553 922.237 L 454.553 1279.097 L 460.435 1285.662 L 465.397 1292.949 L 469.349 1300.828 L 472.223 1309.161 L 473.968 1317.802 L 474.553 1326.597 L 473.968 1335.393 L 472.223 1344.034 L 469.349 1352.367 L 465.397 1360.246 L 460.435 1367.532 Z" fill="#4e79a7" fill-opacity="0.7" stroke="#222" stroke-width="0.5"/>
  <path d="M 1221.002 1319.822 L 1221.002 1520.261 L 1221.000 1520.418 L 1220.992 1520.574 L 1220.980 1520.729 L 1220.963 1520.885 L 1220.941 1521.039 L 1220.914 1521.193 L 1220.883 1521.346 L 1220.847 1521.498 L 1220.806 1521.649 L 1220.760 1521.798 L 1220.710 1521.946 L 1220.655 1522.093 L 1198.666 1577.962 L 1201.579 1586.678 L 1203.367 1595.691 L 1204.000 1604.859 L 1203.469 1614.033 L 1201.781 1623.066 L 1198.964 1631.813 L 1195.064 1640.134 L 1190.142 1647.894 L 1184.278 1654.969 L 1177.566 1661.246 L 1170.115 1666.623 L 1162.042 1671.015 L 1129.549 1753.573 L 1127.497 1758.111 L 1125.003 1762.422 L 1122.092 1766.464 L 1118.794 1770.196 L 1115.141 1773.582 L 1111.169 1776.587 L 1106.918 1779.182 L 1102.430 1781.341 L 1097.750 1783.044 L 1092.923 1784.272 L 1087.998 1785.013 L 1083.023 1785.261 L 1013.002 1785.261 L 1011.697 1785.347 L 1010.414 1785.602 L 1009.175 1786.023 L 1008.002 1786.601 L 1006.914 1787.328 L 1005.931 1788.190 L 1005.069 1789.174 L 1004.342 1790.261 L 1003.763 1791.435 L 1003.343 1792.673 L 1003.088 1793.956 L 1003.002 1795.261 L 1003.002 2110.261 L 1003.049 2111.230 L 1003.190 2112.190 L 1003.423 2113.132 L 1003.746 2114.047 L 1004.157 2114.926 L 1004.650 2115.761 L 1005.223 2116.545 L 1005.868 2117.269 L 1006.581 2117.927 L 1007.354 2118.514 L 1008.180 2119.022 L 1009.052 2119.448 L 1065.752 2143.827 L 1070.111 2145.957 L 1074.242 2148.500 L 1078.108 2151.431 L 1081.671 2154.723 L 1084.899 2158.344 L 1087.760 2162.261 L 1090.229 2166.438 L 1092.281 2170.833 L 1093.897 2175.407 L 1095.063 2180.116 L 1095.767 2184.916 L 1096.002 2189.761 L 1096.002 2566.219 L 1096.023 2566.873 L 1096.088 2567.524 L 1096.194 2568.170 L 1096.343 2568.807 L 1096.533 2569.434 L 1096.763 2570.046 L 1097.033 2570.642 L 1097.342 2571.219 L 1097.687 2571.775 L 1098.069 2572.307 L 1098.484 2572.813 L 1098.931 2573.290 L 1103.073 2577.432 L 1103.520 2577.910 L 1103.936 2578.416 L 1104.317 2578.948 L 1104.662 2579.503 L 1104.971 2580.081 L 1105.241 2580.677 L 1105.471 2581.289 L 1105.661 2581.915 L 1105.810 2582.553 L 1105.916 2583.198 L 1105.981 2583.849 L 1106.002 2584.503 L 1106.002 2686.219 L 1105.981 2686.873 L 1105.916 2687.524 L 1105.810 2688.170 L 1105.661 2688.807 L 1105.471 2689.434 L 1105.241 2690.046 L 1104.971 2690.642 L 1104.662 2691.219 L 1104.317 2691.775 L 1103.936 2692.307 L 1103.520 2692.813 L 1103.073 2693.290 L 1093.931 2702.432 L 1093.453 2702.880 L 1092.948 2703.295 L 1092.416 2703.676 L 1091.860 2704.022 L 1091.283 2704.330 L 1090.687 2704.600 L 1090.074 2704.831 L 1089.448 2705.021 L 1088.811 2705.169 L 1088.165 2705.276 L 1087.514 2705.340 L 1086.860 2705.361 L 1070.193 2705.361 L 1069.046 2705.427 L 1067.915 2705.624 L 1066.814 2705.950 L 1065.757 2706.399 L 1064.759 2706.967 L 1063.832 2707.645 L 1062.989 2708.425 L 1062.242 2709.297 L 1061.599 2710.248 L 1061.069 2711.267 L 1060.660 2712.340 L 1060.377 2713.453 L 1030.379 2867.778 L 1029.812 2870.003 L 1028.994 2872.149 L 1027.935 2874.187 L 1026.649 2876.090 L 1025.153 2877.834 L 1023.468 2879.394 L 1021.615 2880.751 L 1019.618 2881.886 L 1017.505 2882.785 L 1015.302 2883.436 L 1013.039 2883.829 L 1010.746 2883.961 L 881.429 2883.961 L 881.312 2883.965 L 881.195 2883.975 L 881.080 2883.992 L 880.965 2884.016 L 880.852 2884.046 L 880.742 2884.083 L 880.633 2884.126 L 880.527 2884.176 L 880.424 2884.232 L 880.325 2884.293 L 880.230 2884.361 L 880.138 2884.434 L 871.898 2891.097 L 863.381 2897.403 L 854.603 2903.340 L 845.579 2908.895 L 836.326 2914.061 L 826.860 2918.826 L 817.200 2923.182 L 807.362 2927.122 L 797.365 2930.638 L 787.227 2933.723 L 776.967 2936.373 L 766.602 2938.582 L 766.602 2943.961 L 1100.002 2943.961 L 1100.002 2922.961 L 1107.002 2922.961 L 1107.002 2943.961 L 1264.002 2943.961 L 1264.002 2922.961 L 1271.002 2922.961 L 1271.002 2943.961 L 1499.402 2943.961 L 1499.402 2938.582 L 1489.031 2936.376 L 1478.763 2933.729 L 1468.618 2930.645 L 1458.615 2927.130 L 1448.770 2923.191 L 1439.103 2918.835 L 1429.631 2914.069 L 1420.371 2908.903 L 1411.341 2903.346 L 1402.556 2897.408 L 1394.034 2891.100 L 1385.788 2884.433 L 1385.697 2884.361 L 1385.601 2884.293 L 1385.502 2884.232 L 1385.399 2884.176 L 1385.294 2884.126 L 1385.185 2884.083 L 1385.074 2884.046 L 1384.961 2884.016 L 1384.847 2883.992 L 1384.731 2883.975 L 1384.615 2883.965 L 1384.498 2883.961 L 1296.002 2883.961 L 1293.392 2883.790 L 1290.826 2883.280 L 1288.348 2882.439 L 1286.002 2881.282 L 1283.827 2879.828 L 1281.860 2878.103 L 1280.135 2876.137 L 1278.682 2873.961 L 1277.524 2871.615 L 1276.684 2869.138 L 1276.173 2866.572 L 1276.002 2863.961 L 1276.002 2848.461 L 1246.002 2848.461 L 1244.697 2848.376 L 1243.414 2848.121 L 1242.175 2847.700 L 1241.002 2847.122 L 1239.914 2846.395 L 1238.931 2845.532 L 1238.069 2844.549 L 1237.342 2843.461 L 1236.763 2842.288 L 1236.343 2841.050 L 1236.088 2839.767 L 1236.002 2838.461 L 1236.002 2778.461 L 1236.088 2777.156 L 1236.343 2775.873 L 1236.763 2774.635 L 1237.342 2773.461 L 1238.069 2772.374 L 1238.931 2771.390 L 1239.914 2770.528 L 1241.002 2769.801 L 1242.175 2769.223 L 1243.414 2768.802 L 1244.697 2768.547 L 1246.002 2768.461 L 1276.002 2768.461 L 1276.002 2083.663 L 1276.017 2082.427 L 1276.063 2081.191 L 1276.140 2079.958 L 1276.246 2078.726 L 1276.384 2077.497 L 1276.551 2076.273 L 1276.749 2075.052 L 1276.977 2073.837 L 1277.235 2072.628 L 1277.523 2071.426 L 1277.840 2070.231 L 1278.187 2069.044 L 1398.817 1674.480 L 1399.164 1673.293 L 1399.481 1672.099 L 1399.769 1670.896 L 1400.027 1669.687 L 1400.255 1668.472 L 1400.453 1667.252 L 1400.620 1666.027 L 1400.758 1664.798 L 1400.865 1663.567 L 1400.941 1662.333 L 1400.987 1661.097 L 1401.002 1659.861 L 1401.002 1525.658 L 1400.027 1525.514 L 1399.183 1525.003 L 1398.602 1524.207 L 1398.375 1523.247 L 1398.536 1522.275 L 1399.060 1521.440 L 1399.867 1520.873 L 1400.830 1520.662 L 1401.800 1520.840 L 1402.626 1521.378 L 1403.179 1522.195 L 1403.373 1523.161 L 1457.373 1523.161 L 1457.373 1519.761 L 1457.360 1519.536 L 1457.323 1519.314 L 1457.260 1519.098 L 1457.173 1518.890 L 1457.064 1518.693 L 1456.933 1518.510 L 1456.783 1518.343 L 1456.614 1518.193 L 1456.430 1518.063 L 1456.232 1517.955 L 1456.024 1517.870 L 1455.807 1517.809 L 1448.221 1515.668 L 1440.924 1512.687 L 1434.009 1508.904 L 1427.562 1504.369 L 1421.666 1499.137 L 1416.396 1493.275 L 1411.818 1486.858 L 1407.991 1479.967 L 1404.963 1472.690 L 1402.772 1465.118 L 1401.446 1457.348 L 1401.002 1449.478 L 1401.002 781.469 L 1279.623 453.243 L 1279.525 452.964 L 1279.435 452.683 L 1279.353 452.400 L 1279.280 452.114 L 1279.215 451.826 L 1279.158 451.536 L 1279.111 451.245 L 1279.072 450.952 L 1279.041 450.659 L 1279.019 450.364 L 1279.006 450.069 L 1279.002 449.774 L 1279.002 421.968 L 1270.002 421.968 L 1270.002 439.868 L 1269.981 440.513 L 1269.919 441.155 L 1269.815 441.792 L 1269.671 442.420 L 1269.486 443.038 L 1269.262 443.643 L 1269.000 444.232 L 1268.699 444.803 L 1268.363 445.354 L 1267.992 445.882 L 1267.588 446.384 L 1267.152 446.860 L 1254.384 458.871 L 1240.658 469.776 L 1226.071 479.498 L 1210.723 487.970 L 1194.723 495.132 L 1178.180 500.935 L 1161.212 505.337 L 1143.935 508.309 L 1126.471 509.830 L 1108.941 509.889 L 1091.467 508.485 L 1074.171 505.629 L 1057.173 501.341 L 1040.592 495.649 L 1024.544 488.595 L 1009.140 480.226 L 994.488 470.602 L 993.200 469.727 L 991.869 468.920 L 990.497 468.182 L 989.089 467.518 L 987.648 466.927 L 986.179 466.411 L 984.685 465.973 L 983.170 465.612 L 981.639 465.331 L 980.095 465.129 L 978.542 465.008 L 976.986 464.968 L 895.002 464.968 L 893.697 465.053 L 892.414 465.308 L 891.175 465.729 L 890.002 466.307 L 888.914 467.034 L 887.931 467.897 L 887.069 468.880 L 886.342 469.968 L 885.763 471.141 L 885.343 472.380 L 885.088 473.662 L 885.002 474.968 L 885.002 492.817 L 885.088 494.123 L 885.343 495.405 L 885.763 496.644 L 886.342 497.817 L 887.069 498.905 L 887.931 499.888 L 888.914 500.751 L 890.002 501.478 L 891.175 502.056 L 892.414 502.477 L 893.697 502.732 L 895.002 502.817 L 900.002 502.817 L 907.806 503.586 L 915.309 505.862 L 922.225 509.559 L 928.286 514.533 L 933.261 520.594 L 936.957 527.510 L 939.233 535.014 L 940.002 542.817 L 939.233 550.621 L 936.957 558.125 L 933.261 565.040 L 928.286 571.102 L 922.225 576.076 L 915.309 579.772 L 907.806 582.049 L 900.002 582.817 L 895.002 582.817 L 893.697 582.903 L 892.414 583.158 L 891.175 583.578 L 890.002 584.157 L 888.914 584.884 L 887.931 585.746 L 887.069 586.730 L 886.342 587.817 L 885.763 588.990 L 885.343 590.229 L 885.088 591.512 L 885.002 592.817 L 885.002 612.817 L 885.088 614.123 L 885.343 615.405 L 885.763 616.644 L 886.342 617.817 L 887.069 618.905 L 887.931 619.888 L 888.914 620.751 L 890.002 621.478 L 891.175 622.056 L 892.414 622.477 L 893.697 622.732 L 895.002 622.817 L 900.002 622.817 L 907.806 623.586 L 915.309 625.862 L 922.225 629.559 L 928.286 634.533 L 933.261 640.594 L 936.957 647.510 L 939.233 655.014 L 940.002 662.817 L 939.233 670.621 L 936.957 678.125 L 933.261 685.040 L 928.286 691.102 L 922.225 696.076 L 915.309 699.772 L 907.806 702.049 L 900.002 702.817 L 895.002 702.817 L 893.697 702.903 L 892.414 703.158 L 891.175 703.578 L 890.002 704.157 L 888.914 704.884 L 887.931 705.746 L 887.069 706.730 L 886.342 707.817 L 885.763 708.990 L 885.343 710.229 L 885.088 711.512 L 885.002 712.817 L 885.002 737.961 L 885.088 739.267 L 885.343 740.550 L 885.763 741.788 L 886.342 742.961 L 887.069 744.049 L 887.931 745.032 L 888.914 745.895 L 890.002 746.622 L 891.175 747.200 L 892.414 747.621 L 893.697 747.876 L 895.002 747.961 L 1101.002 747.961 L 1114.438 748.716 L 1127.705 750.970 L 1140.636 754.695 L 1153.068 759.845 L 1164.846 766.354 L 1175.821 774.142 L 1185.855 783.109 L 1194.822 793.143 L 1202.609 804.118 L 1209.118 815.895 L 1214.268 828.328 L 1217.993 841.259 L 1220.248 854.526 L 1221.002 867.961 L 1221.002 1224.822 L 1226.885 1231.387 L 1231.846 1238.673 L 1235.798 1246.552 L 1238.672 1254.886 L 1240.417 1263.526 L 1241.002 1272.322 L 1240.417 1281.117 L 1238.672 1289.758 L 1235.798 1298.091 L 1231.846 1305.971 L 1226.885 1313.257 Z" fill="#4e79a7" fill-opacity="0.7" stroke="#222" stroke-width="0.5"/>
  <path d="M 238.080 1334.626 L 234.476 1340.577 L 230.080 1345.969 L 224.979 1350.699 L 219.270 1354.675 L 213.065 1357.820 L 206.483 1360.074 L 199.652 1361.392 L 192.705 1361.749 L 185.775 1361.139 L 178.997 1359.573 L 172.501 1357.081 L 166.415 1353.711 L 50.397 1278.488 L 45.265 1275.778 L 39.732 1274.024 L 33.975 1273.282 L 28.178 1273.576 L 22.526 1274.897 L 17.198 1277.202 L 12.366 1280.418 L 8.183 1284.442 L 4.783 1289.146 L 2.273 1294.380 L 0.735 1299.977 L 0.216 1305.758 L 0.216 1331.758 L 0.216 1373.758 L 0.216 1500.758 L 0.216 1545.758 L 0.216 1692.758 L 0.216 1714.758 L 0.216 1760.758 L 0.735 1766.539 L 2.273 1772.136 L 4.783 1777.370 L 8.183 1782.074 L 12.366 1786.098 L 17.198 1789.314 L 22.526 1791.619 L 28.178 1792.939 L 33.975 1793.233 L 39.732 1792.492 L 45.265 1790.738 L 50.397 1788.027 L 166.415 1712.804 L 172.501 1709.435 L 178.997 1706.943 L 185.775 1705.377 L 192.705 1704.766 L 199.652 1705.123 L 206.483 1706.442 L 213.065 1708.695 L 219.270 1711.840 L 224.979 1715.817 L 230.080 1720.547 L 234.476 1725.939 L 238.080 1731.889 L 290.216 1833.258 L 290.216 1567.758 L 290.216 1518.758 L 290.216 1375.503 L 290.216 1233.258 Z" fill="#4e79a7" fill-opacity="0.7" stroke="#222" stroke-width="0.5"/>
  <path d="M 580.788 136.185 L 586.739 139.789 L 592.131 144.185 L 596.861 149.286 L 600.837 154.995 L 603.982 161.200 L 606.236 167.782 L 607.554 174.612 L 607.911 181.560 L 607.301 188.490 L 605.734 195.268 L 603.242 201.763 L 599.873 207.850 L 524.650 323.867 L 521.940 329.000 L 520.186 334.533 L 519.444 340.290 L 519.738 346.087 L 521.059 351.739 L 523.364 357.066 L 526.580 361.899 L 530.604 366.082 L 535.308 369.482 L 540.542 371.992 L 546.138 373.530 L 551.920 374.048 L 577.920 374.048 L 619.920 374.048 L 746.920 374.048 L 791.920 374.048 L 938.920 374.048 L 960.920 374.048 L 1006.920 374.048 L 1012.701 373.530 L 1018.298 371.992 L 1023.532 369.482 L 1028.236 366.082 L 1032.260 361.899 L 1035.476 357.066 L 1037.781 351.739 L 1039.101 346.087 L 1039.395 340.290 L 1038.654 334.533 L 1036.900 329.000 L 1034.189 323.867 L 958.966 207.850 L 955.597 201.763 L 953.105 195.268 L 951.538 188.490 L 950.928 181.560 L 951.285 174.612 L 952.604 167.782 L 954.857 161.200 L 958.002 154.995 L 961.978 149.286 L 966.708 144.185 L 972.101 139.789 L 978.051 136.185 L 1079.420 84.048 L 813.920 84.048 L 764.920 84.048 L 621.665 84.048 L 479.420 84.048 Z" fill="#4e79a7" fill-opacity="0.7" stroke="#222" stroke-width="0.5"/>
  <text x="6" y="20" font-size="34" fill="#000">S4 sheet 2  placed=5</text>
</svg>