<svg xmlns="http://www.w3.org/2000/svg" width="1500.00mm" height="3000.00mm" viewBox="0 0 1500.0000 3000.0000">
  <!-- q76_mixedmed_B_skeleton_first sheet 1 rendered from solver output placements and input outer_points -->
  <rect width="1500.0000" height="3000.0000" fill="#ffffff" stroke="#111827" stroke-width="2"/>
  <rect x="5.0000" y="5.0000" width="1490.0000" height="2990.0000" fill="none" stroke="#dc2626" stroke-width="1.5" stroke-dasharray="8,6"/>
  <path d="M 5.007 2629.995 L 365.007 2629.995 L 365.007 2485.995 L 149.007 2485.995 L 149.007 2269.995 L 5.007 2269.995 Z" fill="#59a14f" fill-opacity="0.68" stroke="#1f2937" stroke-width="0.45" data-part-id="l_med" data-instance-id="l_med__0002" data-rotation-deg="0.000000"/>
  <path d="M 367.500 2120.891 L 7.500 2120.891 L 7.500 2264.891 L 223.500 2264.891 L 223.500 2480.891 L 367.500 2480.891 Z" fill="#59a14f" fill-opacity="0.68" stroke="#1f2937" stroke-width="0.45" data-part-id="l_med" data-instance-id="l_med__0004" data-rotation-deg="180.000000"/>
  <path d="M 1249.914 2029.591 L 1283.718 1671.181 L 1140.355 1657.660 L 1120.072 1872.705 L 905.026 1852.422 L 891.505 1995.786 Z" fill="#59a14f" fill-opacity="0.68" stroke="#1f2937" stroke-width="0.45" data-part-id="l_med" data-instance-id="l_med__0005" data-rotation-deg="84.611902"/>
  <path d="M 5.007 1755.857 L 5.007 2115.857 L 149.007 2115.857 L 149.007 1899.857 L 365.007 1899.857 L 365.007 1755.857 Z" fill="#59a14f" fill-opacity="0.68" stroke="#1f2937" stroke-width="0.45" data-part-id="l_med" data-instance-id="l_med__0006" data-rotation-deg="270.000000"/>
  <path d="M 367.500 2994.998 L 367.500 2634.998 L 223.500 2634.998 L 223.500 2850.998 L 7.500 2850.998 L 7.500 2994.998 Z" fill="#59a14f" fill-opacity="0.68" stroke="#1f2937" stroke-width="0.45" data-part-id="l_med" data-instance-id="l_med__0008" data-rotation-deg="90.000000"/>
  <path d="M 367.500 1390.701 L 7.500 1390.701 L 7.500 1534.701 L 223.500 1534.701 L 223.500 1750.701 L 367.500 1750.701 Z" fill="#59a14f" fill-opacity="0.68" stroke="#1f2937" stroke-width="0.45" data-part-id="l_med" data-instance-id="l_med__0010" data-rotation-deg="180.000000"/>
  <path d="M 156.596 2115.708 L 336.578 2113.156 L 334.026 1933.174 L 154.044 1935.726 Z" fill="#59a14f" fill-opacity="0.68" stroke="#1f2937" stroke-width="0.45" data-part-id="m_180x180" data-instance-id="m_180x180__0003" data-rotation-deg="0.812500"/>
  <path d="M 1253.338 283.181 L 1184.455 449.479 L 1350.753 518.362 L 1419.636 352.064 Z" fill="#59a14f" fill-opacity="0.68" stroke="#1f2937" stroke-width="0.45" data-part-id="m_180x180" data-instance-id="m_180x180__0004" data-rotation-deg="247.500000"/>
  <path d="M 187.500 2845.988 L 187.500 2665.988 L 7.500 2665.988 L 7.500 2845.988 Z" fill="#59a14f" fill-opacity="0.68" stroke="#1f2937" stroke-width="0.45" data-part-id="m_180x180" data-instance-id="m_180x180__0005" data-rotation-deg="90.000000"/>
  <path d="M 187.500 1570.701 L 7.500 1570.701 L 7.500 1750.701 L 187.500 1750.701 Z" fill="#59a14f" fill-opacity="0.68" stroke="#1f2937" stroke-width="0.45" data-part-id="m_180x180" data-instance-id="m_180x180__0007" data-rotation-deg="180.000000"/>
  <path d="M 372.519 2557.493 L 372.519 2737.493 L 552.519 2737.493 L 552.519 2557.493 Z" fill="#59a14f" fill-opacity="0.68" stroke="#1f2937" stroke-width="0.45" data-part-id="m_180x180" data-instance-id="m_180x180__0009" data-rotation-deg="270.000000"/>
  <path d="M 569.992 72.639 L 569.992 252.639 L 749.992 252.639 L 749.992 72.639 Z" fill="#59a14f" fill-opacity="0.68" stroke="#1f2937" stroke-width="0.45" data-part-id="m_180x180" data-instance-id="m_180x180__0011" data-rotation-deg="270.000000"/>
  <path d="M 1288.189 1833.554 L 1468.188 1834.395 L 1469.028 1654.397 L 1289.030 1653.556 Z" fill="#59a14f" fill-opacity="0.68" stroke="#1f2937" stroke-width="0.45" data-part-id="m_180x180" data-instance-id="m_180x180__0015" data-rotation-deg="-0.267422"/>
  <path d="M 1004.639 1188.037 L 1184.639 1188.202 L 1184.804 1008.202 L 1004.804 1008.037 Z" fill="#59a14f" fill-opacity="0.68" stroke="#1f2937" stroke-width="0.45" data-part-id="m_180x180" data-instance-id="m_180x180__0019" data-rotation-deg="-0.052500"/>
  <path d="M 1430.895 97.337 L 1250.895 97.337 L 1250.895 277.337 L 1430.895 277.337 Z" fill="#59a14f" fill-opacity="0.68" stroke="#1f2937" stroke-width="0.45" data-part-id="m_180x180" data-instance-id="m_180x180__0020" data-rotation-deg="180.000000"/>
  <path d="M 1366.375 2994.997 L 1366.375 2814.997 L 1186.375 2814.997 L 1186.375 2994.997 Z" fill="#59a14f" fill-opacity="0.68" stroke="#1f2937" stroke-width="0.45" data-part-id="m_180x180" data-instance-id="m_180x180__0021" data-rotation-deg="90.000000"/>
  <path d="M 1460.629 1028.398 L 1280.629 1028.398 L 1280.629 1208.398 L 1460.629 1208.398 Z" fill="#59a14f" fill-opacity="0.68" stroke="#1f2937" stroke-width="0.45" data-part-id="m_180x180" data-instance-id="m_180x180__0022" data-rotation-deg="180.000000"/>
  <path d="M 1494.388 704.225 L 1494.388 524.225 L 1314.388 524.225 L 1314.388 704.225 Z" fill="#59a14f" fill-opacity="0.68" stroke="#1f2937" stroke-width="0.45" data-part-id="m_180x180" data-instance-id="m_180x180__0023" data-rotation-deg="90.000000"/>
  <path d="M 782.780 2611.073 L 784.841 2791.061 L 964.829 2789.000 L 962.768 2609.011 Z" fill="#59a14f" fill-opacity="0.68" stroke="#1f2937" stroke-width="0.45" data-part-id="m_180x180" data-instance-id="m_180x180__0024" data-rotation-deg="270.656250"/>
  <path d="M 1460.600 1213.405 L 1280.600 1213.405 L 1280.600 1393.405 L 1460.600 1393.405 Z" fill="#59a14f" fill-opacity="0.68" stroke="#1f2937" stroke-width="0.45" data-part-id="m_180x180" data-instance-id="m_180x180__0025" data-rotation-deg="180.000000"/>
  <path d="M 779.487 2249.021 L 599.487 2248.786 L 599.252 2428.786 L 779.252 2429.021 Z" fill="#59a14f" fill-opacity="0.68" stroke="#1f2937" stroke-width="0.45" data-part-id="m_180x180" data-instance-id="m_180x180__0028" data-rotation-deg="179.925000"/>
  <path d="M 999.641 1008.187 L 819.696 1003.733 L 815.242 1183.677 L 995.186 1188.132 Z" fill="#59a14f" fill-opacity="0.68" stroke="#1f2937" stroke-width="0.45" data-part-id="m_180x180" data-instance-id="m_180x180__0029" data-rotation-deg="178.581844"/>
  <path d="M 970.139 1672.784 L 791.751 1648.748 L 767.715 1827.136 L 946.103 1851.172 Z" fill="#59a14f" fill-opacity="0.68" stroke="#1f2937" stroke-width="0.45" data-part-id="m_180x180" data-instance-id="m_180x180__0030" data-rotation-deg="172.326071"/>
  <path d="M 538.879 1591.009 L 755.153 1631.327 L 813.797 1316.747 L 597.523 1276.428 Z" fill="#f28e2b" fill-opacity="0.68" stroke="#1f2937" stroke-width="0.45" data-part-id="m_220x320" data-instance-id="m_220x320__0001" data-rotation-deg="-10.560000"/>
  <path d="M 432.515 740.523 L 212.515 740.523 L 212.515 1060.523 L 432.515 1060.523 Z" fill="#f28e2b" fill-opacity="0.68" stroke="#1f2937" stroke-width="0.45" data-part-id="m_220x320" data-instance-id="m_220x320__0004" data-rotation-deg="180.000000"/>
  <path d="M 162.588 692.678 L 382.515 698.353 L 390.770 378.460 L 170.843 372.785 Z" fill="#f28e2b" fill-opacity="0.68" stroke="#1f2937" stroke-width="0.45" data-part-id="m_220x320" data-instance-id="m_220x320__0006" data-rotation-deg="-1.478125"/>
  <path d="M 5.002 1385.662 L 225.002 1385.662 L 225.002 1065.662 L 5.002 1065.662 Z" fill="#f28e2b" fill-opacity="0.68" stroke="#1f2937" stroke-width="0.45" data-part-id="m_220x320" data-instance-id="m_220x320__0007" data-rotation-deg="0.000000"/>
  <path d="M 495.304 971.210 L 489.545 1191.135 L 809.435 1199.511 L 815.194 979.587 Z" fill="#f28e2b" fill-opacity="0.68" stroke="#1f2937" stroke-width="0.45" data-part-id="m_220x320" data-instance-id="m_220x320__0008" data-rotation-deg="268.500000"/>
  <path d="M 342.103 2101.696 L 550.736 2171.500 L 652.269 1868.036 L 443.637 1798.231 Z" fill="#f28e2b" fill-opacity="0.68" stroke="#1f2937" stroke-width="0.45" data-part-id="m_220x320" data-instance-id="m_220x320__0012" data-rotation-deg="-18.499278"/>
  <path d="M 375.108 2552.435 L 595.100 2550.658 L 592.517 2230.669 L 372.524 2232.445 Z" fill="#f28e2b" fill-opacity="0.68" stroke="#1f2937" stroke-width="0.45" data-part-id="m_220x320" data-instance-id="m_220x320__0014" data-rotation-deg="0.462661"/>
  <path d="M 622.540 2742.500 L 372.540 2742.500 L 372.540 2992.500 L 622.540 2992.500 Z" fill="#e15759" fill-opacity="0.68" stroke="#1f2937" stroke-width="0.45" data-part-id="m_250x250" data-instance-id="m_250x250__0002" data-rotation-deg="180.000000"/>
  <path d="M 230.192 1136.010 L 246.429 1385.483 L 495.902 1369.245 L 479.664 1119.773 Z" fill="#e15759" fill-opacity="0.68" stroke="#1f2937" stroke-width="0.45" data-part-id="m_250x250" data-instance-id="m_250x250__0004" data-rotation-deg="273.723915"/>
  <path d="M 437.595 957.357 L 687.595 957.389 L 687.627 707.389 L 437.627 707.357 Z" fill="#e15759" fill-opacity="0.68" stroke="#1f2937" stroke-width="0.45" data-part-id="m_250x250" data-instance-id="m_250x250__0006" data-rotation-deg="-0.007375"/>
  <path d="M 7.210 350.408 L 257.201 348.226 L 255.019 98.236 L 5.029 100.417 Z" fill="#e15759" fill-opacity="0.68" stroke="#1f2937" stroke-width="0.45" data-part-id="m_250x250" data-instance-id="m_250x250__0010" data-rotation-deg="0.500000"/>
  <path d="M 1407.896 1398.430 L 1157.896 1398.430 L 1157.896 1648.430 L 1407.896 1648.430 Z" fill="#e15759" fill-opacity="0.68" stroke="#1f2937" stroke-width="0.45" data-part-id="m_250x250" data-instance-id="m_250x250__0011" data-rotation-deg="180.000000"/>
  <path d="M 942.625 721.271 L 692.625 721.271 L 692.625 971.271 L 942.625 971.271 Z" fill="#e15759" fill-opacity="0.68" stroke="#1f2937" stroke-width="0.45" data-part-id="m_250x250" data-instance-id="m_250x250__0014" data-rotation-deg="180.000000"/>
  <path d="M 947.743 1001.685 L 1197.743 1001.715 L 1197.773 751.715 L 947.773 751.685 Z" fill="#e15759" fill-opacity="0.68" stroke="#1f2937" stroke-width="0.45" data-part-id="m_250x250" data-instance-id="m_250x250__0016" data-rotation-deg="359.993206"/>
  <path d="M 1275.583 1193.306 L 975.583 1193.306 L 975.583 1393.306 L 1275.583 1393.306 Z" fill="#2ca02c" fill-opacity="0.68" stroke="#1f2937" stroke-width="0.45" data-part-id="m_300x200" data-instance-id="m_300x200__0002" data-rotation-deg="180.000000"/>
  <path d="M 1482.722 2604.137 L 1182.778 2609.960 L 1186.660 2809.922 L 1486.603 2804.100 Z" fill="#2ca02c" fill-opacity="0.68" stroke="#1f2937" stroke-width="0.45" data-part-id="m_300x200" data-instance-id="m_300x200__0006" data-rotation-deg="181.112109"/>
  <path d="M 881.266 2994.987 L 1181.266 2994.997 L 1181.272 2794.997 L 881.272 2794.987 Z" fill="#2ca02c" fill-opacity="0.68" stroke="#1f2937" stroke-width="0.45" data-part-id="m_300x200" data-instance-id="m_300x200__0008" data-rotation-deg="-0.001875"/>
  <path d="M 1307.363 577.323 L 1052.962 418.325 L 946.964 587.926 L 1201.365 746.923 Z" fill="#2ca02c" fill-opacity="0.68" stroke="#1f2937" stroke-width="0.45" data-part-id="m_300x200" data-instance-id="m_300x200__0010" data-rotation-deg="147.995156"/>
  <path d="M 1244.502 23.818 L 944.508 25.782 L 945.817 225.778 L 1245.811 223.814 Z" fill="#2ca02c" fill-opacity="0.68" stroke="#1f2937" stroke-width="0.45" data-part-id="m_300x200" data-instance-id="m_300x200__0011" data-rotation-deg="180.375000"/>
  <path d="M 1286.016 2144.780 L 1286.016 2444.780 L 1486.016 2444.780 L 1486.016 2144.780 Z" fill="#2ca02c" fill-opacity="0.68" stroke="#1f2937" stroke-width="0.45" data-part-id="m_300x200" data-instance-id="m_300x200__0013" data-rotation-deg="270.000000"/>
  <path d="M 771.716 2218.049 L 1071.716 2218.033 L 1071.705 2018.033 L 771.705 2018.049 Z" fill="#2ca02c" fill-opacity="0.68" stroke="#1f2937" stroke-width="0.45" data-part-id="m_300x200" data-instance-id="m_300x200__0015" data-rotation-deg="0.003017"/>
  <path d="M 559.052 59.462 L 259.186 68.431 L 265.165 268.341 L 565.031 259.372 Z" fill="#2ca02c" fill-opacity="0.68" stroke="#1f2937" stroke-width="0.45" data-part-id="m_300x200" data-instance-id="m_300x200__0018" data-rotation-deg="181.713281"/>
  <path d="M 207.500 1060.648 L 207.500 760.648 L 7.500 760.648 L 7.500 1060.648 Z" fill="#2ca02c" fill-opacity="0.68" stroke="#1f2937" stroke-width="0.45" data-part-id="m_300x200" data-instance-id="m_300x200__0021" data-rotation-deg="90.000000"/>
  <path d="M 1401.595 1023.032 L 1439.315 725.412 L 1240.902 700.266 L 1203.182 997.885 Z" fill="#2ca02c" fill-opacity="0.68" stroke="#1f2937" stroke-width="0.45" data-part-id="m_300x200" data-instance-id="m_300x200__0023" data-rotation-deg="82.776938"/>
  <path d="M 975.642 2423.089 L 1275.534 2431.138 L 1280.900 2231.210 L 981.008 2223.161 Z" fill="#2ca02c" fill-opacity="0.68" stroke="#1f2937" stroke-width="0.45" data-part-id="m_300x200" data-instance-id="m_300x200__0024" data-rotation-deg="-1.537500"/>
  <path d="M 903.266 710.963 L 895.412 411.066 L 695.481 416.302 L 703.334 716.199 Z" fill="#2ca02c" fill-opacity="0.68" stroke="#1f2937" stroke-width="0.45" data-part-id="m_300x200" data-instance-id="m_300x200__0025" data-rotation-deg="91.500000"/>
  <path d="M 1473.469 2139.466 L 1473.076 1839.466 L 1273.077 1839.728 L 1273.469 2139.728 Z" fill="#2ca02c" fill-opacity="0.68" stroke="#1f2937" stroke-width="0.45" data-part-id="m_300x200" data-instance-id="m_300x200__0026" data-rotation-deg="90.075000"/>
  <path d="M 370.367 1777.708 L 666.867 1823.397 L 697.326 1625.730 L 400.826 1580.041 Z" fill="#2ca02c" fill-opacity="0.68" stroke="#1f2937" stroke-width="0.45" data-part-id="m_300x200" data-instance-id="m_300x200__0027" data-rotation-deg="-8.760000"/>
  <path d="M 392.389 701.853 L 692.389 702.246 L 692.651 502.246 L 392.651 501.853 Z" fill="#2ca02c" fill-opacity="0.68" stroke="#1f2937" stroke-width="0.45" data-part-id="m_300x200" data-instance-id="m_300x200__0030" data-rotation-deg="-0.075000"/>
  <path d="M 674.961 1816.174 L 548.195 2195.556 L 690.463 2243.093 L 817.229 1863.712 Z" fill="#1f77b4" fill-opacity="0.68" stroke="#1f2937" stroke-width="0.45" data-part-id="m_400x150" data-instance-id="m_400x150__0002" data-rotation-deg="251.523531"/>
  <path d="M 820.527 1247.256 L 820.527 1647.256 L 970.527 1647.256 L 970.527 1247.256 Z" fill="#1f77b4" fill-opacity="0.68" stroke="#1f2937" stroke-width="0.45" data-part-id="m_400x150" data-instance-id="m_400x150__0003" data-rotation-deg="270.000000"/>
  <path d="M 627.644 2592.500 L 627.644 2992.500 L 777.644 2992.500 L 777.644 2592.500 Z" fill="#1f77b4" fill-opacity="0.68" stroke="#1f2937" stroke-width="0.45" data-part-id="m_400x150" data-instance-id="m_400x150__0004" data-rotation-deg="270.000000"/>
  <path d="M 791.307 256.349 L 391.637 272.576 L 397.722 422.452 L 797.393 406.225 Z" fill="#1f77b4" fill-opacity="0.68" stroke="#1f2937" stroke-width="0.45" data-part-id="m_400x150" data-instance-id="m_400x150__0005" data-rotation-deg="182.325000"/>
  <path d="M 1113.504 1867.050 L 1152.636 1468.968 L 1003.355 1454.294 L 964.224 1852.375 Z" fill="#1f77b4" fill-opacity="0.68" stroke="#1f2937" stroke-width="0.45" data-part-id="m_400x150" data-instance-id="m_400x150__0008" data-rotation-deg="84.385875"/>
  <path d="M 157.500 755.538 L 157.500 355.538 L 7.500 355.538 L 7.500 755.538 Z" fill="#1f77b4" fill-opacity="0.68" stroke="#1f2937" stroke-width="0.45" data-part-id="m_400x150" data-instance-id="m_400x150__0010" data-rotation-deg="90.000000"/>
  <path d="M 801.351 373.211 L 1200.746 395.191 L 1208.989 245.418 L 809.593 223.438 Z" fill="#1f77b4" fill-opacity="0.68" stroke="#1f2937" stroke-width="0.45" data-part-id="m_400x150" data-instance-id="m_400x150__0014" data-rotation-deg="-3.150000"/>
  <path d="M 1009.290 2429.113 L 609.384 2437.751 L 612.623 2587.716 L 1012.530 2579.078 Z" fill="#1f77b4" fill-opacity="0.68" stroke="#1f2937" stroke-width="0.45" data-part-id="m_400x150" data-instance-id="m_400x150__0015" data-rotation-deg="181.237500"/>
  <path d="M 1414.863 2449.895 L 1014.954 2458.441 L 1018.159 2608.407 L 1418.068 2599.860 Z" fill="#1f77b4" fill-opacity="0.68" stroke="#1f2937" stroke-width="0.45" data-part-id="m_400x150" data-instance-id="m_400x150__0016" data-rotation-deg="181.224273"/>
  <text x="8" y="28" font-family="Arial, sans-serif" font-size="26" fill="#111827">q76_mixedmed_B_skeleton_first sheet 1 placed=61</text>
</svg>
