<svg xmlns="http://www.w3.org/2000/svg" width="1500.00mm" height="3000.00mm" viewBox="0 0 1500.0000 3000.0000">
  <!-- q76_mixedmed_B_skeleton_first sheet 0 rendered from solver output placements and input outer_points -->
  <rect width="1500.0000" height="3000.0000" fill="#ffffff" stroke="#111827" stroke-width="2"/>
  <rect x="5.0000" y="5.0000" width="1490.0000" height="2990.0000" fill="none" stroke="#dc2626" stroke-width="1.5" stroke-dasharray="8,6"/>
  <path d="M 202.102 1236.008 L 559.948 1196.691 L 544.221 1053.552 L 329.513 1077.142 L 305.923 862.434 L 162.785 878.161 Z" fill="#59a14f" fill-opacity="0.68" stroke="#1f2937" stroke-width="0.45" data-part-id="l_med" data-instance-id="l_med__0001" data-rotation-deg="6.270000"/>
  <path d="M 622.534 2542.042 L 262.534 2542.042 L 262.534 2686.042 L 478.534 2686.042 L 478.534 2902.042 L 622.534 2902.042 Z" fill="#59a14f" fill-opacity="0.68" stroke="#1f2937" stroke-width="0.45" data-part-id="l_med" data-instance-id="l_med__0003" data-rotation-deg="180.000000"/>
  <path d="M 820.595 2393.030 L 460.595 2393.030 L 460.595 2537.030 L 676.595 2537.030 L 676.595 2753.030 L 820.595 2753.030 Z" fill="#59a14f" fill-opacity="0.68" stroke="#1f2937" stroke-width="0.45" data-part-id="l_med" data-instance-id="l_med__0007" data-rotation-deg="180.000000"/>
  <path d="M 1221.666 2331.557 L 861.753 2323.664 L 858.596 2467.630 L 1074.544 2472.365 L 1069.808 2688.313 L 1213.774 2691.470 Z" fill="#59a14f" fill-opacity="0.68" stroke="#1f2937" stroke-width="0.45" data-part-id="l_med" data-instance-id="l_med__0009" data-rotation-deg="178.743750"/>
  <path d="M 577.215 12.579 L 574.859 192.563 L 754.844 194.919 L 757.200 14.935 Z" fill="#59a14f" fill-opacity="0.68" stroke="#1f2937" stroke-width="0.45" data-part-id="m_180x180" data-instance-id="m_180x180__0001" data-rotation-deg="269.250000"/>
  <path d="M 255.215 513.201 L 99.330 423.201 L 9.330 579.086 L 165.215 669.086 Z" fill="#59a14f" fill-opacity="0.68" stroke="#1f2937" stroke-width="0.45" data-part-id="m_180x180" data-instance-id="m_180x180__0002" data-rotation-deg="150.000000"/>
  <path d="M 5.005 1265.831 L 5.005 1445.831 L 185.005 1445.831 L 185.005 1265.831 Z" fill="#59a14f" fill-opacity="0.68" stroke="#1f2937" stroke-width="0.45" data-part-id="m_180x180" data-instance-id="m_180x180__0006" data-rotation-deg="270.000000"/>
  <path d="M 647.807 753.190 L 647.807 933.190 L 827.807 933.190 L 827.807 753.190 Z" fill="#59a14f" fill-opacity="0.68" stroke="#1f2937" stroke-width="0.45" data-part-id="m_180x180" data-instance-id="m_180x180__0008" data-rotation-deg="270.000000"/>
  <path d="M 17.729 2046.212 L 197.290 2033.656 L 184.734 1854.094 L 5.172 1866.650 Z" fill="#59a14f" fill-opacity="0.68" stroke="#1f2937" stroke-width="0.45" data-part-id="m_180x180" data-instance-id="m_180x180__0010" data-rotation-deg="4.000000"/>
  <path d="M 26.782 2230.748 L 206.775 2232.319 L 208.345 2052.326 L 28.352 2050.755 Z" fill="#59a14f" fill-opacity="0.68" stroke="#1f2937" stroke-width="0.45" data-part-id="m_180x180" data-instance-id="m_180x180__0012" data-rotation-deg="-0.500000"/>
  <path d="M 1026.966 2679.217 L 1004.526 2500.621 L 825.930 2523.061 L 848.370 2701.657 Z" fill="#59a14f" fill-opacity="0.68" stroke="#1f2937" stroke-width="0.45" data-part-id="m_180x180" data-instance-id="m_180x180__0013" data-rotation-deg="97.161518"/>
  <path d="M 807.826 2016.578 L 987.271 2002.455 L 973.148 1823.010 L 793.703 1837.133 Z" fill="#59a14f" fill-opacity="0.68" stroke="#1f2937" stroke-width="0.45" data-part-id="m_180x180" data-instance-id="m_180x180__0014" data-rotation-deg="4.500000"/>
  <path d="M 983.594 1413.325 L 1161.842 1388.274 L 1136.791 1210.025 L 958.543 1235.076 Z" fill="#59a14f" fill-opacity="0.68" stroke="#1f2937" stroke-width="0.45" data-part-id="m_180x180" data-instance-id="m_180x180__0016" data-rotation-deg="8.000000"/>
  <path d="M 187.500 2995.000 L 187.501 2815.000 L 7.501 2814.999 L 7.500 2994.999 Z" fill="#59a14f" fill-opacity="0.68" stroke="#1f2937" stroke-width="0.45" data-part-id="m_180x180" data-instance-id="m_180x180__0017" data-rotation-deg="89.999831"/>
  <path d="M 188.200 855.019 L 187.518 675.020 L 7.519 675.702 L 8.201 855.701 Z" fill="#59a14f" fill-opacity="0.68" stroke="#1f2937" stroke-width="0.45" data-part-id="m_180x180" data-instance-id="m_180x180__0018" data-rotation-deg="90.217158"/>
  <path d="M 464.909 637.178 L 558.547 790.905 L 712.274 697.267 L 618.637 543.540 Z" fill="#59a14f" fill-opacity="0.68" stroke="#1f2937" stroke-width="0.45" data-part-id="m_180x180" data-instance-id="m_180x180__0026" data-rotation-deg="301.346250"/>
  <path d="M 638.587 288.245 L 490.203 390.138 L 592.096 538.522 L 740.480 436.629 Z" fill="#59a14f" fill-opacity="0.68" stroke="#1f2937" stroke-width="0.45" data-part-id="m_180x180" data-instance-id="m_180x180__0027" data-rotation-deg="214.476817"/>
  <path d="M 219.451 2456.016 L 435.688 2496.529 L 494.617 2182.002 L 278.380 2141.488 Z" fill="#f28e2b" fill-opacity="0.68" stroke="#1f2937" stroke-width="0.45" data-part-id="m_220x320" data-instance-id="m_220x320__0002" data-rotation-deg="349.388310"/>
  <path d="M 1444.992 2417.396 L 1224.992 2417.396 L 1224.992 2737.396 L 1444.992 2737.396 Z" fill="#f28e2b" fill-opacity="0.68" stroke="#1f2937" stroke-width="0.45" data-part-id="m_220x320" data-instance-id="m_220x320__0003" data-rotation-deg="180.000000"/>
  <path d="M 1257.385 2004.643 L 1037.396 2002.429 L 1034.175 2322.412 L 1254.164 2324.627 Z" fill="#f28e2b" fill-opacity="0.68" stroke="#1f2937" stroke-width="0.45" data-part-id="m_220x320" data-instance-id="m_220x320__0005" data-rotation-deg="179.423231"/>
  <path d="M 538.446 2387.978 L 758.446 2387.978 L 758.446 2067.978 L 538.446 2067.978 Z" fill="#f28e2b" fill-opacity="0.68" stroke="#1f2937" stroke-width="0.45" data-part-id="m_220x320" data-instance-id="m_220x320__0009" data-rotation-deg="0.000000"/>
  <path d="M 1432.258 1360.813 L 1212.560 1372.327 L 1229.307 1691.888 L 1449.006 1680.374 Z" fill="#f28e2b" fill-opacity="0.68" stroke="#1f2937" stroke-width="0.45" data-part-id="m_220x320" data-instance-id="m_220x320__0010" data-rotation-deg="183.000000"/>
  <path d="M 1001.321 1997.178 L 1221.316 1998.647 L 1223.452 1678.654 L 1003.457 1677.186 Z" fill="#f28e2b" fill-opacity="0.68" stroke="#1f2937" stroke-width="0.45" data-part-id="m_220x320" data-instance-id="m_220x320__0011" data-rotation-deg="-0.382500"/>
  <path d="M 213.386 1915.956 L 213.386 2135.956 L 533.386 2135.956 L 533.386 1915.956 Z" fill="#f28e2b" fill-opacity="0.68" stroke="#1f2937" stroke-width="0.45" data-part-id="m_220x320" data-instance-id="m_220x320__0013" data-rotation-deg="270.000000"/>
  <path d="M 788.448 2017.946 L 788.448 1767.946 L 538.448 1767.946 L 538.448 2017.946 Z" fill="#e15759" fill-opacity="0.68" stroke="#1f2937" stroke-width="0.45" data-part-id="m_250x250" data-instance-id="m_250x250__0001" data-rotation-deg="90.000000"/>
  <path d="M 443.914 1660.800 L 193.914 1660.800 L 193.914 1910.800 L 443.914 1910.800 Z" fill="#e15759" fill-opacity="0.68" stroke="#1f2937" stroke-width="0.45" data-part-id="m_250x250" data-instance-id="m_250x250__0003" data-rotation-deg="180.000000"/>
  <path d="M 924.067 1676.336 L 1172.675 1649.991 L 1146.330 1401.383 L 897.722 1427.728 Z" fill="#e15759" fill-opacity="0.68" stroke="#1f2937" stroke-width="0.45" data-part-id="m_250x250" data-instance-id="m_250x250__0005" data-rotation-deg="6.049173"/>
  <path d="M 472.364 1764.969 L 717.035 1713.625 L 665.691 1468.954 L 421.020 1520.298 Z" fill="#e15759" fill-opacity="0.68" stroke="#1f2937" stroke-width="0.45" data-part-id="m_250x250" data-instance-id="m_250x250__0007" data-rotation-deg="11.851500"/>
  <path d="M 1345.800 847.235 L 1096.034 858.031 L 1106.830 1107.798 L 1356.596 1097.002 Z" fill="#e15759" fill-opacity="0.68" stroke="#1f2937" stroke-width="0.45" data-part-id="m_250x250" data-instance-id="m_250x250__0008" data-rotation-deg="182.475000"/>
  <path d="M 580.751 1047.619 L 587.884 797.720 L 337.986 790.587 L 330.853 1040.486 Z" fill="#e15759" fill-opacity="0.68" stroke="#1f2937" stroke-width="0.45" data-part-id="m_250x250" data-instance-id="m_250x250__0009" data-rotation-deg="88.365000"/>
  <path d="M 1494.983 758.290 L 1494.377 508.291 L 1244.378 508.897 L 1244.984 758.896 Z" fill="#e15759" fill-opacity="0.68" stroke="#1f2937" stroke-width="0.45" data-part-id="m_250x250" data-instance-id="m_250x250__0012" data-rotation-deg="90.138938"/>
  <path d="M 662.101 1441.986 L 634.667 1193.496 L 386.177 1220.929 L 413.611 1469.420 Z" fill="#e15759" fill-opacity="0.68" stroke="#1f2937" stroke-width="0.45" data-part-id="m_250x250" data-instance-id="m_250x250__0013" data-rotation-deg="96.300000"/>
  <path d="M 1163.810 1364.965 L 1413.304 1349.053 L 1397.391 1099.560 L 1147.898 1115.472 Z" fill="#e15759" fill-opacity="0.68" stroke="#1f2937" stroke-width="0.45" data-part-id="m_250x250" data-instance-id="m_250x250__0015" data-rotation-deg="3.649375"/>
  <path d="M 837.324 1189.484 L 839.001 939.490 L 589.006 937.813 L 587.329 1187.807 Z" fill="#e15759" fill-opacity="0.68" stroke="#1f2937" stroke-width="0.45" data-part-id="m_250x250" data-instance-id="m_250x250__0017" data-rotation-deg="89.615625"/>
  <path d="M 1398.991 2742.458 L 1148.991 2742.499 L 1149.031 2992.499 L 1399.031 2992.458 Z" fill="#e15759" fill-opacity="0.68" stroke="#1f2937" stroke-width="0.45" data-part-id="m_250x250" data-instance-id="m_250x250__0018" data-rotation-deg="180.009375"/>
  <path d="M 844.099 935.730 L 850.644 1185.645 L 1100.558 1179.100 L 1094.014 929.186 Z" fill="#e15759" fill-opacity="0.68" stroke="#1f2937" stroke-width="0.45" data-part-id="m_250x250" data-instance-id="m_250x250__0019" data-rotation-deg="271.500000"/>
  <path d="M 257.500 2559.987 L 7.500 2559.987 L 7.500 2809.987 L 257.500 2809.987 Z" fill="#e15759" fill-opacity="0.68" stroke="#1f2937" stroke-width="0.45" data-part-id="m_250x250" data-instance-id="m_250x250__0020" data-rotation-deg="180.000000"/>
  <path d="M 262.523 2692.508 L 264.695 2992.500 L 464.690 2991.052 L 462.518 2691.060 Z" fill="#2ca02c" fill-opacity="0.68" stroke="#1f2937" stroke-width="0.45" data-part-id="m_300x200" data-instance-id="m_300x200__0001" data-rotation-deg="270.414858"/>
  <path d="M 35.482 2236.044 L 5.247 2534.517 L 204.229 2554.673 L 234.464 2256.201 Z" fill="#2ca02c" fill-opacity="0.68" stroke="#1f2937" stroke-width="0.45" data-part-id="m_300x200" data-instance-id="m_300x200__0003" data-rotation-deg="264.215685"/>
  <path d="M 1143.914 2994.995 L 1143.911 2694.995 L 943.911 2694.997 L 943.914 2994.997 Z" fill="#2ca02c" fill-opacity="0.68" stroke="#1f2937" stroke-width="0.45" data-part-id="m_300x200" data-instance-id="m_300x200__0004" data-rotation-deg="90.000541"/>
  <path d="M 575.260 316.036 L 561.795 16.338 L 361.997 25.315 L 375.462 325.013 Z" fill="#2ca02c" fill-opacity="0.68" stroke="#1f2937" stroke-width="0.45" data-part-id="m_300x200" data-instance-id="m_300x200__0005" data-rotation-deg="92.572510"/>
  <path d="M 160.547 106.899 L 160.455 406.899 L 360.455 406.960 L 360.546 106.960 Z" fill="#2ca02c" fill-opacity="0.68" stroke="#1f2937" stroke-width="0.45" data-part-id="m_300x200" data-instance-id="m_300x200__0007" data-rotation-deg="269.982588"/>
  <path d="M 1229.392 203.294 L 1229.392 503.294 L 1429.392 503.294 L 1429.392 203.294 Z" fill="#2ca02c" fill-opacity="0.68" stroke="#1f2937" stroke-width="0.45" data-part-id="m_300x200" data-instance-id="m_300x200__0009" data-rotation-deg="270.000000"/>
  <path d="M 627.539 2994.992 L 927.539 2994.992 L 927.539 2794.992 L 627.539 2794.992 Z" fill="#2ca02c" fill-opacity="0.68" stroke="#1f2937" stroke-width="0.45" data-part-id="m_300x200" data-instance-id="m_300x200__0012" data-rotation-deg="0.000000"/>
  <path d="M 1060.792 232.096 L 767.269 170.095 L 725.935 365.777 L 1019.458 427.778 Z" fill="#2ca02c" fill-opacity="0.68" stroke="#1f2937" stroke-width="0.45" data-part-id="m_300x200" data-instance-id="m_300x200__0014" data-rotation-deg="168.072642"/>
  <path d="M 983.802 2308.705 L 960.265 2009.630 L 760.881 2025.322 L 784.419 2324.397 Z" fill="#2ca02c" fill-opacity="0.68" stroke="#1f2937" stroke-width="0.45" data-part-id="m_300x200" data-instance-id="m_300x200__0016" data-rotation-deg="94.500000"/>
  <path d="M 734.555 727.757 L 998.860 585.832 L 904.244 409.628 L 639.938 551.553 Z" fill="#2ca02c" fill-opacity="0.68" stroke="#1f2937" stroke-width="0.45" data-part-id="m_300x200" data-instance-id="m_300x200__0017" data-rotation-deg="28.234575"/>
  <path d="M 1292.765 2091.091 L 1256.153 2388.848 L 1454.658 2413.257 L 1491.270 2115.499 Z" fill="#2ca02c" fill-opacity="0.68" stroke="#1f2937" stroke-width="0.45" data-part-id="m_300x200" data-instance-id="m_300x200__0019" data-rotation-deg="262.990042"/>
  <path d="M 950.458 1188.190 L 651.024 1206.625 L 663.315 1406.247 L 962.748 1387.812 Z" fill="#2ca02c" fill-opacity="0.68" stroke="#1f2937" stroke-width="0.45" data-part-id="m_300x200" data-instance-id="m_300x200__0020" data-rotation-deg="183.523125"/>
  <path d="M 190.360 1358.423 L 233.229 1655.345 L 431.176 1626.766 L 388.308 1329.844 Z" fill="#2ca02c" fill-opacity="0.68" stroke="#1f2937" stroke-width="0.45" data-part-id="m_300x200" data-instance-id="m_300x200__0022" data-rotation-deg="278.215425"/>
  <path d="M 674.203 1468.069 L 731.812 1762.486 L 928.090 1724.080 L 870.481 1429.664 Z" fill="#2ca02c" fill-opacity="0.68" stroke="#1f2937" stroke-width="0.45" data-part-id="m_300x200" data-instance-id="m_300x200__0028" data-rotation-deg="281.071195"/>
  <path d="M 390.494 742.999 L 551.776 490.040 L 383.137 382.519 L 221.855 635.478 Z" fill="#2ca02c" fill-opacity="0.68" stroke="#1f2937" stroke-width="0.45" data-part-id="m_300x200" data-instance-id="m_300x200__0029" data-rotation-deg="57.479096"/>
  <path d="M 1489.500 2089.822 L 1485.076 1689.847 L 1335.085 1691.506 L 1339.509 2091.481 Z" fill="#1f77b4" fill-opacity="0.68" stroke="#1f2937" stroke-width="0.45" data-part-id="m_400x150" data-instance-id="m_400x150__0001" data-rotation-deg="90.633688"/>
  <path d="M 1217.498 25.983 L 817.499 25.027 L 817.140 175.027 L 1217.139 175.982 Z" fill="#1f77b4" fill-opacity="0.68" stroke="#1f2937" stroke-width="0.45" data-part-id="m_400x150" data-instance-id="m_400x150__0006" data-rotation-deg="179.863148"/>
  <path d="M 5.005 1450.956 L 5.005 1850.956 L 155.005 1850.956 L 155.005 1450.956 Z" fill="#1f77b4" fill-opacity="0.68" stroke="#1f2937" stroke-width="0.45" data-part-id="m_400x150" data-instance-id="m_400x150__0007" data-rotation-deg="270.000000"/>
  <path d="M 1226.445 678.966 L 831.703 743.608 L 855.943 891.636 L 1250.685 826.994 Z" fill="#1f77b4" fill-opacity="0.68" stroke="#1f2937" stroke-width="0.45" data-part-id="m_400x150" data-instance-id="m_400x150__0009" data-rotation-deg="189.300000"/>
  <path d="M 157.811 1260.676 L 157.504 860.676 L 7.504 860.791 L 7.811 1260.791 Z" fill="#1f77b4" fill-opacity="0.68" stroke="#1f2937" stroke-width="0.45" data-part-id="m_400x150" data-instance-id="m_400x150__0011" data-rotation-deg="90.044063"/>
  <path d="M 1135.867 687.897 L 1223.897 297.704 L 1077.574 264.693 L 989.544 654.886 Z" fill="#1f77b4" fill-opacity="0.68" stroke="#1f2937" stroke-width="0.45" data-part-id="m_400x150" data-instance-id="m_400x150__0012" data-rotation-deg="77.286563"/>
  <path d="M 5.665 17.095 L 5.005 417.094 L 155.004 417.342 L 155.665 17.342 Z" fill="#1f77b4" fill-opacity="0.68" stroke="#1f2937" stroke-width="0.45" data-part-id="m_400x150" data-instance-id="m_400x150__0013" data-rotation-deg="269.905429"/>
  <text x="8" y="28" font-family="Arial, sans-serif" font-size="26" fill="#111827">q76_mixedmed_B_skeleton_first sheet 0 placed=59</text>
</svg>
