<svg xmlns="http://www.w3.org/2000/svg" width="1500.00mm" height="3000.00mm" viewBox="0 0 1500.0000 3000.0000">
  <!-- q69_A_forced_latest_2sheet_sp5 sheet 0 rendered from solver output placements and input outer_points -->
  <rect width="1500.0000" height="3000.0000" fill="#ffffff" stroke="#111827" stroke-width="2"/>
  <rect x="5.0000" y="5.0000" width="1490.0000" height="2990.0000" fill="none" stroke="#dc2626" stroke-width="1.5" stroke-dasharray="8,6"/>
  <path d="M 970.223 1083.785 L 964.976 1284.156 L 964.969 1284.312 L 964.958 1284.468 L 964.942 1284.623 L 964.921 1284.778 L 964.895 1284.932 L 964.864 1285.085 L 964.828 1285.237 L 964.788 1285.388 L 964.743 1285.538 L 964.694 1285.686 L 964.639 1285.832 L 964.581 1285.977 L 941.137 1341.252 L 943.821 1350.041 L 945.372 1359.098 L 945.766 1368.279 L 944.994 1377.436 L 943.071 1386.422 L 940.026 1395.092 L 935.909 1403.308 L 930.785 1410.937 L 924.738 1417.856 L 917.865 1423.955 L 910.274 1429.135 L 902.090 1433.314 L 867.447 1514.993 L 865.277 1519.476 L 862.671 1523.720 L 859.655 1527.685 L 856.261 1531.329 L 852.520 1534.618 L 848.471 1537.518 L 844.154 1540.001 L 839.610 1542.042 L 834.887 1543.621 L 830.029 1544.723 L 825.087 1545.335 L 820.107 1545.453 L 750.110 1543.620 L 748.803 1543.671 L 747.514 1543.893 L 746.265 1544.281 L 745.077 1544.828 L 743.971 1545.526 L 742.965 1546.363 L 742.077 1547.323 L 741.322 1548.392 L 740.713 1549.549 L 740.260 1550.776 L 739.972 1552.052 L 739.852 1553.355 L 731.606 1868.247 L 731.628 1869.217 L 731.743 1870.180 L 731.952 1871.128 L 732.251 1872.051 L 732.638 1872.940 L 733.110 1873.788 L 733.662 1874.586 L 734.288 1875.327 L 734.983 1876.004 L 735.741 1876.610 L 736.553 1877.140 L 737.414 1877.589 L 793.456 1903.444 L 797.757 1905.687 L 801.821 1908.337 L 805.608 1911.368 L 809.084 1914.752 L 812.216 1918.457 L 814.974 1922.448 L 817.332 1926.687 L 819.269 1931.135 L 820.765 1935.750 L 821.807 1940.488 L 822.385 1945.304 L 822.493 1950.154 L 812.639 2326.483 L 812.643 2327.137 L 812.690 2327.790 L 812.780 2328.438 L 812.912 2329.079 L 813.085 2329.710 L 813.299 2330.328 L 813.554 2330.931 L 813.847 2331.516 L 814.178 2332.081 L 814.545 2332.623 L 814.947 2333.139 L 815.382 2333.628 L 819.414 2337.877 L 819.849 2338.367 L 820.250 2338.883 L 820.617 2339.425 L 820.948 2339.989 L 821.241 2340.574 L 821.496 2341.177 L 821.710 2341.795 L 821.884 2342.426 L 822.016 2343.067 L 822.105 2343.716 L 822.152 2344.368 L 822.157 2345.023 L 819.494 2446.704 L 819.456 2447.357 L 819.374 2448.006 L 819.251 2448.649 L 819.086 2449.282 L 818.879 2449.903 L 818.633 2450.509 L 818.347 2451.098 L 818.024 2451.667 L 817.664 2452.213 L 817.269 2452.735 L 816.841 2453.230 L 816.381 2453.696 L 807.003 2462.595 L 806.514 2463.030 L 805.997 2463.432 L 805.455 2463.799 L 804.891 2464.130 L 804.306 2464.423 L 803.703 2464.677 L 803.085 2464.892 L 802.454 2465.065 L 801.813 2465.197 L 801.164 2465.287 L 800.512 2465.334 L 799.857 2465.338 L 783.196 2464.902 L 782.048 2464.938 L 780.912 2465.105 L 779.803 2465.401 L 778.734 2465.823 L 777.722 2466.364 L 776.778 2467.018 L 775.915 2467.776 L 775.144 2468.628 L 774.477 2469.562 L 773.921 2470.567 L 773.484 2471.629 L 773.171 2472.734 L 739.144 2626.220 L 738.519 2628.430 L 737.645 2630.554 L 736.533 2632.564 L 735.198 2634.432 L 733.657 2636.136 L 731.932 2637.652 L 730.043 2638.959 L 728.018 2640.042 L 725.882 2640.885 L 723.663 2641.478 L 721.390 2641.813 L 719.095 2641.884 L 589.821 2638.499 L 589.704 2638.500 L 589.588 2638.507 L 589.472 2638.521 L 589.357 2638.542 L 589.243 2638.569 L 589.131 2638.603 L 589.022 2638.644 L 588.915 2638.690 L 588.810 2638.743 L 588.709 2638.802 L 588.612 2638.867 L 588.519 2638.938 L 580.107 2645.383 L 571.428 2651.464 L 562.498 2657.169 L 553.331 2662.486 L 543.946 2667.408 L 534.359 2671.923 L 524.588 2676.025 L 514.650 2679.706 L 504.565 2682.959 L 494.349 2685.778 L 484.023 2688.159 L 473.604 2690.095 L 473.463 2695.473 L 806.749 2704.200 L 807.299 2683.208 L 814.297 2683.391 L 813.747 2704.384 L 970.693 2708.493 L 971.243 2687.501 L 978.240 2687.684 L 977.691 2708.677 L 1206.012 2714.655 L 1206.153 2709.278 L 1195.843 2706.801 L 1185.649 2703.886 L 1175.588 2700.538 L 1165.680 2696.762 L 1155.942 2692.567 L 1146.392 2687.959 L 1137.048 2682.947 L 1127.927 2677.541 L 1119.045 2671.749 L 1110.419 2665.583 L 1102.064 2659.054 L 1093.996 2652.174 L 1093.906 2652.099 L 1093.813 2652.029 L 1093.715 2651.965 L 1093.614 2651.906 L 1093.509 2651.854 L 1093.402 2651.808 L 1093.292 2651.768 L 1093.180 2651.735 L 1093.066 2651.708 L 1092.951 2651.688 L 1092.835 2651.675 L 1092.718 2651.668 L 1004.253 2649.352 L 1001.648 2649.112 L 999.096 2648.535 L 996.641 2647.629 L 994.326 2646.411 L 992.190 2644.901 L 990.269 2643.125 L 988.596 2641.114 L 987.200 2638.902 L 986.105 2636.526 L 985.329 2634.027 L 984.886 2631.449 L 984.783 2628.835 L 985.189 2613.340 L 955.199 2612.555 L 953.896 2612.435 L 952.621 2612.147 L 951.394 2611.694 L 950.236 2611.085 L 949.168 2610.330 L 948.207 2609.442 L 947.371 2608.436 L 946.673 2607.330 L 946.125 2606.142 L 945.737 2604.893 L 945.516 2603.604 L 945.464 2602.297 L 947.035 2542.317 L 947.155 2541.014 L 947.443 2539.739 L 947.896 2538.512 L 948.505 2537.354 L 949.260 2536.286 L 950.148 2535.325 L 951.154 2534.489 L 952.260 2533.791 L 953.448 2533.243 L 954.697 2532.855 L 955.986 2532.634 L 957.293 2532.582 L 987.283 2533.368 L 1005.209 1848.804 L 1005.257 1847.569 L 1005.335 1846.335 L 1005.443 1845.103 L 1005.582 1843.875 L 1005.752 1842.650 L 1005.951 1841.430 L 1006.181 1840.216 L 1006.441 1839.007 L 1006.730 1837.805 L 1007.049 1836.611 L 1007.398 1835.425 L 1007.776 1834.248 L 1138.693 1442.976 L 1139.071 1441.799 L 1139.419 1440.613 L 1139.739 1439.418 L 1140.028 1438.217 L 1140.288 1437.008 L 1140.517 1435.793 L 1140.717 1434.573 L 1140.886 1433.349 L 1141.025 1432.120 L 1141.134 1430.889 L 1141.212 1429.655 L 1141.260 1428.420 L 1144.773 1294.262 L 1143.802 1294.092 L 1142.972 1293.560 L 1142.412 1292.749 L 1142.209 1291.784 L 1142.396 1290.815 L 1142.942 1289.995 L 1143.763 1289.449 L 1144.732 1289.263 L 1145.697 1289.466 L 1146.508 1290.027 L 1147.039 1290.857 L 1147.209 1291.829 L 1201.190 1293.242 L 1201.279 1289.843 L 1201.272 1289.618 L 1201.240 1289.395 L 1201.183 1289.177 L 1201.102 1288.967 L 1200.998 1288.768 L 1200.872 1288.581 L 1200.726 1288.409 L 1200.561 1288.256 L 1200.381 1288.121 L 1200.186 1288.008 L 1199.980 1287.917 L 1199.765 1287.851 L 1192.238 1285.511 L 1185.021 1282.340 L 1178.207 1278.378 L 1171.881 1273.675 L 1166.124 1268.291 L 1161.009 1262.293 L 1156.601 1255.759 L 1152.955 1248.770 L 1150.119 1241.416 L 1148.127 1233.789 L 1147.005 1225.987 L 1146.767 1218.108 L 1164.254 550.329 L 1051.508 219.037 L 1051.417 218.756 L 1051.334 218.473 L 1051.260 218.187 L 1051.194 217.900 L 1051.137 217.610 L 1051.088 217.319 L 1051.048 217.026 L 1051.017 216.733 L 1050.994 216.439 L 1050.980 216.144 L 1050.975 215.849 L 1050.978 215.554 L 1051.706 187.757 L 1042.709 187.521 L 1042.240 205.415 L 1042.203 206.059 L 1042.124 206.700 L 1042.003 207.333 L 1041.843 207.958 L 1041.642 208.571 L 1041.402 209.170 L 1041.124 209.752 L 1040.809 210.315 L 1040.459 210.856 L 1040.074 211.374 L 1039.657 211.866 L 1039.208 212.330 L 1026.130 224.003 L 1012.124 234.545 L 997.287 243.882 L 981.723 251.949 L 965.540 258.690 L 948.852 264.057 L 931.774 268.014 L 914.425 270.533 L 896.927 271.596 L 879.402 271.196 L 861.970 269.335 L 844.755 266.027 L 827.875 261.295 L 811.449 255.172 L 795.591 247.700 L 780.412 238.931 L 766.016 228.927 L 764.752 228.018 L 763.442 227.176 L 762.090 226.403 L 760.700 225.702 L 759.275 225.073 L 757.820 224.519 L 756.338 224.042 L 754.833 223.642 L 753.309 223.321 L 751.771 223.079 L 750.223 222.917 L 748.668 222.836 L 666.712 220.690 L 665.405 220.741 L 664.116 220.963 L 662.867 221.351 L 661.679 221.898 L 660.572 222.596 L 659.567 223.433 L 658.679 224.393 L 657.924 225.462 L 657.315 226.619 L 656.862 227.846 L 656.573 229.122 L 656.454 230.425 L 655.986 248.268 L 656.038 249.575 L 656.259 250.864 L 656.647 252.114 L 657.195 253.301 L 657.893 254.408 L 658.729 255.413 L 659.690 256.301 L 660.758 257.056 L 661.916 257.665 L 663.143 258.118 L 664.419 258.407 L 665.721 258.526 L 670.719 258.657 L 678.500 259.630 L 685.942 262.102 L 692.758 265.978 L 698.687 271.110 L 703.502 277.299 L 707.016 284.309 L 709.095 291.870 L 709.659 299.691 L 708.686 307.472 L 706.214 314.913 L 702.338 321.729 L 697.207 327.659 L 691.017 332.473 L 684.007 335.987 L 676.446 338.066 L 668.625 338.630 L 663.627 338.499 L 662.320 338.550 L 661.031 338.772 L 659.782 339.160 L 658.594 339.708 L 657.487 340.405 L 656.482 341.242 L 655.594 342.202 L 654.839 343.271 L 654.230 344.428 L 653.777 345.655 L 653.488 346.931 L 653.369 348.234 L 652.845 368.227 L 652.897 369.534 L 653.118 370.823 L 653.506 372.073 L 654.053 373.260 L 654.752 374.367 L 655.588 375.372 L 656.549 376.260 L 657.617 377.015 L 658.774 377.624 L 660.002 378.077 L 661.277 378.366 L 662.580 378.485 L 667.578 378.616 L 675.359 379.589 L 682.801 382.061 L 689.617 385.937 L 695.546 391.068 L 700.360 397.258 L 703.874 404.268 L 705.953 411.829 L 706.517 419.650 L 705.545 427.430 L 703.073 434.872 L 699.197 441.688 L 694.065 447.618 L 687.876 452.432 L 680.866 455.946 L 673.305 458.025 L 665.484 458.589 L 660.486 458.458 L 659.179 458.509 L 657.890 458.731 L 656.640 459.119 L 655.452 459.666 L 654.346 460.364 L 653.340 461.201 L 652.453 462.161 L 651.698 463.230 L 651.089 464.387 L 650.636 465.614 L 650.347 466.890 L 650.227 468.193 L 649.569 493.328 L 649.621 494.635 L 649.842 495.924 L 650.230 497.174 L 650.778 498.362 L 651.476 499.468 L 652.312 500.474 L 653.273 501.361 L 654.341 502.116 L 655.498 502.725 L 656.726 503.178 L 658.001 503.467 L 659.304 503.587 L 865.233 508.979 L 878.645 510.085 L 891.848 512.686 L 904.677 516.748 L 916.971 522.222 L 928.574 529.037 L 939.341 537.109 L 949.137 546.335 L 957.838 556.601 L 965.336 567.776 L 971.534 579.720 L 976.357 592.283 L 979.742 605.307 L 981.649 618.628 L 982.051 632.079 L 972.710 988.817 L 978.418 995.534 L 983.187 1002.948 L 986.932 1010.928 L 989.587 1019.333 L 991.105 1028.017 L 991.459 1036.825 L 990.644 1045.602 L 988.674 1054.194 L 985.583 1062.449 L 981.425 1070.222 L 976.275 1077.376 Z" fill="#f28e2b" fill-opacity="0.68" stroke="#1f2937" stroke-width="0.45" data-part-id="Lv8_11612_6db" data-instance-id="Lv8_11612_6db__0001" data-rotation-deg="88.500000"/>
  <path d="M 375.045 1774.889 L 378.543 1574.480 L 378.548 1574.324 L 378.558 1574.168 L 378.573 1574.012 L 378.593 1573.857 L 378.617 1573.703 L 378.647 1573.549 L 378.681 1573.397 L 378.720 1573.246 L 378.764 1573.096 L 378.812 1572.947 L 378.865 1572.800 L 378.922 1572.655 L 401.883 1517.177 L 399.122 1508.412 L 397.492 1499.369 L 397.018 1490.192 L 397.710 1481.028 L 399.555 1472.026 L 402.524 1463.329 L 406.569 1455.078 L 411.626 1447.405 L 417.612 1440.433 L 424.433 1434.275 L 431.977 1429.028 L 440.125 1424.778 L 474.054 1342.800 L 476.185 1338.298 L 478.754 1334.031 L 481.734 1330.041 L 485.097 1326.367 L 488.809 1323.046 L 492.832 1320.110 L 497.128 1317.590 L 501.653 1315.509 L 506.363 1313.889 L 511.210 1312.745 L 516.148 1312.089 L 521.126 1311.928 L 591.136 1313.150 L 592.443 1313.087 L 593.730 1312.855 L 594.976 1312.456 L 596.159 1311.898 L 597.259 1311.190 L 598.257 1310.345 L 599.137 1309.377 L 599.882 1308.302 L 600.481 1307.139 L 600.923 1305.908 L 601.201 1304.630 L 601.309 1303.326 L 606.807 988.374 L 606.777 987.404 L 606.653 986.442 L 606.436 985.496 L 606.129 984.576 L 605.734 983.690 L 605.255 982.846 L 604.696 982.053 L 604.063 981.317 L 603.362 980.647 L 602.599 980.047 L 601.782 979.524 L 600.918 979.083 L 544.652 953.718 L 540.331 951.512 L 536.245 948.898 L 532.431 945.900 L 528.926 942.547 L 525.762 938.869 L 522.969 934.903 L 520.574 930.684 L 518.599 926.253 L 517.062 921.652 L 515.979 916.923 L 515.359 912.112 L 515.208 907.263 L 521.778 530.863 L 521.768 530.208 L 521.716 529.556 L 521.620 528.909 L 521.483 528.269 L 521.304 527.639 L 521.084 527.023 L 520.824 526.422 L 520.526 525.840 L 520.190 525.278 L 519.819 524.740 L 519.412 524.227 L 518.973 523.742 L 514.904 519.528 L 514.465 519.042 L 514.059 518.529 L 513.687 517.991 L 513.351 517.429 L 513.053 516.847 L 512.793 516.246 L 512.574 515.630 L 512.395 515.000 L 512.257 514.361 L 512.162 513.713 L 512.109 513.061 L 512.099 512.407 L 513.874 410.706 L 513.907 410.053 L 513.983 409.403 L 514.100 408.759 L 514.260 408.125 L 514.461 407.502 L 514.702 406.893 L 514.983 406.302 L 515.301 405.731 L 515.656 405.181 L 516.047 404.656 L 516.471 404.157 L 516.926 403.688 L 526.226 394.706 L 526.712 394.267 L 527.225 393.861 L 527.763 393.489 L 528.325 393.153 L 528.907 392.855 L 529.508 392.596 L 530.124 392.376 L 530.754 392.197 L 531.394 392.059 L 532.041 391.964 L 532.693 391.911 L 533.348 391.901 L 550.012 392.192 L 551.160 392.146 L 552.294 391.969 L 553.401 391.663 L 554.466 391.232 L 555.473 390.682 L 556.412 390.020 L 557.268 389.254 L 558.031 388.396 L 558.690 387.456 L 559.237 386.446 L 559.665 385.380 L 559.968 384.273 L 592.654 230.496 L 593.260 228.280 L 594.116 226.149 L 595.210 224.129 L 596.529 222.249 L 598.055 220.532 L 599.767 219.002 L 601.644 217.677 L 603.660 216.577 L 605.789 215.715 L 608.002 215.103 L 610.272 214.749 L 612.567 214.657 L 741.865 216.914 L 741.981 216.912 L 742.098 216.904 L 742.214 216.889 L 742.329 216.867 L 742.442 216.839 L 742.554 216.804 L 742.663 216.763 L 742.770 216.715 L 742.873 216.661 L 742.974 216.601 L 743.070 216.535 L 743.163 216.464 L 751.518 209.945 L 760.144 203.789 L 769.024 198.007 L 778.144 192.609 L 787.486 187.606 L 797.033 183.007 L 806.768 178.820 L 816.673 175.052 L 826.730 171.711 L 836.920 168.803 L 847.225 166.333 L 857.627 164.305 L 857.721 158.927 L 524.372 153.108 L 524.005 174.105 L 517.006 173.983 L 517.373 152.986 L 360.397 150.246 L 360.030 171.243 L 353.031 171.121 L 353.398 150.124 L 125.032 146.138 L 124.939 151.516 L 135.270 153.903 L 145.489 156.729 L 155.579 159.989 L 165.520 163.678 L 175.294 167.789 L 184.884 172.313 L 194.271 177.243 L 203.439 182.570 L 212.371 188.284 L 221.051 194.374 L 229.462 200.830 L 237.590 207.640 L 237.680 207.714 L 237.774 207.783 L 237.873 207.846 L 237.974 207.904 L 238.079 207.955 L 238.187 208.000 L 238.297 208.039 L 238.410 208.071 L 238.524 208.097 L 238.639 208.116 L 238.755 208.129 L 238.872 208.134 L 327.354 209.678 L 329.961 209.895 L 332.518 210.450 L 334.980 211.334 L 337.306 212.532 L 339.455 214.023 L 341.392 215.782 L 343.082 217.779 L 344.498 219.979 L 345.614 222.345 L 346.411 224.837 L 346.877 227.411 L 347.002 230.024 L 346.732 245.522 L 376.727 246.046 L 378.031 246.154 L 379.309 246.431 L 380.540 246.874 L 381.703 247.472 L 382.778 248.218 L 383.746 249.098 L 384.591 250.096 L 385.299 251.196 L 385.857 252.379 L 386.256 253.625 L 386.488 254.912 L 386.551 256.219 L 385.504 316.210 L 385.396 317.513 L 385.118 318.791 L 384.676 320.022 L 384.077 321.185 L 383.331 322.260 L 382.452 323.228 L 381.454 324.074 L 380.354 324.781 L 379.170 325.339 L 377.925 325.738 L 376.637 325.971 L 375.331 326.033 L 345.335 325.510 L 333.384 1010.204 L 333.347 1011.440 L 333.280 1012.674 L 333.182 1013.906 L 333.054 1015.136 L 332.895 1016.362 L 332.706 1017.584 L 332.487 1018.800 L 332.238 1020.011 L 331.959 1021.216 L 331.650 1022.413 L 331.312 1023.602 L 330.944 1024.782 L 203.446 1417.181 L 203.079 1418.362 L 202.741 1419.551 L 202.432 1420.748 L 202.153 1421.952 L 201.904 1423.163 L 201.685 1424.380 L 201.496 1425.601 L 201.337 1426.828 L 201.209 1428.057 L 201.111 1429.289 L 201.044 1430.524 L 201.007 1431.759 L 198.665 1565.942 L 199.637 1566.104 L 200.472 1566.629 L 201.039 1567.435 L 201.250 1568.399 L 201.072 1569.368 L 200.532 1570.194 L 199.716 1570.747 L 198.749 1570.941 L 197.783 1570.746 L 196.967 1570.193 L 196.428 1569.367 L 196.250 1568.397 L 142.259 1567.455 L 142.199 1570.854 L 142.208 1571.079 L 142.242 1571.302 L 142.301 1571.519 L 142.384 1571.729 L 142.490 1571.928 L 142.617 1572.113 L 142.765 1572.283 L 142.931 1572.436 L 143.113 1572.568 L 143.308 1572.680 L 143.515 1572.769 L 143.731 1572.834 L 151.278 1575.107 L 158.522 1578.215 L 165.371 1582.117 L 171.737 1586.765 L 177.541 1592.099 L 182.708 1598.052 L 187.173 1604.547 L 190.879 1611.504 L 193.780 1618.833 L 195.839 1626.442 L 197.029 1634.234 L 197.335 1642.111 L 185.677 2310.018 L 301.309 2640.313 L 301.403 2640.593 L 301.488 2640.875 L 301.564 2641.160 L 301.633 2641.447 L 301.692 2641.736 L 301.744 2642.027 L 301.786 2642.319 L 301.820 2642.612 L 301.846 2642.907 L 301.862 2643.201 L 301.870 2643.496 L 301.869 2643.791 L 301.384 2671.594 L 310.383 2671.751 L 310.695 2653.853 L 310.727 2653.209 L 310.801 2652.568 L 310.915 2651.933 L 311.071 2651.307 L 311.266 2650.692 L 311.501 2650.092 L 311.774 2649.507 L 312.084 2648.941 L 312.429 2648.397 L 312.810 2647.876 L 313.223 2647.380 L 313.667 2646.912 L 326.643 2635.125 L 340.557 2624.462 L 355.311 2614.996 L 370.804 2606.793 L 386.928 2599.912 L 403.568 2594.399 L 420.611 2590.293 L 437.937 2587.623 L 455.425 2586.407 L 472.954 2586.654 L 490.401 2588.362 L 507.644 2591.520 L 524.564 2596.104 L 541.043 2602.084 L 556.966 2609.418 L 572.222 2618.054 L 586.704 2627.932 L 587.976 2628.830 L 589.293 2629.660 L 590.652 2630.421 L 592.048 2631.111 L 593.478 2631.727 L 594.938 2632.268 L 596.424 2632.732 L 597.932 2633.119 L 599.459 2633.427 L 600.999 2633.655 L 602.549 2633.804 L 604.105 2633.871 L 686.076 2635.302 L 687.383 2635.239 L 688.670 2635.007 L 689.915 2634.608 L 691.099 2634.050 L 692.199 2633.342 L 693.197 2632.497 L 694.077 2631.529 L 694.822 2630.454 L 695.421 2629.291 L 695.863 2628.060 L 696.141 2626.782 L 696.249 2625.478 L 696.560 2607.631 L 696.498 2606.325 L 696.265 2605.038 L 695.866 2603.792 L 695.308 2602.609 L 694.601 2601.508 L 693.755 2600.510 L 692.787 2599.631 L 691.712 2598.885 L 690.549 2598.286 L 689.318 2597.844 L 688.040 2597.567 L 686.737 2597.458 L 681.737 2597.371 L 673.948 2596.466 L 666.485 2594.059 L 659.636 2590.243 L 653.662 2585.163 L 648.794 2579.016 L 645.219 2572.037 L 643.074 2564.495 L 642.441 2556.679 L 643.346 2548.890 L 645.753 2541.427 L 649.569 2534.577 L 654.649 2528.603 L 660.796 2523.736 L 667.775 2520.160 L 675.318 2518.015 L 683.133 2517.383 L 688.133 2517.470 L 689.439 2517.408 L 690.726 2517.175 L 691.972 2516.776 L 693.155 2516.218 L 694.255 2515.511 L 695.254 2514.665 L 696.133 2513.697 L 696.879 2512.622 L 697.478 2511.459 L 697.920 2510.228 L 698.197 2508.950 L 698.306 2507.647 L 698.655 2487.650 L 698.592 2486.343 L 698.359 2485.056 L 697.960 2483.810 L 697.403 2482.627 L 696.695 2481.527 L 695.850 2480.528 L 694.881 2479.649 L 693.807 2478.903 L 692.644 2478.304 L 691.413 2477.862 L 690.134 2477.585 L 688.831 2477.477 L 683.832 2477.389 L 676.043 2476.485 L 668.580 2474.078 L 661.730 2470.261 L 655.756 2465.182 L 650.888 2459.034 L 647.313 2452.055 L 645.168 2444.513 L 644.536 2436.697 L 645.440 2428.908 L 647.847 2421.445 L 651.664 2414.596 L 656.743 2408.622 L 662.891 2403.754 L 669.870 2400.179 L 677.412 2398.034 L 685.228 2397.401 L 690.227 2397.489 L 691.534 2397.426 L 692.821 2397.193 L 694.066 2396.794 L 695.250 2396.236 L 696.350 2395.529 L 697.348 2394.684 L 698.228 2393.715 L 698.973 2392.641 L 699.572 2391.478 L 700.014 2390.247 L 700.292 2388.968 L 700.400 2387.665 L 700.839 2362.525 L 700.776 2361.218 L 700.543 2359.931 L 700.145 2358.685 L 699.587 2357.502 L 698.879 2356.402 L 698.034 2355.403 L 697.065 2354.524 L 695.991 2353.778 L 694.828 2353.179 L 693.597 2352.737 L 692.318 2352.460 L 691.015 2352.352 L 485.046 2348.756 L 471.626 2347.767 L 458.400 2345.282 L 445.536 2341.332 L 433.196 2335.966 L 421.533 2329.252 L 410.696 2321.274 L 400.820 2312.134 L 392.029 2301.945 L 384.435 2290.835 L 378.132 2278.946 L 373.200 2266.425 L 369.701 2253.431 L 367.679 2240.127 L 367.159 2226.680 L 373.387 1869.874 L 367.620 1863.207 L 362.787 1855.836 L 358.972 1847.889 L 356.244 1839.506 L 354.650 1830.837 L 354.219 1822.032 L 354.957 1813.248 L 356.853 1804.640 L 359.872 1796.358 L 363.961 1788.549 L 369.049 1781.350 Z" fill="#f28e2b" fill-opacity="0.68" stroke="#1f2937" stroke-width="0.45" data-part-id="Lv8_11612_6db" data-instance-id="Lv8_11612_6db__0002" data-rotation-deg="269.000000"/>
  <path d="M 664.017 1386.002 L 667.621 1380.051 L 672.017 1374.659 L 677.118 1369.929 L 682.827 1365.953 L 689.032 1362.808 L 695.614 1360.554 L 702.445 1359.236 L 709.392 1358.879 L 716.322 1359.489 L 723.100 1361.055 L 729.596 1363.547 L 735.682 1366.917 L 851.699 1442.140 L 856.832 1444.850 L 862.365 1446.604 L 868.122 1447.346 L 873.919 1447.052 L 879.571 1445.731 L 884.898 1443.426 L 889.731 1440.210 L 893.914 1436.186 L 897.314 1431.482 L 899.824 1426.248 L 901.362 1420.651 L 901.880 1414.870 L 901.880 1388.870 L 901.880 1346.870 L 901.880 1219.870 L 901.880 1174.870 L 901.880 1027.870 L 901.880 1005.870 L 901.880 959.870 L 901.362 954.089 L 899.824 948.492 L 897.314 943.258 L 893.914 938.554 L 889.731 934.530 L 884.898 931.314 L 879.571 929.009 L 873.919 927.689 L 868.122 927.395 L 862.365 928.136 L 856.832 929.890 L 851.699 932.601 L 735.682 1007.824 L 729.596 1011.193 L 723.100 1013.685 L 716.322 1015.251 L 709.392 1015.862 L 702.445 1015.505 L 695.614 1014.186 L 689.032 1011.933 L 682.827 1008.788 L 677.118 1004.811 L 672.017 1000.081 L 667.621 994.689 L 664.017 988.739 L 611.880 887.370 L 611.880 1152.870 L 611.880 1201.870 L 611.880 1345.125 L 611.880 1487.370 Z" fill="#edc948" fill-opacity="0.68" stroke="#1f2937" stroke-width="0.45" data-part-id="Lv8_15348_6db_GRAVIR" data-instance-id="Lv8_15348_6db_GRAVIR__0001" data-rotation-deg="90.000000"/>
  <path d="M 521.785 2940.364 L 515.835 2936.759 L 510.442 2932.364 L 505.712 2927.262 L 501.736 2921.554 L 498.591 2915.348 L 496.337 2908.767 L 495.019 2901.936 L 494.662 2894.988 L 495.272 2888.058 L 496.839 2881.280 L 499.331 2874.785 L 502.700 2868.698 L 577.923 2752.681 L 580.633 2747.548 L 582.387 2742.015 L 583.129 2736.258 L 582.835 2730.461 L 581.514 2724.809 L 579.209 2719.482 L 575.994 2714.650 L 571.969 2710.467 L 567.265 2707.066 L 562.032 2704.557 L 556.435 2703.018 L 550.653 2702.500 L 524.653 2702.500 L 482.653 2702.500 L 355.653 2702.500 L 310.653 2702.500 L 163.653 2702.500 L 141.653 2702.500 L 95.653 2702.500 L 89.872 2703.018 L 84.275 2704.557 L 79.041 2707.066 L 74.337 2710.467 L 70.313 2714.650 L 67.098 2719.482 L 64.793 2724.809 L 63.472 2730.461 L 63.178 2736.258 L 63.920 2742.015 L 65.674 2747.548 L 68.384 2752.681 L 143.607 2868.698 L 146.976 2874.785 L 149.468 2881.280 L 151.035 2888.058 L 151.645 2894.988 L 151.288 2901.936 L 149.970 2908.767 L 147.716 2915.348 L 144.571 2921.554 L 140.595 2927.262 L 135.865 2932.364 L 130.472 2936.759 L 124.522 2940.364 L 23.153 2992.500 L 288.653 2992.500 L 337.653 2992.500 L 480.908 2992.500 L 623.153 2992.500 Z" fill="#edc948" fill-opacity="0.68" stroke="#1f2937" stroke-width="0.45" data-part-id="Lv8_15348_6db_GRAVIR" data-instance-id="Lv8_15348_6db_GRAVIR__0002" data-rotation-deg="180.000000"/>
  <path d="M 653.497 1859.538 L 649.893 1865.488 L 645.497 1870.881 L 640.396 1875.611 L 634.687 1879.587 L 628.482 1882.732 L 621.900 1884.985 L 615.070 1886.304 L 608.122 1886.661 L 601.192 1886.051 L 594.414 1884.484 L 587.919 1881.992 L 581.832 1878.623 L 465.815 1803.400 L 460.682 1800.689 L 455.149 1798.935 L 449.392 1798.194 L 443.595 1798.488 L 437.943 1799.808 L 432.616 1802.113 L 427.784 1805.329 L 423.601 1809.353 L 420.200 1814.057 L 417.691 1819.291 L 416.152 1824.888 L 415.634 1830.669 L 415.634 1856.669 L 415.634 1898.669 L 415.634 2025.669 L 415.634 2070.669 L 415.634 2217.669 L 415.634 2239.669 L 415.634 2285.669 L 416.152 2291.451 L 417.691 2297.047 L 420.200 2302.281 L 423.601 2306.985 L 427.784 2311.009 L 432.616 2314.225 L 437.943 2316.530 L 443.595 2317.851 L 449.392 2318.145 L 455.149 2317.403 L 460.682 2315.649 L 465.815 2312.939 L 581.832 2237.716 L 587.919 2234.347 L 594.414 2231.855 L 601.192 2230.288 L 608.122 2229.678 L 615.070 2230.035 L 621.900 2231.353 L 628.482 2233.607 L 634.687 2236.752 L 640.396 2240.728 L 645.497 2245.458 L 649.893 2250.850 L 653.497 2256.801 L 705.634 2358.169 L 705.634 2092.669 L 705.634 2043.669 L 705.634 1900.415 L 705.634 1758.169 Z" fill="#edc948" fill-opacity="0.68" stroke="#1f2937" stroke-width="0.45" data-part-id="Lv8_15348_6db_GRAVIR" data-instance-id="Lv8_15348_6db_GRAVIR__0003" data-rotation-deg="270.000000"/>
  <text x="8" y="28" font-family="Arial, sans-serif" font-size="26" fill="#111827">q69_A_forced_latest_2sheet_sp5 sheet 0 placed=5</text>
</svg>
