<svg xmlns="http://www.w3.org/2000/svg" width="1500.00mm" height="3000.00mm" viewBox="0 0 1500.0000 3000.0000">
  <!-- Q39 B3 sheet 0 ORIGINAL contours -->
  <rect width="1500.0000" height="3000.0000" fill="#ffffff" stroke="#000000" stroke-width="2"/>
  <path d="M 1451.441 1770.101 L 1461.441 1760.101 L 1461.441 1720.101 L 1456.441 1720.101 L 1411.441 1765.101 L 1411.441 1770.101 Z" fill="#f28e2b" fill-opacity="0.7" stroke="#222" stroke-width="0.5"/>
  <path d="M 50.153 538.033 L 40.153 528.033 L 0.153 528.033 L 0.153 533.033 L 45.153 578.033 L 50.153 578.033 Z" fill="#f28e2b" fill-opacity="0.7" stroke="#222" stroke-width="0.5"/>
  <path d="M 52.719 1925.697 L 42.719 1915.697 L 2.719 1915.697 L 2.719 1920.697 L 47.719 1965.697 L 52.719 1965.697 Z" fill="#f28e2b" fill-opacity="0.7" stroke="#222" stroke-width="0.5"/>
  <path d="M 1381.863 2410.404 L 1391.863 2420.404 L 1431.863 2420.404 L 1431.863 2415.404 L 1386.863 2370.404 L 1381.863 2370.404 Z" fill="#f28e2b" fill-opacity="0.7" stroke="#222" stroke-width="0.5"/>
  <path d="M 165.121 1004.393 L 155.121 994.393 L 115.121 994.393 L 115.121 999.393 L 160.121 1044.393 L 165.121 1044.393 Z" fill="#f28e2b" fill-opacity="0.7" stroke="#222" stroke-width="0.5"/>
  <path d="M 213.173 817.768 L 203.173 807.768 L 163.173 807.768 L 163.173 812.768 L 208.173 857.768 L 213.173 857.768 Z" fill="#f28e2b" fill-opacity="0.7" stroke="#222" stroke-width="0.5"/>
  <path d="M 72.073 1100.119 L 82.073 1110.119 L 122.073 1110.119 L 122.073 1105.119 L 77.073 1060.119 L 72.073 1060.119 Z" fill="#f28e2b" fill-opacity="0.7" stroke="#222" stroke-width="0.5"/>
  <path d="M 63.924 1379.285 L 73.924 1369.285 L 73.924 1329.285 L 68.924 1329.285 L 23.924 1374.285 L 23.924 1379.285 Z" fill="#f28e2b" fill-opacity="0.7" stroke="#222" stroke-width="0.5"/>
  <path d="M 125.406 1045.892 L 115.406 1055.892 L 115.406 1095.892 L 120.406 1095.892 L 165.406 1050.892 L 165.406 1045.892 Z" fill="#f28e2b" fill-opacity="0.7" stroke="#222" stroke-width="0.5"/>
  <path d="M 170.644 1053.861 L 180.644 1063.861 L 220.644 1063.861 L 220.644 1058.861 L 175.644 1013.861 L 170.644 1013.861 Z" fill="#f28e2b" fill-opacity="0.7" stroke="#222" stroke-width="0.5"/>
  <path d="M 1421.751 621.638 L 1431.751 631.638 L 1471.751 631.638 L 1471.751 626.638 L 1426.751 581.638 L 1421.751 581.638 Z" fill="#f28e2b" fill-opacity="0.7" stroke="#222" stroke-width="0.5"/>
  <path d="M 1304.598 2159.332 L 1387.798 2159.332 L 1393.781 2158.606 L 1399.416 2156.469 L 1404.376 2153.045 L 1408.373 2148.534 L 1411.174 2143.197 L 1412.616 2137.346 L 1412.616 2131.319 L 1411.174 2125.467 L 1408.373 2120.131 L 1404.376 2115.620 L 1399.416 2112.196 L 1393.781 2110.059 L 1387.798 2109.332 L 1300.006 2109.332 L 1322.062 2123.966 L 1322.583 2124.362 L 1323.047 2124.823 L 1323.446 2125.341 L 1323.775 2125.906 L 1324.028 2126.510 L 1324.199 2127.141 L 1324.286 2127.789 L 1324.289 2128.443 L 1324.205 2129.092 L 1324.038 2129.724 L 1323.790 2130.329 L 1323.465 2130.897 Z" fill="#76b7b2" fill-opacity="0.7" stroke="#222" stroke-width="0.5"/>
  <path d="M 1478.708 2248.633 L 1478.708 2165.433 L 1477.981 2159.450 L 1475.844 2153.815 L 1472.421 2148.855 L 1467.909 2144.859 L 1462.573 2142.058 L 1456.721 2140.616 L 1450.694 2140.616 L 1444.843 2142.058 L 1439.506 2144.859 L 1434.995 2148.855 L 1431.571 2153.815 L 1429.434 2159.450 L 1428.708 2165.433 L 1428.708 2253.225 L 1443.341 2231.169 L 1443.738 2230.649 L 1444.199 2230.185 L 1444.716 2229.785 L 1445.282 2229.456 L 1445.885 2229.204 L 1446.516 2229.033 L 1447.164 2228.945 L 1447.819 2228.943 L 1448.467 2229.026 L 1449.100 2229.193 L 1449.705 2229.442 L 1450.272 2229.767 Z" fill="#76b7b2" fill-opacity="0.7" stroke="#222" stroke-width="0.5"/>
  <path d="M 36.691 642.803 L 36.691 726.003 L 37.417 731.985 L 39.554 737.621 L 42.978 742.581 L 47.489 746.577 L 52.825 749.378 L 58.677 750.820 L 64.704 750.820 L 70.556 749.378 L 75.892 746.577 L 80.403 742.581 L 83.827 737.621 L 85.964 731.985 L 86.691 726.003 L 86.691 638.211 L 72.057 660.267 L 71.660 660.787 L 71.200 661.251 L 70.682 661.651 L 70.117 661.980 L 69.513 662.232 L 68.882 662.403 L 68.234 662.491 L 67.580 662.493 L 66.931 662.410 L 66.299 662.242 L 65.694 661.994 L 65.126 661.669 Z" fill="#76b7b2" fill-opacity="0.7" stroke="#222" stroke-width="0.5"/>
  <path d="M 827.781 2713.835 L 910.981 2713.835 L 916.964 2713.109 L 922.599 2710.972 L 927.559 2707.548 L 931.556 2703.037 L 934.356 2697.700 L 935.799 2691.849 L 935.799 2685.822 L 934.356 2679.970 L 931.556 2674.634 L 927.559 2670.122 L 922.599 2666.699 L 916.964 2664.562 L 910.981 2663.835 L 823.189 2663.835 L 845.245 2678.469 L 845.765 2678.865 L 846.229 2679.326 L 846.629 2679.844 L 846.958 2680.409 L 847.210 2681.013 L 847.382 2681.644 L 847.469 2682.292 L 847.471 2682.946 L 847.388 2683.595 L 847.221 2684.227 L 846.973 2684.832 L 846.647 2685.400 Z" fill="#76b7b2" fill-opacity="0.7" stroke="#222" stroke-width="0.5"/>
  <path d="M 25.696 1381.153 L 25.696 1464.353 L 26.423 1470.336 L 28.560 1475.971 L 31.984 1480.931 L 36.495 1484.928 L 41.831 1487.729 L 47.683 1489.171 L 53.710 1489.171 L 59.562 1487.729 L 64.898 1484.928 L 69.409 1480.931 L 72.833 1475.971 L 74.970 1470.336 L 75.696 1464.353 L 75.696 1376.561 L 61.063 1398.617 L 60.666 1399.138 L 60.205 1399.602 L 59.688 1400.001 L 59.122 1400.330 L 58.519 1400.583 L 57.888 1400.754 L 57.240 1400.841 L 56.586 1400.844 L 55.937 1400.760 L 55.305 1400.593 L 54.700 1400.345 L 54.132 1400.020 Z" fill="#76b7b2" fill-opacity="0.7" stroke="#222" stroke-width="0.5"/>
  <path d="M 1448.969 2020.862 L 1448.969 2104.062 L 1449.696 2110.045 L 1451.833 2115.680 L 1455.256 2120.640 L 1459.768 2124.637 L 1465.104 2127.437 L 1470.956 2128.880 L 1476.983 2128.880 L 1482.834 2127.437 L 1488.171 2124.637 L 1492.682 2120.640 L 1496.106 2115.680 L 1498.243 2110.045 L 1498.969 2104.062 L 1498.969 2016.270 L 1484.336 2038.326 L 1483.939 2038.846 L 1483.478 2039.310 L 1482.961 2039.710 L 1482.395 2040.039 L 1481.792 2040.291 L 1481.161 2040.463 L 1480.512 2040.550 L 1479.858 2040.552 L 1479.210 2040.469 L 1478.577 2040.302 L 1477.972 2040.054 L 1477.405 2039.728 Z" fill="#76b7b2" fill-opacity="0.7" stroke="#222" stroke-width="0.5"/>
  <path d="M 1411.822 2061.953 L 1358.114 2061.953 L 1352.290 2062.720 L 1346.864 2064.968 L 1342.204 2068.543 L 1338.628 2073.203 L 1336.381 2078.630 L 1335.614 2084.453 L 1336.381 2090.277 L 1338.628 2095.703 L 1342.204 2100.363 L 1346.864 2103.939 L 1352.290 2106.186 L 1358.114 2106.953 L 1411.822 2106.953 L 1441.822 2106.953 L 1441.822 2061.953 Z" fill="#b07aa1" fill-opacity="0.7" stroke="#222" stroke-width="0.5"/>
  <path d="M 1468.006 2280.368 L 1414.298 2280.368 L 1408.475 2281.135 L 1403.048 2283.383 L 1398.389 2286.958 L 1394.813 2291.618 L 1392.565 2297.045 L 1391.798 2302.868 L 1392.565 2308.692 L 1394.813 2314.118 L 1398.389 2318.778 L 1403.048 2322.354 L 1408.475 2324.601 L 1414.298 2325.368 L 1468.006 2325.368 L 1498.006 2325.368 L 1498.006 2280.368 Z" fill="#b07aa1" fill-opacity="0.7" stroke="#222" stroke-width="0.5"/>
  <path d="M 1454.267 1203.498 L 1454.267 1257.206 L 1455.034 1263.029 L 1457.282 1268.456 L 1460.857 1273.116 L 1465.517 1276.691 L 1470.944 1278.939 L 1476.767 1279.706 L 1482.591 1278.939 L 1488.017 1276.691 L 1492.677 1273.116 L 1496.253 1268.456 L 1498.500 1263.029 L 1499.267 1257.206 L 1499.267 1203.498 L 1499.267 1173.498 L 1454.267 1173.498 Z" fill="#b07aa1" fill-opacity="0.7" stroke="#222" stroke-width="0.5"/>
  <path d="M 1456.278 849.444 L 1456.278 795.736 L 1455.511 789.913 L 1453.264 784.486 L 1449.688 779.826 L 1445.028 776.251 L 1439.602 774.003 L 1433.778 773.236 L 1427.955 774.003 L 1422.528 776.251 L 1417.868 779.826 L 1414.293 784.486 L 1412.045 789.913 L 1411.278 795.736 L 1411.278 849.444 L 1411.278 879.444 L 1456.278 879.444 Z" fill="#b07aa1" fill-opacity="0.7" stroke="#222" stroke-width="0.5"/>
  <path d="M 152.158 2881.170 L 152.158 2827.462 L 151.391 2821.639 L 149.144 2816.212 L 145.568 2811.552 L 140.908 2807.977 L 135.482 2805.729 L 129.658 2804.962 L 123.835 2805.729 L 118.408 2807.977 L 113.748 2811.552 L 110.173 2816.212 L 107.925 2821.639 L 107.158 2827.462 L 107.158 2881.170 L 107.158 2911.170 L 152.158 2911.170 Z" fill="#b07aa1" fill-opacity="0.7" stroke="#222" stroke-width="0.5"/>
  <path d="M 1475.464 61.823 L 1485.464 61.823 L 1486.769 61.737 L 1488.052 61.482 L 1489.291 61.062 L 1490.464 60.483 L 1491.552 59.757 L 1492.535 58.894 L 1493.398 57.911 L 1494.124 56.823 L 1494.703 55.650 L 1495.123 54.411 L 1495.378 53.128 L 1495.464 51.823 L 1495.464 17.823 L 1465.464 17.823 L 1465.464 51.823 L 1465.550 53.128 L 1465.805 54.411 L 1466.225 55.650 L 1466.804 56.823 L 1467.531 57.911 L 1468.393 58.894 L 1469.376 59.757 L 1470.464 60.483 L 1471.637 61.062 L 1472.876 61.482 L 1474.159 61.737 Z" fill="#59a14f" fill-opacity="0.7" stroke="#222" stroke-width="0.5"/>
  <path d="M 30.878 1029.430 L 20.878 1029.430 L 19.573 1029.515 L 18.290 1029.770 L 17.051 1030.191 L 15.878 1030.769 L 14.790 1031.496 L 13.807 1032.359 L 12.944 1033.342 L 12.218 1034.430 L 11.639 1035.603 L 11.219 1036.841 L 10.963 1038.124 L 10.878 1039.430 L 10.878 1073.430 L 40.878 1073.430 L 40.878 1039.430 L 40.792 1038.124 L 40.537 1036.841 L 40.117 1035.603 L 39.538 1034.430 L 38.811 1033.342 L 37.949 1032.359 L 36.965 1031.496 L 35.878 1030.769 L 34.705 1030.191 L 33.466 1029.770 L 32.183 1029.515 Z" fill="#59a14f" fill-opacity="0.7" stroke="#222" stroke-width="0.5"/>
  <path d="M 62.344 2287.591 L 72.344 2287.591 L 73.650 2287.506 L 74.933 2287.250 L 76.171 2286.830 L 77.344 2286.251 L 78.432 2285.525 L 79.415 2284.662 L 80.278 2283.679 L 81.005 2282.591 L 81.583 2281.418 L 82.004 2280.179 L 82.259 2278.896 L 82.344 2277.591 L 82.344 2243.591 L 52.344 2243.591 L 52.344 2277.591 L 52.430 2278.896 L 52.685 2280.179 L 53.106 2281.418 L 53.684 2282.591 L 54.411 2283.679 L 55.273 2284.662 L 56.257 2285.525 L 57.344 2286.251 L 58.518 2286.830 L 59.756 2287.250 L 61.039 2287.506 Z" fill="#59a14f" fill-opacity="0.7" stroke="#222" stroke-width="0.5"/>
  <path d="M 1477.500 876.778 L 1467.500 876.778 L 1466.195 876.863 L 1464.912 877.119 L 1463.674 877.539 L 1462.500 878.118 L 1461.413 878.844 L 1460.429 879.707 L 1459.567 880.690 L 1458.840 881.778 L 1458.262 882.951 L 1457.841 884.190 L 1457.586 885.473 L 1457.500 886.778 L 1457.500 920.778 L 1487.500 920.778 L 1487.500 886.778 L 1487.415 885.473 L 1487.160 884.190 L 1486.739 882.951 L 1486.161 881.778 L 1485.434 880.690 L 1484.572 879.707 L 1483.588 878.844 L 1482.500 878.118 L 1481.327 877.539 L 1480.089 877.119 L 1478.806 876.863 Z" fill="#59a14f" fill-opacity="0.7" stroke="#222" stroke-width="0.5"/>
  <path d="M 1452.813 152.084 L 1452.813 162.084 L 1452.899 163.389 L 1453.154 164.672 L 1453.575 165.911 L 1454.153 167.084 L 1454.880 168.171 L 1455.742 169.155 L 1456.726 170.017 L 1457.813 170.744 L 1458.987 171.323 L 1460.225 171.743 L 1461.508 171.998 L 1462.813 172.084 L 1496.813 172.084 L 1496.813 142.084 L 1462.813 142.084 L 1461.508 142.169 L 1460.225 142.425 L 1458.987 142.845 L 1457.813 143.424 L 1456.726 144.150 L 1455.742 145.013 L 1454.880 145.996 L 1454.153 147.084 L 1453.575 148.257 L 1453.154 149.496 L 1452.899 150.779 Z" fill="#59a14f" fill-opacity="0.7" stroke="#222" stroke-width="0.5"/>
  <path d="M 53.379 2207.729 L 53.379 2217.729 L 53.465 2219.034 L 53.720 2220.317 L 54.140 2221.556 L 54.719 2222.729 L 55.446 2223.817 L 56.308 2224.800 L 57.292 2225.663 L 58.379 2226.389 L 59.552 2226.968 L 60.791 2227.388 L 62.074 2227.644 L 63.379 2227.729 L 97.379 2227.729 L 97.379 2197.729 L 63.379 2197.729 L 62.074 2197.815 L 60.791 2198.070 L 59.552 2198.490 L 58.379 2199.069 L 57.292 2199.796 L 56.308 2200.658 L 55.446 2201.642 L 54.719 2202.729 L 54.140 2203.902 L 53.720 2205.141 L 53.465 2206.424 Z" fill="#59a14f" fill-opacity="0.7" stroke="#222" stroke-width="0.5"/>
  <path d="M 1485.447 1528.132 L 1475.447 1528.132 L 1474.142 1528.218 L 1472.859 1528.473 L 1471.620 1528.893 L 1470.447 1529.472 L 1469.359 1530.198 L 1468.376 1531.061 L 1467.513 1532.044 L 1466.787 1533.132 L 1466.208 1534.305 L 1465.788 1535.544 L 1465.533 1536.827 L 1465.447 1538.132 L 1465.447 1572.132 L 1495.447 1572.132 L 1495.447 1538.132 L 1495.361 1536.827 L 1495.106 1535.544 L 1494.686 1534.305 L 1494.107 1533.132 L 1493.380 1532.044 L 1492.518 1531.061 L 1491.535 1530.198 L 1490.447 1529.472 L 1489.274 1528.893 L 1488.035 1528.473 L 1486.752 1528.218 Z" fill="#59a14f" fill-opacity="0.7" stroke="#222" stroke-width="0.5"/>
  <path d="M 135.085 812.120 L 125.085 812.120 L 123.779 812.206 L 122.497 812.461 L 121.258 812.881 L 120.085 813.460 L 118.997 814.187 L 118.014 815.049 L 117.151 816.033 L 116.424 817.120 L 115.846 818.293 L 115.425 819.532 L 115.170 820.815 L 115.085 822.120 L 115.085 856.120 L 145.085 856.120 L 145.085 822.120 L 144.999 820.815 L 144.744 819.532 L 144.324 818.293 L 143.745 817.120 L 143.018 816.033 L 142.156 815.049 L 141.172 814.187 L 140.085 813.460 L 138.912 812.881 L 137.673 812.461 L 136.390 812.206 Z" fill="#59a14f" fill-opacity="0.7" stroke="#222" stroke-width="0.5"/>
  <path d="M 8.443 1301.261 L 8.443 1311.261 L 8.529 1312.566 L 8.784 1313.849 L 9.205 1315.088 L 9.783 1316.261 L 10.510 1317.349 L 11.372 1318.332 L 12.356 1319.195 L 13.443 1319.921 L 14.617 1320.500 L 15.855 1320.920 L 17.138 1321.176 L 18.443 1321.261 L 52.443 1321.261 L 52.443 1291.261 L 18.443 1291.261 L 17.138 1291.347 L 15.855 1291.602 L 14.617 1292.022 L 13.443 1292.601 L 12.356 1293.328 L 11.372 1294.190 L 10.510 1295.174 L 9.783 1296.261 L 9.205 1297.434 L 8.784 1298.673 L 8.529 1299.956 Z" fill="#59a14f" fill-opacity="0.7" stroke="#222" stroke-width="0.5"/>
  <path d="M 72.423 2415.089 L 82.423 2415.089 L 83.729 2415.003 L 85.012 2414.748 L 86.250 2414.327 L 87.423 2413.749 L 88.511 2413.022 L 89.495 2412.160 L 90.357 2411.176 L 91.084 2410.089 L 91.662 2408.915 L 92.083 2407.677 L 92.338 2406.394 L 92.423 2405.089 L 92.423 2371.089 L 62.423 2371.089 L 62.423 2405.089 L 62.509 2406.394 L 62.764 2407.677 L 63.185 2408.915 L 63.763 2410.089 L 64.490 2411.176 L 65.352 2412.160 L 66.336 2413.022 L 67.423 2413.749 L 68.597 2414.327 L 69.835 2414.748 L 71.118 2415.003 Z" fill="#59a14f" fill-opacity="0.7" stroke="#222" stroke-width="0.5"/>
  <path d="M 1494.912 2269.136 L 1494.912 2259.136 L 1494.826 2257.831 L 1494.571 2256.548 L 1494.151 2255.309 L 1493.572 2254.136 L 1492.846 2253.048 L 1491.983 2252.065 L 1491.000 2251.203 L 1489.912 2250.476 L 1488.739 2249.897 L 1487.500 2249.477 L 1486.217 2249.222 L 1484.912 2249.136 L 1450.912 2249.136 L 1450.912 2279.136 L 1484.912 2279.136 L 1486.217 2279.050 L 1487.500 2278.795 L 1488.739 2278.375 L 1489.912 2277.796 L 1491.000 2277.070 L 1491.983 2276.207 L 1492.846 2275.224 L 1493.572 2274.136 L 1494.151 2272.963 L 1494.571 2271.724 L 1494.826 2270.441 Z" fill="#59a14f" fill-opacity="0.7" stroke="#222" stroke-width="0.5"/>
  <path d="M 1250.603 148.903 L 1250.603 138.903 L 1250.518 137.597 L 1250.262 136.314 L 1249.842 135.076 L 1249.263 133.903 L 1248.537 132.815 L 1247.674 131.832 L 1246.691 130.969 L 1245.603 130.242 L 1244.430 129.664 L 1243.191 129.243 L 1241.908 128.988 L 1240.603 128.903 L 1206.603 128.903 L 1206.603 158.903 L 1240.603 158.903 L 1241.908 158.817 L 1243.191 158.562 L 1244.430 158.141 L 1245.603 157.563 L 1246.691 156.836 L 1247.674 155.974 L 1248.537 154.990 L 1249.263 153.903 L 1249.842 152.729 L 1250.262 151.491 L 1250.518 150.208 Z" fill="#59a14f" fill-opacity="0.7" stroke="#222" stroke-width="0.5"/>
  <path d="M 70.178 2371.069 L 80.178 2371.069 L 81.484 2370.983 L 82.767 2370.728 L 84.005 2370.308 L 85.178 2369.729 L 86.266 2369.003 L 87.249 2368.140 L 88.112 2367.157 L 88.839 2366.069 L 89.417 2364.896 L 89.838 2363.657 L 90.093 2362.374 L 90.178 2361.069 L 90.178 2327.069 L 60.178 2327.069 L 60.178 2361.069 L 60.264 2362.374 L 60.519 2363.657 L 60.940 2364.896 L 61.518 2366.069 L 62.245 2367.157 L 63.107 2368.140 L 64.091 2369.003 L 65.178 2369.729 L 66.352 2370.308 L 67.590 2370.728 L 68.873 2370.983 Z" fill="#59a14f" fill-opacity="0.7" stroke="#222" stroke-width="0.5"/>
  <path d="M 1431.727 2625.543 L 1421.727 2625.543 L 1420.422 2625.628 L 1419.139 2625.883 L 1417.900 2626.304 L 1416.727 2626.882 L 1415.639 2627.609 L 1414.656 2628.472 L 1413.793 2629.455 L 1413.067 2630.543 L 1412.488 2631.716 L 1412.068 2632.954 L 1411.812 2634.237 L 1411.727 2635.543 L 1411.727 2669.543 L 1441.727 2669.543 L 1441.727 2635.543 L 1441.641 2634.237 L 1441.386 2632.954 L 1440.966 2631.716 L 1440.387 2630.543 L 1439.660 2629.455 L 1438.798 2628.472 L 1437.814 2627.609 L 1436.727 2626.882 L 1435.554 2626.304 L 1434.315 2625.883 L 1433.032 2625.628 Z" fill="#59a14f" fill-opacity="0.7" stroke="#222" stroke-width="0.5"/>
  <path d="M 1492.474 655.896 L 1492.474 645.896 L 1492.388 644.591 L 1492.133 643.308 L 1491.713 642.070 L 1491.134 640.896 L 1490.408 639.809 L 1489.545 638.825 L 1488.562 637.963 L 1487.474 637.236 L 1486.301 636.658 L 1485.062 636.237 L 1483.779 635.982 L 1482.474 635.896 L 1448.474 635.896 L 1448.474 665.896 L 1482.474 665.896 L 1483.779 665.811 L 1485.062 665.556 L 1486.301 665.135 L 1487.474 664.557 L 1488.562 663.830 L 1489.545 662.968 L 1490.408 661.984 L 1491.134 660.896 L 1491.713 659.723 L 1492.133 658.485 L 1492.388 657.202 Z" fill="#59a14f" fill-opacity="0.7" stroke="#222" stroke-width="0.5"/>
  <path d="M 1357.122 1941.689 L 1347.122 1941.689 L 1345.817 1941.775 L 1344.534 1942.030 L 1343.295 1942.450 L 1342.122 1943.029 L 1341.034 1943.755 L 1340.051 1944.618 L 1339.188 1945.601 L 1338.462 1946.689 L 1337.883 1947.862 L 1337.463 1949.101 L 1337.207 1950.384 L 1337.122 1951.689 L 1337.122 1985.689 L 1367.122 1985.689 L 1367.122 1951.689 L 1367.036 1950.384 L 1366.781 1949.101 L 1366.361 1947.862 L 1365.782 1946.689 L 1365.055 1945.601 L 1364.193 1944.618 L 1363.209 1943.755 L 1362.122 1943.029 L 1360.949 1942.450 L 1359.710 1942.030 L 1358.427 1941.775 Z" fill="#59a14f" fill-opacity="0.7" stroke="#222" stroke-width="0.5"/>
  <path d="M 199.069 944.490 L 199.069 934.490 L 198.983 933.184 L 198.728 931.901 L 198.308 930.663 L 197.729 929.490 L 197.002 928.402 L 196.140 927.419 L 195.156 926.556 L 194.069 925.829 L 192.896 925.251 L 191.657 924.830 L 190.374 924.575 L 189.069 924.490 L 155.069 924.490 L 155.069 954.490 L 189.069 954.490 L 190.374 954.404 L 191.657 954.149 L 192.896 953.728 L 194.069 953.150 L 195.156 952.423 L 196.140 951.561 L 197.002 950.577 L 197.729 949.490 L 198.308 948.316 L 198.728 947.078 L 198.983 945.795 Z" fill="#59a14f" fill-opacity="0.7" stroke="#222" stroke-width="0.5"/>
  <path d="M 1468.964 222.590 L 1478.964 222.590 L 1480.269 222.504 L 1481.552 222.249 L 1482.790 221.829 L 1483.964 221.250 L 1485.051 220.523 L 1486.035 219.661 L 1486.897 218.678 L 1487.624 217.590 L 1488.202 216.417 L 1488.623 215.178 L 1488.878 213.895 L 1488.964 212.590 L 1488.964 178.590 L 1458.964 178.590 L 1458.964 212.590 L 1459.049 213.895 L 1459.304 215.178 L 1459.725 216.417 L 1460.303 217.590 L 1461.030 218.678 L 1461.892 219.661 L 1462.876 220.523 L 1463.964 221.250 L 1465.137 221.829 L 1466.375 222.249 L 1467.658 222.504 Z" fill="#59a14f" fill-opacity="0.7" stroke="#222" stroke-width="0.5"/>
  <path d="M 1465.787 688.392 L 1465.787 678.392 L 1465.701 677.086 L 1465.446 675.803 L 1465.026 674.565 L 1464.447 673.392 L 1463.720 672.304 L 1462.858 671.320 L 1461.875 670.458 L 1460.787 669.731 L 1459.614 669.153 L 1458.375 668.732 L 1457.092 668.477 L 1455.787 668.392 L 1421.787 668.392 L 1421.787 698.392 L 1455.787 698.392 L 1457.092 698.306 L 1458.375 698.051 L 1459.614 697.630 L 1460.787 697.052 L 1461.875 696.325 L 1462.858 695.463 L 1463.720 694.479 L 1464.447 693.392 L 1465.026 692.218 L 1465.446 690.980 L 1465.701 689.697 Z" fill="#59a14f" fill-opacity="0.7" stroke="#222" stroke-width="0.5"/>
  <path d="M 1357.733 2042.631 L 1357.733 2032.631 L 1357.648 2031.326 L 1357.393 2030.043 L 1356.972 2028.804 L 1356.394 2027.631 L 1355.667 2026.544 L 1354.804 2025.560 L 1353.821 2024.698 L 1352.733 2023.971 L 1351.560 2023.392 L 1350.321 2022.972 L 1349.039 2022.717 L 1347.733 2022.631 L 1313.733 2022.631 L 1313.733 2052.631 L 1347.733 2052.631 L 1349.039 2052.546 L 1350.321 2052.290 L 1351.560 2051.870 L 1352.733 2051.291 L 1353.821 2050.565 L 1354.804 2049.702 L 1355.667 2048.719 L 1356.394 2047.631 L 1356.972 2046.458 L 1357.393 2045.219 L 1357.648 2043.936 Z" fill="#59a14f" fill-opacity="0.7" stroke="#222" stroke-width="0.5"/>
  <path d="M 94.158 564.797 L 94.158 554.797 L 94.073 553.491 L 93.818 552.208 L 93.397 550.970 L 92.819 549.797 L 92.092 548.709 L 91.229 547.725 L 90.246 546.863 L 89.158 546.136 L 87.985 545.558 L 86.747 545.137 L 85.464 544.882 L 84.158 544.797 L 50.158 544.797 L 50.158 574.797 L 84.158 574.797 L 85.464 574.711 L 86.747 574.456 L 87.985 574.035 L 89.158 573.457 L 90.246 572.730 L 91.229 571.868 L 92.092 570.884 L 92.819 569.797 L 93.397 568.623 L 93.818 567.385 L 94.073 566.102 Z" fill="#59a14f" fill-opacity="0.7" stroke="#222" stroke-width="0.5"/>
  <path d="M 126.499 1145.139 L 126.499 1135.139 L 126.414 1133.833 L 126.159 1132.550 L 125.738 1131.312 L 125.160 1130.139 L 124.433 1129.051 L 123.571 1128.068 L 122.587 1127.205 L 121.499 1126.478 L 120.326 1125.900 L 119.088 1125.479 L 117.805 1125.224 L 116.499 1125.139 L 82.499 1125.139 L 82.499 1155.139 L 116.499 1155.139 L 117.805 1155.053 L 119.088 1154.798 L 120.326 1154.377 L 121.499 1153.799 L 122.587 1153.072 L 123.571 1152.210 L 124.433 1151.226 L 125.160 1150.139 L 125.738 1148.965 L 126.159 1147.727 L 126.414 1146.444 Z" fill="#59a14f" fill-opacity="0.7" stroke="#222" stroke-width="0.5"/>
  <path d="M 1427.097 923.572 L 1426.786 923.358 L 1426.440 923.206 L 1426.072 923.121 L 1425.695 923.108 L 1425.322 923.165 L 1424.966 923.292 L 1424.640 923.483 L 1424.356 923.732 L 1424.124 924.030 L 1423.952 924.366 L 1423.847 924.728 L 1423.811 925.104 L 1423.811 1003.815 L 1423.815 1003.880 L 1423.828 1003.945 L 1423.849 1004.006 L 1423.878 1004.065 L 1423.914 1004.120 L 1423.957 1004.169 L 1424.007 1004.212 L 1424.061 1004.248 L 1424.120 1004.277 L 1424.182 1004.298 L 1424.246 1004.311 L 1424.311 1004.315 L 1427.397 1004.315 L 1427.448 1004.313 L 1427.499 1004.305 L 1427.548 1004.292 L 1427.596 1004.274 L 1427.642 1004.251 L 1427.686 1004.223 L 1427.726 1004.192 L 1427.763 1004.156 L 1427.796 1004.117 L 1427.824 1004.074 L 1427.849 1004.029 L 1427.868 1003.982 L 1428.031 1003.690 L 1428.281 1003.467 L 1428.590 1003.340 L 1428.924 1003.322 L 1429.245 1003.414 L 1429.518 1003.608 L 1429.712 1003.881 L 1429.805 1004.202 L 1429.786 1004.536 L 1429.659 1004.845 L 1429.437 1005.095 L 1429.144 1005.258 L 1429.097 1005.278 L 1429.052 1005.302 L 1429.009 1005.331 L 1428.970 1005.364 L 1428.935 1005.400 L 1428.903 1005.441 L 1428.875 1005.484 L 1428.853 1005.530 L 1428.835 1005.578 L 1428.822 1005.628 L 1428.814 1005.678 L 1428.811 1005.729 L 1428.811 1019.901 L 1428.814 1019.952 L 1428.822 1020.003 L 1428.835 1020.052 L 1428.853 1020.100 L 1428.875 1020.146 L 1428.903 1020.190 L 1428.935 1020.230 L 1428.970 1020.267 L 1429.009 1020.300 L 1429.052 1020.329 L 1429.097 1020.353 L 1429.144 1020.372 L 1429.437 1020.535 L 1429.659 1020.785 L 1429.786 1021.094 L 1429.805 1021.428 L 1429.712 1021.750 L 1429.518 1022.022 L 1429.245 1022.216 L 1428.924 1022.309 L 1428.590 1022.290 L 1428.281 1022.163 L 1428.031 1021.941 L 1427.868 1021.648 L 1427.849 1021.601 L 1427.824 1021.556 L 1427.796 1021.514 L 1427.763 1021.474 L 1427.726 1021.439 L 1427.686 1021.407 L 1427.642 1021.379 L 1427.596 1021.357 L 1427.548 1021.339 L 1427.499 1021.326 L 1427.448 1021.318 L 1427.397 1021.315 L 1424.311 1021.315 L 1424.246 1021.319 L 1424.182 1021.332 L 1424.120 1021.353 L 1424.061 1021.382 L 1424.007 1021.418 L 1423.957 1021.462 L 1423.914 1021.511 L 1423.878 1021.565 L 1423.849 1021.624 L 1423.828 1021.686 L 1423.815 1021.750 L 1423.811 1021.815 L 1423.811 1050.815 L 1423.897 1052.120 L 1424.152 1053.403 L 1424.572 1054.642 L 1425.151 1055.815 L 1425.878 1056.903 L 1426.740 1057.886 L 1427.723 1058.749 L 1428.811 1059.475 L 1429.984 1060.054 L 1431.223 1060.474 L 1432.506 1060.730 L 1433.811 1060.815 L 1459.669 1060.815 L 1460.323 1060.794 L 1460.974 1060.730 L 1461.620 1060.623 L 1462.257 1060.474 L 1462.883 1060.284 L 1463.496 1060.054 L 1464.092 1059.784 L 1464.669 1059.475 L 1465.225 1059.130 L 1465.757 1058.749 L 1466.262 1058.334 L 1466.740 1057.886 L 1482.882 1041.744 L 1483.329 1041.266 L 1483.745 1040.761 L 1484.126 1040.229 L 1484.471 1039.673 L 1484.780 1039.096 L 1485.050 1038.500 L 1485.280 1037.887 L 1485.470 1037.261 L 1485.619 1036.624 L 1485.725 1035.978 L 1485.790 1035.327 L 1485.811 1034.673 L 1485.811 977.502 L 1485.785 976.776 L 1485.705 976.053 L 1485.574 975.338 L 1485.391 974.634 L 1485.157 973.946 L 1484.874 973.276 L 1484.543 972.629 L 1484.166 972.007 L 1483.745 971.415 L 1483.281 970.854 L 1482.779 970.329 L 1482.239 969.842 Z" fill="#4e79a7" fill-opacity="0.7" stroke="#222" stroke-width="0.5"/>
  <path d="M 39.846 1134.293 L 39.535 1134.079 L 39.189 1133.927 L 38.821 1133.842 L 38.444 1133.829 L 38.071 1133.886 L 37.715 1134.013 L 37.389 1134.204 L 37.106 1134.453 L 36.874 1134.751 L 36.702 1135.087 L 36.596 1135.449 L 36.560 1135.825 L 36.560 1214.536 L 36.565 1214.602 L 36.577 1214.666 L 36.598 1214.728 L 36.627 1214.786 L 36.664 1214.841 L 36.707 1214.890 L 36.756 1214.933 L 36.810 1214.969 L 36.869 1214.998 L 36.931 1215.019 L 36.995 1215.032 L 37.060 1215.036 L 40.146 1215.036 L 40.197 1215.034 L 40.248 1215.026 L 40.298 1215.013 L 40.346 1214.995 L 40.391 1214.972 L 40.435 1214.944 L 40.475 1214.913 L 40.512 1214.877 L 40.545 1214.838 L 40.574 1214.795 L 40.598 1214.750 L 40.618 1214.703 L 40.780 1214.411 L 41.030 1214.188 L 41.339 1214.061 L 41.673 1214.043 L 41.995 1214.136 L 42.267 1214.329 L 42.461 1214.602 L 42.554 1214.923 L 42.536 1215.257 L 42.408 1215.566 L 42.186 1215.816 L 41.894 1215.979 L 41.846 1215.999 L 41.801 1216.023 L 41.759 1216.052 L 41.719 1216.085 L 41.684 1216.122 L 41.652 1216.162 L 41.625 1216.205 L 41.602 1216.251 L 41.584 1216.299 L 41.571 1216.349 L 41.563 1216.399 L 41.560 1216.450 L 41.560 1230.622 L 41.563 1230.673 L 41.571 1230.724 L 41.584 1230.773 L 41.602 1230.821 L 41.625 1230.867 L 41.652 1230.911 L 41.684 1230.951 L 41.719 1230.988 L 41.759 1231.021 L 41.801 1231.050 L 41.846 1231.074 L 41.894 1231.093 L 42.186 1231.256 L 42.408 1231.506 L 42.536 1231.815 L 42.554 1232.149 L 42.461 1232.471 L 42.267 1232.743 L 41.995 1232.937 L 41.673 1233.030 L 41.339 1233.012 L 41.030 1232.884 L 40.780 1232.662 L 40.618 1232.370 L 40.598 1232.322 L 40.574 1232.277 L 40.545 1232.235 L 40.512 1232.195 L 40.475 1232.160 L 40.435 1232.128 L 40.391 1232.101 L 40.346 1232.078 L 40.298 1232.060 L 40.248 1232.047 L 40.197 1232.039 L 40.146 1232.036 L 37.060 1232.036 L 36.995 1232.041 L 36.931 1232.053 L 36.869 1232.074 L 36.810 1232.103 L 36.756 1232.140 L 36.707 1232.183 L 36.664 1232.232 L 36.627 1232.286 L 36.598 1232.345 L 36.577 1232.407 L 36.565 1232.471 L 36.560 1232.536 L 36.560 1261.536 L 36.646 1262.842 L 36.901 1264.124 L 37.322 1265.363 L 37.900 1266.536 L 38.627 1267.624 L 39.489 1268.607 L 40.473 1269.470 L 41.560 1270.197 L 42.734 1270.775 L 43.972 1271.196 L 45.255 1271.451 L 46.560 1271.536 L 72.418 1271.536 L 73.072 1271.515 L 73.723 1271.451 L 74.369 1271.344 L 75.006 1271.196 L 75.633 1271.006 L 76.245 1270.775 L 76.841 1270.505 L 77.418 1270.197 L 77.974 1269.851 L 78.506 1269.470 L 79.012 1269.055 L 79.489 1268.607 L 95.631 1252.465 L 96.079 1251.988 L 96.494 1251.482 L 96.875 1250.950 L 97.221 1250.394 L 97.529 1249.817 L 97.799 1249.221 L 98.030 1248.609 L 98.220 1247.982 L 98.368 1247.345 L 98.475 1246.699 L 98.539 1246.048 L 98.560 1245.394 L 98.560 1188.224 L 98.534 1187.497 L 98.455 1186.774 L 98.323 1186.059 L 98.140 1185.355 L 97.907 1184.667 L 97.623 1183.997 L 97.292 1183.350 L 96.915 1182.728 L 96.494 1182.136 L 96.031 1181.576 L 95.528 1181.050 L 94.988 1180.563 Z" fill="#4e79a7" fill-opacity="0.7" stroke="#222" stroke-width="0.5"/>
  <path d="M 1491.861 1739.964 L 1492.172 1740.178 L 1492.517 1740.331 L 1492.885 1740.415 L 1493.263 1740.429 L 1493.636 1740.371 L 1493.992 1740.245 L 1494.317 1740.053 L 1494.601 1739.805 L 1494.833 1739.507 L 1495.005 1739.170 L 1495.111 1738.808 L 1495.146 1738.432 L 1495.146 1659.721 L 1495.142 1659.656 L 1495.129 1659.592 L 1495.108 1659.530 L 1495.079 1659.471 L 1495.043 1659.417 L 1495.000 1659.367 L 1494.951 1659.324 L 1494.896 1659.288 L 1494.838 1659.259 L 1494.776 1659.238 L 1494.712 1659.225 L 1494.646 1659.221 L 1491.561 1659.221 L 1491.509 1659.224 L 1491.459 1659.232 L 1491.409 1659.245 L 1491.361 1659.263 L 1491.315 1659.285 L 1491.272 1659.313 L 1491.232 1659.345 L 1491.195 1659.380 L 1491.162 1659.419 L 1491.133 1659.462 L 1491.109 1659.507 L 1491.089 1659.554 L 1490.927 1659.847 L 1490.677 1660.069 L 1490.367 1660.196 L 1490.033 1660.215 L 1489.712 1660.122 L 1489.439 1659.928 L 1489.246 1659.655 L 1489.153 1659.334 L 1489.171 1659.000 L 1489.299 1658.691 L 1489.521 1658.441 L 1489.813 1658.278 L 1489.861 1658.259 L 1489.906 1658.234 L 1489.948 1658.206 L 1489.987 1658.173 L 1490.023 1658.136 L 1490.055 1658.096 L 1490.082 1658.052 L 1490.105 1658.006 L 1490.123 1657.958 L 1490.136 1657.909 L 1490.144 1657.858 L 1490.146 1657.807 L 1490.146 1643.635 L 1490.144 1643.584 L 1490.136 1643.533 L 1490.123 1643.484 L 1490.105 1643.436 L 1490.082 1643.390 L 1490.055 1643.347 L 1490.023 1643.306 L 1489.987 1643.269 L 1489.948 1643.236 L 1489.906 1643.208 L 1489.861 1643.183 L 1489.813 1643.164 L 1489.521 1643.001 L 1489.299 1642.751 L 1489.171 1642.442 L 1489.153 1642.108 L 1489.246 1641.787 L 1489.439 1641.514 L 1489.712 1641.320 L 1490.033 1641.227 L 1490.367 1641.246 L 1490.677 1641.373 L 1490.927 1641.595 L 1491.089 1641.888 L 1491.109 1641.935 L 1491.133 1641.980 L 1491.162 1642.023 L 1491.195 1642.062 L 1491.232 1642.098 L 1491.272 1642.129 L 1491.315 1642.157 L 1491.361 1642.180 L 1491.409 1642.198 L 1491.459 1642.211 L 1491.509 1642.218 L 1491.561 1642.221 L 1494.646 1642.221 L 1494.712 1642.217 L 1494.776 1642.204 L 1494.838 1642.183 L 1494.896 1642.154 L 1494.951 1642.118 L 1495.000 1642.075 L 1495.043 1642.025 L 1495.079 1641.971 L 1495.108 1641.912 L 1495.129 1641.850 L 1495.142 1641.786 L 1495.146 1641.721 L 1495.146 1612.721 L 1495.061 1611.416 L 1494.806 1610.133 L 1494.385 1608.894 L 1493.807 1607.721 L 1493.080 1606.633 L 1492.218 1605.650 L 1491.234 1604.788 L 1490.146 1604.061 L 1488.973 1603.482 L 1487.735 1603.062 L 1486.452 1602.807 L 1485.146 1602.721 L 1459.289 1602.721 L 1458.635 1602.742 L 1457.983 1602.807 L 1457.338 1602.913 L 1456.700 1603.062 L 1456.074 1603.252 L 1455.462 1603.482 L 1454.866 1603.752 L 1454.289 1604.061 L 1453.733 1604.406 L 1453.201 1604.788 L 1452.695 1605.203 L 1452.218 1605.650 L 1436.075 1621.792 L 1435.628 1622.270 L 1435.213 1622.776 L 1434.832 1623.307 L 1434.486 1623.863 L 1434.178 1624.440 L 1433.908 1625.036 L 1433.677 1625.649 L 1433.487 1626.275 L 1433.339 1626.912 L 1433.232 1627.558 L 1433.168 1628.209 L 1433.146 1628.863 L 1433.146 1686.034 L 1433.173 1686.760 L 1433.252 1687.483 L 1433.383 1688.198 L 1433.567 1688.902 L 1433.800 1689.590 L 1434.083 1690.260 L 1434.414 1690.907 L 1434.792 1691.529 L 1435.213 1692.121 L 1435.676 1692.682 L 1436.179 1693.207 L 1436.719 1693.694 Z" fill="#4e79a7" fill-opacity="0.7" stroke="#222" stroke-width="0.5"/>
  <path d="M 3.291 1928.434 L 2.981 1928.220 L 2.635 1928.068 L 2.267 1927.983 L 1.890 1927.970 L 1.516 1928.027 L 1.161 1928.154 L 0.835 1928.345 L 0.551 1928.594 L 0.319 1928.892 L 0.147 1929.228 L 0.041 1929.590 L 0.006 1929.966 L 0.006 2008.677 L 0.010 2008.743 L 0.023 2008.807 L 0.044 2008.869 L 0.073 2008.927 L 0.109 2008.982 L 0.152 2009.031 L 0.201 2009.074 L 0.256 2009.110 L 0.315 2009.139 L 0.376 2009.160 L 0.441 2009.173 L 0.506 2009.177 L 3.592 2009.177 L 3.643 2009.175 L 3.693 2009.167 L 3.743 2009.154 L 3.791 2009.136 L 3.837 2009.113 L 3.880 2009.085 L 3.921 2009.054 L 3.957 2009.018 L 3.990 2008.979 L 4.019 2008.936 L 4.043 2008.891 L 4.063 2008.844 L 4.226 2008.552 L 4.476 2008.329 L 4.785 2008.202 L 5.119 2008.184 L 5.440 2008.277 L 5.713 2008.470 L 5.907 2008.743 L 5.999 2009.064 L 5.981 2009.398 L 5.854 2009.707 L 5.631 2009.957 L 5.339 2010.120 L 5.292 2010.140 L 5.247 2010.164 L 5.204 2010.193 L 5.165 2010.226 L 5.129 2010.263 L 5.098 2010.303 L 5.070 2010.346 L 5.047 2010.392 L 5.029 2010.440 L 5.016 2010.490 L 5.008 2010.540 L 5.006 2010.591 L 5.006 2024.763 L 5.008 2024.814 L 5.016 2024.865 L 5.029 2024.914 L 5.047 2024.962 L 5.070 2025.008 L 5.098 2025.052 L 5.129 2025.092 L 5.165 2025.129 L 5.204 2025.162 L 5.247 2025.191 L 5.292 2025.215 L 5.339 2025.234 L 5.631 2025.397 L 5.854 2025.647 L 5.981 2025.956 L 5.999 2026.290 L 5.907 2026.612 L 5.713 2026.884 L 5.440 2027.078 L 5.119 2027.171 L 4.785 2027.153 L 4.476 2027.025 L 4.226 2026.803 L 4.063 2026.511 L 4.043 2026.463 L 4.019 2026.418 L 3.990 2026.376 L 3.957 2026.336 L 3.921 2026.301 L 3.880 2026.269 L 3.837 2026.242 L 3.791 2026.219 L 3.743 2026.201 L 3.693 2026.188 L 3.643 2026.180 L 3.592 2026.177 L 0.506 2026.177 L 0.441 2026.182 L 0.376 2026.194 L 0.315 2026.215 L 0.256 2026.244 L 0.201 2026.281 L 0.152 2026.324 L 0.109 2026.373 L 0.073 2026.427 L 0.044 2026.486 L 0.023 2026.548 L 0.010 2026.612 L 0.006 2026.677 L 0.006 2055.677 L 0.091 2056.983 L 0.347 2058.265 L 0.767 2059.504 L 1.346 2060.677 L 2.072 2061.765 L 2.935 2062.748 L 3.918 2063.611 L 5.006 2064.338 L 6.179 2064.916 L 7.418 2065.337 L 8.701 2065.592 L 10.006 2065.677 L 35.864 2065.677 L 36.518 2065.656 L 37.169 2065.592 L 37.815 2065.485 L 38.452 2065.337 L 39.078 2065.147 L 39.691 2064.916 L 40.287 2064.646 L 40.864 2064.338 L 41.419 2063.992 L 41.951 2063.611 L 42.457 2063.196 L 42.935 2062.748 L 59.077 2046.606 L 59.524 2046.129 L 59.939 2045.623 L 60.321 2045.091 L 60.666 2044.535 L 60.975 2043.958 L 61.245 2043.362 L 61.475 2042.750 L 61.665 2042.123 L 61.814 2041.486 L 61.920 2040.840 L 61.984 2040.189 L 62.006 2039.535 L 62.006 1982.365 L 61.979 1981.638 L 61.900 1980.915 L 61.769 1980.200 L 61.586 1979.496 L 61.352 1978.808 L 61.069 1978.138 L 60.738 1977.491 L 60.361 1976.869 L 59.939 1976.277 L 59.476 1975.717 L 58.973 1975.191 L 58.434 1974.704 Z" fill="#4e79a7" fill-opacity="0.7" stroke="#222" stroke-width="0.5"/>
  <path d="M 1492.366 2494.660 L 1492.677 2494.874 L 1493.023 2495.026 L 1493.391 2495.111 L 1493.768 2495.124 L 1494.141 2495.067 L 1494.497 2494.940 L 1494.823 2494.749 L 1495.107 2494.500 L 1495.339 2494.202 L 1495.511 2493.866 L 1495.616 2493.504 L 1495.652 2493.128 L 1495.652 2414.417 L 1495.648 2414.351 L 1495.635 2414.287 L 1495.614 2414.225 L 1495.585 2414.167 L 1495.549 2414.112 L 1495.505 2414.063 L 1495.456 2414.020 L 1495.402 2413.984 L 1495.343 2413.955 L 1495.281 2413.934 L 1495.217 2413.921 L 1495.152 2413.917 L 1492.066 2413.917 L 1492.015 2413.919 L 1491.964 2413.927 L 1491.915 2413.940 L 1491.867 2413.958 L 1491.821 2413.981 L 1491.777 2414.008 L 1491.737 2414.040 L 1491.700 2414.076 L 1491.667 2414.115 L 1491.638 2414.157 L 1491.614 2414.203 L 1491.595 2414.250 L 1491.432 2414.542 L 1491.182 2414.765 L 1490.873 2414.892 L 1490.539 2414.910 L 1490.217 2414.817 L 1489.945 2414.624 L 1489.751 2414.351 L 1489.658 2414.030 L 1489.677 2413.696 L 1489.804 2413.386 L 1490.026 2413.137 L 1490.319 2412.974 L 1490.366 2412.954 L 1490.411 2412.930 L 1490.453 2412.901 L 1490.493 2412.868 L 1490.528 2412.831 L 1490.560 2412.791 L 1490.588 2412.748 L 1490.610 2412.702 L 1490.628 2412.654 L 1490.641 2412.604 L 1490.649 2412.554 L 1490.652 2412.502 L 1490.652 2398.331 L 1490.649 2398.280 L 1490.641 2398.229 L 1490.628 2398.179 L 1490.610 2398.131 L 1490.588 2398.086 L 1490.560 2398.042 L 1490.528 2398.002 L 1490.493 2397.965 L 1490.453 2397.932 L 1490.411 2397.903 L 1490.366 2397.879 L 1490.319 2397.859 L 1490.026 2397.697 L 1489.804 2397.447 L 1489.677 2397.138 L 1489.658 2396.804 L 1489.751 2396.482 L 1489.945 2396.210 L 1490.217 2396.016 L 1490.539 2395.923 L 1490.873 2395.941 L 1491.182 2396.069 L 1491.432 2396.291 L 1491.595 2396.583 L 1491.614 2396.631 L 1491.638 2396.676 L 1491.667 2396.718 L 1491.700 2396.758 L 1491.737 2396.793 L 1491.777 2396.825 L 1491.821 2396.852 L 1491.867 2396.875 L 1491.915 2396.893 L 1491.964 2396.906 L 1492.015 2396.914 L 1492.066 2396.917 L 1495.152 2396.917 L 1495.217 2396.912 L 1495.281 2396.900 L 1495.343 2396.879 L 1495.402 2396.850 L 1495.456 2396.813 L 1495.505 2396.770 L 1495.549 2396.721 L 1495.585 2396.667 L 1495.614 2396.608 L 1495.635 2396.546 L 1495.648 2396.482 L 1495.652 2396.417 L 1495.652 2367.417 L 1495.566 2366.111 L 1495.311 2364.828 L 1494.891 2363.590 L 1494.312 2362.417 L 1493.585 2361.329 L 1492.723 2360.346 L 1491.739 2359.483 L 1490.652 2358.756 L 1489.479 2358.178 L 1488.240 2357.757 L 1486.957 2357.502 L 1485.652 2357.417 L 1459.794 2357.417 L 1459.140 2357.438 L 1458.489 2357.502 L 1457.843 2357.609 L 1457.206 2357.757 L 1456.580 2357.947 L 1455.967 2358.178 L 1455.371 2358.448 L 1454.794 2358.756 L 1454.238 2359.102 L 1453.706 2359.483 L 1453.201 2359.898 L 1452.723 2360.346 L 1436.581 2376.488 L 1436.133 2376.965 L 1435.718 2377.471 L 1435.337 2378.003 L 1434.992 2378.559 L 1434.683 2379.136 L 1434.413 2379.732 L 1434.183 2380.344 L 1433.993 2380.971 L 1433.844 2381.608 L 1433.737 2382.254 L 1433.673 2382.905 L 1433.652 2383.559 L 1433.652 2440.729 L 1433.678 2441.456 L 1433.757 2442.179 L 1433.889 2442.894 L 1434.072 2443.597 L 1434.306 2444.286 L 1434.589 2444.956 L 1434.920 2445.603 L 1435.297 2446.224 L 1435.718 2446.817 L 1436.182 2447.377 L 1436.684 2447.903 L 1437.224 2448.390 Z" fill="#4e79a7" fill-opacity="0.7" stroke="#222" stroke-width="0.5"/>
  <path d="M 5.055 812.055 L 5.055 972.189 L 5.057 972.233 L 5.062 972.276 L 5.072 972.319 L 5.085 972.360 L 5.102 972.401 L 5.122 972.439 L 5.145 972.476 L 5.172 972.511 L 5.201 972.543 L 5.233 972.572 L 5.268 972.599 L 5.305 972.622 L 5.423 972.717 L 5.508 972.844 L 5.551 972.990 L 5.547 973.142 L 5.498 973.286 L 5.408 973.409 L 5.286 973.499 L 5.142 973.548 L 4.990 973.551 L 4.844 973.508 L 4.717 973.424 L 4.622 973.305 L 4.598 973.268 L 4.572 973.234 L 4.542 973.202 L 4.510 973.172 L 4.476 973.146 L 4.439 973.122 L 4.400 973.102 L 4.360 973.085 L 4.318 973.072 L 4.276 973.063 L 4.232 973.057 L 4.189 973.055 L 0.555 973.055 L 0.490 973.060 L 0.425 973.072 L 0.364 973.093 L 0.305 973.122 L 0.250 973.159 L 0.201 973.202 L 0.158 973.251 L 0.122 973.305 L 0.093 973.364 L 0.072 973.426 L 0.059 973.490 L 0.055 973.555 L 0.055 988.555 L 0.059 988.621 L 0.072 988.685 L 0.093 988.747 L 0.122 988.805 L 0.158 988.860 L 0.201 988.909 L 0.250 988.952 L 0.305 988.988 L 0.364 989.017 L 0.425 989.038 L 0.490 989.051 L 0.555 989.055 L 4.189 989.055 L 4.232 989.053 L 4.276 989.048 L 4.318 989.038 L 4.360 989.025 L 4.400 989.008 L 4.439 988.988 L 4.476 988.965 L 4.510 988.938 L 4.542 988.909 L 4.572 988.877 L 4.598 988.842 L 4.622 988.805 L 4.717 988.687 L 4.844 988.602 L 4.990 988.560 L 5.142 988.563 L 5.286 988.612 L 5.408 988.702 L 5.498 988.824 L 5.547 988.968 L 5.551 989.121 L 5.508 989.267 L 5.423 989.393 L 5.305 989.488 L 5.268 989.512 L 5.233 989.538 L 5.201 989.568 L 5.172 989.600 L 5.145 989.634 L 5.122 989.671 L 5.102 989.710 L 5.085 989.750 L 5.072 989.792 L 5.062 989.834 L 5.057 989.878 L 5.055 989.921 L 5.055 1019.055 L 5.140 1020.361 L 5.396 1021.643 L 5.816 1022.882 L 6.395 1024.055 L 7.121 1025.143 L 7.984 1026.126 L 8.967 1026.989 L 10.055 1027.716 L 11.228 1028.294 L 12.467 1028.715 L 13.750 1028.970 L 15.055 1029.055 L 105.055 1029.055 L 106.360 1028.970 L 107.643 1028.715 L 108.882 1028.294 L 110.055 1027.716 L 111.142 1026.989 L 112.126 1026.126 L 112.988 1025.143 L 113.715 1024.055 L 114.294 1022.882 L 114.714 1021.643 L 114.969 1020.361 L 115.055 1019.055 L 115.055 989.921 L 115.053 989.878 L 115.047 989.834 L 115.038 989.792 L 115.025 989.750 L 115.008 989.710 L 114.988 989.671 L 114.964 989.634 L 114.938 989.600 L 114.908 989.568 L 114.876 989.538 L 114.842 989.512 L 114.805 989.488 L 114.686 989.393 L 114.602 989.267 L 114.559 989.121 L 114.562 988.968 L 114.611 988.824 L 114.701 988.702 L 114.824 988.612 L 114.968 988.563 L 115.120 988.560 L 115.266 988.602 L 115.393 988.687 L 115.488 988.805 L 115.511 988.842 L 115.538 988.877 L 115.567 988.909 L 115.599 988.938 L 115.634 988.965 L 115.671 988.988 L 115.710 989.008 L 115.750 989.025 L 115.791 989.038 L 115.834 989.048 L 115.877 989.053 L 115.921 989.055 L 119.555 989.055 L 119.620 989.051 L 119.684 989.038 L 119.746 989.017 L 119.805 988.988 L 119.859 988.952 L 119.908 988.909 L 119.952 988.860 L 119.988 988.805 L 120.017 988.747 L 120.038 988.685 L 120.051 988.621 L 120.055 988.555 L 120.055 973.555 L 120.051 973.490 L 120.038 973.426 L 120.017 973.364 L 119.988 973.305 L 119.952 973.251 L 119.908 973.202 L 119.859 973.159 L 119.805 973.122 L 119.746 973.093 L 119.684 973.072 L 119.620 973.060 L 119.555 973.055 L 115.921 973.055 L 115.877 973.057 L 115.834 973.063 L 115.791 973.072 L 115.750 973.085 L 115.710 973.102 L 115.671 973.122 L 115.634 973.146 L 115.599 973.172 L 115.567 973.202 L 115.538 973.234 L 115.511 973.268 L 115.488 973.305 L 115.376 973.438 L 115.226 973.525 L 115.055 973.555 L 114.884 973.525 L 114.733 973.438 L 114.622 973.305 L 114.562 973.142 L 114.562 972.968 L 114.622 972.805 L 114.733 972.672 L 114.884 972.585 L 115.055 972.555 L 115.055 812.055 L 114.969 810.750 L 114.714 809.467 L 114.294 808.228 L 113.715 807.055 L 112.988 805.968 L 112.126 804.984 L 111.142 804.122 L 110.055 803.395 L 108.882 802.816 L 107.643 802.396 L 106.360 802.141 L 105.055 802.055 L 80.055 802.055 L 79.402 802.098 L 78.761 802.226 L 78.141 802.436 L 77.555 802.725 L 77.011 803.088 L 76.519 803.520 L 76.088 804.011 L 75.725 804.555 L 75.435 805.142 L 75.225 805.761 L 75.098 806.403 L 75.055 807.055 L 75.055 812.055 L 75.098 812.708 L 75.225 813.349 L 75.435 813.969 L 75.725 814.555 L 76.088 815.099 L 76.519 815.591 L 77.011 816.022 L 77.555 816.385 L 78.141 816.675 L 78.761 816.885 L 79.402 817.012 L 80.055 817.055 L 90.055 817.055 L 91.360 817.141 L 92.643 817.396 L 93.882 817.816 L 95.055 818.395 L 96.142 819.122 L 97.126 819.984 L 97.988 820.968 L 98.715 822.055 L 99.294 823.228 L 99.714 824.467 L 99.969 825.750 L 100.055 827.055 L 100.055 837.055 L 99.969 838.361 L 99.714 839.643 L 99.294 840.882 L 98.715 842.055 L 97.988 843.143 L 97.126 844.126 L 96.142 844.989 L 95.055 845.716 L 93.882 846.294 L 92.643 846.715 L 91.360 846.970 L 90.055 847.055 L 30.055 847.055 L 28.750 846.970 L 27.467 846.715 L 26.228 846.294 L 25.055 845.716 L 23.967 844.989 L 22.984 844.126 L 22.121 843.143 L 21.395 842.055 L 20.816 840.882 L 20.396 839.643 L 20.140 838.361 L 20.055 837.055 L 20.055 827.055 L 20.140 825.750 L 20.396 824.467 L 20.816 823.228 L 21.395 822.055 L 22.121 820.968 L 22.984 819.984 L 23.967 819.122 L 25.055 818.395 L 26.228 817.816 L 27.467 817.396 L 28.750 817.141 L 30.055 817.055 L 40.055 817.055 L 40.707 817.012 L 41.349 816.885 L 41.968 816.675 L 42.555 816.385 L 43.099 816.022 L 43.590 815.591 L 44.022 815.099 L 44.385 814.555 L 44.674 813.969 L 44.884 813.349 L 45.012 812.708 L 45.055 812.055 L 45.055 807.055 L 45.012 806.403 L 44.884 805.761 L 44.674 805.142 L 44.385 804.555 L 44.022 804.011 L 43.590 803.520 L 43.099 803.088 L 42.555 802.725 L 41.968 802.436 L 41.349 802.226 L 40.707 802.098 L 40.055 802.055 L 15.055 802.055 L 13.750 802.141 L 12.467 802.396 L 11.228 802.816 L 10.055 803.395 L 8.967 804.122 L 7.984 804.984 L 7.121 805.968 L 6.395 807.055 L 5.816 808.228 L 5.396 809.467 L 5.140 810.750 Z" fill="#59a14f" fill-opacity="0.7" stroke="#222" stroke-width="0.5"/>
  <path d="M 1382.093 1797.204 L 1382.093 1957.338 L 1382.095 1957.382 L 1382.100 1957.425 L 1382.110 1957.467 L 1382.123 1957.509 L 1382.140 1957.549 L 1382.160 1957.588 L 1382.183 1957.625 L 1382.210 1957.659 L 1382.239 1957.691 L 1382.271 1957.721 L 1382.306 1957.748 L 1382.343 1957.771 L 1382.461 1957.866 L 1382.546 1957.993 L 1382.589 1958.139 L 1382.585 1958.291 L 1382.536 1958.435 L 1382.446 1958.558 L 1382.324 1958.647 L 1382.180 1958.696 L 1382.028 1958.700 L 1381.882 1958.657 L 1381.755 1958.573 L 1381.660 1958.454 L 1381.636 1958.417 L 1381.610 1958.383 L 1381.580 1958.350 L 1381.548 1958.321 L 1381.514 1958.294 L 1381.477 1958.271 L 1381.438 1958.251 L 1381.398 1958.234 L 1381.356 1958.221 L 1381.314 1958.212 L 1381.270 1958.206 L 1381.227 1958.204 L 1377.593 1958.204 L 1377.528 1958.208 L 1377.463 1958.221 L 1377.402 1958.242 L 1377.343 1958.271 L 1377.288 1958.307 L 1377.239 1958.350 L 1377.196 1958.400 L 1377.160 1958.454 L 1377.131 1958.513 L 1377.110 1958.575 L 1377.097 1958.639 L 1377.093 1958.704 L 1377.093 1973.704 L 1377.097 1973.769 L 1377.110 1973.833 L 1377.131 1973.895 L 1377.160 1973.954 L 1377.196 1974.008 L 1377.239 1974.058 L 1377.288 1974.101 L 1377.343 1974.137 L 1377.402 1974.166 L 1377.463 1974.187 L 1377.528 1974.200 L 1377.593 1974.204 L 1381.227 1974.204 L 1381.270 1974.202 L 1381.314 1974.196 L 1381.356 1974.187 L 1381.398 1974.174 L 1381.438 1974.157 L 1381.477 1974.137 L 1381.514 1974.114 L 1381.548 1974.087 L 1381.580 1974.058 L 1381.610 1974.025 L 1381.636 1973.991 L 1381.660 1973.954 L 1381.755 1973.835 L 1381.882 1973.751 L 1382.028 1973.708 L 1382.180 1973.712 L 1382.324 1973.760 L 1382.446 1973.850 L 1382.536 1973.973 L 1382.585 1974.117 L 1382.589 1974.269 L 1382.546 1974.415 L 1382.461 1974.542 L 1382.343 1974.637 L 1382.306 1974.660 L 1382.271 1974.687 L 1382.239 1974.716 L 1382.210 1974.749 L 1382.183 1974.783 L 1382.160 1974.820 L 1382.140 1974.859 L 1382.123 1974.899 L 1382.110 1974.941 L 1382.100 1974.983 L 1382.095 1975.026 L 1382.093 1975.070 L 1382.093 2004.204 L 1382.178 2005.509 L 1382.434 2006.792 L 1382.854 2008.031 L 1383.433 2009.204 L 1384.159 2010.292 L 1385.022 2011.275 L 1386.005 2012.137 L 1387.093 2012.864 L 1388.266 2013.443 L 1389.505 2013.863 L 1390.788 2014.118 L 1392.093 2014.204 L 1482.093 2014.204 L 1483.398 2014.118 L 1484.681 2013.863 L 1485.920 2013.443 L 1487.093 2012.864 L 1488.180 2012.137 L 1489.164 2011.275 L 1490.026 2010.292 L 1490.753 2009.204 L 1491.332 2008.031 L 1491.752 2006.792 L 1492.007 2005.509 L 1492.093 2004.204 L 1492.093 1975.070 L 1492.091 1975.026 L 1492.085 1974.983 L 1492.076 1974.941 L 1492.063 1974.899 L 1492.046 1974.859 L 1492.026 1974.820 L 1492.002 1974.783 L 1491.976 1974.749 L 1491.946 1974.716 L 1491.914 1974.687 L 1491.880 1974.660 L 1491.843 1974.637 L 1491.724 1974.542 L 1491.640 1974.415 L 1491.597 1974.269 L 1491.600 1974.117 L 1491.649 1973.973 L 1491.739 1973.850 L 1491.862 1973.760 L 1492.006 1973.712 L 1492.158 1973.708 L 1492.304 1973.751 L 1492.431 1973.835 L 1492.526 1973.954 L 1492.549 1973.991 L 1492.576 1974.025 L 1492.605 1974.058 L 1492.637 1974.087 L 1492.672 1974.114 L 1492.709 1974.137 L 1492.748 1974.157 L 1492.788 1974.174 L 1492.829 1974.187 L 1492.872 1974.196 L 1492.915 1974.202 L 1492.959 1974.204 L 1496.593 1974.204 L 1496.658 1974.200 L 1496.722 1974.187 L 1496.784 1974.166 L 1496.843 1974.137 L 1496.897 1974.101 L 1496.946 1974.058 L 1496.990 1974.008 L 1497.026 1973.954 L 1497.055 1973.895 L 1497.076 1973.833 L 1497.089 1973.769 L 1497.093 1973.704 L 1497.093 1958.704 L 1497.089 1958.639 L 1497.076 1958.575 L 1497.055 1958.513 L 1497.026 1958.454 L 1496.990 1958.400 L 1496.946 1958.350 L 1496.897 1958.307 L 1496.843 1958.271 L 1496.784 1958.242 L 1496.722 1958.221 L 1496.658 1958.208 L 1496.593 1958.204 L 1492.959 1958.204 L 1492.915 1958.206 L 1492.872 1958.212 L 1492.829 1958.221 L 1492.788 1958.234 L 1492.748 1958.251 L 1492.709 1958.271 L 1492.672 1958.294 L 1492.637 1958.321 L 1492.605 1958.350 L 1492.576 1958.383 L 1492.549 1958.417 L 1492.526 1958.454 L 1492.414 1958.587 L 1492.264 1958.674 L 1492.093 1958.704 L 1491.922 1958.674 L 1491.771 1958.587 L 1491.660 1958.454 L 1491.600 1958.291 L 1491.600 1958.117 L 1491.660 1957.954 L 1491.771 1957.821 L 1491.922 1957.734 L 1492.093 1957.704 L 1492.093 1797.204 L 1492.007 1795.899 L 1491.752 1794.616 L 1491.332 1793.377 L 1490.753 1792.204 L 1490.026 1791.116 L 1489.164 1790.133 L 1488.180 1789.270 L 1487.093 1788.544 L 1485.920 1787.965 L 1484.681 1787.545 L 1483.398 1787.290 L 1482.093 1787.204 L 1457.093 1787.204 L 1456.440 1787.247 L 1455.799 1787.374 L 1455.179 1787.585 L 1454.593 1787.874 L 1454.049 1788.237 L 1453.557 1788.668 L 1453.126 1789.160 L 1452.763 1789.704 L 1452.473 1790.291 L 1452.263 1790.910 L 1452.136 1791.551 L 1452.093 1792.204 L 1452.093 1797.204 L 1452.136 1797.857 L 1452.263 1798.498 L 1452.473 1799.117 L 1452.763 1799.704 L 1453.126 1800.248 L 1453.557 1800.739 L 1454.049 1801.171 L 1454.593 1801.534 L 1455.179 1801.823 L 1455.799 1802.034 L 1456.440 1802.161 L 1457.093 1802.204 L 1467.093 1802.204 L 1468.398 1802.290 L 1469.681 1802.545 L 1470.920 1802.965 L 1472.093 1803.544 L 1473.180 1804.270 L 1474.164 1805.133 L 1475.026 1806.116 L 1475.753 1807.204 L 1476.332 1808.377 L 1476.752 1809.616 L 1477.007 1810.899 L 1477.093 1812.204 L 1477.093 1822.204 L 1477.007 1823.509 L 1476.752 1824.792 L 1476.332 1826.031 L 1475.753 1827.204 L 1475.026 1828.292 L 1474.164 1829.275 L 1473.180 1830.137 L 1472.093 1830.864 L 1470.920 1831.443 L 1469.681 1831.863 L 1468.398 1832.118 L 1467.093 1832.204 L 1407.093 1832.204 L 1405.788 1832.118 L 1404.505 1831.863 L 1403.266 1831.443 L 1402.093 1830.864 L 1401.005 1830.137 L 1400.022 1829.275 L 1399.159 1828.292 L 1398.433 1827.204 L 1397.854 1826.031 L 1397.434 1824.792 L 1397.178 1823.509 L 1397.093 1822.204 L 1397.093 1812.204 L 1397.178 1810.899 L 1397.434 1809.616 L 1397.854 1808.377 L 1398.433 1807.204 L 1399.159 1806.116 L 1400.022 1805.133 L 1401.005 1804.270 L 1402.093 1803.544 L 1403.266 1802.965 L 1404.505 1802.545 L 1405.788 1802.290 L 1407.093 1802.204 L 1417.093 1802.204 L 1417.745 1802.161 L 1418.387 1802.034 L 1419.006 1801.823 L 1419.593 1801.534 L 1420.137 1801.171 L 1420.628 1800.739 L 1421.060 1800.248 L 1421.423 1799.704 L 1421.712 1799.117 L 1421.922 1798.498 L 1422.050 1797.857 L 1422.093 1797.204 L 1422.093 1792.204 L 1422.050 1791.551 L 1421.922 1790.910 L 1421.712 1790.291 L 1421.423 1789.704 L 1421.060 1789.160 L 1420.628 1788.668 L 1420.137 1788.237 L 1419.593 1787.874 L 1419.006 1787.585 L 1418.387 1787.374 L 1417.745 1787.247 L 1417.093 1787.204 L 1392.093 1787.204 L 1390.788 1787.290 L 1389.505 1787.545 L 1388.266 1787.965 L 1387.093 1788.544 L 1386.005 1789.270 L 1385.022 1790.133 L 1384.159 1791.116 L 1383.433 1792.204 L 1382.854 1793.377 L 1382.434 1794.616 L 1382.178 1795.899 Z" fill="#59a14f" fill-opacity="0.7" stroke="#222" stroke-width="0.5"/>
  <path d="M 1465.615 857.468 L 1465.700 858.773 L 1465.955 860.056 L 1466.376 861.294 L 1466.954 862.468 L 1467.681 863.555 L 1468.543 864.539 L 1469.527 865.401 L 1470.615 866.128 L 1471.788 866.706 L 1473.026 867.127 L 1474.309 867.382 L 1475.615 867.468 L 1485.615 867.468 L 1486.920 867.382 L 1488.203 867.127 L 1489.441 866.706 L 1490.615 866.128 L 1491.702 865.401 L 1492.686 864.539 L 1493.548 863.555 L 1494.275 862.468 L 1494.853 861.294 L 1495.274 860.056 L 1495.529 858.773 L 1495.615 857.468 L 1495.615 720.618 L 1495.529 719.313 L 1495.274 718.030 L 1494.853 716.791 L 1494.275 715.618 L 1493.548 714.530 L 1492.686 713.547 L 1491.702 712.684 L 1490.615 711.958 L 1489.441 711.379 L 1488.203 710.959 L 1486.920 710.704 L 1485.615 710.618 L 1475.615 710.618 L 1474.309 710.704 L 1473.026 710.959 L 1471.788 711.379 L 1470.615 711.958 L 1469.527 712.684 L 1468.543 713.547 L 1467.681 714.530 L 1466.954 715.618 L 1466.376 716.791 L 1465.955 718.030 L 1465.700 719.313 L 1465.615 720.618 Z" fill="#bab0ac" fill-opacity="0.7" stroke="#222" stroke-width="0.5"/>
  <path d="M 62.012 2175.498 L 62.098 2176.804 L 62.353 2178.086 L 62.773 2179.325 L 63.352 2180.498 L 64.079 2181.586 L 64.941 2182.569 L 65.925 2183.432 L 67.012 2184.159 L 68.185 2184.737 L 69.424 2185.158 L 70.707 2185.413 L 72.012 2185.498 L 82.012 2185.498 L 83.317 2185.413 L 84.600 2185.158 L 85.839 2184.737 L 87.012 2184.159 L 88.100 2183.432 L 89.083 2182.569 L 89.946 2181.586 L 90.672 2180.498 L 91.251 2179.325 L 91.671 2178.086 L 91.927 2176.804 L 92.012 2175.498 L 92.012 2038.649 L 91.927 2037.343 L 91.671 2036.061 L 91.251 2034.822 L 90.672 2033.649 L 89.946 2032.561 L 89.083 2031.578 L 88.100 2030.715 L 87.012 2029.988 L 85.839 2029.410 L 84.600 2028.989 L 83.317 2028.734 L 82.012 2028.649 L 72.012 2028.649 L 70.707 2028.734 L 69.424 2028.989 L 68.185 2029.410 L 67.012 2029.988 L 65.925 2030.715 L 64.941 2031.578 L 64.079 2032.561 L 63.352 2033.649 L 62.773 2034.822 L 62.353 2036.061 L 62.098 2037.343 L 62.012 2038.649 Z" fill="#bab0ac" fill-opacity="0.7" stroke="#222" stroke-width="0.5"/>
  <path d="M 278.847 1898.648 L 278.847 1698.209 L 278.850 1698.052 L 278.857 1697.896 L 278.869 1697.741 L 278.886 1697.585 L 278.908 1697.431 L 278.935 1697.277 L 278.966 1697.124 L 279.003 1696.972 L 279.044 1696.821 L 279.089 1696.672 L 279.140 1696.524 L 279.195 1696.377 L 301.184 1640.508 L 298.270 1631.792 L 296.482 1622.779 L 295.849 1613.611 L 296.380 1604.437 L 298.068 1595.404 L 300.885 1586.657 L 304.785 1578.336 L 309.707 1570.576 L 315.571 1563.501 L 322.283 1557.224 L 329.735 1551.847 L 337.807 1547.455 L 370.300 1464.897 L 372.352 1460.359 L 374.846 1456.048 L 377.757 1452.006 L 381.055 1448.274 L 384.708 1444.888 L 388.680 1441.883 L 392.931 1439.288 L 397.419 1437.129 L 402.100 1435.426 L 406.927 1434.198 L 411.852 1433.457 L 416.826 1433.209 L 486.847 1433.209 L 488.153 1433.123 L 489.435 1432.868 L 490.674 1432.447 L 491.847 1431.869 L 492.935 1431.142 L 493.918 1430.280 L 494.781 1429.296 L 495.508 1428.209 L 496.086 1427.035 L 496.507 1425.797 L 496.762 1424.514 L 496.847 1423.209 L 496.847 1108.209 L 496.800 1107.240 L 496.659 1106.280 L 496.426 1105.338 L 496.103 1104.423 L 495.693 1103.544 L 495.199 1102.709 L 494.627 1101.925 L 493.981 1101.201 L 493.268 1100.543 L 492.495 1099.956 L 491.669 1099.448 L 490.797 1099.022 L 434.097 1074.643 L 429.739 1072.513 L 425.607 1069.970 L 421.742 1067.039 L 418.178 1063.747 L 414.950 1060.126 L 412.089 1056.209 L 409.621 1052.032 L 407.568 1047.637 L 405.952 1043.063 L 404.786 1038.354 L 404.083 1033.554 L 403.847 1028.709 L 403.847 652.251 L 403.826 651.597 L 403.762 650.946 L 403.655 650.300 L 403.507 649.663 L 403.317 649.036 L 403.086 648.424 L 402.816 647.828 L 402.508 647.251 L 402.162 646.695 L 401.781 646.163 L 401.366 645.657 L 400.918 645.180 L 396.776 641.038 L 396.329 640.560 L 395.914 640.054 L 395.533 639.522 L 395.187 638.967 L 394.879 638.389 L 394.608 637.793 L 394.378 637.181 L 394.188 636.555 L 394.039 635.917 L 393.933 635.272 L 393.869 634.621 L 393.847 633.967 L 393.847 532.251 L 393.869 531.597 L 393.933 530.946 L 394.039 530.300 L 394.188 529.663 L 394.378 529.036 L 394.608 528.424 L 394.879 527.828 L 395.187 527.251 L 395.533 526.695 L 395.914 526.163 L 396.329 525.657 L 396.776 525.180 L 405.918 516.038 L 406.396 515.590 L 406.902 515.175 L 407.434 514.794 L 407.989 514.448 L 408.566 514.140 L 409.163 513.870 L 409.775 513.639 L 410.401 513.449 L 411.038 513.301 L 411.684 513.194 L 412.335 513.130 L 412.989 513.109 L 429.657 513.109 L 430.803 513.043 L 431.934 512.846 L 433.036 512.520 L 434.092 512.071 L 435.091 511.503 L 436.017 510.825 L 436.860 510.045 L 437.608 509.173 L 438.251 508.222 L 438.780 507.203 L 439.189 506.130 L 439.473 505.017 L 469.470 350.692 L 470.037 348.467 L 470.856 346.321 L 471.915 344.283 L 473.201 342.380 L 474.696 340.636 L 476.381 339.076 L 478.235 337.719 L 480.231 336.584 L 482.345 335.685 L 484.547 335.034 L 486.810 334.641 L 489.103 334.509 L 618.421 334.509 L 618.537 334.505 L 618.654 334.495 L 618.770 334.478 L 618.884 334.454 L 618.997 334.424 L 619.108 334.387 L 619.216 334.344 L 619.322 334.294 L 619.425 334.238 L 619.524 334.177 L 619.620 334.109 L 619.711 334.036 L 627.951 327.373 L 636.468 321.067 L 645.246 315.130 L 654.270 309.575 L 663.524 304.409 L 672.989 299.644 L 682.649 295.288 L 692.487 291.348 L 702.484 287.832 L 712.622 284.747 L 722.883 282.097 L 733.247 279.888 L 733.247 274.509 L 399.847 274.509 L 399.847 295.509 L 392.847 295.509 L 392.847 274.509 L 235.847 274.509 L 235.847 295.509 L 228.847 295.509 L 228.847 274.509 L 0.447 274.509 L 0.447 279.888 L 10.818 282.094 L 21.086 284.741 L 31.231 287.825 L 41.235 291.340 L 51.079 295.279 L 60.746 299.635 L 70.218 304.401 L 79.478 309.567 L 88.508 315.124 L 97.293 321.062 L 105.816 327.370 L 114.061 334.037 L 114.152 334.109 L 114.248 334.177 L 114.347 334.238 L 114.450 334.294 L 114.556 334.344 L 114.664 334.387 L 114.775 334.424 L 114.888 334.454 L 115.002 334.478 L 115.118 334.495 L 115.234 334.505 L 115.351 334.509 L 203.847 334.509 L 206.458 334.680 L 209.024 335.190 L 211.501 336.031 L 213.847 337.188 L 216.022 338.642 L 217.989 340.367 L 219.714 342.333 L 221.168 344.509 L 222.325 346.855 L 223.166 349.332 L 223.676 351.898 L 223.847 354.509 L 223.847 370.009 L 253.847 370.009 L 255.153 370.094 L 256.435 370.349 L 257.674 370.770 L 258.847 371.348 L 259.935 372.075 L 260.918 372.938 L 261.781 373.921 L 262.508 375.009 L 263.086 376.182 L 263.507 377.420 L 263.762 378.703 L 263.847 380.009 L 263.847 440.009 L 263.762 441.314 L 263.507 442.597 L 263.086 443.835 L 262.508 445.009 L 261.781 446.096 L 260.918 447.080 L 259.935 447.942 L 258.847 448.669 L 257.674 449.247 L 256.435 449.668 L 255.153 449.923 L 253.847 450.009 L 223.847 450.009 L 223.847 1134.807 L 223.832 1136.043 L 223.786 1137.279 L 223.710 1138.512 L 223.603 1139.744 L 223.466 1140.973 L 223.298 1142.197 L 223.100 1143.418 L 222.872 1144.633 L 222.614 1145.842 L 222.327 1147.044 L 222.009 1148.239 L 221.662 1149.426 L 101.032 1543.990 L 100.685 1545.177 L 100.368 1546.371 L 100.080 1547.574 L 99.822 1548.783 L 99.594 1549.998 L 99.396 1551.218 L 99.229 1552.443 L 99.092 1553.672 L 98.985 1554.903 L 98.908 1556.137 L 98.863 1557.373 L 98.847 1558.609 L 98.847 1692.812 L 99.823 1692.956 L 100.666 1693.467 L 101.247 1694.263 L 101.475 1695.223 L 101.314 1696.195 L 100.789 1697.030 L 99.982 1697.597 L 99.019 1697.808 L 98.049 1697.630 L 97.224 1697.092 L 96.671 1696.275 L 96.476 1695.309 L 42.476 1695.309 L 42.476 1698.709 L 42.489 1698.934 L 42.527 1699.156 L 42.589 1699.372 L 42.676 1699.580 L 42.785 1699.777 L 42.916 1699.960 L 43.067 1700.127 L 43.235 1700.277 L 43.419 1700.407 L 43.617 1700.515 L 43.825 1700.600 L 44.042 1700.661 L 51.628 1702.802 L 58.925 1705.783 L 65.841 1709.566 L 72.287 1714.101 L 78.183 1719.333 L 83.453 1725.195 L 88.031 1731.612 L 91.858 1738.503 L 94.887 1745.780 L 97.078 1753.352 L 98.403 1761.122 L 98.847 1768.992 L 98.847 2437.001 L 220.226 2765.227 L 220.325 2765.506 L 220.415 2765.787 L 220.496 2766.070 L 220.570 2766.356 L 220.635 2766.644 L 220.691 2766.934 L 220.739 2767.225 L 220.778 2767.518 L 220.808 2767.811 L 220.830 2768.106 L 220.843 2768.401 L 220.847 2768.696 L 220.847 2796.502 L 229.847 2796.502 L 229.847 2778.602 L 229.868 2777.957 L 229.930 2777.315 L 230.034 2776.678 L 230.178 2776.050 L 230.363 2775.432 L 230.587 2774.827 L 230.850 2774.238 L 231.150 2773.667 L 231.486 2773.116 L 231.857 2772.588 L 232.261 2772.086 L 232.697 2771.610 L 245.466 2759.599 L 259.191 2748.694 L 273.779 2738.972 L 289.126 2730.500 L 305.127 2723.338 L 321.669 2717.535 L 338.637 2713.133 L 355.914 2710.161 L 373.378 2708.640 L 390.908 2708.581 L 408.382 2709.985 L 425.679 2712.841 L 442.676 2717.129 L 459.257 2722.821 L 475.305 2729.875 L 490.709 2738.244 L 505.361 2747.868 L 506.649 2748.743 L 507.981 2749.550 L 509.352 2750.288 L 510.760 2750.952 L 512.201 2751.543 L 513.670 2752.059 L 515.164 2752.497 L 516.679 2752.858 L 518.211 2753.139 L 519.755 2753.341 L 521.307 2753.462 L 522.863 2753.502 L 604.847 2753.502 L 606.153 2753.417 L 607.435 2753.162 L 608.674 2752.741 L 609.847 2752.163 L 610.935 2751.436 L 611.918 2750.573 L 612.781 2749.590 L 613.508 2748.502 L 614.086 2747.329 L 614.507 2746.090 L 614.762 2744.808 L 614.847 2743.502 L 614.847 2725.653 L 614.762 2724.347 L 614.507 2723.065 L 614.086 2721.826 L 613.508 2720.653 L 612.781 2719.565 L 611.918 2718.582 L 610.935 2717.719 L 609.847 2716.992 L 608.674 2716.414 L 607.435 2715.993 L 606.153 2715.738 L 604.847 2715.653 L 599.847 2715.653 L 592.044 2714.884 L 584.540 2712.608 L 577.624 2708.911 L 571.563 2703.937 L 566.588 2697.876 L 562.892 2690.960 L 560.616 2683.456 L 559.847 2675.653 L 560.616 2667.849 L 562.892 2660.345 L 566.588 2653.430 L 571.563 2647.368 L 577.624 2642.394 L 584.540 2638.698 L 592.044 2636.421 L 599.847 2635.653 L 604.847 2635.653 L 606.153 2635.567 L 607.435 2635.312 L 608.674 2634.892 L 609.847 2634.313 L 610.935 2633.586 L 611.918 2632.724 L 612.781 2631.740 L 613.508 2630.653 L 614.086 2629.480 L 614.507 2628.241 L 614.762 2626.958 L 614.847 2625.653 L 614.847 2605.653 L 614.762 2604.347 L 614.507 2603.065 L 614.086 2601.826 L 613.508 2600.653 L 612.781 2599.565 L 611.918 2598.582 L 610.935 2597.719 L 609.847 2596.992 L 608.674 2596.414 L 607.435 2595.993 L 606.153 2595.738 L 604.847 2595.653 L 599.847 2595.653 L 592.044 2594.884 L 584.540 2592.608 L 577.624 2588.911 L 571.563 2583.937 L 566.588 2577.876 L 562.892 2570.960 L 560.616 2563.456 L 559.847 2555.653 L 560.616 2547.849 L 562.892 2540.345 L 566.588 2533.430 L 571.563 2527.368 L 577.624 2522.394 L 584.540 2518.698 L 592.044 2516.421 L 599.847 2515.653 L 604.847 2515.653 L 606.153 2515.567 L 607.435 2515.312 L 608.674 2514.892 L 609.847 2514.313 L 610.935 2513.586 L 611.918 2512.724 L 612.781 2511.740 L 613.508 2510.653 L 614.086 2509.480 L 614.507 2508.241 L 614.762 2506.958 L 614.847 2505.653 L 614.847 2480.509 L 614.762 2479.203 L 614.507 2477.920 L 614.086 2476.682 L 613.508 2475.509 L 612.781 2474.421 L 611.918 2473.438 L 610.935 2472.575 L 609.847 2471.848 L 608.674 2471.270 L 607.435 2470.849 L 606.153 2470.594 L 604.847 2470.509 L 398.847 2470.509 L 385.412 2469.754 L 372.145 2467.500 L 359.214 2463.775 L 346.781 2458.625 L 335.003 2452.116 L 324.028 2444.328 L 313.994 2435.361 L 305.027 2425.327 L 297.240 2414.352 L 290.731 2402.575 L 285.581 2390.142 L 281.856 2377.211 L 279.602 2363.944 L 278.847 2350.509 L 278.847 1993.648 L 272.965 1987.083 L 268.004 1979.797 L 264.051 1971.918 L 261.177 1963.584 L 259.432 1954.944 L 258.847 1946.148 L 259.432 1937.353 L 261.177 1928.712 L 264.051 1920.379 L 268.004 1912.499 L 272.965 1905.213 Z" fill="#4e79a7" fill-opacity="0.7" stroke="#222" stroke-width="0.5"/>
  <path d="M 748.387 1739.672 L 748.387 1539.232 L 748.390 1539.076 L 748.397 1538.920 L 748.409 1538.764 L 748.426 1538.609 L 748.448 1538.454 L 748.475 1538.300 L 748.506 1538.147 L 748.543 1537.995 L 748.584 1537.845 L 748.629 1537.695 L 748.680 1537.547 L 748.735 1537.401 L 770.724 1481.531 L 767.810 1472.816 L 766.022 1463.802 L 765.389 1454.635 L 765.920 1445.461 L 767.608 1436.428 L 770.425 1427.681 L 774.325 1419.360 L 779.247 1411.600 L 785.111 1404.524 L 791.823 1398.248 L 799.275 1392.870 L 807.347 1388.479 L 839.840 1305.921 L 841.892 1301.383 L 844.386 1297.072 L 847.297 1293.030 L 850.595 1289.298 L 854.248 1285.912 L 858.220 1282.907 L 862.471 1280.312 L 866.959 1278.152 L 871.640 1276.450 L 876.466 1275.222 L 881.392 1274.480 L 886.366 1274.232 L 956.387 1274.232 L 957.692 1274.147 L 958.975 1273.892 L 960.214 1273.471 L 961.387 1272.893 L 962.475 1272.166 L 963.458 1271.303 L 964.321 1270.320 L 965.047 1269.232 L 965.626 1268.059 L 966.046 1266.821 L 966.302 1265.538 L 966.387 1264.232 L 966.387 949.232 L 966.340 948.263 L 966.199 947.303 L 965.966 946.362 L 965.643 945.447 L 965.232 944.568 L 964.739 943.732 L 964.167 942.949 L 963.521 942.225 L 962.808 941.566 L 962.035 940.980 L 961.209 940.472 L 960.337 940.046 L 903.637 915.666 L 899.279 913.536 L 895.147 910.994 L 891.281 908.063 L 887.718 904.771 L 884.490 901.150 L 881.629 897.232 L 879.160 893.056 L 877.108 888.660 L 875.492 884.087 L 874.326 879.378 L 873.622 874.578 L 873.387 869.732 L 873.387 493.274 L 873.366 492.620 L 873.302 491.969 L 873.195 491.324 L 873.046 490.686 L 872.856 490.060 L 872.626 489.448 L 872.356 488.852 L 872.047 488.274 L 871.702 487.719 L 871.321 487.187 L 870.906 486.681 L 870.458 486.203 L 866.316 482.061 L 865.869 481.584 L 865.454 481.078 L 865.072 480.546 L 864.727 479.990 L 864.418 479.413 L 864.148 478.817 L 863.918 478.205 L 863.728 477.578 L 863.579 476.941 L 863.473 476.295 L 863.409 475.644 L 863.387 474.990 L 863.387 373.274 L 863.409 372.620 L 863.473 371.969 L 863.579 371.324 L 863.728 370.686 L 863.918 370.060 L 864.148 369.448 L 864.418 368.852 L 864.727 368.274 L 865.072 367.719 L 865.454 367.187 L 865.869 366.681 L 866.316 366.203 L 875.458 357.061 L 875.936 356.614 L 876.442 356.199 L 876.974 355.818 L 877.529 355.472 L 878.106 355.164 L 878.702 354.894 L 879.315 354.663 L 879.941 354.473 L 880.578 354.324 L 881.224 354.218 L 881.875 354.154 L 882.529 354.132 L 899.196 354.132 L 900.343 354.066 L 901.474 353.869 L 902.576 353.544 L 903.632 353.095 L 904.631 352.527 L 905.557 351.849 L 906.400 351.068 L 907.148 350.197 L 907.790 349.245 L 908.320 348.226 L 908.729 347.153 L 909.013 346.040 L 939.010 191.716 L 939.577 189.490 L 940.396 187.345 L 941.455 185.306 L 942.740 183.403 L 944.236 181.660 L 945.921 180.100 L 947.774 178.743 L 949.771 177.608 L 951.884 176.709 L 954.087 176.058 L 956.350 175.664 L 958.643 175.532 L 1087.961 175.532 L 1088.077 175.529 L 1088.194 175.519 L 1088.309 175.502 L 1088.424 175.478 L 1088.537 175.448 L 1088.648 175.411 L 1088.756 175.367 L 1088.862 175.318 L 1088.965 175.262 L 1089.064 175.200 L 1089.160 175.133 L 1089.251 175.060 L 1097.491 168.396 L 1106.008 162.090 L 1114.786 156.154 L 1123.810 150.598 L 1133.064 145.433 L 1142.529 140.668 L 1152.189 136.312 L 1162.027 132.372 L 1172.024 128.856 L 1182.162 125.770 L 1192.423 123.121 L 1202.787 120.912 L 1202.787 115.532 L 869.387 115.532 L 869.387 136.532 L 862.387 136.532 L 862.387 115.532 L 705.387 115.532 L 705.387 136.532 L 698.387 136.532 L 698.387 115.532 L 469.987 115.532 L 469.987 120.912 L 480.358 123.118 L 490.626 125.765 L 500.771 128.849 L 510.775 132.364 L 520.619 136.303 L 530.286 140.659 L 539.758 145.424 L 549.018 150.590 L 558.048 156.148 L 566.833 162.086 L 575.355 168.394 L 583.601 175.060 L 583.692 175.133 L 583.788 175.200 L 583.887 175.262 L 583.990 175.318 L 584.096 175.367 L 584.204 175.411 L 584.315 175.448 L 584.428 175.478 L 584.542 175.502 L 584.658 175.519 L 584.774 175.529 L 584.891 175.532 L 673.387 175.532 L 675.998 175.703 L 678.564 176.214 L 681.041 177.055 L 683.387 178.212 L 685.562 179.665 L 687.529 181.390 L 689.254 183.357 L 690.708 185.532 L 691.865 187.879 L 692.706 190.356 L 693.216 192.922 L 693.387 195.532 L 693.387 211.032 L 723.387 211.032 L 724.692 211.118 L 725.975 211.373 L 727.214 211.794 L 728.387 212.372 L 729.475 213.099 L 730.458 213.961 L 731.321 214.945 L 732.047 216.032 L 732.626 217.206 L 733.046 218.444 L 733.302 219.727 L 733.387 221.032 L 733.387 281.032 L 733.302 282.338 L 733.046 283.621 L 732.626 284.859 L 732.047 286.032 L 731.321 287.120 L 730.458 288.103 L 729.475 288.966 L 728.387 289.693 L 727.214 290.271 L 725.975 290.692 L 724.692 290.947 L 723.387 291.032 L 693.387 291.032 L 693.387 975.831 L 693.372 977.067 L 693.326 978.302 L 693.250 979.536 L 693.143 980.768 L 693.006 981.996 L 692.838 983.221 L 692.640 984.441 L 692.412 985.657 L 692.154 986.866 L 691.867 988.068 L 691.549 989.263 L 691.202 990.449 L 570.572 1385.014 L 570.225 1386.200 L 569.908 1387.395 L 569.620 1388.597 L 569.362 1389.807 L 569.134 1391.022 L 568.936 1392.242 L 568.769 1393.467 L 568.631 1394.695 L 568.525 1395.927 L 568.448 1397.161 L 568.402 1398.396 L 568.387 1399.632 L 568.387 1533.836 L 569.363 1533.980 L 570.206 1534.490 L 570.787 1535.287 L 571.015 1536.246 L 570.854 1537.219 L 570.329 1538.054 L 569.522 1538.621 L 568.559 1538.832 L 567.589 1538.654 L 566.764 1538.115 L 566.211 1537.299 L 566.016 1536.332 L 512.016 1536.332 L 512.016 1539.732 L 512.029 1539.957 L 512.067 1540.179 L 512.129 1540.396 L 512.216 1540.603 L 512.325 1540.800 L 512.456 1540.984 L 512.606 1541.151 L 512.775 1541.301 L 512.959 1541.430 L 513.157 1541.538 L 513.365 1541.623 L 513.582 1541.685 L 521.168 1543.826 L 528.465 1546.807 L 535.381 1550.589 L 541.827 1555.125 L 547.723 1560.357 L 552.993 1566.219 L 557.571 1572.635 L 561.398 1579.526 L 564.427 1586.804 L 566.618 1594.376 L 567.943 1602.146 L 568.387 1610.016 L 568.387 2278.024 L 689.766 2606.251 L 689.865 2606.529 L 689.955 2606.810 L 690.036 2607.094 L 690.110 2607.380 L 690.174 2607.668 L 690.231 2607.958 L 690.278 2608.249 L 690.318 2608.541 L 690.348 2608.835 L 690.370 2609.129 L 690.383 2609.424 L 690.387 2609.719 L 690.387 2637.526 L 699.387 2637.526 L 699.387 2619.625 L 699.408 2618.981 L 699.470 2618.339 L 699.574 2617.702 L 699.718 2617.073 L 699.903 2616.455 L 700.127 2615.850 L 700.390 2615.261 L 700.690 2614.690 L 701.026 2614.140 L 701.397 2613.612 L 701.801 2613.110 L 702.237 2612.634 L 715.006 2600.622 L 728.731 2589.717 L 743.319 2579.995 L 758.666 2571.524 L 774.667 2564.362 L 791.209 2558.559 L 808.177 2554.157 L 825.454 2551.185 L 842.918 2549.664 L 860.448 2549.605 L 877.922 2551.008 L 895.218 2553.865 L 912.216 2558.153 L 928.797 2563.845 L 944.845 2570.899 L 960.249 2579.267 L 974.901 2588.892 L 976.189 2589.767 L 977.521 2590.574 L 978.892 2591.311 L 980.300 2591.976 L 981.741 2592.567 L 983.210 2593.083 L 984.704 2593.521 L 986.219 2593.882 L 987.750 2594.163 L 989.294 2594.364 L 990.847 2594.486 L 992.403 2594.526 L 1074.387 2594.526 L 1075.692 2594.440 L 1076.975 2594.185 L 1078.214 2593.765 L 1079.387 2593.186 L 1080.475 2592.460 L 1081.458 2591.597 L 1082.321 2590.614 L 1083.047 2589.526 L 1083.626 2588.353 L 1084.046 2587.114 L 1084.302 2585.831 L 1084.387 2584.526 L 1084.387 2566.676 L 1084.302 2565.371 L 1084.046 2564.088 L 1083.626 2562.850 L 1083.047 2561.676 L 1082.321 2560.589 L 1081.458 2559.605 L 1080.475 2558.743 L 1079.387 2558.016 L 1078.214 2557.438 L 1076.975 2557.017 L 1075.692 2556.762 L 1074.387 2556.676 L 1069.387 2556.676 L 1061.584 2555.908 L 1054.080 2553.632 L 1047.164 2549.935 L 1041.103 2544.961 L 1036.128 2538.899 L 1032.432 2531.984 L 1030.156 2524.480 L 1029.387 2516.676 L 1030.156 2508.873 L 1032.432 2501.369 L 1036.128 2494.454 L 1041.103 2488.392 L 1047.164 2483.418 L 1054.080 2479.721 L 1061.584 2477.445 L 1069.387 2476.676 L 1074.387 2476.676 L 1075.692 2476.591 L 1076.975 2476.336 L 1078.214 2475.915 L 1079.387 2475.337 L 1080.475 2474.610 L 1081.458 2473.747 L 1082.321 2472.764 L 1083.047 2471.676 L 1083.626 2470.503 L 1084.046 2469.265 L 1084.302 2467.982 L 1084.387 2466.676 L 1084.387 2446.676 L 1084.302 2445.371 L 1084.046 2444.088 L 1083.626 2442.850 L 1083.047 2441.676 L 1082.321 2440.589 L 1081.458 2439.605 L 1080.475 2438.743 L 1079.387 2438.016 L 1078.214 2437.438 L 1076.975 2437.017 L 1075.692 2436.762 L 1074.387 2436.676 L 1069.387 2436.676 L 1061.584 2435.908 L 1054.080 2433.632 L 1047.164 2429.935 L 1041.103 2424.961 L 1036.128 2418.899 L 1032.432 2411.984 L 1030.156 2404.480 L 1029.387 2396.676 L 1030.156 2388.873 L 1032.432 2381.369 L 1036.128 2374.454 L 1041.103 2368.392 L 1047.164 2363.418 L 1054.080 2359.721 L 1061.584 2357.445 L 1069.387 2356.676 L 1074.387 2356.676 L 1075.692 2356.591 L 1076.975 2356.336 L 1078.214 2355.915 L 1079.387 2355.337 L 1080.475 2354.610 L 1081.458 2353.747 L 1082.321 2352.764 L 1083.047 2351.676 L 1083.626 2350.503 L 1084.046 2349.265 L 1084.302 2347.982 L 1084.387 2346.676 L 1084.387 2321.532 L 1084.302 2320.227 L 1084.046 2318.944 L 1083.626 2317.706 L 1083.047 2316.532 L 1082.321 2315.445 L 1081.458 2314.461 L 1080.475 2313.599 L 1079.387 2312.872 L 1078.214 2312.294 L 1076.975 2311.873 L 1075.692 2311.618 L 1074.387 2311.532 L 868.387 2311.532 L 854.951 2310.778 L 841.685 2308.524 L 828.754 2304.798 L 816.321 2299.649 L 804.543 2293.139 L 793.568 2285.352 L 783.534 2276.385 L 774.567 2266.351 L 766.780 2255.376 L 760.271 2243.598 L 755.121 2231.166 L 751.396 2218.235 L 749.142 2204.968 L 748.387 2191.532 L 748.387 1834.672 L 742.505 1828.107 L 737.543 1820.820 L 733.591 1812.941 L 730.717 1804.608 L 728.972 1795.967 L 728.387 1787.172 L 728.972 1778.376 L 730.717 1769.736 L 733.591 1761.402 L 737.543 1753.523 L 742.505 1746.237 Z" fill="#4e79a7" fill-opacity="0.7" stroke="#222" stroke-width="0.5"/>
  <path d="M 1221.275 1278.950 L 1221.275 1479.390 L 1221.273 1479.546 L 1221.265 1479.702 L 1221.253 1479.858 L 1221.236 1480.013 L 1221.214 1480.168 L 1221.188 1480.322 L 1221.156 1480.475 L 1221.120 1480.627 L 1221.079 1480.777 L 1221.033 1480.927 L 1220.983 1481.075 L 1220.928 1481.221 L 1198.939 1537.091 L 1201.852 1545.806 L 1203.640 1554.820 L 1204.274 1563.987 L 1203.742 1573.161 L 1202.054 1582.195 L 1199.238 1590.942 L 1195.337 1599.262 L 1190.415 1607.022 L 1184.551 1614.098 L 1177.840 1620.374 L 1170.388 1625.752 L 1162.316 1630.143 L 1129.823 1712.701 L 1127.770 1717.239 L 1125.276 1721.551 L 1122.366 1725.592 L 1119.067 1729.324 L 1115.414 1732.710 L 1111.443 1735.715 L 1107.192 1738.310 L 1102.703 1740.470 L 1098.023 1742.172 L 1093.196 1743.400 L 1088.271 1744.142 L 1083.296 1744.390 L 1013.275 1744.390 L 1011.970 1744.475 L 1010.687 1744.730 L 1009.448 1745.151 L 1008.275 1745.729 L 1007.188 1746.456 L 1006.204 1747.319 L 1005.342 1748.302 L 1004.615 1749.390 L 1004.036 1750.563 L 1003.616 1751.802 L 1003.361 1753.084 L 1003.275 1754.390 L 1003.275 2069.390 L 1003.322 2070.359 L 1003.463 2071.319 L 1003.696 2072.261 L 1004.019 2073.175 L 1004.430 2074.055 L 1004.923 2074.890 L 1005.496 2075.673 L 1006.141 2076.398 L 1006.854 2077.056 L 1007.627 2077.642 L 1008.453 2078.151 L 1009.325 2078.577 L 1066.025 2102.956 L 1070.384 2105.086 L 1074.515 2107.628 L 1078.381 2110.559 L 1081.944 2113.851 L 1085.172 2117.473 L 1088.033 2121.390 L 1090.502 2125.566 L 1092.554 2129.962 L 1094.170 2134.536 L 1095.336 2139.245 L 1096.040 2144.044 L 1096.275 2148.890 L 1096.275 2525.348 L 1096.297 2526.002 L 1096.361 2526.653 L 1096.467 2527.299 L 1096.616 2527.936 L 1096.806 2528.562 L 1097.036 2529.174 L 1097.306 2529.771 L 1097.615 2530.348 L 1097.960 2530.903 L 1098.342 2531.435 L 1098.757 2531.941 L 1099.204 2532.419 L 1103.346 2536.561 L 1103.794 2537.038 L 1104.209 2537.544 L 1104.590 2538.076 L 1104.935 2538.632 L 1105.244 2539.209 L 1105.514 2539.805 L 1105.744 2540.417 L 1105.934 2541.044 L 1106.083 2541.681 L 1106.190 2542.327 L 1106.254 2542.978 L 1106.275 2543.632 L 1106.275 2645.348 L 1106.254 2646.002 L 1106.190 2646.653 L 1106.083 2647.299 L 1105.934 2647.936 L 1105.744 2648.562 L 1105.514 2649.174 L 1105.244 2649.771 L 1104.935 2650.348 L 1104.590 2650.903 L 1104.209 2651.435 L 1103.794 2651.941 L 1103.346 2652.419 L 1094.204 2661.561 L 1093.726 2662.008 L 1093.221 2662.423 L 1092.689 2662.804 L 1092.133 2663.150 L 1091.556 2663.458 L 1090.960 2663.729 L 1090.347 2663.959 L 1089.721 2664.149 L 1089.084 2664.298 L 1088.438 2664.404 L 1087.787 2664.468 L 1087.133 2664.490 L 1070.466 2664.490 L 1069.319 2664.556 L 1068.188 2664.753 L 1067.087 2665.078 L 1066.030 2665.527 L 1065.032 2666.095 L 1064.105 2666.774 L 1063.262 2667.554 L 1062.515 2668.425 L 1061.872 2669.377 L 1061.342 2670.396 L 1060.933 2671.469 L 1060.650 2672.582 L 1030.652 2826.906 L 1030.085 2829.132 L 1029.267 2831.278 L 1028.208 2833.316 L 1026.922 2835.219 L 1025.426 2836.962 L 1023.741 2838.522 L 1021.888 2839.879 L 1019.891 2841.014 L 1017.778 2841.913 L 1015.575 2842.564 L 1013.312 2842.958 L 1011.019 2843.090 L 881.702 2843.090 L 881.585 2843.093 L 881.469 2843.103 L 881.353 2843.120 L 881.238 2843.144 L 881.126 2843.175 L 881.015 2843.211 L 880.906 2843.255 L 880.800 2843.304 L 880.698 2843.360 L 880.598 2843.422 L 880.503 2843.489 L 880.411 2843.562 L 872.171 2850.226 L 863.655 2856.532 L 854.876 2862.468 L 845.852 2868.024 L 836.599 2873.189 L 827.133 2877.954 L 817.473 2882.311 L 807.635 2886.250 L 797.638 2889.766 L 787.500 2892.852 L 777.240 2895.502 L 766.875 2897.710 L 766.875 2903.090 L 1100.275 2903.090 L 1100.275 2882.090 L 1107.275 2882.090 L 1107.275 2903.090 L 1264.275 2903.090 L 1264.275 2882.090 L 1271.275 2882.090 L 1271.275 2903.090 L 1499.675 2903.090 L 1499.675 2897.710 L 1489.304 2895.504 L 1479.036 2892.857 L 1468.892 2889.773 L 1458.888 2886.259 L 1449.043 2882.319 L 1439.376 2877.963 L 1429.904 2873.198 L 1420.645 2868.032 L 1411.614 2862.475 L 1402.830 2856.537 L 1394.307 2850.228 L 1386.062 2843.562 L 1385.970 2843.489 L 1385.875 2843.422 L 1385.775 2843.360 L 1385.672 2843.304 L 1385.567 2843.255 L 1385.458 2843.211 L 1385.347 2843.175 L 1385.234 2843.144 L 1385.120 2843.120 L 1385.004 2843.103 L 1384.888 2843.093 L 1384.771 2843.090 L 1296.275 2843.090 L 1293.665 2842.919 L 1291.099 2842.408 L 1288.621 2841.567 L 1286.275 2840.410 L 1284.100 2838.957 L 1282.133 2837.232 L 1280.408 2835.265 L 1278.955 2833.090 L 1277.798 2830.743 L 1276.957 2828.266 L 1276.446 2825.700 L 1276.275 2823.090 L 1276.275 2807.590 L 1246.275 2807.590 L 1244.970 2807.504 L 1243.687 2807.249 L 1242.448 2806.829 L 1241.275 2806.250 L 1240.188 2805.523 L 1239.204 2804.661 L 1238.342 2803.677 L 1237.615 2802.590 L 1237.036 2801.417 L 1236.616 2800.178 L 1236.361 2798.895 L 1236.275 2797.590 L 1236.275 2737.590 L 1236.361 2736.284 L 1236.616 2735.002 L 1237.036 2733.763 L 1237.615 2732.590 L 1238.342 2731.502 L 1239.204 2730.519 L 1240.188 2729.656 L 1241.275 2728.929 L 1242.448 2728.351 L 1243.687 2727.930 L 1244.970 2727.675 L 1246.275 2727.590 L 1276.275 2727.590 L 1276.275 2042.791 L 1276.290 2041.555 L 1276.336 2040.320 L 1276.413 2039.086 L 1276.519 2037.854 L 1276.657 2036.626 L 1276.824 2035.401 L 1277.022 2034.181 L 1277.250 2032.966 L 1277.508 2031.757 L 1277.796 2030.554 L 1278.113 2029.359 L 1278.460 2028.173 L 1399.090 1633.608 L 1399.437 1632.422 L 1399.755 1631.227 L 1400.042 1630.025 L 1400.300 1628.816 L 1400.528 1627.601 L 1400.726 1626.380 L 1400.894 1625.155 L 1401.031 1623.927 L 1401.138 1622.695 L 1401.214 1621.461 L 1401.260 1620.226 L 1401.275 1618.990 L 1401.275 1484.786 L 1400.300 1484.642 L 1399.456 1484.132 L 1398.875 1483.335 L 1398.648 1482.376 L 1398.809 1481.403 L 1399.333 1480.568 L 1400.140 1480.001 L 1401.103 1479.790 L 1402.073 1479.968 L 1402.899 1480.507 L 1403.452 1481.323 L 1403.646 1482.290 L 1457.646 1482.290 L 1457.646 1478.890 L 1457.634 1478.665 L 1457.596 1478.443 L 1457.533 1478.227 L 1457.447 1478.019 L 1457.337 1477.822 L 1457.206 1477.638 L 1457.056 1477.471 L 1456.887 1477.321 L 1456.703 1477.192 L 1456.506 1477.084 L 1456.297 1476.999 L 1456.080 1476.937 L 1448.494 1474.796 L 1441.197 1471.815 L 1434.282 1468.033 L 1427.835 1463.497 L 1421.939 1458.265 L 1416.669 1452.404 L 1412.091 1445.987 L 1408.264 1439.096 L 1405.236 1431.818 L 1403.045 1424.247 L 1401.719 1416.476 L 1401.275 1408.606 L 1401.275 740.598 L 1279.896 412.371 L 1279.798 412.093 L 1279.708 411.812 L 1279.626 411.528 L 1279.553 411.242 L 1279.488 410.954 L 1279.432 410.664 L 1279.384 410.373 L 1279.345 410.081 L 1279.314 409.787 L 1279.293 409.493 L 1279.280 409.198 L 1279.275 408.903 L 1279.275 381.096 L 1270.275 381.096 L 1270.275 398.997 L 1270.254 399.641 L 1270.192 400.283 L 1270.088 400.920 L 1269.944 401.549 L 1269.759 402.167 L 1269.535 402.772 L 1269.273 403.361 L 1268.973 403.932 L 1268.636 404.482 L 1268.265 405.010 L 1267.861 405.513 L 1267.425 405.988 L 1254.657 418.000 L 1240.931 428.905 L 1226.344 438.627 L 1210.996 447.098 L 1194.996 454.260 L 1178.453 460.063 L 1161.485 464.466 L 1144.208 467.438 L 1126.744 468.958 L 1109.214 469.017 L 1091.740 467.614 L 1074.444 464.758 L 1057.446 460.469 L 1040.865 454.778 L 1024.817 447.723 L 1009.413 439.355 L 994.761 429.731 L 993.473 428.855 L 992.142 428.048 L 990.770 427.311 L 989.362 426.646 L 987.922 426.055 L 986.452 425.539 L 984.958 425.101 L 983.443 424.740 L 981.912 424.459 L 980.368 424.258 L 978.815 424.137 L 977.259 424.096 L 895.275 424.096 L 893.970 424.182 L 892.687 424.437 L 891.448 424.857 L 890.275 425.436 L 889.188 426.163 L 888.204 427.025 L 887.342 428.009 L 886.615 429.096 L 886.036 430.269 L 885.616 431.508 L 885.361 432.791 L 885.275 434.096 L 885.275 451.946 L 885.361 453.251 L 885.616 454.534 L 886.036 455.773 L 886.615 456.946 L 887.342 458.033 L 888.204 459.017 L 889.188 459.879 L 890.275 460.606 L 891.448 461.184 L 892.687 461.605 L 893.970 461.860 L 895.275 461.946 L 900.275 461.946 L 908.079 462.714 L 915.582 464.991 L 922.498 468.687 L 928.559 473.661 L 933.534 479.723 L 937.230 486.638 L 939.507 494.142 L 940.275 501.946 L 939.507 509.749 L 937.230 517.253 L 933.534 524.168 L 928.559 530.230 L 922.498 535.204 L 915.582 538.901 L 908.079 541.177 L 900.275 541.946 L 895.275 541.946 L 893.970 542.031 L 892.687 542.286 L 891.448 542.707 L 890.275 543.285 L 889.188 544.012 L 888.204 544.875 L 887.342 545.858 L 886.615 546.946 L 886.036 548.119 L 885.616 549.357 L 885.361 550.640 L 885.275 551.946 L 885.275 571.946 L 885.361 573.251 L 885.616 574.534 L 886.036 575.773 L 886.615 576.946 L 887.342 578.033 L 888.204 579.017 L 889.188 579.879 L 890.275 580.606 L 891.448 581.184 L 892.687 581.605 L 893.970 581.860 L 895.275 581.946 L 900.275 581.946 L 908.079 582.714 L 915.582 584.991 L 922.498 588.687 L 928.559 593.661 L 933.534 599.723 L 937.230 606.638 L 939.507 614.142 L 940.275 621.946 L 939.507 629.749 L 937.230 637.253 L 933.534 644.168 L 928.559 650.230 L 922.498 655.204 L 915.582 658.901 L 908.079 661.177 L 900.275 661.946 L 895.275 661.946 L 893.970 662.031 L 892.687 662.286 L 891.448 662.707 L 890.275 663.285 L 889.188 664.012 L 888.204 664.875 L 887.342 665.858 L 886.615 666.946 L 886.036 668.119 L 885.616 669.357 L 885.361 670.640 L 885.275 671.946 L 885.275 697.090 L 885.361 698.395 L 885.616 699.678 L 886.036 700.917 L 886.615 702.090 L 887.342 703.177 L 888.204 704.161 L 889.188 705.023 L 890.275 705.750 L 891.448 706.329 L 892.687 706.749 L 893.970 707.004 L 895.275 707.090 L 1101.275 707.090 L 1114.711 707.844 L 1127.978 710.098 L 1140.909 713.824 L 1153.341 718.973 L 1165.119 725.483 L 1176.094 733.270 L 1186.128 742.237 L 1195.095 752.271 L 1202.882 763.246 L 1209.391 775.024 L 1214.541 787.456 L 1218.266 800.387 L 1220.521 813.654 L 1221.275 827.090 L 1221.275 1183.950 L 1227.158 1190.515 L 1232.119 1197.802 L 1236.071 1205.681 L 1238.945 1214.014 L 1240.690 1222.655 L 1241.275 1231.450 L 1240.690 1240.246 L 1238.945 1248.886 L 1236.071 1257.220 L 1232.119 1265.099 L 1227.158 1272.385 Z" fill="#4e79a7" fill-opacity="0.7" stroke="#222" stroke-width="0.5"/>
  <path d="M 309.535 2756.582 L 309.245 2757.168 L 309.035 2757.787 L 308.908 2758.429 L 308.865 2759.082 L 308.908 2759.734 L 309.035 2760.376 L 309.245 2760.995 L 309.535 2761.582 L 309.898 2762.125 L 310.329 2762.617 L 310.821 2763.048 L 311.365 2763.412 L 339.078 2779.412 L 339.664 2779.701 L 340.283 2779.911 L 340.925 2780.039 L 341.578 2780.082 L 342.230 2780.039 L 342.872 2779.911 L 343.491 2779.701 L 344.078 2779.412 L 344.621 2779.048 L 345.113 2778.617 L 345.544 2778.125 L 345.908 2777.582 L 348.153 2773.692 L 348.377 2773.340 L 348.629 2773.007 L 348.909 2772.696 L 349.213 2772.410 L 349.540 2772.150 L 349.888 2771.919 L 350.253 2771.717 L 350.635 2771.547 L 351.029 2771.408 L 351.433 2771.304 L 351.845 2771.233 L 352.261 2771.197 L 431.869 2767.657 L 437.731 2766.690 L 443.200 2764.366 L 447.966 2760.817 L 451.760 2756.244 L 454.367 2750.904 L 455.641 2745.100 L 455.509 2739.160 L 453.978 2733.418 L 451.136 2728.200 L 447.143 2723.800 L 442.224 2720.466 L 436.658 2718.388 L 430.758 2717.682 L 334.880 2717.682 L 334.444 2717.701 L 334.012 2717.758 L 333.586 2717.852 L 333.170 2717.983 L 332.767 2718.150 L 332.380 2718.352 L 332.012 2718.586 L 331.666 2718.852 L 331.345 2719.146 L 331.050 2719.468 L 330.784 2719.814 L 330.550 2720.182 Z" fill="#bab0ac" fill-opacity="0.7" stroke="#222" stroke-width="0.5"/>
  <path d="M 23.512 2344.998 L 22.925 2344.709 L 22.306 2344.499 L 21.665 2344.371 L 21.012 2344.329 L 20.359 2344.371 L 19.718 2344.499 L 19.099 2344.709 L 18.512 2344.998 L 17.968 2345.362 L 17.477 2345.793 L 17.045 2346.285 L 16.682 2346.829 L 0.682 2374.541 L 0.393 2375.128 L 0.182 2375.747 L 0.055 2376.389 L 0.012 2377.041 L 0.055 2377.694 L 0.182 2378.335 L 0.393 2378.955 L 0.682 2379.541 L 1.045 2380.085 L 1.477 2380.577 L 1.968 2381.008 L 2.512 2381.371 L 6.401 2383.617 L 6.754 2383.841 L 7.087 2384.093 L 7.397 2384.373 L 7.684 2384.677 L 7.943 2385.004 L 8.175 2385.352 L 8.377 2385.717 L 8.547 2386.099 L 8.685 2386.493 L 8.790 2386.897 L 8.860 2387.309 L 8.896 2387.725 L 12.437 2467.332 L 13.404 2473.195 L 15.728 2478.664 L 19.277 2483.430 L 23.850 2487.223 L 29.189 2489.831 L 34.993 2491.104 L 40.934 2490.972 L 46.675 2489.442 L 51.893 2486.600 L 56.294 2482.607 L 59.627 2477.688 L 61.706 2472.122 L 62.412 2466.222 L 62.412 2370.344 L 62.393 2369.908 L 62.336 2369.476 L 62.241 2369.050 L 62.110 2368.634 L 61.943 2368.231 L 61.742 2367.844 L 61.508 2367.476 L 61.242 2367.130 L 60.947 2366.808 L 60.626 2366.514 L 60.280 2366.248 L 59.912 2366.014 Z" fill="#bab0ac" fill-opacity="0.7" stroke="#222" stroke-width="0.5"/>
  <path d="M 38.907 2353.801 L 39.494 2354.090 L 40.113 2354.300 L 40.754 2354.428 L 41.407 2354.471 L 42.060 2354.428 L 42.701 2354.300 L 43.320 2354.090 L 43.907 2353.801 L 44.451 2353.437 L 44.942 2353.006 L 45.374 2352.514 L 45.737 2351.971 L 61.737 2324.258 L 62.026 2323.671 L 62.237 2323.052 L 62.364 2322.410 L 62.407 2321.758 L 62.364 2321.105 L 62.237 2320.464 L 62.026 2319.844 L 61.737 2319.258 L 61.374 2318.714 L 60.942 2318.222 L 60.451 2317.791 L 59.907 2317.428 L 56.018 2315.182 L 55.665 2314.958 L 55.332 2314.706 L 55.022 2314.427 L 54.735 2314.122 L 54.476 2313.795 L 54.244 2313.448 L 54.042 2313.082 L 53.872 2312.701 L 53.734 2312.306 L 53.629 2311.902 L 53.559 2311.490 L 53.523 2311.074 L 49.982 2231.467 L 49.015 2225.604 L 46.691 2220.135 L 43.142 2215.370 L 38.569 2211.576 L 33.230 2208.968 L 27.426 2207.695 L 21.485 2207.827 L 15.744 2209.357 L 10.526 2212.199 L 6.125 2216.192 L 2.792 2221.111 L 0.713 2226.678 L 0.007 2232.577 L 0.007 2328.455 L 0.026 2328.891 L 0.083 2329.323 L 0.178 2329.749 L 0.309 2330.165 L 0.476 2330.568 L 0.677 2330.955 L 0.911 2331.323 L 1.177 2331.669 L 1.472 2331.991 L 1.793 2332.285 L 2.139 2332.551 L 2.507 2332.785 Z" fill="#bab0ac" fill-opacity="0.7" stroke="#222" stroke-width="0.5"/>
  <path d="M 39.025 2211.831 L 39.612 2212.121 L 40.231 2212.331 L 40.873 2212.458 L 41.525 2212.501 L 42.178 2212.458 L 42.819 2212.331 L 43.439 2212.121 L 44.025 2211.831 L 44.569 2211.468 L 45.061 2211.037 L 45.492 2210.545 L 45.855 2210.001 L 61.855 2182.288 L 62.145 2181.702 L 62.355 2181.082 L 62.483 2180.441 L 62.525 2179.788 L 62.483 2179.136 L 62.355 2178.494 L 62.145 2177.875 L 61.855 2177.288 L 61.492 2176.745 L 61.061 2176.253 L 60.569 2175.822 L 60.025 2175.458 L 56.136 2173.213 L 55.783 2172.989 L 55.451 2172.737 L 55.140 2172.457 L 54.854 2172.153 L 54.594 2171.826 L 54.363 2171.478 L 54.161 2171.112 L 53.990 2170.731 L 53.852 2170.337 L 53.748 2169.933 L 53.677 2169.521 L 53.641 2169.105 L 50.101 2089.497 L 49.133 2083.635 L 46.810 2078.166 L 43.261 2073.400 L 38.688 2069.606 L 33.348 2066.999 L 27.544 2065.725 L 21.604 2065.857 L 15.862 2067.388 L 10.644 2070.230 L 6.244 2074.223 L 2.910 2079.142 L 0.832 2084.708 L 0.126 2090.608 L 0.126 2186.486 L 0.145 2186.921 L 0.202 2187.354 L 0.296 2187.780 L 0.427 2188.196 L 0.594 2188.599 L 0.795 2188.986 L 1.030 2189.354 L 1.295 2189.700 L 1.590 2190.021 L 1.912 2190.316 L 2.258 2190.581 L 2.626 2190.816 Z" fill="#bab0ac" fill-opacity="0.7" stroke="#222" stroke-width="0.5"/>
  <text x="6" y="20" font-size="34" fill="#000">B3 sheet 0  placed=60</text>
</svg>